G04 #@! TF.GenerationSoftware,KiCad,Pcbnew,(5.1.5)-3*
G04 #@! TF.CreationDate,2019-12-14T16:38:42-06:00*
G04 #@! TF.ProjectId,RaspberryPiBreakout_Hardware,52617370-6265-4727-9279-506942726561,rev?*
G04 #@! TF.SameCoordinates,Original*
G04 #@! TF.FileFunction,Soldermask,Bot*
G04 #@! TF.FilePolarity,Negative*
%FSLAX46Y46*%
G04 Gerber Fmt 4.6, Leading zero omitted, Abs format (unit mm)*
G04 Created by KiCad (PCBNEW (5.1.5)-3) date 2019-12-14 16:38:42*
%MOMM*%
%LPD*%
G04 APERTURE LIST*
%ADD10C,0.100000*%
G04 APERTURE END LIST*
D10*
G36*
X176622585Y-125202802D02*
G01*
X176772410Y-125232604D01*
X177054674Y-125349521D01*
X177308705Y-125519259D01*
X177524741Y-125735295D01*
X177694479Y-125989326D01*
X177811396Y-126271590D01*
X177871000Y-126571240D01*
X177871000Y-126876760D01*
X177811396Y-127176410D01*
X177694479Y-127458674D01*
X177524741Y-127712705D01*
X177308705Y-127928741D01*
X177054674Y-128098479D01*
X176772410Y-128215396D01*
X176622585Y-128245198D01*
X176472761Y-128275000D01*
X176167239Y-128275000D01*
X176017415Y-128245198D01*
X175867590Y-128215396D01*
X175585326Y-128098479D01*
X175331295Y-127928741D01*
X175115259Y-127712705D01*
X174945521Y-127458674D01*
X174828604Y-127176410D01*
X174769000Y-126876760D01*
X174769000Y-126571240D01*
X174828604Y-126271590D01*
X174945521Y-125989326D01*
X175115259Y-125735295D01*
X175331295Y-125519259D01*
X175585326Y-125349521D01*
X175867590Y-125232604D01*
X176017415Y-125202802D01*
X176167239Y-125173000D01*
X176472761Y-125173000D01*
X176622585Y-125202802D01*
G37*
G36*
X118622585Y-125202802D02*
G01*
X118772410Y-125232604D01*
X119054674Y-125349521D01*
X119308705Y-125519259D01*
X119524741Y-125735295D01*
X119694479Y-125989326D01*
X119811396Y-126271590D01*
X119871000Y-126571240D01*
X119871000Y-126876760D01*
X119811396Y-127176410D01*
X119694479Y-127458674D01*
X119524741Y-127712705D01*
X119308705Y-127928741D01*
X119054674Y-128098479D01*
X118772410Y-128215396D01*
X118622585Y-128245198D01*
X118472761Y-128275000D01*
X118167239Y-128275000D01*
X118017415Y-128245198D01*
X117867590Y-128215396D01*
X117585326Y-128098479D01*
X117331295Y-127928741D01*
X117115259Y-127712705D01*
X116945521Y-127458674D01*
X116828604Y-127176410D01*
X116769000Y-126876760D01*
X116769000Y-126571240D01*
X116828604Y-126271590D01*
X116945521Y-125989326D01*
X117115259Y-125735295D01*
X117331295Y-125519259D01*
X117585326Y-125349521D01*
X117867590Y-125232604D01*
X118017415Y-125202802D01*
X118167239Y-125173000D01*
X118472761Y-125173000D01*
X118622585Y-125202802D01*
G37*
G36*
X77988039Y-120212250D02*
G01*
X78177372Y-120290675D01*
X78311251Y-120346129D01*
X78602134Y-120540491D01*
X78849509Y-120787866D01*
X79043871Y-121078749D01*
X79043871Y-121078750D01*
X79177750Y-121401961D01*
X79246000Y-121745078D01*
X79246000Y-122094922D01*
X79177750Y-122438039D01*
X79099325Y-122627372D01*
X79043871Y-122761251D01*
X78849509Y-123052134D01*
X78602134Y-123299509D01*
X78311251Y-123493871D01*
X78177372Y-123549325D01*
X77988039Y-123627750D01*
X77644922Y-123696000D01*
X77295078Y-123696000D01*
X76951961Y-123627750D01*
X76762628Y-123549325D01*
X76628749Y-123493871D01*
X76337866Y-123299509D01*
X76090491Y-123052134D01*
X75896129Y-122761251D01*
X75840675Y-122627372D01*
X75762250Y-122438039D01*
X75694000Y-122094922D01*
X75694000Y-121745078D01*
X75762250Y-121401961D01*
X75896129Y-121078750D01*
X75896129Y-121078749D01*
X76090491Y-120787866D01*
X76337866Y-120540491D01*
X76628749Y-120346129D01*
X76762628Y-120290675D01*
X76951961Y-120212250D01*
X77295078Y-120144000D01*
X77644922Y-120144000D01*
X77988039Y-120212250D01*
G37*
G36*
X161497908Y-118252380D02*
G01*
X161664767Y-118285570D01*
X162136299Y-118480885D01*
X162356853Y-118628255D01*
X162560666Y-118764438D01*
X162921562Y-119125334D01*
X163042927Y-119306971D01*
X163205115Y-119549701D01*
X163399298Y-120018501D01*
X163400430Y-120021234D01*
X163500000Y-120521807D01*
X163500000Y-121032193D01*
X163472935Y-121168257D01*
X163400430Y-121532767D01*
X163205115Y-122004299D01*
X163144562Y-122094922D01*
X162921562Y-122428666D01*
X162560666Y-122789562D01*
X162379029Y-122910927D01*
X162136299Y-123073115D01*
X161664767Y-123268430D01*
X161508521Y-123299509D01*
X161164193Y-123368000D01*
X160653807Y-123368000D01*
X160309479Y-123299509D01*
X160153233Y-123268430D01*
X159681701Y-123073115D01*
X159438971Y-122910927D01*
X159257334Y-122789562D01*
X158896438Y-122428666D01*
X158673438Y-122094922D01*
X158612885Y-122004299D01*
X158417570Y-121532767D01*
X158345065Y-121168257D01*
X158318000Y-121032193D01*
X158318000Y-120521807D01*
X158417570Y-120021234D01*
X158418702Y-120018501D01*
X158612885Y-119549701D01*
X158775073Y-119306971D01*
X158896438Y-119125334D01*
X159257334Y-118764438D01*
X159461147Y-118628255D01*
X159681701Y-118480885D01*
X160153233Y-118285570D01*
X160320092Y-118252380D01*
X160653807Y-118186000D01*
X161164193Y-118186000D01*
X161497908Y-118252380D01*
G37*
G36*
X86343142Y-119868242D02*
G01*
X86491101Y-119929529D01*
X86624255Y-120018499D01*
X86737501Y-120131745D01*
X86826471Y-120264899D01*
X86887758Y-120412858D01*
X86919000Y-120569925D01*
X86919000Y-120730075D01*
X86887758Y-120887142D01*
X86826471Y-121035101D01*
X86737501Y-121168255D01*
X86624255Y-121281501D01*
X86491101Y-121370471D01*
X86343142Y-121431758D01*
X86186075Y-121463000D01*
X86025925Y-121463000D01*
X85868858Y-121431758D01*
X85720899Y-121370471D01*
X85587745Y-121281501D01*
X85474499Y-121168255D01*
X85385529Y-121035101D01*
X85324242Y-120887142D01*
X85293000Y-120730075D01*
X85293000Y-120569925D01*
X85324242Y-120412858D01*
X85385529Y-120264899D01*
X85474499Y-120131745D01*
X85587745Y-120018499D01*
X85720899Y-119929529D01*
X85868858Y-119868242D01*
X86025925Y-119837000D01*
X86186075Y-119837000D01*
X86343142Y-119868242D01*
G37*
G36*
X86343142Y-117328242D02*
G01*
X86491101Y-117389529D01*
X86624255Y-117478499D01*
X86737501Y-117591745D01*
X86826471Y-117724899D01*
X86887758Y-117872858D01*
X86919000Y-118029925D01*
X86919000Y-118190075D01*
X86887758Y-118347142D01*
X86826471Y-118495101D01*
X86737501Y-118628255D01*
X86624255Y-118741501D01*
X86491101Y-118830471D01*
X86343142Y-118891758D01*
X86186075Y-118923000D01*
X86025925Y-118923000D01*
X85868858Y-118891758D01*
X85720899Y-118830471D01*
X85587745Y-118741501D01*
X85474499Y-118628255D01*
X85385529Y-118495101D01*
X85324242Y-118347142D01*
X85293000Y-118190075D01*
X85293000Y-118029925D01*
X85324242Y-117872858D01*
X85385529Y-117724899D01*
X85474499Y-117591745D01*
X85587745Y-117478499D01*
X85720899Y-117389529D01*
X85868858Y-117328242D01*
X86025925Y-117297000D01*
X86186075Y-117297000D01*
X86343142Y-117328242D01*
G37*
G36*
X86343142Y-114788242D02*
G01*
X86491101Y-114849529D01*
X86624255Y-114938499D01*
X86737501Y-115051745D01*
X86826471Y-115184899D01*
X86887758Y-115332858D01*
X86919000Y-115489925D01*
X86919000Y-115650075D01*
X86887758Y-115807142D01*
X86826471Y-115955101D01*
X86737501Y-116088255D01*
X86624255Y-116201501D01*
X86491101Y-116290471D01*
X86343142Y-116351758D01*
X86186075Y-116383000D01*
X86025925Y-116383000D01*
X85868858Y-116351758D01*
X85720899Y-116290471D01*
X85587745Y-116201501D01*
X85474499Y-116088255D01*
X85385529Y-115955101D01*
X85324242Y-115807142D01*
X85293000Y-115650075D01*
X85293000Y-115489925D01*
X85324242Y-115332858D01*
X85385529Y-115184899D01*
X85474499Y-115051745D01*
X85587745Y-114938499D01*
X85720899Y-114849529D01*
X85868858Y-114788242D01*
X86025925Y-114757000D01*
X86186075Y-114757000D01*
X86343142Y-114788242D01*
G37*
G36*
X77988039Y-112592250D02*
G01*
X78177372Y-112670675D01*
X78311251Y-112726129D01*
X78602134Y-112920491D01*
X78849509Y-113167866D01*
X79043871Y-113458749D01*
X79043871Y-113458750D01*
X79177750Y-113781961D01*
X79246000Y-114125078D01*
X79246000Y-114474922D01*
X79177750Y-114818039D01*
X79127853Y-114938501D01*
X79043871Y-115141251D01*
X78849509Y-115432134D01*
X78602134Y-115679509D01*
X78311251Y-115873871D01*
X78177372Y-115929325D01*
X77988039Y-116007750D01*
X77644922Y-116076000D01*
X77295078Y-116076000D01*
X76951961Y-116007750D01*
X76762628Y-115929325D01*
X76628749Y-115873871D01*
X76337866Y-115679509D01*
X76090491Y-115432134D01*
X75896129Y-115141251D01*
X75812147Y-114938501D01*
X75762250Y-114818039D01*
X75694000Y-114474922D01*
X75694000Y-114125078D01*
X75762250Y-113781961D01*
X75896129Y-113458750D01*
X75896129Y-113458749D01*
X76090491Y-113167866D01*
X76337866Y-112920491D01*
X76628749Y-112726129D01*
X76762628Y-112670675D01*
X76951961Y-112592250D01*
X77295078Y-112524000D01*
X77644922Y-112524000D01*
X77988039Y-112592250D01*
G37*
G36*
X161497908Y-110378380D02*
G01*
X161664767Y-110411570D01*
X162136299Y-110606885D01*
X162379029Y-110769073D01*
X162560666Y-110890438D01*
X162921562Y-111251334D01*
X163042927Y-111432971D01*
X163205115Y-111675701D01*
X163400430Y-112147233D01*
X163400430Y-112147234D01*
X163500000Y-112647807D01*
X163500000Y-113158193D01*
X163440216Y-113458749D01*
X163400430Y-113658767D01*
X163205115Y-114130299D01*
X163042927Y-114373029D01*
X162921562Y-114554666D01*
X162560666Y-114915562D01*
X162379029Y-115036927D01*
X162136299Y-115199115D01*
X161664767Y-115394430D01*
X161497908Y-115427620D01*
X161164193Y-115494000D01*
X160653807Y-115494000D01*
X160320092Y-115427620D01*
X160153233Y-115394430D01*
X159681701Y-115199115D01*
X159438971Y-115036927D01*
X159257334Y-114915562D01*
X158896438Y-114554666D01*
X158775073Y-114373029D01*
X158612885Y-114130299D01*
X158417570Y-113658767D01*
X158377784Y-113458749D01*
X158318000Y-113158193D01*
X158318000Y-112647807D01*
X158417570Y-112147234D01*
X158417570Y-112147233D01*
X158612885Y-111675701D01*
X158775073Y-111432971D01*
X158896438Y-111251334D01*
X159257334Y-110890438D01*
X159438971Y-110769073D01*
X159681701Y-110606885D01*
X160153233Y-110411570D01*
X160320092Y-110378380D01*
X160653807Y-110312000D01*
X161164193Y-110312000D01*
X161497908Y-110378380D01*
G37*
G36*
X77988039Y-107004250D02*
G01*
X78177372Y-107082675D01*
X78311251Y-107138129D01*
X78602134Y-107332491D01*
X78849509Y-107579866D01*
X79043871Y-107870749D01*
X79043871Y-107870750D01*
X79177750Y-108193961D01*
X79246000Y-108537078D01*
X79246000Y-108886922D01*
X79177750Y-109230039D01*
X79099325Y-109419372D01*
X79043871Y-109553251D01*
X78849509Y-109844134D01*
X78602134Y-110091509D01*
X78311251Y-110285871D01*
X78177372Y-110341325D01*
X77988039Y-110419750D01*
X77644922Y-110488000D01*
X77295078Y-110488000D01*
X76951961Y-110419750D01*
X76762628Y-110341325D01*
X76628749Y-110285871D01*
X76337866Y-110091509D01*
X76090491Y-109844134D01*
X75896129Y-109553251D01*
X75840675Y-109419372D01*
X75762250Y-109230039D01*
X75694000Y-108886922D01*
X75694000Y-108537078D01*
X75762250Y-108193961D01*
X75896129Y-107870750D01*
X75896129Y-107870749D01*
X76090491Y-107579866D01*
X76337866Y-107332491D01*
X76628749Y-107138129D01*
X76762628Y-107082675D01*
X76951961Y-107004250D01*
X77295078Y-106936000D01*
X77644922Y-106936000D01*
X77988039Y-107004250D01*
G37*
G36*
X86343142Y-106660242D02*
G01*
X86491101Y-106721529D01*
X86624255Y-106810499D01*
X86737501Y-106923745D01*
X86826471Y-107056899D01*
X86887758Y-107204858D01*
X86919000Y-107361925D01*
X86919000Y-107522075D01*
X86887758Y-107679142D01*
X86826471Y-107827101D01*
X86737501Y-107960255D01*
X86624255Y-108073501D01*
X86491101Y-108162471D01*
X86343142Y-108223758D01*
X86186075Y-108255000D01*
X86025925Y-108255000D01*
X85868858Y-108223758D01*
X85720899Y-108162471D01*
X85587745Y-108073501D01*
X85474499Y-107960255D01*
X85385529Y-107827101D01*
X85324242Y-107679142D01*
X85293000Y-107522075D01*
X85293000Y-107361925D01*
X85324242Y-107204858D01*
X85385529Y-107056899D01*
X85474499Y-106923745D01*
X85587745Y-106810499D01*
X85720899Y-106721529D01*
X85868858Y-106660242D01*
X86025925Y-106629000D01*
X86186075Y-106629000D01*
X86343142Y-106660242D01*
G37*
G36*
X166607142Y-104628242D02*
G01*
X166755101Y-104689529D01*
X166888255Y-104778499D01*
X167001501Y-104891745D01*
X167090471Y-105024899D01*
X167151758Y-105172858D01*
X167183000Y-105329925D01*
X167183000Y-105490075D01*
X167151758Y-105647142D01*
X167090471Y-105795101D01*
X167001501Y-105928255D01*
X166888255Y-106041501D01*
X166755101Y-106130471D01*
X166607142Y-106191758D01*
X166450075Y-106223000D01*
X166289925Y-106223000D01*
X166132858Y-106191758D01*
X165984899Y-106130471D01*
X165851745Y-106041501D01*
X165738499Y-105928255D01*
X165649529Y-105795101D01*
X165588242Y-105647142D01*
X165557000Y-105490075D01*
X165557000Y-105329925D01*
X165588242Y-105172858D01*
X165649529Y-105024899D01*
X165738499Y-104891745D01*
X165851745Y-104778499D01*
X165984899Y-104689529D01*
X166132858Y-104628242D01*
X166289925Y-104597000D01*
X166450075Y-104597000D01*
X166607142Y-104628242D01*
G37*
G36*
X86343142Y-104120242D02*
G01*
X86491101Y-104181529D01*
X86624255Y-104270499D01*
X86737501Y-104383745D01*
X86826471Y-104516899D01*
X86887758Y-104664858D01*
X86919000Y-104821925D01*
X86919000Y-104982075D01*
X86887758Y-105139142D01*
X86826471Y-105287101D01*
X86737501Y-105420255D01*
X86624255Y-105533501D01*
X86491101Y-105622471D01*
X86343142Y-105683758D01*
X86186075Y-105715000D01*
X86025925Y-105715000D01*
X85868858Y-105683758D01*
X85720899Y-105622471D01*
X85587745Y-105533501D01*
X85474499Y-105420255D01*
X85385529Y-105287101D01*
X85324242Y-105139142D01*
X85293000Y-104982075D01*
X85293000Y-104821925D01*
X85324242Y-104664858D01*
X85385529Y-104516899D01*
X85474499Y-104383745D01*
X85587745Y-104270499D01*
X85720899Y-104181529D01*
X85868858Y-104120242D01*
X86025925Y-104089000D01*
X86186075Y-104089000D01*
X86343142Y-104120242D01*
G37*
G36*
X143980000Y-104991000D02*
G01*
X142278000Y-104991000D01*
X142278000Y-103289000D01*
X143980000Y-103289000D01*
X143980000Y-104991000D01*
G37*
G36*
X166607142Y-102088242D02*
G01*
X166755101Y-102149529D01*
X166888255Y-102238499D01*
X167001501Y-102351745D01*
X167090471Y-102484899D01*
X167151758Y-102632858D01*
X167183000Y-102789925D01*
X167183000Y-102950075D01*
X167151758Y-103107142D01*
X167090471Y-103255101D01*
X167001501Y-103388255D01*
X166888255Y-103501501D01*
X166755101Y-103590471D01*
X166607142Y-103651758D01*
X166450075Y-103683000D01*
X166289925Y-103683000D01*
X166132858Y-103651758D01*
X165984899Y-103590471D01*
X165851745Y-103501501D01*
X165738499Y-103388255D01*
X165649529Y-103255101D01*
X165588242Y-103107142D01*
X165557000Y-102950075D01*
X165557000Y-102789925D01*
X165588242Y-102632858D01*
X165649529Y-102484899D01*
X165738499Y-102351745D01*
X165851745Y-102238499D01*
X165984899Y-102149529D01*
X166132858Y-102088242D01*
X166289925Y-102057000D01*
X166450075Y-102057000D01*
X166607142Y-102088242D01*
G37*
G36*
X86343142Y-101580242D02*
G01*
X86491101Y-101641529D01*
X86624255Y-101730499D01*
X86737501Y-101843745D01*
X86826471Y-101976899D01*
X86887758Y-102124858D01*
X86919000Y-102281925D01*
X86919000Y-102442075D01*
X86887758Y-102599142D01*
X86826471Y-102747101D01*
X86737501Y-102880255D01*
X86624255Y-102993501D01*
X86491101Y-103082471D01*
X86343142Y-103143758D01*
X86186075Y-103175000D01*
X86025925Y-103175000D01*
X85868858Y-103143758D01*
X85720899Y-103082471D01*
X85587745Y-102993501D01*
X85474499Y-102880255D01*
X85385529Y-102747101D01*
X85324242Y-102599142D01*
X85293000Y-102442075D01*
X85293000Y-102281925D01*
X85324242Y-102124858D01*
X85385529Y-101976899D01*
X85474499Y-101843745D01*
X85587745Y-101730499D01*
X85720899Y-101641529D01*
X85868858Y-101580242D01*
X86025925Y-101549000D01*
X86186075Y-101549000D01*
X86343142Y-101580242D01*
G37*
G36*
X143377228Y-100821703D02*
G01*
X143532100Y-100885853D01*
X143671481Y-100978985D01*
X143790015Y-101097519D01*
X143883147Y-101236900D01*
X143947297Y-101391772D01*
X143980000Y-101556184D01*
X143980000Y-101723816D01*
X143947297Y-101888228D01*
X143883147Y-102043100D01*
X143790015Y-102182481D01*
X143671481Y-102301015D01*
X143532100Y-102394147D01*
X143377228Y-102458297D01*
X143212816Y-102491000D01*
X143045184Y-102491000D01*
X142880772Y-102458297D01*
X142725900Y-102394147D01*
X142586519Y-102301015D01*
X142467985Y-102182481D01*
X142374853Y-102043100D01*
X142310703Y-101888228D01*
X142278000Y-101723816D01*
X142278000Y-101556184D01*
X142310703Y-101391772D01*
X142374853Y-101236900D01*
X142467985Y-101097519D01*
X142586519Y-100978985D01*
X142725900Y-100885853D01*
X142880772Y-100821703D01*
X143045184Y-100789000D01*
X143212816Y-100789000D01*
X143377228Y-100821703D01*
G37*
G36*
X166607142Y-99548242D02*
G01*
X166755101Y-99609529D01*
X166888255Y-99698499D01*
X167001501Y-99811745D01*
X167090471Y-99944899D01*
X167151758Y-100092858D01*
X167183000Y-100249925D01*
X167183000Y-100410075D01*
X167151758Y-100567142D01*
X167090471Y-100715101D01*
X167001501Y-100848255D01*
X166888255Y-100961501D01*
X166755101Y-101050471D01*
X166607142Y-101111758D01*
X166450075Y-101143000D01*
X166289925Y-101143000D01*
X166132858Y-101111758D01*
X165984899Y-101050471D01*
X165851745Y-100961501D01*
X165738499Y-100848255D01*
X165649529Y-100715101D01*
X165588242Y-100567142D01*
X165557000Y-100410075D01*
X165557000Y-100249925D01*
X165588242Y-100092858D01*
X165649529Y-99944899D01*
X165738499Y-99811745D01*
X165851745Y-99698499D01*
X165984899Y-99609529D01*
X166132858Y-99548242D01*
X166289925Y-99517000D01*
X166450075Y-99517000D01*
X166607142Y-99548242D01*
G37*
G36*
X86343142Y-99040242D02*
G01*
X86491101Y-99101529D01*
X86624255Y-99190499D01*
X86737501Y-99303745D01*
X86826471Y-99436899D01*
X86887758Y-99584858D01*
X86919000Y-99741925D01*
X86919000Y-99902075D01*
X86887758Y-100059142D01*
X86826471Y-100207101D01*
X86737501Y-100340255D01*
X86624255Y-100453501D01*
X86491101Y-100542471D01*
X86343142Y-100603758D01*
X86186075Y-100635000D01*
X86025925Y-100635000D01*
X85868858Y-100603758D01*
X85720899Y-100542471D01*
X85587745Y-100453501D01*
X85474499Y-100340255D01*
X85385529Y-100207101D01*
X85324242Y-100059142D01*
X85293000Y-99902075D01*
X85293000Y-99741925D01*
X85324242Y-99584858D01*
X85385529Y-99436899D01*
X85474499Y-99303745D01*
X85587745Y-99190499D01*
X85720899Y-99101529D01*
X85868858Y-99040242D01*
X86025925Y-99009000D01*
X86186075Y-99009000D01*
X86343142Y-99040242D01*
G37*
G36*
X77988039Y-96844250D02*
G01*
X78177372Y-96922675D01*
X78311251Y-96978129D01*
X78602134Y-97172491D01*
X78849509Y-97419866D01*
X79043871Y-97710749D01*
X79043871Y-97710750D01*
X79177750Y-98033961D01*
X79246000Y-98377078D01*
X79246000Y-98726922D01*
X79177750Y-99070039D01*
X79127853Y-99190501D01*
X79043871Y-99393251D01*
X78849509Y-99684134D01*
X78602134Y-99931509D01*
X78311251Y-100125871D01*
X78177372Y-100181325D01*
X77988039Y-100259750D01*
X77644922Y-100328000D01*
X77295078Y-100328000D01*
X76951961Y-100259750D01*
X76762628Y-100181325D01*
X76628749Y-100125871D01*
X76337866Y-99931509D01*
X76090491Y-99684134D01*
X75896129Y-99393251D01*
X75812147Y-99190501D01*
X75762250Y-99070039D01*
X75694000Y-98726922D01*
X75694000Y-98377078D01*
X75762250Y-98033961D01*
X75896129Y-97710750D01*
X75896129Y-97710749D01*
X76090491Y-97419866D01*
X76337866Y-97172491D01*
X76628749Y-96978129D01*
X76762628Y-96922675D01*
X76951961Y-96844250D01*
X77295078Y-96776000D01*
X77644922Y-96776000D01*
X77988039Y-96844250D01*
G37*
G36*
X77988039Y-92272250D02*
G01*
X78177372Y-92350675D01*
X78311251Y-92406129D01*
X78602134Y-92600491D01*
X78849509Y-92847866D01*
X79043871Y-93138749D01*
X79043871Y-93138750D01*
X79177750Y-93461961D01*
X79246000Y-93805078D01*
X79246000Y-94154922D01*
X79177750Y-94498039D01*
X79099325Y-94687372D01*
X79043871Y-94821251D01*
X78849509Y-95112134D01*
X78602134Y-95359509D01*
X78311251Y-95553871D01*
X78177372Y-95609325D01*
X77988039Y-95687750D01*
X77644922Y-95756000D01*
X77295078Y-95756000D01*
X76951961Y-95687750D01*
X76762628Y-95609325D01*
X76628749Y-95553871D01*
X76337866Y-95359509D01*
X76090491Y-95112134D01*
X75896129Y-94821251D01*
X75840675Y-94687372D01*
X75762250Y-94498039D01*
X75694000Y-94154922D01*
X75694000Y-93805078D01*
X75762250Y-93461961D01*
X75896129Y-93138750D01*
X75896129Y-93138749D01*
X76090491Y-92847866D01*
X76337866Y-92600491D01*
X76628749Y-92406129D01*
X76762628Y-92350675D01*
X76951961Y-92272250D01*
X77295078Y-92204000D01*
X77644922Y-92204000D01*
X77988039Y-92272250D01*
G37*
G36*
X86343142Y-91928242D02*
G01*
X86491101Y-91989529D01*
X86624255Y-92078499D01*
X86737501Y-92191745D01*
X86826471Y-92324899D01*
X86887758Y-92472858D01*
X86919000Y-92629925D01*
X86919000Y-92790075D01*
X86887758Y-92947142D01*
X86826471Y-93095101D01*
X86737501Y-93228255D01*
X86624255Y-93341501D01*
X86491101Y-93430471D01*
X86343142Y-93491758D01*
X86186075Y-93523000D01*
X86025925Y-93523000D01*
X85868858Y-93491758D01*
X85720899Y-93430471D01*
X85587745Y-93341501D01*
X85474499Y-93228255D01*
X85385529Y-93095101D01*
X85324242Y-92947142D01*
X85293000Y-92790075D01*
X85293000Y-92629925D01*
X85324242Y-92472858D01*
X85385529Y-92324899D01*
X85474499Y-92191745D01*
X85587745Y-92078499D01*
X85720899Y-91989529D01*
X85868858Y-91928242D01*
X86025925Y-91897000D01*
X86186075Y-91897000D01*
X86343142Y-91928242D01*
G37*
G36*
X86343142Y-89388242D02*
G01*
X86491101Y-89449529D01*
X86624255Y-89538499D01*
X86737501Y-89651745D01*
X86826471Y-89784899D01*
X86887758Y-89932858D01*
X86919000Y-90089925D01*
X86919000Y-90250075D01*
X86887758Y-90407142D01*
X86826471Y-90555101D01*
X86737501Y-90688255D01*
X86624255Y-90801501D01*
X86491101Y-90890471D01*
X86343142Y-90951758D01*
X86186075Y-90983000D01*
X86025925Y-90983000D01*
X85868858Y-90951758D01*
X85720899Y-90890471D01*
X85587745Y-90801501D01*
X85474499Y-90688255D01*
X85385529Y-90555101D01*
X85324242Y-90407142D01*
X85293000Y-90250075D01*
X85293000Y-90089925D01*
X85324242Y-89932858D01*
X85385529Y-89784899D01*
X85474499Y-89651745D01*
X85587745Y-89538499D01*
X85720899Y-89449529D01*
X85868858Y-89388242D01*
X86025925Y-89357000D01*
X86186075Y-89357000D01*
X86343142Y-89388242D01*
G37*
G36*
X152637142Y-88626242D02*
G01*
X152785101Y-88687529D01*
X152918255Y-88776499D01*
X153031501Y-88889745D01*
X153120471Y-89022899D01*
X153181758Y-89170858D01*
X153213000Y-89327925D01*
X153213000Y-89488075D01*
X153181758Y-89645142D01*
X153120471Y-89793101D01*
X153031501Y-89926255D01*
X152918255Y-90039501D01*
X152785101Y-90128471D01*
X152637142Y-90189758D01*
X152480075Y-90221000D01*
X152319925Y-90221000D01*
X152162858Y-90189758D01*
X152014899Y-90128471D01*
X151881745Y-90039501D01*
X151768499Y-89926255D01*
X151679529Y-89793101D01*
X151618242Y-89645142D01*
X151587000Y-89488075D01*
X151587000Y-89327925D01*
X151618242Y-89170858D01*
X151679529Y-89022899D01*
X151768499Y-88889745D01*
X151881745Y-88776499D01*
X152014899Y-88687529D01*
X152162858Y-88626242D01*
X152319925Y-88595000D01*
X152480075Y-88595000D01*
X152637142Y-88626242D01*
G37*
G36*
X86343142Y-86848242D02*
G01*
X86491101Y-86909529D01*
X86624255Y-86998499D01*
X86737501Y-87111745D01*
X86826471Y-87244899D01*
X86887758Y-87392858D01*
X86919000Y-87549925D01*
X86919000Y-87710075D01*
X86887758Y-87867142D01*
X86826471Y-88015101D01*
X86737501Y-88148255D01*
X86624255Y-88261501D01*
X86491101Y-88350471D01*
X86343142Y-88411758D01*
X86186075Y-88443000D01*
X86025925Y-88443000D01*
X85868858Y-88411758D01*
X85720899Y-88350471D01*
X85587745Y-88261501D01*
X85474499Y-88148255D01*
X85385529Y-88015101D01*
X85324242Y-87867142D01*
X85293000Y-87710075D01*
X85293000Y-87549925D01*
X85324242Y-87392858D01*
X85385529Y-87244899D01*
X85474499Y-87111745D01*
X85587745Y-86998499D01*
X85720899Y-86909529D01*
X85868858Y-86848242D01*
X86025925Y-86817000D01*
X86186075Y-86817000D01*
X86343142Y-86848242D01*
G37*
G36*
X152637142Y-86086242D02*
G01*
X152785101Y-86147529D01*
X152918255Y-86236499D01*
X153031501Y-86349745D01*
X153120471Y-86482899D01*
X153181758Y-86630858D01*
X153213000Y-86787925D01*
X153213000Y-86948075D01*
X153181758Y-87105142D01*
X153120471Y-87253101D01*
X153031501Y-87386255D01*
X152918255Y-87499501D01*
X152785101Y-87588471D01*
X152637142Y-87649758D01*
X152480075Y-87681000D01*
X152319925Y-87681000D01*
X152162858Y-87649758D01*
X152014899Y-87588471D01*
X151881745Y-87499501D01*
X151768499Y-87386255D01*
X151679529Y-87253101D01*
X151618242Y-87105142D01*
X151587000Y-86948075D01*
X151587000Y-86787925D01*
X151618242Y-86630858D01*
X151679529Y-86482899D01*
X151768499Y-86349745D01*
X151881745Y-86236499D01*
X152014899Y-86147529D01*
X152162858Y-86086242D01*
X152319925Y-86055000D01*
X152480075Y-86055000D01*
X152637142Y-86086242D01*
G37*
G36*
X86343142Y-84308242D02*
G01*
X86491101Y-84369529D01*
X86624255Y-84458499D01*
X86737501Y-84571745D01*
X86826471Y-84704899D01*
X86887758Y-84852858D01*
X86919000Y-85009925D01*
X86919000Y-85170075D01*
X86887758Y-85327142D01*
X86826471Y-85475101D01*
X86737501Y-85608255D01*
X86624255Y-85721501D01*
X86491101Y-85810471D01*
X86343142Y-85871758D01*
X86186075Y-85903000D01*
X86025925Y-85903000D01*
X85868858Y-85871758D01*
X85720899Y-85810471D01*
X85587745Y-85721501D01*
X85474499Y-85608255D01*
X85385529Y-85475101D01*
X85324242Y-85327142D01*
X85293000Y-85170075D01*
X85293000Y-85009925D01*
X85324242Y-84852858D01*
X85385529Y-84704899D01*
X85474499Y-84571745D01*
X85587745Y-84458499D01*
X85720899Y-84369529D01*
X85868858Y-84308242D01*
X86025925Y-84277000D01*
X86186075Y-84277000D01*
X86343142Y-84308242D01*
G37*
G36*
X77988039Y-82112250D02*
G01*
X78177372Y-82190675D01*
X78311251Y-82246129D01*
X78602134Y-82440491D01*
X78849509Y-82687866D01*
X79043871Y-82978749D01*
X79043871Y-82978750D01*
X79177750Y-83301961D01*
X79246000Y-83645078D01*
X79246000Y-83994922D01*
X79177750Y-84338039D01*
X79127853Y-84458501D01*
X79043871Y-84661251D01*
X78849509Y-84952134D01*
X78602134Y-85199509D01*
X78311251Y-85393871D01*
X78177372Y-85449325D01*
X77988039Y-85527750D01*
X77644922Y-85596000D01*
X77295078Y-85596000D01*
X76951961Y-85527750D01*
X76762628Y-85449325D01*
X76628749Y-85393871D01*
X76337866Y-85199509D01*
X76090491Y-84952134D01*
X75896129Y-84661251D01*
X75812147Y-84458501D01*
X75762250Y-84338039D01*
X75694000Y-83994922D01*
X75694000Y-83645078D01*
X75762250Y-83301961D01*
X75896129Y-82978750D01*
X75896129Y-82978749D01*
X76090491Y-82687866D01*
X76337866Y-82440491D01*
X76628749Y-82246129D01*
X76762628Y-82190675D01*
X76951961Y-82112250D01*
X77295078Y-82044000D01*
X77644922Y-82044000D01*
X77988039Y-82112250D01*
G37*
G36*
X152637142Y-83546242D02*
G01*
X152785101Y-83607529D01*
X152918255Y-83696499D01*
X153031501Y-83809745D01*
X153120471Y-83942899D01*
X153181758Y-84090858D01*
X153213000Y-84247925D01*
X153213000Y-84408075D01*
X153181758Y-84565142D01*
X153120471Y-84713101D01*
X153031501Y-84846255D01*
X152918255Y-84959501D01*
X152785101Y-85048471D01*
X152637142Y-85109758D01*
X152480075Y-85141000D01*
X152319925Y-85141000D01*
X152162858Y-85109758D01*
X152014899Y-85048471D01*
X151881745Y-84959501D01*
X151768499Y-84846255D01*
X151679529Y-84713101D01*
X151618242Y-84565142D01*
X151587000Y-84408075D01*
X151587000Y-84247925D01*
X151618242Y-84090858D01*
X151679529Y-83942899D01*
X151768499Y-83809745D01*
X151881745Y-83696499D01*
X152014899Y-83607529D01*
X152162858Y-83546242D01*
X152319925Y-83515000D01*
X152480075Y-83515000D01*
X152637142Y-83546242D01*
G37*
G36*
X98387000Y-81877000D02*
G01*
X96685000Y-81877000D01*
X96685000Y-80175000D01*
X98387000Y-80175000D01*
X98387000Y-81877000D01*
G37*
G36*
X130923512Y-78097927D02*
G01*
X131072812Y-78127624D01*
X131236784Y-78195544D01*
X131384354Y-78294147D01*
X131509853Y-78419646D01*
X131608456Y-78567216D01*
X131676376Y-78731188D01*
X131711000Y-78905259D01*
X131711000Y-79082741D01*
X131676376Y-79256812D01*
X131608456Y-79420784D01*
X131509853Y-79568354D01*
X131384354Y-79693853D01*
X131236784Y-79792456D01*
X131072812Y-79860376D01*
X130923512Y-79890073D01*
X130898742Y-79895000D01*
X130721258Y-79895000D01*
X130696488Y-79890073D01*
X130547188Y-79860376D01*
X130383216Y-79792456D01*
X130235646Y-79693853D01*
X130110147Y-79568354D01*
X130011544Y-79420784D01*
X129943624Y-79256812D01*
X129909000Y-79082741D01*
X129909000Y-78905259D01*
X129943624Y-78731188D01*
X130011544Y-78567216D01*
X130110147Y-78419646D01*
X130235646Y-78294147D01*
X130383216Y-78195544D01*
X130547188Y-78127624D01*
X130696488Y-78097927D01*
X130721258Y-78093000D01*
X130898742Y-78093000D01*
X130923512Y-78097927D01*
G37*
G36*
X156323512Y-78097927D02*
G01*
X156472812Y-78127624D01*
X156636784Y-78195544D01*
X156784354Y-78294147D01*
X156909853Y-78419646D01*
X157008456Y-78567216D01*
X157076376Y-78731188D01*
X157111000Y-78905259D01*
X157111000Y-79082741D01*
X157076376Y-79256812D01*
X157008456Y-79420784D01*
X156909853Y-79568354D01*
X156784354Y-79693853D01*
X156636784Y-79792456D01*
X156472812Y-79860376D01*
X156323512Y-79890073D01*
X156298742Y-79895000D01*
X156121258Y-79895000D01*
X156096488Y-79890073D01*
X155947188Y-79860376D01*
X155783216Y-79792456D01*
X155635646Y-79693853D01*
X155510147Y-79568354D01*
X155411544Y-79420784D01*
X155343624Y-79256812D01*
X155309000Y-79082741D01*
X155309000Y-78905259D01*
X155343624Y-78731188D01*
X155411544Y-78567216D01*
X155510147Y-78419646D01*
X155635646Y-78294147D01*
X155783216Y-78195544D01*
X155947188Y-78127624D01*
X156096488Y-78097927D01*
X156121258Y-78093000D01*
X156298742Y-78093000D01*
X156323512Y-78097927D01*
G37*
G36*
X128383512Y-78097927D02*
G01*
X128532812Y-78127624D01*
X128696784Y-78195544D01*
X128844354Y-78294147D01*
X128969853Y-78419646D01*
X129068456Y-78567216D01*
X129136376Y-78731188D01*
X129171000Y-78905259D01*
X129171000Y-79082741D01*
X129136376Y-79256812D01*
X129068456Y-79420784D01*
X128969853Y-79568354D01*
X128844354Y-79693853D01*
X128696784Y-79792456D01*
X128532812Y-79860376D01*
X128383512Y-79890073D01*
X128358742Y-79895000D01*
X128181258Y-79895000D01*
X128156488Y-79890073D01*
X128007188Y-79860376D01*
X127843216Y-79792456D01*
X127695646Y-79693853D01*
X127570147Y-79568354D01*
X127471544Y-79420784D01*
X127403624Y-79256812D01*
X127369000Y-79082741D01*
X127369000Y-78905259D01*
X127403624Y-78731188D01*
X127471544Y-78567216D01*
X127570147Y-78419646D01*
X127695646Y-78294147D01*
X127843216Y-78195544D01*
X128007188Y-78127624D01*
X128156488Y-78097927D01*
X128181258Y-78093000D01*
X128358742Y-78093000D01*
X128383512Y-78097927D01*
G37*
G36*
X138543512Y-78097927D02*
G01*
X138692812Y-78127624D01*
X138856784Y-78195544D01*
X139004354Y-78294147D01*
X139129853Y-78419646D01*
X139228456Y-78567216D01*
X139296376Y-78731188D01*
X139331000Y-78905259D01*
X139331000Y-79082741D01*
X139296376Y-79256812D01*
X139228456Y-79420784D01*
X139129853Y-79568354D01*
X139004354Y-79693853D01*
X138856784Y-79792456D01*
X138692812Y-79860376D01*
X138543512Y-79890073D01*
X138518742Y-79895000D01*
X138341258Y-79895000D01*
X138316488Y-79890073D01*
X138167188Y-79860376D01*
X138003216Y-79792456D01*
X137855646Y-79693853D01*
X137730147Y-79568354D01*
X137631544Y-79420784D01*
X137563624Y-79256812D01*
X137529000Y-79082741D01*
X137529000Y-78905259D01*
X137563624Y-78731188D01*
X137631544Y-78567216D01*
X137730147Y-78419646D01*
X137855646Y-78294147D01*
X138003216Y-78195544D01*
X138167188Y-78127624D01*
X138316488Y-78097927D01*
X138341258Y-78093000D01*
X138518742Y-78093000D01*
X138543512Y-78097927D01*
G37*
G36*
X158863512Y-78097927D02*
G01*
X159012812Y-78127624D01*
X159176784Y-78195544D01*
X159324354Y-78294147D01*
X159449853Y-78419646D01*
X159548456Y-78567216D01*
X159616376Y-78731188D01*
X159651000Y-78905259D01*
X159651000Y-79082741D01*
X159616376Y-79256812D01*
X159548456Y-79420784D01*
X159449853Y-79568354D01*
X159324354Y-79693853D01*
X159176784Y-79792456D01*
X159012812Y-79860376D01*
X158863512Y-79890073D01*
X158838742Y-79895000D01*
X158661258Y-79895000D01*
X158636488Y-79890073D01*
X158487188Y-79860376D01*
X158323216Y-79792456D01*
X158175646Y-79693853D01*
X158050147Y-79568354D01*
X157951544Y-79420784D01*
X157883624Y-79256812D01*
X157849000Y-79082741D01*
X157849000Y-78905259D01*
X157883624Y-78731188D01*
X157951544Y-78567216D01*
X158050147Y-78419646D01*
X158175646Y-78294147D01*
X158323216Y-78195544D01*
X158487188Y-78127624D01*
X158636488Y-78097927D01*
X158661258Y-78093000D01*
X158838742Y-78093000D01*
X158863512Y-78097927D01*
G37*
G36*
X125843512Y-78097927D02*
G01*
X125992812Y-78127624D01*
X126156784Y-78195544D01*
X126304354Y-78294147D01*
X126429853Y-78419646D01*
X126528456Y-78567216D01*
X126596376Y-78731188D01*
X126631000Y-78905259D01*
X126631000Y-79082741D01*
X126596376Y-79256812D01*
X126528456Y-79420784D01*
X126429853Y-79568354D01*
X126304354Y-79693853D01*
X126156784Y-79792456D01*
X125992812Y-79860376D01*
X125843512Y-79890073D01*
X125818742Y-79895000D01*
X125641258Y-79895000D01*
X125616488Y-79890073D01*
X125467188Y-79860376D01*
X125303216Y-79792456D01*
X125155646Y-79693853D01*
X125030147Y-79568354D01*
X124931544Y-79420784D01*
X124863624Y-79256812D01*
X124829000Y-79082741D01*
X124829000Y-78905259D01*
X124863624Y-78731188D01*
X124931544Y-78567216D01*
X125030147Y-78419646D01*
X125155646Y-78294147D01*
X125303216Y-78195544D01*
X125467188Y-78127624D01*
X125616488Y-78097927D01*
X125641258Y-78093000D01*
X125818742Y-78093000D01*
X125843512Y-78097927D01*
G37*
G36*
X161403512Y-78097927D02*
G01*
X161552812Y-78127624D01*
X161716784Y-78195544D01*
X161864354Y-78294147D01*
X161989853Y-78419646D01*
X162088456Y-78567216D01*
X162156376Y-78731188D01*
X162191000Y-78905259D01*
X162191000Y-79082741D01*
X162156376Y-79256812D01*
X162088456Y-79420784D01*
X161989853Y-79568354D01*
X161864354Y-79693853D01*
X161716784Y-79792456D01*
X161552812Y-79860376D01*
X161403512Y-79890073D01*
X161378742Y-79895000D01*
X161201258Y-79895000D01*
X161176488Y-79890073D01*
X161027188Y-79860376D01*
X160863216Y-79792456D01*
X160715646Y-79693853D01*
X160590147Y-79568354D01*
X160491544Y-79420784D01*
X160423624Y-79256812D01*
X160389000Y-79082741D01*
X160389000Y-78905259D01*
X160423624Y-78731188D01*
X160491544Y-78567216D01*
X160590147Y-78419646D01*
X160715646Y-78294147D01*
X160863216Y-78195544D01*
X161027188Y-78127624D01*
X161176488Y-78097927D01*
X161201258Y-78093000D01*
X161378742Y-78093000D01*
X161403512Y-78097927D01*
G37*
G36*
X123303512Y-78097927D02*
G01*
X123452812Y-78127624D01*
X123616784Y-78195544D01*
X123764354Y-78294147D01*
X123889853Y-78419646D01*
X123988456Y-78567216D01*
X124056376Y-78731188D01*
X124091000Y-78905259D01*
X124091000Y-79082741D01*
X124056376Y-79256812D01*
X123988456Y-79420784D01*
X123889853Y-79568354D01*
X123764354Y-79693853D01*
X123616784Y-79792456D01*
X123452812Y-79860376D01*
X123303512Y-79890073D01*
X123278742Y-79895000D01*
X123101258Y-79895000D01*
X123076488Y-79890073D01*
X122927188Y-79860376D01*
X122763216Y-79792456D01*
X122615646Y-79693853D01*
X122490147Y-79568354D01*
X122391544Y-79420784D01*
X122323624Y-79256812D01*
X122289000Y-79082741D01*
X122289000Y-78905259D01*
X122323624Y-78731188D01*
X122391544Y-78567216D01*
X122490147Y-78419646D01*
X122615646Y-78294147D01*
X122763216Y-78195544D01*
X122927188Y-78127624D01*
X123076488Y-78097927D01*
X123101258Y-78093000D01*
X123278742Y-78093000D01*
X123303512Y-78097927D01*
G37*
G36*
X163943512Y-78097927D02*
G01*
X164092812Y-78127624D01*
X164256784Y-78195544D01*
X164404354Y-78294147D01*
X164529853Y-78419646D01*
X164628456Y-78567216D01*
X164696376Y-78731188D01*
X164731000Y-78905259D01*
X164731000Y-79082741D01*
X164696376Y-79256812D01*
X164628456Y-79420784D01*
X164529853Y-79568354D01*
X164404354Y-79693853D01*
X164256784Y-79792456D01*
X164092812Y-79860376D01*
X163943512Y-79890073D01*
X163918742Y-79895000D01*
X163741258Y-79895000D01*
X163716488Y-79890073D01*
X163567188Y-79860376D01*
X163403216Y-79792456D01*
X163255646Y-79693853D01*
X163130147Y-79568354D01*
X163031544Y-79420784D01*
X162963624Y-79256812D01*
X162929000Y-79082741D01*
X162929000Y-78905259D01*
X162963624Y-78731188D01*
X163031544Y-78567216D01*
X163130147Y-78419646D01*
X163255646Y-78294147D01*
X163403216Y-78195544D01*
X163567188Y-78127624D01*
X163716488Y-78097927D01*
X163741258Y-78093000D01*
X163918742Y-78093000D01*
X163943512Y-78097927D01*
G37*
G36*
X171563512Y-78097927D02*
G01*
X171712812Y-78127624D01*
X171876784Y-78195544D01*
X172024354Y-78294147D01*
X172149853Y-78419646D01*
X172248456Y-78567216D01*
X172316376Y-78731188D01*
X172351000Y-78905259D01*
X172351000Y-79082741D01*
X172316376Y-79256812D01*
X172248456Y-79420784D01*
X172149853Y-79568354D01*
X172024354Y-79693853D01*
X171876784Y-79792456D01*
X171712812Y-79860376D01*
X171563512Y-79890073D01*
X171538742Y-79895000D01*
X171361258Y-79895000D01*
X171336488Y-79890073D01*
X171187188Y-79860376D01*
X171023216Y-79792456D01*
X170875646Y-79693853D01*
X170750147Y-79568354D01*
X170651544Y-79420784D01*
X170583624Y-79256812D01*
X170549000Y-79082741D01*
X170549000Y-78905259D01*
X170583624Y-78731188D01*
X170651544Y-78567216D01*
X170750147Y-78419646D01*
X170875646Y-78294147D01*
X171023216Y-78195544D01*
X171187188Y-78127624D01*
X171336488Y-78097927D01*
X171361258Y-78093000D01*
X171538742Y-78093000D01*
X171563512Y-78097927D01*
G37*
G36*
X133463512Y-78097927D02*
G01*
X133612812Y-78127624D01*
X133776784Y-78195544D01*
X133924354Y-78294147D01*
X134049853Y-78419646D01*
X134148456Y-78567216D01*
X134216376Y-78731188D01*
X134251000Y-78905259D01*
X134251000Y-79082741D01*
X134216376Y-79256812D01*
X134148456Y-79420784D01*
X134049853Y-79568354D01*
X133924354Y-79693853D01*
X133776784Y-79792456D01*
X133612812Y-79860376D01*
X133463512Y-79890073D01*
X133438742Y-79895000D01*
X133261258Y-79895000D01*
X133236488Y-79890073D01*
X133087188Y-79860376D01*
X132923216Y-79792456D01*
X132775646Y-79693853D01*
X132650147Y-79568354D01*
X132551544Y-79420784D01*
X132483624Y-79256812D01*
X132449000Y-79082741D01*
X132449000Y-78905259D01*
X132483624Y-78731188D01*
X132551544Y-78567216D01*
X132650147Y-78419646D01*
X132775646Y-78294147D01*
X132923216Y-78195544D01*
X133087188Y-78127624D01*
X133236488Y-78097927D01*
X133261258Y-78093000D01*
X133438742Y-78093000D01*
X133463512Y-78097927D01*
G37*
G36*
X151243512Y-78097927D02*
G01*
X151392812Y-78127624D01*
X151556784Y-78195544D01*
X151704354Y-78294147D01*
X151829853Y-78419646D01*
X151928456Y-78567216D01*
X151996376Y-78731188D01*
X152031000Y-78905259D01*
X152031000Y-79082741D01*
X151996376Y-79256812D01*
X151928456Y-79420784D01*
X151829853Y-79568354D01*
X151704354Y-79693853D01*
X151556784Y-79792456D01*
X151392812Y-79860376D01*
X151243512Y-79890073D01*
X151218742Y-79895000D01*
X151041258Y-79895000D01*
X151016488Y-79890073D01*
X150867188Y-79860376D01*
X150703216Y-79792456D01*
X150555646Y-79693853D01*
X150430147Y-79568354D01*
X150331544Y-79420784D01*
X150263624Y-79256812D01*
X150229000Y-79082741D01*
X150229000Y-78905259D01*
X150263624Y-78731188D01*
X150331544Y-78567216D01*
X150430147Y-78419646D01*
X150555646Y-78294147D01*
X150703216Y-78195544D01*
X150867188Y-78127624D01*
X151016488Y-78097927D01*
X151041258Y-78093000D01*
X151218742Y-78093000D01*
X151243512Y-78097927D01*
G37*
G36*
X136003512Y-78097927D02*
G01*
X136152812Y-78127624D01*
X136316784Y-78195544D01*
X136464354Y-78294147D01*
X136589853Y-78419646D01*
X136688456Y-78567216D01*
X136756376Y-78731188D01*
X136791000Y-78905259D01*
X136791000Y-79082741D01*
X136756376Y-79256812D01*
X136688456Y-79420784D01*
X136589853Y-79568354D01*
X136464354Y-79693853D01*
X136316784Y-79792456D01*
X136152812Y-79860376D01*
X136003512Y-79890073D01*
X135978742Y-79895000D01*
X135801258Y-79895000D01*
X135776488Y-79890073D01*
X135627188Y-79860376D01*
X135463216Y-79792456D01*
X135315646Y-79693853D01*
X135190147Y-79568354D01*
X135091544Y-79420784D01*
X135023624Y-79256812D01*
X134989000Y-79082741D01*
X134989000Y-78905259D01*
X135023624Y-78731188D01*
X135091544Y-78567216D01*
X135190147Y-78419646D01*
X135315646Y-78294147D01*
X135463216Y-78195544D01*
X135627188Y-78127624D01*
X135776488Y-78097927D01*
X135801258Y-78093000D01*
X135978742Y-78093000D01*
X136003512Y-78097927D01*
G37*
G36*
X146163512Y-78097927D02*
G01*
X146312812Y-78127624D01*
X146476784Y-78195544D01*
X146624354Y-78294147D01*
X146749853Y-78419646D01*
X146848456Y-78567216D01*
X146916376Y-78731188D01*
X146951000Y-78905259D01*
X146951000Y-79082741D01*
X146916376Y-79256812D01*
X146848456Y-79420784D01*
X146749853Y-79568354D01*
X146624354Y-79693853D01*
X146476784Y-79792456D01*
X146312812Y-79860376D01*
X146163512Y-79890073D01*
X146138742Y-79895000D01*
X145961258Y-79895000D01*
X145936488Y-79890073D01*
X145787188Y-79860376D01*
X145623216Y-79792456D01*
X145475646Y-79693853D01*
X145350147Y-79568354D01*
X145251544Y-79420784D01*
X145183624Y-79256812D01*
X145149000Y-79082741D01*
X145149000Y-78905259D01*
X145183624Y-78731188D01*
X145251544Y-78567216D01*
X145350147Y-78419646D01*
X145475646Y-78294147D01*
X145623216Y-78195544D01*
X145787188Y-78127624D01*
X145936488Y-78097927D01*
X145961258Y-78093000D01*
X146138742Y-78093000D01*
X146163512Y-78097927D01*
G37*
G36*
X141083512Y-78097927D02*
G01*
X141232812Y-78127624D01*
X141396784Y-78195544D01*
X141544354Y-78294147D01*
X141669853Y-78419646D01*
X141768456Y-78567216D01*
X141836376Y-78731188D01*
X141871000Y-78905259D01*
X141871000Y-79082741D01*
X141836376Y-79256812D01*
X141768456Y-79420784D01*
X141669853Y-79568354D01*
X141544354Y-79693853D01*
X141396784Y-79792456D01*
X141232812Y-79860376D01*
X141083512Y-79890073D01*
X141058742Y-79895000D01*
X140881258Y-79895000D01*
X140856488Y-79890073D01*
X140707188Y-79860376D01*
X140543216Y-79792456D01*
X140395646Y-79693853D01*
X140270147Y-79568354D01*
X140171544Y-79420784D01*
X140103624Y-79256812D01*
X140069000Y-79082741D01*
X140069000Y-78905259D01*
X140103624Y-78731188D01*
X140171544Y-78567216D01*
X140270147Y-78419646D01*
X140395646Y-78294147D01*
X140543216Y-78195544D01*
X140707188Y-78127624D01*
X140856488Y-78097927D01*
X140881258Y-78093000D01*
X141058742Y-78093000D01*
X141083512Y-78097927D01*
G37*
G36*
X148703512Y-78097927D02*
G01*
X148852812Y-78127624D01*
X149016784Y-78195544D01*
X149164354Y-78294147D01*
X149289853Y-78419646D01*
X149388456Y-78567216D01*
X149456376Y-78731188D01*
X149491000Y-78905259D01*
X149491000Y-79082741D01*
X149456376Y-79256812D01*
X149388456Y-79420784D01*
X149289853Y-79568354D01*
X149164354Y-79693853D01*
X149016784Y-79792456D01*
X148852812Y-79860376D01*
X148703512Y-79890073D01*
X148678742Y-79895000D01*
X148501258Y-79895000D01*
X148476488Y-79890073D01*
X148327188Y-79860376D01*
X148163216Y-79792456D01*
X148015646Y-79693853D01*
X147890147Y-79568354D01*
X147791544Y-79420784D01*
X147723624Y-79256812D01*
X147689000Y-79082741D01*
X147689000Y-78905259D01*
X147723624Y-78731188D01*
X147791544Y-78567216D01*
X147890147Y-78419646D01*
X148015646Y-78294147D01*
X148163216Y-78195544D01*
X148327188Y-78127624D01*
X148476488Y-78097927D01*
X148501258Y-78093000D01*
X148678742Y-78093000D01*
X148703512Y-78097927D01*
G37*
G36*
X153783512Y-78097927D02*
G01*
X153932812Y-78127624D01*
X154096784Y-78195544D01*
X154244354Y-78294147D01*
X154369853Y-78419646D01*
X154468456Y-78567216D01*
X154536376Y-78731188D01*
X154571000Y-78905259D01*
X154571000Y-79082741D01*
X154536376Y-79256812D01*
X154468456Y-79420784D01*
X154369853Y-79568354D01*
X154244354Y-79693853D01*
X154096784Y-79792456D01*
X153932812Y-79860376D01*
X153783512Y-79890073D01*
X153758742Y-79895000D01*
X153581258Y-79895000D01*
X153556488Y-79890073D01*
X153407188Y-79860376D01*
X153243216Y-79792456D01*
X153095646Y-79693853D01*
X152970147Y-79568354D01*
X152871544Y-79420784D01*
X152803624Y-79256812D01*
X152769000Y-79082741D01*
X152769000Y-78905259D01*
X152803624Y-78731188D01*
X152871544Y-78567216D01*
X152970147Y-78419646D01*
X153095646Y-78294147D01*
X153243216Y-78195544D01*
X153407188Y-78127624D01*
X153556488Y-78097927D01*
X153581258Y-78093000D01*
X153758742Y-78093000D01*
X153783512Y-78097927D01*
G37*
G36*
X169023512Y-78097927D02*
G01*
X169172812Y-78127624D01*
X169336784Y-78195544D01*
X169484354Y-78294147D01*
X169609853Y-78419646D01*
X169708456Y-78567216D01*
X169776376Y-78731188D01*
X169811000Y-78905259D01*
X169811000Y-79082741D01*
X169776376Y-79256812D01*
X169708456Y-79420784D01*
X169609853Y-79568354D01*
X169484354Y-79693853D01*
X169336784Y-79792456D01*
X169172812Y-79860376D01*
X169023512Y-79890073D01*
X168998742Y-79895000D01*
X168821258Y-79895000D01*
X168796488Y-79890073D01*
X168647188Y-79860376D01*
X168483216Y-79792456D01*
X168335646Y-79693853D01*
X168210147Y-79568354D01*
X168111544Y-79420784D01*
X168043624Y-79256812D01*
X168009000Y-79082741D01*
X168009000Y-78905259D01*
X168043624Y-78731188D01*
X168111544Y-78567216D01*
X168210147Y-78419646D01*
X168335646Y-78294147D01*
X168483216Y-78195544D01*
X168647188Y-78127624D01*
X168796488Y-78097927D01*
X168821258Y-78093000D01*
X168998742Y-78093000D01*
X169023512Y-78097927D01*
G37*
G36*
X166483512Y-78097927D02*
G01*
X166632812Y-78127624D01*
X166796784Y-78195544D01*
X166944354Y-78294147D01*
X167069853Y-78419646D01*
X167168456Y-78567216D01*
X167236376Y-78731188D01*
X167271000Y-78905259D01*
X167271000Y-79082741D01*
X167236376Y-79256812D01*
X167168456Y-79420784D01*
X167069853Y-79568354D01*
X166944354Y-79693853D01*
X166796784Y-79792456D01*
X166632812Y-79860376D01*
X166483512Y-79890073D01*
X166458742Y-79895000D01*
X166281258Y-79895000D01*
X166256488Y-79890073D01*
X166107188Y-79860376D01*
X165943216Y-79792456D01*
X165795646Y-79693853D01*
X165670147Y-79568354D01*
X165571544Y-79420784D01*
X165503624Y-79256812D01*
X165469000Y-79082741D01*
X165469000Y-78905259D01*
X165503624Y-78731188D01*
X165571544Y-78567216D01*
X165670147Y-78419646D01*
X165795646Y-78294147D01*
X165943216Y-78195544D01*
X166107188Y-78127624D01*
X166256488Y-78097927D01*
X166281258Y-78093000D01*
X166458742Y-78093000D01*
X166483512Y-78097927D01*
G37*
G36*
X143623512Y-78097927D02*
G01*
X143772812Y-78127624D01*
X143936784Y-78195544D01*
X144084354Y-78294147D01*
X144209853Y-78419646D01*
X144308456Y-78567216D01*
X144376376Y-78731188D01*
X144411000Y-78905259D01*
X144411000Y-79082741D01*
X144376376Y-79256812D01*
X144308456Y-79420784D01*
X144209853Y-79568354D01*
X144084354Y-79693853D01*
X143936784Y-79792456D01*
X143772812Y-79860376D01*
X143623512Y-79890073D01*
X143598742Y-79895000D01*
X143421258Y-79895000D01*
X143396488Y-79890073D01*
X143247188Y-79860376D01*
X143083216Y-79792456D01*
X142935646Y-79693853D01*
X142810147Y-79568354D01*
X142711544Y-79420784D01*
X142643624Y-79256812D01*
X142609000Y-79082741D01*
X142609000Y-78905259D01*
X142643624Y-78731188D01*
X142711544Y-78567216D01*
X142810147Y-78419646D01*
X142935646Y-78294147D01*
X143083216Y-78195544D01*
X143247188Y-78127624D01*
X143396488Y-78097927D01*
X143421258Y-78093000D01*
X143598742Y-78093000D01*
X143623512Y-78097927D01*
G37*
G36*
X97784228Y-77707703D02*
G01*
X97939100Y-77771853D01*
X98078481Y-77864985D01*
X98197015Y-77983519D01*
X98290147Y-78122900D01*
X98354297Y-78277772D01*
X98387000Y-78442184D01*
X98387000Y-78609816D01*
X98354297Y-78774228D01*
X98290147Y-78929100D01*
X98197015Y-79068481D01*
X98078481Y-79187015D01*
X97939100Y-79280147D01*
X97784228Y-79344297D01*
X97619816Y-79377000D01*
X97452184Y-79377000D01*
X97287772Y-79344297D01*
X97132900Y-79280147D01*
X96993519Y-79187015D01*
X96874985Y-79068481D01*
X96781853Y-78929100D01*
X96717703Y-78774228D01*
X96685000Y-78609816D01*
X96685000Y-78442184D01*
X96717703Y-78277772D01*
X96781853Y-78122900D01*
X96874985Y-77983519D01*
X96993519Y-77864985D01*
X97132900Y-77771853D01*
X97287772Y-77707703D01*
X97452184Y-77675000D01*
X97619816Y-77675000D01*
X97784228Y-77707703D01*
G37*
G36*
X176622585Y-76202802D02*
G01*
X176772410Y-76232604D01*
X177054674Y-76349521D01*
X177308705Y-76519259D01*
X177524741Y-76735295D01*
X177694479Y-76989326D01*
X177811396Y-77271590D01*
X177871000Y-77571240D01*
X177871000Y-77876760D01*
X177811396Y-78176410D01*
X177694479Y-78458674D01*
X177524741Y-78712705D01*
X177308705Y-78928741D01*
X177054674Y-79098479D01*
X176772410Y-79215396D01*
X176622585Y-79245198D01*
X176472761Y-79275000D01*
X176167239Y-79275000D01*
X176017415Y-79245198D01*
X175867590Y-79215396D01*
X175585326Y-79098479D01*
X175331295Y-78928741D01*
X175115259Y-78712705D01*
X174945521Y-78458674D01*
X174828604Y-78176410D01*
X174769000Y-77876760D01*
X174769000Y-77571240D01*
X174828604Y-77271590D01*
X174945521Y-76989326D01*
X175115259Y-76735295D01*
X175331295Y-76519259D01*
X175585326Y-76349521D01*
X175867590Y-76232604D01*
X176017415Y-76202802D01*
X176167239Y-76173000D01*
X176472761Y-76173000D01*
X176622585Y-76202802D01*
G37*
G36*
X118622585Y-76202802D02*
G01*
X118772410Y-76232604D01*
X119054674Y-76349521D01*
X119308705Y-76519259D01*
X119524741Y-76735295D01*
X119694479Y-76989326D01*
X119811396Y-77271590D01*
X119871000Y-77571240D01*
X119871000Y-77876760D01*
X119811396Y-78176410D01*
X119694479Y-78458674D01*
X119524741Y-78712705D01*
X119308705Y-78928741D01*
X119054674Y-79098479D01*
X118772410Y-79215396D01*
X118622585Y-79245198D01*
X118472761Y-79275000D01*
X118167239Y-79275000D01*
X118017415Y-79245198D01*
X117867590Y-79215396D01*
X117585326Y-79098479D01*
X117331295Y-78928741D01*
X117115259Y-78712705D01*
X116945521Y-78458674D01*
X116828604Y-78176410D01*
X116769000Y-77876760D01*
X116769000Y-77571240D01*
X116828604Y-77271590D01*
X116945521Y-76989326D01*
X117115259Y-76735295D01*
X117331295Y-76519259D01*
X117585326Y-76349521D01*
X117867590Y-76232604D01*
X118017415Y-76202802D01*
X118167239Y-76173000D01*
X118472761Y-76173000D01*
X118622585Y-76202802D01*
G37*
G36*
X125843512Y-75557927D02*
G01*
X125992812Y-75587624D01*
X126156784Y-75655544D01*
X126304354Y-75754147D01*
X126429853Y-75879646D01*
X126528456Y-76027216D01*
X126596376Y-76191188D01*
X126631000Y-76365259D01*
X126631000Y-76542741D01*
X126596376Y-76716812D01*
X126528456Y-76880784D01*
X126429853Y-77028354D01*
X126304354Y-77153853D01*
X126156784Y-77252456D01*
X125992812Y-77320376D01*
X125843512Y-77350073D01*
X125818742Y-77355000D01*
X125641258Y-77355000D01*
X125616488Y-77350073D01*
X125467188Y-77320376D01*
X125303216Y-77252456D01*
X125155646Y-77153853D01*
X125030147Y-77028354D01*
X124931544Y-76880784D01*
X124863624Y-76716812D01*
X124829000Y-76542741D01*
X124829000Y-76365259D01*
X124863624Y-76191188D01*
X124931544Y-76027216D01*
X125030147Y-75879646D01*
X125155646Y-75754147D01*
X125303216Y-75655544D01*
X125467188Y-75587624D01*
X125616488Y-75557927D01*
X125641258Y-75553000D01*
X125818742Y-75553000D01*
X125843512Y-75557927D01*
G37*
G36*
X171563512Y-75557927D02*
G01*
X171712812Y-75587624D01*
X171876784Y-75655544D01*
X172024354Y-75754147D01*
X172149853Y-75879646D01*
X172248456Y-76027216D01*
X172316376Y-76191188D01*
X172351000Y-76365259D01*
X172351000Y-76542741D01*
X172316376Y-76716812D01*
X172248456Y-76880784D01*
X172149853Y-77028354D01*
X172024354Y-77153853D01*
X171876784Y-77252456D01*
X171712812Y-77320376D01*
X171563512Y-77350073D01*
X171538742Y-77355000D01*
X171361258Y-77355000D01*
X171336488Y-77350073D01*
X171187188Y-77320376D01*
X171023216Y-77252456D01*
X170875646Y-77153853D01*
X170750147Y-77028354D01*
X170651544Y-76880784D01*
X170583624Y-76716812D01*
X170549000Y-76542741D01*
X170549000Y-76365259D01*
X170583624Y-76191188D01*
X170651544Y-76027216D01*
X170750147Y-75879646D01*
X170875646Y-75754147D01*
X171023216Y-75655544D01*
X171187188Y-75587624D01*
X171336488Y-75557927D01*
X171361258Y-75553000D01*
X171538742Y-75553000D01*
X171563512Y-75557927D01*
G37*
G36*
X169023512Y-75557927D02*
G01*
X169172812Y-75587624D01*
X169336784Y-75655544D01*
X169484354Y-75754147D01*
X169609853Y-75879646D01*
X169708456Y-76027216D01*
X169776376Y-76191188D01*
X169811000Y-76365259D01*
X169811000Y-76542741D01*
X169776376Y-76716812D01*
X169708456Y-76880784D01*
X169609853Y-77028354D01*
X169484354Y-77153853D01*
X169336784Y-77252456D01*
X169172812Y-77320376D01*
X169023512Y-77350073D01*
X168998742Y-77355000D01*
X168821258Y-77355000D01*
X168796488Y-77350073D01*
X168647188Y-77320376D01*
X168483216Y-77252456D01*
X168335646Y-77153853D01*
X168210147Y-77028354D01*
X168111544Y-76880784D01*
X168043624Y-76716812D01*
X168009000Y-76542741D01*
X168009000Y-76365259D01*
X168043624Y-76191188D01*
X168111544Y-76027216D01*
X168210147Y-75879646D01*
X168335646Y-75754147D01*
X168483216Y-75655544D01*
X168647188Y-75587624D01*
X168796488Y-75557927D01*
X168821258Y-75553000D01*
X168998742Y-75553000D01*
X169023512Y-75557927D01*
G37*
G36*
X166483512Y-75557927D02*
G01*
X166632812Y-75587624D01*
X166796784Y-75655544D01*
X166944354Y-75754147D01*
X167069853Y-75879646D01*
X167168456Y-76027216D01*
X167236376Y-76191188D01*
X167271000Y-76365259D01*
X167271000Y-76542741D01*
X167236376Y-76716812D01*
X167168456Y-76880784D01*
X167069853Y-77028354D01*
X166944354Y-77153853D01*
X166796784Y-77252456D01*
X166632812Y-77320376D01*
X166483512Y-77350073D01*
X166458742Y-77355000D01*
X166281258Y-77355000D01*
X166256488Y-77350073D01*
X166107188Y-77320376D01*
X165943216Y-77252456D01*
X165795646Y-77153853D01*
X165670147Y-77028354D01*
X165571544Y-76880784D01*
X165503624Y-76716812D01*
X165469000Y-76542741D01*
X165469000Y-76365259D01*
X165503624Y-76191188D01*
X165571544Y-76027216D01*
X165670147Y-75879646D01*
X165795646Y-75754147D01*
X165943216Y-75655544D01*
X166107188Y-75587624D01*
X166256488Y-75557927D01*
X166281258Y-75553000D01*
X166458742Y-75553000D01*
X166483512Y-75557927D01*
G37*
G36*
X163943512Y-75557927D02*
G01*
X164092812Y-75587624D01*
X164256784Y-75655544D01*
X164404354Y-75754147D01*
X164529853Y-75879646D01*
X164628456Y-76027216D01*
X164696376Y-76191188D01*
X164731000Y-76365259D01*
X164731000Y-76542741D01*
X164696376Y-76716812D01*
X164628456Y-76880784D01*
X164529853Y-77028354D01*
X164404354Y-77153853D01*
X164256784Y-77252456D01*
X164092812Y-77320376D01*
X163943512Y-77350073D01*
X163918742Y-77355000D01*
X163741258Y-77355000D01*
X163716488Y-77350073D01*
X163567188Y-77320376D01*
X163403216Y-77252456D01*
X163255646Y-77153853D01*
X163130147Y-77028354D01*
X163031544Y-76880784D01*
X162963624Y-76716812D01*
X162929000Y-76542741D01*
X162929000Y-76365259D01*
X162963624Y-76191188D01*
X163031544Y-76027216D01*
X163130147Y-75879646D01*
X163255646Y-75754147D01*
X163403216Y-75655544D01*
X163567188Y-75587624D01*
X163716488Y-75557927D01*
X163741258Y-75553000D01*
X163918742Y-75553000D01*
X163943512Y-75557927D01*
G37*
G36*
X161403512Y-75557927D02*
G01*
X161552812Y-75587624D01*
X161716784Y-75655544D01*
X161864354Y-75754147D01*
X161989853Y-75879646D01*
X162088456Y-76027216D01*
X162156376Y-76191188D01*
X162191000Y-76365259D01*
X162191000Y-76542741D01*
X162156376Y-76716812D01*
X162088456Y-76880784D01*
X161989853Y-77028354D01*
X161864354Y-77153853D01*
X161716784Y-77252456D01*
X161552812Y-77320376D01*
X161403512Y-77350073D01*
X161378742Y-77355000D01*
X161201258Y-77355000D01*
X161176488Y-77350073D01*
X161027188Y-77320376D01*
X160863216Y-77252456D01*
X160715646Y-77153853D01*
X160590147Y-77028354D01*
X160491544Y-76880784D01*
X160423624Y-76716812D01*
X160389000Y-76542741D01*
X160389000Y-76365259D01*
X160423624Y-76191188D01*
X160491544Y-76027216D01*
X160590147Y-75879646D01*
X160715646Y-75754147D01*
X160863216Y-75655544D01*
X161027188Y-75587624D01*
X161176488Y-75557927D01*
X161201258Y-75553000D01*
X161378742Y-75553000D01*
X161403512Y-75557927D01*
G37*
G36*
X158863512Y-75557927D02*
G01*
X159012812Y-75587624D01*
X159176784Y-75655544D01*
X159324354Y-75754147D01*
X159449853Y-75879646D01*
X159548456Y-76027216D01*
X159616376Y-76191188D01*
X159651000Y-76365259D01*
X159651000Y-76542741D01*
X159616376Y-76716812D01*
X159548456Y-76880784D01*
X159449853Y-77028354D01*
X159324354Y-77153853D01*
X159176784Y-77252456D01*
X159012812Y-77320376D01*
X158863512Y-77350073D01*
X158838742Y-77355000D01*
X158661258Y-77355000D01*
X158636488Y-77350073D01*
X158487188Y-77320376D01*
X158323216Y-77252456D01*
X158175646Y-77153853D01*
X158050147Y-77028354D01*
X157951544Y-76880784D01*
X157883624Y-76716812D01*
X157849000Y-76542741D01*
X157849000Y-76365259D01*
X157883624Y-76191188D01*
X157951544Y-76027216D01*
X158050147Y-75879646D01*
X158175646Y-75754147D01*
X158323216Y-75655544D01*
X158487188Y-75587624D01*
X158636488Y-75557927D01*
X158661258Y-75553000D01*
X158838742Y-75553000D01*
X158863512Y-75557927D01*
G37*
G36*
X156323512Y-75557927D02*
G01*
X156472812Y-75587624D01*
X156636784Y-75655544D01*
X156784354Y-75754147D01*
X156909853Y-75879646D01*
X157008456Y-76027216D01*
X157076376Y-76191188D01*
X157111000Y-76365259D01*
X157111000Y-76542741D01*
X157076376Y-76716812D01*
X157008456Y-76880784D01*
X156909853Y-77028354D01*
X156784354Y-77153853D01*
X156636784Y-77252456D01*
X156472812Y-77320376D01*
X156323512Y-77350073D01*
X156298742Y-77355000D01*
X156121258Y-77355000D01*
X156096488Y-77350073D01*
X155947188Y-77320376D01*
X155783216Y-77252456D01*
X155635646Y-77153853D01*
X155510147Y-77028354D01*
X155411544Y-76880784D01*
X155343624Y-76716812D01*
X155309000Y-76542741D01*
X155309000Y-76365259D01*
X155343624Y-76191188D01*
X155411544Y-76027216D01*
X155510147Y-75879646D01*
X155635646Y-75754147D01*
X155783216Y-75655544D01*
X155947188Y-75587624D01*
X156096488Y-75557927D01*
X156121258Y-75553000D01*
X156298742Y-75553000D01*
X156323512Y-75557927D01*
G37*
G36*
X153783512Y-75557927D02*
G01*
X153932812Y-75587624D01*
X154096784Y-75655544D01*
X154244354Y-75754147D01*
X154369853Y-75879646D01*
X154468456Y-76027216D01*
X154536376Y-76191188D01*
X154571000Y-76365259D01*
X154571000Y-76542741D01*
X154536376Y-76716812D01*
X154468456Y-76880784D01*
X154369853Y-77028354D01*
X154244354Y-77153853D01*
X154096784Y-77252456D01*
X153932812Y-77320376D01*
X153783512Y-77350073D01*
X153758742Y-77355000D01*
X153581258Y-77355000D01*
X153556488Y-77350073D01*
X153407188Y-77320376D01*
X153243216Y-77252456D01*
X153095646Y-77153853D01*
X152970147Y-77028354D01*
X152871544Y-76880784D01*
X152803624Y-76716812D01*
X152769000Y-76542741D01*
X152769000Y-76365259D01*
X152803624Y-76191188D01*
X152871544Y-76027216D01*
X152970147Y-75879646D01*
X153095646Y-75754147D01*
X153243216Y-75655544D01*
X153407188Y-75587624D01*
X153556488Y-75557927D01*
X153581258Y-75553000D01*
X153758742Y-75553000D01*
X153783512Y-75557927D01*
G37*
G36*
X151243512Y-75557927D02*
G01*
X151392812Y-75587624D01*
X151556784Y-75655544D01*
X151704354Y-75754147D01*
X151829853Y-75879646D01*
X151928456Y-76027216D01*
X151996376Y-76191188D01*
X152031000Y-76365259D01*
X152031000Y-76542741D01*
X151996376Y-76716812D01*
X151928456Y-76880784D01*
X151829853Y-77028354D01*
X151704354Y-77153853D01*
X151556784Y-77252456D01*
X151392812Y-77320376D01*
X151243512Y-77350073D01*
X151218742Y-77355000D01*
X151041258Y-77355000D01*
X151016488Y-77350073D01*
X150867188Y-77320376D01*
X150703216Y-77252456D01*
X150555646Y-77153853D01*
X150430147Y-77028354D01*
X150331544Y-76880784D01*
X150263624Y-76716812D01*
X150229000Y-76542741D01*
X150229000Y-76365259D01*
X150263624Y-76191188D01*
X150331544Y-76027216D01*
X150430147Y-75879646D01*
X150555646Y-75754147D01*
X150703216Y-75655544D01*
X150867188Y-75587624D01*
X151016488Y-75557927D01*
X151041258Y-75553000D01*
X151218742Y-75553000D01*
X151243512Y-75557927D01*
G37*
G36*
X148703512Y-75557927D02*
G01*
X148852812Y-75587624D01*
X149016784Y-75655544D01*
X149164354Y-75754147D01*
X149289853Y-75879646D01*
X149388456Y-76027216D01*
X149456376Y-76191188D01*
X149491000Y-76365259D01*
X149491000Y-76542741D01*
X149456376Y-76716812D01*
X149388456Y-76880784D01*
X149289853Y-77028354D01*
X149164354Y-77153853D01*
X149016784Y-77252456D01*
X148852812Y-77320376D01*
X148703512Y-77350073D01*
X148678742Y-77355000D01*
X148501258Y-77355000D01*
X148476488Y-77350073D01*
X148327188Y-77320376D01*
X148163216Y-77252456D01*
X148015646Y-77153853D01*
X147890147Y-77028354D01*
X147791544Y-76880784D01*
X147723624Y-76716812D01*
X147689000Y-76542741D01*
X147689000Y-76365259D01*
X147723624Y-76191188D01*
X147791544Y-76027216D01*
X147890147Y-75879646D01*
X148015646Y-75754147D01*
X148163216Y-75655544D01*
X148327188Y-75587624D01*
X148476488Y-75557927D01*
X148501258Y-75553000D01*
X148678742Y-75553000D01*
X148703512Y-75557927D01*
G37*
G36*
X146163512Y-75557927D02*
G01*
X146312812Y-75587624D01*
X146476784Y-75655544D01*
X146624354Y-75754147D01*
X146749853Y-75879646D01*
X146848456Y-76027216D01*
X146916376Y-76191188D01*
X146951000Y-76365259D01*
X146951000Y-76542741D01*
X146916376Y-76716812D01*
X146848456Y-76880784D01*
X146749853Y-77028354D01*
X146624354Y-77153853D01*
X146476784Y-77252456D01*
X146312812Y-77320376D01*
X146163512Y-77350073D01*
X146138742Y-77355000D01*
X145961258Y-77355000D01*
X145936488Y-77350073D01*
X145787188Y-77320376D01*
X145623216Y-77252456D01*
X145475646Y-77153853D01*
X145350147Y-77028354D01*
X145251544Y-76880784D01*
X145183624Y-76716812D01*
X145149000Y-76542741D01*
X145149000Y-76365259D01*
X145183624Y-76191188D01*
X145251544Y-76027216D01*
X145350147Y-75879646D01*
X145475646Y-75754147D01*
X145623216Y-75655544D01*
X145787188Y-75587624D01*
X145936488Y-75557927D01*
X145961258Y-75553000D01*
X146138742Y-75553000D01*
X146163512Y-75557927D01*
G37*
G36*
X143623512Y-75557927D02*
G01*
X143772812Y-75587624D01*
X143936784Y-75655544D01*
X144084354Y-75754147D01*
X144209853Y-75879646D01*
X144308456Y-76027216D01*
X144376376Y-76191188D01*
X144411000Y-76365259D01*
X144411000Y-76542741D01*
X144376376Y-76716812D01*
X144308456Y-76880784D01*
X144209853Y-77028354D01*
X144084354Y-77153853D01*
X143936784Y-77252456D01*
X143772812Y-77320376D01*
X143623512Y-77350073D01*
X143598742Y-77355000D01*
X143421258Y-77355000D01*
X143396488Y-77350073D01*
X143247188Y-77320376D01*
X143083216Y-77252456D01*
X142935646Y-77153853D01*
X142810147Y-77028354D01*
X142711544Y-76880784D01*
X142643624Y-76716812D01*
X142609000Y-76542741D01*
X142609000Y-76365259D01*
X142643624Y-76191188D01*
X142711544Y-76027216D01*
X142810147Y-75879646D01*
X142935646Y-75754147D01*
X143083216Y-75655544D01*
X143247188Y-75587624D01*
X143396488Y-75557927D01*
X143421258Y-75553000D01*
X143598742Y-75553000D01*
X143623512Y-75557927D01*
G37*
G36*
X141083512Y-75557927D02*
G01*
X141232812Y-75587624D01*
X141396784Y-75655544D01*
X141544354Y-75754147D01*
X141669853Y-75879646D01*
X141768456Y-76027216D01*
X141836376Y-76191188D01*
X141871000Y-76365259D01*
X141871000Y-76542741D01*
X141836376Y-76716812D01*
X141768456Y-76880784D01*
X141669853Y-77028354D01*
X141544354Y-77153853D01*
X141396784Y-77252456D01*
X141232812Y-77320376D01*
X141083512Y-77350073D01*
X141058742Y-77355000D01*
X140881258Y-77355000D01*
X140856488Y-77350073D01*
X140707188Y-77320376D01*
X140543216Y-77252456D01*
X140395646Y-77153853D01*
X140270147Y-77028354D01*
X140171544Y-76880784D01*
X140103624Y-76716812D01*
X140069000Y-76542741D01*
X140069000Y-76365259D01*
X140103624Y-76191188D01*
X140171544Y-76027216D01*
X140270147Y-75879646D01*
X140395646Y-75754147D01*
X140543216Y-75655544D01*
X140707188Y-75587624D01*
X140856488Y-75557927D01*
X140881258Y-75553000D01*
X141058742Y-75553000D01*
X141083512Y-75557927D01*
G37*
G36*
X138543512Y-75557927D02*
G01*
X138692812Y-75587624D01*
X138856784Y-75655544D01*
X139004354Y-75754147D01*
X139129853Y-75879646D01*
X139228456Y-76027216D01*
X139296376Y-76191188D01*
X139331000Y-76365259D01*
X139331000Y-76542741D01*
X139296376Y-76716812D01*
X139228456Y-76880784D01*
X139129853Y-77028354D01*
X139004354Y-77153853D01*
X138856784Y-77252456D01*
X138692812Y-77320376D01*
X138543512Y-77350073D01*
X138518742Y-77355000D01*
X138341258Y-77355000D01*
X138316488Y-77350073D01*
X138167188Y-77320376D01*
X138003216Y-77252456D01*
X137855646Y-77153853D01*
X137730147Y-77028354D01*
X137631544Y-76880784D01*
X137563624Y-76716812D01*
X137529000Y-76542741D01*
X137529000Y-76365259D01*
X137563624Y-76191188D01*
X137631544Y-76027216D01*
X137730147Y-75879646D01*
X137855646Y-75754147D01*
X138003216Y-75655544D01*
X138167188Y-75587624D01*
X138316488Y-75557927D01*
X138341258Y-75553000D01*
X138518742Y-75553000D01*
X138543512Y-75557927D01*
G37*
G36*
X136003512Y-75557927D02*
G01*
X136152812Y-75587624D01*
X136316784Y-75655544D01*
X136464354Y-75754147D01*
X136589853Y-75879646D01*
X136688456Y-76027216D01*
X136756376Y-76191188D01*
X136791000Y-76365259D01*
X136791000Y-76542741D01*
X136756376Y-76716812D01*
X136688456Y-76880784D01*
X136589853Y-77028354D01*
X136464354Y-77153853D01*
X136316784Y-77252456D01*
X136152812Y-77320376D01*
X136003512Y-77350073D01*
X135978742Y-77355000D01*
X135801258Y-77355000D01*
X135776488Y-77350073D01*
X135627188Y-77320376D01*
X135463216Y-77252456D01*
X135315646Y-77153853D01*
X135190147Y-77028354D01*
X135091544Y-76880784D01*
X135023624Y-76716812D01*
X134989000Y-76542741D01*
X134989000Y-76365259D01*
X135023624Y-76191188D01*
X135091544Y-76027216D01*
X135190147Y-75879646D01*
X135315646Y-75754147D01*
X135463216Y-75655544D01*
X135627188Y-75587624D01*
X135776488Y-75557927D01*
X135801258Y-75553000D01*
X135978742Y-75553000D01*
X136003512Y-75557927D01*
G37*
G36*
X133463512Y-75557927D02*
G01*
X133612812Y-75587624D01*
X133776784Y-75655544D01*
X133924354Y-75754147D01*
X134049853Y-75879646D01*
X134148456Y-76027216D01*
X134216376Y-76191188D01*
X134251000Y-76365259D01*
X134251000Y-76542741D01*
X134216376Y-76716812D01*
X134148456Y-76880784D01*
X134049853Y-77028354D01*
X133924354Y-77153853D01*
X133776784Y-77252456D01*
X133612812Y-77320376D01*
X133463512Y-77350073D01*
X133438742Y-77355000D01*
X133261258Y-77355000D01*
X133236488Y-77350073D01*
X133087188Y-77320376D01*
X132923216Y-77252456D01*
X132775646Y-77153853D01*
X132650147Y-77028354D01*
X132551544Y-76880784D01*
X132483624Y-76716812D01*
X132449000Y-76542741D01*
X132449000Y-76365259D01*
X132483624Y-76191188D01*
X132551544Y-76027216D01*
X132650147Y-75879646D01*
X132775646Y-75754147D01*
X132923216Y-75655544D01*
X133087188Y-75587624D01*
X133236488Y-75557927D01*
X133261258Y-75553000D01*
X133438742Y-75553000D01*
X133463512Y-75557927D01*
G37*
G36*
X130923512Y-75557927D02*
G01*
X131072812Y-75587624D01*
X131236784Y-75655544D01*
X131384354Y-75754147D01*
X131509853Y-75879646D01*
X131608456Y-76027216D01*
X131676376Y-76191188D01*
X131711000Y-76365259D01*
X131711000Y-76542741D01*
X131676376Y-76716812D01*
X131608456Y-76880784D01*
X131509853Y-77028354D01*
X131384354Y-77153853D01*
X131236784Y-77252456D01*
X131072812Y-77320376D01*
X130923512Y-77350073D01*
X130898742Y-77355000D01*
X130721258Y-77355000D01*
X130696488Y-77350073D01*
X130547188Y-77320376D01*
X130383216Y-77252456D01*
X130235646Y-77153853D01*
X130110147Y-77028354D01*
X130011544Y-76880784D01*
X129943624Y-76716812D01*
X129909000Y-76542741D01*
X129909000Y-76365259D01*
X129943624Y-76191188D01*
X130011544Y-76027216D01*
X130110147Y-75879646D01*
X130235646Y-75754147D01*
X130383216Y-75655544D01*
X130547188Y-75587624D01*
X130696488Y-75557927D01*
X130721258Y-75553000D01*
X130898742Y-75553000D01*
X130923512Y-75557927D01*
G37*
G36*
X123303512Y-75557927D02*
G01*
X123452812Y-75587624D01*
X123616784Y-75655544D01*
X123764354Y-75754147D01*
X123889853Y-75879646D01*
X123988456Y-76027216D01*
X124056376Y-76191188D01*
X124091000Y-76365259D01*
X124091000Y-76542741D01*
X124056376Y-76716812D01*
X123988456Y-76880784D01*
X123889853Y-77028354D01*
X123764354Y-77153853D01*
X123616784Y-77252456D01*
X123452812Y-77320376D01*
X123303512Y-77350073D01*
X123278742Y-77355000D01*
X123101258Y-77355000D01*
X123076488Y-77350073D01*
X122927188Y-77320376D01*
X122763216Y-77252456D01*
X122615646Y-77153853D01*
X122490147Y-77028354D01*
X122391544Y-76880784D01*
X122323624Y-76716812D01*
X122289000Y-76542741D01*
X122289000Y-76365259D01*
X122323624Y-76191188D01*
X122391544Y-76027216D01*
X122490147Y-75879646D01*
X122615646Y-75754147D01*
X122763216Y-75655544D01*
X122927188Y-75587624D01*
X123076488Y-75557927D01*
X123101258Y-75553000D01*
X123278742Y-75553000D01*
X123303512Y-75557927D01*
G37*
G36*
X128383512Y-75557927D02*
G01*
X128532812Y-75587624D01*
X128696784Y-75655544D01*
X128844354Y-75754147D01*
X128969853Y-75879646D01*
X129068456Y-76027216D01*
X129136376Y-76191188D01*
X129171000Y-76365259D01*
X129171000Y-76542741D01*
X129136376Y-76716812D01*
X129068456Y-76880784D01*
X128969853Y-77028354D01*
X128844354Y-77153853D01*
X128696784Y-77252456D01*
X128532812Y-77320376D01*
X128383512Y-77350073D01*
X128358742Y-77355000D01*
X128181258Y-77355000D01*
X128156488Y-77350073D01*
X128007188Y-77320376D01*
X127843216Y-77252456D01*
X127695646Y-77153853D01*
X127570147Y-77028354D01*
X127471544Y-76880784D01*
X127403624Y-76716812D01*
X127369000Y-76542741D01*
X127369000Y-76365259D01*
X127403624Y-76191188D01*
X127471544Y-76027216D01*
X127570147Y-75879646D01*
X127695646Y-75754147D01*
X127843216Y-75655544D01*
X128007188Y-75587624D01*
X128156488Y-75557927D01*
X128181258Y-75553000D01*
X128358742Y-75553000D01*
X128383512Y-75557927D01*
G37*
M02*
