M48
; DRILL file {KiCad (5.1.4)-1} date 11/3/2020 4:52:16 PM
; FORMAT={-:-/ absolute / inch / decimal}
; #@! TF.CreationDate,2020-11-03T16:52:16-06:00
; #@! TF.GenerationSoftware,Kicad,Pcbnew,(5.1.4)-1
; #@! TF.FileFunction,Plated,1,2,PTH
FMAT,2
INCH
T1C0.0157
T2C0.0300
T3C0.0315
T4C0.0350
T5C0.0354
T6C0.1598
%
G90
G05
T1
X3.73Y-3.225
X3.73Y-4.125
X3.825Y-3.275
X3.825Y-3.98
X4.225Y-3.375
X4.85Y-3.375
X4.9Y-3.9
X5.05Y-3.275
X5.1Y-4.05
X5.2Y-4.75
X5.3012Y-4.5
X5.3012Y-4.6488
X5.4Y-4.65
X6.375Y-3.275
X6.375Y-4.2
X6.45Y-3.225
X6.45Y-4.35
T2
X3.4Y-4.55
T3
X4.1266Y-3.1
X4.225Y-3.1
T4
X4.225Y-4.05
X4.325Y-4.05
X4.425Y-4.05
X4.7Y-3.5
X4.8Y-3.5
X4.9Y-3.5
T5
X4.85Y-3.01
X4.85Y-3.11
X4.95Y-3.01
X4.95Y-3.11
X5.05Y-3.01
X5.05Y-3.11
X5.15Y-3.01
X5.15Y-3.11
X5.25Y-3.01
X5.25Y-3.11
X5.35Y-3.01
X5.35Y-3.11
X5.45Y-3.01
X5.45Y-3.11
X5.55Y-3.01
X5.55Y-3.11
X5.65Y-3.01
X5.65Y-3.11
X5.75Y-3.01
X5.75Y-3.11
X5.85Y-3.01
X5.85Y-3.11
X5.95Y-3.01
X5.95Y-3.11
X6.05Y-3.01
X6.05Y-3.11
X6.15Y-3.01
X6.15Y-3.11
X6.25Y-3.01
X6.25Y-3.11
X6.35Y-3.01
X6.35Y-3.11
X6.45Y-3.01
X6.45Y-3.11
X6.55Y-3.01
X6.55Y-3.11
X6.65Y-3.01
X6.65Y-3.11
X6.75Y-3.01
X6.75Y-3.11
X3.4Y-4.65
X3.4Y-4.75
X3.4Y-3.9
X3.4Y-4.0
X3.4Y-4.1
X3.4Y-4.2
T6
X3.4Y-3.19
X3.4Y-3.5
T0
M30
