G04 #@! TF.GenerationSoftware,KiCad,Pcbnew,(5.1.5)-3*
G04 #@! TF.CreationDate,2019-12-14T16:38:42-06:00*
G04 #@! TF.ProjectId,RaspberryPiBreakout_Hardware,52617370-6265-4727-9279-506942726561,rev?*
G04 #@! TF.SameCoordinates,Original*
G04 #@! TF.FileFunction,Legend,Top*
G04 #@! TF.FilePolarity,Positive*
%FSLAX46Y46*%
G04 Gerber Fmt 4.6, Leading zero omitted, Abs format (unit mm)*
G04 Created by KiCad (PCBNEW (5.1.5)-3) date 2019-12-14 16:38:42*
%MOMM*%
%LPD*%
G04 APERTURE LIST*
%ADD10C,0.300000*%
%ADD11C,0.200000*%
%ADD12C,0.254000*%
%ADD13C,0.150000*%
%ADD14C,0.120000*%
%ADD15C,0.010000*%
G04 APERTURE END LIST*
D10*
X93154571Y-105009142D02*
X94297428Y-105009142D01*
X91940285Y-100429142D02*
X92154571Y-100500571D01*
X92511714Y-100500571D01*
X92654571Y-100429142D01*
X92726000Y-100357714D01*
X92797428Y-100214857D01*
X92797428Y-100072000D01*
X92726000Y-99929142D01*
X92654571Y-99857714D01*
X92511714Y-99786285D01*
X92226000Y-99714857D01*
X92083142Y-99643428D01*
X92011714Y-99572000D01*
X91940285Y-99429142D01*
X91940285Y-99286285D01*
X92011714Y-99143428D01*
X92083142Y-99072000D01*
X92226000Y-99000571D01*
X92583142Y-99000571D01*
X92797428Y-99072000D01*
X94297428Y-100357714D02*
X94226000Y-100429142D01*
X94011714Y-100500571D01*
X93868857Y-100500571D01*
X93654571Y-100429142D01*
X93511714Y-100286285D01*
X93440285Y-100143428D01*
X93368857Y-99857714D01*
X93368857Y-99643428D01*
X93440285Y-99357714D01*
X93511714Y-99214857D01*
X93654571Y-99072000D01*
X93868857Y-99000571D01*
X94011714Y-99000571D01*
X94226000Y-99072000D01*
X94297428Y-99143428D01*
X95654571Y-100500571D02*
X94940285Y-100500571D01*
X94940285Y-99000571D01*
X91868857Y-106620571D02*
X92797428Y-106620571D01*
X92297428Y-107192000D01*
X92511714Y-107192000D01*
X92654571Y-107263428D01*
X92726000Y-107334857D01*
X92797428Y-107477714D01*
X92797428Y-107834857D01*
X92726000Y-107977714D01*
X92654571Y-108049142D01*
X92511714Y-108120571D01*
X92083142Y-108120571D01*
X91940285Y-108049142D01*
X91868857Y-107977714D01*
X93226000Y-106620571D02*
X93726000Y-108120571D01*
X94226000Y-106620571D01*
X94583142Y-106620571D02*
X95511714Y-106620571D01*
X95011714Y-107192000D01*
X95226000Y-107192000D01*
X95368857Y-107263428D01*
X95440285Y-107334857D01*
X95511714Y-107477714D01*
X95511714Y-107834857D01*
X95440285Y-107977714D01*
X95368857Y-108049142D01*
X95226000Y-108120571D01*
X94797428Y-108120571D01*
X94654571Y-108049142D01*
X94583142Y-107977714D01*
X91904571Y-102969142D02*
X92118857Y-103040571D01*
X92476000Y-103040571D01*
X92618857Y-102969142D01*
X92690285Y-102897714D01*
X92761714Y-102754857D01*
X92761714Y-102612000D01*
X92690285Y-102469142D01*
X92618857Y-102397714D01*
X92476000Y-102326285D01*
X92190285Y-102254857D01*
X92047428Y-102183428D01*
X91976000Y-102112000D01*
X91904571Y-101969142D01*
X91904571Y-101826285D01*
X91976000Y-101683428D01*
X92047428Y-101612000D01*
X92190285Y-101540571D01*
X92547428Y-101540571D01*
X92761714Y-101612000D01*
X93404571Y-103040571D02*
X93404571Y-101540571D01*
X93761714Y-101540571D01*
X93976000Y-101612000D01*
X94118857Y-101754857D01*
X94190285Y-101897714D01*
X94261714Y-102183428D01*
X94261714Y-102397714D01*
X94190285Y-102683428D01*
X94118857Y-102826285D01*
X93976000Y-102969142D01*
X93761714Y-103040571D01*
X93404571Y-103040571D01*
X94833142Y-102612000D02*
X95547428Y-102612000D01*
X94690285Y-103040571D02*
X95190285Y-101540571D01*
X95690285Y-103040571D01*
X93154571Y-90277142D02*
X94297428Y-90277142D01*
X149038571Y-90709714D02*
X149038571Y-91424000D01*
X149752857Y-91495428D01*
X149681428Y-91424000D01*
X149610000Y-91281142D01*
X149610000Y-90924000D01*
X149681428Y-90781142D01*
X149752857Y-90709714D01*
X149895714Y-90638285D01*
X150252857Y-90638285D01*
X150395714Y-90709714D01*
X150467142Y-90781142D01*
X150538571Y-90924000D01*
X150538571Y-91281142D01*
X150467142Y-91424000D01*
X150395714Y-91495428D01*
X149038571Y-90209714D02*
X150538571Y-89709714D01*
X149038571Y-89209714D01*
X89344571Y-115677142D02*
X90487428Y-115677142D01*
D11*
X106426000Y-118237000D02*
X106426000Y-115062000D01*
X120396000Y-118237000D02*
X120396000Y-115062000D01*
X106426000Y-118237000D02*
X120396000Y-118237000D01*
D12*
X117075857Y-96725619D02*
X116592047Y-96725619D01*
X116543666Y-97209428D01*
X116592047Y-97161047D01*
X116688809Y-97112666D01*
X116930714Y-97112666D01*
X117027476Y-97161047D01*
X117075857Y-97209428D01*
X117124238Y-97306190D01*
X117124238Y-97548095D01*
X117075857Y-97644857D01*
X117027476Y-97693238D01*
X116930714Y-97741619D01*
X116688809Y-97741619D01*
X116592047Y-97693238D01*
X116543666Y-97644857D01*
X117462904Y-97064285D02*
X117704809Y-97741619D01*
X117946714Y-97064285D01*
D10*
X91868857Y-91888571D02*
X92797428Y-91888571D01*
X92297428Y-92460000D01*
X92511714Y-92460000D01*
X92654571Y-92531428D01*
X92726000Y-92602857D01*
X92797428Y-92745714D01*
X92797428Y-93102857D01*
X92726000Y-93245714D01*
X92654571Y-93317142D01*
X92511714Y-93388571D01*
X92083142Y-93388571D01*
X91940285Y-93317142D01*
X91868857Y-93245714D01*
X93226000Y-91888571D02*
X93726000Y-93388571D01*
X94226000Y-91888571D01*
X94583142Y-91888571D02*
X95511714Y-91888571D01*
X95011714Y-92460000D01*
X95226000Y-92460000D01*
X95368857Y-92531428D01*
X95440285Y-92602857D01*
X95511714Y-92745714D01*
X95511714Y-93102857D01*
X95440285Y-93245714D01*
X95368857Y-93317142D01*
X95226000Y-93388571D01*
X94797428Y-93388571D01*
X94654571Y-93317142D01*
X94583142Y-93245714D01*
X91940285Y-85697142D02*
X92154571Y-85768571D01*
X92511714Y-85768571D01*
X92654571Y-85697142D01*
X92726000Y-85625714D01*
X92797428Y-85482857D01*
X92797428Y-85340000D01*
X92726000Y-85197142D01*
X92654571Y-85125714D01*
X92511714Y-85054285D01*
X92226000Y-84982857D01*
X92083142Y-84911428D01*
X92011714Y-84840000D01*
X91940285Y-84697142D01*
X91940285Y-84554285D01*
X92011714Y-84411428D01*
X92083142Y-84340000D01*
X92226000Y-84268571D01*
X92583142Y-84268571D01*
X92797428Y-84340000D01*
X94297428Y-85625714D02*
X94226000Y-85697142D01*
X94011714Y-85768571D01*
X93868857Y-85768571D01*
X93654571Y-85697142D01*
X93511714Y-85554285D01*
X93440285Y-85411428D01*
X93368857Y-85125714D01*
X93368857Y-84911428D01*
X93440285Y-84625714D01*
X93511714Y-84482857D01*
X93654571Y-84340000D01*
X93868857Y-84268571D01*
X94011714Y-84268571D01*
X94226000Y-84340000D01*
X94297428Y-84411428D01*
X95654571Y-85768571D02*
X94940285Y-85768571D01*
X94940285Y-84268571D01*
X91904571Y-88237142D02*
X92118857Y-88308571D01*
X92476000Y-88308571D01*
X92618857Y-88237142D01*
X92690285Y-88165714D01*
X92761714Y-88022857D01*
X92761714Y-87880000D01*
X92690285Y-87737142D01*
X92618857Y-87665714D01*
X92476000Y-87594285D01*
X92190285Y-87522857D01*
X92047428Y-87451428D01*
X91976000Y-87380000D01*
X91904571Y-87237142D01*
X91904571Y-87094285D01*
X91976000Y-86951428D01*
X92047428Y-86880000D01*
X92190285Y-86808571D01*
X92547428Y-86808571D01*
X92761714Y-86880000D01*
X93404571Y-88308571D02*
X93404571Y-86808571D01*
X93761714Y-86808571D01*
X93976000Y-86880000D01*
X94118857Y-87022857D01*
X94190285Y-87165714D01*
X94261714Y-87451428D01*
X94261714Y-87665714D01*
X94190285Y-87951428D01*
X94118857Y-88094285D01*
X93976000Y-88237142D01*
X93761714Y-88308571D01*
X93404571Y-88308571D01*
X94833142Y-87880000D02*
X95547428Y-87880000D01*
X94690285Y-88308571D02*
X95190285Y-86808571D01*
X95690285Y-88308571D01*
X88880285Y-119828571D02*
X89737428Y-119828571D01*
X89308857Y-121328571D02*
X89308857Y-119828571D01*
X90094571Y-121328571D02*
X90880285Y-120328571D01*
X90094571Y-120328571D02*
X90880285Y-121328571D01*
X89773142Y-118788571D02*
X89273142Y-118074285D01*
X88916000Y-118788571D02*
X88916000Y-117288571D01*
X89487428Y-117288571D01*
X89630285Y-117360000D01*
X89701714Y-117431428D01*
X89773142Y-117574285D01*
X89773142Y-117788571D01*
X89701714Y-117931428D01*
X89630285Y-118002857D01*
X89487428Y-118074285D01*
X88916000Y-118074285D01*
X90273142Y-118788571D02*
X91058857Y-117788571D01*
X90273142Y-117788571D02*
X91058857Y-118788571D01*
D11*
X120396000Y-90932000D02*
X120396000Y-115062000D01*
X106426000Y-90932000D02*
X106426000Y-108077000D01*
X120396000Y-88392000D02*
X120396000Y-90932000D01*
X106426000Y-88392000D02*
X120396000Y-88392000D01*
X106426000Y-90932000D02*
X106426000Y-88392000D01*
D10*
X109982428Y-90340571D02*
X109268142Y-90340571D01*
X109268142Y-88840571D01*
X110482428Y-89554857D02*
X110982428Y-89554857D01*
X111196714Y-90340571D02*
X110482428Y-90340571D01*
X110482428Y-88840571D01*
X111196714Y-88840571D01*
X111839571Y-90340571D02*
X111839571Y-88840571D01*
X112196714Y-88840571D01*
X112411000Y-88912000D01*
X112553857Y-89054857D01*
X112625285Y-89197714D01*
X112696714Y-89483428D01*
X112696714Y-89697714D01*
X112625285Y-89983428D01*
X112553857Y-90126285D01*
X112411000Y-90269142D01*
X112196714Y-90340571D01*
X111839571Y-90340571D01*
X114482428Y-90340571D02*
X114482428Y-88840571D01*
X115196714Y-90340571D02*
X115196714Y-88840571D01*
X116053857Y-90340571D01*
X116053857Y-88840571D01*
X116768142Y-90340571D02*
X116768142Y-88840571D01*
X117125285Y-88840571D01*
X117339571Y-88912000D01*
X117482428Y-89054857D01*
X117553857Y-89197714D01*
X117625285Y-89483428D01*
X117625285Y-89697714D01*
X117553857Y-89983428D01*
X117482428Y-90126285D01*
X117339571Y-90269142D01*
X117125285Y-90340571D01*
X116768142Y-90340571D01*
D11*
X120396000Y-90932000D02*
X106426000Y-90932000D01*
X106426000Y-108077000D02*
X106426000Y-115062000D01*
D12*
X116446904Y-115775619D02*
X117027476Y-115775619D01*
X116737190Y-116791619D02*
X116737190Y-115775619D01*
X117269380Y-115775619D02*
X117946714Y-116791619D01*
X117946714Y-115775619D02*
X117269380Y-116791619D01*
X117051666Y-112981619D02*
X116713000Y-112497809D01*
X116471095Y-112981619D02*
X116471095Y-111965619D01*
X116858142Y-111965619D01*
X116954904Y-112014000D01*
X117003285Y-112062380D01*
X117051666Y-112159142D01*
X117051666Y-112304285D01*
X117003285Y-112401047D01*
X116954904Y-112449428D01*
X116858142Y-112497809D01*
X116471095Y-112497809D01*
X117390333Y-111965619D02*
X118067666Y-112981619D01*
X118067666Y-111965619D02*
X117390333Y-112981619D01*
X116622285Y-109123238D02*
X116767428Y-109171619D01*
X117009333Y-109171619D01*
X117106095Y-109123238D01*
X117154476Y-109074857D01*
X117202857Y-108978095D01*
X117202857Y-108881333D01*
X117154476Y-108784571D01*
X117106095Y-108736190D01*
X117009333Y-108687809D01*
X116815809Y-108639428D01*
X116719047Y-108591047D01*
X116670666Y-108542666D01*
X116622285Y-108445904D01*
X116622285Y-108349142D01*
X116670666Y-108252380D01*
X116719047Y-108204000D01*
X116815809Y-108155619D01*
X117057714Y-108155619D01*
X117202857Y-108204000D01*
X117638285Y-109171619D02*
X117638285Y-108155619D01*
X117880190Y-108155619D01*
X118025333Y-108204000D01*
X118122095Y-108300761D01*
X118170476Y-108397523D01*
X118218857Y-108591047D01*
X118218857Y-108736190D01*
X118170476Y-108929714D01*
X118122095Y-109026476D01*
X118025333Y-109123238D01*
X117880190Y-109171619D01*
X117638285Y-109171619D01*
X118605904Y-108881333D02*
X119089714Y-108881333D01*
X118509142Y-109171619D02*
X118847809Y-108155619D01*
X119186476Y-109171619D01*
X116646476Y-105313238D02*
X116791619Y-105361619D01*
X117033523Y-105361619D01*
X117130285Y-105313238D01*
X117178666Y-105264857D01*
X117227047Y-105168095D01*
X117227047Y-105071333D01*
X117178666Y-104974571D01*
X117130285Y-104926190D01*
X117033523Y-104877809D01*
X116840000Y-104829428D01*
X116743238Y-104781047D01*
X116694857Y-104732666D01*
X116646476Y-104635904D01*
X116646476Y-104539142D01*
X116694857Y-104442380D01*
X116743238Y-104394000D01*
X116840000Y-104345619D01*
X117081904Y-104345619D01*
X117227047Y-104394000D01*
X118243047Y-105264857D02*
X118194666Y-105313238D01*
X118049523Y-105361619D01*
X117952761Y-105361619D01*
X117807619Y-105313238D01*
X117710857Y-105216476D01*
X117662476Y-105119714D01*
X117614095Y-104926190D01*
X117614095Y-104781047D01*
X117662476Y-104587523D01*
X117710857Y-104490761D01*
X117807619Y-104394000D01*
X117952761Y-104345619D01*
X118049523Y-104345619D01*
X118194666Y-104394000D01*
X118243047Y-104442380D01*
X119162285Y-105361619D02*
X118678476Y-105361619D01*
X118678476Y-104345619D01*
X116404571Y-100535619D02*
X117033523Y-100535619D01*
X116694857Y-100922666D01*
X116840000Y-100922666D01*
X116936761Y-100971047D01*
X116985142Y-101019428D01*
X117033523Y-101116190D01*
X117033523Y-101358095D01*
X116985142Y-101454857D01*
X116936761Y-101503238D01*
X116840000Y-101551619D01*
X116549714Y-101551619D01*
X116452952Y-101503238D01*
X116404571Y-101454857D01*
X117468952Y-101454857D02*
X117517333Y-101503238D01*
X117468952Y-101551619D01*
X117420571Y-101503238D01*
X117468952Y-101454857D01*
X117468952Y-101551619D01*
X117856000Y-100535619D02*
X118484952Y-100535619D01*
X118146285Y-100922666D01*
X118291428Y-100922666D01*
X118388190Y-100971047D01*
X118436571Y-101019428D01*
X118484952Y-101116190D01*
X118484952Y-101358095D01*
X118436571Y-101454857D01*
X118388190Y-101503238D01*
X118291428Y-101551619D01*
X118001142Y-101551619D01*
X117904380Y-101503238D01*
X117856000Y-101454857D01*
X118823619Y-100874285D02*
X119065523Y-101551619D01*
X119307428Y-100874285D01*
X117275428Y-93931619D02*
X116694857Y-93931619D01*
X116985142Y-93931619D02*
X116985142Y-92915619D01*
X116888380Y-93060761D01*
X116791619Y-93157523D01*
X116694857Y-93205904D01*
X117662476Y-93012380D02*
X117710857Y-92964000D01*
X117807619Y-92915619D01*
X118049523Y-92915619D01*
X118146285Y-92964000D01*
X118194666Y-93012380D01*
X118243047Y-93109142D01*
X118243047Y-93205904D01*
X118194666Y-93351047D01*
X117614095Y-93931619D01*
X118243047Y-93931619D01*
X118581714Y-93254285D02*
X118823619Y-93931619D01*
X119065523Y-93254285D01*
D10*
X149038571Y-107624285D02*
X149038571Y-106695714D01*
X149610000Y-107195714D01*
X149610000Y-106981428D01*
X149681428Y-106838571D01*
X149752857Y-106767142D01*
X149895714Y-106695714D01*
X150252857Y-106695714D01*
X150395714Y-106767142D01*
X150467142Y-106838571D01*
X150538571Y-106981428D01*
X150538571Y-107410000D01*
X150467142Y-107552857D01*
X150395714Y-107624285D01*
X150395714Y-106052857D02*
X150467142Y-105981428D01*
X150538571Y-106052857D01*
X150467142Y-106124285D01*
X150395714Y-106052857D01*
X150538571Y-106052857D01*
X149038571Y-105481428D02*
X149038571Y-104552857D01*
X149610000Y-105052857D01*
X149610000Y-104838571D01*
X149681428Y-104695714D01*
X149752857Y-104624285D01*
X149895714Y-104552857D01*
X150252857Y-104552857D01*
X150395714Y-104624285D01*
X150467142Y-104695714D01*
X150538571Y-104838571D01*
X150538571Y-105267142D01*
X150467142Y-105410000D01*
X150395714Y-105481428D01*
X149038571Y-104124285D02*
X150538571Y-103624285D01*
X149038571Y-103124285D01*
X80657285Y-134013571D02*
X80157285Y-133299285D01*
X79800142Y-134013571D02*
X79800142Y-132513571D01*
X80371571Y-132513571D01*
X80514428Y-132585000D01*
X80585857Y-132656428D01*
X80657285Y-132799285D01*
X80657285Y-133013571D01*
X80585857Y-133156428D01*
X80514428Y-133227857D01*
X80371571Y-133299285D01*
X79800142Y-133299285D01*
X81943000Y-134013571D02*
X81943000Y-133227857D01*
X81871571Y-133085000D01*
X81728714Y-133013571D01*
X81443000Y-133013571D01*
X81300142Y-133085000D01*
X81943000Y-133942142D02*
X81800142Y-134013571D01*
X81443000Y-134013571D01*
X81300142Y-133942142D01*
X81228714Y-133799285D01*
X81228714Y-133656428D01*
X81300142Y-133513571D01*
X81443000Y-133442142D01*
X81800142Y-133442142D01*
X81943000Y-133370714D01*
X82585857Y-133942142D02*
X82728714Y-134013571D01*
X83014428Y-134013571D01*
X83157285Y-133942142D01*
X83228714Y-133799285D01*
X83228714Y-133727857D01*
X83157285Y-133585000D01*
X83014428Y-133513571D01*
X82800142Y-133513571D01*
X82657285Y-133442142D01*
X82585857Y-133299285D01*
X82585857Y-133227857D01*
X82657285Y-133085000D01*
X82800142Y-133013571D01*
X83014428Y-133013571D01*
X83157285Y-133085000D01*
X83871571Y-133013571D02*
X83871571Y-134513571D01*
X83871571Y-133085000D02*
X84014428Y-133013571D01*
X84300142Y-133013571D01*
X84443000Y-133085000D01*
X84514428Y-133156428D01*
X84585857Y-133299285D01*
X84585857Y-133727857D01*
X84514428Y-133870714D01*
X84443000Y-133942142D01*
X84300142Y-134013571D01*
X84014428Y-134013571D01*
X83871571Y-133942142D01*
X85228714Y-134013571D02*
X85228714Y-132513571D01*
X85228714Y-133085000D02*
X85371571Y-133013571D01*
X85657285Y-133013571D01*
X85800142Y-133085000D01*
X85871571Y-133156428D01*
X85943000Y-133299285D01*
X85943000Y-133727857D01*
X85871571Y-133870714D01*
X85800142Y-133942142D01*
X85657285Y-134013571D01*
X85371571Y-134013571D01*
X85228714Y-133942142D01*
X87157285Y-133942142D02*
X87014428Y-134013571D01*
X86728714Y-134013571D01*
X86585857Y-133942142D01*
X86514428Y-133799285D01*
X86514428Y-133227857D01*
X86585857Y-133085000D01*
X86728714Y-133013571D01*
X87014428Y-133013571D01*
X87157285Y-133085000D01*
X87228714Y-133227857D01*
X87228714Y-133370714D01*
X86514428Y-133513571D01*
X87871571Y-134013571D02*
X87871571Y-133013571D01*
X87871571Y-133299285D02*
X87943000Y-133156428D01*
X88014428Y-133085000D01*
X88157285Y-133013571D01*
X88300142Y-133013571D01*
X88800142Y-134013571D02*
X88800142Y-133013571D01*
X88800142Y-133299285D02*
X88871571Y-133156428D01*
X88943000Y-133085000D01*
X89085857Y-133013571D01*
X89228714Y-133013571D01*
X89585857Y-133013571D02*
X89943000Y-134013571D01*
X90300142Y-133013571D02*
X89943000Y-134013571D01*
X89800142Y-134370714D01*
X89728714Y-134442142D01*
X89585857Y-134513571D01*
X92014428Y-134013571D02*
X92014428Y-132513571D01*
X92585857Y-132513571D01*
X92728714Y-132585000D01*
X92800142Y-132656428D01*
X92871571Y-132799285D01*
X92871571Y-133013571D01*
X92800142Y-133156428D01*
X92728714Y-133227857D01*
X92585857Y-133299285D01*
X92014428Y-133299285D01*
X93514428Y-134013571D02*
X93514428Y-133013571D01*
X93514428Y-132513571D02*
X93443000Y-132585000D01*
X93514428Y-132656428D01*
X93585857Y-132585000D01*
X93514428Y-132513571D01*
X93514428Y-132656428D01*
X95871571Y-133227857D02*
X96085857Y-133299285D01*
X96157285Y-133370714D01*
X96228714Y-133513571D01*
X96228714Y-133727857D01*
X96157285Y-133870714D01*
X96085857Y-133942142D01*
X95943000Y-134013571D01*
X95371571Y-134013571D01*
X95371571Y-132513571D01*
X95871571Y-132513571D01*
X96014428Y-132585000D01*
X96085857Y-132656428D01*
X96157285Y-132799285D01*
X96157285Y-132942142D01*
X96085857Y-133085000D01*
X96014428Y-133156428D01*
X95871571Y-133227857D01*
X95371571Y-133227857D01*
X96871571Y-134013571D02*
X96871571Y-133013571D01*
X96871571Y-133299285D02*
X96943000Y-133156428D01*
X97014428Y-133085000D01*
X97157285Y-133013571D01*
X97300142Y-133013571D01*
X98371571Y-133942142D02*
X98228714Y-134013571D01*
X97943000Y-134013571D01*
X97800142Y-133942142D01*
X97728714Y-133799285D01*
X97728714Y-133227857D01*
X97800142Y-133085000D01*
X97943000Y-133013571D01*
X98228714Y-133013571D01*
X98371571Y-133085000D01*
X98443000Y-133227857D01*
X98443000Y-133370714D01*
X97728714Y-133513571D01*
X99728714Y-134013571D02*
X99728714Y-133227857D01*
X99657285Y-133085000D01*
X99514428Y-133013571D01*
X99228714Y-133013571D01*
X99085857Y-133085000D01*
X99728714Y-133942142D02*
X99585857Y-134013571D01*
X99228714Y-134013571D01*
X99085857Y-133942142D01*
X99014428Y-133799285D01*
X99014428Y-133656428D01*
X99085857Y-133513571D01*
X99228714Y-133442142D01*
X99585857Y-133442142D01*
X99728714Y-133370714D01*
X100443000Y-134013571D02*
X100443000Y-132513571D01*
X100585857Y-133442142D02*
X101014428Y-134013571D01*
X101014428Y-133013571D02*
X100443000Y-133585000D01*
X101871571Y-134013571D02*
X101728714Y-133942142D01*
X101657285Y-133870714D01*
X101585857Y-133727857D01*
X101585857Y-133299285D01*
X101657285Y-133156428D01*
X101728714Y-133085000D01*
X101871571Y-133013571D01*
X102085857Y-133013571D01*
X102228714Y-133085000D01*
X102300142Y-133156428D01*
X102371571Y-133299285D01*
X102371571Y-133727857D01*
X102300142Y-133870714D01*
X102228714Y-133942142D01*
X102085857Y-134013571D01*
X101871571Y-134013571D01*
X103657285Y-133013571D02*
X103657285Y-134013571D01*
X103014428Y-133013571D02*
X103014428Y-133799285D01*
X103085857Y-133942142D01*
X103228714Y-134013571D01*
X103443000Y-134013571D01*
X103585857Y-133942142D01*
X103657285Y-133870714D01*
X104157285Y-133013571D02*
X104728714Y-133013571D01*
X104371571Y-132513571D02*
X104371571Y-133799285D01*
X104443000Y-133942142D01*
X104585857Y-134013571D01*
X104728714Y-134013571D01*
X105300142Y-133942142D02*
X105300142Y-134013571D01*
X105228714Y-134156428D01*
X105157285Y-134227857D01*
X107943000Y-134013571D02*
X107443000Y-133299285D01*
X107085857Y-134013571D02*
X107085857Y-132513571D01*
X107657285Y-132513571D01*
X107800142Y-132585000D01*
X107871571Y-132656428D01*
X107943000Y-132799285D01*
X107943000Y-133013571D01*
X107871571Y-133156428D01*
X107800142Y-133227857D01*
X107657285Y-133299285D01*
X107085857Y-133299285D01*
X109157285Y-133942142D02*
X109014428Y-134013571D01*
X108728714Y-134013571D01*
X108585857Y-133942142D01*
X108514428Y-133799285D01*
X108514428Y-133227857D01*
X108585857Y-133085000D01*
X108728714Y-133013571D01*
X109014428Y-133013571D01*
X109157285Y-133085000D01*
X109228714Y-133227857D01*
X109228714Y-133370714D01*
X108514428Y-133513571D01*
X109728714Y-133013571D02*
X110085857Y-134013571D01*
X110443000Y-133013571D01*
X112085857Y-132656428D02*
X112157285Y-132585000D01*
X112300142Y-132513571D01*
X112657285Y-132513571D01*
X112800142Y-132585000D01*
X112871571Y-132656428D01*
X112943000Y-132799285D01*
X112943000Y-132942142D01*
X112871571Y-133156428D01*
X112014428Y-134013571D01*
X112943000Y-134013571D01*
X79800142Y-136563571D02*
X79800142Y-135063571D01*
X80300142Y-136135000D01*
X80800142Y-135063571D01*
X80800142Y-136563571D01*
X82157285Y-136563571D02*
X82157285Y-135777857D01*
X82085857Y-135635000D01*
X81943000Y-135563571D01*
X81657285Y-135563571D01*
X81514428Y-135635000D01*
X82157285Y-136492142D02*
X82014428Y-136563571D01*
X81657285Y-136563571D01*
X81514428Y-136492142D01*
X81443000Y-136349285D01*
X81443000Y-136206428D01*
X81514428Y-136063571D01*
X81657285Y-135992142D01*
X82014428Y-135992142D01*
X82157285Y-135920714D01*
X82871571Y-136563571D02*
X82871571Y-135563571D01*
X82871571Y-135849285D02*
X82943000Y-135706428D01*
X83014428Y-135635000D01*
X83157285Y-135563571D01*
X83300142Y-135563571D01*
X83728714Y-136492142D02*
X83871571Y-136563571D01*
X84157285Y-136563571D01*
X84300142Y-136492142D01*
X84371571Y-136349285D01*
X84371571Y-136277857D01*
X84300142Y-136135000D01*
X84157285Y-136063571D01*
X83943000Y-136063571D01*
X83800142Y-135992142D01*
X83728714Y-135849285D01*
X83728714Y-135777857D01*
X83800142Y-135635000D01*
X83943000Y-135563571D01*
X84157285Y-135563571D01*
X84300142Y-135635000D01*
X87014428Y-136563571D02*
X86514428Y-135849285D01*
X86157285Y-136563571D02*
X86157285Y-135063571D01*
X86728714Y-135063571D01*
X86871571Y-135135000D01*
X86943000Y-135206428D01*
X87014428Y-135349285D01*
X87014428Y-135563571D01*
X86943000Y-135706428D01*
X86871571Y-135777857D01*
X86728714Y-135849285D01*
X86157285Y-135849285D01*
X87871571Y-136563571D02*
X87728714Y-136492142D01*
X87657285Y-136420714D01*
X87585857Y-136277857D01*
X87585857Y-135849285D01*
X87657285Y-135706428D01*
X87728714Y-135635000D01*
X87871571Y-135563571D01*
X88085857Y-135563571D01*
X88228714Y-135635000D01*
X88300142Y-135706428D01*
X88371571Y-135849285D01*
X88371571Y-136277857D01*
X88300142Y-136420714D01*
X88228714Y-136492142D01*
X88085857Y-136563571D01*
X87871571Y-136563571D01*
X88871571Y-135563571D02*
X89228714Y-136563571D01*
X89585857Y-135563571D01*
X90728714Y-136492142D02*
X90585857Y-136563571D01*
X90300142Y-136563571D01*
X90157285Y-136492142D01*
X90085857Y-136349285D01*
X90085857Y-135777857D01*
X90157285Y-135635000D01*
X90300142Y-135563571D01*
X90585857Y-135563571D01*
X90728714Y-135635000D01*
X90800142Y-135777857D01*
X90800142Y-135920714D01*
X90085857Y-136063571D01*
X91443000Y-136563571D02*
X91443000Y-135563571D01*
X91443000Y-135849285D02*
X91514428Y-135706428D01*
X91585857Y-135635000D01*
X91728714Y-135563571D01*
X91871571Y-135563571D01*
X93514428Y-136563571D02*
X93514428Y-135063571D01*
X93871571Y-135063571D01*
X94085857Y-135135000D01*
X94228714Y-135277857D01*
X94300142Y-135420714D01*
X94371571Y-135706428D01*
X94371571Y-135920714D01*
X94300142Y-136206428D01*
X94228714Y-136349285D01*
X94085857Y-136492142D01*
X93871571Y-136563571D01*
X93514428Y-136563571D01*
X95585857Y-136492142D02*
X95443000Y-136563571D01*
X95157285Y-136563571D01*
X95014428Y-136492142D01*
X94943000Y-136349285D01*
X94943000Y-135777857D01*
X95014428Y-135635000D01*
X95157285Y-135563571D01*
X95443000Y-135563571D01*
X95585857Y-135635000D01*
X95657285Y-135777857D01*
X95657285Y-135920714D01*
X94943000Y-136063571D01*
X96228714Y-136492142D02*
X96371571Y-136563571D01*
X96657285Y-136563571D01*
X96800142Y-136492142D01*
X96871571Y-136349285D01*
X96871571Y-136277857D01*
X96800142Y-136135000D01*
X96657285Y-136063571D01*
X96443000Y-136063571D01*
X96300142Y-135992142D01*
X96228714Y-135849285D01*
X96228714Y-135777857D01*
X96300142Y-135635000D01*
X96443000Y-135563571D01*
X96657285Y-135563571D01*
X96800142Y-135635000D01*
X97514428Y-136563571D02*
X97514428Y-135563571D01*
X97514428Y-135063571D02*
X97443000Y-135135000D01*
X97514428Y-135206428D01*
X97585857Y-135135000D01*
X97514428Y-135063571D01*
X97514428Y-135206428D01*
X98871571Y-135563571D02*
X98871571Y-136777857D01*
X98800142Y-136920714D01*
X98728714Y-136992142D01*
X98585857Y-137063571D01*
X98371571Y-137063571D01*
X98228714Y-136992142D01*
X98871571Y-136492142D02*
X98728714Y-136563571D01*
X98443000Y-136563571D01*
X98300142Y-136492142D01*
X98228714Y-136420714D01*
X98157285Y-136277857D01*
X98157285Y-135849285D01*
X98228714Y-135706428D01*
X98300142Y-135635000D01*
X98443000Y-135563571D01*
X98728714Y-135563571D01*
X98871571Y-135635000D01*
X99585857Y-135563571D02*
X99585857Y-136563571D01*
X99585857Y-135706428D02*
X99657285Y-135635000D01*
X99800142Y-135563571D01*
X100014428Y-135563571D01*
X100157285Y-135635000D01*
X100228714Y-135777857D01*
X100228714Y-136563571D01*
X101871571Y-135063571D02*
X102728714Y-135063571D01*
X102300142Y-136563571D02*
X102300142Y-135063571D01*
X103800142Y-136492142D02*
X103657285Y-136563571D01*
X103371571Y-136563571D01*
X103228714Y-136492142D01*
X103157285Y-136349285D01*
X103157285Y-135777857D01*
X103228714Y-135635000D01*
X103371571Y-135563571D01*
X103657285Y-135563571D01*
X103800142Y-135635000D01*
X103871571Y-135777857D01*
X103871571Y-135920714D01*
X103157285Y-136063571D01*
X105157285Y-136563571D02*
X105157285Y-135777857D01*
X105085857Y-135635000D01*
X104943000Y-135563571D01*
X104657285Y-135563571D01*
X104514428Y-135635000D01*
X105157285Y-136492142D02*
X105014428Y-136563571D01*
X104657285Y-136563571D01*
X104514428Y-136492142D01*
X104443000Y-136349285D01*
X104443000Y-136206428D01*
X104514428Y-136063571D01*
X104657285Y-135992142D01*
X105014428Y-135992142D01*
X105157285Y-135920714D01*
X105871571Y-136563571D02*
X105871571Y-135563571D01*
X105871571Y-135706428D02*
X105943000Y-135635000D01*
X106085857Y-135563571D01*
X106300142Y-135563571D01*
X106443000Y-135635000D01*
X106514428Y-135777857D01*
X106514428Y-136563571D01*
X106514428Y-135777857D02*
X106585857Y-135635000D01*
X106728714Y-135563571D01*
X106943000Y-135563571D01*
X107085857Y-135635000D01*
X107157285Y-135777857D01*
X107157285Y-136563571D01*
X79800142Y-139113571D02*
X79800142Y-137613571D01*
X80300142Y-138685000D01*
X80800142Y-137613571D01*
X80800142Y-139113571D01*
X81514428Y-139113571D02*
X81514428Y-138113571D01*
X81514428Y-137613571D02*
X81443000Y-137685000D01*
X81514428Y-137756428D01*
X81585857Y-137685000D01*
X81514428Y-137613571D01*
X81514428Y-137756428D01*
X82157285Y-139042142D02*
X82300142Y-139113571D01*
X82585857Y-139113571D01*
X82728714Y-139042142D01*
X82800142Y-138899285D01*
X82800142Y-138827857D01*
X82728714Y-138685000D01*
X82585857Y-138613571D01*
X82371571Y-138613571D01*
X82228714Y-138542142D01*
X82157285Y-138399285D01*
X82157285Y-138327857D01*
X82228714Y-138185000D01*
X82371571Y-138113571D01*
X82585857Y-138113571D01*
X82728714Y-138185000D01*
X83371571Y-139042142D02*
X83514428Y-139113571D01*
X83800142Y-139113571D01*
X83943000Y-139042142D01*
X84014428Y-138899285D01*
X84014428Y-138827857D01*
X83943000Y-138685000D01*
X83800142Y-138613571D01*
X83585857Y-138613571D01*
X83443000Y-138542142D01*
X83371571Y-138399285D01*
X83371571Y-138327857D01*
X83443000Y-138185000D01*
X83585857Y-138113571D01*
X83800142Y-138113571D01*
X83943000Y-138185000D01*
X84871571Y-139113571D02*
X84728714Y-139042142D01*
X84657285Y-138970714D01*
X84585857Y-138827857D01*
X84585857Y-138399285D01*
X84657285Y-138256428D01*
X84728714Y-138185000D01*
X84871571Y-138113571D01*
X85085857Y-138113571D01*
X85228714Y-138185000D01*
X85300142Y-138256428D01*
X85371571Y-138399285D01*
X85371571Y-138827857D01*
X85300142Y-138970714D01*
X85228714Y-139042142D01*
X85085857Y-139113571D01*
X84871571Y-139113571D01*
X86657285Y-138113571D02*
X86657285Y-139113571D01*
X86014428Y-138113571D02*
X86014428Y-138899285D01*
X86085857Y-139042142D01*
X86228714Y-139113571D01*
X86443000Y-139113571D01*
X86585857Y-139042142D01*
X86657285Y-138970714D01*
X87371571Y-139113571D02*
X87371571Y-138113571D01*
X87371571Y-138399285D02*
X87443000Y-138256428D01*
X87514428Y-138185000D01*
X87657285Y-138113571D01*
X87800142Y-138113571D01*
X88300142Y-139113571D02*
X88300142Y-138113571D01*
X88300142Y-137613571D02*
X88228714Y-137685000D01*
X88300142Y-137756428D01*
X88371571Y-137685000D01*
X88300142Y-137613571D01*
X88300142Y-137756428D01*
X90085857Y-139042142D02*
X90300142Y-139113571D01*
X90657285Y-139113571D01*
X90800142Y-139042142D01*
X90871571Y-138970714D01*
X90943000Y-138827857D01*
X90943000Y-138685000D01*
X90871571Y-138542142D01*
X90800142Y-138470714D01*
X90657285Y-138399285D01*
X90371571Y-138327857D01*
X90228714Y-138256428D01*
X90157285Y-138185000D01*
X90085857Y-138042142D01*
X90085857Y-137899285D01*
X90157285Y-137756428D01*
X90228714Y-137685000D01*
X90371571Y-137613571D01*
X90728714Y-137613571D01*
X90943000Y-137685000D01*
X92800142Y-139113571D02*
X92728714Y-139113571D01*
X92585857Y-139042142D01*
X92371571Y-138827857D01*
X92014428Y-138399285D01*
X91871571Y-138185000D01*
X91800142Y-137970714D01*
X91800142Y-137827857D01*
X91871571Y-137685000D01*
X92014428Y-137613571D01*
X92085857Y-137613571D01*
X92228714Y-137685000D01*
X92300142Y-137827857D01*
X92300142Y-137899285D01*
X92228714Y-138042142D01*
X92157285Y-138113571D01*
X91728714Y-138399285D01*
X91657285Y-138470714D01*
X91585857Y-138613571D01*
X91585857Y-138827857D01*
X91657285Y-138970714D01*
X91728714Y-139042142D01*
X91871571Y-139113571D01*
X92085857Y-139113571D01*
X92228714Y-139042142D01*
X92300142Y-138970714D01*
X92514428Y-138685000D01*
X92585857Y-138470714D01*
X92585857Y-138327857D01*
X93228714Y-137613571D02*
X94085857Y-137613571D01*
X93657285Y-139113571D02*
X93657285Y-137613571D01*
X94657285Y-139042142D02*
X94657285Y-139113571D01*
X94585857Y-139256428D01*
X94514428Y-139327857D01*
X96371571Y-137756428D02*
X96443000Y-137685000D01*
X96585857Y-137613571D01*
X96943000Y-137613571D01*
X97085857Y-137685000D01*
X97157285Y-137756428D01*
X97228714Y-137899285D01*
X97228714Y-138042142D01*
X97157285Y-138256428D01*
X96300142Y-139113571D01*
X97228714Y-139113571D01*
X98157285Y-137613571D02*
X98300142Y-137613571D01*
X98443000Y-137685000D01*
X98514428Y-137756428D01*
X98585857Y-137899285D01*
X98657285Y-138185000D01*
X98657285Y-138542142D01*
X98585857Y-138827857D01*
X98514428Y-138970714D01*
X98443000Y-139042142D01*
X98300142Y-139113571D01*
X98157285Y-139113571D01*
X98014428Y-139042142D01*
X97943000Y-138970714D01*
X97871571Y-138827857D01*
X97800142Y-138542142D01*
X97800142Y-138185000D01*
X97871571Y-137899285D01*
X97943000Y-137756428D01*
X98014428Y-137685000D01*
X98157285Y-137613571D01*
X99228714Y-137756428D02*
X99300142Y-137685000D01*
X99443000Y-137613571D01*
X99800142Y-137613571D01*
X99943000Y-137685000D01*
X100014428Y-137756428D01*
X100085857Y-137899285D01*
X100085857Y-138042142D01*
X100014428Y-138256428D01*
X99157285Y-139113571D01*
X100085857Y-139113571D01*
X101014428Y-137613571D02*
X101157285Y-137613571D01*
X101300142Y-137685000D01*
X101371571Y-137756428D01*
X101443000Y-137899285D01*
X101514428Y-138185000D01*
X101514428Y-138542142D01*
X101443000Y-138827857D01*
X101371571Y-138970714D01*
X101300142Y-139042142D01*
X101157285Y-139113571D01*
X101014428Y-139113571D01*
X100871571Y-139042142D01*
X100800142Y-138970714D01*
X100728714Y-138827857D01*
X100657285Y-138542142D01*
X100657285Y-138185000D01*
X100728714Y-137899285D01*
X100800142Y-137756428D01*
X100871571Y-137685000D01*
X101014428Y-137613571D01*
X79657285Y-140163571D02*
X80657285Y-140163571D01*
X79657285Y-141663571D01*
X80657285Y-141663571D01*
X81871571Y-141663571D02*
X81871571Y-140877857D01*
X81800142Y-140735000D01*
X81657285Y-140663571D01*
X81371571Y-140663571D01*
X81228714Y-140735000D01*
X81871571Y-141592142D02*
X81728714Y-141663571D01*
X81371571Y-141663571D01*
X81228714Y-141592142D01*
X81157285Y-141449285D01*
X81157285Y-141306428D01*
X81228714Y-141163571D01*
X81371571Y-141092142D01*
X81728714Y-141092142D01*
X81871571Y-141020714D01*
X82585857Y-141663571D02*
X82585857Y-140163571D01*
X82728714Y-141092142D02*
X83157285Y-141663571D01*
X83157285Y-140663571D02*
X82585857Y-141235000D01*
X85443000Y-140877857D02*
X85657285Y-140949285D01*
X85728714Y-141020714D01*
X85800142Y-141163571D01*
X85800142Y-141377857D01*
X85728714Y-141520714D01*
X85657285Y-141592142D01*
X85514428Y-141663571D01*
X84943000Y-141663571D01*
X84943000Y-140163571D01*
X85443000Y-140163571D01*
X85585857Y-140235000D01*
X85657285Y-140306428D01*
X85728714Y-140449285D01*
X85728714Y-140592142D01*
X85657285Y-140735000D01*
X85585857Y-140806428D01*
X85443000Y-140877857D01*
X84943000Y-140877857D01*
X86443000Y-141663571D02*
X86443000Y-140663571D01*
X86443000Y-140949285D02*
X86514428Y-140806428D01*
X86585857Y-140735000D01*
X86728714Y-140663571D01*
X86871571Y-140663571D01*
X87585857Y-141663571D02*
X87443000Y-141592142D01*
X87371571Y-141520714D01*
X87300142Y-141377857D01*
X87300142Y-140949285D01*
X87371571Y-140806428D01*
X87443000Y-140735000D01*
X87585857Y-140663571D01*
X87800142Y-140663571D01*
X87943000Y-140735000D01*
X88014428Y-140806428D01*
X88085857Y-140949285D01*
X88085857Y-141377857D01*
X88014428Y-141520714D01*
X87943000Y-141592142D01*
X87800142Y-141663571D01*
X87585857Y-141663571D01*
X88943000Y-141663571D02*
X88800142Y-141592142D01*
X88728714Y-141520714D01*
X88657285Y-141377857D01*
X88657285Y-140949285D01*
X88728714Y-140806428D01*
X88800142Y-140735000D01*
X88943000Y-140663571D01*
X89157285Y-140663571D01*
X89300142Y-140735000D01*
X89371571Y-140806428D01*
X89443000Y-140949285D01*
X89443000Y-141377857D01*
X89371571Y-141520714D01*
X89300142Y-141592142D01*
X89157285Y-141663571D01*
X88943000Y-141663571D01*
X90085857Y-141663571D02*
X90085857Y-140163571D01*
X90228714Y-141092142D02*
X90657285Y-141663571D01*
X90657285Y-140663571D02*
X90085857Y-141235000D01*
X91228714Y-141592142D02*
X91371571Y-141663571D01*
X91657285Y-141663571D01*
X91800142Y-141592142D01*
X91871571Y-141449285D01*
X91871571Y-141377857D01*
X91800142Y-141235000D01*
X91657285Y-141163571D01*
X91443000Y-141163571D01*
X91300142Y-141092142D01*
X91228714Y-140949285D01*
X91228714Y-140877857D01*
X91300142Y-140735000D01*
X91443000Y-140663571D01*
X91657285Y-140663571D01*
X91800142Y-140735000D01*
D13*
X167640000Y-91948000D02*
X151130000Y-91948000D01*
X151130000Y-81788000D02*
X167640000Y-81788000D01*
X151130000Y-91948000D02*
X151130000Y-81788000D01*
X167640000Y-91948000D02*
X167640000Y-81788000D01*
X154940000Y-89408000D02*
X154940000Y-84328000D01*
X157480000Y-91948000D02*
X154940000Y-89408000D01*
X162560000Y-91948000D02*
X157480000Y-91948000D01*
X165100000Y-89408000D02*
X162560000Y-91948000D01*
X165100000Y-84328000D02*
X165100000Y-89408000D01*
X162560000Y-81788000D02*
X165100000Y-84328000D01*
X157480000Y-81788000D02*
X162560000Y-81788000D01*
X154940000Y-84328000D02*
X157480000Y-81788000D01*
D14*
X168400000Y-90111733D02*
X168400000Y-90454267D01*
X169420000Y-90111733D02*
X169420000Y-90454267D01*
X168400000Y-83624267D02*
X168400000Y-83281733D01*
X169420000Y-83624267D02*
X169420000Y-83281733D01*
D13*
X176784000Y-124714000D02*
X164490400Y-124714000D01*
X189103000Y-124714000D02*
X181356000Y-124714000D01*
X181356000Y-108966000D02*
X189103000Y-108966000D01*
X176784000Y-108966000D02*
X164490400Y-108966000D01*
X180213000Y-116840000D02*
G75*
G03X180213000Y-116840000I-1143000J0D01*
G01*
X179070000Y-119126000D02*
X179070000Y-122402600D01*
X176784000Y-116840000D02*
X164490400Y-116840000D01*
X179070000Y-114554000D02*
X179070000Y-111252000D01*
X176784000Y-116840000D02*
X177927000Y-116840000D01*
X179070000Y-119126000D02*
X179070000Y-117983000D01*
X189103000Y-116865400D02*
X180213000Y-116865400D01*
X179070000Y-114554000D02*
X179070000Y-115697000D01*
X179070000Y-123571000D02*
X179070000Y-122402600D01*
X176809400Y-124714000D02*
X177901600Y-124714000D01*
X181381400Y-108966000D02*
X180213000Y-108966000D01*
X179070000Y-111277400D02*
X179070000Y-110109000D01*
X176758600Y-108966000D02*
X177952400Y-108966000D01*
X180213000Y-124714000D02*
G75*
G03X179070000Y-123571000I-1143000J0D01*
G01*
X179070000Y-123571000D02*
G75*
G03X177927000Y-124714000I0J-1143000D01*
G01*
X180213000Y-124714000D02*
X181432200Y-124714000D01*
X164490400Y-124714000D02*
X164490400Y-108966000D01*
X189128400Y-124714000D02*
X189128400Y-108966000D01*
X179070000Y-110083600D02*
G75*
G03X180187600Y-108966000I0J1117600D01*
G01*
X177952400Y-108966000D02*
G75*
G03X179070000Y-110083600I1117600J0D01*
G01*
D14*
X169039000Y-99626267D02*
X169039000Y-99283733D01*
X168019000Y-99626267D02*
X168019000Y-99283733D01*
X169166000Y-106113733D02*
X169166000Y-106456267D01*
X168146000Y-106113733D02*
X168146000Y-106456267D01*
D13*
X78486000Y-116840000D02*
X78486000Y-119380000D01*
X72898000Y-112395000D02*
X72898000Y-123825000D01*
X84836000Y-112395000D02*
X84836000Y-121920000D01*
X87376000Y-114300000D02*
X87376000Y-121920000D01*
X72898000Y-116840000D02*
X78486000Y-116840000D01*
X84836000Y-112395000D02*
X72898000Y-112395000D01*
X72898000Y-119380000D02*
X73406000Y-119380000D01*
X84836000Y-123825000D02*
X72898000Y-123825000D01*
X84836000Y-121920000D02*
X84836000Y-123825000D01*
X77216000Y-119380000D02*
X78486000Y-119380000D01*
X77216000Y-119380000D02*
X73406000Y-119380000D01*
X84836000Y-114300000D02*
X87376000Y-114300000D01*
X87376000Y-121920000D02*
X84836000Y-121920000D01*
X72898000Y-95885000D02*
X72898000Y-81915000D01*
X78486000Y-91440000D02*
X78486000Y-86360000D01*
X78486000Y-87630000D02*
X81026000Y-87630000D01*
X81026000Y-87630000D02*
X81026000Y-90170000D01*
X72898000Y-86360000D02*
X78486000Y-86360000D01*
X84836000Y-81915000D02*
X72898000Y-81915000D01*
X87376000Y-83820000D02*
X87376000Y-93980000D01*
X72898000Y-91440000D02*
X73406000Y-91440000D01*
X84836000Y-95885000D02*
X72898000Y-95885000D01*
X84836000Y-93980000D02*
X84836000Y-95885000D01*
X77216000Y-91440000D02*
X78486000Y-91440000D01*
X77216000Y-91440000D02*
X73406000Y-91440000D01*
X78486000Y-90170000D02*
X81026000Y-90170000D01*
X84836000Y-93980000D02*
X84836000Y-81915000D01*
X84836000Y-83820000D02*
X87376000Y-83820000D01*
X87376000Y-93980000D02*
X84836000Y-93980000D01*
X151130000Y-97790000D02*
X167640000Y-97790000D01*
X167640000Y-107950000D02*
X151130000Y-107950000D01*
X167640000Y-97790000D02*
X167640000Y-107950000D01*
X151130000Y-97790000D02*
X151130000Y-107950000D01*
X163830000Y-100330000D02*
X163830000Y-105410000D01*
X161290000Y-97790000D02*
X163830000Y-100330000D01*
X156210000Y-97790000D02*
X161290000Y-97790000D01*
X153670000Y-100330000D02*
X156210000Y-97790000D01*
X153670000Y-105410000D02*
X153670000Y-100330000D01*
X156210000Y-107950000D02*
X153670000Y-105410000D01*
X161290000Y-107950000D02*
X156210000Y-107950000D01*
X163830000Y-105410000D02*
X161290000Y-107950000D01*
D14*
X113486000Y-94207000D02*
X115946000Y-94207000D01*
X115946000Y-94207000D02*
X115946000Y-92737000D01*
X115946000Y-92737000D02*
X113486000Y-92737000D01*
X113486000Y-101827000D02*
X115946000Y-101827000D01*
X115946000Y-101827000D02*
X115946000Y-100357000D01*
X115946000Y-100357000D02*
X113486000Y-100357000D01*
X115946000Y-115597000D02*
X113486000Y-115597000D01*
X115946000Y-117067000D02*
X115946000Y-115597000D01*
X113486000Y-117067000D02*
X115946000Y-117067000D01*
X113486000Y-113257000D02*
X115946000Y-113257000D01*
X115946000Y-113257000D02*
X115946000Y-111787000D01*
X115946000Y-111787000D02*
X113486000Y-111787000D01*
X109034733Y-92962000D02*
X109377267Y-92962000D01*
X109034733Y-93982000D02*
X109377267Y-93982000D01*
X109034733Y-100582000D02*
X109377267Y-100582000D01*
X109034733Y-101602000D02*
X109377267Y-101602000D01*
X109189733Y-116842000D02*
X109532267Y-116842000D01*
X109189733Y-115822000D02*
X109532267Y-115822000D01*
X109189733Y-112012000D02*
X109532267Y-112012000D01*
X109189733Y-113032000D02*
X109532267Y-113032000D01*
X140975000Y-106075241D02*
X141605000Y-106075241D01*
X141290000Y-106390241D02*
X141290000Y-105760241D01*
X142727000Y-99649000D02*
X143531000Y-99649000D01*
X142496000Y-99689000D02*
X143762000Y-99689000D01*
X142327000Y-99729000D02*
X143931000Y-99729000D01*
X142189000Y-99769000D02*
X144069000Y-99769000D01*
X142070000Y-99809000D02*
X144188000Y-99809000D01*
X141964000Y-99849000D02*
X144294000Y-99849000D01*
X141867000Y-99889000D02*
X144391000Y-99889000D01*
X141779000Y-99929000D02*
X144479000Y-99929000D01*
X141697000Y-99969000D02*
X144561000Y-99969000D01*
X141620000Y-100009000D02*
X144638000Y-100009000D01*
X141548000Y-100049000D02*
X144710000Y-100049000D01*
X141479000Y-100089000D02*
X144779000Y-100089000D01*
X141415000Y-100129000D02*
X144843000Y-100129000D01*
X141353000Y-100169000D02*
X144905000Y-100169000D01*
X141295000Y-100209000D02*
X144963000Y-100209000D01*
X141239000Y-100249000D02*
X145019000Y-100249000D01*
X141185000Y-100289000D02*
X145073000Y-100289000D01*
X141134000Y-100329000D02*
X145124000Y-100329000D01*
X141085000Y-100369000D02*
X145173000Y-100369000D01*
X141037000Y-100409000D02*
X145221000Y-100409000D01*
X140992000Y-100449000D02*
X145266000Y-100449000D01*
X140947000Y-100489000D02*
X145311000Y-100489000D01*
X140905000Y-100529000D02*
X145353000Y-100529000D01*
X140864000Y-100569000D02*
X145394000Y-100569000D01*
X144169000Y-100609000D02*
X145434000Y-100609000D01*
X140824000Y-100609000D02*
X142089000Y-100609000D01*
X144169000Y-100649000D02*
X145472000Y-100649000D01*
X140786000Y-100649000D02*
X142089000Y-100649000D01*
X144169000Y-100689000D02*
X145509000Y-100689000D01*
X140749000Y-100689000D02*
X142089000Y-100689000D01*
X144169000Y-100729000D02*
X145545000Y-100729000D01*
X140713000Y-100729000D02*
X142089000Y-100729000D01*
X144169000Y-100769000D02*
X145579000Y-100769000D01*
X140679000Y-100769000D02*
X142089000Y-100769000D01*
X144169000Y-100809000D02*
X145613000Y-100809000D01*
X140645000Y-100809000D02*
X142089000Y-100809000D01*
X144169000Y-100849000D02*
X145645000Y-100849000D01*
X140613000Y-100849000D02*
X142089000Y-100849000D01*
X144169000Y-100889000D02*
X145677000Y-100889000D01*
X140581000Y-100889000D02*
X142089000Y-100889000D01*
X144169000Y-100929000D02*
X145707000Y-100929000D01*
X140551000Y-100929000D02*
X142089000Y-100929000D01*
X144169000Y-100969000D02*
X145736000Y-100969000D01*
X140522000Y-100969000D02*
X142089000Y-100969000D01*
X144169000Y-101009000D02*
X145765000Y-101009000D01*
X140493000Y-101009000D02*
X142089000Y-101009000D01*
X144169000Y-101049000D02*
X145793000Y-101049000D01*
X140465000Y-101049000D02*
X142089000Y-101049000D01*
X144169000Y-101089000D02*
X145819000Y-101089000D01*
X140439000Y-101089000D02*
X142089000Y-101089000D01*
X144169000Y-101129000D02*
X145845000Y-101129000D01*
X140413000Y-101129000D02*
X142089000Y-101129000D01*
X144169000Y-101169000D02*
X145871000Y-101169000D01*
X140387000Y-101169000D02*
X142089000Y-101169000D01*
X144169000Y-101209000D02*
X145895000Y-101209000D01*
X140363000Y-101209000D02*
X142089000Y-101209000D01*
X144169000Y-101249000D02*
X145919000Y-101249000D01*
X140339000Y-101249000D02*
X142089000Y-101249000D01*
X144169000Y-101289000D02*
X145941000Y-101289000D01*
X140317000Y-101289000D02*
X142089000Y-101289000D01*
X144169000Y-101329000D02*
X145963000Y-101329000D01*
X140295000Y-101329000D02*
X142089000Y-101329000D01*
X144169000Y-101369000D02*
X145985000Y-101369000D01*
X140273000Y-101369000D02*
X142089000Y-101369000D01*
X144169000Y-101409000D02*
X146005000Y-101409000D01*
X140253000Y-101409000D02*
X142089000Y-101409000D01*
X144169000Y-101449000D02*
X146025000Y-101449000D01*
X140233000Y-101449000D02*
X142089000Y-101449000D01*
X144169000Y-101489000D02*
X146045000Y-101489000D01*
X140213000Y-101489000D02*
X142089000Y-101489000D01*
X144169000Y-101529000D02*
X146063000Y-101529000D01*
X140195000Y-101529000D02*
X142089000Y-101529000D01*
X144169000Y-101569000D02*
X146081000Y-101569000D01*
X140177000Y-101569000D02*
X142089000Y-101569000D01*
X144169000Y-101609000D02*
X146099000Y-101609000D01*
X140159000Y-101609000D02*
X142089000Y-101609000D01*
X144169000Y-101649000D02*
X146115000Y-101649000D01*
X140143000Y-101649000D02*
X142089000Y-101649000D01*
X144169000Y-101689000D02*
X146131000Y-101689000D01*
X140127000Y-101689000D02*
X142089000Y-101689000D01*
X144169000Y-101729000D02*
X146147000Y-101729000D01*
X140111000Y-101729000D02*
X142089000Y-101729000D01*
X144169000Y-101769000D02*
X146162000Y-101769000D01*
X140096000Y-101769000D02*
X142089000Y-101769000D01*
X144169000Y-101809000D02*
X146176000Y-101809000D01*
X140082000Y-101809000D02*
X142089000Y-101809000D01*
X144169000Y-101849000D02*
X146190000Y-101849000D01*
X140068000Y-101849000D02*
X142089000Y-101849000D01*
X144169000Y-101889000D02*
X146203000Y-101889000D01*
X140055000Y-101889000D02*
X142089000Y-101889000D01*
X144169000Y-101929000D02*
X146215000Y-101929000D01*
X140043000Y-101929000D02*
X142089000Y-101929000D01*
X144169000Y-101969000D02*
X146227000Y-101969000D01*
X140031000Y-101969000D02*
X142089000Y-101969000D01*
X144169000Y-102009000D02*
X146239000Y-102009000D01*
X140019000Y-102009000D02*
X142089000Y-102009000D01*
X144169000Y-102049000D02*
X146250000Y-102049000D01*
X140008000Y-102049000D02*
X142089000Y-102049000D01*
X144169000Y-102089000D02*
X146260000Y-102089000D01*
X139998000Y-102089000D02*
X142089000Y-102089000D01*
X144169000Y-102129000D02*
X146270000Y-102129000D01*
X139988000Y-102129000D02*
X142089000Y-102129000D01*
X144169000Y-102169000D02*
X146279000Y-102169000D01*
X139979000Y-102169000D02*
X142089000Y-102169000D01*
X144169000Y-102210000D02*
X146288000Y-102210000D01*
X139970000Y-102210000D02*
X142089000Y-102210000D01*
X144169000Y-102250000D02*
X146296000Y-102250000D01*
X139962000Y-102250000D02*
X142089000Y-102250000D01*
X144169000Y-102290000D02*
X146304000Y-102290000D01*
X139954000Y-102290000D02*
X142089000Y-102290000D01*
X144169000Y-102330000D02*
X146311000Y-102330000D01*
X139947000Y-102330000D02*
X142089000Y-102330000D01*
X144169000Y-102370000D02*
X146318000Y-102370000D01*
X139940000Y-102370000D02*
X142089000Y-102370000D01*
X144169000Y-102410000D02*
X146324000Y-102410000D01*
X139934000Y-102410000D02*
X142089000Y-102410000D01*
X144169000Y-102450000D02*
X146330000Y-102450000D01*
X139928000Y-102450000D02*
X142089000Y-102450000D01*
X144169000Y-102490000D02*
X146335000Y-102490000D01*
X139923000Y-102490000D02*
X142089000Y-102490000D01*
X144169000Y-102530000D02*
X146340000Y-102530000D01*
X139918000Y-102530000D02*
X142089000Y-102530000D01*
X144169000Y-102570000D02*
X146344000Y-102570000D01*
X139914000Y-102570000D02*
X142089000Y-102570000D01*
X144169000Y-102610000D02*
X146347000Y-102610000D01*
X139911000Y-102610000D02*
X142089000Y-102610000D01*
X144169000Y-102650000D02*
X146351000Y-102650000D01*
X139907000Y-102650000D02*
X142089000Y-102650000D01*
X139905000Y-102690000D02*
X146353000Y-102690000D01*
X139902000Y-102730000D02*
X146356000Y-102730000D01*
X139901000Y-102770000D02*
X146357000Y-102770000D01*
X139899000Y-102810000D02*
X146359000Y-102810000D01*
X139899000Y-102850000D02*
X146359000Y-102850000D01*
X139899000Y-102890000D02*
X146359000Y-102890000D01*
X146399000Y-102890000D02*
G75*
G03X146399000Y-102890000I-3270000J0D01*
G01*
X89692267Y-84580000D02*
X89349733Y-84580000D01*
X89692267Y-85600000D02*
X89349733Y-85600000D01*
X89692267Y-88140000D02*
X89349733Y-88140000D01*
X89692267Y-87120000D02*
X89349733Y-87120000D01*
X113486000Y-109447000D02*
X115946000Y-109447000D01*
X115946000Y-109447000D02*
X115946000Y-107977000D01*
X115946000Y-107977000D02*
X113486000Y-107977000D01*
X115946000Y-104167000D02*
X113486000Y-104167000D01*
X115946000Y-105637000D02*
X115946000Y-104167000D01*
X113486000Y-105637000D02*
X115946000Y-105637000D01*
X109034733Y-109222000D02*
X109377267Y-109222000D01*
X109034733Y-108202000D02*
X109377267Y-108202000D01*
X109034733Y-104392000D02*
X109377267Y-104392000D01*
X109034733Y-105412000D02*
X109377267Y-105412000D01*
X113486000Y-98017000D02*
X115946000Y-98017000D01*
X115946000Y-98017000D02*
X115946000Y-96547000D01*
X115946000Y-96547000D02*
X113486000Y-96547000D01*
X109034733Y-96772000D02*
X109377267Y-96772000D01*
X109034733Y-97792000D02*
X109377267Y-97792000D01*
D13*
X72898000Y-110617000D02*
X72898000Y-96647000D01*
X78486000Y-106172000D02*
X78486000Y-101092000D01*
X78486000Y-102362000D02*
X81026000Y-102362000D01*
X81026000Y-102362000D02*
X81026000Y-104902000D01*
X72898000Y-101092000D02*
X78486000Y-101092000D01*
X84836000Y-96647000D02*
X72898000Y-96647000D01*
X87376000Y-98552000D02*
X87376000Y-108712000D01*
X72898000Y-106172000D02*
X73406000Y-106172000D01*
X84836000Y-110617000D02*
X72898000Y-110617000D01*
X84836000Y-108712000D02*
X84836000Y-110617000D01*
X77216000Y-106172000D02*
X78486000Y-106172000D01*
X77216000Y-106172000D02*
X73406000Y-106172000D01*
X78486000Y-104902000D02*
X81026000Y-104902000D01*
X84836000Y-108712000D02*
X84836000Y-96647000D01*
X84836000Y-98552000D02*
X87376000Y-98552000D01*
X87376000Y-108712000D02*
X84836000Y-108712000D01*
D14*
X89692267Y-99312000D02*
X89349733Y-99312000D01*
X89692267Y-100332000D02*
X89349733Y-100332000D01*
X89692267Y-102872000D02*
X89349733Y-102872000D01*
X89692267Y-101852000D02*
X89349733Y-101852000D01*
X100806000Y-79776000D02*
G75*
G03X100806000Y-79776000I-3270000J0D01*
G01*
X94306000Y-79776000D02*
X100766000Y-79776000D01*
X94306000Y-79736000D02*
X100766000Y-79736000D01*
X94306000Y-79696000D02*
X100766000Y-79696000D01*
X94308000Y-79656000D02*
X100764000Y-79656000D01*
X94309000Y-79616000D02*
X100763000Y-79616000D01*
X94312000Y-79576000D02*
X100760000Y-79576000D01*
X94314000Y-79536000D02*
X96496000Y-79536000D01*
X98576000Y-79536000D02*
X100758000Y-79536000D01*
X94318000Y-79496000D02*
X96496000Y-79496000D01*
X98576000Y-79496000D02*
X100754000Y-79496000D01*
X94321000Y-79456000D02*
X96496000Y-79456000D01*
X98576000Y-79456000D02*
X100751000Y-79456000D01*
X94325000Y-79416000D02*
X96496000Y-79416000D01*
X98576000Y-79416000D02*
X100747000Y-79416000D01*
X94330000Y-79376000D02*
X96496000Y-79376000D01*
X98576000Y-79376000D02*
X100742000Y-79376000D01*
X94335000Y-79336000D02*
X96496000Y-79336000D01*
X98576000Y-79336000D02*
X100737000Y-79336000D01*
X94341000Y-79296000D02*
X96496000Y-79296000D01*
X98576000Y-79296000D02*
X100731000Y-79296000D01*
X94347000Y-79256000D02*
X96496000Y-79256000D01*
X98576000Y-79256000D02*
X100725000Y-79256000D01*
X94354000Y-79216000D02*
X96496000Y-79216000D01*
X98576000Y-79216000D02*
X100718000Y-79216000D01*
X94361000Y-79176000D02*
X96496000Y-79176000D01*
X98576000Y-79176000D02*
X100711000Y-79176000D01*
X94369000Y-79136000D02*
X96496000Y-79136000D01*
X98576000Y-79136000D02*
X100703000Y-79136000D01*
X94377000Y-79096000D02*
X96496000Y-79096000D01*
X98576000Y-79096000D02*
X100695000Y-79096000D01*
X94386000Y-79055000D02*
X96496000Y-79055000D01*
X98576000Y-79055000D02*
X100686000Y-79055000D01*
X94395000Y-79015000D02*
X96496000Y-79015000D01*
X98576000Y-79015000D02*
X100677000Y-79015000D01*
X94405000Y-78975000D02*
X96496000Y-78975000D01*
X98576000Y-78975000D02*
X100667000Y-78975000D01*
X94415000Y-78935000D02*
X96496000Y-78935000D01*
X98576000Y-78935000D02*
X100657000Y-78935000D01*
X94426000Y-78895000D02*
X96496000Y-78895000D01*
X98576000Y-78895000D02*
X100646000Y-78895000D01*
X94438000Y-78855000D02*
X96496000Y-78855000D01*
X98576000Y-78855000D02*
X100634000Y-78855000D01*
X94450000Y-78815000D02*
X96496000Y-78815000D01*
X98576000Y-78815000D02*
X100622000Y-78815000D01*
X94462000Y-78775000D02*
X96496000Y-78775000D01*
X98576000Y-78775000D02*
X100610000Y-78775000D01*
X94475000Y-78735000D02*
X96496000Y-78735000D01*
X98576000Y-78735000D02*
X100597000Y-78735000D01*
X94489000Y-78695000D02*
X96496000Y-78695000D01*
X98576000Y-78695000D02*
X100583000Y-78695000D01*
X94503000Y-78655000D02*
X96496000Y-78655000D01*
X98576000Y-78655000D02*
X100569000Y-78655000D01*
X94518000Y-78615000D02*
X96496000Y-78615000D01*
X98576000Y-78615000D02*
X100554000Y-78615000D01*
X94534000Y-78575000D02*
X96496000Y-78575000D01*
X98576000Y-78575000D02*
X100538000Y-78575000D01*
X94550000Y-78535000D02*
X96496000Y-78535000D01*
X98576000Y-78535000D02*
X100522000Y-78535000D01*
X94566000Y-78495000D02*
X96496000Y-78495000D01*
X98576000Y-78495000D02*
X100506000Y-78495000D01*
X94584000Y-78455000D02*
X96496000Y-78455000D01*
X98576000Y-78455000D02*
X100488000Y-78455000D01*
X94602000Y-78415000D02*
X96496000Y-78415000D01*
X98576000Y-78415000D02*
X100470000Y-78415000D01*
X94620000Y-78375000D02*
X96496000Y-78375000D01*
X98576000Y-78375000D02*
X100452000Y-78375000D01*
X94640000Y-78335000D02*
X96496000Y-78335000D01*
X98576000Y-78335000D02*
X100432000Y-78335000D01*
X94660000Y-78295000D02*
X96496000Y-78295000D01*
X98576000Y-78295000D02*
X100412000Y-78295000D01*
X94680000Y-78255000D02*
X96496000Y-78255000D01*
X98576000Y-78255000D02*
X100392000Y-78255000D01*
X94702000Y-78215000D02*
X96496000Y-78215000D01*
X98576000Y-78215000D02*
X100370000Y-78215000D01*
X94724000Y-78175000D02*
X96496000Y-78175000D01*
X98576000Y-78175000D02*
X100348000Y-78175000D01*
X94746000Y-78135000D02*
X96496000Y-78135000D01*
X98576000Y-78135000D02*
X100326000Y-78135000D01*
X94770000Y-78095000D02*
X96496000Y-78095000D01*
X98576000Y-78095000D02*
X100302000Y-78095000D01*
X94794000Y-78055000D02*
X96496000Y-78055000D01*
X98576000Y-78055000D02*
X100278000Y-78055000D01*
X94820000Y-78015000D02*
X96496000Y-78015000D01*
X98576000Y-78015000D02*
X100252000Y-78015000D01*
X94846000Y-77975000D02*
X96496000Y-77975000D01*
X98576000Y-77975000D02*
X100226000Y-77975000D01*
X94872000Y-77935000D02*
X96496000Y-77935000D01*
X98576000Y-77935000D02*
X100200000Y-77935000D01*
X94900000Y-77895000D02*
X96496000Y-77895000D01*
X98576000Y-77895000D02*
X100172000Y-77895000D01*
X94929000Y-77855000D02*
X96496000Y-77855000D01*
X98576000Y-77855000D02*
X100143000Y-77855000D01*
X94958000Y-77815000D02*
X96496000Y-77815000D01*
X98576000Y-77815000D02*
X100114000Y-77815000D01*
X94988000Y-77775000D02*
X96496000Y-77775000D01*
X98576000Y-77775000D02*
X100084000Y-77775000D01*
X95020000Y-77735000D02*
X96496000Y-77735000D01*
X98576000Y-77735000D02*
X100052000Y-77735000D01*
X95052000Y-77695000D02*
X96496000Y-77695000D01*
X98576000Y-77695000D02*
X100020000Y-77695000D01*
X95086000Y-77655000D02*
X96496000Y-77655000D01*
X98576000Y-77655000D02*
X99986000Y-77655000D01*
X95120000Y-77615000D02*
X96496000Y-77615000D01*
X98576000Y-77615000D02*
X99952000Y-77615000D01*
X95156000Y-77575000D02*
X96496000Y-77575000D01*
X98576000Y-77575000D02*
X99916000Y-77575000D01*
X95193000Y-77535000D02*
X96496000Y-77535000D01*
X98576000Y-77535000D02*
X99879000Y-77535000D01*
X95231000Y-77495000D02*
X96496000Y-77495000D01*
X98576000Y-77495000D02*
X99841000Y-77495000D01*
X95271000Y-77455000D02*
X99801000Y-77455000D01*
X95312000Y-77415000D02*
X99760000Y-77415000D01*
X95354000Y-77375000D02*
X99718000Y-77375000D01*
X95399000Y-77335000D02*
X99673000Y-77335000D01*
X95444000Y-77295000D02*
X99628000Y-77295000D01*
X95492000Y-77255000D02*
X99580000Y-77255000D01*
X95541000Y-77215000D02*
X99531000Y-77215000D01*
X95592000Y-77175000D02*
X99480000Y-77175000D01*
X95646000Y-77135000D02*
X99426000Y-77135000D01*
X95702000Y-77095000D02*
X99370000Y-77095000D01*
X95760000Y-77055000D02*
X99312000Y-77055000D01*
X95822000Y-77015000D02*
X99250000Y-77015000D01*
X95886000Y-76975000D02*
X99186000Y-76975000D01*
X95955000Y-76935000D02*
X99117000Y-76935000D01*
X96027000Y-76895000D02*
X99045000Y-76895000D01*
X96104000Y-76855000D02*
X98968000Y-76855000D01*
X96186000Y-76815000D02*
X98886000Y-76815000D01*
X96274000Y-76775000D02*
X98798000Y-76775000D01*
X96371000Y-76735000D02*
X98701000Y-76735000D01*
X96477000Y-76695000D02*
X98595000Y-76695000D01*
X96596000Y-76655000D02*
X98476000Y-76655000D01*
X96734000Y-76615000D02*
X98338000Y-76615000D01*
X96903000Y-76575000D02*
X98169000Y-76575000D01*
X97134000Y-76535000D02*
X97938000Y-76535000D01*
X95697000Y-83276241D02*
X95697000Y-82646241D01*
X95382000Y-82961241D02*
X96012000Y-82961241D01*
D15*
G36*
X83575412Y-143017152D02*
G01*
X83627050Y-143090171D01*
X83680377Y-143202814D01*
X83759932Y-143450903D01*
X83804577Y-143733022D01*
X83810743Y-144024159D01*
X83806572Y-144087040D01*
X83784424Y-144352618D01*
X83980116Y-144106359D01*
X84146962Y-143909286D01*
X84287252Y-143772083D01*
X84402451Y-143693939D01*
X84494023Y-143674039D01*
X84563432Y-143711569D01*
X84596266Y-143763952D01*
X84614510Y-143821376D01*
X84608817Y-143881442D01*
X84574837Y-143965220D01*
X84540891Y-144032142D01*
X84472638Y-144142329D01*
X84374846Y-144275469D01*
X84265506Y-144407522D01*
X84233236Y-144443231D01*
X84140757Y-144545361D01*
X84068595Y-144629322D01*
X84026857Y-144683133D01*
X84020526Y-144695391D01*
X84043515Y-144739674D01*
X84104405Y-144815865D01*
X84191082Y-144911532D01*
X84291431Y-145014240D01*
X84393338Y-145111556D01*
X84484687Y-145191045D01*
X84548908Y-145237693D01*
X84607067Y-145271125D01*
X84658786Y-145293840D01*
X84716523Y-145306493D01*
X84792737Y-145309740D01*
X84899885Y-145304234D01*
X85050426Y-145290631D01*
X85222641Y-145273105D01*
X85295036Y-145285374D01*
X85316281Y-145319361D01*
X85294543Y-145365882D01*
X85219205Y-145409502D01*
X85103495Y-145446105D01*
X84960645Y-145471577D01*
X84803885Y-145481803D01*
X84793809Y-145481842D01*
X84630489Y-145470659D01*
X84485521Y-145432211D01*
X84343509Y-145359151D01*
X84189060Y-145244134D01*
X84064081Y-145133594D01*
X83955395Y-145037684D01*
X83857085Y-144959124D01*
X83784490Y-144909843D01*
X83764319Y-144900406D01*
X83725684Y-144892976D01*
X83701746Y-144909698D01*
X83686501Y-144963618D01*
X83673947Y-145067782D01*
X83670403Y-145104494D01*
X83658495Y-145227262D01*
X83648299Y-145327476D01*
X83642245Y-145381579D01*
X83608027Y-145421675D01*
X83543991Y-145442286D01*
X83477435Y-145440888D01*
X83454208Y-145403527D01*
X83452369Y-145367916D01*
X83446028Y-145309696D01*
X83413583Y-145300255D01*
X83364423Y-145316407D01*
X83134152Y-145381370D01*
X82935033Y-145388510D01*
X82764367Y-145337640D01*
X82660956Y-145267906D01*
X82571275Y-145190766D01*
X82419694Y-145306471D01*
X82237406Y-145424665D01*
X82079734Y-145481519D01*
X81945155Y-145477210D01*
X81832146Y-145411916D01*
X81800997Y-145379015D01*
X81728406Y-145244414D01*
X81714855Y-145089577D01*
X81758355Y-144921530D01*
X81856916Y-144747302D01*
X82008549Y-144573919D01*
X82036232Y-144547976D01*
X82196034Y-144419027D01*
X82337306Y-144345927D01*
X82471842Y-144324956D01*
X82611439Y-144352397D01*
X82632453Y-144360041D01*
X82735306Y-144413916D01*
X82781405Y-144467100D01*
X82772908Y-144508102D01*
X82711971Y-144525433D01*
X82604539Y-144508689D01*
X82472126Y-144505073D01*
X82404013Y-144526654D01*
X82288346Y-144597503D01*
X82176004Y-144702135D01*
X82077476Y-144825624D01*
X82003249Y-144953048D01*
X81963809Y-145069483D01*
X81965910Y-145150085D01*
X81997322Y-145201436D01*
X82050739Y-145206942D01*
X82135277Y-145165408D01*
X82202420Y-145119104D01*
X82337764Y-145009704D01*
X82423194Y-144912113D01*
X82470274Y-144811906D01*
X82479942Y-144773014D01*
X82499989Y-144703624D01*
X82537060Y-144669552D01*
X82612684Y-144655343D01*
X82647795Y-144652521D01*
X82793325Y-144642015D01*
X82774224Y-144784424D01*
X82775281Y-144937511D01*
X82816931Y-145067272D01*
X82892712Y-145157931D01*
X82937075Y-145182092D01*
X83014605Y-145194263D01*
X83122355Y-145190873D01*
X83239408Y-145175312D01*
X83344850Y-145150972D01*
X83417765Y-145121242D01*
X83437711Y-145100929D01*
X83444072Y-145057622D01*
X83454290Y-144958359D01*
X83467401Y-144813851D01*
X83482441Y-144634810D01*
X83498444Y-144431949D01*
X83501206Y-144395658D01*
X83523981Y-144024751D01*
X83531212Y-143717071D01*
X83522830Y-143470820D01*
X83498764Y-143284197D01*
X83458945Y-143155405D01*
X83452491Y-143142597D01*
X83428332Y-143078889D01*
X83449780Y-143036789D01*
X83470461Y-143020252D01*
X83525814Y-142996106D01*
X83575412Y-143017152D01*
G37*
X83575412Y-143017152D02*
X83627050Y-143090171D01*
X83680377Y-143202814D01*
X83759932Y-143450903D01*
X83804577Y-143733022D01*
X83810743Y-144024159D01*
X83806572Y-144087040D01*
X83784424Y-144352618D01*
X83980116Y-144106359D01*
X84146962Y-143909286D01*
X84287252Y-143772083D01*
X84402451Y-143693939D01*
X84494023Y-143674039D01*
X84563432Y-143711569D01*
X84596266Y-143763952D01*
X84614510Y-143821376D01*
X84608817Y-143881442D01*
X84574837Y-143965220D01*
X84540891Y-144032142D01*
X84472638Y-144142329D01*
X84374846Y-144275469D01*
X84265506Y-144407522D01*
X84233236Y-144443231D01*
X84140757Y-144545361D01*
X84068595Y-144629322D01*
X84026857Y-144683133D01*
X84020526Y-144695391D01*
X84043515Y-144739674D01*
X84104405Y-144815865D01*
X84191082Y-144911532D01*
X84291431Y-145014240D01*
X84393338Y-145111556D01*
X84484687Y-145191045D01*
X84548908Y-145237693D01*
X84607067Y-145271125D01*
X84658786Y-145293840D01*
X84716523Y-145306493D01*
X84792737Y-145309740D01*
X84899885Y-145304234D01*
X85050426Y-145290631D01*
X85222641Y-145273105D01*
X85295036Y-145285374D01*
X85316281Y-145319361D01*
X85294543Y-145365882D01*
X85219205Y-145409502D01*
X85103495Y-145446105D01*
X84960645Y-145471577D01*
X84803885Y-145481803D01*
X84793809Y-145481842D01*
X84630489Y-145470659D01*
X84485521Y-145432211D01*
X84343509Y-145359151D01*
X84189060Y-145244134D01*
X84064081Y-145133594D01*
X83955395Y-145037684D01*
X83857085Y-144959124D01*
X83784490Y-144909843D01*
X83764319Y-144900406D01*
X83725684Y-144892976D01*
X83701746Y-144909698D01*
X83686501Y-144963618D01*
X83673947Y-145067782D01*
X83670403Y-145104494D01*
X83658495Y-145227262D01*
X83648299Y-145327476D01*
X83642245Y-145381579D01*
X83608027Y-145421675D01*
X83543991Y-145442286D01*
X83477435Y-145440888D01*
X83454208Y-145403527D01*
X83452369Y-145367916D01*
X83446028Y-145309696D01*
X83413583Y-145300255D01*
X83364423Y-145316407D01*
X83134152Y-145381370D01*
X82935033Y-145388510D01*
X82764367Y-145337640D01*
X82660956Y-145267906D01*
X82571275Y-145190766D01*
X82419694Y-145306471D01*
X82237406Y-145424665D01*
X82079734Y-145481519D01*
X81945155Y-145477210D01*
X81832146Y-145411916D01*
X81800997Y-145379015D01*
X81728406Y-145244414D01*
X81714855Y-145089577D01*
X81758355Y-144921530D01*
X81856916Y-144747302D01*
X82008549Y-144573919D01*
X82036232Y-144547976D01*
X82196034Y-144419027D01*
X82337306Y-144345927D01*
X82471842Y-144324956D01*
X82611439Y-144352397D01*
X82632453Y-144360041D01*
X82735306Y-144413916D01*
X82781405Y-144467100D01*
X82772908Y-144508102D01*
X82711971Y-144525433D01*
X82604539Y-144508689D01*
X82472126Y-144505073D01*
X82404013Y-144526654D01*
X82288346Y-144597503D01*
X82176004Y-144702135D01*
X82077476Y-144825624D01*
X82003249Y-144953048D01*
X81963809Y-145069483D01*
X81965910Y-145150085D01*
X81997322Y-145201436D01*
X82050739Y-145206942D01*
X82135277Y-145165408D01*
X82202420Y-145119104D01*
X82337764Y-145009704D01*
X82423194Y-144912113D01*
X82470274Y-144811906D01*
X82479942Y-144773014D01*
X82499989Y-144703624D01*
X82537060Y-144669552D01*
X82612684Y-144655343D01*
X82647795Y-144652521D01*
X82793325Y-144642015D01*
X82774224Y-144784424D01*
X82775281Y-144937511D01*
X82816931Y-145067272D01*
X82892712Y-145157931D01*
X82937075Y-145182092D01*
X83014605Y-145194263D01*
X83122355Y-145190873D01*
X83239408Y-145175312D01*
X83344850Y-145150972D01*
X83417765Y-145121242D01*
X83437711Y-145100929D01*
X83444072Y-145057622D01*
X83454290Y-144958359D01*
X83467401Y-144813851D01*
X83482441Y-144634810D01*
X83498444Y-144431949D01*
X83501206Y-144395658D01*
X83523981Y-144024751D01*
X83531212Y-143717071D01*
X83522830Y-143470820D01*
X83498764Y-143284197D01*
X83458945Y-143155405D01*
X83452491Y-143142597D01*
X83428332Y-143078889D01*
X83449780Y-143036789D01*
X83470461Y-143020252D01*
X83525814Y-142996106D01*
X83575412Y-143017152D01*
G36*
X89516330Y-143955302D02*
G01*
X89542981Y-143978158D01*
X89626863Y-144036643D01*
X89701440Y-144067484D01*
X89840284Y-144114934D01*
X89955925Y-144180668D01*
X90031303Y-144253717D01*
X90048914Y-144290908D01*
X90046553Y-144369779D01*
X90008255Y-144491174D01*
X89947401Y-144629615D01*
X89887423Y-144771090D01*
X89839572Y-144912019D01*
X89812683Y-145025743D01*
X89810664Y-145042169D01*
X89806902Y-145146127D01*
X89826257Y-145213694D01*
X89877322Y-145273723D01*
X89880520Y-145276725D01*
X89930804Y-145317305D01*
X89985357Y-145339577D01*
X90063624Y-145347371D01*
X90185050Y-145344516D01*
X90216861Y-145342972D01*
X90342586Y-145332713D01*
X90442655Y-145317336D01*
X90497863Y-145299920D01*
X90500980Y-145297432D01*
X90515391Y-145238380D01*
X90496972Y-145129388D01*
X90496117Y-145126182D01*
X90480772Y-144956747D01*
X90512760Y-144768703D01*
X90585673Y-144583191D01*
X90693106Y-144421352D01*
X90718052Y-144393809D01*
X90848157Y-144282021D01*
X90970668Y-144222628D01*
X91076563Y-144219765D01*
X91089004Y-144223900D01*
X91135148Y-144259054D01*
X91115688Y-144304201D01*
X91030450Y-144359679D01*
X91014176Y-144367840D01*
X90892312Y-144461531D01*
X90795633Y-144600937D01*
X90732240Y-144767152D01*
X90710235Y-144941268D01*
X90721969Y-145049742D01*
X90771514Y-145142682D01*
X90861126Y-145199273D01*
X90975824Y-145221086D01*
X91100630Y-145209693D01*
X91220563Y-145166666D01*
X91320646Y-145093574D01*
X91385899Y-144991990D01*
X91390145Y-144979655D01*
X91388763Y-144880689D01*
X91334568Y-144763163D01*
X91233882Y-144639674D01*
X91206051Y-144612894D01*
X91075832Y-144492676D01*
X91149297Y-144402234D01*
X91204622Y-144343789D01*
X91256959Y-144328757D01*
X91338566Y-144348046D01*
X91339973Y-144348486D01*
X91414533Y-144364314D01*
X91500519Y-144363817D01*
X91616728Y-144345568D01*
X91740490Y-144318082D01*
X91891838Y-144284209D01*
X91989908Y-144268844D01*
X92045735Y-144272286D01*
X92070355Y-144294839D01*
X92075000Y-144327235D01*
X92046385Y-144358281D01*
X91972721Y-144402488D01*
X91872284Y-144451609D01*
X91763348Y-144497398D01*
X91664185Y-144531610D01*
X91593072Y-144546000D01*
X91590043Y-144546053D01*
X91553315Y-144550319D01*
X91545081Y-144572670D01*
X91566883Y-144627435D01*
X91607105Y-144704429D01*
X91665520Y-144877320D01*
X91660795Y-145048735D01*
X91595828Y-145206878D01*
X91473521Y-145339955D01*
X91445895Y-145360161D01*
X91244344Y-145470113D01*
X91053275Y-145514725D01*
X90870640Y-145494310D01*
X90785896Y-145461756D01*
X90720003Y-145434343D01*
X90662078Y-145426430D01*
X90589310Y-145439206D01*
X90478890Y-145473858D01*
X90465211Y-145478467D01*
X90234928Y-145535554D01*
X90029537Y-145539757D01*
X89852500Y-145498455D01*
X89697468Y-145414916D01*
X89597514Y-145293832D01*
X89552819Y-145135795D01*
X89563565Y-144941396D01*
X89619278Y-144740017D01*
X89663522Y-144616294D01*
X89699962Y-144512987D01*
X89721685Y-144449728D01*
X89723347Y-144444591D01*
X89706023Y-144392365D01*
X89622058Y-144337226D01*
X89619445Y-144335972D01*
X89541013Y-144299763D01*
X89493239Y-144279951D01*
X89488277Y-144278685D01*
X89477562Y-144308333D01*
X89463378Y-144383147D01*
X89457270Y-144424404D01*
X89433819Y-144538672D01*
X89394774Y-144677381D01*
X89364354Y-144766970D01*
X89295841Y-144909151D01*
X89202984Y-145044804D01*
X89098004Y-145160726D01*
X88993127Y-145243718D01*
X88900575Y-145280580D01*
X88888064Y-145281316D01*
X88818375Y-145262839D01*
X88800923Y-145219908D01*
X88836943Y-145171273D01*
X88879361Y-145149125D01*
X88981252Y-145076645D01*
X89070477Y-144946061D01*
X89143827Y-144765438D01*
X89198092Y-144542842D01*
X89230062Y-144286338D01*
X89231600Y-144263985D01*
X89250921Y-143965207D01*
X89359830Y-143937099D01*
X89448993Y-143925800D01*
X89516330Y-143955302D01*
G37*
X89516330Y-143955302D02*
X89542981Y-143978158D01*
X89626863Y-144036643D01*
X89701440Y-144067484D01*
X89840284Y-144114934D01*
X89955925Y-144180668D01*
X90031303Y-144253717D01*
X90048914Y-144290908D01*
X90046553Y-144369779D01*
X90008255Y-144491174D01*
X89947401Y-144629615D01*
X89887423Y-144771090D01*
X89839572Y-144912019D01*
X89812683Y-145025743D01*
X89810664Y-145042169D01*
X89806902Y-145146127D01*
X89826257Y-145213694D01*
X89877322Y-145273723D01*
X89880520Y-145276725D01*
X89930804Y-145317305D01*
X89985357Y-145339577D01*
X90063624Y-145347371D01*
X90185050Y-145344516D01*
X90216861Y-145342972D01*
X90342586Y-145332713D01*
X90442655Y-145317336D01*
X90497863Y-145299920D01*
X90500980Y-145297432D01*
X90515391Y-145238380D01*
X90496972Y-145129388D01*
X90496117Y-145126182D01*
X90480772Y-144956747D01*
X90512760Y-144768703D01*
X90585673Y-144583191D01*
X90693106Y-144421352D01*
X90718052Y-144393809D01*
X90848157Y-144282021D01*
X90970668Y-144222628D01*
X91076563Y-144219765D01*
X91089004Y-144223900D01*
X91135148Y-144259054D01*
X91115688Y-144304201D01*
X91030450Y-144359679D01*
X91014176Y-144367840D01*
X90892312Y-144461531D01*
X90795633Y-144600937D01*
X90732240Y-144767152D01*
X90710235Y-144941268D01*
X90721969Y-145049742D01*
X90771514Y-145142682D01*
X90861126Y-145199273D01*
X90975824Y-145221086D01*
X91100630Y-145209693D01*
X91220563Y-145166666D01*
X91320646Y-145093574D01*
X91385899Y-144991990D01*
X91390145Y-144979655D01*
X91388763Y-144880689D01*
X91334568Y-144763163D01*
X91233882Y-144639674D01*
X91206051Y-144612894D01*
X91075832Y-144492676D01*
X91149297Y-144402234D01*
X91204622Y-144343789D01*
X91256959Y-144328757D01*
X91338566Y-144348046D01*
X91339973Y-144348486D01*
X91414533Y-144364314D01*
X91500519Y-144363817D01*
X91616728Y-144345568D01*
X91740490Y-144318082D01*
X91891838Y-144284209D01*
X91989908Y-144268844D01*
X92045735Y-144272286D01*
X92070355Y-144294839D01*
X92075000Y-144327235D01*
X92046385Y-144358281D01*
X91972721Y-144402488D01*
X91872284Y-144451609D01*
X91763348Y-144497398D01*
X91664185Y-144531610D01*
X91593072Y-144546000D01*
X91590043Y-144546053D01*
X91553315Y-144550319D01*
X91545081Y-144572670D01*
X91566883Y-144627435D01*
X91607105Y-144704429D01*
X91665520Y-144877320D01*
X91660795Y-145048735D01*
X91595828Y-145206878D01*
X91473521Y-145339955D01*
X91445895Y-145360161D01*
X91244344Y-145470113D01*
X91053275Y-145514725D01*
X90870640Y-145494310D01*
X90785896Y-145461756D01*
X90720003Y-145434343D01*
X90662078Y-145426430D01*
X90589310Y-145439206D01*
X90478890Y-145473858D01*
X90465211Y-145478467D01*
X90234928Y-145535554D01*
X90029537Y-145539757D01*
X89852500Y-145498455D01*
X89697468Y-145414916D01*
X89597514Y-145293832D01*
X89552819Y-145135795D01*
X89563565Y-144941396D01*
X89619278Y-144740017D01*
X89663522Y-144616294D01*
X89699962Y-144512987D01*
X89721685Y-144449728D01*
X89723347Y-144444591D01*
X89706023Y-144392365D01*
X89622058Y-144337226D01*
X89619445Y-144335972D01*
X89541013Y-144299763D01*
X89493239Y-144279951D01*
X89488277Y-144278685D01*
X89477562Y-144308333D01*
X89463378Y-144383147D01*
X89457270Y-144424404D01*
X89433819Y-144538672D01*
X89394774Y-144677381D01*
X89364354Y-144766970D01*
X89295841Y-144909151D01*
X89202984Y-145044804D01*
X89098004Y-145160726D01*
X88993127Y-145243718D01*
X88900575Y-145280580D01*
X88888064Y-145281316D01*
X88818375Y-145262839D01*
X88800923Y-145219908D01*
X88836943Y-145171273D01*
X88879361Y-145149125D01*
X88981252Y-145076645D01*
X89070477Y-144946061D01*
X89143827Y-144765438D01*
X89198092Y-144542842D01*
X89230062Y-144286338D01*
X89231600Y-144263985D01*
X89250921Y-143965207D01*
X89359830Y-143937099D01*
X89448993Y-143925800D01*
X89516330Y-143955302D01*
G36*
X93336088Y-143018781D02*
G01*
X93388292Y-143094518D01*
X93439325Y-143202814D01*
X93518879Y-143450903D01*
X93563524Y-143733022D01*
X93569690Y-144024159D01*
X93565519Y-144087040D01*
X93543371Y-144352618D01*
X93739064Y-144106359D01*
X93905910Y-143909286D01*
X94046200Y-143772083D01*
X94161398Y-143693939D01*
X94252970Y-143674039D01*
X94322379Y-143711569D01*
X94355214Y-143763952D01*
X94373457Y-143821376D01*
X94367764Y-143881442D01*
X94333785Y-143965220D01*
X94299838Y-144032142D01*
X94231586Y-144142329D01*
X94133793Y-144275469D01*
X94024454Y-144407522D01*
X93992183Y-144443231D01*
X93899704Y-144545361D01*
X93827542Y-144629322D01*
X93785804Y-144683133D01*
X93779474Y-144695391D01*
X93800203Y-144728902D01*
X93855547Y-144799153D01*
X93935238Y-144893348D01*
X93971645Y-144934879D01*
X94129362Y-145099480D01*
X94269233Y-145212090D01*
X94404078Y-145280110D01*
X94546715Y-145310943D01*
X94629593Y-145314737D01*
X94744975Y-145310686D01*
X94799217Y-145297277D01*
X95082895Y-145297277D01*
X95109576Y-145298565D01*
X95168623Y-145280489D01*
X95257724Y-145259543D01*
X95371282Y-145248434D01*
X95398868Y-145247895D01*
X95546737Y-145225734D01*
X95643768Y-145162127D01*
X95687847Y-145061387D01*
X95676859Y-144927828D01*
X95622575Y-144791586D01*
X95553439Y-144662420D01*
X95505030Y-144591702D01*
X95468971Y-144577707D01*
X95436881Y-144618709D01*
X95400383Y-144712983D01*
X95389919Y-144743692D01*
X95330629Y-144887655D01*
X95253300Y-145035381D01*
X95201223Y-145116767D01*
X95138724Y-145206161D01*
X95095840Y-145272091D01*
X95082895Y-145297277D01*
X94799217Y-145297277D01*
X94819949Y-145292152D01*
X94880768Y-145249563D01*
X94921567Y-145208289D01*
X95023072Y-145079361D01*
X95106715Y-144924161D01*
X95179067Y-144728367D01*
X95235410Y-144524126D01*
X95274913Y-144379164D01*
X95316409Y-144250523D01*
X95353190Y-144158202D01*
X95366349Y-144133934D01*
X95413637Y-144077144D01*
X95466535Y-144068585D01*
X95519570Y-144083934D01*
X95597291Y-144131049D01*
X95617632Y-144190910D01*
X95634726Y-144252559D01*
X95680075Y-144351000D01*
X95744777Y-144467461D01*
X95762680Y-144496786D01*
X95874758Y-144691408D01*
X95944343Y-144850574D01*
X95975609Y-144986679D01*
X95972735Y-145112116D01*
X95971881Y-145117639D01*
X95961670Y-145199583D01*
X95961656Y-145244796D01*
X95963956Y-145247895D01*
X96022915Y-145233956D01*
X96114949Y-145199534D01*
X96214219Y-145155718D01*
X96294886Y-145113599D01*
X96324089Y-145093323D01*
X96363432Y-145033997D01*
X96351188Y-144959327D01*
X96337321Y-144893406D01*
X96367171Y-144860114D01*
X96374812Y-144856930D01*
X96436065Y-144861728D01*
X96484066Y-144914201D01*
X96512923Y-144995590D01*
X96516744Y-145087136D01*
X96489638Y-145170078D01*
X96478224Y-145186193D01*
X96355064Y-145293688D01*
X96173391Y-145384115D01*
X95930935Y-145458361D01*
X95634342Y-145515943D01*
X95505466Y-145536835D01*
X95394264Y-145556544D01*
X95326039Y-145570530D01*
X95253378Y-145564947D01*
X95170816Y-145507395D01*
X95151596Y-145488843D01*
X95084560Y-145427074D01*
X95032793Y-145406532D01*
X94965731Y-145419794D01*
X94925162Y-145433832D01*
X94824426Y-145457660D01*
X94688731Y-145474548D01*
X94567065Y-145480376D01*
X94401478Y-145471362D01*
X94257485Y-145437092D01*
X94119216Y-145370167D01*
X93970800Y-145263191D01*
X93823028Y-145133594D01*
X93714342Y-145037684D01*
X93616033Y-144959124D01*
X93543437Y-144909843D01*
X93523267Y-144900406D01*
X93484631Y-144892976D01*
X93460693Y-144909698D01*
X93445449Y-144963618D01*
X93432894Y-145067782D01*
X93429350Y-145104494D01*
X93417442Y-145227262D01*
X93407247Y-145327476D01*
X93401193Y-145381579D01*
X93366341Y-145421775D01*
X93297676Y-145442794D01*
X93200792Y-145453877D01*
X93245928Y-144453645D01*
X93086582Y-144507946D01*
X92993469Y-144539950D01*
X92931019Y-144561928D01*
X92916896Y-144567276D01*
X92924735Y-144596604D01*
X92956585Y-144664681D01*
X92975383Y-144700724D01*
X93036209Y-144875842D01*
X93032314Y-145045927D01*
X92965776Y-145203549D01*
X92838673Y-145341278D01*
X92785374Y-145380052D01*
X92589348Y-145478510D01*
X92397917Y-145513370D01*
X92216177Y-145484576D01*
X92049224Y-145392074D01*
X92044150Y-145388034D01*
X91946170Y-145281957D01*
X91876925Y-145156819D01*
X91875254Y-145152198D01*
X91849942Y-145003012D01*
X91866540Y-144838880D01*
X91918012Y-144672095D01*
X91997320Y-144514950D01*
X92097425Y-144379739D01*
X92211289Y-144278754D01*
X92331876Y-144224289D01*
X92409211Y-144219509D01*
X92477214Y-144242047D01*
X92485373Y-144283358D01*
X92435317Y-144335965D01*
X92376293Y-144370709D01*
X92259844Y-144462830D01*
X92166390Y-144600742D01*
X92104036Y-144765074D01*
X92080884Y-144936455D01*
X92092232Y-145049742D01*
X92141778Y-145142682D01*
X92231389Y-145199273D01*
X92346087Y-145221086D01*
X92470893Y-145209693D01*
X92590826Y-145166666D01*
X92690909Y-145093574D01*
X92756162Y-144991990D01*
X92760408Y-144979655D01*
X92759026Y-144880689D01*
X92704831Y-144763163D01*
X92604145Y-144639674D01*
X92576315Y-144612894D01*
X92446095Y-144492676D01*
X92519866Y-144400157D01*
X92575876Y-144339868D01*
X92626152Y-144325922D01*
X92693346Y-144345548D01*
X92783859Y-144359703D01*
X92911551Y-144356270D01*
X93050063Y-144338416D01*
X93173037Y-144309310D01*
X93243536Y-144279427D01*
X93265126Y-144233189D01*
X93280340Y-144134647D01*
X93289335Y-143998018D01*
X93292269Y-143837520D01*
X93289298Y-143667371D01*
X93280580Y-143501787D01*
X93266273Y-143354988D01*
X93246533Y-143241190D01*
X93231514Y-143193157D01*
X93198167Y-143108350D01*
X93193020Y-143061649D01*
X93216152Y-143030518D01*
X93232128Y-143018263D01*
X93286533Y-142995588D01*
X93336088Y-143018781D01*
G37*
X93336088Y-143018781D02*
X93388292Y-143094518D01*
X93439325Y-143202814D01*
X93518879Y-143450903D01*
X93563524Y-143733022D01*
X93569690Y-144024159D01*
X93565519Y-144087040D01*
X93543371Y-144352618D01*
X93739064Y-144106359D01*
X93905910Y-143909286D01*
X94046200Y-143772083D01*
X94161398Y-143693939D01*
X94252970Y-143674039D01*
X94322379Y-143711569D01*
X94355214Y-143763952D01*
X94373457Y-143821376D01*
X94367764Y-143881442D01*
X94333785Y-143965220D01*
X94299838Y-144032142D01*
X94231586Y-144142329D01*
X94133793Y-144275469D01*
X94024454Y-144407522D01*
X93992183Y-144443231D01*
X93899704Y-144545361D01*
X93827542Y-144629322D01*
X93785804Y-144683133D01*
X93779474Y-144695391D01*
X93800203Y-144728902D01*
X93855547Y-144799153D01*
X93935238Y-144893348D01*
X93971645Y-144934879D01*
X94129362Y-145099480D01*
X94269233Y-145212090D01*
X94404078Y-145280110D01*
X94546715Y-145310943D01*
X94629593Y-145314737D01*
X94744975Y-145310686D01*
X94799217Y-145297277D01*
X95082895Y-145297277D01*
X95109576Y-145298565D01*
X95168623Y-145280489D01*
X95257724Y-145259543D01*
X95371282Y-145248434D01*
X95398868Y-145247895D01*
X95546737Y-145225734D01*
X95643768Y-145162127D01*
X95687847Y-145061387D01*
X95676859Y-144927828D01*
X95622575Y-144791586D01*
X95553439Y-144662420D01*
X95505030Y-144591702D01*
X95468971Y-144577707D01*
X95436881Y-144618709D01*
X95400383Y-144712983D01*
X95389919Y-144743692D01*
X95330629Y-144887655D01*
X95253300Y-145035381D01*
X95201223Y-145116767D01*
X95138724Y-145206161D01*
X95095840Y-145272091D01*
X95082895Y-145297277D01*
X94799217Y-145297277D01*
X94819949Y-145292152D01*
X94880768Y-145249563D01*
X94921567Y-145208289D01*
X95023072Y-145079361D01*
X95106715Y-144924161D01*
X95179067Y-144728367D01*
X95235410Y-144524126D01*
X95274913Y-144379164D01*
X95316409Y-144250523D01*
X95353190Y-144158202D01*
X95366349Y-144133934D01*
X95413637Y-144077144D01*
X95466535Y-144068585D01*
X95519570Y-144083934D01*
X95597291Y-144131049D01*
X95617632Y-144190910D01*
X95634726Y-144252559D01*
X95680075Y-144351000D01*
X95744777Y-144467461D01*
X95762680Y-144496786D01*
X95874758Y-144691408D01*
X95944343Y-144850574D01*
X95975609Y-144986679D01*
X95972735Y-145112116D01*
X95971881Y-145117639D01*
X95961670Y-145199583D01*
X95961656Y-145244796D01*
X95963956Y-145247895D01*
X96022915Y-145233956D01*
X96114949Y-145199534D01*
X96214219Y-145155718D01*
X96294886Y-145113599D01*
X96324089Y-145093323D01*
X96363432Y-145033997D01*
X96351188Y-144959327D01*
X96337321Y-144893406D01*
X96367171Y-144860114D01*
X96374812Y-144856930D01*
X96436065Y-144861728D01*
X96484066Y-144914201D01*
X96512923Y-144995590D01*
X96516744Y-145087136D01*
X96489638Y-145170078D01*
X96478224Y-145186193D01*
X96355064Y-145293688D01*
X96173391Y-145384115D01*
X95930935Y-145458361D01*
X95634342Y-145515943D01*
X95505466Y-145536835D01*
X95394264Y-145556544D01*
X95326039Y-145570530D01*
X95253378Y-145564947D01*
X95170816Y-145507395D01*
X95151596Y-145488843D01*
X95084560Y-145427074D01*
X95032793Y-145406532D01*
X94965731Y-145419794D01*
X94925162Y-145433832D01*
X94824426Y-145457660D01*
X94688731Y-145474548D01*
X94567065Y-145480376D01*
X94401478Y-145471362D01*
X94257485Y-145437092D01*
X94119216Y-145370167D01*
X93970800Y-145263191D01*
X93823028Y-145133594D01*
X93714342Y-145037684D01*
X93616033Y-144959124D01*
X93543437Y-144909843D01*
X93523267Y-144900406D01*
X93484631Y-144892976D01*
X93460693Y-144909698D01*
X93445449Y-144963618D01*
X93432894Y-145067782D01*
X93429350Y-145104494D01*
X93417442Y-145227262D01*
X93407247Y-145327476D01*
X93401193Y-145381579D01*
X93366341Y-145421775D01*
X93297676Y-145442794D01*
X93200792Y-145453877D01*
X93245928Y-144453645D01*
X93086582Y-144507946D01*
X92993469Y-144539950D01*
X92931019Y-144561928D01*
X92916896Y-144567276D01*
X92924735Y-144596604D01*
X92956585Y-144664681D01*
X92975383Y-144700724D01*
X93036209Y-144875842D01*
X93032314Y-145045927D01*
X92965776Y-145203549D01*
X92838673Y-145341278D01*
X92785374Y-145380052D01*
X92589348Y-145478510D01*
X92397917Y-145513370D01*
X92216177Y-145484576D01*
X92049224Y-145392074D01*
X92044150Y-145388034D01*
X91946170Y-145281957D01*
X91876925Y-145156819D01*
X91875254Y-145152198D01*
X91849942Y-145003012D01*
X91866540Y-144838880D01*
X91918012Y-144672095D01*
X91997320Y-144514950D01*
X92097425Y-144379739D01*
X92211289Y-144278754D01*
X92331876Y-144224289D01*
X92409211Y-144219509D01*
X92477214Y-144242047D01*
X92485373Y-144283358D01*
X92435317Y-144335965D01*
X92376293Y-144370709D01*
X92259844Y-144462830D01*
X92166390Y-144600742D01*
X92104036Y-144765074D01*
X92080884Y-144936455D01*
X92092232Y-145049742D01*
X92141778Y-145142682D01*
X92231389Y-145199273D01*
X92346087Y-145221086D01*
X92470893Y-145209693D01*
X92590826Y-145166666D01*
X92690909Y-145093574D01*
X92756162Y-144991990D01*
X92760408Y-144979655D01*
X92759026Y-144880689D01*
X92704831Y-144763163D01*
X92604145Y-144639674D01*
X92576315Y-144612894D01*
X92446095Y-144492676D01*
X92519866Y-144400157D01*
X92575876Y-144339868D01*
X92626152Y-144325922D01*
X92693346Y-144345548D01*
X92783859Y-144359703D01*
X92911551Y-144356270D01*
X93050063Y-144338416D01*
X93173037Y-144309310D01*
X93243536Y-144279427D01*
X93265126Y-144233189D01*
X93280340Y-144134647D01*
X93289335Y-143998018D01*
X93292269Y-143837520D01*
X93289298Y-143667371D01*
X93280580Y-143501787D01*
X93266273Y-143354988D01*
X93246533Y-143241190D01*
X93231514Y-143193157D01*
X93198167Y-143108350D01*
X93193020Y-143061649D01*
X93216152Y-143030518D01*
X93232128Y-143018263D01*
X93286533Y-142995588D01*
X93336088Y-143018781D01*
G36*
X88023040Y-142808938D02*
G01*
X88147139Y-142885125D01*
X88214303Y-142974170D01*
X88245243Y-143068276D01*
X88263188Y-143189189D01*
X88265000Y-143236030D01*
X88241976Y-143396972D01*
X88168506Y-143540905D01*
X88037990Y-143679014D01*
X87972178Y-143732207D01*
X87888365Y-143799906D01*
X87861289Y-143840907D01*
X87893918Y-143866485D01*
X87989220Y-143887919D01*
X88014342Y-143892398D01*
X88145924Y-143928615D01*
X88299712Y-143990380D01*
X88455609Y-144067474D01*
X88593516Y-144149682D01*
X88693336Y-144226787D01*
X88712969Y-144247537D01*
X88766959Y-144326319D01*
X88793003Y-144413509D01*
X88799737Y-144537336D01*
X88767833Y-144739449D01*
X88674549Y-144923344D01*
X88523529Y-145086291D01*
X88318417Y-145225561D01*
X88062857Y-145338422D01*
X87760492Y-145422144D01*
X87575349Y-145454813D01*
X87339806Y-145473350D01*
X87109133Y-145463489D01*
X86906246Y-145426937D01*
X86821201Y-145398706D01*
X86781263Y-145394121D01*
X86769683Y-145435607D01*
X86771069Y-145470515D01*
X86764276Y-145542817D01*
X86721358Y-145572720D01*
X86705436Y-145575665D01*
X86636965Y-145560512D01*
X86612178Y-145520054D01*
X86603469Y-145434633D01*
X86611185Y-145374668D01*
X86608941Y-145300004D01*
X86561408Y-145209884D01*
X86528982Y-145166704D01*
X86453788Y-145058047D01*
X86428755Y-144985833D01*
X86454198Y-144952563D01*
X86502040Y-144953753D01*
X86533365Y-144957908D01*
X86554191Y-144949027D01*
X86566258Y-144916490D01*
X86571306Y-144849680D01*
X86571078Y-144737978D01*
X86569953Y-144687979D01*
X86746819Y-144687979D01*
X86751614Y-144873792D01*
X86763345Y-145026281D01*
X86772520Y-145086915D01*
X86801563Y-145176651D01*
X86856531Y-145225487D01*
X86904188Y-145243802D01*
X87116827Y-145294888D01*
X87323546Y-145307634D01*
X87550755Y-145282829D01*
X87638598Y-145265720D01*
X87823846Y-145212225D01*
X88017242Y-145132469D01*
X88199140Y-145036535D01*
X88349893Y-144934501D01*
X88431943Y-144858632D01*
X88528868Y-144715096D01*
X88563030Y-144579923D01*
X88534436Y-144457857D01*
X88443089Y-144353644D01*
X88431322Y-144344969D01*
X88261688Y-144253020D01*
X88048083Y-144179907D01*
X87811653Y-144129387D01*
X87573546Y-144105215D01*
X87354910Y-144111148D01*
X87234967Y-144132479D01*
X87126676Y-144154647D01*
X87047981Y-144159334D01*
X87021568Y-144151515D01*
X86997209Y-144101309D01*
X86975479Y-144016218D01*
X86973087Y-144002439D01*
X86964540Y-143927837D01*
X86980800Y-143887000D01*
X87037078Y-143860796D01*
X87099629Y-143843269D01*
X87257564Y-143790649D01*
X87430594Y-143716365D01*
X87600870Y-143629796D01*
X87750543Y-143540321D01*
X87861762Y-143457319D01*
X87892846Y-143426493D01*
X87973857Y-143307608D01*
X87993148Y-143199938D01*
X87952223Y-143093007D01*
X87942739Y-143078872D01*
X87901388Y-143032097D01*
X87849524Y-143013126D01*
X87763452Y-143015557D01*
X87724302Y-143019871D01*
X87492651Y-143079886D01*
X87283051Y-143199606D01*
X87100019Y-143374235D01*
X86948074Y-143598976D01*
X86831734Y-143869034D01*
X86790372Y-144011316D01*
X86770738Y-144130510D01*
X86756713Y-144296347D01*
X86748630Y-144488833D01*
X86746819Y-144687979D01*
X86569953Y-144687979D01*
X86567314Y-144570765D01*
X86566987Y-144557681D01*
X86565676Y-144294434D01*
X86578574Y-144079136D01*
X86608964Y-143893795D01*
X86660128Y-143720416D01*
X86735348Y-143541005D01*
X86762929Y-143483655D01*
X86844732Y-143329229D01*
X86921581Y-143216418D01*
X87010007Y-143123543D01*
X87085715Y-143060296D01*
X87284445Y-142928083D01*
X87486836Y-142836131D01*
X87683595Y-142785150D01*
X87865427Y-142775849D01*
X88023040Y-142808938D01*
G37*
X88023040Y-142808938D02*
X88147139Y-142885125D01*
X88214303Y-142974170D01*
X88245243Y-143068276D01*
X88263188Y-143189189D01*
X88265000Y-143236030D01*
X88241976Y-143396972D01*
X88168506Y-143540905D01*
X88037990Y-143679014D01*
X87972178Y-143732207D01*
X87888365Y-143799906D01*
X87861289Y-143840907D01*
X87893918Y-143866485D01*
X87989220Y-143887919D01*
X88014342Y-143892398D01*
X88145924Y-143928615D01*
X88299712Y-143990380D01*
X88455609Y-144067474D01*
X88593516Y-144149682D01*
X88693336Y-144226787D01*
X88712969Y-144247537D01*
X88766959Y-144326319D01*
X88793003Y-144413509D01*
X88799737Y-144537336D01*
X88767833Y-144739449D01*
X88674549Y-144923344D01*
X88523529Y-145086291D01*
X88318417Y-145225561D01*
X88062857Y-145338422D01*
X87760492Y-145422144D01*
X87575349Y-145454813D01*
X87339806Y-145473350D01*
X87109133Y-145463489D01*
X86906246Y-145426937D01*
X86821201Y-145398706D01*
X86781263Y-145394121D01*
X86769683Y-145435607D01*
X86771069Y-145470515D01*
X86764276Y-145542817D01*
X86721358Y-145572720D01*
X86705436Y-145575665D01*
X86636965Y-145560512D01*
X86612178Y-145520054D01*
X86603469Y-145434633D01*
X86611185Y-145374668D01*
X86608941Y-145300004D01*
X86561408Y-145209884D01*
X86528982Y-145166704D01*
X86453788Y-145058047D01*
X86428755Y-144985833D01*
X86454198Y-144952563D01*
X86502040Y-144953753D01*
X86533365Y-144957908D01*
X86554191Y-144949027D01*
X86566258Y-144916490D01*
X86571306Y-144849680D01*
X86571078Y-144737978D01*
X86569953Y-144687979D01*
X86746819Y-144687979D01*
X86751614Y-144873792D01*
X86763345Y-145026281D01*
X86772520Y-145086915D01*
X86801563Y-145176651D01*
X86856531Y-145225487D01*
X86904188Y-145243802D01*
X87116827Y-145294888D01*
X87323546Y-145307634D01*
X87550755Y-145282829D01*
X87638598Y-145265720D01*
X87823846Y-145212225D01*
X88017242Y-145132469D01*
X88199140Y-145036535D01*
X88349893Y-144934501D01*
X88431943Y-144858632D01*
X88528868Y-144715096D01*
X88563030Y-144579923D01*
X88534436Y-144457857D01*
X88443089Y-144353644D01*
X88431322Y-144344969D01*
X88261688Y-144253020D01*
X88048083Y-144179907D01*
X87811653Y-144129387D01*
X87573546Y-144105215D01*
X87354910Y-144111148D01*
X87234967Y-144132479D01*
X87126676Y-144154647D01*
X87047981Y-144159334D01*
X87021568Y-144151515D01*
X86997209Y-144101309D01*
X86975479Y-144016218D01*
X86973087Y-144002439D01*
X86964540Y-143927837D01*
X86980800Y-143887000D01*
X87037078Y-143860796D01*
X87099629Y-143843269D01*
X87257564Y-143790649D01*
X87430594Y-143716365D01*
X87600870Y-143629796D01*
X87750543Y-143540321D01*
X87861762Y-143457319D01*
X87892846Y-143426493D01*
X87973857Y-143307608D01*
X87993148Y-143199938D01*
X87952223Y-143093007D01*
X87942739Y-143078872D01*
X87901388Y-143032097D01*
X87849524Y-143013126D01*
X87763452Y-143015557D01*
X87724302Y-143019871D01*
X87492651Y-143079886D01*
X87283051Y-143199606D01*
X87100019Y-143374235D01*
X86948074Y-143598976D01*
X86831734Y-143869034D01*
X86790372Y-144011316D01*
X86770738Y-144130510D01*
X86756713Y-144296347D01*
X86748630Y-144488833D01*
X86746819Y-144687979D01*
X86569953Y-144687979D01*
X86567314Y-144570765D01*
X86566987Y-144557681D01*
X86565676Y-144294434D01*
X86578574Y-144079136D01*
X86608964Y-143893795D01*
X86660128Y-143720416D01*
X86735348Y-143541005D01*
X86762929Y-143483655D01*
X86844732Y-143329229D01*
X86921581Y-143216418D01*
X87010007Y-143123543D01*
X87085715Y-143060296D01*
X87284445Y-142928083D01*
X87486836Y-142836131D01*
X87683595Y-142785150D01*
X87865427Y-142775849D01*
X88023040Y-142808938D01*
G36*
X80837550Y-143025109D02*
G01*
X80912333Y-143060158D01*
X80945790Y-143081940D01*
X81080987Y-143213539D01*
X81176181Y-143392905D01*
X81230946Y-143613938D01*
X81244859Y-143870541D01*
X81217495Y-144156616D01*
X81148430Y-144466066D01*
X81060618Y-144732353D01*
X80981739Y-144941913D01*
X81156180Y-144937829D01*
X81337902Y-144960619D01*
X81481407Y-145034291D01*
X81583452Y-145152762D01*
X81640796Y-145309954D01*
X81650197Y-145499785D01*
X81608412Y-145716175D01*
X81594424Y-145759774D01*
X81526779Y-145903410D01*
X81427645Y-146044079D01*
X81306874Y-146174453D01*
X81174322Y-146287208D01*
X81039842Y-146375017D01*
X80913287Y-146430555D01*
X80804513Y-146446497D01*
X80723372Y-146415516D01*
X80718526Y-146410948D01*
X80687493Y-146348226D01*
X80678641Y-146285619D01*
X80700498Y-146199316D01*
X80896847Y-146199316D01*
X80907676Y-146217105D01*
X80907837Y-146217106D01*
X80952301Y-146195367D01*
X81025287Y-146139149D01*
X81089123Y-146081303D01*
X81163549Y-146008072D01*
X81192028Y-145973998D01*
X81177537Y-145972698D01*
X81129605Y-145994575D01*
X81056149Y-146039564D01*
X80984155Y-146097429D01*
X80926697Y-146155052D01*
X80896847Y-146199316D01*
X80700498Y-146199316D01*
X80710335Y-146160475D01*
X80797874Y-146036192D01*
X80930892Y-145922788D01*
X81099020Y-145830278D01*
X81183010Y-145798255D01*
X81285535Y-145756981D01*
X81343876Y-145708347D01*
X81379737Y-145633751D01*
X81381659Y-145628009D01*
X81402724Y-145514873D01*
X81400152Y-145403585D01*
X81399631Y-145400700D01*
X81353305Y-145278682D01*
X81276225Y-145208340D01*
X81177679Y-145187826D01*
X81066954Y-145215293D01*
X80953336Y-145288895D01*
X80846115Y-145406786D01*
X80774556Y-145524990D01*
X80731100Y-145609817D01*
X80701464Y-145665153D01*
X80695161Y-145675446D01*
X80659315Y-145672573D01*
X80593411Y-145642544D01*
X80520426Y-145598884D01*
X80463337Y-145555118D01*
X80444474Y-145527883D01*
X80457424Y-145483723D01*
X80493025Y-145390698D01*
X80546407Y-145260854D01*
X80612698Y-145106240D01*
X80641315Y-145041112D01*
X80780064Y-144713091D01*
X80883937Y-144432420D01*
X80954885Y-144190667D01*
X80994856Y-143979399D01*
X81005802Y-143790185D01*
X80989673Y-143614591D01*
X80981399Y-143570675D01*
X80924062Y-143401398D01*
X80833382Y-143288536D01*
X80708297Y-143231753D01*
X80547741Y-143230709D01*
X80350652Y-143285069D01*
X80235769Y-143333996D01*
X80100354Y-143404344D01*
X79962834Y-143487503D01*
X79835769Y-143574401D01*
X79731717Y-143655965D01*
X79663237Y-143723122D01*
X79642369Y-143762701D01*
X79619162Y-143819565D01*
X79565514Y-143829975D01*
X79518925Y-143801933D01*
X79490605Y-143752319D01*
X79502470Y-143692015D01*
X79559089Y-143613164D01*
X79665032Y-143507909D01*
X79717169Y-143461122D01*
X79895002Y-143325626D01*
X80099364Y-143204098D01*
X80310752Y-143105963D01*
X80509659Y-143040646D01*
X80630978Y-143019504D01*
X80753107Y-143013410D01*
X80837550Y-143025109D01*
G37*
X80837550Y-143025109D02*
X80912333Y-143060158D01*
X80945790Y-143081940D01*
X81080987Y-143213539D01*
X81176181Y-143392905D01*
X81230946Y-143613938D01*
X81244859Y-143870541D01*
X81217495Y-144156616D01*
X81148430Y-144466066D01*
X81060618Y-144732353D01*
X80981739Y-144941913D01*
X81156180Y-144937829D01*
X81337902Y-144960619D01*
X81481407Y-145034291D01*
X81583452Y-145152762D01*
X81640796Y-145309954D01*
X81650197Y-145499785D01*
X81608412Y-145716175D01*
X81594424Y-145759774D01*
X81526779Y-145903410D01*
X81427645Y-146044079D01*
X81306874Y-146174453D01*
X81174322Y-146287208D01*
X81039842Y-146375017D01*
X80913287Y-146430555D01*
X80804513Y-146446497D01*
X80723372Y-146415516D01*
X80718526Y-146410948D01*
X80687493Y-146348226D01*
X80678641Y-146285619D01*
X80700498Y-146199316D01*
X80896847Y-146199316D01*
X80907676Y-146217105D01*
X80907837Y-146217106D01*
X80952301Y-146195367D01*
X81025287Y-146139149D01*
X81089123Y-146081303D01*
X81163549Y-146008072D01*
X81192028Y-145973998D01*
X81177537Y-145972698D01*
X81129605Y-145994575D01*
X81056149Y-146039564D01*
X80984155Y-146097429D01*
X80926697Y-146155052D01*
X80896847Y-146199316D01*
X80700498Y-146199316D01*
X80710335Y-146160475D01*
X80797874Y-146036192D01*
X80930892Y-145922788D01*
X81099020Y-145830278D01*
X81183010Y-145798255D01*
X81285535Y-145756981D01*
X81343876Y-145708347D01*
X81379737Y-145633751D01*
X81381659Y-145628009D01*
X81402724Y-145514873D01*
X81400152Y-145403585D01*
X81399631Y-145400700D01*
X81353305Y-145278682D01*
X81276225Y-145208340D01*
X81177679Y-145187826D01*
X81066954Y-145215293D01*
X80953336Y-145288895D01*
X80846115Y-145406786D01*
X80774556Y-145524990D01*
X80731100Y-145609817D01*
X80701464Y-145665153D01*
X80695161Y-145675446D01*
X80659315Y-145672573D01*
X80593411Y-145642544D01*
X80520426Y-145598884D01*
X80463337Y-145555118D01*
X80444474Y-145527883D01*
X80457424Y-145483723D01*
X80493025Y-145390698D01*
X80546407Y-145260854D01*
X80612698Y-145106240D01*
X80641315Y-145041112D01*
X80780064Y-144713091D01*
X80883937Y-144432420D01*
X80954885Y-144190667D01*
X80994856Y-143979399D01*
X81005802Y-143790185D01*
X80989673Y-143614591D01*
X80981399Y-143570675D01*
X80924062Y-143401398D01*
X80833382Y-143288536D01*
X80708297Y-143231753D01*
X80547741Y-143230709D01*
X80350652Y-143285069D01*
X80235769Y-143333996D01*
X80100354Y-143404344D01*
X79962834Y-143487503D01*
X79835769Y-143574401D01*
X79731717Y-143655965D01*
X79663237Y-143723122D01*
X79642369Y-143762701D01*
X79619162Y-143819565D01*
X79565514Y-143829975D01*
X79518925Y-143801933D01*
X79490605Y-143752319D01*
X79502470Y-143692015D01*
X79559089Y-143613164D01*
X79665032Y-143507909D01*
X79717169Y-143461122D01*
X79895002Y-143325626D01*
X80099364Y-143204098D01*
X80310752Y-143105963D01*
X80509659Y-143040646D01*
X80630978Y-143019504D01*
X80753107Y-143013410D01*
X80837550Y-143025109D01*
G36*
X191303896Y-130959364D02*
G01*
X191435117Y-130978290D01*
X191541956Y-131009351D01*
X191558253Y-131016407D01*
X191623655Y-131046715D01*
X191563513Y-131036541D01*
X191354196Y-131013066D01*
X191158137Y-131014629D01*
X190984244Y-131041134D01*
X190977063Y-131042916D01*
X190774424Y-131109555D01*
X190563259Y-131209412D01*
X190342850Y-131343073D01*
X190112476Y-131511123D01*
X189871416Y-131714149D01*
X189618951Y-131952738D01*
X189354360Y-132227476D01*
X189076922Y-132538949D01*
X188938674Y-132702039D01*
X188810595Y-132856726D01*
X188688234Y-133007569D01*
X188569674Y-133157339D01*
X188452997Y-133308810D01*
X188336286Y-133464751D01*
X188217623Y-133627936D01*
X188095092Y-133801136D01*
X187966773Y-133987123D01*
X187830751Y-134188669D01*
X187685107Y-134408545D01*
X187527924Y-134649524D01*
X187357284Y-134914377D01*
X187171270Y-135205876D01*
X186967965Y-135526793D01*
X186797114Y-135797783D01*
X186407504Y-136426057D01*
X186032770Y-137048898D01*
X185678937Y-137656254D01*
X185589886Y-137812542D01*
X185509409Y-137953746D01*
X185416172Y-138116150D01*
X185317853Y-138286458D01*
X185222127Y-138451373D01*
X185138135Y-138595103D01*
X185054477Y-138738510D01*
X184962709Y-138897325D01*
X184869914Y-139059192D01*
X184783173Y-139211754D01*
X184709570Y-139342655D01*
X184707215Y-139346879D01*
X184643738Y-139460571D01*
X184583519Y-139568068D01*
X184530564Y-139662244D01*
X184488882Y-139735974D01*
X184462476Y-139782135D01*
X184461645Y-139783564D01*
X184411215Y-139870135D01*
X184333388Y-139663280D01*
X184292568Y-139560977D01*
X184241818Y-139443482D01*
X184183684Y-139315792D01*
X184120713Y-139182899D01*
X184055450Y-139049801D01*
X183990441Y-138921490D01*
X183928233Y-138802962D01*
X183871371Y-138699212D01*
X183822402Y-138615235D01*
X183783871Y-138556025D01*
X183758324Y-138526577D01*
X183752774Y-138524223D01*
X183739304Y-138540984D01*
X183710388Y-138587461D01*
X183669363Y-138657947D01*
X183619563Y-138746734D01*
X183574112Y-138829945D01*
X183500723Y-138965318D01*
X183422028Y-139109554D01*
X183340422Y-139258346D01*
X183258303Y-139407386D01*
X183178068Y-139552364D01*
X183102113Y-139688974D01*
X183032834Y-139812907D01*
X182972629Y-139919855D01*
X182923894Y-140005510D01*
X182889026Y-140065564D01*
X182870421Y-140095708D01*
X182868709Y-140097940D01*
X182867319Y-140089140D01*
X182877975Y-140049615D01*
X182898652Y-139986184D01*
X182919332Y-139927538D01*
X182969554Y-139789544D01*
X183025380Y-139637317D01*
X183085214Y-139475107D01*
X183147461Y-139307163D01*
X183210526Y-139137736D01*
X183272812Y-138971076D01*
X183332723Y-138811433D01*
X183388665Y-138663057D01*
X183439041Y-138530198D01*
X183482256Y-138417105D01*
X183516713Y-138328030D01*
X183540819Y-138267222D01*
X183552976Y-138238931D01*
X183553836Y-138237546D01*
X183570745Y-138245386D01*
X183602460Y-138280479D01*
X183642907Y-138335849D01*
X183654178Y-138352819D01*
X183695994Y-138414621D01*
X183730076Y-138460624D01*
X183750325Y-138482712D01*
X183752410Y-138483555D01*
X183765103Y-138466489D01*
X183793639Y-138419000D01*
X183835163Y-138346134D01*
X183886823Y-138252939D01*
X183945766Y-138144459D01*
X183975588Y-138088851D01*
X184045820Y-137958087D01*
X184129905Y-137802714D01*
X184222172Y-137633138D01*
X184316949Y-137459770D01*
X184408564Y-137293017D01*
X184464173Y-137192305D01*
X184544896Y-137046217D01*
X184639719Y-136874200D01*
X184743546Y-136685526D01*
X184851279Y-136489465D01*
X184957823Y-136295289D01*
X185058080Y-136112269D01*
X185093032Y-136048375D01*
X185255475Y-135753646D01*
X185415033Y-135468741D01*
X185569976Y-135196559D01*
X185718576Y-134939999D01*
X185859105Y-134701962D01*
X185989834Y-134485346D01*
X186109035Y-134293052D01*
X186214980Y-134127979D01*
X186305941Y-133993026D01*
X186374645Y-133898303D01*
X186470883Y-133782260D01*
X186556714Y-133698827D01*
X186630716Y-133648797D01*
X186691466Y-133632966D01*
X186737542Y-133652126D01*
X186758953Y-133683730D01*
X186778799Y-133737281D01*
X186782215Y-133768765D01*
X186770920Y-133772969D01*
X186746636Y-133744682D01*
X186741512Y-133736550D01*
X186702827Y-133689563D01*
X186666886Y-133676430D01*
X186666410Y-133676515D01*
X186628734Y-133700564D01*
X186576554Y-133760614D01*
X186510504Y-133855541D01*
X186431218Y-133984221D01*
X186339330Y-134145527D01*
X186235474Y-134338335D01*
X186120283Y-134561521D01*
X185994393Y-134813958D01*
X185858436Y-135094522D01*
X185809916Y-135196362D01*
X185762132Y-135298182D01*
X185703809Y-135424305D01*
X185636415Y-135571431D01*
X185561418Y-135736261D01*
X185480284Y-135915496D01*
X185394481Y-136105836D01*
X185305478Y-136303981D01*
X185214740Y-136506634D01*
X185123736Y-136710493D01*
X185033934Y-136912261D01*
X184946800Y-137108637D01*
X184863803Y-137296322D01*
X184786409Y-137472018D01*
X184716086Y-137632424D01*
X184654302Y-137774241D01*
X184602525Y-137894170D01*
X184562221Y-137988911D01*
X184534858Y-138055166D01*
X184521904Y-138089635D01*
X184521144Y-138093879D01*
X184533418Y-138079534D01*
X184564847Y-138036307D01*
X184612324Y-137968660D01*
X184672739Y-137881057D01*
X184742983Y-137777958D01*
X184797530Y-137697187D01*
X184888460Y-137562900D01*
X184996112Y-137405331D01*
X185117739Y-137228405D01*
X185250593Y-137036050D01*
X185391927Y-136832190D01*
X185538992Y-136620751D01*
X185689040Y-136405659D01*
X185839325Y-136190841D01*
X185987097Y-135980221D01*
X186129609Y-135777725D01*
X186264114Y-135587281D01*
X186387863Y-135412812D01*
X186498109Y-135258246D01*
X186592104Y-135127508D01*
X186667100Y-135024523D01*
X186688257Y-134995888D01*
X187054212Y-134509274D01*
X187403207Y-134057839D01*
X187736000Y-133640794D01*
X188053345Y-133257350D01*
X188356002Y-132906718D01*
X188644725Y-132588110D01*
X188920272Y-132300736D01*
X189183399Y-132043807D01*
X189434863Y-131816534D01*
X189675422Y-131618128D01*
X189905830Y-131447801D01*
X190126846Y-131304762D01*
X190339226Y-131188224D01*
X190340624Y-131187529D01*
X190498935Y-131111975D01*
X190633676Y-131055257D01*
X190754715Y-131014091D01*
X190871922Y-130985193D01*
X190995167Y-130965279D01*
X191016341Y-130962679D01*
X191160301Y-130953764D01*
X191303896Y-130959364D01*
G37*
X191303896Y-130959364D02*
X191435117Y-130978290D01*
X191541956Y-131009351D01*
X191558253Y-131016407D01*
X191623655Y-131046715D01*
X191563513Y-131036541D01*
X191354196Y-131013066D01*
X191158137Y-131014629D01*
X190984244Y-131041134D01*
X190977063Y-131042916D01*
X190774424Y-131109555D01*
X190563259Y-131209412D01*
X190342850Y-131343073D01*
X190112476Y-131511123D01*
X189871416Y-131714149D01*
X189618951Y-131952738D01*
X189354360Y-132227476D01*
X189076922Y-132538949D01*
X188938674Y-132702039D01*
X188810595Y-132856726D01*
X188688234Y-133007569D01*
X188569674Y-133157339D01*
X188452997Y-133308810D01*
X188336286Y-133464751D01*
X188217623Y-133627936D01*
X188095092Y-133801136D01*
X187966773Y-133987123D01*
X187830751Y-134188669D01*
X187685107Y-134408545D01*
X187527924Y-134649524D01*
X187357284Y-134914377D01*
X187171270Y-135205876D01*
X186967965Y-135526793D01*
X186797114Y-135797783D01*
X186407504Y-136426057D01*
X186032770Y-137048898D01*
X185678937Y-137656254D01*
X185589886Y-137812542D01*
X185509409Y-137953746D01*
X185416172Y-138116150D01*
X185317853Y-138286458D01*
X185222127Y-138451373D01*
X185138135Y-138595103D01*
X185054477Y-138738510D01*
X184962709Y-138897325D01*
X184869914Y-139059192D01*
X184783173Y-139211754D01*
X184709570Y-139342655D01*
X184707215Y-139346879D01*
X184643738Y-139460571D01*
X184583519Y-139568068D01*
X184530564Y-139662244D01*
X184488882Y-139735974D01*
X184462476Y-139782135D01*
X184461645Y-139783564D01*
X184411215Y-139870135D01*
X184333388Y-139663280D01*
X184292568Y-139560977D01*
X184241818Y-139443482D01*
X184183684Y-139315792D01*
X184120713Y-139182899D01*
X184055450Y-139049801D01*
X183990441Y-138921490D01*
X183928233Y-138802962D01*
X183871371Y-138699212D01*
X183822402Y-138615235D01*
X183783871Y-138556025D01*
X183758324Y-138526577D01*
X183752774Y-138524223D01*
X183739304Y-138540984D01*
X183710388Y-138587461D01*
X183669363Y-138657947D01*
X183619563Y-138746734D01*
X183574112Y-138829945D01*
X183500723Y-138965318D01*
X183422028Y-139109554D01*
X183340422Y-139258346D01*
X183258303Y-139407386D01*
X183178068Y-139552364D01*
X183102113Y-139688974D01*
X183032834Y-139812907D01*
X182972629Y-139919855D01*
X182923894Y-140005510D01*
X182889026Y-140065564D01*
X182870421Y-140095708D01*
X182868709Y-140097940D01*
X182867319Y-140089140D01*
X182877975Y-140049615D01*
X182898652Y-139986184D01*
X182919332Y-139927538D01*
X182969554Y-139789544D01*
X183025380Y-139637317D01*
X183085214Y-139475107D01*
X183147461Y-139307163D01*
X183210526Y-139137736D01*
X183272812Y-138971076D01*
X183332723Y-138811433D01*
X183388665Y-138663057D01*
X183439041Y-138530198D01*
X183482256Y-138417105D01*
X183516713Y-138328030D01*
X183540819Y-138267222D01*
X183552976Y-138238931D01*
X183553836Y-138237546D01*
X183570745Y-138245386D01*
X183602460Y-138280479D01*
X183642907Y-138335849D01*
X183654178Y-138352819D01*
X183695994Y-138414621D01*
X183730076Y-138460624D01*
X183750325Y-138482712D01*
X183752410Y-138483555D01*
X183765103Y-138466489D01*
X183793639Y-138419000D01*
X183835163Y-138346134D01*
X183886823Y-138252939D01*
X183945766Y-138144459D01*
X183975588Y-138088851D01*
X184045820Y-137958087D01*
X184129905Y-137802714D01*
X184222172Y-137633138D01*
X184316949Y-137459770D01*
X184408564Y-137293017D01*
X184464173Y-137192305D01*
X184544896Y-137046217D01*
X184639719Y-136874200D01*
X184743546Y-136685526D01*
X184851279Y-136489465D01*
X184957823Y-136295289D01*
X185058080Y-136112269D01*
X185093032Y-136048375D01*
X185255475Y-135753646D01*
X185415033Y-135468741D01*
X185569976Y-135196559D01*
X185718576Y-134939999D01*
X185859105Y-134701962D01*
X185989834Y-134485346D01*
X186109035Y-134293052D01*
X186214980Y-134127979D01*
X186305941Y-133993026D01*
X186374645Y-133898303D01*
X186470883Y-133782260D01*
X186556714Y-133698827D01*
X186630716Y-133648797D01*
X186691466Y-133632966D01*
X186737542Y-133652126D01*
X186758953Y-133683730D01*
X186778799Y-133737281D01*
X186782215Y-133768765D01*
X186770920Y-133772969D01*
X186746636Y-133744682D01*
X186741512Y-133736550D01*
X186702827Y-133689563D01*
X186666886Y-133676430D01*
X186666410Y-133676515D01*
X186628734Y-133700564D01*
X186576554Y-133760614D01*
X186510504Y-133855541D01*
X186431218Y-133984221D01*
X186339330Y-134145527D01*
X186235474Y-134338335D01*
X186120283Y-134561521D01*
X185994393Y-134813958D01*
X185858436Y-135094522D01*
X185809916Y-135196362D01*
X185762132Y-135298182D01*
X185703809Y-135424305D01*
X185636415Y-135571431D01*
X185561418Y-135736261D01*
X185480284Y-135915496D01*
X185394481Y-136105836D01*
X185305478Y-136303981D01*
X185214740Y-136506634D01*
X185123736Y-136710493D01*
X185033934Y-136912261D01*
X184946800Y-137108637D01*
X184863803Y-137296322D01*
X184786409Y-137472018D01*
X184716086Y-137632424D01*
X184654302Y-137774241D01*
X184602525Y-137894170D01*
X184562221Y-137988911D01*
X184534858Y-138055166D01*
X184521904Y-138089635D01*
X184521144Y-138093879D01*
X184533418Y-138079534D01*
X184564847Y-138036307D01*
X184612324Y-137968660D01*
X184672739Y-137881057D01*
X184742983Y-137777958D01*
X184797530Y-137697187D01*
X184888460Y-137562900D01*
X184996112Y-137405331D01*
X185117739Y-137228405D01*
X185250593Y-137036050D01*
X185391927Y-136832190D01*
X185538992Y-136620751D01*
X185689040Y-136405659D01*
X185839325Y-136190841D01*
X185987097Y-135980221D01*
X186129609Y-135777725D01*
X186264114Y-135587281D01*
X186387863Y-135412812D01*
X186498109Y-135258246D01*
X186592104Y-135127508D01*
X186667100Y-135024523D01*
X186688257Y-134995888D01*
X187054212Y-134509274D01*
X187403207Y-134057839D01*
X187736000Y-133640794D01*
X188053345Y-133257350D01*
X188356002Y-132906718D01*
X188644725Y-132588110D01*
X188920272Y-132300736D01*
X189183399Y-132043807D01*
X189434863Y-131816534D01*
X189675422Y-131618128D01*
X189905830Y-131447801D01*
X190126846Y-131304762D01*
X190339226Y-131188224D01*
X190340624Y-131187529D01*
X190498935Y-131111975D01*
X190633676Y-131055257D01*
X190754715Y-131014091D01*
X190871922Y-130985193D01*
X190995167Y-130965279D01*
X191016341Y-130962679D01*
X191160301Y-130953764D01*
X191303896Y-130959364D01*
G36*
X182852937Y-140138035D02*
G01*
X182842913Y-140148059D01*
X182832889Y-140138035D01*
X182842913Y-140128012D01*
X182852937Y-140138035D01*
G37*
X182852937Y-140138035D02*
X182842913Y-140148059D01*
X182832889Y-140138035D01*
X182842913Y-140128012D01*
X182852937Y-140138035D01*
G36*
X184733770Y-135428811D02*
G01*
X184723272Y-135452974D01*
X184689131Y-135504375D01*
X184669543Y-135532109D01*
X184632901Y-135586196D01*
X184597000Y-135645563D01*
X184559587Y-135714959D01*
X184518408Y-135799130D01*
X184471212Y-135902823D01*
X184415745Y-136030788D01*
X184349755Y-136187770D01*
X184291006Y-136329824D01*
X184241041Y-136452483D01*
X184179417Y-136605788D01*
X184108806Y-136782941D01*
X184031880Y-136977142D01*
X183951310Y-137181592D01*
X183869768Y-137389491D01*
X183789926Y-137594041D01*
X183714455Y-137788441D01*
X183646027Y-137965893D01*
X183587313Y-138119596D01*
X183575631Y-138150434D01*
X183553990Y-138207663D01*
X183441544Y-138053688D01*
X183391827Y-137989314D01*
X183349845Y-137941788D01*
X183321408Y-137917335D01*
X183313319Y-137916269D01*
X183302100Y-137936736D01*
X183274984Y-137990287D01*
X183233460Y-138073877D01*
X183179017Y-138184461D01*
X183113146Y-138318994D01*
X183037335Y-138474431D01*
X182953075Y-138647729D01*
X182861855Y-138835841D01*
X182765164Y-139035723D01*
X182726578Y-139115620D01*
X182504428Y-139575554D01*
X182298286Y-140001769D01*
X182106935Y-140396756D01*
X181929157Y-140763002D01*
X181763736Y-141102995D01*
X181609455Y-141419225D01*
X181465096Y-141714179D01*
X181329443Y-141990347D01*
X181201278Y-142250216D01*
X181079385Y-142496275D01*
X180962545Y-142731013D01*
X180849543Y-142956917D01*
X180785219Y-143084997D01*
X180698040Y-143259365D01*
X180623596Y-143409261D01*
X180559241Y-143538126D01*
X180502326Y-143649404D01*
X180450204Y-143746534D01*
X180400228Y-143832960D01*
X180349750Y-143912124D01*
X180296122Y-143987466D01*
X180236696Y-144062429D01*
X180168826Y-144140454D01*
X180089863Y-144224984D01*
X179997160Y-144319461D01*
X179888070Y-144427325D01*
X179759944Y-144552020D01*
X179610136Y-144696987D01*
X179435997Y-144865667D01*
X179354673Y-144944697D01*
X179207988Y-145088227D01*
X179064479Y-145230150D01*
X178927892Y-145366661D01*
X178801971Y-145493953D01*
X178690461Y-145608220D01*
X178597105Y-145705656D01*
X178525649Y-145782453D01*
X178484055Y-145829703D01*
X178370934Y-145962710D01*
X178233761Y-146119984D01*
X178076550Y-146297156D01*
X177903311Y-146489856D01*
X177718057Y-146693716D01*
X177524800Y-146904364D01*
X177327551Y-147117433D01*
X177130322Y-147328552D01*
X176937125Y-147533353D01*
X176751973Y-147727465D01*
X176578876Y-147906519D01*
X176550552Y-147935540D01*
X176454757Y-148033821D01*
X176369222Y-148122109D01*
X176297647Y-148196543D01*
X176243726Y-148253264D01*
X176211157Y-148288413D01*
X176202980Y-148298433D01*
X176227621Y-148307212D01*
X176283450Y-148323274D01*
X176362650Y-148344626D01*
X176457401Y-148369276D01*
X176559886Y-148395229D01*
X176662287Y-148420494D01*
X176756785Y-148443077D01*
X176835561Y-148460986D01*
X176865996Y-148467439D01*
X176994747Y-148491716D01*
X177088316Y-148504502D01*
X177149862Y-148506031D01*
X177182546Y-148496538D01*
X177187386Y-148491274D01*
X177206539Y-148472377D01*
X177249878Y-148434821D01*
X177310128Y-148384805D01*
X177353960Y-148349314D01*
X177510316Y-148223885D01*
X177193896Y-148522325D01*
X177261893Y-148534494D01*
X177382416Y-148551926D01*
X177526871Y-148566047D01*
X177689785Y-148576897D01*
X177865684Y-148584515D01*
X178049096Y-148588942D01*
X178234545Y-148590218D01*
X178416560Y-148588383D01*
X178589667Y-148583477D01*
X178748392Y-148575540D01*
X178887262Y-148564611D01*
X179000803Y-148550733D01*
X179083542Y-148533943D01*
X179119392Y-148520897D01*
X179142315Y-148497244D01*
X179182888Y-148442275D01*
X179238948Y-148359531D01*
X179308333Y-148252553D01*
X179388882Y-148124885D01*
X179478433Y-147980066D01*
X179574822Y-147821640D01*
X179675890Y-147653147D01*
X179779473Y-147478130D01*
X179883411Y-147300130D01*
X179985540Y-147122689D01*
X180083699Y-146949349D01*
X180136954Y-146853899D01*
X180221462Y-146704109D01*
X180312224Y-146547722D01*
X180403949Y-146393549D01*
X180491345Y-146250399D01*
X180569122Y-146127083D01*
X180618572Y-146052005D01*
X180692557Y-145939036D01*
X180778479Y-145801784D01*
X180869574Y-145651431D01*
X180959078Y-145499162D01*
X181040227Y-145356158D01*
X181048346Y-145341485D01*
X181147975Y-145165471D01*
X181245947Y-145002793D01*
X181349307Y-144842514D01*
X181465105Y-144673700D01*
X181597422Y-144489473D01*
X181880767Y-144093587D01*
X182148519Y-143702454D01*
X182406903Y-143306427D01*
X182662144Y-142895860D01*
X182920466Y-142461105D01*
X183040503Y-142253031D01*
X183112532Y-142129258D01*
X183178078Y-142022420D01*
X183243047Y-141924144D01*
X183313349Y-141826058D01*
X183394891Y-141719791D01*
X183493581Y-141596972D01*
X183563957Y-141511279D01*
X183661085Y-141393462D01*
X183757697Y-141275944D01*
X183848315Y-141165412D01*
X183927460Y-141068553D01*
X183989655Y-140992057D01*
X184015544Y-140959977D01*
X184077849Y-140883224D01*
X184156735Y-140787251D01*
X184242829Y-140683400D01*
X184326760Y-140583013D01*
X184340636Y-140566517D01*
X184408974Y-140483771D01*
X184466960Y-140410515D01*
X184510066Y-140352716D01*
X184533761Y-140316336D01*
X184536914Y-140308063D01*
X184531566Y-140277958D01*
X184517804Y-140223247D01*
X184499052Y-140155712D01*
X184478735Y-140087138D01*
X184460277Y-140029308D01*
X184447102Y-139994006D01*
X184444176Y-139988930D01*
X184426672Y-139997048D01*
X184389056Y-140026839D01*
X184342407Y-140069120D01*
X184296142Y-140110811D01*
X184274484Y-140124625D01*
X184278683Y-140109787D01*
X184279788Y-140107964D01*
X184307816Y-140059229D01*
X184342297Y-139995222D01*
X184355901Y-139968915D01*
X184383259Y-139917491D01*
X184400037Y-139897523D01*
X184413248Y-139904436D01*
X184424757Y-139923994D01*
X184435547Y-139940396D01*
X184449173Y-139946017D01*
X184470790Y-139937635D01*
X184505551Y-139912025D01*
X184558609Y-139865968D01*
X184635117Y-139796240D01*
X184647980Y-139784417D01*
X184874882Y-139577548D01*
X185077024Y-139397130D01*
X185257391Y-139240674D01*
X185418970Y-139105687D01*
X185564748Y-138989680D01*
X185697710Y-138890162D01*
X185820844Y-138804641D01*
X185829969Y-138798588D01*
X185993173Y-138697532D01*
X186132826Y-138625596D01*
X186248235Y-138583026D01*
X186338704Y-138570069D01*
X186403538Y-138586970D01*
X186411342Y-138592350D01*
X186432743Y-138611095D01*
X186428759Y-138620250D01*
X186393583Y-138623382D01*
X186360137Y-138623822D01*
X186270762Y-138637078D01*
X186182084Y-138679497D01*
X186178136Y-138681981D01*
X186107919Y-138731593D01*
X186016976Y-138803331D01*
X185912696Y-138890736D01*
X185802467Y-138987348D01*
X185693678Y-139086707D01*
X185593719Y-139182355D01*
X185519235Y-139257999D01*
X185457375Y-139323938D01*
X185379012Y-139408476D01*
X185288258Y-139507082D01*
X185189228Y-139615224D01*
X185086035Y-139728369D01*
X184982792Y-139841985D01*
X184883612Y-139951542D01*
X184792610Y-140052507D01*
X184713898Y-140140347D01*
X184651591Y-140210532D01*
X184609801Y-140258530D01*
X184596092Y-140275039D01*
X184551907Y-140331212D01*
X184606129Y-140575429D01*
X184650670Y-140787550D01*
X184685303Y-140981681D01*
X184711339Y-141169155D01*
X184730088Y-141361305D01*
X184742860Y-141569466D01*
X184750967Y-141804971D01*
X184751652Y-141833984D01*
X184754164Y-142159895D01*
X184745428Y-142457401D01*
X184724404Y-142736867D01*
X184690053Y-143008661D01*
X184641336Y-143283150D01*
X184577875Y-143567974D01*
X184439104Y-144056644D01*
X184263670Y-144530823D01*
X184052984Y-144988586D01*
X183808459Y-145428005D01*
X183531507Y-145847154D01*
X183223539Y-146244108D01*
X182885967Y-146616941D01*
X182520203Y-146963726D01*
X182127659Y-147282537D01*
X181709747Y-147571448D01*
X181587845Y-147647046D01*
X181171805Y-147878005D01*
X180736599Y-148080039D01*
X180288896Y-148250636D01*
X179835364Y-148387282D01*
X179382672Y-148487467D01*
X179334626Y-148495912D01*
X179229241Y-148517362D01*
X179161244Y-148539486D01*
X179128447Y-148562416D01*
X179110261Y-148588349D01*
X179072797Y-148642366D01*
X179019481Y-148719504D01*
X178953742Y-148814800D01*
X178879005Y-148923293D01*
X178820037Y-149008990D01*
X178600034Y-149321328D01*
X178393073Y-149599115D01*
X178196898Y-149844862D01*
X178009250Y-150061079D01*
X177827873Y-150250275D01*
X177650510Y-150414962D01*
X177474902Y-150557649D01*
X177342372Y-150652152D01*
X177225567Y-150723470D01*
X177091100Y-150794152D01*
X176951727Y-150858296D01*
X176820202Y-150909996D01*
X176717422Y-150941416D01*
X176553019Y-150970605D01*
X176375119Y-150983585D01*
X176201198Y-150979757D01*
X176073057Y-150963514D01*
X175835488Y-150898122D01*
X175607800Y-150793947D01*
X175390301Y-150651139D01*
X175315012Y-150590686D01*
X175256899Y-150545432D01*
X175209595Y-150521942D01*
X175155813Y-150513373D01*
X175117589Y-150512542D01*
X174848930Y-150496796D01*
X174576328Y-150451325D01*
X174511496Y-150433729D01*
X175993048Y-150433729D01*
X176020802Y-150451137D01*
X176046859Y-150459275D01*
X176084883Y-150463649D01*
X176150650Y-150465793D01*
X176231857Y-150465388D01*
X176257356Y-150464723D01*
X176374299Y-150456279D01*
X176470794Y-150436855D01*
X176553632Y-150407881D01*
X176689144Y-150346008D01*
X176810417Y-150275152D01*
X176928264Y-150187888D01*
X177053496Y-150076788D01*
X177097893Y-150034013D01*
X177163412Y-149968744D01*
X177212110Y-149917955D01*
X177240380Y-149885608D01*
X177244614Y-149875667D01*
X177239677Y-149878261D01*
X177032469Y-150006954D01*
X176853431Y-150109580D01*
X176701035Y-150187013D01*
X176693741Y-150190399D01*
X176586157Y-150236511D01*
X176462942Y-150283635D01*
X176335241Y-150328021D01*
X176214201Y-150365923D01*
X176110966Y-150393591D01*
X176056633Y-150404647D01*
X176005065Y-150417821D01*
X175993048Y-150433729D01*
X174511496Y-150433729D01*
X174309016Y-150378775D01*
X174056231Y-150281794D01*
X173827210Y-150163030D01*
X173767524Y-150125527D01*
X173698491Y-150085361D01*
X173630635Y-150054141D01*
X173591058Y-150041648D01*
X173538859Y-150026140D01*
X173465493Y-149998128D01*
X173385551Y-149963247D01*
X173373891Y-149957769D01*
X173213521Y-149859773D01*
X173213261Y-149859529D01*
X175165527Y-149859529D01*
X175172177Y-149875423D01*
X175190916Y-149896913D01*
X175195338Y-149901621D01*
X175220418Y-149926352D01*
X175245343Y-149941643D01*
X175277865Y-149947725D01*
X175325736Y-149944835D01*
X175396710Y-149933204D01*
X175498538Y-149913069D01*
X175508386Y-149911070D01*
X175590309Y-149892803D01*
X175684165Y-149869304D01*
X175782696Y-149842720D01*
X175878647Y-149815195D01*
X175964762Y-149788877D01*
X176033786Y-149765911D01*
X176078463Y-149748443D01*
X176091537Y-149738619D01*
X176091521Y-149738604D01*
X176069838Y-149738521D01*
X176018302Y-149744607D01*
X175946468Y-149755648D01*
X175915871Y-149760886D01*
X175828412Y-149774192D01*
X175715664Y-149788382D01*
X175592348Y-149801733D01*
X175476203Y-149812285D01*
X175352727Y-149822362D01*
X175264566Y-149830648D01*
X175207076Y-149838619D01*
X175175612Y-149847754D01*
X175165527Y-149859529D01*
X173213261Y-149859529D01*
X173074468Y-149729286D01*
X172958073Y-149568581D01*
X172865680Y-149379931D01*
X172798629Y-149165610D01*
X172758263Y-148927891D01*
X172756632Y-148912057D01*
X172742526Y-148825851D01*
X172717752Y-148723630D01*
X172687426Y-148626236D01*
X172684470Y-148618067D01*
X172606000Y-148376547D01*
X172595904Y-148337404D01*
X172986562Y-148337404D01*
X172995307Y-148480796D01*
X173004168Y-148568117D01*
X173022212Y-148639708D01*
X173055208Y-148714613D01*
X173080338Y-148761459D01*
X173250926Y-149037385D01*
X173436140Y-149277078D01*
X173637254Y-149482115D01*
X173721366Y-149553911D01*
X173841650Y-149651355D01*
X173971958Y-149638929D01*
X174039835Y-149631428D01*
X174089916Y-149623965D01*
X174110619Y-149618457D01*
X174114914Y-149613060D01*
X174111087Y-149605942D01*
X174092837Y-149592642D01*
X174053861Y-149568696D01*
X173987857Y-149529643D01*
X173971958Y-149520275D01*
X173752854Y-149372640D01*
X173556115Y-149200005D01*
X173378540Y-148998798D01*
X173216925Y-148765448D01*
X173086208Y-148532328D01*
X172986562Y-148337404D01*
X172595904Y-148337404D01*
X172534684Y-148100068D01*
X172471486Y-147793288D01*
X172417370Y-147460862D01*
X172375142Y-147124539D01*
X172365931Y-147019573D01*
X172358203Y-146891861D01*
X172352000Y-146747484D01*
X172347364Y-146592526D01*
X172344339Y-146433066D01*
X172342967Y-146275188D01*
X172343290Y-146124973D01*
X172345352Y-145988503D01*
X172349194Y-145871861D01*
X172354859Y-145781127D01*
X172362390Y-145722385D01*
X172365245Y-145711200D01*
X172376295Y-145680873D01*
X172382434Y-145679337D01*
X172385389Y-145710642D01*
X172386608Y-145761319D01*
X172393116Y-145920594D01*
X172407144Y-146109738D01*
X172427506Y-146319477D01*
X172453017Y-146540543D01*
X172482490Y-146763662D01*
X172514741Y-146979566D01*
X172548584Y-147178981D01*
X172582834Y-147352639D01*
X172599416Y-147425564D01*
X172630047Y-147547659D01*
X172662512Y-147668077D01*
X172694957Y-147780857D01*
X172725530Y-147880041D01*
X172752374Y-147959668D01*
X172773636Y-148013781D01*
X172787461Y-148036418D01*
X172789500Y-148036485D01*
X172807915Y-148004033D01*
X172817120Y-147940283D01*
X172817129Y-147852958D01*
X172807958Y-147749780D01*
X172789621Y-147638470D01*
X172788730Y-147634117D01*
X172759690Y-147484699D01*
X172736093Y-147341685D01*
X172717380Y-147198269D01*
X172702993Y-147047645D01*
X172692373Y-146883006D01*
X172684962Y-146697546D01*
X172680202Y-146484458D01*
X172677871Y-146282550D01*
X172674747Y-145892131D01*
X172790145Y-145892131D01*
X172792070Y-145970029D01*
X172796047Y-146067022D01*
X172801727Y-146176151D01*
X172808760Y-146290457D01*
X172816798Y-146402978D01*
X172825493Y-146506757D01*
X172831014Y-146563213D01*
X172842150Y-146657311D01*
X172856947Y-146765212D01*
X172874088Y-146879044D01*
X172892256Y-146990937D01*
X172910136Y-147093018D01*
X172926411Y-147177418D01*
X172939765Y-147236264D01*
X172947483Y-147259695D01*
X172958307Y-147251553D01*
X172978162Y-147211399D01*
X173004334Y-147145557D01*
X173034110Y-147060351D01*
X173037773Y-147049198D01*
X173082874Y-146914700D01*
X173123207Y-146801757D01*
X173157245Y-146714209D01*
X173183463Y-146655897D01*
X173200335Y-146630661D01*
X173204061Y-146630622D01*
X173203387Y-146652329D01*
X173195402Y-146705427D01*
X173181428Y-146782154D01*
X173162790Y-146874747D01*
X173160911Y-146883678D01*
X173135314Y-147010071D01*
X173108052Y-147153090D01*
X173083088Y-147291576D01*
X173070246Y-147367468D01*
X173031218Y-147606690D01*
X173092137Y-147781597D01*
X173143112Y-147915721D01*
X173206146Y-148062799D01*
X173275929Y-148211783D01*
X173347154Y-148351626D01*
X173414511Y-148471284D01*
X173452115Y-148530655D01*
X173547713Y-148657266D01*
X173663724Y-148787695D01*
X173787993Y-148909321D01*
X173908364Y-149009523D01*
X173925042Y-149021717D01*
X173985717Y-149061615D01*
X174060434Y-149105573D01*
X174141188Y-149149542D01*
X174219972Y-149189474D01*
X174288780Y-149221320D01*
X174339605Y-149241032D01*
X174364442Y-149244559D01*
X174364929Y-149244170D01*
X174361238Y-149223328D01*
X174343903Y-149175744D01*
X174316450Y-149110908D01*
X174310351Y-149097355D01*
X174251164Y-148961149D01*
X174184583Y-148798110D01*
X174114968Y-148619739D01*
X174046677Y-148437537D01*
X173984068Y-148263005D01*
X173931500Y-148107645D01*
X173912179Y-148046717D01*
X173878770Y-147935045D01*
X173842724Y-147808832D01*
X173805663Y-147674378D01*
X173769208Y-147537986D01*
X173734983Y-147405956D01*
X173704609Y-147284589D01*
X173679709Y-147180186D01*
X173661904Y-147099049D01*
X173652817Y-147047479D01*
X173651992Y-147036052D01*
X173659301Y-147043733D01*
X173679690Y-147084710D01*
X173711436Y-147155018D01*
X173752814Y-147250692D01*
X173802102Y-147367766D01*
X173857575Y-147502274D01*
X173899566Y-147605675D01*
X173987604Y-147822039D01*
X174065009Y-148007799D01*
X174135050Y-148169959D01*
X174200999Y-148315521D01*
X174266124Y-148451490D01*
X174333695Y-148584868D01*
X174406983Y-148722660D01*
X174489256Y-148871868D01*
X174498145Y-148887761D01*
X174578104Y-149029527D01*
X174641883Y-149139685D01*
X174692131Y-149222020D01*
X174731500Y-149280322D01*
X174762642Y-149318377D01*
X174788206Y-149339974D01*
X174810844Y-149348900D01*
X174821527Y-149349795D01*
X174857861Y-149339117D01*
X174917729Y-149310295D01*
X174991801Y-149268151D01*
X175047477Y-149233062D01*
X175129195Y-149176836D01*
X175230398Y-149103341D01*
X175339782Y-149020988D01*
X175446041Y-148938188D01*
X175475677Y-148914472D01*
X175494894Y-148898730D01*
X176658304Y-148898730D01*
X176668327Y-148908753D01*
X176678351Y-148898730D01*
X176668327Y-148888706D01*
X176658304Y-148898730D01*
X175494894Y-148898730D01*
X175515585Y-148881781D01*
X176698398Y-148881781D01*
X176713723Y-148877984D01*
X176759530Y-148848612D01*
X176835571Y-148793841D01*
X176941594Y-148713849D01*
X176995362Y-148672497D01*
X177062875Y-148618869D01*
X177115401Y-148574310D01*
X177146772Y-148544239D01*
X177152634Y-148534365D01*
X177134977Y-148542860D01*
X177092990Y-148571193D01*
X177033589Y-148614078D01*
X176963688Y-148666224D01*
X176890202Y-148722344D01*
X176820045Y-148777149D01*
X176760132Y-148825350D01*
X176717379Y-148861659D01*
X176698699Y-148880787D01*
X176698398Y-148881781D01*
X175515585Y-148881781D01*
X175561964Y-148843790D01*
X175656702Y-148764280D01*
X175755300Y-148680008D01*
X175853167Y-148595038D01*
X175945714Y-148513435D01*
X176028350Y-148439265D01*
X176096485Y-148376591D01*
X176145528Y-148329480D01*
X176170889Y-148301996D01*
X176173182Y-148296799D01*
X176153128Y-148288011D01*
X176102871Y-148268371D01*
X176029883Y-148240742D01*
X175941636Y-148207988D01*
X175937126Y-148206330D01*
X175470200Y-148014180D01*
X175019464Y-147787678D01*
X174587627Y-147528823D01*
X174177395Y-147239616D01*
X173791476Y-146922059D01*
X173432578Y-146578152D01*
X173103407Y-146209895D01*
X172920359Y-145976828D01*
X172869736Y-145910388D01*
X172827985Y-145858130D01*
X172800798Y-145827043D01*
X172793843Y-145821461D01*
X172790619Y-145840288D01*
X172790145Y-145892131D01*
X172674747Y-145892131D01*
X172672656Y-145631011D01*
X172538617Y-145410490D01*
X172293957Y-144969715D01*
X172085070Y-144511201D01*
X171911882Y-144034725D01*
X171774317Y-143540065D01*
X171672301Y-143026996D01*
X171623936Y-142674026D01*
X171614590Y-142562382D01*
X171607659Y-142419877D01*
X171603145Y-142255673D01*
X171601047Y-142078932D01*
X171601364Y-141898815D01*
X171604098Y-141724483D01*
X171609248Y-141565098D01*
X171616814Y-141429821D01*
X171623936Y-141350900D01*
X171702602Y-140824419D01*
X171817343Y-140315422D01*
X171968197Y-139823817D01*
X172155200Y-139349514D01*
X172378390Y-138892421D01*
X172637805Y-138452448D01*
X172933482Y-138029503D01*
X173047759Y-137882708D01*
X173149818Y-137761120D01*
X173274137Y-137622438D01*
X173412284Y-137475369D01*
X173555829Y-137328621D01*
X173696341Y-137190901D01*
X173825388Y-137070916D01*
X173881745Y-137021355D01*
X174284938Y-136701304D01*
X174708869Y-136415264D01*
X175152016Y-136163899D01*
X175612860Y-135947872D01*
X176089878Y-135767844D01*
X176581550Y-135624478D01*
X177086356Y-135518438D01*
X177450174Y-135466372D01*
X177599365Y-135452873D01*
X177777200Y-135442902D01*
X177973272Y-135436540D01*
X178177175Y-135433868D01*
X178378503Y-135434965D01*
X178566849Y-135439912D01*
X178731807Y-135448790D01*
X178813394Y-135455846D01*
X179332562Y-135528541D01*
X179835592Y-135637891D01*
X180322912Y-135784072D01*
X180794949Y-135967261D01*
X181252129Y-136187634D01*
X181694881Y-136445368D01*
X182123632Y-136740639D01*
X182351753Y-136917585D01*
X182439259Y-136991693D01*
X182543633Y-137085609D01*
X182658793Y-137193332D01*
X182778654Y-137308860D01*
X182897133Y-137426192D01*
X183008148Y-137539326D01*
X183105614Y-137642261D01*
X183183448Y-137728996D01*
X183223813Y-137777909D01*
X183266226Y-137830745D01*
X183298840Y-137868157D01*
X183314026Y-137881681D01*
X183325114Y-137864592D01*
X183351941Y-137815833D01*
X183392322Y-137739596D01*
X183444069Y-137640075D01*
X183504997Y-137521465D01*
X183572919Y-137387958D01*
X183619318Y-137296100D01*
X183763183Y-137013442D01*
X183901542Y-136747393D01*
X184033196Y-136500027D01*
X184156946Y-136273419D01*
X184271594Y-136069643D01*
X184375941Y-135890774D01*
X184468787Y-135738887D01*
X184548935Y-135616055D01*
X184615186Y-135524354D01*
X184666340Y-135465859D01*
X184686472Y-135449320D01*
X184721284Y-135428666D01*
X184733770Y-135428811D01*
G37*
X184733770Y-135428811D02*
X184723272Y-135452974D01*
X184689131Y-135504375D01*
X184669543Y-135532109D01*
X184632901Y-135586196D01*
X184597000Y-135645563D01*
X184559587Y-135714959D01*
X184518408Y-135799130D01*
X184471212Y-135902823D01*
X184415745Y-136030788D01*
X184349755Y-136187770D01*
X184291006Y-136329824D01*
X184241041Y-136452483D01*
X184179417Y-136605788D01*
X184108806Y-136782941D01*
X184031880Y-136977142D01*
X183951310Y-137181592D01*
X183869768Y-137389491D01*
X183789926Y-137594041D01*
X183714455Y-137788441D01*
X183646027Y-137965893D01*
X183587313Y-138119596D01*
X183575631Y-138150434D01*
X183553990Y-138207663D01*
X183441544Y-138053688D01*
X183391827Y-137989314D01*
X183349845Y-137941788D01*
X183321408Y-137917335D01*
X183313319Y-137916269D01*
X183302100Y-137936736D01*
X183274984Y-137990287D01*
X183233460Y-138073877D01*
X183179017Y-138184461D01*
X183113146Y-138318994D01*
X183037335Y-138474431D01*
X182953075Y-138647729D01*
X182861855Y-138835841D01*
X182765164Y-139035723D01*
X182726578Y-139115620D01*
X182504428Y-139575554D01*
X182298286Y-140001769D01*
X182106935Y-140396756D01*
X181929157Y-140763002D01*
X181763736Y-141102995D01*
X181609455Y-141419225D01*
X181465096Y-141714179D01*
X181329443Y-141990347D01*
X181201278Y-142250216D01*
X181079385Y-142496275D01*
X180962545Y-142731013D01*
X180849543Y-142956917D01*
X180785219Y-143084997D01*
X180698040Y-143259365D01*
X180623596Y-143409261D01*
X180559241Y-143538126D01*
X180502326Y-143649404D01*
X180450204Y-143746534D01*
X180400228Y-143832960D01*
X180349750Y-143912124D01*
X180296122Y-143987466D01*
X180236696Y-144062429D01*
X180168826Y-144140454D01*
X180089863Y-144224984D01*
X179997160Y-144319461D01*
X179888070Y-144427325D01*
X179759944Y-144552020D01*
X179610136Y-144696987D01*
X179435997Y-144865667D01*
X179354673Y-144944697D01*
X179207988Y-145088227D01*
X179064479Y-145230150D01*
X178927892Y-145366661D01*
X178801971Y-145493953D01*
X178690461Y-145608220D01*
X178597105Y-145705656D01*
X178525649Y-145782453D01*
X178484055Y-145829703D01*
X178370934Y-145962710D01*
X178233761Y-146119984D01*
X178076550Y-146297156D01*
X177903311Y-146489856D01*
X177718057Y-146693716D01*
X177524800Y-146904364D01*
X177327551Y-147117433D01*
X177130322Y-147328552D01*
X176937125Y-147533353D01*
X176751973Y-147727465D01*
X176578876Y-147906519D01*
X176550552Y-147935540D01*
X176454757Y-148033821D01*
X176369222Y-148122109D01*
X176297647Y-148196543D01*
X176243726Y-148253264D01*
X176211157Y-148288413D01*
X176202980Y-148298433D01*
X176227621Y-148307212D01*
X176283450Y-148323274D01*
X176362650Y-148344626D01*
X176457401Y-148369276D01*
X176559886Y-148395229D01*
X176662287Y-148420494D01*
X176756785Y-148443077D01*
X176835561Y-148460986D01*
X176865996Y-148467439D01*
X176994747Y-148491716D01*
X177088316Y-148504502D01*
X177149862Y-148506031D01*
X177182546Y-148496538D01*
X177187386Y-148491274D01*
X177206539Y-148472377D01*
X177249878Y-148434821D01*
X177310128Y-148384805D01*
X177353960Y-148349314D01*
X177510316Y-148223885D01*
X177193896Y-148522325D01*
X177261893Y-148534494D01*
X177382416Y-148551926D01*
X177526871Y-148566047D01*
X177689785Y-148576897D01*
X177865684Y-148584515D01*
X178049096Y-148588942D01*
X178234545Y-148590218D01*
X178416560Y-148588383D01*
X178589667Y-148583477D01*
X178748392Y-148575540D01*
X178887262Y-148564611D01*
X179000803Y-148550733D01*
X179083542Y-148533943D01*
X179119392Y-148520897D01*
X179142315Y-148497244D01*
X179182888Y-148442275D01*
X179238948Y-148359531D01*
X179308333Y-148252553D01*
X179388882Y-148124885D01*
X179478433Y-147980066D01*
X179574822Y-147821640D01*
X179675890Y-147653147D01*
X179779473Y-147478130D01*
X179883411Y-147300130D01*
X179985540Y-147122689D01*
X180083699Y-146949349D01*
X180136954Y-146853899D01*
X180221462Y-146704109D01*
X180312224Y-146547722D01*
X180403949Y-146393549D01*
X180491345Y-146250399D01*
X180569122Y-146127083D01*
X180618572Y-146052005D01*
X180692557Y-145939036D01*
X180778479Y-145801784D01*
X180869574Y-145651431D01*
X180959078Y-145499162D01*
X181040227Y-145356158D01*
X181048346Y-145341485D01*
X181147975Y-145165471D01*
X181245947Y-145002793D01*
X181349307Y-144842514D01*
X181465105Y-144673700D01*
X181597422Y-144489473D01*
X181880767Y-144093587D01*
X182148519Y-143702454D01*
X182406903Y-143306427D01*
X182662144Y-142895860D01*
X182920466Y-142461105D01*
X183040503Y-142253031D01*
X183112532Y-142129258D01*
X183178078Y-142022420D01*
X183243047Y-141924144D01*
X183313349Y-141826058D01*
X183394891Y-141719791D01*
X183493581Y-141596972D01*
X183563957Y-141511279D01*
X183661085Y-141393462D01*
X183757697Y-141275944D01*
X183848315Y-141165412D01*
X183927460Y-141068553D01*
X183989655Y-140992057D01*
X184015544Y-140959977D01*
X184077849Y-140883224D01*
X184156735Y-140787251D01*
X184242829Y-140683400D01*
X184326760Y-140583013D01*
X184340636Y-140566517D01*
X184408974Y-140483771D01*
X184466960Y-140410515D01*
X184510066Y-140352716D01*
X184533761Y-140316336D01*
X184536914Y-140308063D01*
X184531566Y-140277958D01*
X184517804Y-140223247D01*
X184499052Y-140155712D01*
X184478735Y-140087138D01*
X184460277Y-140029308D01*
X184447102Y-139994006D01*
X184444176Y-139988930D01*
X184426672Y-139997048D01*
X184389056Y-140026839D01*
X184342407Y-140069120D01*
X184296142Y-140110811D01*
X184274484Y-140124625D01*
X184278683Y-140109787D01*
X184279788Y-140107964D01*
X184307816Y-140059229D01*
X184342297Y-139995222D01*
X184355901Y-139968915D01*
X184383259Y-139917491D01*
X184400037Y-139897523D01*
X184413248Y-139904436D01*
X184424757Y-139923994D01*
X184435547Y-139940396D01*
X184449173Y-139946017D01*
X184470790Y-139937635D01*
X184505551Y-139912025D01*
X184558609Y-139865968D01*
X184635117Y-139796240D01*
X184647980Y-139784417D01*
X184874882Y-139577548D01*
X185077024Y-139397130D01*
X185257391Y-139240674D01*
X185418970Y-139105687D01*
X185564748Y-138989680D01*
X185697710Y-138890162D01*
X185820844Y-138804641D01*
X185829969Y-138798588D01*
X185993173Y-138697532D01*
X186132826Y-138625596D01*
X186248235Y-138583026D01*
X186338704Y-138570069D01*
X186403538Y-138586970D01*
X186411342Y-138592350D01*
X186432743Y-138611095D01*
X186428759Y-138620250D01*
X186393583Y-138623382D01*
X186360137Y-138623822D01*
X186270762Y-138637078D01*
X186182084Y-138679497D01*
X186178136Y-138681981D01*
X186107919Y-138731593D01*
X186016976Y-138803331D01*
X185912696Y-138890736D01*
X185802467Y-138987348D01*
X185693678Y-139086707D01*
X185593719Y-139182355D01*
X185519235Y-139257999D01*
X185457375Y-139323938D01*
X185379012Y-139408476D01*
X185288258Y-139507082D01*
X185189228Y-139615224D01*
X185086035Y-139728369D01*
X184982792Y-139841985D01*
X184883612Y-139951542D01*
X184792610Y-140052507D01*
X184713898Y-140140347D01*
X184651591Y-140210532D01*
X184609801Y-140258530D01*
X184596092Y-140275039D01*
X184551907Y-140331212D01*
X184606129Y-140575429D01*
X184650670Y-140787550D01*
X184685303Y-140981681D01*
X184711339Y-141169155D01*
X184730088Y-141361305D01*
X184742860Y-141569466D01*
X184750967Y-141804971D01*
X184751652Y-141833984D01*
X184754164Y-142159895D01*
X184745428Y-142457401D01*
X184724404Y-142736867D01*
X184690053Y-143008661D01*
X184641336Y-143283150D01*
X184577875Y-143567974D01*
X184439104Y-144056644D01*
X184263670Y-144530823D01*
X184052984Y-144988586D01*
X183808459Y-145428005D01*
X183531507Y-145847154D01*
X183223539Y-146244108D01*
X182885967Y-146616941D01*
X182520203Y-146963726D01*
X182127659Y-147282537D01*
X181709747Y-147571448D01*
X181587845Y-147647046D01*
X181171805Y-147878005D01*
X180736599Y-148080039D01*
X180288896Y-148250636D01*
X179835364Y-148387282D01*
X179382672Y-148487467D01*
X179334626Y-148495912D01*
X179229241Y-148517362D01*
X179161244Y-148539486D01*
X179128447Y-148562416D01*
X179110261Y-148588349D01*
X179072797Y-148642366D01*
X179019481Y-148719504D01*
X178953742Y-148814800D01*
X178879005Y-148923293D01*
X178820037Y-149008990D01*
X178600034Y-149321328D01*
X178393073Y-149599115D01*
X178196898Y-149844862D01*
X178009250Y-150061079D01*
X177827873Y-150250275D01*
X177650510Y-150414962D01*
X177474902Y-150557649D01*
X177342372Y-150652152D01*
X177225567Y-150723470D01*
X177091100Y-150794152D01*
X176951727Y-150858296D01*
X176820202Y-150909996D01*
X176717422Y-150941416D01*
X176553019Y-150970605D01*
X176375119Y-150983585D01*
X176201198Y-150979757D01*
X176073057Y-150963514D01*
X175835488Y-150898122D01*
X175607800Y-150793947D01*
X175390301Y-150651139D01*
X175315012Y-150590686D01*
X175256899Y-150545432D01*
X175209595Y-150521942D01*
X175155813Y-150513373D01*
X175117589Y-150512542D01*
X174848930Y-150496796D01*
X174576328Y-150451325D01*
X174511496Y-150433729D01*
X175993048Y-150433729D01*
X176020802Y-150451137D01*
X176046859Y-150459275D01*
X176084883Y-150463649D01*
X176150650Y-150465793D01*
X176231857Y-150465388D01*
X176257356Y-150464723D01*
X176374299Y-150456279D01*
X176470794Y-150436855D01*
X176553632Y-150407881D01*
X176689144Y-150346008D01*
X176810417Y-150275152D01*
X176928264Y-150187888D01*
X177053496Y-150076788D01*
X177097893Y-150034013D01*
X177163412Y-149968744D01*
X177212110Y-149917955D01*
X177240380Y-149885608D01*
X177244614Y-149875667D01*
X177239677Y-149878261D01*
X177032469Y-150006954D01*
X176853431Y-150109580D01*
X176701035Y-150187013D01*
X176693741Y-150190399D01*
X176586157Y-150236511D01*
X176462942Y-150283635D01*
X176335241Y-150328021D01*
X176214201Y-150365923D01*
X176110966Y-150393591D01*
X176056633Y-150404647D01*
X176005065Y-150417821D01*
X175993048Y-150433729D01*
X174511496Y-150433729D01*
X174309016Y-150378775D01*
X174056231Y-150281794D01*
X173827210Y-150163030D01*
X173767524Y-150125527D01*
X173698491Y-150085361D01*
X173630635Y-150054141D01*
X173591058Y-150041648D01*
X173538859Y-150026140D01*
X173465493Y-149998128D01*
X173385551Y-149963247D01*
X173373891Y-149957769D01*
X173213521Y-149859773D01*
X173213261Y-149859529D01*
X175165527Y-149859529D01*
X175172177Y-149875423D01*
X175190916Y-149896913D01*
X175195338Y-149901621D01*
X175220418Y-149926352D01*
X175245343Y-149941643D01*
X175277865Y-149947725D01*
X175325736Y-149944835D01*
X175396710Y-149933204D01*
X175498538Y-149913069D01*
X175508386Y-149911070D01*
X175590309Y-149892803D01*
X175684165Y-149869304D01*
X175782696Y-149842720D01*
X175878647Y-149815195D01*
X175964762Y-149788877D01*
X176033786Y-149765911D01*
X176078463Y-149748443D01*
X176091537Y-149738619D01*
X176091521Y-149738604D01*
X176069838Y-149738521D01*
X176018302Y-149744607D01*
X175946468Y-149755648D01*
X175915871Y-149760886D01*
X175828412Y-149774192D01*
X175715664Y-149788382D01*
X175592348Y-149801733D01*
X175476203Y-149812285D01*
X175352727Y-149822362D01*
X175264566Y-149830648D01*
X175207076Y-149838619D01*
X175175612Y-149847754D01*
X175165527Y-149859529D01*
X173213261Y-149859529D01*
X173074468Y-149729286D01*
X172958073Y-149568581D01*
X172865680Y-149379931D01*
X172798629Y-149165610D01*
X172758263Y-148927891D01*
X172756632Y-148912057D01*
X172742526Y-148825851D01*
X172717752Y-148723630D01*
X172687426Y-148626236D01*
X172684470Y-148618067D01*
X172606000Y-148376547D01*
X172595904Y-148337404D01*
X172986562Y-148337404D01*
X172995307Y-148480796D01*
X173004168Y-148568117D01*
X173022212Y-148639708D01*
X173055208Y-148714613D01*
X173080338Y-148761459D01*
X173250926Y-149037385D01*
X173436140Y-149277078D01*
X173637254Y-149482115D01*
X173721366Y-149553911D01*
X173841650Y-149651355D01*
X173971958Y-149638929D01*
X174039835Y-149631428D01*
X174089916Y-149623965D01*
X174110619Y-149618457D01*
X174114914Y-149613060D01*
X174111087Y-149605942D01*
X174092837Y-149592642D01*
X174053861Y-149568696D01*
X173987857Y-149529643D01*
X173971958Y-149520275D01*
X173752854Y-149372640D01*
X173556115Y-149200005D01*
X173378540Y-148998798D01*
X173216925Y-148765448D01*
X173086208Y-148532328D01*
X172986562Y-148337404D01*
X172595904Y-148337404D01*
X172534684Y-148100068D01*
X172471486Y-147793288D01*
X172417370Y-147460862D01*
X172375142Y-147124539D01*
X172365931Y-147019573D01*
X172358203Y-146891861D01*
X172352000Y-146747484D01*
X172347364Y-146592526D01*
X172344339Y-146433066D01*
X172342967Y-146275188D01*
X172343290Y-146124973D01*
X172345352Y-145988503D01*
X172349194Y-145871861D01*
X172354859Y-145781127D01*
X172362390Y-145722385D01*
X172365245Y-145711200D01*
X172376295Y-145680873D01*
X172382434Y-145679337D01*
X172385389Y-145710642D01*
X172386608Y-145761319D01*
X172393116Y-145920594D01*
X172407144Y-146109738D01*
X172427506Y-146319477D01*
X172453017Y-146540543D01*
X172482490Y-146763662D01*
X172514741Y-146979566D01*
X172548584Y-147178981D01*
X172582834Y-147352639D01*
X172599416Y-147425564D01*
X172630047Y-147547659D01*
X172662512Y-147668077D01*
X172694957Y-147780857D01*
X172725530Y-147880041D01*
X172752374Y-147959668D01*
X172773636Y-148013781D01*
X172787461Y-148036418D01*
X172789500Y-148036485D01*
X172807915Y-148004033D01*
X172817120Y-147940283D01*
X172817129Y-147852958D01*
X172807958Y-147749780D01*
X172789621Y-147638470D01*
X172788730Y-147634117D01*
X172759690Y-147484699D01*
X172736093Y-147341685D01*
X172717380Y-147198269D01*
X172702993Y-147047645D01*
X172692373Y-146883006D01*
X172684962Y-146697546D01*
X172680202Y-146484458D01*
X172677871Y-146282550D01*
X172674747Y-145892131D01*
X172790145Y-145892131D01*
X172792070Y-145970029D01*
X172796047Y-146067022D01*
X172801727Y-146176151D01*
X172808760Y-146290457D01*
X172816798Y-146402978D01*
X172825493Y-146506757D01*
X172831014Y-146563213D01*
X172842150Y-146657311D01*
X172856947Y-146765212D01*
X172874088Y-146879044D01*
X172892256Y-146990937D01*
X172910136Y-147093018D01*
X172926411Y-147177418D01*
X172939765Y-147236264D01*
X172947483Y-147259695D01*
X172958307Y-147251553D01*
X172978162Y-147211399D01*
X173004334Y-147145557D01*
X173034110Y-147060351D01*
X173037773Y-147049198D01*
X173082874Y-146914700D01*
X173123207Y-146801757D01*
X173157245Y-146714209D01*
X173183463Y-146655897D01*
X173200335Y-146630661D01*
X173204061Y-146630622D01*
X173203387Y-146652329D01*
X173195402Y-146705427D01*
X173181428Y-146782154D01*
X173162790Y-146874747D01*
X173160911Y-146883678D01*
X173135314Y-147010071D01*
X173108052Y-147153090D01*
X173083088Y-147291576D01*
X173070246Y-147367468D01*
X173031218Y-147606690D01*
X173092137Y-147781597D01*
X173143112Y-147915721D01*
X173206146Y-148062799D01*
X173275929Y-148211783D01*
X173347154Y-148351626D01*
X173414511Y-148471284D01*
X173452115Y-148530655D01*
X173547713Y-148657266D01*
X173663724Y-148787695D01*
X173787993Y-148909321D01*
X173908364Y-149009523D01*
X173925042Y-149021717D01*
X173985717Y-149061615D01*
X174060434Y-149105573D01*
X174141188Y-149149542D01*
X174219972Y-149189474D01*
X174288780Y-149221320D01*
X174339605Y-149241032D01*
X174364442Y-149244559D01*
X174364929Y-149244170D01*
X174361238Y-149223328D01*
X174343903Y-149175744D01*
X174316450Y-149110908D01*
X174310351Y-149097355D01*
X174251164Y-148961149D01*
X174184583Y-148798110D01*
X174114968Y-148619739D01*
X174046677Y-148437537D01*
X173984068Y-148263005D01*
X173931500Y-148107645D01*
X173912179Y-148046717D01*
X173878770Y-147935045D01*
X173842724Y-147808832D01*
X173805663Y-147674378D01*
X173769208Y-147537986D01*
X173734983Y-147405956D01*
X173704609Y-147284589D01*
X173679709Y-147180186D01*
X173661904Y-147099049D01*
X173652817Y-147047479D01*
X173651992Y-147036052D01*
X173659301Y-147043733D01*
X173679690Y-147084710D01*
X173711436Y-147155018D01*
X173752814Y-147250692D01*
X173802102Y-147367766D01*
X173857575Y-147502274D01*
X173899566Y-147605675D01*
X173987604Y-147822039D01*
X174065009Y-148007799D01*
X174135050Y-148169959D01*
X174200999Y-148315521D01*
X174266124Y-148451490D01*
X174333695Y-148584868D01*
X174406983Y-148722660D01*
X174489256Y-148871868D01*
X174498145Y-148887761D01*
X174578104Y-149029527D01*
X174641883Y-149139685D01*
X174692131Y-149222020D01*
X174731500Y-149280322D01*
X174762642Y-149318377D01*
X174788206Y-149339974D01*
X174810844Y-149348900D01*
X174821527Y-149349795D01*
X174857861Y-149339117D01*
X174917729Y-149310295D01*
X174991801Y-149268151D01*
X175047477Y-149233062D01*
X175129195Y-149176836D01*
X175230398Y-149103341D01*
X175339782Y-149020988D01*
X175446041Y-148938188D01*
X175475677Y-148914472D01*
X175494894Y-148898730D01*
X176658304Y-148898730D01*
X176668327Y-148908753D01*
X176678351Y-148898730D01*
X176668327Y-148888706D01*
X176658304Y-148898730D01*
X175494894Y-148898730D01*
X175515585Y-148881781D01*
X176698398Y-148881781D01*
X176713723Y-148877984D01*
X176759530Y-148848612D01*
X176835571Y-148793841D01*
X176941594Y-148713849D01*
X176995362Y-148672497D01*
X177062875Y-148618869D01*
X177115401Y-148574310D01*
X177146772Y-148544239D01*
X177152634Y-148534365D01*
X177134977Y-148542860D01*
X177092990Y-148571193D01*
X177033589Y-148614078D01*
X176963688Y-148666224D01*
X176890202Y-148722344D01*
X176820045Y-148777149D01*
X176760132Y-148825350D01*
X176717379Y-148861659D01*
X176698699Y-148880787D01*
X176698398Y-148881781D01*
X175515585Y-148881781D01*
X175561964Y-148843790D01*
X175656702Y-148764280D01*
X175755300Y-148680008D01*
X175853167Y-148595038D01*
X175945714Y-148513435D01*
X176028350Y-148439265D01*
X176096485Y-148376591D01*
X176145528Y-148329480D01*
X176170889Y-148301996D01*
X176173182Y-148296799D01*
X176153128Y-148288011D01*
X176102871Y-148268371D01*
X176029883Y-148240742D01*
X175941636Y-148207988D01*
X175937126Y-148206330D01*
X175470200Y-148014180D01*
X175019464Y-147787678D01*
X174587627Y-147528823D01*
X174177395Y-147239616D01*
X173791476Y-146922059D01*
X173432578Y-146578152D01*
X173103407Y-146209895D01*
X172920359Y-145976828D01*
X172869736Y-145910388D01*
X172827985Y-145858130D01*
X172800798Y-145827043D01*
X172793843Y-145821461D01*
X172790619Y-145840288D01*
X172790145Y-145892131D01*
X172674747Y-145892131D01*
X172672656Y-145631011D01*
X172538617Y-145410490D01*
X172293957Y-144969715D01*
X172085070Y-144511201D01*
X171911882Y-144034725D01*
X171774317Y-143540065D01*
X171672301Y-143026996D01*
X171623936Y-142674026D01*
X171614590Y-142562382D01*
X171607659Y-142419877D01*
X171603145Y-142255673D01*
X171601047Y-142078932D01*
X171601364Y-141898815D01*
X171604098Y-141724483D01*
X171609248Y-141565098D01*
X171616814Y-141429821D01*
X171623936Y-141350900D01*
X171702602Y-140824419D01*
X171817343Y-140315422D01*
X171968197Y-139823817D01*
X172155200Y-139349514D01*
X172378390Y-138892421D01*
X172637805Y-138452448D01*
X172933482Y-138029503D01*
X173047759Y-137882708D01*
X173149818Y-137761120D01*
X173274137Y-137622438D01*
X173412284Y-137475369D01*
X173555829Y-137328621D01*
X173696341Y-137190901D01*
X173825388Y-137070916D01*
X173881745Y-137021355D01*
X174284938Y-136701304D01*
X174708869Y-136415264D01*
X175152016Y-136163899D01*
X175612860Y-135947872D01*
X176089878Y-135767844D01*
X176581550Y-135624478D01*
X177086356Y-135518438D01*
X177450174Y-135466372D01*
X177599365Y-135452873D01*
X177777200Y-135442902D01*
X177973272Y-135436540D01*
X178177175Y-135433868D01*
X178378503Y-135434965D01*
X178566849Y-135439912D01*
X178731807Y-135448790D01*
X178813394Y-135455846D01*
X179332562Y-135528541D01*
X179835592Y-135637891D01*
X180322912Y-135784072D01*
X180794949Y-135967261D01*
X181252129Y-136187634D01*
X181694881Y-136445368D01*
X182123632Y-136740639D01*
X182351753Y-136917585D01*
X182439259Y-136991693D01*
X182543633Y-137085609D01*
X182658793Y-137193332D01*
X182778654Y-137308860D01*
X182897133Y-137426192D01*
X183008148Y-137539326D01*
X183105614Y-137642261D01*
X183183448Y-137728996D01*
X183223813Y-137777909D01*
X183266226Y-137830745D01*
X183298840Y-137868157D01*
X183314026Y-137881681D01*
X183325114Y-137864592D01*
X183351941Y-137815833D01*
X183392322Y-137739596D01*
X183444069Y-137640075D01*
X183504997Y-137521465D01*
X183572919Y-137387958D01*
X183619318Y-137296100D01*
X183763183Y-137013442D01*
X183901542Y-136747393D01*
X184033196Y-136500027D01*
X184156946Y-136273419D01*
X184271594Y-136069643D01*
X184375941Y-135890774D01*
X184468787Y-135738887D01*
X184548935Y-135616055D01*
X184615186Y-135524354D01*
X184666340Y-135465859D01*
X184686472Y-135449320D01*
X184721284Y-135428666D01*
X184733770Y-135428811D01*
D13*
X170790894Y-80657379D02*
X170790894Y-81466903D01*
X170838513Y-81562141D01*
X170886132Y-81609760D01*
X170981370Y-81657379D01*
X171171846Y-81657379D01*
X171267084Y-81609760D01*
X171314703Y-81562141D01*
X171362322Y-81466903D01*
X171362322Y-80657379D01*
X171790894Y-80752618D02*
X171838513Y-80704999D01*
X171933751Y-80657379D01*
X172171846Y-80657379D01*
X172267084Y-80704999D01*
X172314703Y-80752618D01*
X172362322Y-80847856D01*
X172362322Y-80943094D01*
X172314703Y-81085951D01*
X171743275Y-81657379D01*
X172362322Y-81657379D01*
X149312380Y-83891333D02*
X149312380Y-83700857D01*
X149360000Y-83605619D01*
X149455238Y-83510380D01*
X149645714Y-83462761D01*
X149979047Y-83462761D01*
X150169523Y-83510380D01*
X150264761Y-83605619D01*
X150312380Y-83700857D01*
X150312380Y-83891333D01*
X150264761Y-83986571D01*
X150169523Y-84081809D01*
X149979047Y-84129428D01*
X149645714Y-84129428D01*
X149455238Y-84081809D01*
X149360000Y-83986571D01*
X149312380Y-83891333D01*
X150312380Y-83034190D02*
X149312380Y-83034190D01*
X150312380Y-82462761D02*
X149740952Y-82891333D01*
X149312380Y-82462761D02*
X149883809Y-83034190D01*
X150312380Y-82034190D02*
X149312380Y-82034190D01*
X170537142Y-90449666D02*
X170584761Y-90497285D01*
X170632380Y-90640142D01*
X170632380Y-90735380D01*
X170584761Y-90878238D01*
X170489523Y-90973476D01*
X170394285Y-91021095D01*
X170203809Y-91068714D01*
X170060952Y-91068714D01*
X169870476Y-91021095D01*
X169775238Y-90973476D01*
X169680000Y-90878238D01*
X169632380Y-90735380D01*
X169632380Y-90640142D01*
X169680000Y-90497285D01*
X169727619Y-90449666D01*
X170632380Y-89497285D02*
X170632380Y-90068714D01*
X170632380Y-89783000D02*
X169632380Y-89783000D01*
X169775238Y-89878238D01*
X169870476Y-89973476D01*
X169918095Y-90068714D01*
X170791142Y-83619666D02*
X170838761Y-83667285D01*
X170886380Y-83810142D01*
X170886380Y-83905380D01*
X170838761Y-84048238D01*
X170743523Y-84143476D01*
X170648285Y-84191095D01*
X170457809Y-84238714D01*
X170314952Y-84238714D01*
X170124476Y-84191095D01*
X170029238Y-84143476D01*
X169934000Y-84048238D01*
X169886380Y-83905380D01*
X169886380Y-83810142D01*
X169934000Y-83667285D01*
X169981619Y-83619666D01*
X169981619Y-83238714D02*
X169934000Y-83191095D01*
X169886380Y-83095857D01*
X169886380Y-82857761D01*
X169934000Y-82762523D01*
X169981619Y-82714904D01*
X170076857Y-82667285D01*
X170172095Y-82667285D01*
X170314952Y-82714904D01*
X170886380Y-83286333D01*
X170886380Y-82667285D01*
X170156142Y-99226666D02*
X170203761Y-99274285D01*
X170251380Y-99417142D01*
X170251380Y-99512380D01*
X170203761Y-99655238D01*
X170108523Y-99750476D01*
X170013285Y-99798095D01*
X169822809Y-99845714D01*
X169679952Y-99845714D01*
X169489476Y-99798095D01*
X169394238Y-99750476D01*
X169299000Y-99655238D01*
X169251380Y-99512380D01*
X169251380Y-99417142D01*
X169299000Y-99274285D01*
X169346619Y-99226666D01*
X169251380Y-98893333D02*
X169251380Y-98274285D01*
X169632333Y-98607619D01*
X169632333Y-98464761D01*
X169679952Y-98369523D01*
X169727571Y-98321904D01*
X169822809Y-98274285D01*
X170060904Y-98274285D01*
X170156142Y-98321904D01*
X170203761Y-98369523D01*
X170251380Y-98464761D01*
X170251380Y-98750476D01*
X170203761Y-98845714D01*
X170156142Y-98893333D01*
X170283142Y-106846666D02*
X170330761Y-106894285D01*
X170378380Y-107037142D01*
X170378380Y-107132380D01*
X170330761Y-107275238D01*
X170235523Y-107370476D01*
X170140285Y-107418095D01*
X169949809Y-107465714D01*
X169806952Y-107465714D01*
X169616476Y-107418095D01*
X169521238Y-107370476D01*
X169426000Y-107275238D01*
X169378380Y-107132380D01*
X169378380Y-107037142D01*
X169426000Y-106894285D01*
X169473619Y-106846666D01*
X169711714Y-105989523D02*
X170378380Y-105989523D01*
X169330761Y-106227619D02*
X170045047Y-106465714D01*
X170045047Y-105846666D01*
X149312380Y-99893333D02*
X149312380Y-99702857D01*
X149360000Y-99607619D01*
X149455238Y-99512380D01*
X149645714Y-99464761D01*
X149979047Y-99464761D01*
X150169523Y-99512380D01*
X150264761Y-99607619D01*
X150312380Y-99702857D01*
X150312380Y-99893333D01*
X150264761Y-99988571D01*
X150169523Y-100083809D01*
X149979047Y-100131428D01*
X149645714Y-100131428D01*
X149455238Y-100083809D01*
X149360000Y-99988571D01*
X149312380Y-99893333D01*
X150312380Y-99036190D02*
X149312380Y-99036190D01*
X150312380Y-98464761D02*
X149740952Y-98893333D01*
X149312380Y-98464761D02*
X149883809Y-99036190D01*
X150312380Y-98036190D02*
X149312380Y-98036190D01*
X113547904Y-92654380D02*
X113547904Y-91654380D01*
X113786000Y-91654380D01*
X113928857Y-91702000D01*
X114024095Y-91797238D01*
X114071714Y-91892476D01*
X114119333Y-92082952D01*
X114119333Y-92225809D01*
X114071714Y-92416285D01*
X114024095Y-92511523D01*
X113928857Y-92606761D01*
X113786000Y-92654380D01*
X113547904Y-92654380D01*
X115071714Y-92654380D02*
X114500285Y-92654380D01*
X114786000Y-92654380D02*
X114786000Y-91654380D01*
X114690761Y-91797238D01*
X114595523Y-91892476D01*
X114500285Y-91940095D01*
X113547904Y-100274380D02*
X113547904Y-99274380D01*
X113786000Y-99274380D01*
X113928857Y-99322000D01*
X114024095Y-99417238D01*
X114071714Y-99512476D01*
X114119333Y-99702952D01*
X114119333Y-99845809D01*
X114071714Y-100036285D01*
X114024095Y-100131523D01*
X113928857Y-100226761D01*
X113786000Y-100274380D01*
X113547904Y-100274380D01*
X114452666Y-99274380D02*
X115071714Y-99274380D01*
X114738380Y-99655333D01*
X114881238Y-99655333D01*
X114976476Y-99702952D01*
X115024095Y-99750571D01*
X115071714Y-99845809D01*
X115071714Y-100083904D01*
X115024095Y-100179142D01*
X114976476Y-100226761D01*
X114881238Y-100274380D01*
X114595523Y-100274380D01*
X114500285Y-100226761D01*
X114452666Y-100179142D01*
X113547904Y-115514380D02*
X113547904Y-114514380D01*
X113786000Y-114514380D01*
X113928857Y-114562000D01*
X114024095Y-114657238D01*
X114071714Y-114752476D01*
X114119333Y-114942952D01*
X114119333Y-115085809D01*
X114071714Y-115276285D01*
X114024095Y-115371523D01*
X113928857Y-115466761D01*
X113786000Y-115514380D01*
X113547904Y-115514380D01*
X114976476Y-114847714D02*
X114976476Y-115514380D01*
X114738380Y-114466761D02*
X114500285Y-115181047D01*
X115119333Y-115181047D01*
X113307904Y-111704380D02*
X113307904Y-110704380D01*
X113546000Y-110704380D01*
X113688857Y-110752000D01*
X113784095Y-110847238D01*
X113831714Y-110942476D01*
X113879333Y-111132952D01*
X113879333Y-111275809D01*
X113831714Y-111466285D01*
X113784095Y-111561523D01*
X113688857Y-111656761D01*
X113546000Y-111704380D01*
X113307904Y-111704380D01*
X114784095Y-110704380D02*
X114307904Y-110704380D01*
X114260285Y-111180571D01*
X114307904Y-111132952D01*
X114403142Y-111085333D01*
X114641238Y-111085333D01*
X114736476Y-111132952D01*
X114784095Y-111180571D01*
X114831714Y-111275809D01*
X114831714Y-111513904D01*
X114784095Y-111609142D01*
X114736476Y-111656761D01*
X114641238Y-111704380D01*
X114403142Y-111704380D01*
X114307904Y-111656761D01*
X114260285Y-111609142D01*
X109039333Y-92654380D02*
X108706000Y-92178190D01*
X108467904Y-92654380D02*
X108467904Y-91654380D01*
X108848857Y-91654380D01*
X108944095Y-91702000D01*
X108991714Y-91749619D01*
X109039333Y-91844857D01*
X109039333Y-91987714D01*
X108991714Y-92082952D01*
X108944095Y-92130571D01*
X108848857Y-92178190D01*
X108467904Y-92178190D01*
X109991714Y-92654380D02*
X109420285Y-92654380D01*
X109706000Y-92654380D02*
X109706000Y-91654380D01*
X109610761Y-91797238D01*
X109515523Y-91892476D01*
X109420285Y-91940095D01*
X109039333Y-100274380D02*
X108706000Y-99798190D01*
X108467904Y-100274380D02*
X108467904Y-99274380D01*
X108848857Y-99274380D01*
X108944095Y-99322000D01*
X108991714Y-99369619D01*
X109039333Y-99464857D01*
X109039333Y-99607714D01*
X108991714Y-99702952D01*
X108944095Y-99750571D01*
X108848857Y-99798190D01*
X108467904Y-99798190D01*
X109372666Y-99274380D02*
X109991714Y-99274380D01*
X109658380Y-99655333D01*
X109801238Y-99655333D01*
X109896476Y-99702952D01*
X109944095Y-99750571D01*
X109991714Y-99845809D01*
X109991714Y-100083904D01*
X109944095Y-100179142D01*
X109896476Y-100226761D01*
X109801238Y-100274380D01*
X109515523Y-100274380D01*
X109420285Y-100226761D01*
X109372666Y-100179142D01*
X109194333Y-115514380D02*
X108861000Y-115038190D01*
X108622904Y-115514380D02*
X108622904Y-114514380D01*
X109003857Y-114514380D01*
X109099095Y-114562000D01*
X109146714Y-114609619D01*
X109194333Y-114704857D01*
X109194333Y-114847714D01*
X109146714Y-114942952D01*
X109099095Y-114990571D01*
X109003857Y-115038190D01*
X108622904Y-115038190D01*
X110051476Y-114847714D02*
X110051476Y-115514380D01*
X109813380Y-114466761D02*
X109575285Y-115181047D01*
X110194333Y-115181047D01*
X109194333Y-111704380D02*
X108861000Y-111228190D01*
X108622904Y-111704380D02*
X108622904Y-110704380D01*
X109003857Y-110704380D01*
X109099095Y-110752000D01*
X109146714Y-110799619D01*
X109194333Y-110894857D01*
X109194333Y-111037714D01*
X109146714Y-111132952D01*
X109099095Y-111180571D01*
X109003857Y-111228190D01*
X108622904Y-111228190D01*
X110099095Y-110704380D02*
X109622904Y-110704380D01*
X109575285Y-111180571D01*
X109622904Y-111132952D01*
X109718142Y-111085333D01*
X109956238Y-111085333D01*
X110051476Y-111132952D01*
X110099095Y-111180571D01*
X110146714Y-111275809D01*
X110146714Y-111513904D01*
X110099095Y-111609142D01*
X110051476Y-111656761D01*
X109956238Y-111704380D01*
X109718142Y-111704380D01*
X109622904Y-111656761D01*
X109575285Y-111609142D01*
X143486142Y-98591666D02*
X143533761Y-98639285D01*
X143581380Y-98782142D01*
X143581380Y-98877380D01*
X143533761Y-99020238D01*
X143438523Y-99115476D01*
X143343285Y-99163095D01*
X143152809Y-99210714D01*
X143009952Y-99210714D01*
X142819476Y-99163095D01*
X142724238Y-99115476D01*
X142629000Y-99020238D01*
X142581380Y-98877380D01*
X142581380Y-98782142D01*
X142629000Y-98639285D01*
X142676619Y-98591666D01*
X142581380Y-97686904D02*
X142581380Y-98163095D01*
X143057571Y-98210714D01*
X143009952Y-98163095D01*
X142962333Y-98067857D01*
X142962333Y-97829761D01*
X143009952Y-97734523D01*
X143057571Y-97686904D01*
X143152809Y-97639285D01*
X143390904Y-97639285D01*
X143486142Y-97686904D01*
X143533761Y-97734523D01*
X143581380Y-97829761D01*
X143581380Y-98067857D01*
X143533761Y-98163095D01*
X143486142Y-98210714D01*
X89241333Y-84272380D02*
X88908000Y-83796190D01*
X88669904Y-84272380D02*
X88669904Y-83272380D01*
X89050857Y-83272380D01*
X89146095Y-83320000D01*
X89193714Y-83367619D01*
X89241333Y-83462857D01*
X89241333Y-83605714D01*
X89193714Y-83700952D01*
X89146095Y-83748571D01*
X89050857Y-83796190D01*
X88669904Y-83796190D01*
X90098476Y-83272380D02*
X89908000Y-83272380D01*
X89812761Y-83320000D01*
X89765142Y-83367619D01*
X89669904Y-83510476D01*
X89622285Y-83700952D01*
X89622285Y-84081904D01*
X89669904Y-84177142D01*
X89717523Y-84224761D01*
X89812761Y-84272380D01*
X90003238Y-84272380D01*
X90098476Y-84224761D01*
X90146095Y-84177142D01*
X90193714Y-84081904D01*
X90193714Y-83843809D01*
X90146095Y-83748571D01*
X90098476Y-83700952D01*
X90003238Y-83653333D01*
X89812761Y-83653333D01*
X89717523Y-83700952D01*
X89669904Y-83748571D01*
X89622285Y-83843809D01*
X89241333Y-89606380D02*
X88908000Y-89130190D01*
X88669904Y-89606380D02*
X88669904Y-88606380D01*
X89050857Y-88606380D01*
X89146095Y-88654000D01*
X89193714Y-88701619D01*
X89241333Y-88796857D01*
X89241333Y-88939714D01*
X89193714Y-89034952D01*
X89146095Y-89082571D01*
X89050857Y-89130190D01*
X88669904Y-89130190D01*
X89574666Y-88606380D02*
X90241333Y-88606380D01*
X89812761Y-89606380D01*
X113547904Y-107894380D02*
X113547904Y-106894380D01*
X113786000Y-106894380D01*
X113928857Y-106942000D01*
X114024095Y-107037238D01*
X114071714Y-107132476D01*
X114119333Y-107322952D01*
X114119333Y-107465809D01*
X114071714Y-107656285D01*
X114024095Y-107751523D01*
X113928857Y-107846761D01*
X113786000Y-107894380D01*
X113547904Y-107894380D01*
X114976476Y-106894380D02*
X114786000Y-106894380D01*
X114690761Y-106942000D01*
X114643142Y-106989619D01*
X114547904Y-107132476D01*
X114500285Y-107322952D01*
X114500285Y-107703904D01*
X114547904Y-107799142D01*
X114595523Y-107846761D01*
X114690761Y-107894380D01*
X114881238Y-107894380D01*
X114976476Y-107846761D01*
X115024095Y-107799142D01*
X115071714Y-107703904D01*
X115071714Y-107465809D01*
X115024095Y-107370571D01*
X114976476Y-107322952D01*
X114881238Y-107275333D01*
X114690761Y-107275333D01*
X114595523Y-107322952D01*
X114547904Y-107370571D01*
X114500285Y-107465809D01*
X113547904Y-104084380D02*
X113547904Y-103084380D01*
X113786000Y-103084380D01*
X113928857Y-103132000D01*
X114024095Y-103227238D01*
X114071714Y-103322476D01*
X114119333Y-103512952D01*
X114119333Y-103655809D01*
X114071714Y-103846285D01*
X114024095Y-103941523D01*
X113928857Y-104036761D01*
X113786000Y-104084380D01*
X113547904Y-104084380D01*
X114452666Y-103084380D02*
X115119333Y-103084380D01*
X114690761Y-104084380D01*
X109039333Y-107894380D02*
X108706000Y-107418190D01*
X108467904Y-107894380D02*
X108467904Y-106894380D01*
X108848857Y-106894380D01*
X108944095Y-106942000D01*
X108991714Y-106989619D01*
X109039333Y-107084857D01*
X109039333Y-107227714D01*
X108991714Y-107322952D01*
X108944095Y-107370571D01*
X108848857Y-107418190D01*
X108467904Y-107418190D01*
X109610761Y-107322952D02*
X109515523Y-107275333D01*
X109467904Y-107227714D01*
X109420285Y-107132476D01*
X109420285Y-107084857D01*
X109467904Y-106989619D01*
X109515523Y-106942000D01*
X109610761Y-106894380D01*
X109801238Y-106894380D01*
X109896476Y-106942000D01*
X109944095Y-106989619D01*
X109991714Y-107084857D01*
X109991714Y-107132476D01*
X109944095Y-107227714D01*
X109896476Y-107275333D01*
X109801238Y-107322952D01*
X109610761Y-107322952D01*
X109515523Y-107370571D01*
X109467904Y-107418190D01*
X109420285Y-107513428D01*
X109420285Y-107703904D01*
X109467904Y-107799142D01*
X109515523Y-107846761D01*
X109610761Y-107894380D01*
X109801238Y-107894380D01*
X109896476Y-107846761D01*
X109944095Y-107799142D01*
X109991714Y-107703904D01*
X109991714Y-107513428D01*
X109944095Y-107418190D01*
X109896476Y-107370571D01*
X109801238Y-107322952D01*
X109039333Y-103924380D02*
X108706000Y-103448190D01*
X108467904Y-103924380D02*
X108467904Y-102924380D01*
X108848857Y-102924380D01*
X108944095Y-102972000D01*
X108991714Y-103019619D01*
X109039333Y-103114857D01*
X109039333Y-103257714D01*
X108991714Y-103352952D01*
X108944095Y-103400571D01*
X108848857Y-103448190D01*
X108467904Y-103448190D01*
X109515523Y-103924380D02*
X109706000Y-103924380D01*
X109801238Y-103876761D01*
X109848857Y-103829142D01*
X109944095Y-103686285D01*
X109991714Y-103495809D01*
X109991714Y-103114857D01*
X109944095Y-103019619D01*
X109896476Y-102972000D01*
X109801238Y-102924380D01*
X109610761Y-102924380D01*
X109515523Y-102972000D01*
X109467904Y-103019619D01*
X109420285Y-103114857D01*
X109420285Y-103352952D01*
X109467904Y-103448190D01*
X109515523Y-103495809D01*
X109610761Y-103543428D01*
X109801238Y-103543428D01*
X109896476Y-103495809D01*
X109944095Y-103448190D01*
X109991714Y-103352952D01*
X113547904Y-96464380D02*
X113547904Y-95464380D01*
X113786000Y-95464380D01*
X113928857Y-95512000D01*
X114024095Y-95607238D01*
X114071714Y-95702476D01*
X114119333Y-95892952D01*
X114119333Y-96035809D01*
X114071714Y-96226285D01*
X114024095Y-96321523D01*
X113928857Y-96416761D01*
X113786000Y-96464380D01*
X113547904Y-96464380D01*
X114500285Y-95559619D02*
X114547904Y-95512000D01*
X114643142Y-95464380D01*
X114881238Y-95464380D01*
X114976476Y-95512000D01*
X115024095Y-95559619D01*
X115071714Y-95654857D01*
X115071714Y-95750095D01*
X115024095Y-95892952D01*
X114452666Y-96464380D01*
X115071714Y-96464380D01*
X109039333Y-96304380D02*
X108706000Y-95828190D01*
X108467904Y-96304380D02*
X108467904Y-95304380D01*
X108848857Y-95304380D01*
X108944095Y-95352000D01*
X108991714Y-95399619D01*
X109039333Y-95494857D01*
X109039333Y-95637714D01*
X108991714Y-95732952D01*
X108944095Y-95780571D01*
X108848857Y-95828190D01*
X108467904Y-95828190D01*
X109420285Y-95399619D02*
X109467904Y-95352000D01*
X109563142Y-95304380D01*
X109801238Y-95304380D01*
X109896476Y-95352000D01*
X109944095Y-95399619D01*
X109991714Y-95494857D01*
X109991714Y-95590095D01*
X109944095Y-95732952D01*
X109372666Y-96304380D01*
X109991714Y-96304380D01*
X89019142Y-98750380D02*
X88685809Y-98274190D01*
X88447714Y-98750380D02*
X88447714Y-97750380D01*
X88828666Y-97750380D01*
X88923904Y-97798000D01*
X88971523Y-97845619D01*
X89019142Y-97940857D01*
X89019142Y-98083714D01*
X88971523Y-98178952D01*
X88923904Y-98226571D01*
X88828666Y-98274190D01*
X88447714Y-98274190D01*
X89971523Y-98750380D02*
X89400095Y-98750380D01*
X89685809Y-98750380D02*
X89685809Y-97750380D01*
X89590571Y-97893238D01*
X89495333Y-97988476D01*
X89400095Y-98036095D01*
X90590571Y-97750380D02*
X90685809Y-97750380D01*
X90781047Y-97798000D01*
X90828666Y-97845619D01*
X90876285Y-97940857D01*
X90923904Y-98131333D01*
X90923904Y-98369428D01*
X90876285Y-98559904D01*
X90828666Y-98655142D01*
X90781047Y-98702761D01*
X90685809Y-98750380D01*
X90590571Y-98750380D01*
X90495333Y-98702761D01*
X90447714Y-98655142D01*
X90400095Y-98559904D01*
X90352476Y-98369428D01*
X90352476Y-98131333D01*
X90400095Y-97940857D01*
X90447714Y-97845619D01*
X90495333Y-97798000D01*
X90590571Y-97750380D01*
X88765142Y-104225380D02*
X88431809Y-103749190D01*
X88193714Y-104225380D02*
X88193714Y-103225380D01*
X88574666Y-103225380D01*
X88669904Y-103273000D01*
X88717523Y-103320619D01*
X88765142Y-103415857D01*
X88765142Y-103558714D01*
X88717523Y-103653952D01*
X88669904Y-103701571D01*
X88574666Y-103749190D01*
X88193714Y-103749190D01*
X89717523Y-104225380D02*
X89146095Y-104225380D01*
X89431809Y-104225380D02*
X89431809Y-103225380D01*
X89336571Y-103368238D01*
X89241333Y-103463476D01*
X89146095Y-103511095D01*
X90669904Y-104225380D02*
X90098476Y-104225380D01*
X90384190Y-104225380D02*
X90384190Y-103225380D01*
X90288952Y-103368238D01*
X90193714Y-103463476D01*
X90098476Y-103511095D01*
X93493142Y-79942666D02*
X93540761Y-79990285D01*
X93588380Y-80133142D01*
X93588380Y-80228380D01*
X93540761Y-80371238D01*
X93445523Y-80466476D01*
X93350285Y-80514095D01*
X93159809Y-80561714D01*
X93016952Y-80561714D01*
X92826476Y-80514095D01*
X92731238Y-80466476D01*
X92636000Y-80371238D01*
X92588380Y-80228380D01*
X92588380Y-80133142D01*
X92636000Y-79990285D01*
X92683619Y-79942666D01*
X92588380Y-79085523D02*
X92588380Y-79276000D01*
X92636000Y-79371238D01*
X92683619Y-79418857D01*
X92826476Y-79514095D01*
X93016952Y-79561714D01*
X93397904Y-79561714D01*
X93493142Y-79514095D01*
X93540761Y-79466476D01*
X93588380Y-79371238D01*
X93588380Y-79180761D01*
X93540761Y-79085523D01*
X93493142Y-79037904D01*
X93397904Y-78990285D01*
X93159809Y-78990285D01*
X93064571Y-79037904D01*
X93016952Y-79085523D01*
X92969333Y-79180761D01*
X92969333Y-79371238D01*
X93016952Y-79466476D01*
X93064571Y-79514095D01*
X93159809Y-79561714D01*
M02*
