G04 #@! TF.GenerationSoftware,KiCad,Pcbnew,(5.1.5)-3*
G04 #@! TF.CreationDate,2019-12-14T16:38:42-06:00*
G04 #@! TF.ProjectId,RaspberryPiBreakout_Hardware,52617370-6265-4727-9279-506942726561,rev?*
G04 #@! TF.SameCoordinates,Original*
G04 #@! TF.FileFunction,Copper,L2,Bot*
G04 #@! TF.FilePolarity,Positive*
%FSLAX46Y46*%
G04 Gerber Fmt 4.6, Leading zero omitted, Abs format (unit mm)*
G04 Created by KiCad (PCBNEW (5.1.5)-3) date 2019-12-14 16:38:42*
%MOMM*%
%LPD*%
G04 APERTURE LIST*
%ADD10C,1.700000*%
%ADD11C,1.524000*%
%ADD12C,5.080000*%
%ADD13C,1.600000*%
%ADD14R,1.600000X1.600000*%
%ADD15C,0.800000*%
%ADD16C,0.381000*%
%ADD17C,0.762000*%
%ADD18C,0.254000*%
G04 APERTURE END LIST*
D10*
X171450000Y-76454000D03*
X171450000Y-78994000D03*
X168910000Y-76454000D03*
X168910000Y-78994000D03*
X166370000Y-76454000D03*
X166370000Y-78994000D03*
X163830000Y-76454000D03*
X163830000Y-78994000D03*
X161290000Y-76454000D03*
X161290000Y-78994000D03*
X158750000Y-76454000D03*
X158750000Y-78994000D03*
X156210000Y-76454000D03*
X156210000Y-78994000D03*
X153670000Y-76454000D03*
X153670000Y-78994000D03*
X151130000Y-76454000D03*
X151130000Y-78994000D03*
X148590000Y-76454000D03*
X148590000Y-78994000D03*
X146050000Y-76454000D03*
X146050000Y-78994000D03*
X143510000Y-76454000D03*
X143510000Y-78994000D03*
X140970000Y-76454000D03*
X140970000Y-78994000D03*
X138430000Y-76454000D03*
X138430000Y-78994000D03*
X135890000Y-76454000D03*
X135890000Y-78994000D03*
X133350000Y-76454000D03*
X133350000Y-78994000D03*
X130810000Y-76454000D03*
X130810000Y-78994000D03*
X128270000Y-76454000D03*
X128270000Y-78994000D03*
X125730000Y-76454000D03*
X125730000Y-78994000D03*
X123190000Y-76454000D03*
X123190000Y-78994000D03*
D11*
X152400000Y-84328000D03*
X152400000Y-86868000D03*
X152400000Y-89408000D03*
D12*
X160909000Y-120777000D03*
X160909000Y-112903000D03*
D11*
X86106000Y-120650000D03*
X86106000Y-118110000D03*
X86106000Y-115570000D03*
X86106000Y-92710000D03*
X86106000Y-90170000D03*
X86106000Y-87630000D03*
X86106000Y-85090000D03*
X166370000Y-105410000D03*
X166370000Y-102870000D03*
X166370000Y-100330000D03*
D13*
X143129000Y-101640000D03*
D14*
X143129000Y-104140000D03*
D11*
X86106000Y-107442000D03*
X86106000Y-104902000D03*
X86106000Y-102362000D03*
X86106000Y-99822000D03*
D14*
X97536000Y-81026000D03*
D13*
X97536000Y-78526000D03*
D15*
X121031000Y-101092000D03*
X121031000Y-97282000D03*
X121031000Y-93472000D03*
X121031000Y-112522000D03*
X121031000Y-116332000D03*
X148336000Y-85979000D03*
X148336000Y-87630000D03*
X108331000Y-89408000D03*
X90424000Y-107442000D03*
X90396000Y-92710000D03*
X90396000Y-101092000D03*
X105791000Y-101092000D03*
X129540000Y-120650000D03*
X108458000Y-120650000D03*
X132080000Y-118110000D03*
X105410000Y-118110000D03*
X125730000Y-87630000D03*
X119888000Y-108712000D03*
X125730000Y-108712000D03*
X125730000Y-102362000D03*
X128270000Y-99822000D03*
X128270000Y-85344000D03*
X128270000Y-104902000D03*
X121031000Y-104902000D03*
X124460000Y-84074000D03*
X109347000Y-98552000D03*
X133985000Y-98552000D03*
X133985000Y-84328000D03*
D16*
X108331000Y-89408000D02*
X151384000Y-89408000D01*
D17*
X90424000Y-107442000D02*
X86106000Y-107442000D01*
X86106000Y-92710000D02*
X90396000Y-92710000D01*
X166370000Y-106934000D02*
X166370000Y-105410000D01*
X165862000Y-107442000D02*
X166370000Y-106934000D01*
X143129000Y-104140000D02*
X143129000Y-107442000D01*
X90424000Y-107442000D02*
X143129000Y-107442000D01*
X143129000Y-107442000D02*
X165862000Y-107442000D01*
D16*
X90396000Y-101092000D02*
X105791000Y-101092000D01*
X86106000Y-120650000D02*
X108458000Y-120650000D01*
X108458000Y-120650000D02*
X129540000Y-120650000D01*
X86106000Y-118110000D02*
X105410000Y-118110000D01*
X105410000Y-118110000D02*
X132080000Y-118110000D01*
X86106000Y-102362000D02*
X125476000Y-102362000D01*
X86106000Y-87630000D02*
X125730000Y-87630000D01*
X119888000Y-108712000D02*
X125730000Y-108712000D01*
X125476000Y-102362000D02*
X125730000Y-102362000D01*
X86106000Y-99822000D02*
X128270000Y-99822000D01*
X128016000Y-85090000D02*
X128270000Y-85344000D01*
X86106000Y-85090000D02*
X128016000Y-85090000D01*
X121031000Y-104902000D02*
X128270000Y-104902000D01*
X124968000Y-84328000D02*
X124714000Y-84328000D01*
X124714000Y-84328000D02*
X124460000Y-84074000D01*
X109347000Y-98552000D02*
X133985000Y-98552000D01*
X151384000Y-84328000D02*
X133985000Y-84328000D01*
X133985000Y-84328000D02*
X124968000Y-84328000D01*
X152400000Y-84328000D02*
X151384000Y-84328000D01*
D18*
G36*
X122243368Y-75300525D02*
G01*
X122036525Y-75507368D01*
X121874010Y-75750589D01*
X121762068Y-76020842D01*
X121705000Y-76307740D01*
X121705000Y-76600260D01*
X121762068Y-76887158D01*
X121874010Y-77157411D01*
X122036525Y-77400632D01*
X122243368Y-77607475D01*
X122417760Y-77724000D01*
X122243368Y-77840525D01*
X122036525Y-78047368D01*
X121874010Y-78290589D01*
X121762068Y-78560842D01*
X121705000Y-78847740D01*
X121705000Y-79140260D01*
X121762068Y-79427158D01*
X121874010Y-79697411D01*
X122036525Y-79940632D01*
X122243368Y-80147475D01*
X122486589Y-80309990D01*
X122756842Y-80421932D01*
X123043740Y-80479000D01*
X123336260Y-80479000D01*
X123623158Y-80421932D01*
X123893411Y-80309990D01*
X124136632Y-80147475D01*
X124343475Y-79940632D01*
X124460000Y-79766240D01*
X124576525Y-79940632D01*
X124783368Y-80147475D01*
X125026589Y-80309990D01*
X125296842Y-80421932D01*
X125583740Y-80479000D01*
X125876260Y-80479000D01*
X126163158Y-80421932D01*
X126433411Y-80309990D01*
X126676632Y-80147475D01*
X126883475Y-79940632D01*
X127000000Y-79766240D01*
X127116525Y-79940632D01*
X127323368Y-80147475D01*
X127566589Y-80309990D01*
X127836842Y-80421932D01*
X128123740Y-80479000D01*
X128416260Y-80479000D01*
X128703158Y-80421932D01*
X128973411Y-80309990D01*
X129216632Y-80147475D01*
X129423475Y-79940632D01*
X129540000Y-79766240D01*
X129656525Y-79940632D01*
X129863368Y-80147475D01*
X130106589Y-80309990D01*
X130376842Y-80421932D01*
X130663740Y-80479000D01*
X130956260Y-80479000D01*
X131243158Y-80421932D01*
X131513411Y-80309990D01*
X131756632Y-80147475D01*
X131963475Y-79940632D01*
X132125990Y-79697411D01*
X132237932Y-79427158D01*
X132295000Y-79140260D01*
X132295000Y-78847740D01*
X132237932Y-78560842D01*
X132125990Y-78290589D01*
X131963475Y-78047368D01*
X131756632Y-77840525D01*
X131582240Y-77724000D01*
X131756632Y-77607475D01*
X131963475Y-77400632D01*
X132080000Y-77226240D01*
X132196525Y-77400632D01*
X132403368Y-77607475D01*
X132646589Y-77769990D01*
X132916842Y-77881932D01*
X133203740Y-77939000D01*
X133496260Y-77939000D01*
X133783158Y-77881932D01*
X134053411Y-77769990D01*
X134296632Y-77607475D01*
X134503475Y-77400632D01*
X134620000Y-77226240D01*
X134736525Y-77400632D01*
X134943368Y-77607475D01*
X135117760Y-77724000D01*
X134943368Y-77840525D01*
X134736525Y-78047368D01*
X134574010Y-78290589D01*
X134462068Y-78560842D01*
X134405000Y-78847740D01*
X134405000Y-79140260D01*
X134462068Y-79427158D01*
X134574010Y-79697411D01*
X134736525Y-79940632D01*
X134943368Y-80147475D01*
X135186589Y-80309990D01*
X135456842Y-80421932D01*
X135743740Y-80479000D01*
X136036260Y-80479000D01*
X136323158Y-80421932D01*
X136593411Y-80309990D01*
X136836632Y-80147475D01*
X137043475Y-79940632D01*
X137160000Y-79766240D01*
X137276525Y-79940632D01*
X137483368Y-80147475D01*
X137726589Y-80309990D01*
X137996842Y-80421932D01*
X138283740Y-80479000D01*
X138576260Y-80479000D01*
X138863158Y-80421932D01*
X139133411Y-80309990D01*
X139376632Y-80147475D01*
X139583475Y-79940632D01*
X139700000Y-79766240D01*
X139816525Y-79940632D01*
X140023368Y-80147475D01*
X140266589Y-80309990D01*
X140536842Y-80421932D01*
X140823740Y-80479000D01*
X141116260Y-80479000D01*
X141403158Y-80421932D01*
X141673411Y-80309990D01*
X141916632Y-80147475D01*
X142123475Y-79940632D01*
X142240000Y-79766240D01*
X142356525Y-79940632D01*
X142563368Y-80147475D01*
X142806589Y-80309990D01*
X143076842Y-80421932D01*
X143363740Y-80479000D01*
X143656260Y-80479000D01*
X143943158Y-80421932D01*
X144213411Y-80309990D01*
X144456632Y-80147475D01*
X144663475Y-79940632D01*
X144780000Y-79766240D01*
X144896525Y-79940632D01*
X145103368Y-80147475D01*
X145346589Y-80309990D01*
X145616842Y-80421932D01*
X145903740Y-80479000D01*
X146196260Y-80479000D01*
X146483158Y-80421932D01*
X146753411Y-80309990D01*
X146996632Y-80147475D01*
X147203475Y-79940632D01*
X147320000Y-79766240D01*
X147436525Y-79940632D01*
X147643368Y-80147475D01*
X147886589Y-80309990D01*
X148156842Y-80421932D01*
X148443740Y-80479000D01*
X148736260Y-80479000D01*
X149023158Y-80421932D01*
X149293411Y-80309990D01*
X149536632Y-80147475D01*
X149743475Y-79940632D01*
X149860000Y-79766240D01*
X149976525Y-79940632D01*
X150183368Y-80147475D01*
X150426589Y-80309990D01*
X150696842Y-80421932D01*
X150983740Y-80479000D01*
X151276260Y-80479000D01*
X151563158Y-80421932D01*
X151833411Y-80309990D01*
X152076632Y-80147475D01*
X152283475Y-79940632D01*
X152445990Y-79697411D01*
X152557932Y-79427158D01*
X152615000Y-79140260D01*
X152615000Y-78847740D01*
X152557932Y-78560842D01*
X152445990Y-78290589D01*
X152283475Y-78047368D01*
X152076632Y-77840525D01*
X151902240Y-77724000D01*
X152076632Y-77607475D01*
X152283475Y-77400632D01*
X152400000Y-77226240D01*
X152516525Y-77400632D01*
X152723368Y-77607475D01*
X152966589Y-77769990D01*
X153236842Y-77881932D01*
X153523740Y-77939000D01*
X153816260Y-77939000D01*
X154103158Y-77881932D01*
X154373411Y-77769990D01*
X154616632Y-77607475D01*
X154823475Y-77400632D01*
X154940000Y-77226240D01*
X155056525Y-77400632D01*
X155263368Y-77607475D01*
X155437760Y-77724000D01*
X155263368Y-77840525D01*
X155056525Y-78047368D01*
X154894010Y-78290589D01*
X154782068Y-78560842D01*
X154725000Y-78847740D01*
X154725000Y-79140260D01*
X154782068Y-79427158D01*
X154894010Y-79697411D01*
X155056525Y-79940632D01*
X155263368Y-80147475D01*
X155506589Y-80309990D01*
X155776842Y-80421932D01*
X156063740Y-80479000D01*
X156356260Y-80479000D01*
X156643158Y-80421932D01*
X156913411Y-80309990D01*
X157156632Y-80147475D01*
X157363475Y-79940632D01*
X157480000Y-79766240D01*
X157596525Y-79940632D01*
X157803368Y-80147475D01*
X158046589Y-80309990D01*
X158316842Y-80421932D01*
X158603740Y-80479000D01*
X158896260Y-80479000D01*
X159183158Y-80421932D01*
X159453411Y-80309990D01*
X159696632Y-80147475D01*
X159903475Y-79940632D01*
X160020000Y-79766240D01*
X160136525Y-79940632D01*
X160343368Y-80147475D01*
X160586589Y-80309990D01*
X160856842Y-80421932D01*
X161143740Y-80479000D01*
X161436260Y-80479000D01*
X161723158Y-80421932D01*
X161993411Y-80309990D01*
X162236632Y-80147475D01*
X162443475Y-79940632D01*
X162560000Y-79766240D01*
X162676525Y-79940632D01*
X162883368Y-80147475D01*
X163126589Y-80309990D01*
X163396842Y-80421932D01*
X163683740Y-80479000D01*
X163976260Y-80479000D01*
X164263158Y-80421932D01*
X164533411Y-80309990D01*
X164776632Y-80147475D01*
X164983475Y-79940632D01*
X165100000Y-79766240D01*
X165216525Y-79940632D01*
X165423368Y-80147475D01*
X165666589Y-80309990D01*
X165936842Y-80421932D01*
X166223740Y-80479000D01*
X166516260Y-80479000D01*
X166803158Y-80421932D01*
X167073411Y-80309990D01*
X167316632Y-80147475D01*
X167523475Y-79940632D01*
X167640000Y-79766240D01*
X167756525Y-79940632D01*
X167963368Y-80147475D01*
X168206589Y-80309990D01*
X168476842Y-80421932D01*
X168763740Y-80479000D01*
X169056260Y-80479000D01*
X169343158Y-80421932D01*
X169613411Y-80309990D01*
X169856632Y-80147475D01*
X170063475Y-79940632D01*
X170225990Y-79697411D01*
X170337932Y-79427158D01*
X170395000Y-79140260D01*
X170395000Y-78847740D01*
X170337932Y-78560842D01*
X170225990Y-78290589D01*
X170063475Y-78047368D01*
X169856632Y-77840525D01*
X169682240Y-77724000D01*
X169856632Y-77607475D01*
X170063475Y-77400632D01*
X170180000Y-77226240D01*
X170296525Y-77400632D01*
X170503368Y-77607475D01*
X170746589Y-77769990D01*
X171016842Y-77881932D01*
X171303740Y-77939000D01*
X171596260Y-77939000D01*
X171883158Y-77881932D01*
X172153411Y-77769990D01*
X172396632Y-77607475D01*
X172603475Y-77400632D01*
X172765990Y-77157411D01*
X172877932Y-76887158D01*
X172935000Y-76600260D01*
X172935000Y-76307740D01*
X172877932Y-76020842D01*
X172765990Y-75750589D01*
X172603475Y-75507368D01*
X172396632Y-75300525D01*
X172181832Y-75157000D01*
X177002054Y-75157000D01*
X177289236Y-75185158D01*
X177530907Y-75258123D01*
X177753799Y-75376637D01*
X177949427Y-75536187D01*
X178110340Y-75730699D01*
X178230407Y-75952756D01*
X178305056Y-76193912D01*
X178335000Y-76478811D01*
X178335000Y-77009617D01*
X178212012Y-76712698D01*
X177978363Y-76363017D01*
X177680983Y-76065637D01*
X177331302Y-75831988D01*
X176942756Y-75671047D01*
X176530279Y-75589000D01*
X176109721Y-75589000D01*
X175697244Y-75671047D01*
X175308698Y-75831988D01*
X174959017Y-76065637D01*
X174661637Y-76363017D01*
X174427988Y-76712698D01*
X174267047Y-77101244D01*
X174185000Y-77513721D01*
X174185000Y-77934279D01*
X174267047Y-78346756D01*
X174427988Y-78735302D01*
X174661637Y-79084983D01*
X174959017Y-79382363D01*
X175308698Y-79616012D01*
X175697244Y-79776953D01*
X176109721Y-79859000D01*
X176530279Y-79859000D01*
X176942756Y-79776953D01*
X177331302Y-79616012D01*
X177680983Y-79382363D01*
X177978363Y-79084983D01*
X178212012Y-78735302D01*
X178335000Y-78438383D01*
X178335001Y-126009620D01*
X178212012Y-125712698D01*
X177978363Y-125363017D01*
X177680983Y-125065637D01*
X177331302Y-124831988D01*
X176942756Y-124671047D01*
X176530279Y-124589000D01*
X176109721Y-124589000D01*
X175697244Y-124671047D01*
X175308698Y-124831988D01*
X174959017Y-125065637D01*
X174661637Y-125363017D01*
X174427988Y-125712698D01*
X174267047Y-126101244D01*
X174185000Y-126513721D01*
X174185000Y-126934279D01*
X174267047Y-127346756D01*
X174427988Y-127735302D01*
X174661637Y-128084983D01*
X174959017Y-128382363D01*
X175308698Y-128616012D01*
X175697244Y-128776953D01*
X176109721Y-128859000D01*
X176530279Y-128859000D01*
X176942756Y-128776953D01*
X177331302Y-128616012D01*
X177680983Y-128382363D01*
X177978363Y-128084983D01*
X178212012Y-127735302D01*
X178335001Y-127438380D01*
X178335001Y-128741885D01*
X178331444Y-128778000D01*
X178345635Y-128922085D01*
X178387663Y-129060633D01*
X178455913Y-129188320D01*
X178547762Y-129300238D01*
X178659680Y-129392087D01*
X178787367Y-129460337D01*
X178925915Y-129502365D01*
X179033895Y-129513000D01*
X179070000Y-129516556D01*
X179106105Y-129513000D01*
X194782054Y-129513000D01*
X195069236Y-129541158D01*
X195310907Y-129614123D01*
X195533799Y-129732637D01*
X195729427Y-129892187D01*
X195890340Y-130086699D01*
X196010407Y-130308756D01*
X196085056Y-130549912D01*
X196115000Y-130834811D01*
X196115001Y-138311134D01*
X195845223Y-138394644D01*
X195783779Y-138420473D01*
X195722045Y-138445415D01*
X195712989Y-138450230D01*
X195712985Y-138450232D01*
X195712984Y-138450233D01*
X195364135Y-138638855D01*
X195308892Y-138676117D01*
X195253167Y-138712582D01*
X195245217Y-138719066D01*
X195245213Y-138719069D01*
X195245209Y-138719073D01*
X194939646Y-138971855D01*
X194892668Y-139019162D01*
X194845110Y-139065734D01*
X194838568Y-139073641D01*
X194587920Y-139380967D01*
X194551042Y-139436472D01*
X194513419Y-139491419D01*
X194508537Y-139500446D01*
X194322356Y-139850603D01*
X194296953Y-139912235D01*
X194270727Y-139973424D01*
X194267692Y-139983227D01*
X194153069Y-140362878D01*
X194140127Y-140428238D01*
X194126280Y-140493386D01*
X194125207Y-140503592D01*
X194086508Y-140898277D01*
X194086508Y-140930396D01*
X194083040Y-140962328D01*
X194083005Y-140972591D01*
X194083055Y-140986776D01*
X194086299Y-141018704D01*
X194086075Y-141050800D01*
X194087076Y-141061013D01*
X194128529Y-141455417D01*
X194141932Y-141520711D01*
X194154408Y-141586111D01*
X194157373Y-141595935D01*
X194274644Y-141974778D01*
X194300483Y-142036246D01*
X194325415Y-142097955D01*
X194330233Y-142107017D01*
X194518855Y-142455865D01*
X194556117Y-142511108D01*
X194592582Y-142566833D01*
X194599068Y-142574786D01*
X194851855Y-142880354D01*
X194899130Y-142927299D01*
X194945735Y-142974891D01*
X194953642Y-142981432D01*
X195260967Y-143232081D01*
X195316491Y-143268971D01*
X195371419Y-143306581D01*
X195380443Y-143311461D01*
X195380451Y-143311465D01*
X195730603Y-143497644D01*
X195792207Y-143523035D01*
X195853424Y-143549273D01*
X195863227Y-143552308D01*
X196115000Y-143628323D01*
X196115001Y-151602043D01*
X196086842Y-151889236D01*
X196013878Y-152130903D01*
X195895363Y-152353798D01*
X195735813Y-152549427D01*
X195541300Y-152710341D01*
X195319244Y-152830407D01*
X195078090Y-152905056D01*
X194793189Y-152935000D01*
X74457946Y-152935000D01*
X74170764Y-152906842D01*
X73929097Y-152833878D01*
X73706202Y-152715363D01*
X73510573Y-152555813D01*
X73349659Y-152361300D01*
X73229593Y-152139244D01*
X73154944Y-151898090D01*
X73125000Y-151613189D01*
X73125000Y-143628866D01*
X73394778Y-143545356D01*
X73456246Y-143519517D01*
X73517955Y-143494585D01*
X73527012Y-143489770D01*
X73527016Y-143489768D01*
X73527019Y-143489766D01*
X73875865Y-143301145D01*
X73931108Y-143263883D01*
X73986833Y-143227418D01*
X73994786Y-143220932D01*
X74300354Y-142968145D01*
X74347299Y-142920870D01*
X74394891Y-142874265D01*
X74401432Y-142866358D01*
X74652081Y-142559033D01*
X74688971Y-142503509D01*
X74726581Y-142448581D01*
X74731462Y-142439554D01*
X74917644Y-142089397D01*
X74943035Y-142027793D01*
X74969273Y-141966576D01*
X74972308Y-141956773D01*
X75086931Y-141577122D01*
X75099874Y-141511754D01*
X75113720Y-141446613D01*
X75114793Y-141436407D01*
X75153492Y-141041723D01*
X75153492Y-141009604D01*
X75156960Y-140977672D01*
X75156995Y-140967409D01*
X75156945Y-140953223D01*
X75153701Y-140921295D01*
X75153925Y-140889199D01*
X75152924Y-140878986D01*
X75111471Y-140484583D01*
X75098073Y-140419313D01*
X75085593Y-140353890D01*
X75082627Y-140344065D01*
X74965356Y-139965223D01*
X74939527Y-139903779D01*
X74914585Y-139842045D01*
X74909767Y-139832984D01*
X74721145Y-139484135D01*
X74683883Y-139428892D01*
X74647418Y-139373167D01*
X74640932Y-139365215D01*
X74640931Y-139365213D01*
X74640927Y-139365209D01*
X74388145Y-139059646D01*
X74340838Y-139012668D01*
X74294266Y-138965110D01*
X74286359Y-138958568D01*
X73979033Y-138707920D01*
X73923528Y-138671042D01*
X73868581Y-138633419D01*
X73859554Y-138628537D01*
X73509397Y-138442356D01*
X73447765Y-138416953D01*
X73386576Y-138390727D01*
X73376777Y-138387693D01*
X73376771Y-138387691D01*
X73125000Y-138311678D01*
X73125000Y-126513721D01*
X116185000Y-126513721D01*
X116185000Y-126934279D01*
X116267047Y-127346756D01*
X116427988Y-127735302D01*
X116661637Y-128084983D01*
X116959017Y-128382363D01*
X117308698Y-128616012D01*
X117697244Y-128776953D01*
X118109721Y-128859000D01*
X118530279Y-128859000D01*
X118942756Y-128776953D01*
X119331302Y-128616012D01*
X119680983Y-128382363D01*
X119978363Y-128084983D01*
X120212012Y-127735302D01*
X120372953Y-127346756D01*
X120455000Y-126934279D01*
X120455000Y-126513721D01*
X120372953Y-126101244D01*
X120212012Y-125712698D01*
X119978363Y-125363017D01*
X119680983Y-125065637D01*
X119331302Y-124831988D01*
X118942756Y-124671047D01*
X118530279Y-124589000D01*
X118109721Y-124589000D01*
X117697244Y-124671047D01*
X117308698Y-124831988D01*
X116959017Y-125065637D01*
X116661637Y-125363017D01*
X116427988Y-125712698D01*
X116267047Y-126101244D01*
X116185000Y-126513721D01*
X73125000Y-126513721D01*
X73125000Y-121687560D01*
X75110000Y-121687560D01*
X75110000Y-122152440D01*
X75200694Y-122608387D01*
X75378595Y-123037879D01*
X75636868Y-123424412D01*
X75965588Y-123753132D01*
X76352121Y-124011405D01*
X76781613Y-124189306D01*
X77237560Y-124280000D01*
X77702440Y-124280000D01*
X78158387Y-124189306D01*
X78587879Y-124011405D01*
X78974412Y-123753132D01*
X79303132Y-123424412D01*
X79561405Y-123037879D01*
X79739306Y-122608387D01*
X79830000Y-122152440D01*
X79830000Y-121687560D01*
X79739306Y-121231613D01*
X79561405Y-120802121D01*
X79303132Y-120415588D01*
X78974412Y-120086868D01*
X78587879Y-119828595D01*
X78158387Y-119650694D01*
X77702440Y-119560000D01*
X77237560Y-119560000D01*
X76781613Y-119650694D01*
X76352121Y-119828595D01*
X75965588Y-120086868D01*
X75636868Y-120415588D01*
X75378595Y-120802121D01*
X75200694Y-121231613D01*
X75110000Y-121687560D01*
X73125000Y-121687560D01*
X73125000Y-117972408D01*
X84709000Y-117972408D01*
X84709000Y-118247592D01*
X84762686Y-118517490D01*
X84867995Y-118771727D01*
X85020880Y-119000535D01*
X85215465Y-119195120D01*
X85444273Y-119348005D01*
X85521515Y-119380000D01*
X85444273Y-119411995D01*
X85215465Y-119564880D01*
X85020880Y-119759465D01*
X84867995Y-119988273D01*
X84762686Y-120242510D01*
X84709000Y-120512408D01*
X84709000Y-120787592D01*
X84762686Y-121057490D01*
X84867995Y-121311727D01*
X85020880Y-121540535D01*
X85215465Y-121735120D01*
X85444273Y-121888005D01*
X85698510Y-121993314D01*
X85968408Y-122047000D01*
X86243592Y-122047000D01*
X86513490Y-121993314D01*
X86767727Y-121888005D01*
X86996535Y-121735120D01*
X87191120Y-121540535D01*
X87234575Y-121475500D01*
X107830497Y-121475500D01*
X107967744Y-121567205D01*
X108156102Y-121645226D01*
X108356061Y-121685000D01*
X108559939Y-121685000D01*
X108759898Y-121645226D01*
X108948256Y-121567205D01*
X109085503Y-121475500D01*
X128912497Y-121475500D01*
X129049744Y-121567205D01*
X129238102Y-121645226D01*
X129438061Y-121685000D01*
X129641939Y-121685000D01*
X129841898Y-121645226D01*
X130030256Y-121567205D01*
X130199774Y-121453937D01*
X130343937Y-121309774D01*
X130457205Y-121140256D01*
X130535226Y-120951898D01*
X130575000Y-120751939D01*
X130575000Y-120548061D01*
X130535226Y-120348102D01*
X130457205Y-120159744D01*
X130343937Y-119990226D01*
X130199774Y-119846063D01*
X130030256Y-119732795D01*
X129841898Y-119654774D01*
X129641939Y-119615000D01*
X129438061Y-119615000D01*
X129238102Y-119654774D01*
X129049744Y-119732795D01*
X128912497Y-119824500D01*
X109085503Y-119824500D01*
X108948256Y-119732795D01*
X108759898Y-119654774D01*
X108559939Y-119615000D01*
X108356061Y-119615000D01*
X108156102Y-119654774D01*
X107967744Y-119732795D01*
X107830497Y-119824500D01*
X87234575Y-119824500D01*
X87191120Y-119759465D01*
X86996535Y-119564880D01*
X86767727Y-119411995D01*
X86690485Y-119380000D01*
X86767727Y-119348005D01*
X86996535Y-119195120D01*
X87191120Y-119000535D01*
X87234575Y-118935500D01*
X104782497Y-118935500D01*
X104919744Y-119027205D01*
X105108102Y-119105226D01*
X105308061Y-119145000D01*
X105511939Y-119145000D01*
X105711898Y-119105226D01*
X105900256Y-119027205D01*
X106037503Y-118935500D01*
X131452497Y-118935500D01*
X131589744Y-119027205D01*
X131778102Y-119105226D01*
X131978061Y-119145000D01*
X132181939Y-119145000D01*
X132381898Y-119105226D01*
X132570256Y-119027205D01*
X132739774Y-118913937D01*
X132883937Y-118769774D01*
X132997205Y-118600256D01*
X133075226Y-118411898D01*
X133115000Y-118211939D01*
X133115000Y-118008061D01*
X133075226Y-117808102D01*
X132997205Y-117619744D01*
X132883937Y-117450226D01*
X132739774Y-117306063D01*
X132570256Y-117192795D01*
X132381898Y-117114774D01*
X132181939Y-117075000D01*
X131978061Y-117075000D01*
X131778102Y-117114774D01*
X131589744Y-117192795D01*
X131452497Y-117284500D01*
X106037503Y-117284500D01*
X105900256Y-117192795D01*
X105711898Y-117114774D01*
X105511939Y-117075000D01*
X105308061Y-117075000D01*
X105108102Y-117114774D01*
X104919744Y-117192795D01*
X104782497Y-117284500D01*
X87234575Y-117284500D01*
X87191120Y-117219465D01*
X86996535Y-117024880D01*
X86767727Y-116871995D01*
X86513490Y-116766686D01*
X86243592Y-116713000D01*
X85968408Y-116713000D01*
X85698510Y-116766686D01*
X85444273Y-116871995D01*
X85215465Y-117024880D01*
X85020880Y-117219465D01*
X84867995Y-117448273D01*
X84762686Y-117702510D01*
X84709000Y-117972408D01*
X73125000Y-117972408D01*
X73125000Y-114067560D01*
X75110000Y-114067560D01*
X75110000Y-114532440D01*
X75200694Y-114988387D01*
X75378595Y-115417879D01*
X75636868Y-115804412D01*
X75965588Y-116133132D01*
X76352121Y-116391405D01*
X76781613Y-116569306D01*
X77237560Y-116660000D01*
X77702440Y-116660000D01*
X78158387Y-116569306D01*
X78587879Y-116391405D01*
X78974412Y-116133132D01*
X79303132Y-115804412D01*
X79561405Y-115417879D01*
X79739306Y-114988387D01*
X79830000Y-114532440D01*
X79830000Y-114067560D01*
X79739306Y-113611613D01*
X79561405Y-113182121D01*
X79303132Y-112795588D01*
X79097834Y-112590290D01*
X157734000Y-112590290D01*
X157734000Y-113215710D01*
X157856014Y-113829113D01*
X158095352Y-114406926D01*
X158442817Y-114926944D01*
X158885056Y-115369183D01*
X159405074Y-115716648D01*
X159982887Y-115955986D01*
X160596290Y-116078000D01*
X161221710Y-116078000D01*
X161835113Y-115955986D01*
X162412926Y-115716648D01*
X162932944Y-115369183D01*
X163375183Y-114926944D01*
X163722648Y-114406926D01*
X163961986Y-113829113D01*
X164084000Y-113215710D01*
X164084000Y-112590290D01*
X163961986Y-111976887D01*
X163722648Y-111399074D01*
X163375183Y-110879056D01*
X162932944Y-110436817D01*
X162412926Y-110089352D01*
X161835113Y-109850014D01*
X161221710Y-109728000D01*
X160596290Y-109728000D01*
X159982887Y-109850014D01*
X159405074Y-110089352D01*
X158885056Y-110436817D01*
X158442817Y-110879056D01*
X158095352Y-111399074D01*
X157856014Y-111976887D01*
X157734000Y-112590290D01*
X79097834Y-112590290D01*
X78974412Y-112466868D01*
X78587879Y-112208595D01*
X78158387Y-112030694D01*
X77702440Y-111940000D01*
X77237560Y-111940000D01*
X76781613Y-112030694D01*
X76352121Y-112208595D01*
X75965588Y-112466868D01*
X75636868Y-112795588D01*
X75378595Y-113182121D01*
X75200694Y-113611613D01*
X75110000Y-114067560D01*
X73125000Y-114067560D01*
X73125000Y-108479560D01*
X75110000Y-108479560D01*
X75110000Y-108944440D01*
X75200694Y-109400387D01*
X75378595Y-109829879D01*
X75636868Y-110216412D01*
X75965588Y-110545132D01*
X76352121Y-110803405D01*
X76781613Y-110981306D01*
X77237560Y-111072000D01*
X77702440Y-111072000D01*
X78158387Y-110981306D01*
X78587879Y-110803405D01*
X78974412Y-110545132D01*
X79303132Y-110216412D01*
X79561405Y-109829879D01*
X79739306Y-109400387D01*
X79830000Y-108944440D01*
X79830000Y-108479560D01*
X79739306Y-108023613D01*
X79561405Y-107594121D01*
X79367826Y-107304408D01*
X84709000Y-107304408D01*
X84709000Y-107579592D01*
X84762686Y-107849490D01*
X84867995Y-108103727D01*
X85020880Y-108332535D01*
X85215465Y-108527120D01*
X85444273Y-108680005D01*
X85698510Y-108785314D01*
X85968408Y-108839000D01*
X86243592Y-108839000D01*
X86513490Y-108785314D01*
X86767727Y-108680005D01*
X86996535Y-108527120D01*
X87065655Y-108458000D01*
X90226541Y-108458000D01*
X90322061Y-108477000D01*
X90525939Y-108477000D01*
X90621459Y-108458000D01*
X118883247Y-108458000D01*
X118853000Y-108610061D01*
X118853000Y-108813939D01*
X118892774Y-109013898D01*
X118970795Y-109202256D01*
X119084063Y-109371774D01*
X119228226Y-109515937D01*
X119397744Y-109629205D01*
X119586102Y-109707226D01*
X119786061Y-109747000D01*
X119989939Y-109747000D01*
X120189898Y-109707226D01*
X120378256Y-109629205D01*
X120515503Y-109537500D01*
X125102497Y-109537500D01*
X125239744Y-109629205D01*
X125428102Y-109707226D01*
X125628061Y-109747000D01*
X125831939Y-109747000D01*
X126031898Y-109707226D01*
X126220256Y-109629205D01*
X126389774Y-109515937D01*
X126533937Y-109371774D01*
X126647205Y-109202256D01*
X126725226Y-109013898D01*
X126765000Y-108813939D01*
X126765000Y-108610061D01*
X126734753Y-108458000D01*
X143079098Y-108458000D01*
X143129000Y-108462915D01*
X143178902Y-108458000D01*
X165812098Y-108458000D01*
X165862000Y-108462915D01*
X165911902Y-108458000D01*
X166061171Y-108443298D01*
X166252687Y-108385202D01*
X166429190Y-108290860D01*
X166583896Y-108163896D01*
X166615713Y-108125127D01*
X167053127Y-107687713D01*
X167091896Y-107655896D01*
X167218860Y-107501190D01*
X167313202Y-107324687D01*
X167353674Y-107191268D01*
X167371298Y-107133172D01*
X167381015Y-107034510D01*
X167386000Y-106983902D01*
X167386000Y-106983895D01*
X167390914Y-106934001D01*
X167386000Y-106884107D01*
X167386000Y-106369655D01*
X167455120Y-106300535D01*
X167608005Y-106071727D01*
X167713314Y-105817490D01*
X167767000Y-105547592D01*
X167767000Y-105272408D01*
X167713314Y-105002510D01*
X167608005Y-104748273D01*
X167455120Y-104519465D01*
X167260535Y-104324880D01*
X167031727Y-104171995D01*
X166777490Y-104066686D01*
X166507592Y-104013000D01*
X166232408Y-104013000D01*
X165962510Y-104066686D01*
X165708273Y-104171995D01*
X165479465Y-104324880D01*
X165284880Y-104519465D01*
X165131995Y-104748273D01*
X165026686Y-105002510D01*
X164973000Y-105272408D01*
X164973000Y-105547592D01*
X165026686Y-105817490D01*
X165131995Y-106071727D01*
X165284880Y-106300535D01*
X165354000Y-106369655D01*
X165354000Y-106426000D01*
X144145000Y-106426000D01*
X144145000Y-105538050D01*
X144173180Y-105529502D01*
X144283494Y-105470537D01*
X144380185Y-105391185D01*
X144459537Y-105294494D01*
X144518502Y-105184180D01*
X144554812Y-105064482D01*
X144567072Y-104940000D01*
X144567072Y-103340000D01*
X144554812Y-103215518D01*
X144518502Y-103095820D01*
X144459537Y-102985506D01*
X144380185Y-102888815D01*
X144283494Y-102809463D01*
X144173180Y-102750498D01*
X144053482Y-102714188D01*
X143929000Y-102701928D01*
X142329000Y-102701928D01*
X142204518Y-102714188D01*
X142084820Y-102750498D01*
X141974506Y-102809463D01*
X141877815Y-102888815D01*
X141798463Y-102985506D01*
X141739498Y-103095820D01*
X141703188Y-103215518D01*
X141690928Y-103340000D01*
X141690928Y-104940000D01*
X141703188Y-105064482D01*
X141739498Y-105184180D01*
X141798463Y-105294494D01*
X141877815Y-105391185D01*
X141974506Y-105470537D01*
X142084820Y-105529502D01*
X142113000Y-105538050D01*
X142113001Y-106426000D01*
X90621459Y-106426000D01*
X90525939Y-106407000D01*
X90322061Y-106407000D01*
X90226541Y-106426000D01*
X87065655Y-106426000D01*
X86996535Y-106356880D01*
X86767727Y-106203995D01*
X86513490Y-106098686D01*
X86243592Y-106045000D01*
X85968408Y-106045000D01*
X85698510Y-106098686D01*
X85444273Y-106203995D01*
X85215465Y-106356880D01*
X85020880Y-106551465D01*
X84867995Y-106780273D01*
X84762686Y-107034510D01*
X84709000Y-107304408D01*
X79367826Y-107304408D01*
X79303132Y-107207588D01*
X78974412Y-106878868D01*
X78587879Y-106620595D01*
X78158387Y-106442694D01*
X77702440Y-106352000D01*
X77237560Y-106352000D01*
X76781613Y-106442694D01*
X76352121Y-106620595D01*
X75965588Y-106878868D01*
X75636868Y-107207588D01*
X75378595Y-107594121D01*
X75200694Y-108023613D01*
X75110000Y-108479560D01*
X73125000Y-108479560D01*
X73125000Y-104800061D01*
X119996000Y-104800061D01*
X119996000Y-105003939D01*
X120035774Y-105203898D01*
X120113795Y-105392256D01*
X120227063Y-105561774D01*
X120371226Y-105705937D01*
X120540744Y-105819205D01*
X120729102Y-105897226D01*
X120929061Y-105937000D01*
X121132939Y-105937000D01*
X121332898Y-105897226D01*
X121521256Y-105819205D01*
X121658503Y-105727500D01*
X127642497Y-105727500D01*
X127779744Y-105819205D01*
X127968102Y-105897226D01*
X128168061Y-105937000D01*
X128371939Y-105937000D01*
X128571898Y-105897226D01*
X128760256Y-105819205D01*
X128929774Y-105705937D01*
X129073937Y-105561774D01*
X129187205Y-105392256D01*
X129265226Y-105203898D01*
X129305000Y-105003939D01*
X129305000Y-104800061D01*
X129265226Y-104600102D01*
X129187205Y-104411744D01*
X129073937Y-104242226D01*
X128929774Y-104098063D01*
X128760256Y-103984795D01*
X128571898Y-103906774D01*
X128371939Y-103867000D01*
X128168061Y-103867000D01*
X127968102Y-103906774D01*
X127779744Y-103984795D01*
X127642497Y-104076500D01*
X121658503Y-104076500D01*
X121521256Y-103984795D01*
X121332898Y-103906774D01*
X121132939Y-103867000D01*
X120929061Y-103867000D01*
X120729102Y-103906774D01*
X120540744Y-103984795D01*
X120371226Y-104098063D01*
X120227063Y-104242226D01*
X120113795Y-104411744D01*
X120035774Y-104600102D01*
X119996000Y-104800061D01*
X73125000Y-104800061D01*
X73125000Y-93747560D01*
X75110000Y-93747560D01*
X75110000Y-94212440D01*
X75200694Y-94668387D01*
X75378595Y-95097879D01*
X75636868Y-95484412D01*
X75965588Y-95813132D01*
X76352121Y-96071405D01*
X76781613Y-96249306D01*
X76865539Y-96266000D01*
X76781613Y-96282694D01*
X76352121Y-96460595D01*
X75965588Y-96718868D01*
X75636868Y-97047588D01*
X75378595Y-97434121D01*
X75200694Y-97863613D01*
X75110000Y-98319560D01*
X75110000Y-98784440D01*
X75200694Y-99240387D01*
X75378595Y-99669879D01*
X75636868Y-100056412D01*
X75965588Y-100385132D01*
X76352121Y-100643405D01*
X76781613Y-100821306D01*
X77237560Y-100912000D01*
X77702440Y-100912000D01*
X78158387Y-100821306D01*
X78587879Y-100643405D01*
X78974412Y-100385132D01*
X79303132Y-100056412D01*
X79551697Y-99684408D01*
X84709000Y-99684408D01*
X84709000Y-99959592D01*
X84762686Y-100229490D01*
X84867995Y-100483727D01*
X85020880Y-100712535D01*
X85215465Y-100907120D01*
X85444273Y-101060005D01*
X85521515Y-101092000D01*
X85444273Y-101123995D01*
X85215465Y-101276880D01*
X85020880Y-101471465D01*
X84867995Y-101700273D01*
X84762686Y-101954510D01*
X84709000Y-102224408D01*
X84709000Y-102499592D01*
X84762686Y-102769490D01*
X84867995Y-103023727D01*
X85020880Y-103252535D01*
X85215465Y-103447120D01*
X85444273Y-103600005D01*
X85698510Y-103705314D01*
X85968408Y-103759000D01*
X86243592Y-103759000D01*
X86513490Y-103705314D01*
X86767727Y-103600005D01*
X86996535Y-103447120D01*
X87191120Y-103252535D01*
X87234575Y-103187500D01*
X125102497Y-103187500D01*
X125239744Y-103279205D01*
X125428102Y-103357226D01*
X125628061Y-103397000D01*
X125831939Y-103397000D01*
X126031898Y-103357226D01*
X126220256Y-103279205D01*
X126389774Y-103165937D01*
X126533937Y-103021774D01*
X126647205Y-102852256D01*
X126725226Y-102663898D01*
X126765000Y-102463939D01*
X126765000Y-102260061D01*
X126725226Y-102060102D01*
X126647205Y-101871744D01*
X126533937Y-101702226D01*
X126389774Y-101558063D01*
X126220256Y-101444795D01*
X126031898Y-101366774D01*
X125831939Y-101327000D01*
X125628061Y-101327000D01*
X125428102Y-101366774D01*
X125239744Y-101444795D01*
X125102497Y-101536500D01*
X106727158Y-101536500D01*
X106786226Y-101393898D01*
X106826000Y-101193939D01*
X106826000Y-100990061D01*
X106786226Y-100790102D01*
X106727158Y-100647500D01*
X127642497Y-100647500D01*
X127779744Y-100739205D01*
X127968102Y-100817226D01*
X128168061Y-100857000D01*
X128371939Y-100857000D01*
X128571898Y-100817226D01*
X128760256Y-100739205D01*
X128929774Y-100625937D01*
X129073937Y-100481774D01*
X129187205Y-100312256D01*
X129236848Y-100192408D01*
X164973000Y-100192408D01*
X164973000Y-100467592D01*
X165026686Y-100737490D01*
X165131995Y-100991727D01*
X165284880Y-101220535D01*
X165479465Y-101415120D01*
X165708273Y-101568005D01*
X165962510Y-101673314D01*
X166232408Y-101727000D01*
X166507592Y-101727000D01*
X166777490Y-101673314D01*
X167031727Y-101568005D01*
X167260535Y-101415120D01*
X167455120Y-101220535D01*
X167608005Y-100991727D01*
X167713314Y-100737490D01*
X167767000Y-100467592D01*
X167767000Y-100192408D01*
X167713314Y-99922510D01*
X167608005Y-99668273D01*
X167455120Y-99439465D01*
X167260535Y-99244880D01*
X167031727Y-99091995D01*
X166777490Y-98986686D01*
X166507592Y-98933000D01*
X166232408Y-98933000D01*
X165962510Y-98986686D01*
X165708273Y-99091995D01*
X165479465Y-99244880D01*
X165284880Y-99439465D01*
X165131995Y-99668273D01*
X165026686Y-99922510D01*
X164973000Y-100192408D01*
X129236848Y-100192408D01*
X129265226Y-100123898D01*
X129305000Y-99923939D01*
X129305000Y-99720061D01*
X129265226Y-99520102D01*
X129206158Y-99377500D01*
X133357497Y-99377500D01*
X133494744Y-99469205D01*
X133683102Y-99547226D01*
X133883061Y-99587000D01*
X134086939Y-99587000D01*
X134286898Y-99547226D01*
X134475256Y-99469205D01*
X134644774Y-99355937D01*
X134788937Y-99211774D01*
X134902205Y-99042256D01*
X134980226Y-98853898D01*
X135020000Y-98653939D01*
X135020000Y-98450061D01*
X134980226Y-98250102D01*
X134902205Y-98061744D01*
X134788937Y-97892226D01*
X134644774Y-97748063D01*
X134475256Y-97634795D01*
X134286898Y-97556774D01*
X134086939Y-97517000D01*
X133883061Y-97517000D01*
X133683102Y-97556774D01*
X133494744Y-97634795D01*
X133357497Y-97726500D01*
X109974503Y-97726500D01*
X109837256Y-97634795D01*
X109648898Y-97556774D01*
X109448939Y-97517000D01*
X109245061Y-97517000D01*
X109045102Y-97556774D01*
X108856744Y-97634795D01*
X108687226Y-97748063D01*
X108543063Y-97892226D01*
X108429795Y-98061744D01*
X108351774Y-98250102D01*
X108312000Y-98450061D01*
X108312000Y-98653939D01*
X108351774Y-98853898D01*
X108410842Y-98996500D01*
X87234575Y-98996500D01*
X87191120Y-98931465D01*
X86996535Y-98736880D01*
X86767727Y-98583995D01*
X86513490Y-98478686D01*
X86243592Y-98425000D01*
X85968408Y-98425000D01*
X85698510Y-98478686D01*
X85444273Y-98583995D01*
X85215465Y-98736880D01*
X85020880Y-98931465D01*
X84867995Y-99160273D01*
X84762686Y-99414510D01*
X84709000Y-99684408D01*
X79551697Y-99684408D01*
X79561405Y-99669879D01*
X79739306Y-99240387D01*
X79830000Y-98784440D01*
X79830000Y-98319560D01*
X79739306Y-97863613D01*
X79561405Y-97434121D01*
X79303132Y-97047588D01*
X78974412Y-96718868D01*
X78587879Y-96460595D01*
X78158387Y-96282694D01*
X78074461Y-96266000D01*
X78158387Y-96249306D01*
X78587879Y-96071405D01*
X78974412Y-95813132D01*
X79303132Y-95484412D01*
X79561405Y-95097879D01*
X79739306Y-94668387D01*
X79830000Y-94212440D01*
X79830000Y-93747560D01*
X79739306Y-93291613D01*
X79561405Y-92862121D01*
X79367826Y-92572408D01*
X84709000Y-92572408D01*
X84709000Y-92847592D01*
X84762686Y-93117490D01*
X84867995Y-93371727D01*
X85020880Y-93600535D01*
X85215465Y-93795120D01*
X85444273Y-93948005D01*
X85698510Y-94053314D01*
X85968408Y-94107000D01*
X86243592Y-94107000D01*
X86513490Y-94053314D01*
X86767727Y-93948005D01*
X86996535Y-93795120D01*
X87065655Y-93726000D01*
X90198541Y-93726000D01*
X90294061Y-93745000D01*
X90497939Y-93745000D01*
X90697898Y-93705226D01*
X90886256Y-93627205D01*
X91055774Y-93513937D01*
X91199937Y-93369774D01*
X91313205Y-93200256D01*
X91391226Y-93011898D01*
X91431000Y-92811939D01*
X91431000Y-92608061D01*
X91391226Y-92408102D01*
X91313205Y-92219744D01*
X91199937Y-92050226D01*
X91055774Y-91906063D01*
X90886256Y-91792795D01*
X90697898Y-91714774D01*
X90497939Y-91675000D01*
X90294061Y-91675000D01*
X90198541Y-91694000D01*
X87065655Y-91694000D01*
X86996535Y-91624880D01*
X86767727Y-91471995D01*
X86513490Y-91366686D01*
X86243592Y-91313000D01*
X85968408Y-91313000D01*
X85698510Y-91366686D01*
X85444273Y-91471995D01*
X85215465Y-91624880D01*
X85020880Y-91819465D01*
X84867995Y-92048273D01*
X84762686Y-92302510D01*
X84709000Y-92572408D01*
X79367826Y-92572408D01*
X79303132Y-92475588D01*
X78974412Y-92146868D01*
X78587879Y-91888595D01*
X78158387Y-91710694D01*
X77702440Y-91620000D01*
X77237560Y-91620000D01*
X76781613Y-91710694D01*
X76352121Y-91888595D01*
X75965588Y-92146868D01*
X75636868Y-92475588D01*
X75378595Y-92862121D01*
X75200694Y-93291613D01*
X75110000Y-93747560D01*
X73125000Y-93747560D01*
X73125000Y-83587560D01*
X75110000Y-83587560D01*
X75110000Y-84052440D01*
X75200694Y-84508387D01*
X75378595Y-84937879D01*
X75636868Y-85324412D01*
X75965588Y-85653132D01*
X76352121Y-85911405D01*
X76781613Y-86089306D01*
X77237560Y-86180000D01*
X77702440Y-86180000D01*
X78158387Y-86089306D01*
X78587879Y-85911405D01*
X78974412Y-85653132D01*
X79303132Y-85324412D01*
X79551697Y-84952408D01*
X84709000Y-84952408D01*
X84709000Y-85227592D01*
X84762686Y-85497490D01*
X84867995Y-85751727D01*
X85020880Y-85980535D01*
X85215465Y-86175120D01*
X85444273Y-86328005D01*
X85521515Y-86360000D01*
X85444273Y-86391995D01*
X85215465Y-86544880D01*
X85020880Y-86739465D01*
X84867995Y-86968273D01*
X84762686Y-87222510D01*
X84709000Y-87492408D01*
X84709000Y-87767592D01*
X84762686Y-88037490D01*
X84867995Y-88291727D01*
X85020880Y-88520535D01*
X85215465Y-88715120D01*
X85444273Y-88868005D01*
X85698510Y-88973314D01*
X85968408Y-89027000D01*
X86243592Y-89027000D01*
X86513490Y-88973314D01*
X86767727Y-88868005D01*
X86996535Y-88715120D01*
X87191120Y-88520535D01*
X87234575Y-88455500D01*
X107925953Y-88455500D01*
X107840744Y-88490795D01*
X107671226Y-88604063D01*
X107527063Y-88748226D01*
X107413795Y-88917744D01*
X107335774Y-89106102D01*
X107296000Y-89306061D01*
X107296000Y-89509939D01*
X107335774Y-89709898D01*
X107413795Y-89898256D01*
X107527063Y-90067774D01*
X107671226Y-90211937D01*
X107840744Y-90325205D01*
X108029102Y-90403226D01*
X108229061Y-90443000D01*
X108432939Y-90443000D01*
X108632898Y-90403226D01*
X108821256Y-90325205D01*
X108958503Y-90233500D01*
X151271425Y-90233500D01*
X151314880Y-90298535D01*
X151509465Y-90493120D01*
X151738273Y-90646005D01*
X151992510Y-90751314D01*
X152262408Y-90805000D01*
X152537592Y-90805000D01*
X152807490Y-90751314D01*
X153061727Y-90646005D01*
X153290535Y-90493120D01*
X153485120Y-90298535D01*
X153638005Y-90069727D01*
X153743314Y-89815490D01*
X153797000Y-89545592D01*
X153797000Y-89270408D01*
X153743314Y-89000510D01*
X153638005Y-88746273D01*
X153485120Y-88517465D01*
X153290535Y-88322880D01*
X153061727Y-88169995D01*
X152807490Y-88064686D01*
X152537592Y-88011000D01*
X152262408Y-88011000D01*
X151992510Y-88064686D01*
X151738273Y-88169995D01*
X151509465Y-88322880D01*
X151314880Y-88517465D01*
X151271425Y-88582500D01*
X126135047Y-88582500D01*
X126220256Y-88547205D01*
X126389774Y-88433937D01*
X126533937Y-88289774D01*
X126647205Y-88120256D01*
X126725226Y-87931898D01*
X126765000Y-87731939D01*
X126765000Y-87528061D01*
X126725226Y-87328102D01*
X126647205Y-87139744D01*
X126533937Y-86970226D01*
X126389774Y-86826063D01*
X126220256Y-86712795D01*
X126031898Y-86634774D01*
X125831939Y-86595000D01*
X125628061Y-86595000D01*
X125428102Y-86634774D01*
X125239744Y-86712795D01*
X125102497Y-86804500D01*
X87234575Y-86804500D01*
X87191120Y-86739465D01*
X86996535Y-86544880D01*
X86767727Y-86391995D01*
X86690485Y-86360000D01*
X86767727Y-86328005D01*
X86996535Y-86175120D01*
X87191120Y-85980535D01*
X87234575Y-85915500D01*
X127407080Y-85915500D01*
X127466063Y-86003774D01*
X127610226Y-86147937D01*
X127779744Y-86261205D01*
X127968102Y-86339226D01*
X128168061Y-86379000D01*
X128371939Y-86379000D01*
X128571898Y-86339226D01*
X128760256Y-86261205D01*
X128929774Y-86147937D01*
X129073937Y-86003774D01*
X129187205Y-85834256D01*
X129265226Y-85645898D01*
X129305000Y-85445939D01*
X129305000Y-85242061D01*
X129287384Y-85153500D01*
X133357497Y-85153500D01*
X133494744Y-85245205D01*
X133683102Y-85323226D01*
X133883061Y-85363000D01*
X134086939Y-85363000D01*
X134286898Y-85323226D01*
X134475256Y-85245205D01*
X134612503Y-85153500D01*
X151271425Y-85153500D01*
X151314880Y-85218535D01*
X151509465Y-85413120D01*
X151738273Y-85566005D01*
X151992510Y-85671314D01*
X152262408Y-85725000D01*
X152537592Y-85725000D01*
X152807490Y-85671314D01*
X153061727Y-85566005D01*
X153290535Y-85413120D01*
X153485120Y-85218535D01*
X153638005Y-84989727D01*
X153743314Y-84735490D01*
X153797000Y-84465592D01*
X153797000Y-84190408D01*
X153743314Y-83920510D01*
X153638005Y-83666273D01*
X153485120Y-83437465D01*
X153290535Y-83242880D01*
X153061727Y-83089995D01*
X152807490Y-82984686D01*
X152537592Y-82931000D01*
X152262408Y-82931000D01*
X151992510Y-82984686D01*
X151738273Y-83089995D01*
X151509465Y-83242880D01*
X151314880Y-83437465D01*
X151271425Y-83502500D01*
X134612503Y-83502500D01*
X134475256Y-83410795D01*
X134286898Y-83332774D01*
X134086939Y-83293000D01*
X133883061Y-83293000D01*
X133683102Y-83332774D01*
X133494744Y-83410795D01*
X133357497Y-83502500D01*
X125322920Y-83502500D01*
X125263937Y-83414226D01*
X125119774Y-83270063D01*
X124950256Y-83156795D01*
X124761898Y-83078774D01*
X124561939Y-83039000D01*
X124358061Y-83039000D01*
X124158102Y-83078774D01*
X123969744Y-83156795D01*
X123800226Y-83270063D01*
X123656063Y-83414226D01*
X123542795Y-83583744D01*
X123464774Y-83772102D01*
X123425000Y-83972061D01*
X123425000Y-84175939D01*
X123442616Y-84264500D01*
X87234575Y-84264500D01*
X87191120Y-84199465D01*
X86996535Y-84004880D01*
X86767727Y-83851995D01*
X86513490Y-83746686D01*
X86243592Y-83693000D01*
X85968408Y-83693000D01*
X85698510Y-83746686D01*
X85444273Y-83851995D01*
X85215465Y-84004880D01*
X85020880Y-84199465D01*
X84867995Y-84428273D01*
X84762686Y-84682510D01*
X84709000Y-84952408D01*
X79551697Y-84952408D01*
X79561405Y-84937879D01*
X79739306Y-84508387D01*
X79830000Y-84052440D01*
X79830000Y-83587560D01*
X79739306Y-83131613D01*
X79561405Y-82702121D01*
X79303132Y-82315588D01*
X78974412Y-81986868D01*
X78587879Y-81728595D01*
X78158387Y-81550694D01*
X77702440Y-81460000D01*
X77237560Y-81460000D01*
X76781613Y-81550694D01*
X76352121Y-81728595D01*
X75965588Y-81986868D01*
X75636868Y-82315588D01*
X75378595Y-82702121D01*
X75200694Y-83131613D01*
X75110000Y-83587560D01*
X73125000Y-83587560D01*
X73125000Y-80226000D01*
X96097928Y-80226000D01*
X96097928Y-81826000D01*
X96110188Y-81950482D01*
X96146498Y-82070180D01*
X96205463Y-82180494D01*
X96284815Y-82277185D01*
X96381506Y-82356537D01*
X96491820Y-82415502D01*
X96611518Y-82451812D01*
X96736000Y-82464072D01*
X98336000Y-82464072D01*
X98460482Y-82451812D01*
X98580180Y-82415502D01*
X98690494Y-82356537D01*
X98787185Y-82277185D01*
X98866537Y-82180494D01*
X98925502Y-82070180D01*
X98961812Y-81950482D01*
X98974072Y-81826000D01*
X98974072Y-80226000D01*
X98961812Y-80101518D01*
X98925502Y-79981820D01*
X98866537Y-79871506D01*
X98787185Y-79774815D01*
X98690494Y-79695463D01*
X98580180Y-79636498D01*
X98460482Y-79600188D01*
X98336000Y-79587928D01*
X96736000Y-79587928D01*
X96611518Y-79600188D01*
X96491820Y-79636498D01*
X96381506Y-79695463D01*
X96284815Y-79774815D01*
X96205463Y-79871506D01*
X96146498Y-79981820D01*
X96110188Y-80101518D01*
X96097928Y-80226000D01*
X73125000Y-80226000D01*
X73125000Y-77513721D01*
X116185000Y-77513721D01*
X116185000Y-77934279D01*
X116267047Y-78346756D01*
X116427988Y-78735302D01*
X116661637Y-79084983D01*
X116959017Y-79382363D01*
X117308698Y-79616012D01*
X117697244Y-79776953D01*
X118109721Y-79859000D01*
X118530279Y-79859000D01*
X118942756Y-79776953D01*
X119331302Y-79616012D01*
X119680983Y-79382363D01*
X119978363Y-79084983D01*
X120212012Y-78735302D01*
X120372953Y-78346756D01*
X120455000Y-77934279D01*
X120455000Y-77513721D01*
X120372953Y-77101244D01*
X120212012Y-76712698D01*
X119978363Y-76363017D01*
X119680983Y-76065637D01*
X119331302Y-75831988D01*
X118942756Y-75671047D01*
X118530279Y-75589000D01*
X118109721Y-75589000D01*
X117697244Y-75671047D01*
X117308698Y-75831988D01*
X116959017Y-76065637D01*
X116661637Y-76363017D01*
X116427988Y-76712698D01*
X116267047Y-77101244D01*
X116185000Y-77513721D01*
X73125000Y-77513721D01*
X73125000Y-76489946D01*
X73153158Y-76202764D01*
X73226123Y-75961093D01*
X73344637Y-75738201D01*
X73504187Y-75542573D01*
X73698699Y-75381660D01*
X73920756Y-75261593D01*
X74161912Y-75186944D01*
X74446811Y-75157000D01*
X122458168Y-75157000D01*
X122243368Y-75300525D01*
G37*
X122243368Y-75300525D02*
X122036525Y-75507368D01*
X121874010Y-75750589D01*
X121762068Y-76020842D01*
X121705000Y-76307740D01*
X121705000Y-76600260D01*
X121762068Y-76887158D01*
X121874010Y-77157411D01*
X122036525Y-77400632D01*
X122243368Y-77607475D01*
X122417760Y-77724000D01*
X122243368Y-77840525D01*
X122036525Y-78047368D01*
X121874010Y-78290589D01*
X121762068Y-78560842D01*
X121705000Y-78847740D01*
X121705000Y-79140260D01*
X121762068Y-79427158D01*
X121874010Y-79697411D01*
X122036525Y-79940632D01*
X122243368Y-80147475D01*
X122486589Y-80309990D01*
X122756842Y-80421932D01*
X123043740Y-80479000D01*
X123336260Y-80479000D01*
X123623158Y-80421932D01*
X123893411Y-80309990D01*
X124136632Y-80147475D01*
X124343475Y-79940632D01*
X124460000Y-79766240D01*
X124576525Y-79940632D01*
X124783368Y-80147475D01*
X125026589Y-80309990D01*
X125296842Y-80421932D01*
X125583740Y-80479000D01*
X125876260Y-80479000D01*
X126163158Y-80421932D01*
X126433411Y-80309990D01*
X126676632Y-80147475D01*
X126883475Y-79940632D01*
X127000000Y-79766240D01*
X127116525Y-79940632D01*
X127323368Y-80147475D01*
X127566589Y-80309990D01*
X127836842Y-80421932D01*
X128123740Y-80479000D01*
X128416260Y-80479000D01*
X128703158Y-80421932D01*
X128973411Y-80309990D01*
X129216632Y-80147475D01*
X129423475Y-79940632D01*
X129540000Y-79766240D01*
X129656525Y-79940632D01*
X129863368Y-80147475D01*
X130106589Y-80309990D01*
X130376842Y-80421932D01*
X130663740Y-80479000D01*
X130956260Y-80479000D01*
X131243158Y-80421932D01*
X131513411Y-80309990D01*
X131756632Y-80147475D01*
X131963475Y-79940632D01*
X132125990Y-79697411D01*
X132237932Y-79427158D01*
X132295000Y-79140260D01*
X132295000Y-78847740D01*
X132237932Y-78560842D01*
X132125990Y-78290589D01*
X131963475Y-78047368D01*
X131756632Y-77840525D01*
X131582240Y-77724000D01*
X131756632Y-77607475D01*
X131963475Y-77400632D01*
X132080000Y-77226240D01*
X132196525Y-77400632D01*
X132403368Y-77607475D01*
X132646589Y-77769990D01*
X132916842Y-77881932D01*
X133203740Y-77939000D01*
X133496260Y-77939000D01*
X133783158Y-77881932D01*
X134053411Y-77769990D01*
X134296632Y-77607475D01*
X134503475Y-77400632D01*
X134620000Y-77226240D01*
X134736525Y-77400632D01*
X134943368Y-77607475D01*
X135117760Y-77724000D01*
X134943368Y-77840525D01*
X134736525Y-78047368D01*
X134574010Y-78290589D01*
X134462068Y-78560842D01*
X134405000Y-78847740D01*
X134405000Y-79140260D01*
X134462068Y-79427158D01*
X134574010Y-79697411D01*
X134736525Y-79940632D01*
X134943368Y-80147475D01*
X135186589Y-80309990D01*
X135456842Y-80421932D01*
X135743740Y-80479000D01*
X136036260Y-80479000D01*
X136323158Y-80421932D01*
X136593411Y-80309990D01*
X136836632Y-80147475D01*
X137043475Y-79940632D01*
X137160000Y-79766240D01*
X137276525Y-79940632D01*
X137483368Y-80147475D01*
X137726589Y-80309990D01*
X137996842Y-80421932D01*
X138283740Y-80479000D01*
X138576260Y-80479000D01*
X138863158Y-80421932D01*
X139133411Y-80309990D01*
X139376632Y-80147475D01*
X139583475Y-79940632D01*
X139700000Y-79766240D01*
X139816525Y-79940632D01*
X140023368Y-80147475D01*
X140266589Y-80309990D01*
X140536842Y-80421932D01*
X140823740Y-80479000D01*
X141116260Y-80479000D01*
X141403158Y-80421932D01*
X141673411Y-80309990D01*
X141916632Y-80147475D01*
X142123475Y-79940632D01*
X142240000Y-79766240D01*
X142356525Y-79940632D01*
X142563368Y-80147475D01*
X142806589Y-80309990D01*
X143076842Y-80421932D01*
X143363740Y-80479000D01*
X143656260Y-80479000D01*
X143943158Y-80421932D01*
X144213411Y-80309990D01*
X144456632Y-80147475D01*
X144663475Y-79940632D01*
X144780000Y-79766240D01*
X144896525Y-79940632D01*
X145103368Y-80147475D01*
X145346589Y-80309990D01*
X145616842Y-80421932D01*
X145903740Y-80479000D01*
X146196260Y-80479000D01*
X146483158Y-80421932D01*
X146753411Y-80309990D01*
X146996632Y-80147475D01*
X147203475Y-79940632D01*
X147320000Y-79766240D01*
X147436525Y-79940632D01*
X147643368Y-80147475D01*
X147886589Y-80309990D01*
X148156842Y-80421932D01*
X148443740Y-80479000D01*
X148736260Y-80479000D01*
X149023158Y-80421932D01*
X149293411Y-80309990D01*
X149536632Y-80147475D01*
X149743475Y-79940632D01*
X149860000Y-79766240D01*
X149976525Y-79940632D01*
X150183368Y-80147475D01*
X150426589Y-80309990D01*
X150696842Y-80421932D01*
X150983740Y-80479000D01*
X151276260Y-80479000D01*
X151563158Y-80421932D01*
X151833411Y-80309990D01*
X152076632Y-80147475D01*
X152283475Y-79940632D01*
X152445990Y-79697411D01*
X152557932Y-79427158D01*
X152615000Y-79140260D01*
X152615000Y-78847740D01*
X152557932Y-78560842D01*
X152445990Y-78290589D01*
X152283475Y-78047368D01*
X152076632Y-77840525D01*
X151902240Y-77724000D01*
X152076632Y-77607475D01*
X152283475Y-77400632D01*
X152400000Y-77226240D01*
X152516525Y-77400632D01*
X152723368Y-77607475D01*
X152966589Y-77769990D01*
X153236842Y-77881932D01*
X153523740Y-77939000D01*
X153816260Y-77939000D01*
X154103158Y-77881932D01*
X154373411Y-77769990D01*
X154616632Y-77607475D01*
X154823475Y-77400632D01*
X154940000Y-77226240D01*
X155056525Y-77400632D01*
X155263368Y-77607475D01*
X155437760Y-77724000D01*
X155263368Y-77840525D01*
X155056525Y-78047368D01*
X154894010Y-78290589D01*
X154782068Y-78560842D01*
X154725000Y-78847740D01*
X154725000Y-79140260D01*
X154782068Y-79427158D01*
X154894010Y-79697411D01*
X155056525Y-79940632D01*
X155263368Y-80147475D01*
X155506589Y-80309990D01*
X155776842Y-80421932D01*
X156063740Y-80479000D01*
X156356260Y-80479000D01*
X156643158Y-80421932D01*
X156913411Y-80309990D01*
X157156632Y-80147475D01*
X157363475Y-79940632D01*
X157480000Y-79766240D01*
X157596525Y-79940632D01*
X157803368Y-80147475D01*
X158046589Y-80309990D01*
X158316842Y-80421932D01*
X158603740Y-80479000D01*
X158896260Y-80479000D01*
X159183158Y-80421932D01*
X159453411Y-80309990D01*
X159696632Y-80147475D01*
X159903475Y-79940632D01*
X160020000Y-79766240D01*
X160136525Y-79940632D01*
X160343368Y-80147475D01*
X160586589Y-80309990D01*
X160856842Y-80421932D01*
X161143740Y-80479000D01*
X161436260Y-80479000D01*
X161723158Y-80421932D01*
X161993411Y-80309990D01*
X162236632Y-80147475D01*
X162443475Y-79940632D01*
X162560000Y-79766240D01*
X162676525Y-79940632D01*
X162883368Y-80147475D01*
X163126589Y-80309990D01*
X163396842Y-80421932D01*
X163683740Y-80479000D01*
X163976260Y-80479000D01*
X164263158Y-80421932D01*
X164533411Y-80309990D01*
X164776632Y-80147475D01*
X164983475Y-79940632D01*
X165100000Y-79766240D01*
X165216525Y-79940632D01*
X165423368Y-80147475D01*
X165666589Y-80309990D01*
X165936842Y-80421932D01*
X166223740Y-80479000D01*
X166516260Y-80479000D01*
X166803158Y-80421932D01*
X167073411Y-80309990D01*
X167316632Y-80147475D01*
X167523475Y-79940632D01*
X167640000Y-79766240D01*
X167756525Y-79940632D01*
X167963368Y-80147475D01*
X168206589Y-80309990D01*
X168476842Y-80421932D01*
X168763740Y-80479000D01*
X169056260Y-80479000D01*
X169343158Y-80421932D01*
X169613411Y-80309990D01*
X169856632Y-80147475D01*
X170063475Y-79940632D01*
X170225990Y-79697411D01*
X170337932Y-79427158D01*
X170395000Y-79140260D01*
X170395000Y-78847740D01*
X170337932Y-78560842D01*
X170225990Y-78290589D01*
X170063475Y-78047368D01*
X169856632Y-77840525D01*
X169682240Y-77724000D01*
X169856632Y-77607475D01*
X170063475Y-77400632D01*
X170180000Y-77226240D01*
X170296525Y-77400632D01*
X170503368Y-77607475D01*
X170746589Y-77769990D01*
X171016842Y-77881932D01*
X171303740Y-77939000D01*
X171596260Y-77939000D01*
X171883158Y-77881932D01*
X172153411Y-77769990D01*
X172396632Y-77607475D01*
X172603475Y-77400632D01*
X172765990Y-77157411D01*
X172877932Y-76887158D01*
X172935000Y-76600260D01*
X172935000Y-76307740D01*
X172877932Y-76020842D01*
X172765990Y-75750589D01*
X172603475Y-75507368D01*
X172396632Y-75300525D01*
X172181832Y-75157000D01*
X177002054Y-75157000D01*
X177289236Y-75185158D01*
X177530907Y-75258123D01*
X177753799Y-75376637D01*
X177949427Y-75536187D01*
X178110340Y-75730699D01*
X178230407Y-75952756D01*
X178305056Y-76193912D01*
X178335000Y-76478811D01*
X178335000Y-77009617D01*
X178212012Y-76712698D01*
X177978363Y-76363017D01*
X177680983Y-76065637D01*
X177331302Y-75831988D01*
X176942756Y-75671047D01*
X176530279Y-75589000D01*
X176109721Y-75589000D01*
X175697244Y-75671047D01*
X175308698Y-75831988D01*
X174959017Y-76065637D01*
X174661637Y-76363017D01*
X174427988Y-76712698D01*
X174267047Y-77101244D01*
X174185000Y-77513721D01*
X174185000Y-77934279D01*
X174267047Y-78346756D01*
X174427988Y-78735302D01*
X174661637Y-79084983D01*
X174959017Y-79382363D01*
X175308698Y-79616012D01*
X175697244Y-79776953D01*
X176109721Y-79859000D01*
X176530279Y-79859000D01*
X176942756Y-79776953D01*
X177331302Y-79616012D01*
X177680983Y-79382363D01*
X177978363Y-79084983D01*
X178212012Y-78735302D01*
X178335000Y-78438383D01*
X178335001Y-126009620D01*
X178212012Y-125712698D01*
X177978363Y-125363017D01*
X177680983Y-125065637D01*
X177331302Y-124831988D01*
X176942756Y-124671047D01*
X176530279Y-124589000D01*
X176109721Y-124589000D01*
X175697244Y-124671047D01*
X175308698Y-124831988D01*
X174959017Y-125065637D01*
X174661637Y-125363017D01*
X174427988Y-125712698D01*
X174267047Y-126101244D01*
X174185000Y-126513721D01*
X174185000Y-126934279D01*
X174267047Y-127346756D01*
X174427988Y-127735302D01*
X174661637Y-128084983D01*
X174959017Y-128382363D01*
X175308698Y-128616012D01*
X175697244Y-128776953D01*
X176109721Y-128859000D01*
X176530279Y-128859000D01*
X176942756Y-128776953D01*
X177331302Y-128616012D01*
X177680983Y-128382363D01*
X177978363Y-128084983D01*
X178212012Y-127735302D01*
X178335001Y-127438380D01*
X178335001Y-128741885D01*
X178331444Y-128778000D01*
X178345635Y-128922085D01*
X178387663Y-129060633D01*
X178455913Y-129188320D01*
X178547762Y-129300238D01*
X178659680Y-129392087D01*
X178787367Y-129460337D01*
X178925915Y-129502365D01*
X179033895Y-129513000D01*
X179070000Y-129516556D01*
X179106105Y-129513000D01*
X194782054Y-129513000D01*
X195069236Y-129541158D01*
X195310907Y-129614123D01*
X195533799Y-129732637D01*
X195729427Y-129892187D01*
X195890340Y-130086699D01*
X196010407Y-130308756D01*
X196085056Y-130549912D01*
X196115000Y-130834811D01*
X196115001Y-138311134D01*
X195845223Y-138394644D01*
X195783779Y-138420473D01*
X195722045Y-138445415D01*
X195712989Y-138450230D01*
X195712985Y-138450232D01*
X195712984Y-138450233D01*
X195364135Y-138638855D01*
X195308892Y-138676117D01*
X195253167Y-138712582D01*
X195245217Y-138719066D01*
X195245213Y-138719069D01*
X195245209Y-138719073D01*
X194939646Y-138971855D01*
X194892668Y-139019162D01*
X194845110Y-139065734D01*
X194838568Y-139073641D01*
X194587920Y-139380967D01*
X194551042Y-139436472D01*
X194513419Y-139491419D01*
X194508537Y-139500446D01*
X194322356Y-139850603D01*
X194296953Y-139912235D01*
X194270727Y-139973424D01*
X194267692Y-139983227D01*
X194153069Y-140362878D01*
X194140127Y-140428238D01*
X194126280Y-140493386D01*
X194125207Y-140503592D01*
X194086508Y-140898277D01*
X194086508Y-140930396D01*
X194083040Y-140962328D01*
X194083005Y-140972591D01*
X194083055Y-140986776D01*
X194086299Y-141018704D01*
X194086075Y-141050800D01*
X194087076Y-141061013D01*
X194128529Y-141455417D01*
X194141932Y-141520711D01*
X194154408Y-141586111D01*
X194157373Y-141595935D01*
X194274644Y-141974778D01*
X194300483Y-142036246D01*
X194325415Y-142097955D01*
X194330233Y-142107017D01*
X194518855Y-142455865D01*
X194556117Y-142511108D01*
X194592582Y-142566833D01*
X194599068Y-142574786D01*
X194851855Y-142880354D01*
X194899130Y-142927299D01*
X194945735Y-142974891D01*
X194953642Y-142981432D01*
X195260967Y-143232081D01*
X195316491Y-143268971D01*
X195371419Y-143306581D01*
X195380443Y-143311461D01*
X195380451Y-143311465D01*
X195730603Y-143497644D01*
X195792207Y-143523035D01*
X195853424Y-143549273D01*
X195863227Y-143552308D01*
X196115000Y-143628323D01*
X196115001Y-151602043D01*
X196086842Y-151889236D01*
X196013878Y-152130903D01*
X195895363Y-152353798D01*
X195735813Y-152549427D01*
X195541300Y-152710341D01*
X195319244Y-152830407D01*
X195078090Y-152905056D01*
X194793189Y-152935000D01*
X74457946Y-152935000D01*
X74170764Y-152906842D01*
X73929097Y-152833878D01*
X73706202Y-152715363D01*
X73510573Y-152555813D01*
X73349659Y-152361300D01*
X73229593Y-152139244D01*
X73154944Y-151898090D01*
X73125000Y-151613189D01*
X73125000Y-143628866D01*
X73394778Y-143545356D01*
X73456246Y-143519517D01*
X73517955Y-143494585D01*
X73527012Y-143489770D01*
X73527016Y-143489768D01*
X73527019Y-143489766D01*
X73875865Y-143301145D01*
X73931108Y-143263883D01*
X73986833Y-143227418D01*
X73994786Y-143220932D01*
X74300354Y-142968145D01*
X74347299Y-142920870D01*
X74394891Y-142874265D01*
X74401432Y-142866358D01*
X74652081Y-142559033D01*
X74688971Y-142503509D01*
X74726581Y-142448581D01*
X74731462Y-142439554D01*
X74917644Y-142089397D01*
X74943035Y-142027793D01*
X74969273Y-141966576D01*
X74972308Y-141956773D01*
X75086931Y-141577122D01*
X75099874Y-141511754D01*
X75113720Y-141446613D01*
X75114793Y-141436407D01*
X75153492Y-141041723D01*
X75153492Y-141009604D01*
X75156960Y-140977672D01*
X75156995Y-140967409D01*
X75156945Y-140953223D01*
X75153701Y-140921295D01*
X75153925Y-140889199D01*
X75152924Y-140878986D01*
X75111471Y-140484583D01*
X75098073Y-140419313D01*
X75085593Y-140353890D01*
X75082627Y-140344065D01*
X74965356Y-139965223D01*
X74939527Y-139903779D01*
X74914585Y-139842045D01*
X74909767Y-139832984D01*
X74721145Y-139484135D01*
X74683883Y-139428892D01*
X74647418Y-139373167D01*
X74640932Y-139365215D01*
X74640931Y-139365213D01*
X74640927Y-139365209D01*
X74388145Y-139059646D01*
X74340838Y-139012668D01*
X74294266Y-138965110D01*
X74286359Y-138958568D01*
X73979033Y-138707920D01*
X73923528Y-138671042D01*
X73868581Y-138633419D01*
X73859554Y-138628537D01*
X73509397Y-138442356D01*
X73447765Y-138416953D01*
X73386576Y-138390727D01*
X73376777Y-138387693D01*
X73376771Y-138387691D01*
X73125000Y-138311678D01*
X73125000Y-126513721D01*
X116185000Y-126513721D01*
X116185000Y-126934279D01*
X116267047Y-127346756D01*
X116427988Y-127735302D01*
X116661637Y-128084983D01*
X116959017Y-128382363D01*
X117308698Y-128616012D01*
X117697244Y-128776953D01*
X118109721Y-128859000D01*
X118530279Y-128859000D01*
X118942756Y-128776953D01*
X119331302Y-128616012D01*
X119680983Y-128382363D01*
X119978363Y-128084983D01*
X120212012Y-127735302D01*
X120372953Y-127346756D01*
X120455000Y-126934279D01*
X120455000Y-126513721D01*
X120372953Y-126101244D01*
X120212012Y-125712698D01*
X119978363Y-125363017D01*
X119680983Y-125065637D01*
X119331302Y-124831988D01*
X118942756Y-124671047D01*
X118530279Y-124589000D01*
X118109721Y-124589000D01*
X117697244Y-124671047D01*
X117308698Y-124831988D01*
X116959017Y-125065637D01*
X116661637Y-125363017D01*
X116427988Y-125712698D01*
X116267047Y-126101244D01*
X116185000Y-126513721D01*
X73125000Y-126513721D01*
X73125000Y-121687560D01*
X75110000Y-121687560D01*
X75110000Y-122152440D01*
X75200694Y-122608387D01*
X75378595Y-123037879D01*
X75636868Y-123424412D01*
X75965588Y-123753132D01*
X76352121Y-124011405D01*
X76781613Y-124189306D01*
X77237560Y-124280000D01*
X77702440Y-124280000D01*
X78158387Y-124189306D01*
X78587879Y-124011405D01*
X78974412Y-123753132D01*
X79303132Y-123424412D01*
X79561405Y-123037879D01*
X79739306Y-122608387D01*
X79830000Y-122152440D01*
X79830000Y-121687560D01*
X79739306Y-121231613D01*
X79561405Y-120802121D01*
X79303132Y-120415588D01*
X78974412Y-120086868D01*
X78587879Y-119828595D01*
X78158387Y-119650694D01*
X77702440Y-119560000D01*
X77237560Y-119560000D01*
X76781613Y-119650694D01*
X76352121Y-119828595D01*
X75965588Y-120086868D01*
X75636868Y-120415588D01*
X75378595Y-120802121D01*
X75200694Y-121231613D01*
X75110000Y-121687560D01*
X73125000Y-121687560D01*
X73125000Y-117972408D01*
X84709000Y-117972408D01*
X84709000Y-118247592D01*
X84762686Y-118517490D01*
X84867995Y-118771727D01*
X85020880Y-119000535D01*
X85215465Y-119195120D01*
X85444273Y-119348005D01*
X85521515Y-119380000D01*
X85444273Y-119411995D01*
X85215465Y-119564880D01*
X85020880Y-119759465D01*
X84867995Y-119988273D01*
X84762686Y-120242510D01*
X84709000Y-120512408D01*
X84709000Y-120787592D01*
X84762686Y-121057490D01*
X84867995Y-121311727D01*
X85020880Y-121540535D01*
X85215465Y-121735120D01*
X85444273Y-121888005D01*
X85698510Y-121993314D01*
X85968408Y-122047000D01*
X86243592Y-122047000D01*
X86513490Y-121993314D01*
X86767727Y-121888005D01*
X86996535Y-121735120D01*
X87191120Y-121540535D01*
X87234575Y-121475500D01*
X107830497Y-121475500D01*
X107967744Y-121567205D01*
X108156102Y-121645226D01*
X108356061Y-121685000D01*
X108559939Y-121685000D01*
X108759898Y-121645226D01*
X108948256Y-121567205D01*
X109085503Y-121475500D01*
X128912497Y-121475500D01*
X129049744Y-121567205D01*
X129238102Y-121645226D01*
X129438061Y-121685000D01*
X129641939Y-121685000D01*
X129841898Y-121645226D01*
X130030256Y-121567205D01*
X130199774Y-121453937D01*
X130343937Y-121309774D01*
X130457205Y-121140256D01*
X130535226Y-120951898D01*
X130575000Y-120751939D01*
X130575000Y-120548061D01*
X130535226Y-120348102D01*
X130457205Y-120159744D01*
X130343937Y-119990226D01*
X130199774Y-119846063D01*
X130030256Y-119732795D01*
X129841898Y-119654774D01*
X129641939Y-119615000D01*
X129438061Y-119615000D01*
X129238102Y-119654774D01*
X129049744Y-119732795D01*
X128912497Y-119824500D01*
X109085503Y-119824500D01*
X108948256Y-119732795D01*
X108759898Y-119654774D01*
X108559939Y-119615000D01*
X108356061Y-119615000D01*
X108156102Y-119654774D01*
X107967744Y-119732795D01*
X107830497Y-119824500D01*
X87234575Y-119824500D01*
X87191120Y-119759465D01*
X86996535Y-119564880D01*
X86767727Y-119411995D01*
X86690485Y-119380000D01*
X86767727Y-119348005D01*
X86996535Y-119195120D01*
X87191120Y-119000535D01*
X87234575Y-118935500D01*
X104782497Y-118935500D01*
X104919744Y-119027205D01*
X105108102Y-119105226D01*
X105308061Y-119145000D01*
X105511939Y-119145000D01*
X105711898Y-119105226D01*
X105900256Y-119027205D01*
X106037503Y-118935500D01*
X131452497Y-118935500D01*
X131589744Y-119027205D01*
X131778102Y-119105226D01*
X131978061Y-119145000D01*
X132181939Y-119145000D01*
X132381898Y-119105226D01*
X132570256Y-119027205D01*
X132739774Y-118913937D01*
X132883937Y-118769774D01*
X132997205Y-118600256D01*
X133075226Y-118411898D01*
X133115000Y-118211939D01*
X133115000Y-118008061D01*
X133075226Y-117808102D01*
X132997205Y-117619744D01*
X132883937Y-117450226D01*
X132739774Y-117306063D01*
X132570256Y-117192795D01*
X132381898Y-117114774D01*
X132181939Y-117075000D01*
X131978061Y-117075000D01*
X131778102Y-117114774D01*
X131589744Y-117192795D01*
X131452497Y-117284500D01*
X106037503Y-117284500D01*
X105900256Y-117192795D01*
X105711898Y-117114774D01*
X105511939Y-117075000D01*
X105308061Y-117075000D01*
X105108102Y-117114774D01*
X104919744Y-117192795D01*
X104782497Y-117284500D01*
X87234575Y-117284500D01*
X87191120Y-117219465D01*
X86996535Y-117024880D01*
X86767727Y-116871995D01*
X86513490Y-116766686D01*
X86243592Y-116713000D01*
X85968408Y-116713000D01*
X85698510Y-116766686D01*
X85444273Y-116871995D01*
X85215465Y-117024880D01*
X85020880Y-117219465D01*
X84867995Y-117448273D01*
X84762686Y-117702510D01*
X84709000Y-117972408D01*
X73125000Y-117972408D01*
X73125000Y-114067560D01*
X75110000Y-114067560D01*
X75110000Y-114532440D01*
X75200694Y-114988387D01*
X75378595Y-115417879D01*
X75636868Y-115804412D01*
X75965588Y-116133132D01*
X76352121Y-116391405D01*
X76781613Y-116569306D01*
X77237560Y-116660000D01*
X77702440Y-116660000D01*
X78158387Y-116569306D01*
X78587879Y-116391405D01*
X78974412Y-116133132D01*
X79303132Y-115804412D01*
X79561405Y-115417879D01*
X79739306Y-114988387D01*
X79830000Y-114532440D01*
X79830000Y-114067560D01*
X79739306Y-113611613D01*
X79561405Y-113182121D01*
X79303132Y-112795588D01*
X79097834Y-112590290D01*
X157734000Y-112590290D01*
X157734000Y-113215710D01*
X157856014Y-113829113D01*
X158095352Y-114406926D01*
X158442817Y-114926944D01*
X158885056Y-115369183D01*
X159405074Y-115716648D01*
X159982887Y-115955986D01*
X160596290Y-116078000D01*
X161221710Y-116078000D01*
X161835113Y-115955986D01*
X162412926Y-115716648D01*
X162932944Y-115369183D01*
X163375183Y-114926944D01*
X163722648Y-114406926D01*
X163961986Y-113829113D01*
X164084000Y-113215710D01*
X164084000Y-112590290D01*
X163961986Y-111976887D01*
X163722648Y-111399074D01*
X163375183Y-110879056D01*
X162932944Y-110436817D01*
X162412926Y-110089352D01*
X161835113Y-109850014D01*
X161221710Y-109728000D01*
X160596290Y-109728000D01*
X159982887Y-109850014D01*
X159405074Y-110089352D01*
X158885056Y-110436817D01*
X158442817Y-110879056D01*
X158095352Y-111399074D01*
X157856014Y-111976887D01*
X157734000Y-112590290D01*
X79097834Y-112590290D01*
X78974412Y-112466868D01*
X78587879Y-112208595D01*
X78158387Y-112030694D01*
X77702440Y-111940000D01*
X77237560Y-111940000D01*
X76781613Y-112030694D01*
X76352121Y-112208595D01*
X75965588Y-112466868D01*
X75636868Y-112795588D01*
X75378595Y-113182121D01*
X75200694Y-113611613D01*
X75110000Y-114067560D01*
X73125000Y-114067560D01*
X73125000Y-108479560D01*
X75110000Y-108479560D01*
X75110000Y-108944440D01*
X75200694Y-109400387D01*
X75378595Y-109829879D01*
X75636868Y-110216412D01*
X75965588Y-110545132D01*
X76352121Y-110803405D01*
X76781613Y-110981306D01*
X77237560Y-111072000D01*
X77702440Y-111072000D01*
X78158387Y-110981306D01*
X78587879Y-110803405D01*
X78974412Y-110545132D01*
X79303132Y-110216412D01*
X79561405Y-109829879D01*
X79739306Y-109400387D01*
X79830000Y-108944440D01*
X79830000Y-108479560D01*
X79739306Y-108023613D01*
X79561405Y-107594121D01*
X79367826Y-107304408D01*
X84709000Y-107304408D01*
X84709000Y-107579592D01*
X84762686Y-107849490D01*
X84867995Y-108103727D01*
X85020880Y-108332535D01*
X85215465Y-108527120D01*
X85444273Y-108680005D01*
X85698510Y-108785314D01*
X85968408Y-108839000D01*
X86243592Y-108839000D01*
X86513490Y-108785314D01*
X86767727Y-108680005D01*
X86996535Y-108527120D01*
X87065655Y-108458000D01*
X90226541Y-108458000D01*
X90322061Y-108477000D01*
X90525939Y-108477000D01*
X90621459Y-108458000D01*
X118883247Y-108458000D01*
X118853000Y-108610061D01*
X118853000Y-108813939D01*
X118892774Y-109013898D01*
X118970795Y-109202256D01*
X119084063Y-109371774D01*
X119228226Y-109515937D01*
X119397744Y-109629205D01*
X119586102Y-109707226D01*
X119786061Y-109747000D01*
X119989939Y-109747000D01*
X120189898Y-109707226D01*
X120378256Y-109629205D01*
X120515503Y-109537500D01*
X125102497Y-109537500D01*
X125239744Y-109629205D01*
X125428102Y-109707226D01*
X125628061Y-109747000D01*
X125831939Y-109747000D01*
X126031898Y-109707226D01*
X126220256Y-109629205D01*
X126389774Y-109515937D01*
X126533937Y-109371774D01*
X126647205Y-109202256D01*
X126725226Y-109013898D01*
X126765000Y-108813939D01*
X126765000Y-108610061D01*
X126734753Y-108458000D01*
X143079098Y-108458000D01*
X143129000Y-108462915D01*
X143178902Y-108458000D01*
X165812098Y-108458000D01*
X165862000Y-108462915D01*
X165911902Y-108458000D01*
X166061171Y-108443298D01*
X166252687Y-108385202D01*
X166429190Y-108290860D01*
X166583896Y-108163896D01*
X166615713Y-108125127D01*
X167053127Y-107687713D01*
X167091896Y-107655896D01*
X167218860Y-107501190D01*
X167313202Y-107324687D01*
X167353674Y-107191268D01*
X167371298Y-107133172D01*
X167381015Y-107034510D01*
X167386000Y-106983902D01*
X167386000Y-106983895D01*
X167390914Y-106934001D01*
X167386000Y-106884107D01*
X167386000Y-106369655D01*
X167455120Y-106300535D01*
X167608005Y-106071727D01*
X167713314Y-105817490D01*
X167767000Y-105547592D01*
X167767000Y-105272408D01*
X167713314Y-105002510D01*
X167608005Y-104748273D01*
X167455120Y-104519465D01*
X167260535Y-104324880D01*
X167031727Y-104171995D01*
X166777490Y-104066686D01*
X166507592Y-104013000D01*
X166232408Y-104013000D01*
X165962510Y-104066686D01*
X165708273Y-104171995D01*
X165479465Y-104324880D01*
X165284880Y-104519465D01*
X165131995Y-104748273D01*
X165026686Y-105002510D01*
X164973000Y-105272408D01*
X164973000Y-105547592D01*
X165026686Y-105817490D01*
X165131995Y-106071727D01*
X165284880Y-106300535D01*
X165354000Y-106369655D01*
X165354000Y-106426000D01*
X144145000Y-106426000D01*
X144145000Y-105538050D01*
X144173180Y-105529502D01*
X144283494Y-105470537D01*
X144380185Y-105391185D01*
X144459537Y-105294494D01*
X144518502Y-105184180D01*
X144554812Y-105064482D01*
X144567072Y-104940000D01*
X144567072Y-103340000D01*
X144554812Y-103215518D01*
X144518502Y-103095820D01*
X144459537Y-102985506D01*
X144380185Y-102888815D01*
X144283494Y-102809463D01*
X144173180Y-102750498D01*
X144053482Y-102714188D01*
X143929000Y-102701928D01*
X142329000Y-102701928D01*
X142204518Y-102714188D01*
X142084820Y-102750498D01*
X141974506Y-102809463D01*
X141877815Y-102888815D01*
X141798463Y-102985506D01*
X141739498Y-103095820D01*
X141703188Y-103215518D01*
X141690928Y-103340000D01*
X141690928Y-104940000D01*
X141703188Y-105064482D01*
X141739498Y-105184180D01*
X141798463Y-105294494D01*
X141877815Y-105391185D01*
X141974506Y-105470537D01*
X142084820Y-105529502D01*
X142113000Y-105538050D01*
X142113001Y-106426000D01*
X90621459Y-106426000D01*
X90525939Y-106407000D01*
X90322061Y-106407000D01*
X90226541Y-106426000D01*
X87065655Y-106426000D01*
X86996535Y-106356880D01*
X86767727Y-106203995D01*
X86513490Y-106098686D01*
X86243592Y-106045000D01*
X85968408Y-106045000D01*
X85698510Y-106098686D01*
X85444273Y-106203995D01*
X85215465Y-106356880D01*
X85020880Y-106551465D01*
X84867995Y-106780273D01*
X84762686Y-107034510D01*
X84709000Y-107304408D01*
X79367826Y-107304408D01*
X79303132Y-107207588D01*
X78974412Y-106878868D01*
X78587879Y-106620595D01*
X78158387Y-106442694D01*
X77702440Y-106352000D01*
X77237560Y-106352000D01*
X76781613Y-106442694D01*
X76352121Y-106620595D01*
X75965588Y-106878868D01*
X75636868Y-107207588D01*
X75378595Y-107594121D01*
X75200694Y-108023613D01*
X75110000Y-108479560D01*
X73125000Y-108479560D01*
X73125000Y-104800061D01*
X119996000Y-104800061D01*
X119996000Y-105003939D01*
X120035774Y-105203898D01*
X120113795Y-105392256D01*
X120227063Y-105561774D01*
X120371226Y-105705937D01*
X120540744Y-105819205D01*
X120729102Y-105897226D01*
X120929061Y-105937000D01*
X121132939Y-105937000D01*
X121332898Y-105897226D01*
X121521256Y-105819205D01*
X121658503Y-105727500D01*
X127642497Y-105727500D01*
X127779744Y-105819205D01*
X127968102Y-105897226D01*
X128168061Y-105937000D01*
X128371939Y-105937000D01*
X128571898Y-105897226D01*
X128760256Y-105819205D01*
X128929774Y-105705937D01*
X129073937Y-105561774D01*
X129187205Y-105392256D01*
X129265226Y-105203898D01*
X129305000Y-105003939D01*
X129305000Y-104800061D01*
X129265226Y-104600102D01*
X129187205Y-104411744D01*
X129073937Y-104242226D01*
X128929774Y-104098063D01*
X128760256Y-103984795D01*
X128571898Y-103906774D01*
X128371939Y-103867000D01*
X128168061Y-103867000D01*
X127968102Y-103906774D01*
X127779744Y-103984795D01*
X127642497Y-104076500D01*
X121658503Y-104076500D01*
X121521256Y-103984795D01*
X121332898Y-103906774D01*
X121132939Y-103867000D01*
X120929061Y-103867000D01*
X120729102Y-103906774D01*
X120540744Y-103984795D01*
X120371226Y-104098063D01*
X120227063Y-104242226D01*
X120113795Y-104411744D01*
X120035774Y-104600102D01*
X119996000Y-104800061D01*
X73125000Y-104800061D01*
X73125000Y-93747560D01*
X75110000Y-93747560D01*
X75110000Y-94212440D01*
X75200694Y-94668387D01*
X75378595Y-95097879D01*
X75636868Y-95484412D01*
X75965588Y-95813132D01*
X76352121Y-96071405D01*
X76781613Y-96249306D01*
X76865539Y-96266000D01*
X76781613Y-96282694D01*
X76352121Y-96460595D01*
X75965588Y-96718868D01*
X75636868Y-97047588D01*
X75378595Y-97434121D01*
X75200694Y-97863613D01*
X75110000Y-98319560D01*
X75110000Y-98784440D01*
X75200694Y-99240387D01*
X75378595Y-99669879D01*
X75636868Y-100056412D01*
X75965588Y-100385132D01*
X76352121Y-100643405D01*
X76781613Y-100821306D01*
X77237560Y-100912000D01*
X77702440Y-100912000D01*
X78158387Y-100821306D01*
X78587879Y-100643405D01*
X78974412Y-100385132D01*
X79303132Y-100056412D01*
X79551697Y-99684408D01*
X84709000Y-99684408D01*
X84709000Y-99959592D01*
X84762686Y-100229490D01*
X84867995Y-100483727D01*
X85020880Y-100712535D01*
X85215465Y-100907120D01*
X85444273Y-101060005D01*
X85521515Y-101092000D01*
X85444273Y-101123995D01*
X85215465Y-101276880D01*
X85020880Y-101471465D01*
X84867995Y-101700273D01*
X84762686Y-101954510D01*
X84709000Y-102224408D01*
X84709000Y-102499592D01*
X84762686Y-102769490D01*
X84867995Y-103023727D01*
X85020880Y-103252535D01*
X85215465Y-103447120D01*
X85444273Y-103600005D01*
X85698510Y-103705314D01*
X85968408Y-103759000D01*
X86243592Y-103759000D01*
X86513490Y-103705314D01*
X86767727Y-103600005D01*
X86996535Y-103447120D01*
X87191120Y-103252535D01*
X87234575Y-103187500D01*
X125102497Y-103187500D01*
X125239744Y-103279205D01*
X125428102Y-103357226D01*
X125628061Y-103397000D01*
X125831939Y-103397000D01*
X126031898Y-103357226D01*
X126220256Y-103279205D01*
X126389774Y-103165937D01*
X126533937Y-103021774D01*
X126647205Y-102852256D01*
X126725226Y-102663898D01*
X126765000Y-102463939D01*
X126765000Y-102260061D01*
X126725226Y-102060102D01*
X126647205Y-101871744D01*
X126533937Y-101702226D01*
X126389774Y-101558063D01*
X126220256Y-101444795D01*
X126031898Y-101366774D01*
X125831939Y-101327000D01*
X125628061Y-101327000D01*
X125428102Y-101366774D01*
X125239744Y-101444795D01*
X125102497Y-101536500D01*
X106727158Y-101536500D01*
X106786226Y-101393898D01*
X106826000Y-101193939D01*
X106826000Y-100990061D01*
X106786226Y-100790102D01*
X106727158Y-100647500D01*
X127642497Y-100647500D01*
X127779744Y-100739205D01*
X127968102Y-100817226D01*
X128168061Y-100857000D01*
X128371939Y-100857000D01*
X128571898Y-100817226D01*
X128760256Y-100739205D01*
X128929774Y-100625937D01*
X129073937Y-100481774D01*
X129187205Y-100312256D01*
X129236848Y-100192408D01*
X164973000Y-100192408D01*
X164973000Y-100467592D01*
X165026686Y-100737490D01*
X165131995Y-100991727D01*
X165284880Y-101220535D01*
X165479465Y-101415120D01*
X165708273Y-101568005D01*
X165962510Y-101673314D01*
X166232408Y-101727000D01*
X166507592Y-101727000D01*
X166777490Y-101673314D01*
X167031727Y-101568005D01*
X167260535Y-101415120D01*
X167455120Y-101220535D01*
X167608005Y-100991727D01*
X167713314Y-100737490D01*
X167767000Y-100467592D01*
X167767000Y-100192408D01*
X167713314Y-99922510D01*
X167608005Y-99668273D01*
X167455120Y-99439465D01*
X167260535Y-99244880D01*
X167031727Y-99091995D01*
X166777490Y-98986686D01*
X166507592Y-98933000D01*
X166232408Y-98933000D01*
X165962510Y-98986686D01*
X165708273Y-99091995D01*
X165479465Y-99244880D01*
X165284880Y-99439465D01*
X165131995Y-99668273D01*
X165026686Y-99922510D01*
X164973000Y-100192408D01*
X129236848Y-100192408D01*
X129265226Y-100123898D01*
X129305000Y-99923939D01*
X129305000Y-99720061D01*
X129265226Y-99520102D01*
X129206158Y-99377500D01*
X133357497Y-99377500D01*
X133494744Y-99469205D01*
X133683102Y-99547226D01*
X133883061Y-99587000D01*
X134086939Y-99587000D01*
X134286898Y-99547226D01*
X134475256Y-99469205D01*
X134644774Y-99355937D01*
X134788937Y-99211774D01*
X134902205Y-99042256D01*
X134980226Y-98853898D01*
X135020000Y-98653939D01*
X135020000Y-98450061D01*
X134980226Y-98250102D01*
X134902205Y-98061744D01*
X134788937Y-97892226D01*
X134644774Y-97748063D01*
X134475256Y-97634795D01*
X134286898Y-97556774D01*
X134086939Y-97517000D01*
X133883061Y-97517000D01*
X133683102Y-97556774D01*
X133494744Y-97634795D01*
X133357497Y-97726500D01*
X109974503Y-97726500D01*
X109837256Y-97634795D01*
X109648898Y-97556774D01*
X109448939Y-97517000D01*
X109245061Y-97517000D01*
X109045102Y-97556774D01*
X108856744Y-97634795D01*
X108687226Y-97748063D01*
X108543063Y-97892226D01*
X108429795Y-98061744D01*
X108351774Y-98250102D01*
X108312000Y-98450061D01*
X108312000Y-98653939D01*
X108351774Y-98853898D01*
X108410842Y-98996500D01*
X87234575Y-98996500D01*
X87191120Y-98931465D01*
X86996535Y-98736880D01*
X86767727Y-98583995D01*
X86513490Y-98478686D01*
X86243592Y-98425000D01*
X85968408Y-98425000D01*
X85698510Y-98478686D01*
X85444273Y-98583995D01*
X85215465Y-98736880D01*
X85020880Y-98931465D01*
X84867995Y-99160273D01*
X84762686Y-99414510D01*
X84709000Y-99684408D01*
X79551697Y-99684408D01*
X79561405Y-99669879D01*
X79739306Y-99240387D01*
X79830000Y-98784440D01*
X79830000Y-98319560D01*
X79739306Y-97863613D01*
X79561405Y-97434121D01*
X79303132Y-97047588D01*
X78974412Y-96718868D01*
X78587879Y-96460595D01*
X78158387Y-96282694D01*
X78074461Y-96266000D01*
X78158387Y-96249306D01*
X78587879Y-96071405D01*
X78974412Y-95813132D01*
X79303132Y-95484412D01*
X79561405Y-95097879D01*
X79739306Y-94668387D01*
X79830000Y-94212440D01*
X79830000Y-93747560D01*
X79739306Y-93291613D01*
X79561405Y-92862121D01*
X79367826Y-92572408D01*
X84709000Y-92572408D01*
X84709000Y-92847592D01*
X84762686Y-93117490D01*
X84867995Y-93371727D01*
X85020880Y-93600535D01*
X85215465Y-93795120D01*
X85444273Y-93948005D01*
X85698510Y-94053314D01*
X85968408Y-94107000D01*
X86243592Y-94107000D01*
X86513490Y-94053314D01*
X86767727Y-93948005D01*
X86996535Y-93795120D01*
X87065655Y-93726000D01*
X90198541Y-93726000D01*
X90294061Y-93745000D01*
X90497939Y-93745000D01*
X90697898Y-93705226D01*
X90886256Y-93627205D01*
X91055774Y-93513937D01*
X91199937Y-93369774D01*
X91313205Y-93200256D01*
X91391226Y-93011898D01*
X91431000Y-92811939D01*
X91431000Y-92608061D01*
X91391226Y-92408102D01*
X91313205Y-92219744D01*
X91199937Y-92050226D01*
X91055774Y-91906063D01*
X90886256Y-91792795D01*
X90697898Y-91714774D01*
X90497939Y-91675000D01*
X90294061Y-91675000D01*
X90198541Y-91694000D01*
X87065655Y-91694000D01*
X86996535Y-91624880D01*
X86767727Y-91471995D01*
X86513490Y-91366686D01*
X86243592Y-91313000D01*
X85968408Y-91313000D01*
X85698510Y-91366686D01*
X85444273Y-91471995D01*
X85215465Y-91624880D01*
X85020880Y-91819465D01*
X84867995Y-92048273D01*
X84762686Y-92302510D01*
X84709000Y-92572408D01*
X79367826Y-92572408D01*
X79303132Y-92475588D01*
X78974412Y-92146868D01*
X78587879Y-91888595D01*
X78158387Y-91710694D01*
X77702440Y-91620000D01*
X77237560Y-91620000D01*
X76781613Y-91710694D01*
X76352121Y-91888595D01*
X75965588Y-92146868D01*
X75636868Y-92475588D01*
X75378595Y-92862121D01*
X75200694Y-93291613D01*
X75110000Y-93747560D01*
X73125000Y-93747560D01*
X73125000Y-83587560D01*
X75110000Y-83587560D01*
X75110000Y-84052440D01*
X75200694Y-84508387D01*
X75378595Y-84937879D01*
X75636868Y-85324412D01*
X75965588Y-85653132D01*
X76352121Y-85911405D01*
X76781613Y-86089306D01*
X77237560Y-86180000D01*
X77702440Y-86180000D01*
X78158387Y-86089306D01*
X78587879Y-85911405D01*
X78974412Y-85653132D01*
X79303132Y-85324412D01*
X79551697Y-84952408D01*
X84709000Y-84952408D01*
X84709000Y-85227592D01*
X84762686Y-85497490D01*
X84867995Y-85751727D01*
X85020880Y-85980535D01*
X85215465Y-86175120D01*
X85444273Y-86328005D01*
X85521515Y-86360000D01*
X85444273Y-86391995D01*
X85215465Y-86544880D01*
X85020880Y-86739465D01*
X84867995Y-86968273D01*
X84762686Y-87222510D01*
X84709000Y-87492408D01*
X84709000Y-87767592D01*
X84762686Y-88037490D01*
X84867995Y-88291727D01*
X85020880Y-88520535D01*
X85215465Y-88715120D01*
X85444273Y-88868005D01*
X85698510Y-88973314D01*
X85968408Y-89027000D01*
X86243592Y-89027000D01*
X86513490Y-88973314D01*
X86767727Y-88868005D01*
X86996535Y-88715120D01*
X87191120Y-88520535D01*
X87234575Y-88455500D01*
X107925953Y-88455500D01*
X107840744Y-88490795D01*
X107671226Y-88604063D01*
X107527063Y-88748226D01*
X107413795Y-88917744D01*
X107335774Y-89106102D01*
X107296000Y-89306061D01*
X107296000Y-89509939D01*
X107335774Y-89709898D01*
X107413795Y-89898256D01*
X107527063Y-90067774D01*
X107671226Y-90211937D01*
X107840744Y-90325205D01*
X108029102Y-90403226D01*
X108229061Y-90443000D01*
X108432939Y-90443000D01*
X108632898Y-90403226D01*
X108821256Y-90325205D01*
X108958503Y-90233500D01*
X151271425Y-90233500D01*
X151314880Y-90298535D01*
X151509465Y-90493120D01*
X151738273Y-90646005D01*
X151992510Y-90751314D01*
X152262408Y-90805000D01*
X152537592Y-90805000D01*
X152807490Y-90751314D01*
X153061727Y-90646005D01*
X153290535Y-90493120D01*
X153485120Y-90298535D01*
X153638005Y-90069727D01*
X153743314Y-89815490D01*
X153797000Y-89545592D01*
X153797000Y-89270408D01*
X153743314Y-89000510D01*
X153638005Y-88746273D01*
X153485120Y-88517465D01*
X153290535Y-88322880D01*
X153061727Y-88169995D01*
X152807490Y-88064686D01*
X152537592Y-88011000D01*
X152262408Y-88011000D01*
X151992510Y-88064686D01*
X151738273Y-88169995D01*
X151509465Y-88322880D01*
X151314880Y-88517465D01*
X151271425Y-88582500D01*
X126135047Y-88582500D01*
X126220256Y-88547205D01*
X126389774Y-88433937D01*
X126533937Y-88289774D01*
X126647205Y-88120256D01*
X126725226Y-87931898D01*
X126765000Y-87731939D01*
X126765000Y-87528061D01*
X126725226Y-87328102D01*
X126647205Y-87139744D01*
X126533937Y-86970226D01*
X126389774Y-86826063D01*
X126220256Y-86712795D01*
X126031898Y-86634774D01*
X125831939Y-86595000D01*
X125628061Y-86595000D01*
X125428102Y-86634774D01*
X125239744Y-86712795D01*
X125102497Y-86804500D01*
X87234575Y-86804500D01*
X87191120Y-86739465D01*
X86996535Y-86544880D01*
X86767727Y-86391995D01*
X86690485Y-86360000D01*
X86767727Y-86328005D01*
X86996535Y-86175120D01*
X87191120Y-85980535D01*
X87234575Y-85915500D01*
X127407080Y-85915500D01*
X127466063Y-86003774D01*
X127610226Y-86147937D01*
X127779744Y-86261205D01*
X127968102Y-86339226D01*
X128168061Y-86379000D01*
X128371939Y-86379000D01*
X128571898Y-86339226D01*
X128760256Y-86261205D01*
X128929774Y-86147937D01*
X129073937Y-86003774D01*
X129187205Y-85834256D01*
X129265226Y-85645898D01*
X129305000Y-85445939D01*
X129305000Y-85242061D01*
X129287384Y-85153500D01*
X133357497Y-85153500D01*
X133494744Y-85245205D01*
X133683102Y-85323226D01*
X133883061Y-85363000D01*
X134086939Y-85363000D01*
X134286898Y-85323226D01*
X134475256Y-85245205D01*
X134612503Y-85153500D01*
X151271425Y-85153500D01*
X151314880Y-85218535D01*
X151509465Y-85413120D01*
X151738273Y-85566005D01*
X151992510Y-85671314D01*
X152262408Y-85725000D01*
X152537592Y-85725000D01*
X152807490Y-85671314D01*
X153061727Y-85566005D01*
X153290535Y-85413120D01*
X153485120Y-85218535D01*
X153638005Y-84989727D01*
X153743314Y-84735490D01*
X153797000Y-84465592D01*
X153797000Y-84190408D01*
X153743314Y-83920510D01*
X153638005Y-83666273D01*
X153485120Y-83437465D01*
X153290535Y-83242880D01*
X153061727Y-83089995D01*
X152807490Y-82984686D01*
X152537592Y-82931000D01*
X152262408Y-82931000D01*
X151992510Y-82984686D01*
X151738273Y-83089995D01*
X151509465Y-83242880D01*
X151314880Y-83437465D01*
X151271425Y-83502500D01*
X134612503Y-83502500D01*
X134475256Y-83410795D01*
X134286898Y-83332774D01*
X134086939Y-83293000D01*
X133883061Y-83293000D01*
X133683102Y-83332774D01*
X133494744Y-83410795D01*
X133357497Y-83502500D01*
X125322920Y-83502500D01*
X125263937Y-83414226D01*
X125119774Y-83270063D01*
X124950256Y-83156795D01*
X124761898Y-83078774D01*
X124561939Y-83039000D01*
X124358061Y-83039000D01*
X124158102Y-83078774D01*
X123969744Y-83156795D01*
X123800226Y-83270063D01*
X123656063Y-83414226D01*
X123542795Y-83583744D01*
X123464774Y-83772102D01*
X123425000Y-83972061D01*
X123425000Y-84175939D01*
X123442616Y-84264500D01*
X87234575Y-84264500D01*
X87191120Y-84199465D01*
X86996535Y-84004880D01*
X86767727Y-83851995D01*
X86513490Y-83746686D01*
X86243592Y-83693000D01*
X85968408Y-83693000D01*
X85698510Y-83746686D01*
X85444273Y-83851995D01*
X85215465Y-84004880D01*
X85020880Y-84199465D01*
X84867995Y-84428273D01*
X84762686Y-84682510D01*
X84709000Y-84952408D01*
X79551697Y-84952408D01*
X79561405Y-84937879D01*
X79739306Y-84508387D01*
X79830000Y-84052440D01*
X79830000Y-83587560D01*
X79739306Y-83131613D01*
X79561405Y-82702121D01*
X79303132Y-82315588D01*
X78974412Y-81986868D01*
X78587879Y-81728595D01*
X78158387Y-81550694D01*
X77702440Y-81460000D01*
X77237560Y-81460000D01*
X76781613Y-81550694D01*
X76352121Y-81728595D01*
X75965588Y-81986868D01*
X75636868Y-82315588D01*
X75378595Y-82702121D01*
X75200694Y-83131613D01*
X75110000Y-83587560D01*
X73125000Y-83587560D01*
X73125000Y-80226000D01*
X96097928Y-80226000D01*
X96097928Y-81826000D01*
X96110188Y-81950482D01*
X96146498Y-82070180D01*
X96205463Y-82180494D01*
X96284815Y-82277185D01*
X96381506Y-82356537D01*
X96491820Y-82415502D01*
X96611518Y-82451812D01*
X96736000Y-82464072D01*
X98336000Y-82464072D01*
X98460482Y-82451812D01*
X98580180Y-82415502D01*
X98690494Y-82356537D01*
X98787185Y-82277185D01*
X98866537Y-82180494D01*
X98925502Y-82070180D01*
X98961812Y-81950482D01*
X98974072Y-81826000D01*
X98974072Y-80226000D01*
X98961812Y-80101518D01*
X98925502Y-79981820D01*
X98866537Y-79871506D01*
X98787185Y-79774815D01*
X98690494Y-79695463D01*
X98580180Y-79636498D01*
X98460482Y-79600188D01*
X98336000Y-79587928D01*
X96736000Y-79587928D01*
X96611518Y-79600188D01*
X96491820Y-79636498D01*
X96381506Y-79695463D01*
X96284815Y-79774815D01*
X96205463Y-79871506D01*
X96146498Y-79981820D01*
X96110188Y-80101518D01*
X96097928Y-80226000D01*
X73125000Y-80226000D01*
X73125000Y-77513721D01*
X116185000Y-77513721D01*
X116185000Y-77934279D01*
X116267047Y-78346756D01*
X116427988Y-78735302D01*
X116661637Y-79084983D01*
X116959017Y-79382363D01*
X117308698Y-79616012D01*
X117697244Y-79776953D01*
X118109721Y-79859000D01*
X118530279Y-79859000D01*
X118942756Y-79776953D01*
X119331302Y-79616012D01*
X119680983Y-79382363D01*
X119978363Y-79084983D01*
X120212012Y-78735302D01*
X120372953Y-78346756D01*
X120455000Y-77934279D01*
X120455000Y-77513721D01*
X120372953Y-77101244D01*
X120212012Y-76712698D01*
X119978363Y-76363017D01*
X119680983Y-76065637D01*
X119331302Y-75831988D01*
X118942756Y-75671047D01*
X118530279Y-75589000D01*
X118109721Y-75589000D01*
X117697244Y-75671047D01*
X117308698Y-75831988D01*
X116959017Y-76065637D01*
X116661637Y-76363017D01*
X116427988Y-76712698D01*
X116267047Y-77101244D01*
X116185000Y-77513721D01*
X73125000Y-77513721D01*
X73125000Y-76489946D01*
X73153158Y-76202764D01*
X73226123Y-75961093D01*
X73344637Y-75738201D01*
X73504187Y-75542573D01*
X73698699Y-75381660D01*
X73920756Y-75261593D01*
X74161912Y-75186944D01*
X74446811Y-75157000D01*
X122458168Y-75157000D01*
X122243368Y-75300525D01*
G36*
X129863368Y-75300525D02*
G01*
X129656525Y-75507368D01*
X129494010Y-75750589D01*
X129382068Y-76020842D01*
X129325000Y-76307740D01*
X129325000Y-76600260D01*
X129382068Y-76887158D01*
X129494010Y-77157411D01*
X129656525Y-77400632D01*
X129863368Y-77607475D01*
X130037760Y-77724000D01*
X129863368Y-77840525D01*
X129656525Y-78047368D01*
X129540000Y-78221760D01*
X129423475Y-78047368D01*
X129216632Y-77840525D01*
X128973411Y-77678010D01*
X128703158Y-77566068D01*
X128416260Y-77509000D01*
X128123740Y-77509000D01*
X127836842Y-77566068D01*
X127566589Y-77678010D01*
X127323368Y-77840525D01*
X127116525Y-78047368D01*
X127000000Y-78221760D01*
X126883475Y-78047368D01*
X126676632Y-77840525D01*
X126502240Y-77724000D01*
X126676632Y-77607475D01*
X126883475Y-77400632D01*
X127045990Y-77157411D01*
X127157932Y-76887158D01*
X127215000Y-76600260D01*
X127215000Y-76307740D01*
X127157932Y-76020842D01*
X127045990Y-75750589D01*
X126883475Y-75507368D01*
X126676632Y-75300525D01*
X126461832Y-75157000D01*
X130078168Y-75157000D01*
X129863368Y-75300525D01*
G37*
X129863368Y-75300525D02*
X129656525Y-75507368D01*
X129494010Y-75750589D01*
X129382068Y-76020842D01*
X129325000Y-76307740D01*
X129325000Y-76600260D01*
X129382068Y-76887158D01*
X129494010Y-77157411D01*
X129656525Y-77400632D01*
X129863368Y-77607475D01*
X130037760Y-77724000D01*
X129863368Y-77840525D01*
X129656525Y-78047368D01*
X129540000Y-78221760D01*
X129423475Y-78047368D01*
X129216632Y-77840525D01*
X128973411Y-77678010D01*
X128703158Y-77566068D01*
X128416260Y-77509000D01*
X128123740Y-77509000D01*
X127836842Y-77566068D01*
X127566589Y-77678010D01*
X127323368Y-77840525D01*
X127116525Y-78047368D01*
X127000000Y-78221760D01*
X126883475Y-78047368D01*
X126676632Y-77840525D01*
X126502240Y-77724000D01*
X126676632Y-77607475D01*
X126883475Y-77400632D01*
X127045990Y-77157411D01*
X127157932Y-76887158D01*
X127215000Y-76600260D01*
X127215000Y-76307740D01*
X127157932Y-76020842D01*
X127045990Y-75750589D01*
X126883475Y-75507368D01*
X126676632Y-75300525D01*
X126461832Y-75157000D01*
X130078168Y-75157000D01*
X129863368Y-75300525D01*
G36*
X165423368Y-75300525D02*
G01*
X165216525Y-75507368D01*
X165054010Y-75750589D01*
X164942068Y-76020842D01*
X164885000Y-76307740D01*
X164885000Y-76600260D01*
X164942068Y-76887158D01*
X165054010Y-77157411D01*
X165216525Y-77400632D01*
X165423368Y-77607475D01*
X165597760Y-77724000D01*
X165423368Y-77840525D01*
X165216525Y-78047368D01*
X165100000Y-78221760D01*
X164983475Y-78047368D01*
X164776632Y-77840525D01*
X164533411Y-77678010D01*
X164263158Y-77566068D01*
X163976260Y-77509000D01*
X163683740Y-77509000D01*
X163396842Y-77566068D01*
X163126589Y-77678010D01*
X162883368Y-77840525D01*
X162676525Y-78047368D01*
X162560000Y-78221760D01*
X162443475Y-78047368D01*
X162236632Y-77840525D01*
X162062240Y-77724000D01*
X162236632Y-77607475D01*
X162443475Y-77400632D01*
X162605990Y-77157411D01*
X162717932Y-76887158D01*
X162775000Y-76600260D01*
X162775000Y-76307740D01*
X162717932Y-76020842D01*
X162605990Y-75750589D01*
X162443475Y-75507368D01*
X162236632Y-75300525D01*
X162021832Y-75157000D01*
X165638168Y-75157000D01*
X165423368Y-75300525D01*
G37*
X165423368Y-75300525D02*
X165216525Y-75507368D01*
X165054010Y-75750589D01*
X164942068Y-76020842D01*
X164885000Y-76307740D01*
X164885000Y-76600260D01*
X164942068Y-76887158D01*
X165054010Y-77157411D01*
X165216525Y-77400632D01*
X165423368Y-77607475D01*
X165597760Y-77724000D01*
X165423368Y-77840525D01*
X165216525Y-78047368D01*
X165100000Y-78221760D01*
X164983475Y-78047368D01*
X164776632Y-77840525D01*
X164533411Y-77678010D01*
X164263158Y-77566068D01*
X163976260Y-77509000D01*
X163683740Y-77509000D01*
X163396842Y-77566068D01*
X163126589Y-77678010D01*
X162883368Y-77840525D01*
X162676525Y-78047368D01*
X162560000Y-78221760D01*
X162443475Y-78047368D01*
X162236632Y-77840525D01*
X162062240Y-77724000D01*
X162236632Y-77607475D01*
X162443475Y-77400632D01*
X162605990Y-77157411D01*
X162717932Y-76887158D01*
X162775000Y-76600260D01*
X162775000Y-76307740D01*
X162717932Y-76020842D01*
X162605990Y-75750589D01*
X162443475Y-75507368D01*
X162236632Y-75300525D01*
X162021832Y-75157000D01*
X165638168Y-75157000D01*
X165423368Y-75300525D01*
G36*
X160343368Y-75300525D02*
G01*
X160136525Y-75507368D01*
X159974010Y-75750589D01*
X159862068Y-76020842D01*
X159805000Y-76307740D01*
X159805000Y-76600260D01*
X159862068Y-76887158D01*
X159974010Y-77157411D01*
X160136525Y-77400632D01*
X160343368Y-77607475D01*
X160517760Y-77724000D01*
X160343368Y-77840525D01*
X160136525Y-78047368D01*
X160020000Y-78221760D01*
X159903475Y-78047368D01*
X159696632Y-77840525D01*
X159453411Y-77678010D01*
X159183158Y-77566068D01*
X158896260Y-77509000D01*
X158603740Y-77509000D01*
X158316842Y-77566068D01*
X158046589Y-77678010D01*
X157803368Y-77840525D01*
X157596525Y-78047368D01*
X157480000Y-78221760D01*
X157363475Y-78047368D01*
X157156632Y-77840525D01*
X156982240Y-77724000D01*
X157156632Y-77607475D01*
X157363475Y-77400632D01*
X157525990Y-77157411D01*
X157637932Y-76887158D01*
X157695000Y-76600260D01*
X157695000Y-76307740D01*
X157637932Y-76020842D01*
X157525990Y-75750589D01*
X157363475Y-75507368D01*
X157156632Y-75300525D01*
X156941832Y-75157000D01*
X160558168Y-75157000D01*
X160343368Y-75300525D01*
G37*
X160343368Y-75300525D02*
X160136525Y-75507368D01*
X159974010Y-75750589D01*
X159862068Y-76020842D01*
X159805000Y-76307740D01*
X159805000Y-76600260D01*
X159862068Y-76887158D01*
X159974010Y-77157411D01*
X160136525Y-77400632D01*
X160343368Y-77607475D01*
X160517760Y-77724000D01*
X160343368Y-77840525D01*
X160136525Y-78047368D01*
X160020000Y-78221760D01*
X159903475Y-78047368D01*
X159696632Y-77840525D01*
X159453411Y-77678010D01*
X159183158Y-77566068D01*
X158896260Y-77509000D01*
X158603740Y-77509000D01*
X158316842Y-77566068D01*
X158046589Y-77678010D01*
X157803368Y-77840525D01*
X157596525Y-78047368D01*
X157480000Y-78221760D01*
X157363475Y-78047368D01*
X157156632Y-77840525D01*
X156982240Y-77724000D01*
X157156632Y-77607475D01*
X157363475Y-77400632D01*
X157525990Y-77157411D01*
X157637932Y-76887158D01*
X157695000Y-76600260D01*
X157695000Y-76307740D01*
X157637932Y-76020842D01*
X157525990Y-75750589D01*
X157363475Y-75507368D01*
X157156632Y-75300525D01*
X156941832Y-75157000D01*
X160558168Y-75157000D01*
X160343368Y-75300525D01*
G36*
X147643368Y-75300525D02*
G01*
X147436525Y-75507368D01*
X147274010Y-75750589D01*
X147162068Y-76020842D01*
X147105000Y-76307740D01*
X147105000Y-76600260D01*
X147162068Y-76887158D01*
X147274010Y-77157411D01*
X147436525Y-77400632D01*
X147643368Y-77607475D01*
X147817760Y-77724000D01*
X147643368Y-77840525D01*
X147436525Y-78047368D01*
X147320000Y-78221760D01*
X147203475Y-78047368D01*
X146996632Y-77840525D01*
X146753411Y-77678010D01*
X146483158Y-77566068D01*
X146196260Y-77509000D01*
X145903740Y-77509000D01*
X145616842Y-77566068D01*
X145346589Y-77678010D01*
X145103368Y-77840525D01*
X144896525Y-78047368D01*
X144780000Y-78221760D01*
X144663475Y-78047368D01*
X144456632Y-77840525D01*
X144282240Y-77724000D01*
X144456632Y-77607475D01*
X144663475Y-77400632D01*
X144825990Y-77157411D01*
X144937932Y-76887158D01*
X144995000Y-76600260D01*
X144995000Y-76307740D01*
X144937932Y-76020842D01*
X144825990Y-75750589D01*
X144663475Y-75507368D01*
X144456632Y-75300525D01*
X144241832Y-75157000D01*
X147858168Y-75157000D01*
X147643368Y-75300525D01*
G37*
X147643368Y-75300525D02*
X147436525Y-75507368D01*
X147274010Y-75750589D01*
X147162068Y-76020842D01*
X147105000Y-76307740D01*
X147105000Y-76600260D01*
X147162068Y-76887158D01*
X147274010Y-77157411D01*
X147436525Y-77400632D01*
X147643368Y-77607475D01*
X147817760Y-77724000D01*
X147643368Y-77840525D01*
X147436525Y-78047368D01*
X147320000Y-78221760D01*
X147203475Y-78047368D01*
X146996632Y-77840525D01*
X146753411Y-77678010D01*
X146483158Y-77566068D01*
X146196260Y-77509000D01*
X145903740Y-77509000D01*
X145616842Y-77566068D01*
X145346589Y-77678010D01*
X145103368Y-77840525D01*
X144896525Y-78047368D01*
X144780000Y-78221760D01*
X144663475Y-78047368D01*
X144456632Y-77840525D01*
X144282240Y-77724000D01*
X144456632Y-77607475D01*
X144663475Y-77400632D01*
X144825990Y-77157411D01*
X144937932Y-76887158D01*
X144995000Y-76600260D01*
X144995000Y-76307740D01*
X144937932Y-76020842D01*
X144825990Y-75750589D01*
X144663475Y-75507368D01*
X144456632Y-75300525D01*
X144241832Y-75157000D01*
X147858168Y-75157000D01*
X147643368Y-75300525D01*
G36*
X140023368Y-75300525D02*
G01*
X139816525Y-75507368D01*
X139654010Y-75750589D01*
X139542068Y-76020842D01*
X139485000Y-76307740D01*
X139485000Y-76600260D01*
X139542068Y-76887158D01*
X139654010Y-77157411D01*
X139816525Y-77400632D01*
X140023368Y-77607475D01*
X140197760Y-77724000D01*
X140023368Y-77840525D01*
X139816525Y-78047368D01*
X139700000Y-78221760D01*
X139583475Y-78047368D01*
X139376632Y-77840525D01*
X139133411Y-77678010D01*
X138863158Y-77566068D01*
X138576260Y-77509000D01*
X138283740Y-77509000D01*
X137996842Y-77566068D01*
X137726589Y-77678010D01*
X137483368Y-77840525D01*
X137276525Y-78047368D01*
X137160000Y-78221760D01*
X137043475Y-78047368D01*
X136836632Y-77840525D01*
X136662240Y-77724000D01*
X136836632Y-77607475D01*
X137043475Y-77400632D01*
X137205990Y-77157411D01*
X137317932Y-76887158D01*
X137375000Y-76600260D01*
X137375000Y-76307740D01*
X137317932Y-76020842D01*
X137205990Y-75750589D01*
X137043475Y-75507368D01*
X136836632Y-75300525D01*
X136621832Y-75157000D01*
X140238168Y-75157000D01*
X140023368Y-75300525D01*
G37*
X140023368Y-75300525D02*
X139816525Y-75507368D01*
X139654010Y-75750589D01*
X139542068Y-76020842D01*
X139485000Y-76307740D01*
X139485000Y-76600260D01*
X139542068Y-76887158D01*
X139654010Y-77157411D01*
X139816525Y-77400632D01*
X140023368Y-77607475D01*
X140197760Y-77724000D01*
X140023368Y-77840525D01*
X139816525Y-78047368D01*
X139700000Y-78221760D01*
X139583475Y-78047368D01*
X139376632Y-77840525D01*
X139133411Y-77678010D01*
X138863158Y-77566068D01*
X138576260Y-77509000D01*
X138283740Y-77509000D01*
X137996842Y-77566068D01*
X137726589Y-77678010D01*
X137483368Y-77840525D01*
X137276525Y-78047368D01*
X137160000Y-78221760D01*
X137043475Y-78047368D01*
X136836632Y-77840525D01*
X136662240Y-77724000D01*
X136836632Y-77607475D01*
X137043475Y-77400632D01*
X137205990Y-77157411D01*
X137317932Y-76887158D01*
X137375000Y-76600260D01*
X137375000Y-76307740D01*
X137317932Y-76020842D01*
X137205990Y-75750589D01*
X137043475Y-75507368D01*
X136836632Y-75300525D01*
X136621832Y-75157000D01*
X140238168Y-75157000D01*
X140023368Y-75300525D01*
M02*
