G04 #@! TF.GenerationSoftware,KiCad,Pcbnew,(5.1.4)-1*
G04 #@! TF.CreationDate,2020-11-03T16:52:14-06:00*
G04 #@! TF.ProjectId,RaspberryPiBreakout_Hardware,52617370-6265-4727-9279-506942726561,rev?*
G04 #@! TF.SameCoordinates,Original*
G04 #@! TF.FileFunction,Copper,L1,Top*
G04 #@! TF.FilePolarity,Positive*
%FSLAX46Y46*%
G04 Gerber Fmt 4.6, Leading zero omitted, Abs format (unit mm)*
G04 Created by KiCad (PCBNEW (5.1.4)-1) date 2020-11-03 16:52:14*
%MOMM*%
%LPD*%
G04 APERTURE LIST*
%ADD10C,1.700000*%
%ADD11C,0.100000*%
%ADD12C,0.950000*%
%ADD13C,5.080000*%
%ADD14C,1.524000*%
%ADD15C,1.600000*%
%ADD16R,1.600000X1.600000*%
%ADD17C,0.800000*%
%ADD18C,0.762000*%
%ADD19C,0.381000*%
%ADD20C,0.254000*%
G04 APERTURE END LIST*
D10*
X171450000Y-76454000D03*
X171450000Y-78994000D03*
X168910000Y-76454000D03*
X168910000Y-78994000D03*
X166370000Y-76454000D03*
X166370000Y-78994000D03*
X163830000Y-76454000D03*
X163830000Y-78994000D03*
X161290000Y-76454000D03*
X161290000Y-78994000D03*
X158750000Y-76454000D03*
X158750000Y-78994000D03*
X156210000Y-76454000D03*
X156210000Y-78994000D03*
X153670000Y-76454000D03*
X153670000Y-78994000D03*
X151130000Y-76454000D03*
X151130000Y-78994000D03*
X148590000Y-76454000D03*
X148590000Y-78994000D03*
X146050000Y-76454000D03*
X146050000Y-78994000D03*
X143510000Y-76454000D03*
X143510000Y-78994000D03*
X140970000Y-76454000D03*
X140970000Y-78994000D03*
X138430000Y-76454000D03*
X138430000Y-78994000D03*
X135890000Y-76454000D03*
X135890000Y-78994000D03*
X133350000Y-76454000D03*
X133350000Y-78994000D03*
X130810000Y-76454000D03*
X130810000Y-78994000D03*
X128270000Y-76454000D03*
X128270000Y-78994000D03*
X125730000Y-76454000D03*
X125730000Y-78994000D03*
X123190000Y-76454000D03*
X123190000Y-78994000D03*
D11*
G36*
X117940779Y-105571144D02*
G01*
X117963834Y-105574563D01*
X117986443Y-105580227D01*
X118008387Y-105588079D01*
X118029457Y-105598044D01*
X118049448Y-105610026D01*
X118068168Y-105623910D01*
X118085438Y-105639562D01*
X118101090Y-105656832D01*
X118114974Y-105675552D01*
X118126956Y-105695543D01*
X118136921Y-105716613D01*
X118144773Y-105738557D01*
X118150437Y-105761166D01*
X118153856Y-105784221D01*
X118155000Y-105807500D01*
X118155000Y-106282500D01*
X118153856Y-106305779D01*
X118150437Y-106328834D01*
X118144773Y-106351443D01*
X118136921Y-106373387D01*
X118126956Y-106394457D01*
X118114974Y-106414448D01*
X118101090Y-106433168D01*
X118085438Y-106450438D01*
X118068168Y-106466090D01*
X118049448Y-106479974D01*
X118029457Y-106491956D01*
X118008387Y-106501921D01*
X117986443Y-106509773D01*
X117963834Y-106515437D01*
X117940779Y-106518856D01*
X117917500Y-106520000D01*
X117342500Y-106520000D01*
X117319221Y-106518856D01*
X117296166Y-106515437D01*
X117273557Y-106509773D01*
X117251613Y-106501921D01*
X117230543Y-106491956D01*
X117210552Y-106479974D01*
X117191832Y-106466090D01*
X117174562Y-106450438D01*
X117158910Y-106433168D01*
X117145026Y-106414448D01*
X117133044Y-106394457D01*
X117123079Y-106373387D01*
X117115227Y-106351443D01*
X117109563Y-106328834D01*
X117106144Y-106305779D01*
X117105000Y-106282500D01*
X117105000Y-105807500D01*
X117106144Y-105784221D01*
X117109563Y-105761166D01*
X117115227Y-105738557D01*
X117123079Y-105716613D01*
X117133044Y-105695543D01*
X117145026Y-105675552D01*
X117158910Y-105656832D01*
X117174562Y-105639562D01*
X117191832Y-105623910D01*
X117210552Y-105610026D01*
X117230543Y-105598044D01*
X117251613Y-105588079D01*
X117273557Y-105580227D01*
X117296166Y-105574563D01*
X117319221Y-105571144D01*
X117342500Y-105570000D01*
X117917500Y-105570000D01*
X117940779Y-105571144D01*
X117940779Y-105571144D01*
G37*
D12*
X117630000Y-106045000D03*
D11*
G36*
X119690779Y-105571144D02*
G01*
X119713834Y-105574563D01*
X119736443Y-105580227D01*
X119758387Y-105588079D01*
X119779457Y-105598044D01*
X119799448Y-105610026D01*
X119818168Y-105623910D01*
X119835438Y-105639562D01*
X119851090Y-105656832D01*
X119864974Y-105675552D01*
X119876956Y-105695543D01*
X119886921Y-105716613D01*
X119894773Y-105738557D01*
X119900437Y-105761166D01*
X119903856Y-105784221D01*
X119905000Y-105807500D01*
X119905000Y-106282500D01*
X119903856Y-106305779D01*
X119900437Y-106328834D01*
X119894773Y-106351443D01*
X119886921Y-106373387D01*
X119876956Y-106394457D01*
X119864974Y-106414448D01*
X119851090Y-106433168D01*
X119835438Y-106450438D01*
X119818168Y-106466090D01*
X119799448Y-106479974D01*
X119779457Y-106491956D01*
X119758387Y-106501921D01*
X119736443Y-106509773D01*
X119713834Y-106515437D01*
X119690779Y-106518856D01*
X119667500Y-106520000D01*
X119092500Y-106520000D01*
X119069221Y-106518856D01*
X119046166Y-106515437D01*
X119023557Y-106509773D01*
X119001613Y-106501921D01*
X118980543Y-106491956D01*
X118960552Y-106479974D01*
X118941832Y-106466090D01*
X118924562Y-106450438D01*
X118908910Y-106433168D01*
X118895026Y-106414448D01*
X118883044Y-106394457D01*
X118873079Y-106373387D01*
X118865227Y-106351443D01*
X118859563Y-106328834D01*
X118856144Y-106305779D01*
X118855000Y-106282500D01*
X118855000Y-105807500D01*
X118856144Y-105784221D01*
X118859563Y-105761166D01*
X118865227Y-105738557D01*
X118873079Y-105716613D01*
X118883044Y-105695543D01*
X118895026Y-105675552D01*
X118908910Y-105656832D01*
X118924562Y-105639562D01*
X118941832Y-105623910D01*
X118960552Y-105610026D01*
X118980543Y-105598044D01*
X119001613Y-105588079D01*
X119023557Y-105580227D01*
X119046166Y-105574563D01*
X119069221Y-105571144D01*
X119092500Y-105570000D01*
X119667500Y-105570000D01*
X119690779Y-105571144D01*
X119690779Y-105571144D01*
G37*
D12*
X119380000Y-106045000D03*
D13*
X86360000Y-81026000D03*
X86360000Y-88900000D03*
D11*
G36*
X114455779Y-105571144D02*
G01*
X114478834Y-105574563D01*
X114501443Y-105580227D01*
X114523387Y-105588079D01*
X114544457Y-105598044D01*
X114564448Y-105610026D01*
X114583168Y-105623910D01*
X114600438Y-105639562D01*
X114616090Y-105656832D01*
X114629974Y-105675552D01*
X114641956Y-105695543D01*
X114651921Y-105716613D01*
X114659773Y-105738557D01*
X114665437Y-105761166D01*
X114668856Y-105784221D01*
X114670000Y-105807500D01*
X114670000Y-106282500D01*
X114668856Y-106305779D01*
X114665437Y-106328834D01*
X114659773Y-106351443D01*
X114651921Y-106373387D01*
X114641956Y-106394457D01*
X114629974Y-106414448D01*
X114616090Y-106433168D01*
X114600438Y-106450438D01*
X114583168Y-106466090D01*
X114564448Y-106479974D01*
X114544457Y-106491956D01*
X114523387Y-106501921D01*
X114501443Y-106509773D01*
X114478834Y-106515437D01*
X114455779Y-106518856D01*
X114432500Y-106520000D01*
X113857500Y-106520000D01*
X113834221Y-106518856D01*
X113811166Y-106515437D01*
X113788557Y-106509773D01*
X113766613Y-106501921D01*
X113745543Y-106491956D01*
X113725552Y-106479974D01*
X113706832Y-106466090D01*
X113689562Y-106450438D01*
X113673910Y-106433168D01*
X113660026Y-106414448D01*
X113648044Y-106394457D01*
X113638079Y-106373387D01*
X113630227Y-106351443D01*
X113624563Y-106328834D01*
X113621144Y-106305779D01*
X113620000Y-106282500D01*
X113620000Y-105807500D01*
X113621144Y-105784221D01*
X113624563Y-105761166D01*
X113630227Y-105738557D01*
X113638079Y-105716613D01*
X113648044Y-105695543D01*
X113660026Y-105675552D01*
X113673910Y-105656832D01*
X113689562Y-105639562D01*
X113706832Y-105623910D01*
X113725552Y-105610026D01*
X113745543Y-105598044D01*
X113766613Y-105588079D01*
X113788557Y-105580227D01*
X113811166Y-105574563D01*
X113834221Y-105571144D01*
X113857500Y-105570000D01*
X114432500Y-105570000D01*
X114455779Y-105571144D01*
X114455779Y-105571144D01*
G37*
D12*
X114145000Y-106045000D03*
D11*
G36*
X112705779Y-105571144D02*
G01*
X112728834Y-105574563D01*
X112751443Y-105580227D01*
X112773387Y-105588079D01*
X112794457Y-105598044D01*
X112814448Y-105610026D01*
X112833168Y-105623910D01*
X112850438Y-105639562D01*
X112866090Y-105656832D01*
X112879974Y-105675552D01*
X112891956Y-105695543D01*
X112901921Y-105716613D01*
X112909773Y-105738557D01*
X112915437Y-105761166D01*
X112918856Y-105784221D01*
X112920000Y-105807500D01*
X112920000Y-106282500D01*
X112918856Y-106305779D01*
X112915437Y-106328834D01*
X112909773Y-106351443D01*
X112901921Y-106373387D01*
X112891956Y-106394457D01*
X112879974Y-106414448D01*
X112866090Y-106433168D01*
X112850438Y-106450438D01*
X112833168Y-106466090D01*
X112814448Y-106479974D01*
X112794457Y-106491956D01*
X112773387Y-106501921D01*
X112751443Y-106509773D01*
X112728834Y-106515437D01*
X112705779Y-106518856D01*
X112682500Y-106520000D01*
X112107500Y-106520000D01*
X112084221Y-106518856D01*
X112061166Y-106515437D01*
X112038557Y-106509773D01*
X112016613Y-106501921D01*
X111995543Y-106491956D01*
X111975552Y-106479974D01*
X111956832Y-106466090D01*
X111939562Y-106450438D01*
X111923910Y-106433168D01*
X111910026Y-106414448D01*
X111898044Y-106394457D01*
X111888079Y-106373387D01*
X111880227Y-106351443D01*
X111874563Y-106328834D01*
X111871144Y-106305779D01*
X111870000Y-106282500D01*
X111870000Y-105807500D01*
X111871144Y-105784221D01*
X111874563Y-105761166D01*
X111880227Y-105738557D01*
X111888079Y-105716613D01*
X111898044Y-105695543D01*
X111910026Y-105675552D01*
X111923910Y-105656832D01*
X111939562Y-105639562D01*
X111956832Y-105623910D01*
X111975552Y-105610026D01*
X111995543Y-105598044D01*
X112016613Y-105588079D01*
X112038557Y-105580227D01*
X112061166Y-105574563D01*
X112084221Y-105571144D01*
X112107500Y-105570000D01*
X112682500Y-105570000D01*
X112705779Y-105571144D01*
X112705779Y-105571144D01*
G37*
D12*
X112395000Y-106045000D03*
D11*
G36*
X107625779Y-105571144D02*
G01*
X107648834Y-105574563D01*
X107671443Y-105580227D01*
X107693387Y-105588079D01*
X107714457Y-105598044D01*
X107734448Y-105610026D01*
X107753168Y-105623910D01*
X107770438Y-105639562D01*
X107786090Y-105656832D01*
X107799974Y-105675552D01*
X107811956Y-105695543D01*
X107821921Y-105716613D01*
X107829773Y-105738557D01*
X107835437Y-105761166D01*
X107838856Y-105784221D01*
X107840000Y-105807500D01*
X107840000Y-106282500D01*
X107838856Y-106305779D01*
X107835437Y-106328834D01*
X107829773Y-106351443D01*
X107821921Y-106373387D01*
X107811956Y-106394457D01*
X107799974Y-106414448D01*
X107786090Y-106433168D01*
X107770438Y-106450438D01*
X107753168Y-106466090D01*
X107734448Y-106479974D01*
X107714457Y-106491956D01*
X107693387Y-106501921D01*
X107671443Y-106509773D01*
X107648834Y-106515437D01*
X107625779Y-106518856D01*
X107602500Y-106520000D01*
X107027500Y-106520000D01*
X107004221Y-106518856D01*
X106981166Y-106515437D01*
X106958557Y-106509773D01*
X106936613Y-106501921D01*
X106915543Y-106491956D01*
X106895552Y-106479974D01*
X106876832Y-106466090D01*
X106859562Y-106450438D01*
X106843910Y-106433168D01*
X106830026Y-106414448D01*
X106818044Y-106394457D01*
X106808079Y-106373387D01*
X106800227Y-106351443D01*
X106794563Y-106328834D01*
X106791144Y-106305779D01*
X106790000Y-106282500D01*
X106790000Y-105807500D01*
X106791144Y-105784221D01*
X106794563Y-105761166D01*
X106800227Y-105738557D01*
X106808079Y-105716613D01*
X106818044Y-105695543D01*
X106830026Y-105675552D01*
X106843910Y-105656832D01*
X106859562Y-105639562D01*
X106876832Y-105623910D01*
X106895552Y-105610026D01*
X106915543Y-105598044D01*
X106936613Y-105588079D01*
X106958557Y-105580227D01*
X106981166Y-105574563D01*
X107004221Y-105571144D01*
X107027500Y-105570000D01*
X107602500Y-105570000D01*
X107625779Y-105571144D01*
X107625779Y-105571144D01*
G37*
D12*
X107315000Y-106045000D03*
D11*
G36*
X105875779Y-105571144D02*
G01*
X105898834Y-105574563D01*
X105921443Y-105580227D01*
X105943387Y-105588079D01*
X105964457Y-105598044D01*
X105984448Y-105610026D01*
X106003168Y-105623910D01*
X106020438Y-105639562D01*
X106036090Y-105656832D01*
X106049974Y-105675552D01*
X106061956Y-105695543D01*
X106071921Y-105716613D01*
X106079773Y-105738557D01*
X106085437Y-105761166D01*
X106088856Y-105784221D01*
X106090000Y-105807500D01*
X106090000Y-106282500D01*
X106088856Y-106305779D01*
X106085437Y-106328834D01*
X106079773Y-106351443D01*
X106071921Y-106373387D01*
X106061956Y-106394457D01*
X106049974Y-106414448D01*
X106036090Y-106433168D01*
X106020438Y-106450438D01*
X106003168Y-106466090D01*
X105984448Y-106479974D01*
X105964457Y-106491956D01*
X105943387Y-106501921D01*
X105921443Y-106509773D01*
X105898834Y-106515437D01*
X105875779Y-106518856D01*
X105852500Y-106520000D01*
X105277500Y-106520000D01*
X105254221Y-106518856D01*
X105231166Y-106515437D01*
X105208557Y-106509773D01*
X105186613Y-106501921D01*
X105165543Y-106491956D01*
X105145552Y-106479974D01*
X105126832Y-106466090D01*
X105109562Y-106450438D01*
X105093910Y-106433168D01*
X105080026Y-106414448D01*
X105068044Y-106394457D01*
X105058079Y-106373387D01*
X105050227Y-106351443D01*
X105044563Y-106328834D01*
X105041144Y-106305779D01*
X105040000Y-106282500D01*
X105040000Y-105807500D01*
X105041144Y-105784221D01*
X105044563Y-105761166D01*
X105050227Y-105738557D01*
X105058079Y-105716613D01*
X105068044Y-105695543D01*
X105080026Y-105675552D01*
X105093910Y-105656832D01*
X105109562Y-105639562D01*
X105126832Y-105623910D01*
X105145552Y-105610026D01*
X105165543Y-105598044D01*
X105186613Y-105588079D01*
X105208557Y-105580227D01*
X105231166Y-105574563D01*
X105254221Y-105571144D01*
X105277500Y-105570000D01*
X105852500Y-105570000D01*
X105875779Y-105571144D01*
X105875779Y-105571144D01*
G37*
D12*
X105565000Y-106045000D03*
D14*
X86360000Y-120650000D03*
X86360000Y-118110000D03*
X86360000Y-115570000D03*
X86360000Y-106680000D03*
X86360000Y-104140000D03*
X86360000Y-101600000D03*
X86360000Y-99060000D03*
X107315000Y-102870000D03*
X109855000Y-102870000D03*
X112395000Y-102870000D03*
D11*
G36*
X157635779Y-94776144D02*
G01*
X157658834Y-94779563D01*
X157681443Y-94785227D01*
X157703387Y-94793079D01*
X157724457Y-94803044D01*
X157744448Y-94815026D01*
X157763168Y-94828910D01*
X157780438Y-94844562D01*
X157796090Y-94861832D01*
X157809974Y-94880552D01*
X157821956Y-94900543D01*
X157831921Y-94921613D01*
X157839773Y-94943557D01*
X157845437Y-94966166D01*
X157848856Y-94989221D01*
X157850000Y-95012500D01*
X157850000Y-95487500D01*
X157848856Y-95510779D01*
X157845437Y-95533834D01*
X157839773Y-95556443D01*
X157831921Y-95578387D01*
X157821956Y-95599457D01*
X157809974Y-95619448D01*
X157796090Y-95638168D01*
X157780438Y-95655438D01*
X157763168Y-95671090D01*
X157744448Y-95684974D01*
X157724457Y-95696956D01*
X157703387Y-95706921D01*
X157681443Y-95714773D01*
X157658834Y-95720437D01*
X157635779Y-95723856D01*
X157612500Y-95725000D01*
X157037500Y-95725000D01*
X157014221Y-95723856D01*
X156991166Y-95720437D01*
X156968557Y-95714773D01*
X156946613Y-95706921D01*
X156925543Y-95696956D01*
X156905552Y-95684974D01*
X156886832Y-95671090D01*
X156869562Y-95655438D01*
X156853910Y-95638168D01*
X156840026Y-95619448D01*
X156828044Y-95599457D01*
X156818079Y-95578387D01*
X156810227Y-95556443D01*
X156804563Y-95533834D01*
X156801144Y-95510779D01*
X156800000Y-95487500D01*
X156800000Y-95012500D01*
X156801144Y-94989221D01*
X156804563Y-94966166D01*
X156810227Y-94943557D01*
X156818079Y-94921613D01*
X156828044Y-94900543D01*
X156840026Y-94880552D01*
X156853910Y-94861832D01*
X156869562Y-94844562D01*
X156886832Y-94828910D01*
X156905552Y-94815026D01*
X156925543Y-94803044D01*
X156946613Y-94793079D01*
X156968557Y-94785227D01*
X156991166Y-94779563D01*
X157014221Y-94776144D01*
X157037500Y-94775000D01*
X157612500Y-94775000D01*
X157635779Y-94776144D01*
X157635779Y-94776144D01*
G37*
D12*
X157325000Y-95250000D03*
D11*
G36*
X155885779Y-94776144D02*
G01*
X155908834Y-94779563D01*
X155931443Y-94785227D01*
X155953387Y-94793079D01*
X155974457Y-94803044D01*
X155994448Y-94815026D01*
X156013168Y-94828910D01*
X156030438Y-94844562D01*
X156046090Y-94861832D01*
X156059974Y-94880552D01*
X156071956Y-94900543D01*
X156081921Y-94921613D01*
X156089773Y-94943557D01*
X156095437Y-94966166D01*
X156098856Y-94989221D01*
X156100000Y-95012500D01*
X156100000Y-95487500D01*
X156098856Y-95510779D01*
X156095437Y-95533834D01*
X156089773Y-95556443D01*
X156081921Y-95578387D01*
X156071956Y-95599457D01*
X156059974Y-95619448D01*
X156046090Y-95638168D01*
X156030438Y-95655438D01*
X156013168Y-95671090D01*
X155994448Y-95684974D01*
X155974457Y-95696956D01*
X155953387Y-95706921D01*
X155931443Y-95714773D01*
X155908834Y-95720437D01*
X155885779Y-95723856D01*
X155862500Y-95725000D01*
X155287500Y-95725000D01*
X155264221Y-95723856D01*
X155241166Y-95720437D01*
X155218557Y-95714773D01*
X155196613Y-95706921D01*
X155175543Y-95696956D01*
X155155552Y-95684974D01*
X155136832Y-95671090D01*
X155119562Y-95655438D01*
X155103910Y-95638168D01*
X155090026Y-95619448D01*
X155078044Y-95599457D01*
X155068079Y-95578387D01*
X155060227Y-95556443D01*
X155054563Y-95533834D01*
X155051144Y-95510779D01*
X155050000Y-95487500D01*
X155050000Y-95012500D01*
X155051144Y-94989221D01*
X155054563Y-94966166D01*
X155060227Y-94943557D01*
X155068079Y-94921613D01*
X155078044Y-94900543D01*
X155090026Y-94880552D01*
X155103910Y-94861832D01*
X155119562Y-94844562D01*
X155136832Y-94828910D01*
X155155552Y-94815026D01*
X155175543Y-94803044D01*
X155196613Y-94793079D01*
X155218557Y-94785227D01*
X155241166Y-94779563D01*
X155264221Y-94776144D01*
X155287500Y-94775000D01*
X155862500Y-94775000D01*
X155885779Y-94776144D01*
X155885779Y-94776144D01*
G37*
D12*
X155575000Y-95250000D03*
D11*
G36*
X157635779Y-102396144D02*
G01*
X157658834Y-102399563D01*
X157681443Y-102405227D01*
X157703387Y-102413079D01*
X157724457Y-102423044D01*
X157744448Y-102435026D01*
X157763168Y-102448910D01*
X157780438Y-102464562D01*
X157796090Y-102481832D01*
X157809974Y-102500552D01*
X157821956Y-102520543D01*
X157831921Y-102541613D01*
X157839773Y-102563557D01*
X157845437Y-102586166D01*
X157848856Y-102609221D01*
X157850000Y-102632500D01*
X157850000Y-103107500D01*
X157848856Y-103130779D01*
X157845437Y-103153834D01*
X157839773Y-103176443D01*
X157831921Y-103198387D01*
X157821956Y-103219457D01*
X157809974Y-103239448D01*
X157796090Y-103258168D01*
X157780438Y-103275438D01*
X157763168Y-103291090D01*
X157744448Y-103304974D01*
X157724457Y-103316956D01*
X157703387Y-103326921D01*
X157681443Y-103334773D01*
X157658834Y-103340437D01*
X157635779Y-103343856D01*
X157612500Y-103345000D01*
X157037500Y-103345000D01*
X157014221Y-103343856D01*
X156991166Y-103340437D01*
X156968557Y-103334773D01*
X156946613Y-103326921D01*
X156925543Y-103316956D01*
X156905552Y-103304974D01*
X156886832Y-103291090D01*
X156869562Y-103275438D01*
X156853910Y-103258168D01*
X156840026Y-103239448D01*
X156828044Y-103219457D01*
X156818079Y-103198387D01*
X156810227Y-103176443D01*
X156804563Y-103153834D01*
X156801144Y-103130779D01*
X156800000Y-103107500D01*
X156800000Y-102632500D01*
X156801144Y-102609221D01*
X156804563Y-102586166D01*
X156810227Y-102563557D01*
X156818079Y-102541613D01*
X156828044Y-102520543D01*
X156840026Y-102500552D01*
X156853910Y-102481832D01*
X156869562Y-102464562D01*
X156886832Y-102448910D01*
X156905552Y-102435026D01*
X156925543Y-102423044D01*
X156946613Y-102413079D01*
X156968557Y-102405227D01*
X156991166Y-102399563D01*
X157014221Y-102396144D01*
X157037500Y-102395000D01*
X157612500Y-102395000D01*
X157635779Y-102396144D01*
X157635779Y-102396144D01*
G37*
D12*
X157325000Y-102870000D03*
D11*
G36*
X155885779Y-102396144D02*
G01*
X155908834Y-102399563D01*
X155931443Y-102405227D01*
X155953387Y-102413079D01*
X155974457Y-102423044D01*
X155994448Y-102435026D01*
X156013168Y-102448910D01*
X156030438Y-102464562D01*
X156046090Y-102481832D01*
X156059974Y-102500552D01*
X156071956Y-102520543D01*
X156081921Y-102541613D01*
X156089773Y-102563557D01*
X156095437Y-102586166D01*
X156098856Y-102609221D01*
X156100000Y-102632500D01*
X156100000Y-103107500D01*
X156098856Y-103130779D01*
X156095437Y-103153834D01*
X156089773Y-103176443D01*
X156081921Y-103198387D01*
X156071956Y-103219457D01*
X156059974Y-103239448D01*
X156046090Y-103258168D01*
X156030438Y-103275438D01*
X156013168Y-103291090D01*
X155994448Y-103304974D01*
X155974457Y-103316956D01*
X155953387Y-103326921D01*
X155931443Y-103334773D01*
X155908834Y-103340437D01*
X155885779Y-103343856D01*
X155862500Y-103345000D01*
X155287500Y-103345000D01*
X155264221Y-103343856D01*
X155241166Y-103340437D01*
X155218557Y-103334773D01*
X155196613Y-103326921D01*
X155175543Y-103316956D01*
X155155552Y-103304974D01*
X155136832Y-103291090D01*
X155119562Y-103275438D01*
X155103910Y-103258168D01*
X155090026Y-103239448D01*
X155078044Y-103219457D01*
X155068079Y-103198387D01*
X155060227Y-103176443D01*
X155054563Y-103153834D01*
X155051144Y-103130779D01*
X155050000Y-103107500D01*
X155050000Y-102632500D01*
X155051144Y-102609221D01*
X155054563Y-102586166D01*
X155060227Y-102563557D01*
X155068079Y-102541613D01*
X155078044Y-102520543D01*
X155090026Y-102500552D01*
X155103910Y-102481832D01*
X155119562Y-102464562D01*
X155136832Y-102448910D01*
X155155552Y-102435026D01*
X155175543Y-102423044D01*
X155196613Y-102413079D01*
X155218557Y-102405227D01*
X155241166Y-102399563D01*
X155264221Y-102396144D01*
X155287500Y-102395000D01*
X155862500Y-102395000D01*
X155885779Y-102396144D01*
X155885779Y-102396144D01*
G37*
D12*
X155575000Y-102870000D03*
D11*
G36*
X155885779Y-117636144D02*
G01*
X155908834Y-117639563D01*
X155931443Y-117645227D01*
X155953387Y-117653079D01*
X155974457Y-117663044D01*
X155994448Y-117675026D01*
X156013168Y-117688910D01*
X156030438Y-117704562D01*
X156046090Y-117721832D01*
X156059974Y-117740552D01*
X156071956Y-117760543D01*
X156081921Y-117781613D01*
X156089773Y-117803557D01*
X156095437Y-117826166D01*
X156098856Y-117849221D01*
X156100000Y-117872500D01*
X156100000Y-118347500D01*
X156098856Y-118370779D01*
X156095437Y-118393834D01*
X156089773Y-118416443D01*
X156081921Y-118438387D01*
X156071956Y-118459457D01*
X156059974Y-118479448D01*
X156046090Y-118498168D01*
X156030438Y-118515438D01*
X156013168Y-118531090D01*
X155994448Y-118544974D01*
X155974457Y-118556956D01*
X155953387Y-118566921D01*
X155931443Y-118574773D01*
X155908834Y-118580437D01*
X155885779Y-118583856D01*
X155862500Y-118585000D01*
X155287500Y-118585000D01*
X155264221Y-118583856D01*
X155241166Y-118580437D01*
X155218557Y-118574773D01*
X155196613Y-118566921D01*
X155175543Y-118556956D01*
X155155552Y-118544974D01*
X155136832Y-118531090D01*
X155119562Y-118515438D01*
X155103910Y-118498168D01*
X155090026Y-118479448D01*
X155078044Y-118459457D01*
X155068079Y-118438387D01*
X155060227Y-118416443D01*
X155054563Y-118393834D01*
X155051144Y-118370779D01*
X155050000Y-118347500D01*
X155050000Y-117872500D01*
X155051144Y-117849221D01*
X155054563Y-117826166D01*
X155060227Y-117803557D01*
X155068079Y-117781613D01*
X155078044Y-117760543D01*
X155090026Y-117740552D01*
X155103910Y-117721832D01*
X155119562Y-117704562D01*
X155136832Y-117688910D01*
X155155552Y-117675026D01*
X155175543Y-117663044D01*
X155196613Y-117653079D01*
X155218557Y-117645227D01*
X155241166Y-117639563D01*
X155264221Y-117636144D01*
X155287500Y-117635000D01*
X155862500Y-117635000D01*
X155885779Y-117636144D01*
X155885779Y-117636144D01*
G37*
D12*
X155575000Y-118110000D03*
D11*
G36*
X157635779Y-117636144D02*
G01*
X157658834Y-117639563D01*
X157681443Y-117645227D01*
X157703387Y-117653079D01*
X157724457Y-117663044D01*
X157744448Y-117675026D01*
X157763168Y-117688910D01*
X157780438Y-117704562D01*
X157796090Y-117721832D01*
X157809974Y-117740552D01*
X157821956Y-117760543D01*
X157831921Y-117781613D01*
X157839773Y-117803557D01*
X157845437Y-117826166D01*
X157848856Y-117849221D01*
X157850000Y-117872500D01*
X157850000Y-118347500D01*
X157848856Y-118370779D01*
X157845437Y-118393834D01*
X157839773Y-118416443D01*
X157831921Y-118438387D01*
X157821956Y-118459457D01*
X157809974Y-118479448D01*
X157796090Y-118498168D01*
X157780438Y-118515438D01*
X157763168Y-118531090D01*
X157744448Y-118544974D01*
X157724457Y-118556956D01*
X157703387Y-118566921D01*
X157681443Y-118574773D01*
X157658834Y-118580437D01*
X157635779Y-118583856D01*
X157612500Y-118585000D01*
X157037500Y-118585000D01*
X157014221Y-118583856D01*
X156991166Y-118580437D01*
X156968557Y-118574773D01*
X156946613Y-118566921D01*
X156925543Y-118556956D01*
X156905552Y-118544974D01*
X156886832Y-118531090D01*
X156869562Y-118515438D01*
X156853910Y-118498168D01*
X156840026Y-118479448D01*
X156828044Y-118459457D01*
X156818079Y-118438387D01*
X156810227Y-118416443D01*
X156804563Y-118393834D01*
X156801144Y-118370779D01*
X156800000Y-118347500D01*
X156800000Y-117872500D01*
X156801144Y-117849221D01*
X156804563Y-117826166D01*
X156810227Y-117803557D01*
X156818079Y-117781613D01*
X156828044Y-117760543D01*
X156840026Y-117740552D01*
X156853910Y-117721832D01*
X156869562Y-117704562D01*
X156886832Y-117688910D01*
X156905552Y-117675026D01*
X156925543Y-117663044D01*
X156946613Y-117653079D01*
X156968557Y-117645227D01*
X156991166Y-117639563D01*
X157014221Y-117636144D01*
X157037500Y-117635000D01*
X157612500Y-117635000D01*
X157635779Y-117636144D01*
X157635779Y-117636144D01*
G37*
D12*
X157325000Y-118110000D03*
D11*
G36*
X157635779Y-113826144D02*
G01*
X157658834Y-113829563D01*
X157681443Y-113835227D01*
X157703387Y-113843079D01*
X157724457Y-113853044D01*
X157744448Y-113865026D01*
X157763168Y-113878910D01*
X157780438Y-113894562D01*
X157796090Y-113911832D01*
X157809974Y-113930552D01*
X157821956Y-113950543D01*
X157831921Y-113971613D01*
X157839773Y-113993557D01*
X157845437Y-114016166D01*
X157848856Y-114039221D01*
X157850000Y-114062500D01*
X157850000Y-114537500D01*
X157848856Y-114560779D01*
X157845437Y-114583834D01*
X157839773Y-114606443D01*
X157831921Y-114628387D01*
X157821956Y-114649457D01*
X157809974Y-114669448D01*
X157796090Y-114688168D01*
X157780438Y-114705438D01*
X157763168Y-114721090D01*
X157744448Y-114734974D01*
X157724457Y-114746956D01*
X157703387Y-114756921D01*
X157681443Y-114764773D01*
X157658834Y-114770437D01*
X157635779Y-114773856D01*
X157612500Y-114775000D01*
X157037500Y-114775000D01*
X157014221Y-114773856D01*
X156991166Y-114770437D01*
X156968557Y-114764773D01*
X156946613Y-114756921D01*
X156925543Y-114746956D01*
X156905552Y-114734974D01*
X156886832Y-114721090D01*
X156869562Y-114705438D01*
X156853910Y-114688168D01*
X156840026Y-114669448D01*
X156828044Y-114649457D01*
X156818079Y-114628387D01*
X156810227Y-114606443D01*
X156804563Y-114583834D01*
X156801144Y-114560779D01*
X156800000Y-114537500D01*
X156800000Y-114062500D01*
X156801144Y-114039221D01*
X156804563Y-114016166D01*
X156810227Y-113993557D01*
X156818079Y-113971613D01*
X156828044Y-113950543D01*
X156840026Y-113930552D01*
X156853910Y-113911832D01*
X156869562Y-113894562D01*
X156886832Y-113878910D01*
X156905552Y-113865026D01*
X156925543Y-113853044D01*
X156946613Y-113843079D01*
X156968557Y-113835227D01*
X156991166Y-113829563D01*
X157014221Y-113826144D01*
X157037500Y-113825000D01*
X157612500Y-113825000D01*
X157635779Y-113826144D01*
X157635779Y-113826144D01*
G37*
D12*
X157325000Y-114300000D03*
D11*
G36*
X155885779Y-113826144D02*
G01*
X155908834Y-113829563D01*
X155931443Y-113835227D01*
X155953387Y-113843079D01*
X155974457Y-113853044D01*
X155994448Y-113865026D01*
X156013168Y-113878910D01*
X156030438Y-113894562D01*
X156046090Y-113911832D01*
X156059974Y-113930552D01*
X156071956Y-113950543D01*
X156081921Y-113971613D01*
X156089773Y-113993557D01*
X156095437Y-114016166D01*
X156098856Y-114039221D01*
X156100000Y-114062500D01*
X156100000Y-114537500D01*
X156098856Y-114560779D01*
X156095437Y-114583834D01*
X156089773Y-114606443D01*
X156081921Y-114628387D01*
X156071956Y-114649457D01*
X156059974Y-114669448D01*
X156046090Y-114688168D01*
X156030438Y-114705438D01*
X156013168Y-114721090D01*
X155994448Y-114734974D01*
X155974457Y-114746956D01*
X155953387Y-114756921D01*
X155931443Y-114764773D01*
X155908834Y-114770437D01*
X155885779Y-114773856D01*
X155862500Y-114775000D01*
X155287500Y-114775000D01*
X155264221Y-114773856D01*
X155241166Y-114770437D01*
X155218557Y-114764773D01*
X155196613Y-114756921D01*
X155175543Y-114746956D01*
X155155552Y-114734974D01*
X155136832Y-114721090D01*
X155119562Y-114705438D01*
X155103910Y-114688168D01*
X155090026Y-114669448D01*
X155078044Y-114649457D01*
X155068079Y-114628387D01*
X155060227Y-114606443D01*
X155054563Y-114583834D01*
X155051144Y-114560779D01*
X155050000Y-114537500D01*
X155050000Y-114062500D01*
X155051144Y-114039221D01*
X155054563Y-114016166D01*
X155060227Y-113993557D01*
X155068079Y-113971613D01*
X155078044Y-113950543D01*
X155090026Y-113930552D01*
X155103910Y-113911832D01*
X155119562Y-113894562D01*
X155136832Y-113878910D01*
X155155552Y-113865026D01*
X155175543Y-113853044D01*
X155196613Y-113843079D01*
X155218557Y-113835227D01*
X155241166Y-113829563D01*
X155264221Y-113826144D01*
X155287500Y-113825000D01*
X155862500Y-113825000D01*
X155885779Y-113826144D01*
X155885779Y-113826144D01*
G37*
D12*
X155575000Y-114300000D03*
D11*
G36*
X150805779Y-94776144D02*
G01*
X150828834Y-94779563D01*
X150851443Y-94785227D01*
X150873387Y-94793079D01*
X150894457Y-94803044D01*
X150914448Y-94815026D01*
X150933168Y-94828910D01*
X150950438Y-94844562D01*
X150966090Y-94861832D01*
X150979974Y-94880552D01*
X150991956Y-94900543D01*
X151001921Y-94921613D01*
X151009773Y-94943557D01*
X151015437Y-94966166D01*
X151018856Y-94989221D01*
X151020000Y-95012500D01*
X151020000Y-95487500D01*
X151018856Y-95510779D01*
X151015437Y-95533834D01*
X151009773Y-95556443D01*
X151001921Y-95578387D01*
X150991956Y-95599457D01*
X150979974Y-95619448D01*
X150966090Y-95638168D01*
X150950438Y-95655438D01*
X150933168Y-95671090D01*
X150914448Y-95684974D01*
X150894457Y-95696956D01*
X150873387Y-95706921D01*
X150851443Y-95714773D01*
X150828834Y-95720437D01*
X150805779Y-95723856D01*
X150782500Y-95725000D01*
X150207500Y-95725000D01*
X150184221Y-95723856D01*
X150161166Y-95720437D01*
X150138557Y-95714773D01*
X150116613Y-95706921D01*
X150095543Y-95696956D01*
X150075552Y-95684974D01*
X150056832Y-95671090D01*
X150039562Y-95655438D01*
X150023910Y-95638168D01*
X150010026Y-95619448D01*
X149998044Y-95599457D01*
X149988079Y-95578387D01*
X149980227Y-95556443D01*
X149974563Y-95533834D01*
X149971144Y-95510779D01*
X149970000Y-95487500D01*
X149970000Y-95012500D01*
X149971144Y-94989221D01*
X149974563Y-94966166D01*
X149980227Y-94943557D01*
X149988079Y-94921613D01*
X149998044Y-94900543D01*
X150010026Y-94880552D01*
X150023910Y-94861832D01*
X150039562Y-94844562D01*
X150056832Y-94828910D01*
X150075552Y-94815026D01*
X150095543Y-94803044D01*
X150116613Y-94793079D01*
X150138557Y-94785227D01*
X150161166Y-94779563D01*
X150184221Y-94776144D01*
X150207500Y-94775000D01*
X150782500Y-94775000D01*
X150805779Y-94776144D01*
X150805779Y-94776144D01*
G37*
D12*
X150495000Y-95250000D03*
D11*
G36*
X152555779Y-94776144D02*
G01*
X152578834Y-94779563D01*
X152601443Y-94785227D01*
X152623387Y-94793079D01*
X152644457Y-94803044D01*
X152664448Y-94815026D01*
X152683168Y-94828910D01*
X152700438Y-94844562D01*
X152716090Y-94861832D01*
X152729974Y-94880552D01*
X152741956Y-94900543D01*
X152751921Y-94921613D01*
X152759773Y-94943557D01*
X152765437Y-94966166D01*
X152768856Y-94989221D01*
X152770000Y-95012500D01*
X152770000Y-95487500D01*
X152768856Y-95510779D01*
X152765437Y-95533834D01*
X152759773Y-95556443D01*
X152751921Y-95578387D01*
X152741956Y-95599457D01*
X152729974Y-95619448D01*
X152716090Y-95638168D01*
X152700438Y-95655438D01*
X152683168Y-95671090D01*
X152664448Y-95684974D01*
X152644457Y-95696956D01*
X152623387Y-95706921D01*
X152601443Y-95714773D01*
X152578834Y-95720437D01*
X152555779Y-95723856D01*
X152532500Y-95725000D01*
X151957500Y-95725000D01*
X151934221Y-95723856D01*
X151911166Y-95720437D01*
X151888557Y-95714773D01*
X151866613Y-95706921D01*
X151845543Y-95696956D01*
X151825552Y-95684974D01*
X151806832Y-95671090D01*
X151789562Y-95655438D01*
X151773910Y-95638168D01*
X151760026Y-95619448D01*
X151748044Y-95599457D01*
X151738079Y-95578387D01*
X151730227Y-95556443D01*
X151724563Y-95533834D01*
X151721144Y-95510779D01*
X151720000Y-95487500D01*
X151720000Y-95012500D01*
X151721144Y-94989221D01*
X151724563Y-94966166D01*
X151730227Y-94943557D01*
X151738079Y-94921613D01*
X151748044Y-94900543D01*
X151760026Y-94880552D01*
X151773910Y-94861832D01*
X151789562Y-94844562D01*
X151806832Y-94828910D01*
X151825552Y-94815026D01*
X151845543Y-94803044D01*
X151866613Y-94793079D01*
X151888557Y-94785227D01*
X151911166Y-94779563D01*
X151934221Y-94776144D01*
X151957500Y-94775000D01*
X152532500Y-94775000D01*
X152555779Y-94776144D01*
X152555779Y-94776144D01*
G37*
D12*
X152245000Y-95250000D03*
D11*
G36*
X150805779Y-102396144D02*
G01*
X150828834Y-102399563D01*
X150851443Y-102405227D01*
X150873387Y-102413079D01*
X150894457Y-102423044D01*
X150914448Y-102435026D01*
X150933168Y-102448910D01*
X150950438Y-102464562D01*
X150966090Y-102481832D01*
X150979974Y-102500552D01*
X150991956Y-102520543D01*
X151001921Y-102541613D01*
X151009773Y-102563557D01*
X151015437Y-102586166D01*
X151018856Y-102609221D01*
X151020000Y-102632500D01*
X151020000Y-103107500D01*
X151018856Y-103130779D01*
X151015437Y-103153834D01*
X151009773Y-103176443D01*
X151001921Y-103198387D01*
X150991956Y-103219457D01*
X150979974Y-103239448D01*
X150966090Y-103258168D01*
X150950438Y-103275438D01*
X150933168Y-103291090D01*
X150914448Y-103304974D01*
X150894457Y-103316956D01*
X150873387Y-103326921D01*
X150851443Y-103334773D01*
X150828834Y-103340437D01*
X150805779Y-103343856D01*
X150782500Y-103345000D01*
X150207500Y-103345000D01*
X150184221Y-103343856D01*
X150161166Y-103340437D01*
X150138557Y-103334773D01*
X150116613Y-103326921D01*
X150095543Y-103316956D01*
X150075552Y-103304974D01*
X150056832Y-103291090D01*
X150039562Y-103275438D01*
X150023910Y-103258168D01*
X150010026Y-103239448D01*
X149998044Y-103219457D01*
X149988079Y-103198387D01*
X149980227Y-103176443D01*
X149974563Y-103153834D01*
X149971144Y-103130779D01*
X149970000Y-103107500D01*
X149970000Y-102632500D01*
X149971144Y-102609221D01*
X149974563Y-102586166D01*
X149980227Y-102563557D01*
X149988079Y-102541613D01*
X149998044Y-102520543D01*
X150010026Y-102500552D01*
X150023910Y-102481832D01*
X150039562Y-102464562D01*
X150056832Y-102448910D01*
X150075552Y-102435026D01*
X150095543Y-102423044D01*
X150116613Y-102413079D01*
X150138557Y-102405227D01*
X150161166Y-102399563D01*
X150184221Y-102396144D01*
X150207500Y-102395000D01*
X150782500Y-102395000D01*
X150805779Y-102396144D01*
X150805779Y-102396144D01*
G37*
D12*
X150495000Y-102870000D03*
D11*
G36*
X152555779Y-102396144D02*
G01*
X152578834Y-102399563D01*
X152601443Y-102405227D01*
X152623387Y-102413079D01*
X152644457Y-102423044D01*
X152664448Y-102435026D01*
X152683168Y-102448910D01*
X152700438Y-102464562D01*
X152716090Y-102481832D01*
X152729974Y-102500552D01*
X152741956Y-102520543D01*
X152751921Y-102541613D01*
X152759773Y-102563557D01*
X152765437Y-102586166D01*
X152768856Y-102609221D01*
X152770000Y-102632500D01*
X152770000Y-103107500D01*
X152768856Y-103130779D01*
X152765437Y-103153834D01*
X152759773Y-103176443D01*
X152751921Y-103198387D01*
X152741956Y-103219457D01*
X152729974Y-103239448D01*
X152716090Y-103258168D01*
X152700438Y-103275438D01*
X152683168Y-103291090D01*
X152664448Y-103304974D01*
X152644457Y-103316956D01*
X152623387Y-103326921D01*
X152601443Y-103334773D01*
X152578834Y-103340437D01*
X152555779Y-103343856D01*
X152532500Y-103345000D01*
X151957500Y-103345000D01*
X151934221Y-103343856D01*
X151911166Y-103340437D01*
X151888557Y-103334773D01*
X151866613Y-103326921D01*
X151845543Y-103316956D01*
X151825552Y-103304974D01*
X151806832Y-103291090D01*
X151789562Y-103275438D01*
X151773910Y-103258168D01*
X151760026Y-103239448D01*
X151748044Y-103219457D01*
X151738079Y-103198387D01*
X151730227Y-103176443D01*
X151724563Y-103153834D01*
X151721144Y-103130779D01*
X151720000Y-103107500D01*
X151720000Y-102632500D01*
X151721144Y-102609221D01*
X151724563Y-102586166D01*
X151730227Y-102563557D01*
X151738079Y-102541613D01*
X151748044Y-102520543D01*
X151760026Y-102500552D01*
X151773910Y-102481832D01*
X151789562Y-102464562D01*
X151806832Y-102448910D01*
X151825552Y-102435026D01*
X151845543Y-102423044D01*
X151866613Y-102413079D01*
X151888557Y-102405227D01*
X151911166Y-102399563D01*
X151934221Y-102396144D01*
X151957500Y-102395000D01*
X152532500Y-102395000D01*
X152555779Y-102396144D01*
X152555779Y-102396144D01*
G37*
D12*
X152245000Y-102870000D03*
D11*
G36*
X152710779Y-117636144D02*
G01*
X152733834Y-117639563D01*
X152756443Y-117645227D01*
X152778387Y-117653079D01*
X152799457Y-117663044D01*
X152819448Y-117675026D01*
X152838168Y-117688910D01*
X152855438Y-117704562D01*
X152871090Y-117721832D01*
X152884974Y-117740552D01*
X152896956Y-117760543D01*
X152906921Y-117781613D01*
X152914773Y-117803557D01*
X152920437Y-117826166D01*
X152923856Y-117849221D01*
X152925000Y-117872500D01*
X152925000Y-118347500D01*
X152923856Y-118370779D01*
X152920437Y-118393834D01*
X152914773Y-118416443D01*
X152906921Y-118438387D01*
X152896956Y-118459457D01*
X152884974Y-118479448D01*
X152871090Y-118498168D01*
X152855438Y-118515438D01*
X152838168Y-118531090D01*
X152819448Y-118544974D01*
X152799457Y-118556956D01*
X152778387Y-118566921D01*
X152756443Y-118574773D01*
X152733834Y-118580437D01*
X152710779Y-118583856D01*
X152687500Y-118585000D01*
X152112500Y-118585000D01*
X152089221Y-118583856D01*
X152066166Y-118580437D01*
X152043557Y-118574773D01*
X152021613Y-118566921D01*
X152000543Y-118556956D01*
X151980552Y-118544974D01*
X151961832Y-118531090D01*
X151944562Y-118515438D01*
X151928910Y-118498168D01*
X151915026Y-118479448D01*
X151903044Y-118459457D01*
X151893079Y-118438387D01*
X151885227Y-118416443D01*
X151879563Y-118393834D01*
X151876144Y-118370779D01*
X151875000Y-118347500D01*
X151875000Y-117872500D01*
X151876144Y-117849221D01*
X151879563Y-117826166D01*
X151885227Y-117803557D01*
X151893079Y-117781613D01*
X151903044Y-117760543D01*
X151915026Y-117740552D01*
X151928910Y-117721832D01*
X151944562Y-117704562D01*
X151961832Y-117688910D01*
X151980552Y-117675026D01*
X152000543Y-117663044D01*
X152021613Y-117653079D01*
X152043557Y-117645227D01*
X152066166Y-117639563D01*
X152089221Y-117636144D01*
X152112500Y-117635000D01*
X152687500Y-117635000D01*
X152710779Y-117636144D01*
X152710779Y-117636144D01*
G37*
D12*
X152400000Y-118110000D03*
D11*
G36*
X150960779Y-117636144D02*
G01*
X150983834Y-117639563D01*
X151006443Y-117645227D01*
X151028387Y-117653079D01*
X151049457Y-117663044D01*
X151069448Y-117675026D01*
X151088168Y-117688910D01*
X151105438Y-117704562D01*
X151121090Y-117721832D01*
X151134974Y-117740552D01*
X151146956Y-117760543D01*
X151156921Y-117781613D01*
X151164773Y-117803557D01*
X151170437Y-117826166D01*
X151173856Y-117849221D01*
X151175000Y-117872500D01*
X151175000Y-118347500D01*
X151173856Y-118370779D01*
X151170437Y-118393834D01*
X151164773Y-118416443D01*
X151156921Y-118438387D01*
X151146956Y-118459457D01*
X151134974Y-118479448D01*
X151121090Y-118498168D01*
X151105438Y-118515438D01*
X151088168Y-118531090D01*
X151069448Y-118544974D01*
X151049457Y-118556956D01*
X151028387Y-118566921D01*
X151006443Y-118574773D01*
X150983834Y-118580437D01*
X150960779Y-118583856D01*
X150937500Y-118585000D01*
X150362500Y-118585000D01*
X150339221Y-118583856D01*
X150316166Y-118580437D01*
X150293557Y-118574773D01*
X150271613Y-118566921D01*
X150250543Y-118556956D01*
X150230552Y-118544974D01*
X150211832Y-118531090D01*
X150194562Y-118515438D01*
X150178910Y-118498168D01*
X150165026Y-118479448D01*
X150153044Y-118459457D01*
X150143079Y-118438387D01*
X150135227Y-118416443D01*
X150129563Y-118393834D01*
X150126144Y-118370779D01*
X150125000Y-118347500D01*
X150125000Y-117872500D01*
X150126144Y-117849221D01*
X150129563Y-117826166D01*
X150135227Y-117803557D01*
X150143079Y-117781613D01*
X150153044Y-117760543D01*
X150165026Y-117740552D01*
X150178910Y-117721832D01*
X150194562Y-117704562D01*
X150211832Y-117688910D01*
X150230552Y-117675026D01*
X150250543Y-117663044D01*
X150271613Y-117653079D01*
X150293557Y-117645227D01*
X150316166Y-117639563D01*
X150339221Y-117636144D01*
X150362500Y-117635000D01*
X150937500Y-117635000D01*
X150960779Y-117636144D01*
X150960779Y-117636144D01*
G37*
D12*
X150650000Y-118110000D03*
D11*
G36*
X150960779Y-113826144D02*
G01*
X150983834Y-113829563D01*
X151006443Y-113835227D01*
X151028387Y-113843079D01*
X151049457Y-113853044D01*
X151069448Y-113865026D01*
X151088168Y-113878910D01*
X151105438Y-113894562D01*
X151121090Y-113911832D01*
X151134974Y-113930552D01*
X151146956Y-113950543D01*
X151156921Y-113971613D01*
X151164773Y-113993557D01*
X151170437Y-114016166D01*
X151173856Y-114039221D01*
X151175000Y-114062500D01*
X151175000Y-114537500D01*
X151173856Y-114560779D01*
X151170437Y-114583834D01*
X151164773Y-114606443D01*
X151156921Y-114628387D01*
X151146956Y-114649457D01*
X151134974Y-114669448D01*
X151121090Y-114688168D01*
X151105438Y-114705438D01*
X151088168Y-114721090D01*
X151069448Y-114734974D01*
X151049457Y-114746956D01*
X151028387Y-114756921D01*
X151006443Y-114764773D01*
X150983834Y-114770437D01*
X150960779Y-114773856D01*
X150937500Y-114775000D01*
X150362500Y-114775000D01*
X150339221Y-114773856D01*
X150316166Y-114770437D01*
X150293557Y-114764773D01*
X150271613Y-114756921D01*
X150250543Y-114746956D01*
X150230552Y-114734974D01*
X150211832Y-114721090D01*
X150194562Y-114705438D01*
X150178910Y-114688168D01*
X150165026Y-114669448D01*
X150153044Y-114649457D01*
X150143079Y-114628387D01*
X150135227Y-114606443D01*
X150129563Y-114583834D01*
X150126144Y-114560779D01*
X150125000Y-114537500D01*
X150125000Y-114062500D01*
X150126144Y-114039221D01*
X150129563Y-114016166D01*
X150135227Y-113993557D01*
X150143079Y-113971613D01*
X150153044Y-113950543D01*
X150165026Y-113930552D01*
X150178910Y-113911832D01*
X150194562Y-113894562D01*
X150211832Y-113878910D01*
X150230552Y-113865026D01*
X150250543Y-113853044D01*
X150271613Y-113843079D01*
X150293557Y-113835227D01*
X150316166Y-113829563D01*
X150339221Y-113826144D01*
X150362500Y-113825000D01*
X150937500Y-113825000D01*
X150960779Y-113826144D01*
X150960779Y-113826144D01*
G37*
D12*
X150650000Y-114300000D03*
D11*
G36*
X152710779Y-113826144D02*
G01*
X152733834Y-113829563D01*
X152756443Y-113835227D01*
X152778387Y-113843079D01*
X152799457Y-113853044D01*
X152819448Y-113865026D01*
X152838168Y-113878910D01*
X152855438Y-113894562D01*
X152871090Y-113911832D01*
X152884974Y-113930552D01*
X152896956Y-113950543D01*
X152906921Y-113971613D01*
X152914773Y-113993557D01*
X152920437Y-114016166D01*
X152923856Y-114039221D01*
X152925000Y-114062500D01*
X152925000Y-114537500D01*
X152923856Y-114560779D01*
X152920437Y-114583834D01*
X152914773Y-114606443D01*
X152906921Y-114628387D01*
X152896956Y-114649457D01*
X152884974Y-114669448D01*
X152871090Y-114688168D01*
X152855438Y-114705438D01*
X152838168Y-114721090D01*
X152819448Y-114734974D01*
X152799457Y-114746956D01*
X152778387Y-114756921D01*
X152756443Y-114764773D01*
X152733834Y-114770437D01*
X152710779Y-114773856D01*
X152687500Y-114775000D01*
X152112500Y-114775000D01*
X152089221Y-114773856D01*
X152066166Y-114770437D01*
X152043557Y-114764773D01*
X152021613Y-114756921D01*
X152000543Y-114746956D01*
X151980552Y-114734974D01*
X151961832Y-114721090D01*
X151944562Y-114705438D01*
X151928910Y-114688168D01*
X151915026Y-114669448D01*
X151903044Y-114649457D01*
X151893079Y-114628387D01*
X151885227Y-114606443D01*
X151879563Y-114583834D01*
X151876144Y-114560779D01*
X151875000Y-114537500D01*
X151875000Y-114062500D01*
X151876144Y-114039221D01*
X151879563Y-114016166D01*
X151885227Y-113993557D01*
X151893079Y-113971613D01*
X151903044Y-113950543D01*
X151915026Y-113930552D01*
X151928910Y-113911832D01*
X151944562Y-113894562D01*
X151961832Y-113878910D01*
X151980552Y-113865026D01*
X152000543Y-113853044D01*
X152021613Y-113843079D01*
X152043557Y-113835227D01*
X152066166Y-113829563D01*
X152089221Y-113826144D01*
X152112500Y-113825000D01*
X152687500Y-113825000D01*
X152710779Y-113826144D01*
X152710779Y-113826144D01*
G37*
D12*
X152400000Y-114300000D03*
D15*
X104815000Y-78740000D03*
D16*
X107315000Y-78740000D03*
D11*
G36*
X89795779Y-100596144D02*
G01*
X89818834Y-100599563D01*
X89841443Y-100605227D01*
X89863387Y-100613079D01*
X89884457Y-100623044D01*
X89904448Y-100635026D01*
X89923168Y-100648910D01*
X89940438Y-100664562D01*
X89956090Y-100681832D01*
X89969974Y-100700552D01*
X89981956Y-100720543D01*
X89991921Y-100741613D01*
X89999773Y-100763557D01*
X90005437Y-100786166D01*
X90008856Y-100809221D01*
X90010000Y-100832500D01*
X90010000Y-101407500D01*
X90008856Y-101430779D01*
X90005437Y-101453834D01*
X89999773Y-101476443D01*
X89991921Y-101498387D01*
X89981956Y-101519457D01*
X89969974Y-101539448D01*
X89956090Y-101558168D01*
X89940438Y-101575438D01*
X89923168Y-101591090D01*
X89904448Y-101604974D01*
X89884457Y-101616956D01*
X89863387Y-101626921D01*
X89841443Y-101634773D01*
X89818834Y-101640437D01*
X89795779Y-101643856D01*
X89772500Y-101645000D01*
X89297500Y-101645000D01*
X89274221Y-101643856D01*
X89251166Y-101640437D01*
X89228557Y-101634773D01*
X89206613Y-101626921D01*
X89185543Y-101616956D01*
X89165552Y-101604974D01*
X89146832Y-101591090D01*
X89129562Y-101575438D01*
X89113910Y-101558168D01*
X89100026Y-101539448D01*
X89088044Y-101519457D01*
X89078079Y-101498387D01*
X89070227Y-101476443D01*
X89064563Y-101453834D01*
X89061144Y-101430779D01*
X89060000Y-101407500D01*
X89060000Y-100832500D01*
X89061144Y-100809221D01*
X89064563Y-100786166D01*
X89070227Y-100763557D01*
X89078079Y-100741613D01*
X89088044Y-100720543D01*
X89100026Y-100700552D01*
X89113910Y-100681832D01*
X89129562Y-100664562D01*
X89146832Y-100648910D01*
X89165552Y-100635026D01*
X89185543Y-100623044D01*
X89206613Y-100613079D01*
X89228557Y-100605227D01*
X89251166Y-100599563D01*
X89274221Y-100596144D01*
X89297500Y-100595000D01*
X89772500Y-100595000D01*
X89795779Y-100596144D01*
X89795779Y-100596144D01*
G37*
D12*
X89535000Y-101120000D03*
D11*
G36*
X89795779Y-102346144D02*
G01*
X89818834Y-102349563D01*
X89841443Y-102355227D01*
X89863387Y-102363079D01*
X89884457Y-102373044D01*
X89904448Y-102385026D01*
X89923168Y-102398910D01*
X89940438Y-102414562D01*
X89956090Y-102431832D01*
X89969974Y-102450552D01*
X89981956Y-102470543D01*
X89991921Y-102491613D01*
X89999773Y-102513557D01*
X90005437Y-102536166D01*
X90008856Y-102559221D01*
X90010000Y-102582500D01*
X90010000Y-103157500D01*
X90008856Y-103180779D01*
X90005437Y-103203834D01*
X89999773Y-103226443D01*
X89991921Y-103248387D01*
X89981956Y-103269457D01*
X89969974Y-103289448D01*
X89956090Y-103308168D01*
X89940438Y-103325438D01*
X89923168Y-103341090D01*
X89904448Y-103354974D01*
X89884457Y-103366956D01*
X89863387Y-103376921D01*
X89841443Y-103384773D01*
X89818834Y-103390437D01*
X89795779Y-103393856D01*
X89772500Y-103395000D01*
X89297500Y-103395000D01*
X89274221Y-103393856D01*
X89251166Y-103390437D01*
X89228557Y-103384773D01*
X89206613Y-103376921D01*
X89185543Y-103366956D01*
X89165552Y-103354974D01*
X89146832Y-103341090D01*
X89129562Y-103325438D01*
X89113910Y-103308168D01*
X89100026Y-103289448D01*
X89088044Y-103269457D01*
X89078079Y-103248387D01*
X89070227Y-103226443D01*
X89064563Y-103203834D01*
X89061144Y-103180779D01*
X89060000Y-103157500D01*
X89060000Y-102582500D01*
X89061144Y-102559221D01*
X89064563Y-102536166D01*
X89070227Y-102513557D01*
X89078079Y-102491613D01*
X89088044Y-102470543D01*
X89100026Y-102450552D01*
X89113910Y-102431832D01*
X89129562Y-102414562D01*
X89146832Y-102398910D01*
X89165552Y-102385026D01*
X89185543Y-102373044D01*
X89206613Y-102363079D01*
X89228557Y-102355227D01*
X89251166Y-102349563D01*
X89274221Y-102346144D01*
X89297500Y-102345000D01*
X89772500Y-102345000D01*
X89795779Y-102346144D01*
X89795779Y-102346144D01*
G37*
D12*
X89535000Y-102870000D03*
D11*
G36*
X89795779Y-106001144D02*
G01*
X89818834Y-106004563D01*
X89841443Y-106010227D01*
X89863387Y-106018079D01*
X89884457Y-106028044D01*
X89904448Y-106040026D01*
X89923168Y-106053910D01*
X89940438Y-106069562D01*
X89956090Y-106086832D01*
X89969974Y-106105552D01*
X89981956Y-106125543D01*
X89991921Y-106146613D01*
X89999773Y-106168557D01*
X90005437Y-106191166D01*
X90008856Y-106214221D01*
X90010000Y-106237500D01*
X90010000Y-106812500D01*
X90008856Y-106835779D01*
X90005437Y-106858834D01*
X89999773Y-106881443D01*
X89991921Y-106903387D01*
X89981956Y-106924457D01*
X89969974Y-106944448D01*
X89956090Y-106963168D01*
X89940438Y-106980438D01*
X89923168Y-106996090D01*
X89904448Y-107009974D01*
X89884457Y-107021956D01*
X89863387Y-107031921D01*
X89841443Y-107039773D01*
X89818834Y-107045437D01*
X89795779Y-107048856D01*
X89772500Y-107050000D01*
X89297500Y-107050000D01*
X89274221Y-107048856D01*
X89251166Y-107045437D01*
X89228557Y-107039773D01*
X89206613Y-107031921D01*
X89185543Y-107021956D01*
X89165552Y-107009974D01*
X89146832Y-106996090D01*
X89129562Y-106980438D01*
X89113910Y-106963168D01*
X89100026Y-106944448D01*
X89088044Y-106924457D01*
X89078079Y-106903387D01*
X89070227Y-106881443D01*
X89064563Y-106858834D01*
X89061144Y-106835779D01*
X89060000Y-106812500D01*
X89060000Y-106237500D01*
X89061144Y-106214221D01*
X89064563Y-106191166D01*
X89070227Y-106168557D01*
X89078079Y-106146613D01*
X89088044Y-106125543D01*
X89100026Y-106105552D01*
X89113910Y-106086832D01*
X89129562Y-106069562D01*
X89146832Y-106053910D01*
X89165552Y-106040026D01*
X89185543Y-106028044D01*
X89206613Y-106018079D01*
X89228557Y-106010227D01*
X89251166Y-106004563D01*
X89274221Y-106001144D01*
X89297500Y-106000000D01*
X89772500Y-106000000D01*
X89795779Y-106001144D01*
X89795779Y-106001144D01*
G37*
D12*
X89535000Y-106525000D03*
D11*
G36*
X89795779Y-104251144D02*
G01*
X89818834Y-104254563D01*
X89841443Y-104260227D01*
X89863387Y-104268079D01*
X89884457Y-104278044D01*
X89904448Y-104290026D01*
X89923168Y-104303910D01*
X89940438Y-104319562D01*
X89956090Y-104336832D01*
X89969974Y-104355552D01*
X89981956Y-104375543D01*
X89991921Y-104396613D01*
X89999773Y-104418557D01*
X90005437Y-104441166D01*
X90008856Y-104464221D01*
X90010000Y-104487500D01*
X90010000Y-105062500D01*
X90008856Y-105085779D01*
X90005437Y-105108834D01*
X89999773Y-105131443D01*
X89991921Y-105153387D01*
X89981956Y-105174457D01*
X89969974Y-105194448D01*
X89956090Y-105213168D01*
X89940438Y-105230438D01*
X89923168Y-105246090D01*
X89904448Y-105259974D01*
X89884457Y-105271956D01*
X89863387Y-105281921D01*
X89841443Y-105289773D01*
X89818834Y-105295437D01*
X89795779Y-105298856D01*
X89772500Y-105300000D01*
X89297500Y-105300000D01*
X89274221Y-105298856D01*
X89251166Y-105295437D01*
X89228557Y-105289773D01*
X89206613Y-105281921D01*
X89185543Y-105271956D01*
X89165552Y-105259974D01*
X89146832Y-105246090D01*
X89129562Y-105230438D01*
X89113910Y-105213168D01*
X89100026Y-105194448D01*
X89088044Y-105174457D01*
X89078079Y-105153387D01*
X89070227Y-105131443D01*
X89064563Y-105108834D01*
X89061144Y-105085779D01*
X89060000Y-105062500D01*
X89060000Y-104487500D01*
X89061144Y-104464221D01*
X89064563Y-104441166D01*
X89070227Y-104418557D01*
X89078079Y-104396613D01*
X89088044Y-104375543D01*
X89100026Y-104355552D01*
X89113910Y-104336832D01*
X89129562Y-104319562D01*
X89146832Y-104303910D01*
X89165552Y-104290026D01*
X89185543Y-104278044D01*
X89206613Y-104268079D01*
X89228557Y-104260227D01*
X89251166Y-104254563D01*
X89274221Y-104251144D01*
X89297500Y-104250000D01*
X89772500Y-104250000D01*
X89795779Y-104251144D01*
X89795779Y-104251144D01*
G37*
D12*
X89535000Y-104775000D03*
D11*
G36*
X157635779Y-110016144D02*
G01*
X157658834Y-110019563D01*
X157681443Y-110025227D01*
X157703387Y-110033079D01*
X157724457Y-110043044D01*
X157744448Y-110055026D01*
X157763168Y-110068910D01*
X157780438Y-110084562D01*
X157796090Y-110101832D01*
X157809974Y-110120552D01*
X157821956Y-110140543D01*
X157831921Y-110161613D01*
X157839773Y-110183557D01*
X157845437Y-110206166D01*
X157848856Y-110229221D01*
X157850000Y-110252500D01*
X157850000Y-110727500D01*
X157848856Y-110750779D01*
X157845437Y-110773834D01*
X157839773Y-110796443D01*
X157831921Y-110818387D01*
X157821956Y-110839457D01*
X157809974Y-110859448D01*
X157796090Y-110878168D01*
X157780438Y-110895438D01*
X157763168Y-110911090D01*
X157744448Y-110924974D01*
X157724457Y-110936956D01*
X157703387Y-110946921D01*
X157681443Y-110954773D01*
X157658834Y-110960437D01*
X157635779Y-110963856D01*
X157612500Y-110965000D01*
X157037500Y-110965000D01*
X157014221Y-110963856D01*
X156991166Y-110960437D01*
X156968557Y-110954773D01*
X156946613Y-110946921D01*
X156925543Y-110936956D01*
X156905552Y-110924974D01*
X156886832Y-110911090D01*
X156869562Y-110895438D01*
X156853910Y-110878168D01*
X156840026Y-110859448D01*
X156828044Y-110839457D01*
X156818079Y-110818387D01*
X156810227Y-110796443D01*
X156804563Y-110773834D01*
X156801144Y-110750779D01*
X156800000Y-110727500D01*
X156800000Y-110252500D01*
X156801144Y-110229221D01*
X156804563Y-110206166D01*
X156810227Y-110183557D01*
X156818079Y-110161613D01*
X156828044Y-110140543D01*
X156840026Y-110120552D01*
X156853910Y-110101832D01*
X156869562Y-110084562D01*
X156886832Y-110068910D01*
X156905552Y-110055026D01*
X156925543Y-110043044D01*
X156946613Y-110033079D01*
X156968557Y-110025227D01*
X156991166Y-110019563D01*
X157014221Y-110016144D01*
X157037500Y-110015000D01*
X157612500Y-110015000D01*
X157635779Y-110016144D01*
X157635779Y-110016144D01*
G37*
D12*
X157325000Y-110490000D03*
D11*
G36*
X155885779Y-110016144D02*
G01*
X155908834Y-110019563D01*
X155931443Y-110025227D01*
X155953387Y-110033079D01*
X155974457Y-110043044D01*
X155994448Y-110055026D01*
X156013168Y-110068910D01*
X156030438Y-110084562D01*
X156046090Y-110101832D01*
X156059974Y-110120552D01*
X156071956Y-110140543D01*
X156081921Y-110161613D01*
X156089773Y-110183557D01*
X156095437Y-110206166D01*
X156098856Y-110229221D01*
X156100000Y-110252500D01*
X156100000Y-110727500D01*
X156098856Y-110750779D01*
X156095437Y-110773834D01*
X156089773Y-110796443D01*
X156081921Y-110818387D01*
X156071956Y-110839457D01*
X156059974Y-110859448D01*
X156046090Y-110878168D01*
X156030438Y-110895438D01*
X156013168Y-110911090D01*
X155994448Y-110924974D01*
X155974457Y-110936956D01*
X155953387Y-110946921D01*
X155931443Y-110954773D01*
X155908834Y-110960437D01*
X155885779Y-110963856D01*
X155862500Y-110965000D01*
X155287500Y-110965000D01*
X155264221Y-110963856D01*
X155241166Y-110960437D01*
X155218557Y-110954773D01*
X155196613Y-110946921D01*
X155175543Y-110936956D01*
X155155552Y-110924974D01*
X155136832Y-110911090D01*
X155119562Y-110895438D01*
X155103910Y-110878168D01*
X155090026Y-110859448D01*
X155078044Y-110839457D01*
X155068079Y-110818387D01*
X155060227Y-110796443D01*
X155054563Y-110773834D01*
X155051144Y-110750779D01*
X155050000Y-110727500D01*
X155050000Y-110252500D01*
X155051144Y-110229221D01*
X155054563Y-110206166D01*
X155060227Y-110183557D01*
X155068079Y-110161613D01*
X155078044Y-110140543D01*
X155090026Y-110120552D01*
X155103910Y-110101832D01*
X155119562Y-110084562D01*
X155136832Y-110068910D01*
X155155552Y-110055026D01*
X155175543Y-110043044D01*
X155196613Y-110033079D01*
X155218557Y-110025227D01*
X155241166Y-110019563D01*
X155264221Y-110016144D01*
X155287500Y-110015000D01*
X155862500Y-110015000D01*
X155885779Y-110016144D01*
X155885779Y-110016144D01*
G37*
D12*
X155575000Y-110490000D03*
D11*
G36*
X155885779Y-106206144D02*
G01*
X155908834Y-106209563D01*
X155931443Y-106215227D01*
X155953387Y-106223079D01*
X155974457Y-106233044D01*
X155994448Y-106245026D01*
X156013168Y-106258910D01*
X156030438Y-106274562D01*
X156046090Y-106291832D01*
X156059974Y-106310552D01*
X156071956Y-106330543D01*
X156081921Y-106351613D01*
X156089773Y-106373557D01*
X156095437Y-106396166D01*
X156098856Y-106419221D01*
X156100000Y-106442500D01*
X156100000Y-106917500D01*
X156098856Y-106940779D01*
X156095437Y-106963834D01*
X156089773Y-106986443D01*
X156081921Y-107008387D01*
X156071956Y-107029457D01*
X156059974Y-107049448D01*
X156046090Y-107068168D01*
X156030438Y-107085438D01*
X156013168Y-107101090D01*
X155994448Y-107114974D01*
X155974457Y-107126956D01*
X155953387Y-107136921D01*
X155931443Y-107144773D01*
X155908834Y-107150437D01*
X155885779Y-107153856D01*
X155862500Y-107155000D01*
X155287500Y-107155000D01*
X155264221Y-107153856D01*
X155241166Y-107150437D01*
X155218557Y-107144773D01*
X155196613Y-107136921D01*
X155175543Y-107126956D01*
X155155552Y-107114974D01*
X155136832Y-107101090D01*
X155119562Y-107085438D01*
X155103910Y-107068168D01*
X155090026Y-107049448D01*
X155078044Y-107029457D01*
X155068079Y-107008387D01*
X155060227Y-106986443D01*
X155054563Y-106963834D01*
X155051144Y-106940779D01*
X155050000Y-106917500D01*
X155050000Y-106442500D01*
X155051144Y-106419221D01*
X155054563Y-106396166D01*
X155060227Y-106373557D01*
X155068079Y-106351613D01*
X155078044Y-106330543D01*
X155090026Y-106310552D01*
X155103910Y-106291832D01*
X155119562Y-106274562D01*
X155136832Y-106258910D01*
X155155552Y-106245026D01*
X155175543Y-106233044D01*
X155196613Y-106223079D01*
X155218557Y-106215227D01*
X155241166Y-106209563D01*
X155264221Y-106206144D01*
X155287500Y-106205000D01*
X155862500Y-106205000D01*
X155885779Y-106206144D01*
X155885779Y-106206144D01*
G37*
D12*
X155575000Y-106680000D03*
D11*
G36*
X157635779Y-106206144D02*
G01*
X157658834Y-106209563D01*
X157681443Y-106215227D01*
X157703387Y-106223079D01*
X157724457Y-106233044D01*
X157744448Y-106245026D01*
X157763168Y-106258910D01*
X157780438Y-106274562D01*
X157796090Y-106291832D01*
X157809974Y-106310552D01*
X157821956Y-106330543D01*
X157831921Y-106351613D01*
X157839773Y-106373557D01*
X157845437Y-106396166D01*
X157848856Y-106419221D01*
X157850000Y-106442500D01*
X157850000Y-106917500D01*
X157848856Y-106940779D01*
X157845437Y-106963834D01*
X157839773Y-106986443D01*
X157831921Y-107008387D01*
X157821956Y-107029457D01*
X157809974Y-107049448D01*
X157796090Y-107068168D01*
X157780438Y-107085438D01*
X157763168Y-107101090D01*
X157744448Y-107114974D01*
X157724457Y-107126956D01*
X157703387Y-107136921D01*
X157681443Y-107144773D01*
X157658834Y-107150437D01*
X157635779Y-107153856D01*
X157612500Y-107155000D01*
X157037500Y-107155000D01*
X157014221Y-107153856D01*
X156991166Y-107150437D01*
X156968557Y-107144773D01*
X156946613Y-107136921D01*
X156925543Y-107126956D01*
X156905552Y-107114974D01*
X156886832Y-107101090D01*
X156869562Y-107085438D01*
X156853910Y-107068168D01*
X156840026Y-107049448D01*
X156828044Y-107029457D01*
X156818079Y-107008387D01*
X156810227Y-106986443D01*
X156804563Y-106963834D01*
X156801144Y-106940779D01*
X156800000Y-106917500D01*
X156800000Y-106442500D01*
X156801144Y-106419221D01*
X156804563Y-106396166D01*
X156810227Y-106373557D01*
X156818079Y-106351613D01*
X156828044Y-106330543D01*
X156840026Y-106310552D01*
X156853910Y-106291832D01*
X156869562Y-106274562D01*
X156886832Y-106258910D01*
X156905552Y-106245026D01*
X156925543Y-106233044D01*
X156946613Y-106223079D01*
X156968557Y-106215227D01*
X156991166Y-106209563D01*
X157014221Y-106206144D01*
X157037500Y-106205000D01*
X157612500Y-106205000D01*
X157635779Y-106206144D01*
X157635779Y-106206144D01*
G37*
D12*
X157325000Y-106680000D03*
D11*
G36*
X152555779Y-110016144D02*
G01*
X152578834Y-110019563D01*
X152601443Y-110025227D01*
X152623387Y-110033079D01*
X152644457Y-110043044D01*
X152664448Y-110055026D01*
X152683168Y-110068910D01*
X152700438Y-110084562D01*
X152716090Y-110101832D01*
X152729974Y-110120552D01*
X152741956Y-110140543D01*
X152751921Y-110161613D01*
X152759773Y-110183557D01*
X152765437Y-110206166D01*
X152768856Y-110229221D01*
X152770000Y-110252500D01*
X152770000Y-110727500D01*
X152768856Y-110750779D01*
X152765437Y-110773834D01*
X152759773Y-110796443D01*
X152751921Y-110818387D01*
X152741956Y-110839457D01*
X152729974Y-110859448D01*
X152716090Y-110878168D01*
X152700438Y-110895438D01*
X152683168Y-110911090D01*
X152664448Y-110924974D01*
X152644457Y-110936956D01*
X152623387Y-110946921D01*
X152601443Y-110954773D01*
X152578834Y-110960437D01*
X152555779Y-110963856D01*
X152532500Y-110965000D01*
X151957500Y-110965000D01*
X151934221Y-110963856D01*
X151911166Y-110960437D01*
X151888557Y-110954773D01*
X151866613Y-110946921D01*
X151845543Y-110936956D01*
X151825552Y-110924974D01*
X151806832Y-110911090D01*
X151789562Y-110895438D01*
X151773910Y-110878168D01*
X151760026Y-110859448D01*
X151748044Y-110839457D01*
X151738079Y-110818387D01*
X151730227Y-110796443D01*
X151724563Y-110773834D01*
X151721144Y-110750779D01*
X151720000Y-110727500D01*
X151720000Y-110252500D01*
X151721144Y-110229221D01*
X151724563Y-110206166D01*
X151730227Y-110183557D01*
X151738079Y-110161613D01*
X151748044Y-110140543D01*
X151760026Y-110120552D01*
X151773910Y-110101832D01*
X151789562Y-110084562D01*
X151806832Y-110068910D01*
X151825552Y-110055026D01*
X151845543Y-110043044D01*
X151866613Y-110033079D01*
X151888557Y-110025227D01*
X151911166Y-110019563D01*
X151934221Y-110016144D01*
X151957500Y-110015000D01*
X152532500Y-110015000D01*
X152555779Y-110016144D01*
X152555779Y-110016144D01*
G37*
D12*
X152245000Y-110490000D03*
D11*
G36*
X150805779Y-110016144D02*
G01*
X150828834Y-110019563D01*
X150851443Y-110025227D01*
X150873387Y-110033079D01*
X150894457Y-110043044D01*
X150914448Y-110055026D01*
X150933168Y-110068910D01*
X150950438Y-110084562D01*
X150966090Y-110101832D01*
X150979974Y-110120552D01*
X150991956Y-110140543D01*
X151001921Y-110161613D01*
X151009773Y-110183557D01*
X151015437Y-110206166D01*
X151018856Y-110229221D01*
X151020000Y-110252500D01*
X151020000Y-110727500D01*
X151018856Y-110750779D01*
X151015437Y-110773834D01*
X151009773Y-110796443D01*
X151001921Y-110818387D01*
X150991956Y-110839457D01*
X150979974Y-110859448D01*
X150966090Y-110878168D01*
X150950438Y-110895438D01*
X150933168Y-110911090D01*
X150914448Y-110924974D01*
X150894457Y-110936956D01*
X150873387Y-110946921D01*
X150851443Y-110954773D01*
X150828834Y-110960437D01*
X150805779Y-110963856D01*
X150782500Y-110965000D01*
X150207500Y-110965000D01*
X150184221Y-110963856D01*
X150161166Y-110960437D01*
X150138557Y-110954773D01*
X150116613Y-110946921D01*
X150095543Y-110936956D01*
X150075552Y-110924974D01*
X150056832Y-110911090D01*
X150039562Y-110895438D01*
X150023910Y-110878168D01*
X150010026Y-110859448D01*
X149998044Y-110839457D01*
X149988079Y-110818387D01*
X149980227Y-110796443D01*
X149974563Y-110773834D01*
X149971144Y-110750779D01*
X149970000Y-110727500D01*
X149970000Y-110252500D01*
X149971144Y-110229221D01*
X149974563Y-110206166D01*
X149980227Y-110183557D01*
X149988079Y-110161613D01*
X149998044Y-110140543D01*
X150010026Y-110120552D01*
X150023910Y-110101832D01*
X150039562Y-110084562D01*
X150056832Y-110068910D01*
X150075552Y-110055026D01*
X150095543Y-110043044D01*
X150116613Y-110033079D01*
X150138557Y-110025227D01*
X150161166Y-110019563D01*
X150184221Y-110016144D01*
X150207500Y-110015000D01*
X150782500Y-110015000D01*
X150805779Y-110016144D01*
X150805779Y-110016144D01*
G37*
D12*
X150495000Y-110490000D03*
D11*
G36*
X150805779Y-106206144D02*
G01*
X150828834Y-106209563D01*
X150851443Y-106215227D01*
X150873387Y-106223079D01*
X150894457Y-106233044D01*
X150914448Y-106245026D01*
X150933168Y-106258910D01*
X150950438Y-106274562D01*
X150966090Y-106291832D01*
X150979974Y-106310552D01*
X150991956Y-106330543D01*
X151001921Y-106351613D01*
X151009773Y-106373557D01*
X151015437Y-106396166D01*
X151018856Y-106419221D01*
X151020000Y-106442500D01*
X151020000Y-106917500D01*
X151018856Y-106940779D01*
X151015437Y-106963834D01*
X151009773Y-106986443D01*
X151001921Y-107008387D01*
X150991956Y-107029457D01*
X150979974Y-107049448D01*
X150966090Y-107068168D01*
X150950438Y-107085438D01*
X150933168Y-107101090D01*
X150914448Y-107114974D01*
X150894457Y-107126956D01*
X150873387Y-107136921D01*
X150851443Y-107144773D01*
X150828834Y-107150437D01*
X150805779Y-107153856D01*
X150782500Y-107155000D01*
X150207500Y-107155000D01*
X150184221Y-107153856D01*
X150161166Y-107150437D01*
X150138557Y-107144773D01*
X150116613Y-107136921D01*
X150095543Y-107126956D01*
X150075552Y-107114974D01*
X150056832Y-107101090D01*
X150039562Y-107085438D01*
X150023910Y-107068168D01*
X150010026Y-107049448D01*
X149998044Y-107029457D01*
X149988079Y-107008387D01*
X149980227Y-106986443D01*
X149974563Y-106963834D01*
X149971144Y-106940779D01*
X149970000Y-106917500D01*
X149970000Y-106442500D01*
X149971144Y-106419221D01*
X149974563Y-106396166D01*
X149980227Y-106373557D01*
X149988079Y-106351613D01*
X149998044Y-106330543D01*
X150010026Y-106310552D01*
X150023910Y-106291832D01*
X150039562Y-106274562D01*
X150056832Y-106258910D01*
X150075552Y-106245026D01*
X150095543Y-106233044D01*
X150116613Y-106223079D01*
X150138557Y-106215227D01*
X150161166Y-106209563D01*
X150184221Y-106206144D01*
X150207500Y-106205000D01*
X150782500Y-106205000D01*
X150805779Y-106206144D01*
X150805779Y-106206144D01*
G37*
D12*
X150495000Y-106680000D03*
D11*
G36*
X152555779Y-106206144D02*
G01*
X152578834Y-106209563D01*
X152601443Y-106215227D01*
X152623387Y-106223079D01*
X152644457Y-106233044D01*
X152664448Y-106245026D01*
X152683168Y-106258910D01*
X152700438Y-106274562D01*
X152716090Y-106291832D01*
X152729974Y-106310552D01*
X152741956Y-106330543D01*
X152751921Y-106351613D01*
X152759773Y-106373557D01*
X152765437Y-106396166D01*
X152768856Y-106419221D01*
X152770000Y-106442500D01*
X152770000Y-106917500D01*
X152768856Y-106940779D01*
X152765437Y-106963834D01*
X152759773Y-106986443D01*
X152751921Y-107008387D01*
X152741956Y-107029457D01*
X152729974Y-107049448D01*
X152716090Y-107068168D01*
X152700438Y-107085438D01*
X152683168Y-107101090D01*
X152664448Y-107114974D01*
X152644457Y-107126956D01*
X152623387Y-107136921D01*
X152601443Y-107144773D01*
X152578834Y-107150437D01*
X152555779Y-107153856D01*
X152532500Y-107155000D01*
X151957500Y-107155000D01*
X151934221Y-107153856D01*
X151911166Y-107150437D01*
X151888557Y-107144773D01*
X151866613Y-107136921D01*
X151845543Y-107126956D01*
X151825552Y-107114974D01*
X151806832Y-107101090D01*
X151789562Y-107085438D01*
X151773910Y-107068168D01*
X151760026Y-107049448D01*
X151748044Y-107029457D01*
X151738079Y-107008387D01*
X151730227Y-106986443D01*
X151724563Y-106963834D01*
X151721144Y-106940779D01*
X151720000Y-106917500D01*
X151720000Y-106442500D01*
X151721144Y-106419221D01*
X151724563Y-106396166D01*
X151730227Y-106373557D01*
X151738079Y-106351613D01*
X151748044Y-106330543D01*
X151760026Y-106310552D01*
X151773910Y-106291832D01*
X151789562Y-106274562D01*
X151806832Y-106258910D01*
X151825552Y-106245026D01*
X151845543Y-106233044D01*
X151866613Y-106223079D01*
X151888557Y-106215227D01*
X151911166Y-106209563D01*
X151934221Y-106206144D01*
X151957500Y-106205000D01*
X152532500Y-106205000D01*
X152555779Y-106206144D01*
X152555779Y-106206144D01*
G37*
D12*
X152245000Y-106680000D03*
D11*
G36*
X124770779Y-105571144D02*
G01*
X124793834Y-105574563D01*
X124816443Y-105580227D01*
X124838387Y-105588079D01*
X124859457Y-105598044D01*
X124879448Y-105610026D01*
X124898168Y-105623910D01*
X124915438Y-105639562D01*
X124931090Y-105656832D01*
X124944974Y-105675552D01*
X124956956Y-105695543D01*
X124966921Y-105716613D01*
X124974773Y-105738557D01*
X124980437Y-105761166D01*
X124983856Y-105784221D01*
X124985000Y-105807500D01*
X124985000Y-106282500D01*
X124983856Y-106305779D01*
X124980437Y-106328834D01*
X124974773Y-106351443D01*
X124966921Y-106373387D01*
X124956956Y-106394457D01*
X124944974Y-106414448D01*
X124931090Y-106433168D01*
X124915438Y-106450438D01*
X124898168Y-106466090D01*
X124879448Y-106479974D01*
X124859457Y-106491956D01*
X124838387Y-106501921D01*
X124816443Y-106509773D01*
X124793834Y-106515437D01*
X124770779Y-106518856D01*
X124747500Y-106520000D01*
X124172500Y-106520000D01*
X124149221Y-106518856D01*
X124126166Y-106515437D01*
X124103557Y-106509773D01*
X124081613Y-106501921D01*
X124060543Y-106491956D01*
X124040552Y-106479974D01*
X124021832Y-106466090D01*
X124004562Y-106450438D01*
X123988910Y-106433168D01*
X123975026Y-106414448D01*
X123963044Y-106394457D01*
X123953079Y-106373387D01*
X123945227Y-106351443D01*
X123939563Y-106328834D01*
X123936144Y-106305779D01*
X123935000Y-106282500D01*
X123935000Y-105807500D01*
X123936144Y-105784221D01*
X123939563Y-105761166D01*
X123945227Y-105738557D01*
X123953079Y-105716613D01*
X123963044Y-105695543D01*
X123975026Y-105675552D01*
X123988910Y-105656832D01*
X124004562Y-105639562D01*
X124021832Y-105623910D01*
X124040552Y-105610026D01*
X124060543Y-105598044D01*
X124081613Y-105588079D01*
X124103557Y-105580227D01*
X124126166Y-105574563D01*
X124149221Y-105571144D01*
X124172500Y-105570000D01*
X124747500Y-105570000D01*
X124770779Y-105571144D01*
X124770779Y-105571144D01*
G37*
D12*
X124460000Y-106045000D03*
D11*
G36*
X126520779Y-105571144D02*
G01*
X126543834Y-105574563D01*
X126566443Y-105580227D01*
X126588387Y-105588079D01*
X126609457Y-105598044D01*
X126629448Y-105610026D01*
X126648168Y-105623910D01*
X126665438Y-105639562D01*
X126681090Y-105656832D01*
X126694974Y-105675552D01*
X126706956Y-105695543D01*
X126716921Y-105716613D01*
X126724773Y-105738557D01*
X126730437Y-105761166D01*
X126733856Y-105784221D01*
X126735000Y-105807500D01*
X126735000Y-106282500D01*
X126733856Y-106305779D01*
X126730437Y-106328834D01*
X126724773Y-106351443D01*
X126716921Y-106373387D01*
X126706956Y-106394457D01*
X126694974Y-106414448D01*
X126681090Y-106433168D01*
X126665438Y-106450438D01*
X126648168Y-106466090D01*
X126629448Y-106479974D01*
X126609457Y-106491956D01*
X126588387Y-106501921D01*
X126566443Y-106509773D01*
X126543834Y-106515437D01*
X126520779Y-106518856D01*
X126497500Y-106520000D01*
X125922500Y-106520000D01*
X125899221Y-106518856D01*
X125876166Y-106515437D01*
X125853557Y-106509773D01*
X125831613Y-106501921D01*
X125810543Y-106491956D01*
X125790552Y-106479974D01*
X125771832Y-106466090D01*
X125754562Y-106450438D01*
X125738910Y-106433168D01*
X125725026Y-106414448D01*
X125713044Y-106394457D01*
X125703079Y-106373387D01*
X125695227Y-106351443D01*
X125689563Y-106328834D01*
X125686144Y-106305779D01*
X125685000Y-106282500D01*
X125685000Y-105807500D01*
X125686144Y-105784221D01*
X125689563Y-105761166D01*
X125695227Y-105738557D01*
X125703079Y-105716613D01*
X125713044Y-105695543D01*
X125725026Y-105675552D01*
X125738910Y-105656832D01*
X125754562Y-105639562D01*
X125771832Y-105623910D01*
X125790552Y-105610026D01*
X125810543Y-105598044D01*
X125831613Y-105588079D01*
X125853557Y-105580227D01*
X125876166Y-105574563D01*
X125899221Y-105571144D01*
X125922500Y-105570000D01*
X126497500Y-105570000D01*
X126520779Y-105571144D01*
X126520779Y-105571144D01*
G37*
D12*
X126210000Y-106045000D03*
D11*
G36*
X157635779Y-98586144D02*
G01*
X157658834Y-98589563D01*
X157681443Y-98595227D01*
X157703387Y-98603079D01*
X157724457Y-98613044D01*
X157744448Y-98625026D01*
X157763168Y-98638910D01*
X157780438Y-98654562D01*
X157796090Y-98671832D01*
X157809974Y-98690552D01*
X157821956Y-98710543D01*
X157831921Y-98731613D01*
X157839773Y-98753557D01*
X157845437Y-98776166D01*
X157848856Y-98799221D01*
X157850000Y-98822500D01*
X157850000Y-99297500D01*
X157848856Y-99320779D01*
X157845437Y-99343834D01*
X157839773Y-99366443D01*
X157831921Y-99388387D01*
X157821956Y-99409457D01*
X157809974Y-99429448D01*
X157796090Y-99448168D01*
X157780438Y-99465438D01*
X157763168Y-99481090D01*
X157744448Y-99494974D01*
X157724457Y-99506956D01*
X157703387Y-99516921D01*
X157681443Y-99524773D01*
X157658834Y-99530437D01*
X157635779Y-99533856D01*
X157612500Y-99535000D01*
X157037500Y-99535000D01*
X157014221Y-99533856D01*
X156991166Y-99530437D01*
X156968557Y-99524773D01*
X156946613Y-99516921D01*
X156925543Y-99506956D01*
X156905552Y-99494974D01*
X156886832Y-99481090D01*
X156869562Y-99465438D01*
X156853910Y-99448168D01*
X156840026Y-99429448D01*
X156828044Y-99409457D01*
X156818079Y-99388387D01*
X156810227Y-99366443D01*
X156804563Y-99343834D01*
X156801144Y-99320779D01*
X156800000Y-99297500D01*
X156800000Y-98822500D01*
X156801144Y-98799221D01*
X156804563Y-98776166D01*
X156810227Y-98753557D01*
X156818079Y-98731613D01*
X156828044Y-98710543D01*
X156840026Y-98690552D01*
X156853910Y-98671832D01*
X156869562Y-98654562D01*
X156886832Y-98638910D01*
X156905552Y-98625026D01*
X156925543Y-98613044D01*
X156946613Y-98603079D01*
X156968557Y-98595227D01*
X156991166Y-98589563D01*
X157014221Y-98586144D01*
X157037500Y-98585000D01*
X157612500Y-98585000D01*
X157635779Y-98586144D01*
X157635779Y-98586144D01*
G37*
D12*
X157325000Y-99060000D03*
D11*
G36*
X155885779Y-98586144D02*
G01*
X155908834Y-98589563D01*
X155931443Y-98595227D01*
X155953387Y-98603079D01*
X155974457Y-98613044D01*
X155994448Y-98625026D01*
X156013168Y-98638910D01*
X156030438Y-98654562D01*
X156046090Y-98671832D01*
X156059974Y-98690552D01*
X156071956Y-98710543D01*
X156081921Y-98731613D01*
X156089773Y-98753557D01*
X156095437Y-98776166D01*
X156098856Y-98799221D01*
X156100000Y-98822500D01*
X156100000Y-99297500D01*
X156098856Y-99320779D01*
X156095437Y-99343834D01*
X156089773Y-99366443D01*
X156081921Y-99388387D01*
X156071956Y-99409457D01*
X156059974Y-99429448D01*
X156046090Y-99448168D01*
X156030438Y-99465438D01*
X156013168Y-99481090D01*
X155994448Y-99494974D01*
X155974457Y-99506956D01*
X155953387Y-99516921D01*
X155931443Y-99524773D01*
X155908834Y-99530437D01*
X155885779Y-99533856D01*
X155862500Y-99535000D01*
X155287500Y-99535000D01*
X155264221Y-99533856D01*
X155241166Y-99530437D01*
X155218557Y-99524773D01*
X155196613Y-99516921D01*
X155175543Y-99506956D01*
X155155552Y-99494974D01*
X155136832Y-99481090D01*
X155119562Y-99465438D01*
X155103910Y-99448168D01*
X155090026Y-99429448D01*
X155078044Y-99409457D01*
X155068079Y-99388387D01*
X155060227Y-99366443D01*
X155054563Y-99343834D01*
X155051144Y-99320779D01*
X155050000Y-99297500D01*
X155050000Y-98822500D01*
X155051144Y-98799221D01*
X155054563Y-98776166D01*
X155060227Y-98753557D01*
X155068079Y-98731613D01*
X155078044Y-98710543D01*
X155090026Y-98690552D01*
X155103910Y-98671832D01*
X155119562Y-98654562D01*
X155136832Y-98638910D01*
X155155552Y-98625026D01*
X155175543Y-98613044D01*
X155196613Y-98603079D01*
X155218557Y-98595227D01*
X155241166Y-98589563D01*
X155264221Y-98586144D01*
X155287500Y-98585000D01*
X155862500Y-98585000D01*
X155885779Y-98586144D01*
X155885779Y-98586144D01*
G37*
D12*
X155575000Y-99060000D03*
D11*
G36*
X150805779Y-98586144D02*
G01*
X150828834Y-98589563D01*
X150851443Y-98595227D01*
X150873387Y-98603079D01*
X150894457Y-98613044D01*
X150914448Y-98625026D01*
X150933168Y-98638910D01*
X150950438Y-98654562D01*
X150966090Y-98671832D01*
X150979974Y-98690552D01*
X150991956Y-98710543D01*
X151001921Y-98731613D01*
X151009773Y-98753557D01*
X151015437Y-98776166D01*
X151018856Y-98799221D01*
X151020000Y-98822500D01*
X151020000Y-99297500D01*
X151018856Y-99320779D01*
X151015437Y-99343834D01*
X151009773Y-99366443D01*
X151001921Y-99388387D01*
X150991956Y-99409457D01*
X150979974Y-99429448D01*
X150966090Y-99448168D01*
X150950438Y-99465438D01*
X150933168Y-99481090D01*
X150914448Y-99494974D01*
X150894457Y-99506956D01*
X150873387Y-99516921D01*
X150851443Y-99524773D01*
X150828834Y-99530437D01*
X150805779Y-99533856D01*
X150782500Y-99535000D01*
X150207500Y-99535000D01*
X150184221Y-99533856D01*
X150161166Y-99530437D01*
X150138557Y-99524773D01*
X150116613Y-99516921D01*
X150095543Y-99506956D01*
X150075552Y-99494974D01*
X150056832Y-99481090D01*
X150039562Y-99465438D01*
X150023910Y-99448168D01*
X150010026Y-99429448D01*
X149998044Y-99409457D01*
X149988079Y-99388387D01*
X149980227Y-99366443D01*
X149974563Y-99343834D01*
X149971144Y-99320779D01*
X149970000Y-99297500D01*
X149970000Y-98822500D01*
X149971144Y-98799221D01*
X149974563Y-98776166D01*
X149980227Y-98753557D01*
X149988079Y-98731613D01*
X149998044Y-98710543D01*
X150010026Y-98690552D01*
X150023910Y-98671832D01*
X150039562Y-98654562D01*
X150056832Y-98638910D01*
X150075552Y-98625026D01*
X150095543Y-98613044D01*
X150116613Y-98603079D01*
X150138557Y-98595227D01*
X150161166Y-98589563D01*
X150184221Y-98586144D01*
X150207500Y-98585000D01*
X150782500Y-98585000D01*
X150805779Y-98586144D01*
X150805779Y-98586144D01*
G37*
D12*
X150495000Y-99060000D03*
D11*
G36*
X152555779Y-98586144D02*
G01*
X152578834Y-98589563D01*
X152601443Y-98595227D01*
X152623387Y-98603079D01*
X152644457Y-98613044D01*
X152664448Y-98625026D01*
X152683168Y-98638910D01*
X152700438Y-98654562D01*
X152716090Y-98671832D01*
X152729974Y-98690552D01*
X152741956Y-98710543D01*
X152751921Y-98731613D01*
X152759773Y-98753557D01*
X152765437Y-98776166D01*
X152768856Y-98799221D01*
X152770000Y-98822500D01*
X152770000Y-99297500D01*
X152768856Y-99320779D01*
X152765437Y-99343834D01*
X152759773Y-99366443D01*
X152751921Y-99388387D01*
X152741956Y-99409457D01*
X152729974Y-99429448D01*
X152716090Y-99448168D01*
X152700438Y-99465438D01*
X152683168Y-99481090D01*
X152664448Y-99494974D01*
X152644457Y-99506956D01*
X152623387Y-99516921D01*
X152601443Y-99524773D01*
X152578834Y-99530437D01*
X152555779Y-99533856D01*
X152532500Y-99535000D01*
X151957500Y-99535000D01*
X151934221Y-99533856D01*
X151911166Y-99530437D01*
X151888557Y-99524773D01*
X151866613Y-99516921D01*
X151845543Y-99506956D01*
X151825552Y-99494974D01*
X151806832Y-99481090D01*
X151789562Y-99465438D01*
X151773910Y-99448168D01*
X151760026Y-99429448D01*
X151748044Y-99409457D01*
X151738079Y-99388387D01*
X151730227Y-99366443D01*
X151724563Y-99343834D01*
X151721144Y-99320779D01*
X151720000Y-99297500D01*
X151720000Y-98822500D01*
X151721144Y-98799221D01*
X151724563Y-98776166D01*
X151730227Y-98753557D01*
X151738079Y-98731613D01*
X151748044Y-98710543D01*
X151760026Y-98690552D01*
X151773910Y-98671832D01*
X151789562Y-98654562D01*
X151806832Y-98638910D01*
X151825552Y-98625026D01*
X151845543Y-98613044D01*
X151866613Y-98603079D01*
X151888557Y-98595227D01*
X151911166Y-98589563D01*
X151934221Y-98586144D01*
X151957500Y-98585000D01*
X152532500Y-98585000D01*
X152555779Y-98586144D01*
X152555779Y-98586144D01*
G37*
D12*
X152245000Y-99060000D03*
D14*
X124460000Y-88900000D03*
X121920000Y-88900000D03*
X119380000Y-88900000D03*
D17*
X107315000Y-85725000D03*
X123190000Y-85725000D03*
X129540000Y-102870000D03*
X132080000Y-120650000D03*
X137160000Y-118110000D03*
X134649499Y-118080501D03*
X134649499Y-114300000D03*
X94742000Y-104775000D03*
X94742000Y-81915000D03*
X163830000Y-110490000D03*
X163830000Y-81915000D03*
X128270000Y-83185000D03*
X161925000Y-83185000D03*
X97155000Y-83185000D03*
X97155000Y-101092000D03*
X161925000Y-106680000D03*
X124460000Y-99060000D03*
D18*
X86360000Y-88900000D02*
X89952102Y-88900000D01*
X89952102Y-88900000D02*
X112395000Y-88900000D01*
X112395000Y-102870000D02*
X112395000Y-106045000D01*
X112395000Y-102870000D02*
X112395000Y-88900000D01*
D19*
X149870000Y-95250000D02*
X119380000Y-95250000D01*
X150495000Y-95250000D02*
X149870000Y-95250000D01*
D18*
X119380000Y-91440000D02*
X119380000Y-95250000D01*
X119380000Y-95250000D02*
X119380000Y-106045000D01*
X112395000Y-88900000D02*
X119380000Y-88900000D01*
X119380000Y-88900000D02*
X119380000Y-91440000D01*
X107315000Y-102870000D02*
X107315000Y-106045000D01*
X89380000Y-106680000D02*
X89535000Y-106525000D01*
X86360000Y-106680000D02*
X89380000Y-106680000D01*
X89535000Y-102870000D02*
X95885000Y-102870000D01*
X107315000Y-85725000D02*
X123190000Y-85725000D01*
D19*
X150495000Y-106680000D02*
X150495000Y-110490000D01*
D18*
X96520000Y-106045000D02*
X96520000Y-102870000D01*
X96040000Y-106525000D02*
X96520000Y-106045000D01*
X89535000Y-106525000D02*
X96040000Y-106525000D01*
X95885000Y-102870000D02*
X96520000Y-102870000D01*
X96520000Y-102870000D02*
X107315000Y-102870000D01*
D19*
X150495000Y-102870000D02*
X129540000Y-102870000D01*
X132080000Y-120650000D02*
X86360000Y-120650000D01*
X137160000Y-118110000D02*
X150650000Y-118110000D01*
X86389499Y-118080501D02*
X86360000Y-118110000D01*
X134649499Y-118080501D02*
X86389499Y-118080501D01*
X150650000Y-114300000D02*
X134649499Y-114300000D01*
X88900000Y-104140000D02*
X89535000Y-104775000D01*
X86360000Y-104140000D02*
X88900000Y-104140000D01*
X125730000Y-81280000D02*
X125730000Y-78994000D01*
X89535000Y-104775000D02*
X94742000Y-104775000D01*
X94742000Y-81915000D02*
X125095000Y-81915000D01*
X163830000Y-110490000D02*
X157325000Y-110490000D01*
X163830000Y-81915000D02*
X125730000Y-81915000D01*
X125095000Y-81915000D02*
X125730000Y-81915000D01*
X125730000Y-81915000D02*
X125730000Y-81280000D01*
X89055000Y-101600000D02*
X89535000Y-101120000D01*
X86360000Y-101600000D02*
X89055000Y-101600000D01*
X161925000Y-83185000D02*
X128270000Y-83185000D01*
X93825000Y-101120000D02*
X89535000Y-101120000D01*
X127000000Y-83185000D02*
X128270000Y-83185000D01*
X97155000Y-83185000D02*
X127000000Y-83185000D01*
X93825000Y-101120000D02*
X97127000Y-101120000D01*
X97127000Y-101120000D02*
X97155000Y-101092000D01*
X161925000Y-106680000D02*
X157325000Y-106680000D01*
X152245000Y-95250000D02*
X155575000Y-95250000D01*
X152400000Y-118110000D02*
X155575000Y-118110000D01*
X152400000Y-114300000D02*
X155575000Y-114300000D01*
X155575000Y-110490000D02*
X152245000Y-110490000D01*
X155575000Y-106680000D02*
X152245000Y-106680000D01*
X124460000Y-99060000D02*
X150495000Y-99060000D01*
X124460000Y-99060000D02*
X124460000Y-106045000D01*
X152245000Y-99060000D02*
X155575000Y-99060000D01*
D20*
G36*
X122243368Y-75300525D02*
G01*
X122036525Y-75507368D01*
X121874010Y-75750589D01*
X121762068Y-76020842D01*
X121705000Y-76307740D01*
X121705000Y-76600260D01*
X121762068Y-76887158D01*
X121874010Y-77157411D01*
X122036525Y-77400632D01*
X122243368Y-77607475D01*
X122417760Y-77724000D01*
X122243368Y-77840525D01*
X122036525Y-78047368D01*
X121874010Y-78290589D01*
X121762068Y-78560842D01*
X121705000Y-78847740D01*
X121705000Y-79140260D01*
X121762068Y-79427158D01*
X121874010Y-79697411D01*
X122036525Y-79940632D01*
X122243368Y-80147475D01*
X122486589Y-80309990D01*
X122756842Y-80421932D01*
X123043740Y-80479000D01*
X123336260Y-80479000D01*
X123623158Y-80421932D01*
X123893411Y-80309990D01*
X124136632Y-80147475D01*
X124343475Y-79940632D01*
X124460000Y-79766240D01*
X124576525Y-79940632D01*
X124783368Y-80147475D01*
X124904500Y-80228413D01*
X124904500Y-81089500D01*
X95369503Y-81089500D01*
X95232256Y-80997795D01*
X95043898Y-80919774D01*
X94843939Y-80880000D01*
X94640061Y-80880000D01*
X94440102Y-80919774D01*
X94251744Y-80997795D01*
X94082226Y-81111063D01*
X93938063Y-81255226D01*
X93824795Y-81424744D01*
X93746774Y-81613102D01*
X93707000Y-81813061D01*
X93707000Y-82016939D01*
X93746774Y-82216898D01*
X93824795Y-82405256D01*
X93938063Y-82574774D01*
X94082226Y-82718937D01*
X94251744Y-82832205D01*
X94440102Y-82910226D01*
X94640061Y-82950000D01*
X94843939Y-82950000D01*
X95043898Y-82910226D01*
X95232256Y-82832205D01*
X95369503Y-82740500D01*
X96218842Y-82740500D01*
X96159774Y-82883102D01*
X96120000Y-83083061D01*
X96120000Y-83286939D01*
X96159774Y-83486898D01*
X96237795Y-83675256D01*
X96351063Y-83844774D01*
X96495226Y-83988937D01*
X96664744Y-84102205D01*
X96853102Y-84180226D01*
X97053061Y-84220000D01*
X97256939Y-84220000D01*
X97456898Y-84180226D01*
X97645256Y-84102205D01*
X97782503Y-84010500D01*
X127642497Y-84010500D01*
X127779744Y-84102205D01*
X127968102Y-84180226D01*
X128168061Y-84220000D01*
X128371939Y-84220000D01*
X128571898Y-84180226D01*
X128760256Y-84102205D01*
X128897503Y-84010500D01*
X161297497Y-84010500D01*
X161434744Y-84102205D01*
X161623102Y-84180226D01*
X161823061Y-84220000D01*
X162026939Y-84220000D01*
X162226898Y-84180226D01*
X162415256Y-84102205D01*
X162584774Y-83988937D01*
X162728937Y-83844774D01*
X162842205Y-83675256D01*
X162920226Y-83486898D01*
X162960000Y-83286939D01*
X162960000Y-83083061D01*
X162920226Y-82883102D01*
X162861158Y-82740500D01*
X163202497Y-82740500D01*
X163339744Y-82832205D01*
X163528102Y-82910226D01*
X163728061Y-82950000D01*
X163931939Y-82950000D01*
X164131898Y-82910226D01*
X164320256Y-82832205D01*
X164489774Y-82718937D01*
X164633937Y-82574774D01*
X164747205Y-82405256D01*
X164825226Y-82216898D01*
X164865000Y-82016939D01*
X164865000Y-81813061D01*
X164825226Y-81613102D01*
X164747205Y-81424744D01*
X164633937Y-81255226D01*
X164489774Y-81111063D01*
X164320256Y-80997795D01*
X164131898Y-80919774D01*
X163931939Y-80880000D01*
X163728061Y-80880000D01*
X163528102Y-80919774D01*
X163339744Y-80997795D01*
X163202497Y-81089500D01*
X126555500Y-81089500D01*
X126555500Y-80228413D01*
X126676632Y-80147475D01*
X126883475Y-79940632D01*
X127000000Y-79766240D01*
X127116525Y-79940632D01*
X127323368Y-80147475D01*
X127566589Y-80309990D01*
X127836842Y-80421932D01*
X128123740Y-80479000D01*
X128416260Y-80479000D01*
X128703158Y-80421932D01*
X128973411Y-80309990D01*
X129216632Y-80147475D01*
X129423475Y-79940632D01*
X129540000Y-79766240D01*
X129656525Y-79940632D01*
X129863368Y-80147475D01*
X130106589Y-80309990D01*
X130376842Y-80421932D01*
X130663740Y-80479000D01*
X130956260Y-80479000D01*
X131243158Y-80421932D01*
X131513411Y-80309990D01*
X131756632Y-80147475D01*
X131963475Y-79940632D01*
X132125990Y-79697411D01*
X132237932Y-79427158D01*
X132295000Y-79140260D01*
X132295000Y-78847740D01*
X132237932Y-78560842D01*
X132125990Y-78290589D01*
X131963475Y-78047368D01*
X131756632Y-77840525D01*
X131582240Y-77724000D01*
X131756632Y-77607475D01*
X131963475Y-77400632D01*
X132080000Y-77226240D01*
X132196525Y-77400632D01*
X132403368Y-77607475D01*
X132646589Y-77769990D01*
X132916842Y-77881932D01*
X133203740Y-77939000D01*
X133496260Y-77939000D01*
X133783158Y-77881932D01*
X134053411Y-77769990D01*
X134296632Y-77607475D01*
X134503475Y-77400632D01*
X134620000Y-77226240D01*
X134736525Y-77400632D01*
X134943368Y-77607475D01*
X135117760Y-77724000D01*
X134943368Y-77840525D01*
X134736525Y-78047368D01*
X134574010Y-78290589D01*
X134462068Y-78560842D01*
X134405000Y-78847740D01*
X134405000Y-79140260D01*
X134462068Y-79427158D01*
X134574010Y-79697411D01*
X134736525Y-79940632D01*
X134943368Y-80147475D01*
X135186589Y-80309990D01*
X135456842Y-80421932D01*
X135743740Y-80479000D01*
X136036260Y-80479000D01*
X136323158Y-80421932D01*
X136593411Y-80309990D01*
X136836632Y-80147475D01*
X137043475Y-79940632D01*
X137160000Y-79766240D01*
X137276525Y-79940632D01*
X137483368Y-80147475D01*
X137726589Y-80309990D01*
X137996842Y-80421932D01*
X138283740Y-80479000D01*
X138576260Y-80479000D01*
X138863158Y-80421932D01*
X139133411Y-80309990D01*
X139376632Y-80147475D01*
X139583475Y-79940632D01*
X139700000Y-79766240D01*
X139816525Y-79940632D01*
X140023368Y-80147475D01*
X140266589Y-80309990D01*
X140536842Y-80421932D01*
X140823740Y-80479000D01*
X141116260Y-80479000D01*
X141403158Y-80421932D01*
X141673411Y-80309990D01*
X141916632Y-80147475D01*
X142123475Y-79940632D01*
X142240000Y-79766240D01*
X142356525Y-79940632D01*
X142563368Y-80147475D01*
X142806589Y-80309990D01*
X143076842Y-80421932D01*
X143363740Y-80479000D01*
X143656260Y-80479000D01*
X143943158Y-80421932D01*
X144213411Y-80309990D01*
X144456632Y-80147475D01*
X144663475Y-79940632D01*
X144780000Y-79766240D01*
X144896525Y-79940632D01*
X145103368Y-80147475D01*
X145346589Y-80309990D01*
X145616842Y-80421932D01*
X145903740Y-80479000D01*
X146196260Y-80479000D01*
X146483158Y-80421932D01*
X146753411Y-80309990D01*
X146996632Y-80147475D01*
X147203475Y-79940632D01*
X147320000Y-79766240D01*
X147436525Y-79940632D01*
X147643368Y-80147475D01*
X147886589Y-80309990D01*
X148156842Y-80421932D01*
X148443740Y-80479000D01*
X148736260Y-80479000D01*
X149023158Y-80421932D01*
X149293411Y-80309990D01*
X149536632Y-80147475D01*
X149743475Y-79940632D01*
X149860000Y-79766240D01*
X149976525Y-79940632D01*
X150183368Y-80147475D01*
X150426589Y-80309990D01*
X150696842Y-80421932D01*
X150983740Y-80479000D01*
X151276260Y-80479000D01*
X151563158Y-80421932D01*
X151833411Y-80309990D01*
X152076632Y-80147475D01*
X152283475Y-79940632D01*
X152445990Y-79697411D01*
X152557932Y-79427158D01*
X152615000Y-79140260D01*
X152615000Y-78847740D01*
X152557932Y-78560842D01*
X152445990Y-78290589D01*
X152283475Y-78047368D01*
X152076632Y-77840525D01*
X151902240Y-77724000D01*
X152076632Y-77607475D01*
X152283475Y-77400632D01*
X152400000Y-77226240D01*
X152516525Y-77400632D01*
X152723368Y-77607475D01*
X152966589Y-77769990D01*
X153236842Y-77881932D01*
X153523740Y-77939000D01*
X153816260Y-77939000D01*
X154103158Y-77881932D01*
X154373411Y-77769990D01*
X154616632Y-77607475D01*
X154823475Y-77400632D01*
X154940000Y-77226240D01*
X155056525Y-77400632D01*
X155263368Y-77607475D01*
X155437760Y-77724000D01*
X155263368Y-77840525D01*
X155056525Y-78047368D01*
X154894010Y-78290589D01*
X154782068Y-78560842D01*
X154725000Y-78847740D01*
X154725000Y-79140260D01*
X154782068Y-79427158D01*
X154894010Y-79697411D01*
X155056525Y-79940632D01*
X155263368Y-80147475D01*
X155506589Y-80309990D01*
X155776842Y-80421932D01*
X156063740Y-80479000D01*
X156356260Y-80479000D01*
X156643158Y-80421932D01*
X156913411Y-80309990D01*
X157156632Y-80147475D01*
X157363475Y-79940632D01*
X157480000Y-79766240D01*
X157596525Y-79940632D01*
X157803368Y-80147475D01*
X158046589Y-80309990D01*
X158316842Y-80421932D01*
X158603740Y-80479000D01*
X158896260Y-80479000D01*
X159183158Y-80421932D01*
X159453411Y-80309990D01*
X159696632Y-80147475D01*
X159903475Y-79940632D01*
X160020000Y-79766240D01*
X160136525Y-79940632D01*
X160343368Y-80147475D01*
X160586589Y-80309990D01*
X160856842Y-80421932D01*
X161143740Y-80479000D01*
X161436260Y-80479000D01*
X161723158Y-80421932D01*
X161993411Y-80309990D01*
X162236632Y-80147475D01*
X162443475Y-79940632D01*
X162560000Y-79766240D01*
X162676525Y-79940632D01*
X162883368Y-80147475D01*
X163126589Y-80309990D01*
X163396842Y-80421932D01*
X163683740Y-80479000D01*
X163976260Y-80479000D01*
X164263158Y-80421932D01*
X164533411Y-80309990D01*
X164776632Y-80147475D01*
X164983475Y-79940632D01*
X165100000Y-79766240D01*
X165216525Y-79940632D01*
X165423368Y-80147475D01*
X165666589Y-80309990D01*
X165936842Y-80421932D01*
X166223740Y-80479000D01*
X166516260Y-80479000D01*
X166803158Y-80421932D01*
X167073411Y-80309990D01*
X167316632Y-80147475D01*
X167523475Y-79940632D01*
X167640000Y-79766240D01*
X167756525Y-79940632D01*
X167963368Y-80147475D01*
X168206589Y-80309990D01*
X168476842Y-80421932D01*
X168763740Y-80479000D01*
X169056260Y-80479000D01*
X169343158Y-80421932D01*
X169613411Y-80309990D01*
X169856632Y-80147475D01*
X170063475Y-79940632D01*
X170225990Y-79697411D01*
X170337932Y-79427158D01*
X170395000Y-79140260D01*
X170395000Y-78847740D01*
X170337932Y-78560842D01*
X170225990Y-78290589D01*
X170063475Y-78047368D01*
X169856632Y-77840525D01*
X169682240Y-77724000D01*
X169856632Y-77607475D01*
X170063475Y-77400632D01*
X170180000Y-77226240D01*
X170296525Y-77400632D01*
X170503368Y-77607475D01*
X170746589Y-77769990D01*
X171016842Y-77881932D01*
X171303740Y-77939000D01*
X171596260Y-77939000D01*
X171883158Y-77881932D01*
X172153411Y-77769990D01*
X172396632Y-77607475D01*
X172603475Y-77400632D01*
X172765990Y-77157411D01*
X172877932Y-76887158D01*
X172935000Y-76600260D01*
X172935000Y-76307740D01*
X172877932Y-76020842D01*
X172765990Y-75750589D01*
X172603475Y-75507368D01*
X172396632Y-75300525D01*
X172181832Y-75157000D01*
X177002054Y-75157000D01*
X177289236Y-75185158D01*
X177530907Y-75258123D01*
X177753799Y-75376637D01*
X177949427Y-75536187D01*
X178110340Y-75730699D01*
X178230407Y-75952756D01*
X178305056Y-76193912D01*
X178335000Y-76478811D01*
X178335000Y-77009617D01*
X178212012Y-76712698D01*
X177978363Y-76363017D01*
X177680983Y-76065637D01*
X177331302Y-75831988D01*
X176942756Y-75671047D01*
X176530279Y-75589000D01*
X176109721Y-75589000D01*
X175697244Y-75671047D01*
X175308698Y-75831988D01*
X174959017Y-76065637D01*
X174661637Y-76363017D01*
X174427988Y-76712698D01*
X174267047Y-77101244D01*
X174185000Y-77513721D01*
X174185000Y-77934279D01*
X174267047Y-78346756D01*
X174427988Y-78735302D01*
X174661637Y-79084983D01*
X174959017Y-79382363D01*
X175308698Y-79616012D01*
X175697244Y-79776953D01*
X176109721Y-79859000D01*
X176530279Y-79859000D01*
X176942756Y-79776953D01*
X177331302Y-79616012D01*
X177680983Y-79382363D01*
X177978363Y-79084983D01*
X178212012Y-78735302D01*
X178335000Y-78438383D01*
X178335001Y-126009620D01*
X178212012Y-125712698D01*
X177978363Y-125363017D01*
X177680983Y-125065637D01*
X177331302Y-124831988D01*
X176942756Y-124671047D01*
X176530279Y-124589000D01*
X176109721Y-124589000D01*
X175697244Y-124671047D01*
X175308698Y-124831988D01*
X174959017Y-125065637D01*
X174661637Y-125363017D01*
X174427988Y-125712698D01*
X174267047Y-126101244D01*
X174185000Y-126513721D01*
X174185000Y-126934279D01*
X174267047Y-127346756D01*
X174427988Y-127735302D01*
X174661637Y-128084983D01*
X174959017Y-128382363D01*
X175308698Y-128616012D01*
X175697244Y-128776953D01*
X176109721Y-128859000D01*
X176530279Y-128859000D01*
X176942756Y-128776953D01*
X177331302Y-128616012D01*
X177680983Y-128382363D01*
X177978363Y-128084983D01*
X178212012Y-127735302D01*
X178335001Y-127438380D01*
X178335001Y-128741885D01*
X178331444Y-128778000D01*
X178345635Y-128922085D01*
X178387663Y-129060633D01*
X178455913Y-129188320D01*
X178547762Y-129300238D01*
X178659680Y-129392087D01*
X178787367Y-129460337D01*
X178925915Y-129502365D01*
X179033895Y-129513000D01*
X179070000Y-129516556D01*
X179106105Y-129513000D01*
X194782054Y-129513000D01*
X195069236Y-129541158D01*
X195310907Y-129614123D01*
X195533799Y-129732637D01*
X195729427Y-129892187D01*
X195890340Y-130086699D01*
X196010407Y-130308756D01*
X196085056Y-130549912D01*
X196115000Y-130834811D01*
X196115001Y-138311134D01*
X195845223Y-138394644D01*
X195783779Y-138420473D01*
X195722045Y-138445415D01*
X195712989Y-138450230D01*
X195712985Y-138450232D01*
X195712984Y-138450233D01*
X195364135Y-138638855D01*
X195308892Y-138676117D01*
X195253167Y-138712582D01*
X195245217Y-138719066D01*
X195245213Y-138719069D01*
X195245209Y-138719073D01*
X194939646Y-138971855D01*
X194892668Y-139019162D01*
X194845110Y-139065734D01*
X194838568Y-139073641D01*
X194587920Y-139380967D01*
X194551042Y-139436472D01*
X194513419Y-139491419D01*
X194508537Y-139500446D01*
X194322356Y-139850603D01*
X194296953Y-139912235D01*
X194270727Y-139973424D01*
X194267692Y-139983227D01*
X194153069Y-140362878D01*
X194140127Y-140428238D01*
X194126280Y-140493386D01*
X194125207Y-140503592D01*
X194086508Y-140898277D01*
X194086508Y-140930396D01*
X194083040Y-140962328D01*
X194083005Y-140972591D01*
X194083055Y-140986776D01*
X194086299Y-141018704D01*
X194086075Y-141050800D01*
X194087076Y-141061013D01*
X194128529Y-141455417D01*
X194141932Y-141520711D01*
X194154408Y-141586111D01*
X194157373Y-141595935D01*
X194274644Y-141974778D01*
X194300483Y-142036246D01*
X194325415Y-142097955D01*
X194330233Y-142107017D01*
X194518855Y-142455865D01*
X194556117Y-142511108D01*
X194592582Y-142566833D01*
X194599068Y-142574786D01*
X194851855Y-142880354D01*
X194899130Y-142927299D01*
X194945735Y-142974891D01*
X194953642Y-142981432D01*
X195260967Y-143232081D01*
X195316491Y-143268971D01*
X195371419Y-143306581D01*
X195380443Y-143311461D01*
X195380451Y-143311465D01*
X195730603Y-143497644D01*
X195792207Y-143523035D01*
X195853424Y-143549273D01*
X195863227Y-143552308D01*
X196115000Y-143628323D01*
X196115001Y-151602043D01*
X196086842Y-151889236D01*
X196013878Y-152130903D01*
X195895363Y-152353798D01*
X195735813Y-152549427D01*
X195541300Y-152710341D01*
X195319244Y-152830407D01*
X195078090Y-152905056D01*
X194793189Y-152935000D01*
X74457946Y-152935000D01*
X74170764Y-152906842D01*
X73929097Y-152833878D01*
X73706202Y-152715363D01*
X73510573Y-152555813D01*
X73349659Y-152361300D01*
X73229593Y-152139244D01*
X73154944Y-151898090D01*
X73125000Y-151613189D01*
X73125000Y-143628866D01*
X73394778Y-143545356D01*
X73456246Y-143519517D01*
X73517955Y-143494585D01*
X73527012Y-143489770D01*
X73527016Y-143489768D01*
X73527019Y-143489766D01*
X73875865Y-143301145D01*
X73931108Y-143263883D01*
X73986833Y-143227418D01*
X73994786Y-143220932D01*
X74300354Y-142968145D01*
X74347299Y-142920870D01*
X74394891Y-142874265D01*
X74401432Y-142866358D01*
X74652081Y-142559033D01*
X74688971Y-142503509D01*
X74726581Y-142448581D01*
X74731462Y-142439554D01*
X74917644Y-142089397D01*
X74943035Y-142027793D01*
X74969273Y-141966576D01*
X74972308Y-141956773D01*
X75086931Y-141577122D01*
X75099874Y-141511754D01*
X75113720Y-141446613D01*
X75114793Y-141436407D01*
X75153492Y-141041723D01*
X75153492Y-141009604D01*
X75156960Y-140977672D01*
X75156995Y-140967409D01*
X75156945Y-140953223D01*
X75153701Y-140921295D01*
X75153925Y-140889199D01*
X75152924Y-140878986D01*
X75111471Y-140484583D01*
X75098073Y-140419313D01*
X75085593Y-140353890D01*
X75082627Y-140344065D01*
X74965356Y-139965223D01*
X74939527Y-139903779D01*
X74914585Y-139842045D01*
X74909767Y-139832984D01*
X74721145Y-139484135D01*
X74683883Y-139428892D01*
X74647418Y-139373167D01*
X74640932Y-139365215D01*
X74640931Y-139365213D01*
X74640927Y-139365209D01*
X74388145Y-139059646D01*
X74340838Y-139012668D01*
X74294266Y-138965110D01*
X74286359Y-138958568D01*
X73979033Y-138707920D01*
X73923528Y-138671042D01*
X73868581Y-138633419D01*
X73859554Y-138628537D01*
X73509397Y-138442356D01*
X73447765Y-138416953D01*
X73386576Y-138390727D01*
X73376777Y-138387693D01*
X73376771Y-138387691D01*
X73125000Y-138311678D01*
X73125000Y-126513721D01*
X116185000Y-126513721D01*
X116185000Y-126934279D01*
X116267047Y-127346756D01*
X116427988Y-127735302D01*
X116661637Y-128084983D01*
X116959017Y-128382363D01*
X117308698Y-128616012D01*
X117697244Y-128776953D01*
X118109721Y-128859000D01*
X118530279Y-128859000D01*
X118942756Y-128776953D01*
X119331302Y-128616012D01*
X119680983Y-128382363D01*
X119978363Y-128084983D01*
X120212012Y-127735302D01*
X120372953Y-127346756D01*
X120455000Y-126934279D01*
X120455000Y-126513721D01*
X120372953Y-126101244D01*
X120212012Y-125712698D01*
X119978363Y-125363017D01*
X119680983Y-125065637D01*
X119331302Y-124831988D01*
X118942756Y-124671047D01*
X118530279Y-124589000D01*
X118109721Y-124589000D01*
X117697244Y-124671047D01*
X117308698Y-124831988D01*
X116959017Y-125065637D01*
X116661637Y-125363017D01*
X116427988Y-125712698D01*
X116267047Y-126101244D01*
X116185000Y-126513721D01*
X73125000Y-126513721D01*
X73125000Y-121687560D01*
X75364000Y-121687560D01*
X75364000Y-122152440D01*
X75454694Y-122608387D01*
X75632595Y-123037879D01*
X75890868Y-123424412D01*
X76219588Y-123753132D01*
X76606121Y-124011405D01*
X77035613Y-124189306D01*
X77491560Y-124280000D01*
X77956440Y-124280000D01*
X78412387Y-124189306D01*
X78841879Y-124011405D01*
X79228412Y-123753132D01*
X79557132Y-123424412D01*
X79815405Y-123037879D01*
X79993306Y-122608387D01*
X80084000Y-122152440D01*
X80084000Y-121687560D01*
X79993306Y-121231613D01*
X79815405Y-120802121D01*
X79557132Y-120415588D01*
X79228412Y-120086868D01*
X78841879Y-119828595D01*
X78412387Y-119650694D01*
X77956440Y-119560000D01*
X77491560Y-119560000D01*
X77035613Y-119650694D01*
X76606121Y-119828595D01*
X76219588Y-120086868D01*
X75890868Y-120415588D01*
X75632595Y-120802121D01*
X75454694Y-121231613D01*
X75364000Y-121687560D01*
X73125000Y-121687560D01*
X73125000Y-117972408D01*
X84963000Y-117972408D01*
X84963000Y-118247592D01*
X85016686Y-118517490D01*
X85121995Y-118771727D01*
X85274880Y-119000535D01*
X85469465Y-119195120D01*
X85698273Y-119348005D01*
X85775515Y-119380000D01*
X85698273Y-119411995D01*
X85469465Y-119564880D01*
X85274880Y-119759465D01*
X85121995Y-119988273D01*
X85016686Y-120242510D01*
X84963000Y-120512408D01*
X84963000Y-120787592D01*
X85016686Y-121057490D01*
X85121995Y-121311727D01*
X85274880Y-121540535D01*
X85469465Y-121735120D01*
X85698273Y-121888005D01*
X85952510Y-121993314D01*
X86222408Y-122047000D01*
X86497592Y-122047000D01*
X86767490Y-121993314D01*
X87021727Y-121888005D01*
X87250535Y-121735120D01*
X87445120Y-121540535D01*
X87488575Y-121475500D01*
X131452497Y-121475500D01*
X131589744Y-121567205D01*
X131778102Y-121645226D01*
X131978061Y-121685000D01*
X132181939Y-121685000D01*
X132381898Y-121645226D01*
X132570256Y-121567205D01*
X132739774Y-121453937D01*
X132883937Y-121309774D01*
X132997205Y-121140256D01*
X133075226Y-120951898D01*
X133115000Y-120751939D01*
X133115000Y-120548061D01*
X133075226Y-120348102D01*
X132997205Y-120159744D01*
X132883937Y-119990226D01*
X132739774Y-119846063D01*
X132570256Y-119732795D01*
X132381898Y-119654774D01*
X132181939Y-119615000D01*
X131978061Y-119615000D01*
X131778102Y-119654774D01*
X131589744Y-119732795D01*
X131452497Y-119824500D01*
X87488575Y-119824500D01*
X87445120Y-119759465D01*
X87250535Y-119564880D01*
X87021727Y-119411995D01*
X86944485Y-119380000D01*
X87021727Y-119348005D01*
X87250535Y-119195120D01*
X87445120Y-119000535D01*
X87508286Y-118906001D01*
X134021996Y-118906001D01*
X134159243Y-118997706D01*
X134347601Y-119075727D01*
X134547560Y-119115501D01*
X134751438Y-119115501D01*
X134951397Y-119075727D01*
X135139755Y-118997706D01*
X135309273Y-118884438D01*
X135453436Y-118740275D01*
X135566704Y-118570757D01*
X135644725Y-118382399D01*
X135684499Y-118182440D01*
X135684499Y-118008061D01*
X136125000Y-118008061D01*
X136125000Y-118211939D01*
X136164774Y-118411898D01*
X136242795Y-118600256D01*
X136356063Y-118769774D01*
X136500226Y-118913937D01*
X136669744Y-119027205D01*
X136858102Y-119105226D01*
X137058061Y-119145000D01*
X137261939Y-119145000D01*
X137461898Y-119105226D01*
X137650256Y-119027205D01*
X137787503Y-118935500D01*
X149717835Y-118935500D01*
X149743377Y-118966623D01*
X149876058Y-119075512D01*
X150027433Y-119156423D01*
X150191684Y-119206248D01*
X150362500Y-119223072D01*
X150937500Y-119223072D01*
X151108316Y-119206248D01*
X151272567Y-119156423D01*
X151423942Y-119075512D01*
X151525000Y-118992575D01*
X151626058Y-119075512D01*
X151777433Y-119156423D01*
X151941684Y-119206248D01*
X152112500Y-119223072D01*
X152687500Y-119223072D01*
X152858316Y-119206248D01*
X153022567Y-119156423D01*
X153173942Y-119075512D01*
X153306623Y-118966623D01*
X153332165Y-118935500D01*
X154642835Y-118935500D01*
X154668377Y-118966623D01*
X154801058Y-119075512D01*
X154952433Y-119156423D01*
X155116684Y-119206248D01*
X155287500Y-119223072D01*
X155862500Y-119223072D01*
X156033316Y-119206248D01*
X156197567Y-119156423D01*
X156348942Y-119075512D01*
X156481623Y-118966623D01*
X156590512Y-118833942D01*
X156671423Y-118682567D01*
X156721248Y-118518316D01*
X156738072Y-118347500D01*
X156738072Y-117872500D01*
X156721248Y-117701684D01*
X156671423Y-117537433D01*
X156590512Y-117386058D01*
X156481623Y-117253377D01*
X156348942Y-117144488D01*
X156197567Y-117063577D01*
X156033316Y-117013752D01*
X155862500Y-116996928D01*
X155287500Y-116996928D01*
X155116684Y-117013752D01*
X154952433Y-117063577D01*
X154801058Y-117144488D01*
X154668377Y-117253377D01*
X154642835Y-117284500D01*
X153332165Y-117284500D01*
X153306623Y-117253377D01*
X153173942Y-117144488D01*
X153022567Y-117063577D01*
X152858316Y-117013752D01*
X152687500Y-116996928D01*
X152112500Y-116996928D01*
X151941684Y-117013752D01*
X151777433Y-117063577D01*
X151626058Y-117144488D01*
X151525000Y-117227425D01*
X151423942Y-117144488D01*
X151272567Y-117063577D01*
X151108316Y-117013752D01*
X150937500Y-116996928D01*
X150362500Y-116996928D01*
X150191684Y-117013752D01*
X150027433Y-117063577D01*
X149876058Y-117144488D01*
X149743377Y-117253377D01*
X149717835Y-117284500D01*
X137787503Y-117284500D01*
X137650256Y-117192795D01*
X137461898Y-117114774D01*
X137261939Y-117075000D01*
X137058061Y-117075000D01*
X136858102Y-117114774D01*
X136669744Y-117192795D01*
X136500226Y-117306063D01*
X136356063Y-117450226D01*
X136242795Y-117619744D01*
X136164774Y-117808102D01*
X136125000Y-118008061D01*
X135684499Y-118008061D01*
X135684499Y-117978562D01*
X135644725Y-117778603D01*
X135566704Y-117590245D01*
X135453436Y-117420727D01*
X135309273Y-117276564D01*
X135139755Y-117163296D01*
X134951397Y-117085275D01*
X134751438Y-117045501D01*
X134547560Y-117045501D01*
X134347601Y-117085275D01*
X134159243Y-117163296D01*
X134021996Y-117255001D01*
X87468864Y-117255001D01*
X87445120Y-117219465D01*
X87250535Y-117024880D01*
X87021727Y-116871995D01*
X86767490Y-116766686D01*
X86497592Y-116713000D01*
X86222408Y-116713000D01*
X85952510Y-116766686D01*
X85698273Y-116871995D01*
X85469465Y-117024880D01*
X85274880Y-117219465D01*
X85121995Y-117448273D01*
X85016686Y-117702510D01*
X84963000Y-117972408D01*
X73125000Y-117972408D01*
X73125000Y-114067560D01*
X75364000Y-114067560D01*
X75364000Y-114532440D01*
X75454694Y-114988387D01*
X75632595Y-115417879D01*
X75890868Y-115804412D01*
X76219588Y-116133132D01*
X76606121Y-116391405D01*
X77035613Y-116569306D01*
X77491560Y-116660000D01*
X77956440Y-116660000D01*
X78412387Y-116569306D01*
X78841879Y-116391405D01*
X79228412Y-116133132D01*
X79557132Y-115804412D01*
X79815405Y-115417879D01*
X79993306Y-114988387D01*
X80084000Y-114532440D01*
X80084000Y-114198061D01*
X133614499Y-114198061D01*
X133614499Y-114401939D01*
X133654273Y-114601898D01*
X133732294Y-114790256D01*
X133845562Y-114959774D01*
X133989725Y-115103937D01*
X134159243Y-115217205D01*
X134347601Y-115295226D01*
X134547560Y-115335000D01*
X134751438Y-115335000D01*
X134951397Y-115295226D01*
X135139755Y-115217205D01*
X135277002Y-115125500D01*
X149717835Y-115125500D01*
X149743377Y-115156623D01*
X149876058Y-115265512D01*
X150027433Y-115346423D01*
X150191684Y-115396248D01*
X150362500Y-115413072D01*
X150937500Y-115413072D01*
X151108316Y-115396248D01*
X151272567Y-115346423D01*
X151423942Y-115265512D01*
X151525000Y-115182575D01*
X151626058Y-115265512D01*
X151777433Y-115346423D01*
X151941684Y-115396248D01*
X152112500Y-115413072D01*
X152687500Y-115413072D01*
X152858316Y-115396248D01*
X153022567Y-115346423D01*
X153173942Y-115265512D01*
X153306623Y-115156623D01*
X153332165Y-115125500D01*
X154642835Y-115125500D01*
X154668377Y-115156623D01*
X154801058Y-115265512D01*
X154952433Y-115346423D01*
X155116684Y-115396248D01*
X155287500Y-115413072D01*
X155862500Y-115413072D01*
X156033316Y-115396248D01*
X156197567Y-115346423D01*
X156348942Y-115265512D01*
X156481623Y-115156623D01*
X156590512Y-115023942D01*
X156671423Y-114872567D01*
X156721248Y-114708316D01*
X156738072Y-114537500D01*
X156738072Y-114062500D01*
X156721248Y-113891684D01*
X156671423Y-113727433D01*
X156590512Y-113576058D01*
X156481623Y-113443377D01*
X156348942Y-113334488D01*
X156197567Y-113253577D01*
X156033316Y-113203752D01*
X155862500Y-113186928D01*
X155287500Y-113186928D01*
X155116684Y-113203752D01*
X154952433Y-113253577D01*
X154801058Y-113334488D01*
X154668377Y-113443377D01*
X154642835Y-113474500D01*
X153332165Y-113474500D01*
X153306623Y-113443377D01*
X153173942Y-113334488D01*
X153022567Y-113253577D01*
X152858316Y-113203752D01*
X152687500Y-113186928D01*
X152112500Y-113186928D01*
X151941684Y-113203752D01*
X151777433Y-113253577D01*
X151626058Y-113334488D01*
X151525000Y-113417425D01*
X151423942Y-113334488D01*
X151272567Y-113253577D01*
X151108316Y-113203752D01*
X150937500Y-113186928D01*
X150362500Y-113186928D01*
X150191684Y-113203752D01*
X150027433Y-113253577D01*
X149876058Y-113334488D01*
X149743377Y-113443377D01*
X149717835Y-113474500D01*
X135277002Y-113474500D01*
X135139755Y-113382795D01*
X134951397Y-113304774D01*
X134751438Y-113265000D01*
X134547560Y-113265000D01*
X134347601Y-113304774D01*
X134159243Y-113382795D01*
X133989725Y-113496063D01*
X133845562Y-113640226D01*
X133732294Y-113809744D01*
X133654273Y-113998102D01*
X133614499Y-114198061D01*
X80084000Y-114198061D01*
X80084000Y-114067560D01*
X79993306Y-113611613D01*
X79815405Y-113182121D01*
X79557132Y-112795588D01*
X79228412Y-112466868D01*
X78841879Y-112208595D01*
X78412387Y-112030694D01*
X77956440Y-111940000D01*
X77491560Y-111940000D01*
X77035613Y-112030694D01*
X76606121Y-112208595D01*
X76219588Y-112466868D01*
X75890868Y-112795588D01*
X75632595Y-113182121D01*
X75454694Y-113611613D01*
X75364000Y-114067560D01*
X73125000Y-114067560D01*
X73125000Y-107717560D01*
X75364000Y-107717560D01*
X75364000Y-108182440D01*
X75454694Y-108638387D01*
X75632595Y-109067879D01*
X75890868Y-109454412D01*
X76219588Y-109783132D01*
X76606121Y-110041405D01*
X77035613Y-110219306D01*
X77491560Y-110310000D01*
X77956440Y-110310000D01*
X78412387Y-110219306D01*
X78841879Y-110041405D01*
X79228412Y-109783132D01*
X79557132Y-109454412D01*
X79815405Y-109067879D01*
X79993306Y-108638387D01*
X80084000Y-108182440D01*
X80084000Y-107717560D01*
X79993306Y-107261613D01*
X79815405Y-106832121D01*
X79557132Y-106445588D01*
X79228412Y-106116868D01*
X78841879Y-105858595D01*
X78412387Y-105680694D01*
X77956440Y-105590000D01*
X77491560Y-105590000D01*
X77035613Y-105680694D01*
X76606121Y-105858595D01*
X76219588Y-106116868D01*
X75890868Y-106445588D01*
X75632595Y-106832121D01*
X75454694Y-107261613D01*
X75364000Y-107717560D01*
X73125000Y-107717560D01*
X73125000Y-101462408D01*
X84963000Y-101462408D01*
X84963000Y-101737592D01*
X85016686Y-102007490D01*
X85121995Y-102261727D01*
X85274880Y-102490535D01*
X85469465Y-102685120D01*
X85698273Y-102838005D01*
X85775515Y-102870000D01*
X85698273Y-102901995D01*
X85469465Y-103054880D01*
X85274880Y-103249465D01*
X85121995Y-103478273D01*
X85016686Y-103732510D01*
X84963000Y-104002408D01*
X84963000Y-104277592D01*
X85016686Y-104547490D01*
X85121995Y-104801727D01*
X85274880Y-105030535D01*
X85469465Y-105225120D01*
X85698273Y-105378005D01*
X85775515Y-105410000D01*
X85698273Y-105441995D01*
X85469465Y-105594880D01*
X85274880Y-105789465D01*
X85121995Y-106018273D01*
X85016686Y-106272510D01*
X84963000Y-106542408D01*
X84963000Y-106817592D01*
X85016686Y-107087490D01*
X85121995Y-107341727D01*
X85274880Y-107570535D01*
X85469465Y-107765120D01*
X85698273Y-107918005D01*
X85952510Y-108023314D01*
X86222408Y-108077000D01*
X86497592Y-108077000D01*
X86767490Y-108023314D01*
X87021727Y-107918005D01*
X87250535Y-107765120D01*
X87319655Y-107696000D01*
X89330098Y-107696000D01*
X89380000Y-107700915D01*
X89429902Y-107696000D01*
X89510395Y-107688072D01*
X89772500Y-107688072D01*
X89943316Y-107671248D01*
X90107567Y-107621423D01*
X90258029Y-107541000D01*
X95990098Y-107541000D01*
X96040000Y-107545915D01*
X96089902Y-107541000D01*
X96239171Y-107526298D01*
X96430687Y-107468202D01*
X96607190Y-107373860D01*
X96761896Y-107246896D01*
X96793713Y-107208127D01*
X97203127Y-106798713D01*
X97241896Y-106766896D01*
X97368860Y-106612190D01*
X97463202Y-106435687D01*
X97521298Y-106244171D01*
X97536000Y-106094902D01*
X97536000Y-106094901D01*
X97540915Y-106045000D01*
X97536000Y-105995098D01*
X97536000Y-103886000D01*
X106299000Y-103886000D01*
X106299001Y-105321970D01*
X106218577Y-105472433D01*
X106168752Y-105636684D01*
X106151928Y-105807500D01*
X106151928Y-106282500D01*
X106168752Y-106453316D01*
X106218577Y-106617567D01*
X106299488Y-106768942D01*
X106408377Y-106901623D01*
X106541058Y-107010512D01*
X106692433Y-107091423D01*
X106856684Y-107141248D01*
X107027500Y-107158072D01*
X107602500Y-107158072D01*
X107773316Y-107141248D01*
X107937567Y-107091423D01*
X108088942Y-107010512D01*
X108221623Y-106901623D01*
X108330512Y-106768942D01*
X108411423Y-106617567D01*
X108461248Y-106453316D01*
X108478072Y-106282500D01*
X108478072Y-105807500D01*
X108461248Y-105636684D01*
X108411423Y-105472433D01*
X108331000Y-105321971D01*
X108331000Y-103829655D01*
X108400120Y-103760535D01*
X108553005Y-103531727D01*
X108658314Y-103277490D01*
X108712000Y-103007592D01*
X108712000Y-102732408D01*
X108658314Y-102462510D01*
X108553005Y-102208273D01*
X108400120Y-101979465D01*
X108205535Y-101784880D01*
X107976727Y-101631995D01*
X107722490Y-101526686D01*
X107452592Y-101473000D01*
X107177408Y-101473000D01*
X106907510Y-101526686D01*
X106653273Y-101631995D01*
X106424465Y-101784880D01*
X106355345Y-101854000D01*
X97856711Y-101854000D01*
X97958937Y-101751774D01*
X98072205Y-101582256D01*
X98150226Y-101393898D01*
X98190000Y-101193939D01*
X98190000Y-100990061D01*
X98150226Y-100790102D01*
X98072205Y-100601744D01*
X97958937Y-100432226D01*
X97814774Y-100288063D01*
X97645256Y-100174795D01*
X97456898Y-100096774D01*
X97256939Y-100057000D01*
X97053061Y-100057000D01*
X96853102Y-100096774D01*
X96664744Y-100174795D01*
X96495226Y-100288063D01*
X96488789Y-100294500D01*
X90458199Y-100294500D01*
X90391623Y-100213377D01*
X90258942Y-100104488D01*
X90107567Y-100023577D01*
X89943316Y-99973752D01*
X89772500Y-99956928D01*
X89297500Y-99956928D01*
X89126684Y-99973752D01*
X88962433Y-100023577D01*
X88811058Y-100104488D01*
X88678377Y-100213377D01*
X88569488Y-100346058D01*
X88488577Y-100497433D01*
X88438752Y-100661684D01*
X88427641Y-100774500D01*
X87488575Y-100774500D01*
X87445120Y-100709465D01*
X87250535Y-100514880D01*
X87021727Y-100361995D01*
X86767490Y-100256686D01*
X86497592Y-100203000D01*
X86222408Y-100203000D01*
X85952510Y-100256686D01*
X85698273Y-100361995D01*
X85469465Y-100514880D01*
X85274880Y-100709465D01*
X85121995Y-100938273D01*
X85016686Y-101192510D01*
X84963000Y-101462408D01*
X73125000Y-101462408D01*
X73125000Y-97557560D01*
X75364000Y-97557560D01*
X75364000Y-98022440D01*
X75454694Y-98478387D01*
X75632595Y-98907879D01*
X75890868Y-99294412D01*
X76219588Y-99623132D01*
X76606121Y-99881405D01*
X77035613Y-100059306D01*
X77491560Y-100150000D01*
X77956440Y-100150000D01*
X78412387Y-100059306D01*
X78841879Y-99881405D01*
X79228412Y-99623132D01*
X79557132Y-99294412D01*
X79815405Y-98907879D01*
X79993306Y-98478387D01*
X80084000Y-98022440D01*
X80084000Y-97557560D01*
X79993306Y-97101613D01*
X79815405Y-96672121D01*
X79557132Y-96285588D01*
X79228412Y-95956868D01*
X78841879Y-95698595D01*
X78412387Y-95520694D01*
X77956440Y-95430000D01*
X77491560Y-95430000D01*
X77035613Y-95520694D01*
X76606121Y-95698595D01*
X76219588Y-95956868D01*
X75890868Y-96285588D01*
X75632595Y-96672121D01*
X75454694Y-97101613D01*
X75364000Y-97557560D01*
X73125000Y-97557560D01*
X73125000Y-88587290D01*
X83185000Y-88587290D01*
X83185000Y-89212710D01*
X83307014Y-89826113D01*
X83546352Y-90403926D01*
X83893817Y-90923944D01*
X84336056Y-91366183D01*
X84856074Y-91713648D01*
X85433887Y-91952986D01*
X86047290Y-92075000D01*
X86672710Y-92075000D01*
X87286113Y-91952986D01*
X87863926Y-91713648D01*
X88383944Y-91366183D01*
X88826183Y-90923944D01*
X89173648Y-90403926D01*
X89375754Y-89916000D01*
X111379001Y-89916000D01*
X111379000Y-101910345D01*
X111309880Y-101979465D01*
X111156995Y-102208273D01*
X111051686Y-102462510D01*
X110998000Y-102732408D01*
X110998000Y-103007592D01*
X111051686Y-103277490D01*
X111156995Y-103531727D01*
X111309880Y-103760535D01*
X111379000Y-103829655D01*
X111379001Y-105321970D01*
X111298577Y-105472433D01*
X111248752Y-105636684D01*
X111231928Y-105807500D01*
X111231928Y-106282500D01*
X111248752Y-106453316D01*
X111298577Y-106617567D01*
X111379488Y-106768942D01*
X111488377Y-106901623D01*
X111621058Y-107010512D01*
X111772433Y-107091423D01*
X111936684Y-107141248D01*
X112107500Y-107158072D01*
X112682500Y-107158072D01*
X112853316Y-107141248D01*
X113017567Y-107091423D01*
X113168942Y-107010512D01*
X113301623Y-106901623D01*
X113410512Y-106768942D01*
X113491423Y-106617567D01*
X113541248Y-106453316D01*
X113558072Y-106282500D01*
X113558072Y-105807500D01*
X113541248Y-105636684D01*
X113491423Y-105472433D01*
X113411000Y-105321971D01*
X113411000Y-103829655D01*
X113480120Y-103760535D01*
X113633005Y-103531727D01*
X113738314Y-103277490D01*
X113792000Y-103007592D01*
X113792000Y-102732408D01*
X113738314Y-102462510D01*
X113633005Y-102208273D01*
X113480120Y-101979465D01*
X113411000Y-101910345D01*
X113411000Y-89916000D01*
X118364000Y-89916000D01*
X118364001Y-91390089D01*
X118364000Y-91390099D01*
X118364001Y-95200089D01*
X118364000Y-95200099D01*
X118364001Y-105321969D01*
X118283577Y-105472433D01*
X118233752Y-105636684D01*
X118216928Y-105807500D01*
X118216928Y-106282500D01*
X118233752Y-106453316D01*
X118283577Y-106617567D01*
X118364488Y-106768942D01*
X118473377Y-106901623D01*
X118606058Y-107010512D01*
X118757433Y-107091423D01*
X118921684Y-107141248D01*
X119092500Y-107158072D01*
X119667500Y-107158072D01*
X119838316Y-107141248D01*
X120002567Y-107091423D01*
X120153942Y-107010512D01*
X120286623Y-106901623D01*
X120395512Y-106768942D01*
X120476423Y-106617567D01*
X120526248Y-106453316D01*
X120543072Y-106282500D01*
X120543072Y-105807500D01*
X123296928Y-105807500D01*
X123296928Y-106282500D01*
X123313752Y-106453316D01*
X123363577Y-106617567D01*
X123444488Y-106768942D01*
X123553377Y-106901623D01*
X123686058Y-107010512D01*
X123837433Y-107091423D01*
X124001684Y-107141248D01*
X124172500Y-107158072D01*
X124747500Y-107158072D01*
X124918316Y-107141248D01*
X125082567Y-107091423D01*
X125233942Y-107010512D01*
X125366623Y-106901623D01*
X125475512Y-106768942D01*
X125556423Y-106617567D01*
X125606248Y-106453316D01*
X125607313Y-106442500D01*
X149331928Y-106442500D01*
X149331928Y-106917500D01*
X149348752Y-107088316D01*
X149398577Y-107252567D01*
X149479488Y-107403942D01*
X149588377Y-107536623D01*
X149669500Y-107603199D01*
X149669501Y-109566800D01*
X149588377Y-109633377D01*
X149479488Y-109766058D01*
X149398577Y-109917433D01*
X149348752Y-110081684D01*
X149331928Y-110252500D01*
X149331928Y-110727500D01*
X149348752Y-110898316D01*
X149398577Y-111062567D01*
X149479488Y-111213942D01*
X149588377Y-111346623D01*
X149721058Y-111455512D01*
X149872433Y-111536423D01*
X150036684Y-111586248D01*
X150207500Y-111603072D01*
X150782500Y-111603072D01*
X150953316Y-111586248D01*
X151117567Y-111536423D01*
X151268942Y-111455512D01*
X151370000Y-111372575D01*
X151471058Y-111455512D01*
X151622433Y-111536423D01*
X151786684Y-111586248D01*
X151957500Y-111603072D01*
X152532500Y-111603072D01*
X152703316Y-111586248D01*
X152867567Y-111536423D01*
X153018942Y-111455512D01*
X153151623Y-111346623D01*
X153177165Y-111315500D01*
X154642835Y-111315500D01*
X154668377Y-111346623D01*
X154801058Y-111455512D01*
X154952433Y-111536423D01*
X155116684Y-111586248D01*
X155287500Y-111603072D01*
X155862500Y-111603072D01*
X156033316Y-111586248D01*
X156197567Y-111536423D01*
X156348942Y-111455512D01*
X156450000Y-111372575D01*
X156551058Y-111455512D01*
X156702433Y-111536423D01*
X156866684Y-111586248D01*
X157037500Y-111603072D01*
X157612500Y-111603072D01*
X157783316Y-111586248D01*
X157947567Y-111536423D01*
X158098942Y-111455512D01*
X158231623Y-111346623D01*
X158257165Y-111315500D01*
X163202497Y-111315500D01*
X163339744Y-111407205D01*
X163528102Y-111485226D01*
X163728061Y-111525000D01*
X163931939Y-111525000D01*
X164131898Y-111485226D01*
X164320256Y-111407205D01*
X164489774Y-111293937D01*
X164633937Y-111149774D01*
X164747205Y-110980256D01*
X164825226Y-110791898D01*
X164865000Y-110591939D01*
X164865000Y-110388061D01*
X164825226Y-110188102D01*
X164747205Y-109999744D01*
X164633937Y-109830226D01*
X164489774Y-109686063D01*
X164320256Y-109572795D01*
X164131898Y-109494774D01*
X163931939Y-109455000D01*
X163728061Y-109455000D01*
X163528102Y-109494774D01*
X163339744Y-109572795D01*
X163202497Y-109664500D01*
X158257165Y-109664500D01*
X158231623Y-109633377D01*
X158098942Y-109524488D01*
X157947567Y-109443577D01*
X157783316Y-109393752D01*
X157612500Y-109376928D01*
X157037500Y-109376928D01*
X156866684Y-109393752D01*
X156702433Y-109443577D01*
X156551058Y-109524488D01*
X156450000Y-109607425D01*
X156348942Y-109524488D01*
X156197567Y-109443577D01*
X156033316Y-109393752D01*
X155862500Y-109376928D01*
X155287500Y-109376928D01*
X155116684Y-109393752D01*
X154952433Y-109443577D01*
X154801058Y-109524488D01*
X154668377Y-109633377D01*
X154642835Y-109664500D01*
X153177165Y-109664500D01*
X153151623Y-109633377D01*
X153018942Y-109524488D01*
X152867567Y-109443577D01*
X152703316Y-109393752D01*
X152532500Y-109376928D01*
X151957500Y-109376928D01*
X151786684Y-109393752D01*
X151622433Y-109443577D01*
X151471058Y-109524488D01*
X151370000Y-109607425D01*
X151320500Y-109566801D01*
X151320500Y-107603199D01*
X151370000Y-107562575D01*
X151471058Y-107645512D01*
X151622433Y-107726423D01*
X151786684Y-107776248D01*
X151957500Y-107793072D01*
X152532500Y-107793072D01*
X152703316Y-107776248D01*
X152867567Y-107726423D01*
X153018942Y-107645512D01*
X153151623Y-107536623D01*
X153177165Y-107505500D01*
X154642835Y-107505500D01*
X154668377Y-107536623D01*
X154801058Y-107645512D01*
X154952433Y-107726423D01*
X155116684Y-107776248D01*
X155287500Y-107793072D01*
X155862500Y-107793072D01*
X156033316Y-107776248D01*
X156197567Y-107726423D01*
X156348942Y-107645512D01*
X156450000Y-107562575D01*
X156551058Y-107645512D01*
X156702433Y-107726423D01*
X156866684Y-107776248D01*
X157037500Y-107793072D01*
X157612500Y-107793072D01*
X157783316Y-107776248D01*
X157947567Y-107726423D01*
X158098942Y-107645512D01*
X158231623Y-107536623D01*
X158257165Y-107505500D01*
X161297497Y-107505500D01*
X161434744Y-107597205D01*
X161623102Y-107675226D01*
X161823061Y-107715000D01*
X162026939Y-107715000D01*
X162226898Y-107675226D01*
X162415256Y-107597205D01*
X162584774Y-107483937D01*
X162728937Y-107339774D01*
X162842205Y-107170256D01*
X162920226Y-106981898D01*
X162960000Y-106781939D01*
X162960000Y-106578061D01*
X162920226Y-106378102D01*
X162842205Y-106189744D01*
X162728937Y-106020226D01*
X162584774Y-105876063D01*
X162415256Y-105762795D01*
X162226898Y-105684774D01*
X162026939Y-105645000D01*
X161823061Y-105645000D01*
X161623102Y-105684774D01*
X161434744Y-105762795D01*
X161297497Y-105854500D01*
X158257165Y-105854500D01*
X158231623Y-105823377D01*
X158098942Y-105714488D01*
X157947567Y-105633577D01*
X157783316Y-105583752D01*
X157612500Y-105566928D01*
X157037500Y-105566928D01*
X156866684Y-105583752D01*
X156702433Y-105633577D01*
X156551058Y-105714488D01*
X156450000Y-105797425D01*
X156348942Y-105714488D01*
X156197567Y-105633577D01*
X156033316Y-105583752D01*
X155862500Y-105566928D01*
X155287500Y-105566928D01*
X155116684Y-105583752D01*
X154952433Y-105633577D01*
X154801058Y-105714488D01*
X154668377Y-105823377D01*
X154642835Y-105854500D01*
X153177165Y-105854500D01*
X153151623Y-105823377D01*
X153018942Y-105714488D01*
X152867567Y-105633577D01*
X152703316Y-105583752D01*
X152532500Y-105566928D01*
X151957500Y-105566928D01*
X151786684Y-105583752D01*
X151622433Y-105633577D01*
X151471058Y-105714488D01*
X151370000Y-105797425D01*
X151268942Y-105714488D01*
X151117567Y-105633577D01*
X150953316Y-105583752D01*
X150782500Y-105566928D01*
X150207500Y-105566928D01*
X150036684Y-105583752D01*
X149872433Y-105633577D01*
X149721058Y-105714488D01*
X149588377Y-105823377D01*
X149479488Y-105956058D01*
X149398577Y-106107433D01*
X149348752Y-106271684D01*
X149331928Y-106442500D01*
X125607313Y-106442500D01*
X125623072Y-106282500D01*
X125623072Y-105807500D01*
X125606248Y-105636684D01*
X125556423Y-105472433D01*
X125475512Y-105321058D01*
X125366623Y-105188377D01*
X125285500Y-105121801D01*
X125285500Y-102768061D01*
X128505000Y-102768061D01*
X128505000Y-102971939D01*
X128544774Y-103171898D01*
X128622795Y-103360256D01*
X128736063Y-103529774D01*
X128880226Y-103673937D01*
X129049744Y-103787205D01*
X129238102Y-103865226D01*
X129438061Y-103905000D01*
X129641939Y-103905000D01*
X129841898Y-103865226D01*
X130030256Y-103787205D01*
X130167503Y-103695500D01*
X149562835Y-103695500D01*
X149588377Y-103726623D01*
X149721058Y-103835512D01*
X149872433Y-103916423D01*
X150036684Y-103966248D01*
X150207500Y-103983072D01*
X150782500Y-103983072D01*
X150953316Y-103966248D01*
X151117567Y-103916423D01*
X151268942Y-103835512D01*
X151370000Y-103752575D01*
X151471058Y-103835512D01*
X151622433Y-103916423D01*
X151786684Y-103966248D01*
X151957500Y-103983072D01*
X152532500Y-103983072D01*
X152703316Y-103966248D01*
X152867567Y-103916423D01*
X153018942Y-103835512D01*
X153151623Y-103726623D01*
X153260512Y-103593942D01*
X153341423Y-103442567D01*
X153391248Y-103278316D01*
X153408072Y-103107500D01*
X153408072Y-102632500D01*
X154411928Y-102632500D01*
X154411928Y-103107500D01*
X154428752Y-103278316D01*
X154478577Y-103442567D01*
X154559488Y-103593942D01*
X154668377Y-103726623D01*
X154801058Y-103835512D01*
X154952433Y-103916423D01*
X155116684Y-103966248D01*
X155287500Y-103983072D01*
X155862500Y-103983072D01*
X156033316Y-103966248D01*
X156197567Y-103916423D01*
X156348942Y-103835512D01*
X156481623Y-103726623D01*
X156590512Y-103593942D01*
X156671423Y-103442567D01*
X156721248Y-103278316D01*
X156738072Y-103107500D01*
X156738072Y-102632500D01*
X156721248Y-102461684D01*
X156671423Y-102297433D01*
X156590512Y-102146058D01*
X156481623Y-102013377D01*
X156348942Y-101904488D01*
X156197567Y-101823577D01*
X156033316Y-101773752D01*
X155862500Y-101756928D01*
X155287500Y-101756928D01*
X155116684Y-101773752D01*
X154952433Y-101823577D01*
X154801058Y-101904488D01*
X154668377Y-102013377D01*
X154559488Y-102146058D01*
X154478577Y-102297433D01*
X154428752Y-102461684D01*
X154411928Y-102632500D01*
X153408072Y-102632500D01*
X153391248Y-102461684D01*
X153341423Y-102297433D01*
X153260512Y-102146058D01*
X153151623Y-102013377D01*
X153018942Y-101904488D01*
X152867567Y-101823577D01*
X152703316Y-101773752D01*
X152532500Y-101756928D01*
X151957500Y-101756928D01*
X151786684Y-101773752D01*
X151622433Y-101823577D01*
X151471058Y-101904488D01*
X151370000Y-101987425D01*
X151268942Y-101904488D01*
X151117567Y-101823577D01*
X150953316Y-101773752D01*
X150782500Y-101756928D01*
X150207500Y-101756928D01*
X150036684Y-101773752D01*
X149872433Y-101823577D01*
X149721058Y-101904488D01*
X149588377Y-102013377D01*
X149562835Y-102044500D01*
X130167503Y-102044500D01*
X130030256Y-101952795D01*
X129841898Y-101874774D01*
X129641939Y-101835000D01*
X129438061Y-101835000D01*
X129238102Y-101874774D01*
X129049744Y-101952795D01*
X128880226Y-102066063D01*
X128736063Y-102210226D01*
X128622795Y-102379744D01*
X128544774Y-102568102D01*
X128505000Y-102768061D01*
X125285500Y-102768061D01*
X125285500Y-99885500D01*
X149562835Y-99885500D01*
X149588377Y-99916623D01*
X149721058Y-100025512D01*
X149872433Y-100106423D01*
X150036684Y-100156248D01*
X150207500Y-100173072D01*
X150782500Y-100173072D01*
X150953316Y-100156248D01*
X151117567Y-100106423D01*
X151268942Y-100025512D01*
X151370000Y-99942575D01*
X151471058Y-100025512D01*
X151622433Y-100106423D01*
X151786684Y-100156248D01*
X151957500Y-100173072D01*
X152532500Y-100173072D01*
X152703316Y-100156248D01*
X152867567Y-100106423D01*
X153018942Y-100025512D01*
X153151623Y-99916623D01*
X153177165Y-99885500D01*
X154642835Y-99885500D01*
X154668377Y-99916623D01*
X154801058Y-100025512D01*
X154952433Y-100106423D01*
X155116684Y-100156248D01*
X155287500Y-100173072D01*
X155862500Y-100173072D01*
X156033316Y-100156248D01*
X156197567Y-100106423D01*
X156348942Y-100025512D01*
X156481623Y-99916623D01*
X156590512Y-99783942D01*
X156671423Y-99632567D01*
X156721248Y-99468316D01*
X156738072Y-99297500D01*
X156738072Y-98822500D01*
X156721248Y-98651684D01*
X156671423Y-98487433D01*
X156590512Y-98336058D01*
X156481623Y-98203377D01*
X156348942Y-98094488D01*
X156197567Y-98013577D01*
X156033316Y-97963752D01*
X155862500Y-97946928D01*
X155287500Y-97946928D01*
X155116684Y-97963752D01*
X154952433Y-98013577D01*
X154801058Y-98094488D01*
X154668377Y-98203377D01*
X154642835Y-98234500D01*
X153177165Y-98234500D01*
X153151623Y-98203377D01*
X153018942Y-98094488D01*
X152867567Y-98013577D01*
X152703316Y-97963752D01*
X152532500Y-97946928D01*
X151957500Y-97946928D01*
X151786684Y-97963752D01*
X151622433Y-98013577D01*
X151471058Y-98094488D01*
X151370000Y-98177425D01*
X151268942Y-98094488D01*
X151117567Y-98013577D01*
X150953316Y-97963752D01*
X150782500Y-97946928D01*
X150207500Y-97946928D01*
X150036684Y-97963752D01*
X149872433Y-98013577D01*
X149721058Y-98094488D01*
X149588377Y-98203377D01*
X149562835Y-98234500D01*
X125087503Y-98234500D01*
X124950256Y-98142795D01*
X124761898Y-98064774D01*
X124561939Y-98025000D01*
X124358061Y-98025000D01*
X124158102Y-98064774D01*
X123969744Y-98142795D01*
X123800226Y-98256063D01*
X123656063Y-98400226D01*
X123542795Y-98569744D01*
X123464774Y-98758102D01*
X123425000Y-98958061D01*
X123425000Y-99161939D01*
X123464774Y-99361898D01*
X123542795Y-99550256D01*
X123634500Y-99687503D01*
X123634501Y-105121800D01*
X123553377Y-105188377D01*
X123444488Y-105321058D01*
X123363577Y-105472433D01*
X123313752Y-105636684D01*
X123296928Y-105807500D01*
X120543072Y-105807500D01*
X120526248Y-105636684D01*
X120476423Y-105472433D01*
X120396000Y-105321971D01*
X120396000Y-96075500D01*
X149562835Y-96075500D01*
X149588377Y-96106623D01*
X149721058Y-96215512D01*
X149872433Y-96296423D01*
X150036684Y-96346248D01*
X150207500Y-96363072D01*
X150782500Y-96363072D01*
X150953316Y-96346248D01*
X151117567Y-96296423D01*
X151268942Y-96215512D01*
X151370000Y-96132575D01*
X151471058Y-96215512D01*
X151622433Y-96296423D01*
X151786684Y-96346248D01*
X151957500Y-96363072D01*
X152532500Y-96363072D01*
X152703316Y-96346248D01*
X152867567Y-96296423D01*
X153018942Y-96215512D01*
X153151623Y-96106623D01*
X153177165Y-96075500D01*
X154642835Y-96075500D01*
X154668377Y-96106623D01*
X154801058Y-96215512D01*
X154952433Y-96296423D01*
X155116684Y-96346248D01*
X155287500Y-96363072D01*
X155862500Y-96363072D01*
X156033316Y-96346248D01*
X156197567Y-96296423D01*
X156348942Y-96215512D01*
X156481623Y-96106623D01*
X156590512Y-95973942D01*
X156671423Y-95822567D01*
X156721248Y-95658316D01*
X156738072Y-95487500D01*
X156738072Y-95012500D01*
X156721248Y-94841684D01*
X156671423Y-94677433D01*
X156590512Y-94526058D01*
X156481623Y-94393377D01*
X156348942Y-94284488D01*
X156197567Y-94203577D01*
X156033316Y-94153752D01*
X155862500Y-94136928D01*
X155287500Y-94136928D01*
X155116684Y-94153752D01*
X154952433Y-94203577D01*
X154801058Y-94284488D01*
X154668377Y-94393377D01*
X154642835Y-94424500D01*
X153177165Y-94424500D01*
X153151623Y-94393377D01*
X153018942Y-94284488D01*
X152867567Y-94203577D01*
X152703316Y-94153752D01*
X152532500Y-94136928D01*
X151957500Y-94136928D01*
X151786684Y-94153752D01*
X151622433Y-94203577D01*
X151471058Y-94284488D01*
X151370000Y-94367425D01*
X151268942Y-94284488D01*
X151117567Y-94203577D01*
X150953316Y-94153752D01*
X150782500Y-94136928D01*
X150207500Y-94136928D01*
X150036684Y-94153752D01*
X149872433Y-94203577D01*
X149721058Y-94284488D01*
X149588377Y-94393377D01*
X149562835Y-94424500D01*
X120396000Y-94424500D01*
X120396000Y-89859655D01*
X120465120Y-89790535D01*
X120618005Y-89561727D01*
X120723314Y-89307490D01*
X120777000Y-89037592D01*
X120777000Y-88762408D01*
X123063000Y-88762408D01*
X123063000Y-89037592D01*
X123116686Y-89307490D01*
X123221995Y-89561727D01*
X123374880Y-89790535D01*
X123569465Y-89985120D01*
X123798273Y-90138005D01*
X124052510Y-90243314D01*
X124322408Y-90297000D01*
X124597592Y-90297000D01*
X124867490Y-90243314D01*
X125121727Y-90138005D01*
X125350535Y-89985120D01*
X125545120Y-89790535D01*
X125698005Y-89561727D01*
X125803314Y-89307490D01*
X125857000Y-89037592D01*
X125857000Y-88762408D01*
X125803314Y-88492510D01*
X125698005Y-88238273D01*
X125545120Y-88009465D01*
X125350535Y-87814880D01*
X125121727Y-87661995D01*
X124867490Y-87556686D01*
X124597592Y-87503000D01*
X124322408Y-87503000D01*
X124052510Y-87556686D01*
X123798273Y-87661995D01*
X123569465Y-87814880D01*
X123374880Y-88009465D01*
X123221995Y-88238273D01*
X123116686Y-88492510D01*
X123063000Y-88762408D01*
X120777000Y-88762408D01*
X120723314Y-88492510D01*
X120618005Y-88238273D01*
X120465120Y-88009465D01*
X120270535Y-87814880D01*
X120041727Y-87661995D01*
X119787490Y-87556686D01*
X119517592Y-87503000D01*
X119242408Y-87503000D01*
X118972510Y-87556686D01*
X118718273Y-87661995D01*
X118489465Y-87814880D01*
X118420345Y-87884000D01*
X112444902Y-87884000D01*
X112395000Y-87879085D01*
X112345098Y-87884000D01*
X89375754Y-87884000D01*
X89173648Y-87396074D01*
X88826183Y-86876056D01*
X88383944Y-86433817D01*
X87863926Y-86086352D01*
X87286113Y-85847014D01*
X86672710Y-85725000D01*
X86047290Y-85725000D01*
X85433887Y-85847014D01*
X84856074Y-86086352D01*
X84336056Y-86433817D01*
X83893817Y-86876056D01*
X83546352Y-87396074D01*
X83307014Y-87973887D01*
X83185000Y-88587290D01*
X73125000Y-88587290D01*
X73125000Y-85623061D01*
X106280000Y-85623061D01*
X106280000Y-85826939D01*
X106319774Y-86026898D01*
X106397795Y-86215256D01*
X106511063Y-86384774D01*
X106655226Y-86528937D01*
X106824744Y-86642205D01*
X107013102Y-86720226D01*
X107213061Y-86760000D01*
X107416939Y-86760000D01*
X107512459Y-86741000D01*
X122992541Y-86741000D01*
X123088061Y-86760000D01*
X123291939Y-86760000D01*
X123491898Y-86720226D01*
X123680256Y-86642205D01*
X123849774Y-86528937D01*
X123993937Y-86384774D01*
X124107205Y-86215256D01*
X124185226Y-86026898D01*
X124225000Y-85826939D01*
X124225000Y-85623061D01*
X124185226Y-85423102D01*
X124107205Y-85234744D01*
X123993937Y-85065226D01*
X123849774Y-84921063D01*
X123680256Y-84807795D01*
X123491898Y-84729774D01*
X123291939Y-84690000D01*
X123088061Y-84690000D01*
X122992541Y-84709000D01*
X107512459Y-84709000D01*
X107416939Y-84690000D01*
X107213061Y-84690000D01*
X107013102Y-84729774D01*
X106824744Y-84807795D01*
X106655226Y-84921063D01*
X106511063Y-85065226D01*
X106397795Y-85234744D01*
X106319774Y-85423102D01*
X106280000Y-85623061D01*
X73125000Y-85623061D01*
X73125000Y-77940000D01*
X105876928Y-77940000D01*
X105876928Y-79540000D01*
X105889188Y-79664482D01*
X105925498Y-79784180D01*
X105984463Y-79894494D01*
X106063815Y-79991185D01*
X106160506Y-80070537D01*
X106270820Y-80129502D01*
X106390518Y-80165812D01*
X106515000Y-80178072D01*
X108115000Y-80178072D01*
X108239482Y-80165812D01*
X108359180Y-80129502D01*
X108469494Y-80070537D01*
X108566185Y-79991185D01*
X108645537Y-79894494D01*
X108704502Y-79784180D01*
X108740812Y-79664482D01*
X108753072Y-79540000D01*
X108753072Y-77940000D01*
X108740812Y-77815518D01*
X108704502Y-77695820D01*
X108645537Y-77585506D01*
X108586625Y-77513721D01*
X116185000Y-77513721D01*
X116185000Y-77934279D01*
X116267047Y-78346756D01*
X116427988Y-78735302D01*
X116661637Y-79084983D01*
X116959017Y-79382363D01*
X117308698Y-79616012D01*
X117697244Y-79776953D01*
X118109721Y-79859000D01*
X118530279Y-79859000D01*
X118942756Y-79776953D01*
X119331302Y-79616012D01*
X119680983Y-79382363D01*
X119978363Y-79084983D01*
X120212012Y-78735302D01*
X120372953Y-78346756D01*
X120455000Y-77934279D01*
X120455000Y-77513721D01*
X120372953Y-77101244D01*
X120212012Y-76712698D01*
X119978363Y-76363017D01*
X119680983Y-76065637D01*
X119331302Y-75831988D01*
X118942756Y-75671047D01*
X118530279Y-75589000D01*
X118109721Y-75589000D01*
X117697244Y-75671047D01*
X117308698Y-75831988D01*
X116959017Y-76065637D01*
X116661637Y-76363017D01*
X116427988Y-76712698D01*
X116267047Y-77101244D01*
X116185000Y-77513721D01*
X108586625Y-77513721D01*
X108566185Y-77488815D01*
X108469494Y-77409463D01*
X108359180Y-77350498D01*
X108239482Y-77314188D01*
X108115000Y-77301928D01*
X106515000Y-77301928D01*
X106390518Y-77314188D01*
X106270820Y-77350498D01*
X106160506Y-77409463D01*
X106063815Y-77488815D01*
X105984463Y-77585506D01*
X105925498Y-77695820D01*
X105889188Y-77815518D01*
X105876928Y-77940000D01*
X73125000Y-77940000D01*
X73125000Y-76489946D01*
X73153158Y-76202764D01*
X73226123Y-75961093D01*
X73344637Y-75738201D01*
X73504187Y-75542573D01*
X73698699Y-75381660D01*
X73920756Y-75261593D01*
X74161912Y-75186944D01*
X74446811Y-75157000D01*
X122458168Y-75157000D01*
X122243368Y-75300525D01*
X122243368Y-75300525D01*
G37*
X122243368Y-75300525D02*
X122036525Y-75507368D01*
X121874010Y-75750589D01*
X121762068Y-76020842D01*
X121705000Y-76307740D01*
X121705000Y-76600260D01*
X121762068Y-76887158D01*
X121874010Y-77157411D01*
X122036525Y-77400632D01*
X122243368Y-77607475D01*
X122417760Y-77724000D01*
X122243368Y-77840525D01*
X122036525Y-78047368D01*
X121874010Y-78290589D01*
X121762068Y-78560842D01*
X121705000Y-78847740D01*
X121705000Y-79140260D01*
X121762068Y-79427158D01*
X121874010Y-79697411D01*
X122036525Y-79940632D01*
X122243368Y-80147475D01*
X122486589Y-80309990D01*
X122756842Y-80421932D01*
X123043740Y-80479000D01*
X123336260Y-80479000D01*
X123623158Y-80421932D01*
X123893411Y-80309990D01*
X124136632Y-80147475D01*
X124343475Y-79940632D01*
X124460000Y-79766240D01*
X124576525Y-79940632D01*
X124783368Y-80147475D01*
X124904500Y-80228413D01*
X124904500Y-81089500D01*
X95369503Y-81089500D01*
X95232256Y-80997795D01*
X95043898Y-80919774D01*
X94843939Y-80880000D01*
X94640061Y-80880000D01*
X94440102Y-80919774D01*
X94251744Y-80997795D01*
X94082226Y-81111063D01*
X93938063Y-81255226D01*
X93824795Y-81424744D01*
X93746774Y-81613102D01*
X93707000Y-81813061D01*
X93707000Y-82016939D01*
X93746774Y-82216898D01*
X93824795Y-82405256D01*
X93938063Y-82574774D01*
X94082226Y-82718937D01*
X94251744Y-82832205D01*
X94440102Y-82910226D01*
X94640061Y-82950000D01*
X94843939Y-82950000D01*
X95043898Y-82910226D01*
X95232256Y-82832205D01*
X95369503Y-82740500D01*
X96218842Y-82740500D01*
X96159774Y-82883102D01*
X96120000Y-83083061D01*
X96120000Y-83286939D01*
X96159774Y-83486898D01*
X96237795Y-83675256D01*
X96351063Y-83844774D01*
X96495226Y-83988937D01*
X96664744Y-84102205D01*
X96853102Y-84180226D01*
X97053061Y-84220000D01*
X97256939Y-84220000D01*
X97456898Y-84180226D01*
X97645256Y-84102205D01*
X97782503Y-84010500D01*
X127642497Y-84010500D01*
X127779744Y-84102205D01*
X127968102Y-84180226D01*
X128168061Y-84220000D01*
X128371939Y-84220000D01*
X128571898Y-84180226D01*
X128760256Y-84102205D01*
X128897503Y-84010500D01*
X161297497Y-84010500D01*
X161434744Y-84102205D01*
X161623102Y-84180226D01*
X161823061Y-84220000D01*
X162026939Y-84220000D01*
X162226898Y-84180226D01*
X162415256Y-84102205D01*
X162584774Y-83988937D01*
X162728937Y-83844774D01*
X162842205Y-83675256D01*
X162920226Y-83486898D01*
X162960000Y-83286939D01*
X162960000Y-83083061D01*
X162920226Y-82883102D01*
X162861158Y-82740500D01*
X163202497Y-82740500D01*
X163339744Y-82832205D01*
X163528102Y-82910226D01*
X163728061Y-82950000D01*
X163931939Y-82950000D01*
X164131898Y-82910226D01*
X164320256Y-82832205D01*
X164489774Y-82718937D01*
X164633937Y-82574774D01*
X164747205Y-82405256D01*
X164825226Y-82216898D01*
X164865000Y-82016939D01*
X164865000Y-81813061D01*
X164825226Y-81613102D01*
X164747205Y-81424744D01*
X164633937Y-81255226D01*
X164489774Y-81111063D01*
X164320256Y-80997795D01*
X164131898Y-80919774D01*
X163931939Y-80880000D01*
X163728061Y-80880000D01*
X163528102Y-80919774D01*
X163339744Y-80997795D01*
X163202497Y-81089500D01*
X126555500Y-81089500D01*
X126555500Y-80228413D01*
X126676632Y-80147475D01*
X126883475Y-79940632D01*
X127000000Y-79766240D01*
X127116525Y-79940632D01*
X127323368Y-80147475D01*
X127566589Y-80309990D01*
X127836842Y-80421932D01*
X128123740Y-80479000D01*
X128416260Y-80479000D01*
X128703158Y-80421932D01*
X128973411Y-80309990D01*
X129216632Y-80147475D01*
X129423475Y-79940632D01*
X129540000Y-79766240D01*
X129656525Y-79940632D01*
X129863368Y-80147475D01*
X130106589Y-80309990D01*
X130376842Y-80421932D01*
X130663740Y-80479000D01*
X130956260Y-80479000D01*
X131243158Y-80421932D01*
X131513411Y-80309990D01*
X131756632Y-80147475D01*
X131963475Y-79940632D01*
X132125990Y-79697411D01*
X132237932Y-79427158D01*
X132295000Y-79140260D01*
X132295000Y-78847740D01*
X132237932Y-78560842D01*
X132125990Y-78290589D01*
X131963475Y-78047368D01*
X131756632Y-77840525D01*
X131582240Y-77724000D01*
X131756632Y-77607475D01*
X131963475Y-77400632D01*
X132080000Y-77226240D01*
X132196525Y-77400632D01*
X132403368Y-77607475D01*
X132646589Y-77769990D01*
X132916842Y-77881932D01*
X133203740Y-77939000D01*
X133496260Y-77939000D01*
X133783158Y-77881932D01*
X134053411Y-77769990D01*
X134296632Y-77607475D01*
X134503475Y-77400632D01*
X134620000Y-77226240D01*
X134736525Y-77400632D01*
X134943368Y-77607475D01*
X135117760Y-77724000D01*
X134943368Y-77840525D01*
X134736525Y-78047368D01*
X134574010Y-78290589D01*
X134462068Y-78560842D01*
X134405000Y-78847740D01*
X134405000Y-79140260D01*
X134462068Y-79427158D01*
X134574010Y-79697411D01*
X134736525Y-79940632D01*
X134943368Y-80147475D01*
X135186589Y-80309990D01*
X135456842Y-80421932D01*
X135743740Y-80479000D01*
X136036260Y-80479000D01*
X136323158Y-80421932D01*
X136593411Y-80309990D01*
X136836632Y-80147475D01*
X137043475Y-79940632D01*
X137160000Y-79766240D01*
X137276525Y-79940632D01*
X137483368Y-80147475D01*
X137726589Y-80309990D01*
X137996842Y-80421932D01*
X138283740Y-80479000D01*
X138576260Y-80479000D01*
X138863158Y-80421932D01*
X139133411Y-80309990D01*
X139376632Y-80147475D01*
X139583475Y-79940632D01*
X139700000Y-79766240D01*
X139816525Y-79940632D01*
X140023368Y-80147475D01*
X140266589Y-80309990D01*
X140536842Y-80421932D01*
X140823740Y-80479000D01*
X141116260Y-80479000D01*
X141403158Y-80421932D01*
X141673411Y-80309990D01*
X141916632Y-80147475D01*
X142123475Y-79940632D01*
X142240000Y-79766240D01*
X142356525Y-79940632D01*
X142563368Y-80147475D01*
X142806589Y-80309990D01*
X143076842Y-80421932D01*
X143363740Y-80479000D01*
X143656260Y-80479000D01*
X143943158Y-80421932D01*
X144213411Y-80309990D01*
X144456632Y-80147475D01*
X144663475Y-79940632D01*
X144780000Y-79766240D01*
X144896525Y-79940632D01*
X145103368Y-80147475D01*
X145346589Y-80309990D01*
X145616842Y-80421932D01*
X145903740Y-80479000D01*
X146196260Y-80479000D01*
X146483158Y-80421932D01*
X146753411Y-80309990D01*
X146996632Y-80147475D01*
X147203475Y-79940632D01*
X147320000Y-79766240D01*
X147436525Y-79940632D01*
X147643368Y-80147475D01*
X147886589Y-80309990D01*
X148156842Y-80421932D01*
X148443740Y-80479000D01*
X148736260Y-80479000D01*
X149023158Y-80421932D01*
X149293411Y-80309990D01*
X149536632Y-80147475D01*
X149743475Y-79940632D01*
X149860000Y-79766240D01*
X149976525Y-79940632D01*
X150183368Y-80147475D01*
X150426589Y-80309990D01*
X150696842Y-80421932D01*
X150983740Y-80479000D01*
X151276260Y-80479000D01*
X151563158Y-80421932D01*
X151833411Y-80309990D01*
X152076632Y-80147475D01*
X152283475Y-79940632D01*
X152445990Y-79697411D01*
X152557932Y-79427158D01*
X152615000Y-79140260D01*
X152615000Y-78847740D01*
X152557932Y-78560842D01*
X152445990Y-78290589D01*
X152283475Y-78047368D01*
X152076632Y-77840525D01*
X151902240Y-77724000D01*
X152076632Y-77607475D01*
X152283475Y-77400632D01*
X152400000Y-77226240D01*
X152516525Y-77400632D01*
X152723368Y-77607475D01*
X152966589Y-77769990D01*
X153236842Y-77881932D01*
X153523740Y-77939000D01*
X153816260Y-77939000D01*
X154103158Y-77881932D01*
X154373411Y-77769990D01*
X154616632Y-77607475D01*
X154823475Y-77400632D01*
X154940000Y-77226240D01*
X155056525Y-77400632D01*
X155263368Y-77607475D01*
X155437760Y-77724000D01*
X155263368Y-77840525D01*
X155056525Y-78047368D01*
X154894010Y-78290589D01*
X154782068Y-78560842D01*
X154725000Y-78847740D01*
X154725000Y-79140260D01*
X154782068Y-79427158D01*
X154894010Y-79697411D01*
X155056525Y-79940632D01*
X155263368Y-80147475D01*
X155506589Y-80309990D01*
X155776842Y-80421932D01*
X156063740Y-80479000D01*
X156356260Y-80479000D01*
X156643158Y-80421932D01*
X156913411Y-80309990D01*
X157156632Y-80147475D01*
X157363475Y-79940632D01*
X157480000Y-79766240D01*
X157596525Y-79940632D01*
X157803368Y-80147475D01*
X158046589Y-80309990D01*
X158316842Y-80421932D01*
X158603740Y-80479000D01*
X158896260Y-80479000D01*
X159183158Y-80421932D01*
X159453411Y-80309990D01*
X159696632Y-80147475D01*
X159903475Y-79940632D01*
X160020000Y-79766240D01*
X160136525Y-79940632D01*
X160343368Y-80147475D01*
X160586589Y-80309990D01*
X160856842Y-80421932D01*
X161143740Y-80479000D01*
X161436260Y-80479000D01*
X161723158Y-80421932D01*
X161993411Y-80309990D01*
X162236632Y-80147475D01*
X162443475Y-79940632D01*
X162560000Y-79766240D01*
X162676525Y-79940632D01*
X162883368Y-80147475D01*
X163126589Y-80309990D01*
X163396842Y-80421932D01*
X163683740Y-80479000D01*
X163976260Y-80479000D01*
X164263158Y-80421932D01*
X164533411Y-80309990D01*
X164776632Y-80147475D01*
X164983475Y-79940632D01*
X165100000Y-79766240D01*
X165216525Y-79940632D01*
X165423368Y-80147475D01*
X165666589Y-80309990D01*
X165936842Y-80421932D01*
X166223740Y-80479000D01*
X166516260Y-80479000D01*
X166803158Y-80421932D01*
X167073411Y-80309990D01*
X167316632Y-80147475D01*
X167523475Y-79940632D01*
X167640000Y-79766240D01*
X167756525Y-79940632D01*
X167963368Y-80147475D01*
X168206589Y-80309990D01*
X168476842Y-80421932D01*
X168763740Y-80479000D01*
X169056260Y-80479000D01*
X169343158Y-80421932D01*
X169613411Y-80309990D01*
X169856632Y-80147475D01*
X170063475Y-79940632D01*
X170225990Y-79697411D01*
X170337932Y-79427158D01*
X170395000Y-79140260D01*
X170395000Y-78847740D01*
X170337932Y-78560842D01*
X170225990Y-78290589D01*
X170063475Y-78047368D01*
X169856632Y-77840525D01*
X169682240Y-77724000D01*
X169856632Y-77607475D01*
X170063475Y-77400632D01*
X170180000Y-77226240D01*
X170296525Y-77400632D01*
X170503368Y-77607475D01*
X170746589Y-77769990D01*
X171016842Y-77881932D01*
X171303740Y-77939000D01*
X171596260Y-77939000D01*
X171883158Y-77881932D01*
X172153411Y-77769990D01*
X172396632Y-77607475D01*
X172603475Y-77400632D01*
X172765990Y-77157411D01*
X172877932Y-76887158D01*
X172935000Y-76600260D01*
X172935000Y-76307740D01*
X172877932Y-76020842D01*
X172765990Y-75750589D01*
X172603475Y-75507368D01*
X172396632Y-75300525D01*
X172181832Y-75157000D01*
X177002054Y-75157000D01*
X177289236Y-75185158D01*
X177530907Y-75258123D01*
X177753799Y-75376637D01*
X177949427Y-75536187D01*
X178110340Y-75730699D01*
X178230407Y-75952756D01*
X178305056Y-76193912D01*
X178335000Y-76478811D01*
X178335000Y-77009617D01*
X178212012Y-76712698D01*
X177978363Y-76363017D01*
X177680983Y-76065637D01*
X177331302Y-75831988D01*
X176942756Y-75671047D01*
X176530279Y-75589000D01*
X176109721Y-75589000D01*
X175697244Y-75671047D01*
X175308698Y-75831988D01*
X174959017Y-76065637D01*
X174661637Y-76363017D01*
X174427988Y-76712698D01*
X174267047Y-77101244D01*
X174185000Y-77513721D01*
X174185000Y-77934279D01*
X174267047Y-78346756D01*
X174427988Y-78735302D01*
X174661637Y-79084983D01*
X174959017Y-79382363D01*
X175308698Y-79616012D01*
X175697244Y-79776953D01*
X176109721Y-79859000D01*
X176530279Y-79859000D01*
X176942756Y-79776953D01*
X177331302Y-79616012D01*
X177680983Y-79382363D01*
X177978363Y-79084983D01*
X178212012Y-78735302D01*
X178335000Y-78438383D01*
X178335001Y-126009620D01*
X178212012Y-125712698D01*
X177978363Y-125363017D01*
X177680983Y-125065637D01*
X177331302Y-124831988D01*
X176942756Y-124671047D01*
X176530279Y-124589000D01*
X176109721Y-124589000D01*
X175697244Y-124671047D01*
X175308698Y-124831988D01*
X174959017Y-125065637D01*
X174661637Y-125363017D01*
X174427988Y-125712698D01*
X174267047Y-126101244D01*
X174185000Y-126513721D01*
X174185000Y-126934279D01*
X174267047Y-127346756D01*
X174427988Y-127735302D01*
X174661637Y-128084983D01*
X174959017Y-128382363D01*
X175308698Y-128616012D01*
X175697244Y-128776953D01*
X176109721Y-128859000D01*
X176530279Y-128859000D01*
X176942756Y-128776953D01*
X177331302Y-128616012D01*
X177680983Y-128382363D01*
X177978363Y-128084983D01*
X178212012Y-127735302D01*
X178335001Y-127438380D01*
X178335001Y-128741885D01*
X178331444Y-128778000D01*
X178345635Y-128922085D01*
X178387663Y-129060633D01*
X178455913Y-129188320D01*
X178547762Y-129300238D01*
X178659680Y-129392087D01*
X178787367Y-129460337D01*
X178925915Y-129502365D01*
X179033895Y-129513000D01*
X179070000Y-129516556D01*
X179106105Y-129513000D01*
X194782054Y-129513000D01*
X195069236Y-129541158D01*
X195310907Y-129614123D01*
X195533799Y-129732637D01*
X195729427Y-129892187D01*
X195890340Y-130086699D01*
X196010407Y-130308756D01*
X196085056Y-130549912D01*
X196115000Y-130834811D01*
X196115001Y-138311134D01*
X195845223Y-138394644D01*
X195783779Y-138420473D01*
X195722045Y-138445415D01*
X195712989Y-138450230D01*
X195712985Y-138450232D01*
X195712984Y-138450233D01*
X195364135Y-138638855D01*
X195308892Y-138676117D01*
X195253167Y-138712582D01*
X195245217Y-138719066D01*
X195245213Y-138719069D01*
X195245209Y-138719073D01*
X194939646Y-138971855D01*
X194892668Y-139019162D01*
X194845110Y-139065734D01*
X194838568Y-139073641D01*
X194587920Y-139380967D01*
X194551042Y-139436472D01*
X194513419Y-139491419D01*
X194508537Y-139500446D01*
X194322356Y-139850603D01*
X194296953Y-139912235D01*
X194270727Y-139973424D01*
X194267692Y-139983227D01*
X194153069Y-140362878D01*
X194140127Y-140428238D01*
X194126280Y-140493386D01*
X194125207Y-140503592D01*
X194086508Y-140898277D01*
X194086508Y-140930396D01*
X194083040Y-140962328D01*
X194083005Y-140972591D01*
X194083055Y-140986776D01*
X194086299Y-141018704D01*
X194086075Y-141050800D01*
X194087076Y-141061013D01*
X194128529Y-141455417D01*
X194141932Y-141520711D01*
X194154408Y-141586111D01*
X194157373Y-141595935D01*
X194274644Y-141974778D01*
X194300483Y-142036246D01*
X194325415Y-142097955D01*
X194330233Y-142107017D01*
X194518855Y-142455865D01*
X194556117Y-142511108D01*
X194592582Y-142566833D01*
X194599068Y-142574786D01*
X194851855Y-142880354D01*
X194899130Y-142927299D01*
X194945735Y-142974891D01*
X194953642Y-142981432D01*
X195260967Y-143232081D01*
X195316491Y-143268971D01*
X195371419Y-143306581D01*
X195380443Y-143311461D01*
X195380451Y-143311465D01*
X195730603Y-143497644D01*
X195792207Y-143523035D01*
X195853424Y-143549273D01*
X195863227Y-143552308D01*
X196115000Y-143628323D01*
X196115001Y-151602043D01*
X196086842Y-151889236D01*
X196013878Y-152130903D01*
X195895363Y-152353798D01*
X195735813Y-152549427D01*
X195541300Y-152710341D01*
X195319244Y-152830407D01*
X195078090Y-152905056D01*
X194793189Y-152935000D01*
X74457946Y-152935000D01*
X74170764Y-152906842D01*
X73929097Y-152833878D01*
X73706202Y-152715363D01*
X73510573Y-152555813D01*
X73349659Y-152361300D01*
X73229593Y-152139244D01*
X73154944Y-151898090D01*
X73125000Y-151613189D01*
X73125000Y-143628866D01*
X73394778Y-143545356D01*
X73456246Y-143519517D01*
X73517955Y-143494585D01*
X73527012Y-143489770D01*
X73527016Y-143489768D01*
X73527019Y-143489766D01*
X73875865Y-143301145D01*
X73931108Y-143263883D01*
X73986833Y-143227418D01*
X73994786Y-143220932D01*
X74300354Y-142968145D01*
X74347299Y-142920870D01*
X74394891Y-142874265D01*
X74401432Y-142866358D01*
X74652081Y-142559033D01*
X74688971Y-142503509D01*
X74726581Y-142448581D01*
X74731462Y-142439554D01*
X74917644Y-142089397D01*
X74943035Y-142027793D01*
X74969273Y-141966576D01*
X74972308Y-141956773D01*
X75086931Y-141577122D01*
X75099874Y-141511754D01*
X75113720Y-141446613D01*
X75114793Y-141436407D01*
X75153492Y-141041723D01*
X75153492Y-141009604D01*
X75156960Y-140977672D01*
X75156995Y-140967409D01*
X75156945Y-140953223D01*
X75153701Y-140921295D01*
X75153925Y-140889199D01*
X75152924Y-140878986D01*
X75111471Y-140484583D01*
X75098073Y-140419313D01*
X75085593Y-140353890D01*
X75082627Y-140344065D01*
X74965356Y-139965223D01*
X74939527Y-139903779D01*
X74914585Y-139842045D01*
X74909767Y-139832984D01*
X74721145Y-139484135D01*
X74683883Y-139428892D01*
X74647418Y-139373167D01*
X74640932Y-139365215D01*
X74640931Y-139365213D01*
X74640927Y-139365209D01*
X74388145Y-139059646D01*
X74340838Y-139012668D01*
X74294266Y-138965110D01*
X74286359Y-138958568D01*
X73979033Y-138707920D01*
X73923528Y-138671042D01*
X73868581Y-138633419D01*
X73859554Y-138628537D01*
X73509397Y-138442356D01*
X73447765Y-138416953D01*
X73386576Y-138390727D01*
X73376777Y-138387693D01*
X73376771Y-138387691D01*
X73125000Y-138311678D01*
X73125000Y-126513721D01*
X116185000Y-126513721D01*
X116185000Y-126934279D01*
X116267047Y-127346756D01*
X116427988Y-127735302D01*
X116661637Y-128084983D01*
X116959017Y-128382363D01*
X117308698Y-128616012D01*
X117697244Y-128776953D01*
X118109721Y-128859000D01*
X118530279Y-128859000D01*
X118942756Y-128776953D01*
X119331302Y-128616012D01*
X119680983Y-128382363D01*
X119978363Y-128084983D01*
X120212012Y-127735302D01*
X120372953Y-127346756D01*
X120455000Y-126934279D01*
X120455000Y-126513721D01*
X120372953Y-126101244D01*
X120212012Y-125712698D01*
X119978363Y-125363017D01*
X119680983Y-125065637D01*
X119331302Y-124831988D01*
X118942756Y-124671047D01*
X118530279Y-124589000D01*
X118109721Y-124589000D01*
X117697244Y-124671047D01*
X117308698Y-124831988D01*
X116959017Y-125065637D01*
X116661637Y-125363017D01*
X116427988Y-125712698D01*
X116267047Y-126101244D01*
X116185000Y-126513721D01*
X73125000Y-126513721D01*
X73125000Y-121687560D01*
X75364000Y-121687560D01*
X75364000Y-122152440D01*
X75454694Y-122608387D01*
X75632595Y-123037879D01*
X75890868Y-123424412D01*
X76219588Y-123753132D01*
X76606121Y-124011405D01*
X77035613Y-124189306D01*
X77491560Y-124280000D01*
X77956440Y-124280000D01*
X78412387Y-124189306D01*
X78841879Y-124011405D01*
X79228412Y-123753132D01*
X79557132Y-123424412D01*
X79815405Y-123037879D01*
X79993306Y-122608387D01*
X80084000Y-122152440D01*
X80084000Y-121687560D01*
X79993306Y-121231613D01*
X79815405Y-120802121D01*
X79557132Y-120415588D01*
X79228412Y-120086868D01*
X78841879Y-119828595D01*
X78412387Y-119650694D01*
X77956440Y-119560000D01*
X77491560Y-119560000D01*
X77035613Y-119650694D01*
X76606121Y-119828595D01*
X76219588Y-120086868D01*
X75890868Y-120415588D01*
X75632595Y-120802121D01*
X75454694Y-121231613D01*
X75364000Y-121687560D01*
X73125000Y-121687560D01*
X73125000Y-117972408D01*
X84963000Y-117972408D01*
X84963000Y-118247592D01*
X85016686Y-118517490D01*
X85121995Y-118771727D01*
X85274880Y-119000535D01*
X85469465Y-119195120D01*
X85698273Y-119348005D01*
X85775515Y-119380000D01*
X85698273Y-119411995D01*
X85469465Y-119564880D01*
X85274880Y-119759465D01*
X85121995Y-119988273D01*
X85016686Y-120242510D01*
X84963000Y-120512408D01*
X84963000Y-120787592D01*
X85016686Y-121057490D01*
X85121995Y-121311727D01*
X85274880Y-121540535D01*
X85469465Y-121735120D01*
X85698273Y-121888005D01*
X85952510Y-121993314D01*
X86222408Y-122047000D01*
X86497592Y-122047000D01*
X86767490Y-121993314D01*
X87021727Y-121888005D01*
X87250535Y-121735120D01*
X87445120Y-121540535D01*
X87488575Y-121475500D01*
X131452497Y-121475500D01*
X131589744Y-121567205D01*
X131778102Y-121645226D01*
X131978061Y-121685000D01*
X132181939Y-121685000D01*
X132381898Y-121645226D01*
X132570256Y-121567205D01*
X132739774Y-121453937D01*
X132883937Y-121309774D01*
X132997205Y-121140256D01*
X133075226Y-120951898D01*
X133115000Y-120751939D01*
X133115000Y-120548061D01*
X133075226Y-120348102D01*
X132997205Y-120159744D01*
X132883937Y-119990226D01*
X132739774Y-119846063D01*
X132570256Y-119732795D01*
X132381898Y-119654774D01*
X132181939Y-119615000D01*
X131978061Y-119615000D01*
X131778102Y-119654774D01*
X131589744Y-119732795D01*
X131452497Y-119824500D01*
X87488575Y-119824500D01*
X87445120Y-119759465D01*
X87250535Y-119564880D01*
X87021727Y-119411995D01*
X86944485Y-119380000D01*
X87021727Y-119348005D01*
X87250535Y-119195120D01*
X87445120Y-119000535D01*
X87508286Y-118906001D01*
X134021996Y-118906001D01*
X134159243Y-118997706D01*
X134347601Y-119075727D01*
X134547560Y-119115501D01*
X134751438Y-119115501D01*
X134951397Y-119075727D01*
X135139755Y-118997706D01*
X135309273Y-118884438D01*
X135453436Y-118740275D01*
X135566704Y-118570757D01*
X135644725Y-118382399D01*
X135684499Y-118182440D01*
X135684499Y-118008061D01*
X136125000Y-118008061D01*
X136125000Y-118211939D01*
X136164774Y-118411898D01*
X136242795Y-118600256D01*
X136356063Y-118769774D01*
X136500226Y-118913937D01*
X136669744Y-119027205D01*
X136858102Y-119105226D01*
X137058061Y-119145000D01*
X137261939Y-119145000D01*
X137461898Y-119105226D01*
X137650256Y-119027205D01*
X137787503Y-118935500D01*
X149717835Y-118935500D01*
X149743377Y-118966623D01*
X149876058Y-119075512D01*
X150027433Y-119156423D01*
X150191684Y-119206248D01*
X150362500Y-119223072D01*
X150937500Y-119223072D01*
X151108316Y-119206248D01*
X151272567Y-119156423D01*
X151423942Y-119075512D01*
X151525000Y-118992575D01*
X151626058Y-119075512D01*
X151777433Y-119156423D01*
X151941684Y-119206248D01*
X152112500Y-119223072D01*
X152687500Y-119223072D01*
X152858316Y-119206248D01*
X153022567Y-119156423D01*
X153173942Y-119075512D01*
X153306623Y-118966623D01*
X153332165Y-118935500D01*
X154642835Y-118935500D01*
X154668377Y-118966623D01*
X154801058Y-119075512D01*
X154952433Y-119156423D01*
X155116684Y-119206248D01*
X155287500Y-119223072D01*
X155862500Y-119223072D01*
X156033316Y-119206248D01*
X156197567Y-119156423D01*
X156348942Y-119075512D01*
X156481623Y-118966623D01*
X156590512Y-118833942D01*
X156671423Y-118682567D01*
X156721248Y-118518316D01*
X156738072Y-118347500D01*
X156738072Y-117872500D01*
X156721248Y-117701684D01*
X156671423Y-117537433D01*
X156590512Y-117386058D01*
X156481623Y-117253377D01*
X156348942Y-117144488D01*
X156197567Y-117063577D01*
X156033316Y-117013752D01*
X155862500Y-116996928D01*
X155287500Y-116996928D01*
X155116684Y-117013752D01*
X154952433Y-117063577D01*
X154801058Y-117144488D01*
X154668377Y-117253377D01*
X154642835Y-117284500D01*
X153332165Y-117284500D01*
X153306623Y-117253377D01*
X153173942Y-117144488D01*
X153022567Y-117063577D01*
X152858316Y-117013752D01*
X152687500Y-116996928D01*
X152112500Y-116996928D01*
X151941684Y-117013752D01*
X151777433Y-117063577D01*
X151626058Y-117144488D01*
X151525000Y-117227425D01*
X151423942Y-117144488D01*
X151272567Y-117063577D01*
X151108316Y-117013752D01*
X150937500Y-116996928D01*
X150362500Y-116996928D01*
X150191684Y-117013752D01*
X150027433Y-117063577D01*
X149876058Y-117144488D01*
X149743377Y-117253377D01*
X149717835Y-117284500D01*
X137787503Y-117284500D01*
X137650256Y-117192795D01*
X137461898Y-117114774D01*
X137261939Y-117075000D01*
X137058061Y-117075000D01*
X136858102Y-117114774D01*
X136669744Y-117192795D01*
X136500226Y-117306063D01*
X136356063Y-117450226D01*
X136242795Y-117619744D01*
X136164774Y-117808102D01*
X136125000Y-118008061D01*
X135684499Y-118008061D01*
X135684499Y-117978562D01*
X135644725Y-117778603D01*
X135566704Y-117590245D01*
X135453436Y-117420727D01*
X135309273Y-117276564D01*
X135139755Y-117163296D01*
X134951397Y-117085275D01*
X134751438Y-117045501D01*
X134547560Y-117045501D01*
X134347601Y-117085275D01*
X134159243Y-117163296D01*
X134021996Y-117255001D01*
X87468864Y-117255001D01*
X87445120Y-117219465D01*
X87250535Y-117024880D01*
X87021727Y-116871995D01*
X86767490Y-116766686D01*
X86497592Y-116713000D01*
X86222408Y-116713000D01*
X85952510Y-116766686D01*
X85698273Y-116871995D01*
X85469465Y-117024880D01*
X85274880Y-117219465D01*
X85121995Y-117448273D01*
X85016686Y-117702510D01*
X84963000Y-117972408D01*
X73125000Y-117972408D01*
X73125000Y-114067560D01*
X75364000Y-114067560D01*
X75364000Y-114532440D01*
X75454694Y-114988387D01*
X75632595Y-115417879D01*
X75890868Y-115804412D01*
X76219588Y-116133132D01*
X76606121Y-116391405D01*
X77035613Y-116569306D01*
X77491560Y-116660000D01*
X77956440Y-116660000D01*
X78412387Y-116569306D01*
X78841879Y-116391405D01*
X79228412Y-116133132D01*
X79557132Y-115804412D01*
X79815405Y-115417879D01*
X79993306Y-114988387D01*
X80084000Y-114532440D01*
X80084000Y-114198061D01*
X133614499Y-114198061D01*
X133614499Y-114401939D01*
X133654273Y-114601898D01*
X133732294Y-114790256D01*
X133845562Y-114959774D01*
X133989725Y-115103937D01*
X134159243Y-115217205D01*
X134347601Y-115295226D01*
X134547560Y-115335000D01*
X134751438Y-115335000D01*
X134951397Y-115295226D01*
X135139755Y-115217205D01*
X135277002Y-115125500D01*
X149717835Y-115125500D01*
X149743377Y-115156623D01*
X149876058Y-115265512D01*
X150027433Y-115346423D01*
X150191684Y-115396248D01*
X150362500Y-115413072D01*
X150937500Y-115413072D01*
X151108316Y-115396248D01*
X151272567Y-115346423D01*
X151423942Y-115265512D01*
X151525000Y-115182575D01*
X151626058Y-115265512D01*
X151777433Y-115346423D01*
X151941684Y-115396248D01*
X152112500Y-115413072D01*
X152687500Y-115413072D01*
X152858316Y-115396248D01*
X153022567Y-115346423D01*
X153173942Y-115265512D01*
X153306623Y-115156623D01*
X153332165Y-115125500D01*
X154642835Y-115125500D01*
X154668377Y-115156623D01*
X154801058Y-115265512D01*
X154952433Y-115346423D01*
X155116684Y-115396248D01*
X155287500Y-115413072D01*
X155862500Y-115413072D01*
X156033316Y-115396248D01*
X156197567Y-115346423D01*
X156348942Y-115265512D01*
X156481623Y-115156623D01*
X156590512Y-115023942D01*
X156671423Y-114872567D01*
X156721248Y-114708316D01*
X156738072Y-114537500D01*
X156738072Y-114062500D01*
X156721248Y-113891684D01*
X156671423Y-113727433D01*
X156590512Y-113576058D01*
X156481623Y-113443377D01*
X156348942Y-113334488D01*
X156197567Y-113253577D01*
X156033316Y-113203752D01*
X155862500Y-113186928D01*
X155287500Y-113186928D01*
X155116684Y-113203752D01*
X154952433Y-113253577D01*
X154801058Y-113334488D01*
X154668377Y-113443377D01*
X154642835Y-113474500D01*
X153332165Y-113474500D01*
X153306623Y-113443377D01*
X153173942Y-113334488D01*
X153022567Y-113253577D01*
X152858316Y-113203752D01*
X152687500Y-113186928D01*
X152112500Y-113186928D01*
X151941684Y-113203752D01*
X151777433Y-113253577D01*
X151626058Y-113334488D01*
X151525000Y-113417425D01*
X151423942Y-113334488D01*
X151272567Y-113253577D01*
X151108316Y-113203752D01*
X150937500Y-113186928D01*
X150362500Y-113186928D01*
X150191684Y-113203752D01*
X150027433Y-113253577D01*
X149876058Y-113334488D01*
X149743377Y-113443377D01*
X149717835Y-113474500D01*
X135277002Y-113474500D01*
X135139755Y-113382795D01*
X134951397Y-113304774D01*
X134751438Y-113265000D01*
X134547560Y-113265000D01*
X134347601Y-113304774D01*
X134159243Y-113382795D01*
X133989725Y-113496063D01*
X133845562Y-113640226D01*
X133732294Y-113809744D01*
X133654273Y-113998102D01*
X133614499Y-114198061D01*
X80084000Y-114198061D01*
X80084000Y-114067560D01*
X79993306Y-113611613D01*
X79815405Y-113182121D01*
X79557132Y-112795588D01*
X79228412Y-112466868D01*
X78841879Y-112208595D01*
X78412387Y-112030694D01*
X77956440Y-111940000D01*
X77491560Y-111940000D01*
X77035613Y-112030694D01*
X76606121Y-112208595D01*
X76219588Y-112466868D01*
X75890868Y-112795588D01*
X75632595Y-113182121D01*
X75454694Y-113611613D01*
X75364000Y-114067560D01*
X73125000Y-114067560D01*
X73125000Y-107717560D01*
X75364000Y-107717560D01*
X75364000Y-108182440D01*
X75454694Y-108638387D01*
X75632595Y-109067879D01*
X75890868Y-109454412D01*
X76219588Y-109783132D01*
X76606121Y-110041405D01*
X77035613Y-110219306D01*
X77491560Y-110310000D01*
X77956440Y-110310000D01*
X78412387Y-110219306D01*
X78841879Y-110041405D01*
X79228412Y-109783132D01*
X79557132Y-109454412D01*
X79815405Y-109067879D01*
X79993306Y-108638387D01*
X80084000Y-108182440D01*
X80084000Y-107717560D01*
X79993306Y-107261613D01*
X79815405Y-106832121D01*
X79557132Y-106445588D01*
X79228412Y-106116868D01*
X78841879Y-105858595D01*
X78412387Y-105680694D01*
X77956440Y-105590000D01*
X77491560Y-105590000D01*
X77035613Y-105680694D01*
X76606121Y-105858595D01*
X76219588Y-106116868D01*
X75890868Y-106445588D01*
X75632595Y-106832121D01*
X75454694Y-107261613D01*
X75364000Y-107717560D01*
X73125000Y-107717560D01*
X73125000Y-101462408D01*
X84963000Y-101462408D01*
X84963000Y-101737592D01*
X85016686Y-102007490D01*
X85121995Y-102261727D01*
X85274880Y-102490535D01*
X85469465Y-102685120D01*
X85698273Y-102838005D01*
X85775515Y-102870000D01*
X85698273Y-102901995D01*
X85469465Y-103054880D01*
X85274880Y-103249465D01*
X85121995Y-103478273D01*
X85016686Y-103732510D01*
X84963000Y-104002408D01*
X84963000Y-104277592D01*
X85016686Y-104547490D01*
X85121995Y-104801727D01*
X85274880Y-105030535D01*
X85469465Y-105225120D01*
X85698273Y-105378005D01*
X85775515Y-105410000D01*
X85698273Y-105441995D01*
X85469465Y-105594880D01*
X85274880Y-105789465D01*
X85121995Y-106018273D01*
X85016686Y-106272510D01*
X84963000Y-106542408D01*
X84963000Y-106817592D01*
X85016686Y-107087490D01*
X85121995Y-107341727D01*
X85274880Y-107570535D01*
X85469465Y-107765120D01*
X85698273Y-107918005D01*
X85952510Y-108023314D01*
X86222408Y-108077000D01*
X86497592Y-108077000D01*
X86767490Y-108023314D01*
X87021727Y-107918005D01*
X87250535Y-107765120D01*
X87319655Y-107696000D01*
X89330098Y-107696000D01*
X89380000Y-107700915D01*
X89429902Y-107696000D01*
X89510395Y-107688072D01*
X89772500Y-107688072D01*
X89943316Y-107671248D01*
X90107567Y-107621423D01*
X90258029Y-107541000D01*
X95990098Y-107541000D01*
X96040000Y-107545915D01*
X96089902Y-107541000D01*
X96239171Y-107526298D01*
X96430687Y-107468202D01*
X96607190Y-107373860D01*
X96761896Y-107246896D01*
X96793713Y-107208127D01*
X97203127Y-106798713D01*
X97241896Y-106766896D01*
X97368860Y-106612190D01*
X97463202Y-106435687D01*
X97521298Y-106244171D01*
X97536000Y-106094902D01*
X97536000Y-106094901D01*
X97540915Y-106045000D01*
X97536000Y-105995098D01*
X97536000Y-103886000D01*
X106299000Y-103886000D01*
X106299001Y-105321970D01*
X106218577Y-105472433D01*
X106168752Y-105636684D01*
X106151928Y-105807500D01*
X106151928Y-106282500D01*
X106168752Y-106453316D01*
X106218577Y-106617567D01*
X106299488Y-106768942D01*
X106408377Y-106901623D01*
X106541058Y-107010512D01*
X106692433Y-107091423D01*
X106856684Y-107141248D01*
X107027500Y-107158072D01*
X107602500Y-107158072D01*
X107773316Y-107141248D01*
X107937567Y-107091423D01*
X108088942Y-107010512D01*
X108221623Y-106901623D01*
X108330512Y-106768942D01*
X108411423Y-106617567D01*
X108461248Y-106453316D01*
X108478072Y-106282500D01*
X108478072Y-105807500D01*
X108461248Y-105636684D01*
X108411423Y-105472433D01*
X108331000Y-105321971D01*
X108331000Y-103829655D01*
X108400120Y-103760535D01*
X108553005Y-103531727D01*
X108658314Y-103277490D01*
X108712000Y-103007592D01*
X108712000Y-102732408D01*
X108658314Y-102462510D01*
X108553005Y-102208273D01*
X108400120Y-101979465D01*
X108205535Y-101784880D01*
X107976727Y-101631995D01*
X107722490Y-101526686D01*
X107452592Y-101473000D01*
X107177408Y-101473000D01*
X106907510Y-101526686D01*
X106653273Y-101631995D01*
X106424465Y-101784880D01*
X106355345Y-101854000D01*
X97856711Y-101854000D01*
X97958937Y-101751774D01*
X98072205Y-101582256D01*
X98150226Y-101393898D01*
X98190000Y-101193939D01*
X98190000Y-100990061D01*
X98150226Y-100790102D01*
X98072205Y-100601744D01*
X97958937Y-100432226D01*
X97814774Y-100288063D01*
X97645256Y-100174795D01*
X97456898Y-100096774D01*
X97256939Y-100057000D01*
X97053061Y-100057000D01*
X96853102Y-100096774D01*
X96664744Y-100174795D01*
X96495226Y-100288063D01*
X96488789Y-100294500D01*
X90458199Y-100294500D01*
X90391623Y-100213377D01*
X90258942Y-100104488D01*
X90107567Y-100023577D01*
X89943316Y-99973752D01*
X89772500Y-99956928D01*
X89297500Y-99956928D01*
X89126684Y-99973752D01*
X88962433Y-100023577D01*
X88811058Y-100104488D01*
X88678377Y-100213377D01*
X88569488Y-100346058D01*
X88488577Y-100497433D01*
X88438752Y-100661684D01*
X88427641Y-100774500D01*
X87488575Y-100774500D01*
X87445120Y-100709465D01*
X87250535Y-100514880D01*
X87021727Y-100361995D01*
X86767490Y-100256686D01*
X86497592Y-100203000D01*
X86222408Y-100203000D01*
X85952510Y-100256686D01*
X85698273Y-100361995D01*
X85469465Y-100514880D01*
X85274880Y-100709465D01*
X85121995Y-100938273D01*
X85016686Y-101192510D01*
X84963000Y-101462408D01*
X73125000Y-101462408D01*
X73125000Y-97557560D01*
X75364000Y-97557560D01*
X75364000Y-98022440D01*
X75454694Y-98478387D01*
X75632595Y-98907879D01*
X75890868Y-99294412D01*
X76219588Y-99623132D01*
X76606121Y-99881405D01*
X77035613Y-100059306D01*
X77491560Y-100150000D01*
X77956440Y-100150000D01*
X78412387Y-100059306D01*
X78841879Y-99881405D01*
X79228412Y-99623132D01*
X79557132Y-99294412D01*
X79815405Y-98907879D01*
X79993306Y-98478387D01*
X80084000Y-98022440D01*
X80084000Y-97557560D01*
X79993306Y-97101613D01*
X79815405Y-96672121D01*
X79557132Y-96285588D01*
X79228412Y-95956868D01*
X78841879Y-95698595D01*
X78412387Y-95520694D01*
X77956440Y-95430000D01*
X77491560Y-95430000D01*
X77035613Y-95520694D01*
X76606121Y-95698595D01*
X76219588Y-95956868D01*
X75890868Y-96285588D01*
X75632595Y-96672121D01*
X75454694Y-97101613D01*
X75364000Y-97557560D01*
X73125000Y-97557560D01*
X73125000Y-88587290D01*
X83185000Y-88587290D01*
X83185000Y-89212710D01*
X83307014Y-89826113D01*
X83546352Y-90403926D01*
X83893817Y-90923944D01*
X84336056Y-91366183D01*
X84856074Y-91713648D01*
X85433887Y-91952986D01*
X86047290Y-92075000D01*
X86672710Y-92075000D01*
X87286113Y-91952986D01*
X87863926Y-91713648D01*
X88383944Y-91366183D01*
X88826183Y-90923944D01*
X89173648Y-90403926D01*
X89375754Y-89916000D01*
X111379001Y-89916000D01*
X111379000Y-101910345D01*
X111309880Y-101979465D01*
X111156995Y-102208273D01*
X111051686Y-102462510D01*
X110998000Y-102732408D01*
X110998000Y-103007592D01*
X111051686Y-103277490D01*
X111156995Y-103531727D01*
X111309880Y-103760535D01*
X111379000Y-103829655D01*
X111379001Y-105321970D01*
X111298577Y-105472433D01*
X111248752Y-105636684D01*
X111231928Y-105807500D01*
X111231928Y-106282500D01*
X111248752Y-106453316D01*
X111298577Y-106617567D01*
X111379488Y-106768942D01*
X111488377Y-106901623D01*
X111621058Y-107010512D01*
X111772433Y-107091423D01*
X111936684Y-107141248D01*
X112107500Y-107158072D01*
X112682500Y-107158072D01*
X112853316Y-107141248D01*
X113017567Y-107091423D01*
X113168942Y-107010512D01*
X113301623Y-106901623D01*
X113410512Y-106768942D01*
X113491423Y-106617567D01*
X113541248Y-106453316D01*
X113558072Y-106282500D01*
X113558072Y-105807500D01*
X113541248Y-105636684D01*
X113491423Y-105472433D01*
X113411000Y-105321971D01*
X113411000Y-103829655D01*
X113480120Y-103760535D01*
X113633005Y-103531727D01*
X113738314Y-103277490D01*
X113792000Y-103007592D01*
X113792000Y-102732408D01*
X113738314Y-102462510D01*
X113633005Y-102208273D01*
X113480120Y-101979465D01*
X113411000Y-101910345D01*
X113411000Y-89916000D01*
X118364000Y-89916000D01*
X118364001Y-91390089D01*
X118364000Y-91390099D01*
X118364001Y-95200089D01*
X118364000Y-95200099D01*
X118364001Y-105321969D01*
X118283577Y-105472433D01*
X118233752Y-105636684D01*
X118216928Y-105807500D01*
X118216928Y-106282500D01*
X118233752Y-106453316D01*
X118283577Y-106617567D01*
X118364488Y-106768942D01*
X118473377Y-106901623D01*
X118606058Y-107010512D01*
X118757433Y-107091423D01*
X118921684Y-107141248D01*
X119092500Y-107158072D01*
X119667500Y-107158072D01*
X119838316Y-107141248D01*
X120002567Y-107091423D01*
X120153942Y-107010512D01*
X120286623Y-106901623D01*
X120395512Y-106768942D01*
X120476423Y-106617567D01*
X120526248Y-106453316D01*
X120543072Y-106282500D01*
X120543072Y-105807500D01*
X123296928Y-105807500D01*
X123296928Y-106282500D01*
X123313752Y-106453316D01*
X123363577Y-106617567D01*
X123444488Y-106768942D01*
X123553377Y-106901623D01*
X123686058Y-107010512D01*
X123837433Y-107091423D01*
X124001684Y-107141248D01*
X124172500Y-107158072D01*
X124747500Y-107158072D01*
X124918316Y-107141248D01*
X125082567Y-107091423D01*
X125233942Y-107010512D01*
X125366623Y-106901623D01*
X125475512Y-106768942D01*
X125556423Y-106617567D01*
X125606248Y-106453316D01*
X125607313Y-106442500D01*
X149331928Y-106442500D01*
X149331928Y-106917500D01*
X149348752Y-107088316D01*
X149398577Y-107252567D01*
X149479488Y-107403942D01*
X149588377Y-107536623D01*
X149669500Y-107603199D01*
X149669501Y-109566800D01*
X149588377Y-109633377D01*
X149479488Y-109766058D01*
X149398577Y-109917433D01*
X149348752Y-110081684D01*
X149331928Y-110252500D01*
X149331928Y-110727500D01*
X149348752Y-110898316D01*
X149398577Y-111062567D01*
X149479488Y-111213942D01*
X149588377Y-111346623D01*
X149721058Y-111455512D01*
X149872433Y-111536423D01*
X150036684Y-111586248D01*
X150207500Y-111603072D01*
X150782500Y-111603072D01*
X150953316Y-111586248D01*
X151117567Y-111536423D01*
X151268942Y-111455512D01*
X151370000Y-111372575D01*
X151471058Y-111455512D01*
X151622433Y-111536423D01*
X151786684Y-111586248D01*
X151957500Y-111603072D01*
X152532500Y-111603072D01*
X152703316Y-111586248D01*
X152867567Y-111536423D01*
X153018942Y-111455512D01*
X153151623Y-111346623D01*
X153177165Y-111315500D01*
X154642835Y-111315500D01*
X154668377Y-111346623D01*
X154801058Y-111455512D01*
X154952433Y-111536423D01*
X155116684Y-111586248D01*
X155287500Y-111603072D01*
X155862500Y-111603072D01*
X156033316Y-111586248D01*
X156197567Y-111536423D01*
X156348942Y-111455512D01*
X156450000Y-111372575D01*
X156551058Y-111455512D01*
X156702433Y-111536423D01*
X156866684Y-111586248D01*
X157037500Y-111603072D01*
X157612500Y-111603072D01*
X157783316Y-111586248D01*
X157947567Y-111536423D01*
X158098942Y-111455512D01*
X158231623Y-111346623D01*
X158257165Y-111315500D01*
X163202497Y-111315500D01*
X163339744Y-111407205D01*
X163528102Y-111485226D01*
X163728061Y-111525000D01*
X163931939Y-111525000D01*
X164131898Y-111485226D01*
X164320256Y-111407205D01*
X164489774Y-111293937D01*
X164633937Y-111149774D01*
X164747205Y-110980256D01*
X164825226Y-110791898D01*
X164865000Y-110591939D01*
X164865000Y-110388061D01*
X164825226Y-110188102D01*
X164747205Y-109999744D01*
X164633937Y-109830226D01*
X164489774Y-109686063D01*
X164320256Y-109572795D01*
X164131898Y-109494774D01*
X163931939Y-109455000D01*
X163728061Y-109455000D01*
X163528102Y-109494774D01*
X163339744Y-109572795D01*
X163202497Y-109664500D01*
X158257165Y-109664500D01*
X158231623Y-109633377D01*
X158098942Y-109524488D01*
X157947567Y-109443577D01*
X157783316Y-109393752D01*
X157612500Y-109376928D01*
X157037500Y-109376928D01*
X156866684Y-109393752D01*
X156702433Y-109443577D01*
X156551058Y-109524488D01*
X156450000Y-109607425D01*
X156348942Y-109524488D01*
X156197567Y-109443577D01*
X156033316Y-109393752D01*
X155862500Y-109376928D01*
X155287500Y-109376928D01*
X155116684Y-109393752D01*
X154952433Y-109443577D01*
X154801058Y-109524488D01*
X154668377Y-109633377D01*
X154642835Y-109664500D01*
X153177165Y-109664500D01*
X153151623Y-109633377D01*
X153018942Y-109524488D01*
X152867567Y-109443577D01*
X152703316Y-109393752D01*
X152532500Y-109376928D01*
X151957500Y-109376928D01*
X151786684Y-109393752D01*
X151622433Y-109443577D01*
X151471058Y-109524488D01*
X151370000Y-109607425D01*
X151320500Y-109566801D01*
X151320500Y-107603199D01*
X151370000Y-107562575D01*
X151471058Y-107645512D01*
X151622433Y-107726423D01*
X151786684Y-107776248D01*
X151957500Y-107793072D01*
X152532500Y-107793072D01*
X152703316Y-107776248D01*
X152867567Y-107726423D01*
X153018942Y-107645512D01*
X153151623Y-107536623D01*
X153177165Y-107505500D01*
X154642835Y-107505500D01*
X154668377Y-107536623D01*
X154801058Y-107645512D01*
X154952433Y-107726423D01*
X155116684Y-107776248D01*
X155287500Y-107793072D01*
X155862500Y-107793072D01*
X156033316Y-107776248D01*
X156197567Y-107726423D01*
X156348942Y-107645512D01*
X156450000Y-107562575D01*
X156551058Y-107645512D01*
X156702433Y-107726423D01*
X156866684Y-107776248D01*
X157037500Y-107793072D01*
X157612500Y-107793072D01*
X157783316Y-107776248D01*
X157947567Y-107726423D01*
X158098942Y-107645512D01*
X158231623Y-107536623D01*
X158257165Y-107505500D01*
X161297497Y-107505500D01*
X161434744Y-107597205D01*
X161623102Y-107675226D01*
X161823061Y-107715000D01*
X162026939Y-107715000D01*
X162226898Y-107675226D01*
X162415256Y-107597205D01*
X162584774Y-107483937D01*
X162728937Y-107339774D01*
X162842205Y-107170256D01*
X162920226Y-106981898D01*
X162960000Y-106781939D01*
X162960000Y-106578061D01*
X162920226Y-106378102D01*
X162842205Y-106189744D01*
X162728937Y-106020226D01*
X162584774Y-105876063D01*
X162415256Y-105762795D01*
X162226898Y-105684774D01*
X162026939Y-105645000D01*
X161823061Y-105645000D01*
X161623102Y-105684774D01*
X161434744Y-105762795D01*
X161297497Y-105854500D01*
X158257165Y-105854500D01*
X158231623Y-105823377D01*
X158098942Y-105714488D01*
X157947567Y-105633577D01*
X157783316Y-105583752D01*
X157612500Y-105566928D01*
X157037500Y-105566928D01*
X156866684Y-105583752D01*
X156702433Y-105633577D01*
X156551058Y-105714488D01*
X156450000Y-105797425D01*
X156348942Y-105714488D01*
X156197567Y-105633577D01*
X156033316Y-105583752D01*
X155862500Y-105566928D01*
X155287500Y-105566928D01*
X155116684Y-105583752D01*
X154952433Y-105633577D01*
X154801058Y-105714488D01*
X154668377Y-105823377D01*
X154642835Y-105854500D01*
X153177165Y-105854500D01*
X153151623Y-105823377D01*
X153018942Y-105714488D01*
X152867567Y-105633577D01*
X152703316Y-105583752D01*
X152532500Y-105566928D01*
X151957500Y-105566928D01*
X151786684Y-105583752D01*
X151622433Y-105633577D01*
X151471058Y-105714488D01*
X151370000Y-105797425D01*
X151268942Y-105714488D01*
X151117567Y-105633577D01*
X150953316Y-105583752D01*
X150782500Y-105566928D01*
X150207500Y-105566928D01*
X150036684Y-105583752D01*
X149872433Y-105633577D01*
X149721058Y-105714488D01*
X149588377Y-105823377D01*
X149479488Y-105956058D01*
X149398577Y-106107433D01*
X149348752Y-106271684D01*
X149331928Y-106442500D01*
X125607313Y-106442500D01*
X125623072Y-106282500D01*
X125623072Y-105807500D01*
X125606248Y-105636684D01*
X125556423Y-105472433D01*
X125475512Y-105321058D01*
X125366623Y-105188377D01*
X125285500Y-105121801D01*
X125285500Y-102768061D01*
X128505000Y-102768061D01*
X128505000Y-102971939D01*
X128544774Y-103171898D01*
X128622795Y-103360256D01*
X128736063Y-103529774D01*
X128880226Y-103673937D01*
X129049744Y-103787205D01*
X129238102Y-103865226D01*
X129438061Y-103905000D01*
X129641939Y-103905000D01*
X129841898Y-103865226D01*
X130030256Y-103787205D01*
X130167503Y-103695500D01*
X149562835Y-103695500D01*
X149588377Y-103726623D01*
X149721058Y-103835512D01*
X149872433Y-103916423D01*
X150036684Y-103966248D01*
X150207500Y-103983072D01*
X150782500Y-103983072D01*
X150953316Y-103966248D01*
X151117567Y-103916423D01*
X151268942Y-103835512D01*
X151370000Y-103752575D01*
X151471058Y-103835512D01*
X151622433Y-103916423D01*
X151786684Y-103966248D01*
X151957500Y-103983072D01*
X152532500Y-103983072D01*
X152703316Y-103966248D01*
X152867567Y-103916423D01*
X153018942Y-103835512D01*
X153151623Y-103726623D01*
X153260512Y-103593942D01*
X153341423Y-103442567D01*
X153391248Y-103278316D01*
X153408072Y-103107500D01*
X153408072Y-102632500D01*
X154411928Y-102632500D01*
X154411928Y-103107500D01*
X154428752Y-103278316D01*
X154478577Y-103442567D01*
X154559488Y-103593942D01*
X154668377Y-103726623D01*
X154801058Y-103835512D01*
X154952433Y-103916423D01*
X155116684Y-103966248D01*
X155287500Y-103983072D01*
X155862500Y-103983072D01*
X156033316Y-103966248D01*
X156197567Y-103916423D01*
X156348942Y-103835512D01*
X156481623Y-103726623D01*
X156590512Y-103593942D01*
X156671423Y-103442567D01*
X156721248Y-103278316D01*
X156738072Y-103107500D01*
X156738072Y-102632500D01*
X156721248Y-102461684D01*
X156671423Y-102297433D01*
X156590512Y-102146058D01*
X156481623Y-102013377D01*
X156348942Y-101904488D01*
X156197567Y-101823577D01*
X156033316Y-101773752D01*
X155862500Y-101756928D01*
X155287500Y-101756928D01*
X155116684Y-101773752D01*
X154952433Y-101823577D01*
X154801058Y-101904488D01*
X154668377Y-102013377D01*
X154559488Y-102146058D01*
X154478577Y-102297433D01*
X154428752Y-102461684D01*
X154411928Y-102632500D01*
X153408072Y-102632500D01*
X153391248Y-102461684D01*
X153341423Y-102297433D01*
X153260512Y-102146058D01*
X153151623Y-102013377D01*
X153018942Y-101904488D01*
X152867567Y-101823577D01*
X152703316Y-101773752D01*
X152532500Y-101756928D01*
X151957500Y-101756928D01*
X151786684Y-101773752D01*
X151622433Y-101823577D01*
X151471058Y-101904488D01*
X151370000Y-101987425D01*
X151268942Y-101904488D01*
X151117567Y-101823577D01*
X150953316Y-101773752D01*
X150782500Y-101756928D01*
X150207500Y-101756928D01*
X150036684Y-101773752D01*
X149872433Y-101823577D01*
X149721058Y-101904488D01*
X149588377Y-102013377D01*
X149562835Y-102044500D01*
X130167503Y-102044500D01*
X130030256Y-101952795D01*
X129841898Y-101874774D01*
X129641939Y-101835000D01*
X129438061Y-101835000D01*
X129238102Y-101874774D01*
X129049744Y-101952795D01*
X128880226Y-102066063D01*
X128736063Y-102210226D01*
X128622795Y-102379744D01*
X128544774Y-102568102D01*
X128505000Y-102768061D01*
X125285500Y-102768061D01*
X125285500Y-99885500D01*
X149562835Y-99885500D01*
X149588377Y-99916623D01*
X149721058Y-100025512D01*
X149872433Y-100106423D01*
X150036684Y-100156248D01*
X150207500Y-100173072D01*
X150782500Y-100173072D01*
X150953316Y-100156248D01*
X151117567Y-100106423D01*
X151268942Y-100025512D01*
X151370000Y-99942575D01*
X151471058Y-100025512D01*
X151622433Y-100106423D01*
X151786684Y-100156248D01*
X151957500Y-100173072D01*
X152532500Y-100173072D01*
X152703316Y-100156248D01*
X152867567Y-100106423D01*
X153018942Y-100025512D01*
X153151623Y-99916623D01*
X153177165Y-99885500D01*
X154642835Y-99885500D01*
X154668377Y-99916623D01*
X154801058Y-100025512D01*
X154952433Y-100106423D01*
X155116684Y-100156248D01*
X155287500Y-100173072D01*
X155862500Y-100173072D01*
X156033316Y-100156248D01*
X156197567Y-100106423D01*
X156348942Y-100025512D01*
X156481623Y-99916623D01*
X156590512Y-99783942D01*
X156671423Y-99632567D01*
X156721248Y-99468316D01*
X156738072Y-99297500D01*
X156738072Y-98822500D01*
X156721248Y-98651684D01*
X156671423Y-98487433D01*
X156590512Y-98336058D01*
X156481623Y-98203377D01*
X156348942Y-98094488D01*
X156197567Y-98013577D01*
X156033316Y-97963752D01*
X155862500Y-97946928D01*
X155287500Y-97946928D01*
X155116684Y-97963752D01*
X154952433Y-98013577D01*
X154801058Y-98094488D01*
X154668377Y-98203377D01*
X154642835Y-98234500D01*
X153177165Y-98234500D01*
X153151623Y-98203377D01*
X153018942Y-98094488D01*
X152867567Y-98013577D01*
X152703316Y-97963752D01*
X152532500Y-97946928D01*
X151957500Y-97946928D01*
X151786684Y-97963752D01*
X151622433Y-98013577D01*
X151471058Y-98094488D01*
X151370000Y-98177425D01*
X151268942Y-98094488D01*
X151117567Y-98013577D01*
X150953316Y-97963752D01*
X150782500Y-97946928D01*
X150207500Y-97946928D01*
X150036684Y-97963752D01*
X149872433Y-98013577D01*
X149721058Y-98094488D01*
X149588377Y-98203377D01*
X149562835Y-98234500D01*
X125087503Y-98234500D01*
X124950256Y-98142795D01*
X124761898Y-98064774D01*
X124561939Y-98025000D01*
X124358061Y-98025000D01*
X124158102Y-98064774D01*
X123969744Y-98142795D01*
X123800226Y-98256063D01*
X123656063Y-98400226D01*
X123542795Y-98569744D01*
X123464774Y-98758102D01*
X123425000Y-98958061D01*
X123425000Y-99161939D01*
X123464774Y-99361898D01*
X123542795Y-99550256D01*
X123634500Y-99687503D01*
X123634501Y-105121800D01*
X123553377Y-105188377D01*
X123444488Y-105321058D01*
X123363577Y-105472433D01*
X123313752Y-105636684D01*
X123296928Y-105807500D01*
X120543072Y-105807500D01*
X120526248Y-105636684D01*
X120476423Y-105472433D01*
X120396000Y-105321971D01*
X120396000Y-96075500D01*
X149562835Y-96075500D01*
X149588377Y-96106623D01*
X149721058Y-96215512D01*
X149872433Y-96296423D01*
X150036684Y-96346248D01*
X150207500Y-96363072D01*
X150782500Y-96363072D01*
X150953316Y-96346248D01*
X151117567Y-96296423D01*
X151268942Y-96215512D01*
X151370000Y-96132575D01*
X151471058Y-96215512D01*
X151622433Y-96296423D01*
X151786684Y-96346248D01*
X151957500Y-96363072D01*
X152532500Y-96363072D01*
X152703316Y-96346248D01*
X152867567Y-96296423D01*
X153018942Y-96215512D01*
X153151623Y-96106623D01*
X153177165Y-96075500D01*
X154642835Y-96075500D01*
X154668377Y-96106623D01*
X154801058Y-96215512D01*
X154952433Y-96296423D01*
X155116684Y-96346248D01*
X155287500Y-96363072D01*
X155862500Y-96363072D01*
X156033316Y-96346248D01*
X156197567Y-96296423D01*
X156348942Y-96215512D01*
X156481623Y-96106623D01*
X156590512Y-95973942D01*
X156671423Y-95822567D01*
X156721248Y-95658316D01*
X156738072Y-95487500D01*
X156738072Y-95012500D01*
X156721248Y-94841684D01*
X156671423Y-94677433D01*
X156590512Y-94526058D01*
X156481623Y-94393377D01*
X156348942Y-94284488D01*
X156197567Y-94203577D01*
X156033316Y-94153752D01*
X155862500Y-94136928D01*
X155287500Y-94136928D01*
X155116684Y-94153752D01*
X154952433Y-94203577D01*
X154801058Y-94284488D01*
X154668377Y-94393377D01*
X154642835Y-94424500D01*
X153177165Y-94424500D01*
X153151623Y-94393377D01*
X153018942Y-94284488D01*
X152867567Y-94203577D01*
X152703316Y-94153752D01*
X152532500Y-94136928D01*
X151957500Y-94136928D01*
X151786684Y-94153752D01*
X151622433Y-94203577D01*
X151471058Y-94284488D01*
X151370000Y-94367425D01*
X151268942Y-94284488D01*
X151117567Y-94203577D01*
X150953316Y-94153752D01*
X150782500Y-94136928D01*
X150207500Y-94136928D01*
X150036684Y-94153752D01*
X149872433Y-94203577D01*
X149721058Y-94284488D01*
X149588377Y-94393377D01*
X149562835Y-94424500D01*
X120396000Y-94424500D01*
X120396000Y-89859655D01*
X120465120Y-89790535D01*
X120618005Y-89561727D01*
X120723314Y-89307490D01*
X120777000Y-89037592D01*
X120777000Y-88762408D01*
X123063000Y-88762408D01*
X123063000Y-89037592D01*
X123116686Y-89307490D01*
X123221995Y-89561727D01*
X123374880Y-89790535D01*
X123569465Y-89985120D01*
X123798273Y-90138005D01*
X124052510Y-90243314D01*
X124322408Y-90297000D01*
X124597592Y-90297000D01*
X124867490Y-90243314D01*
X125121727Y-90138005D01*
X125350535Y-89985120D01*
X125545120Y-89790535D01*
X125698005Y-89561727D01*
X125803314Y-89307490D01*
X125857000Y-89037592D01*
X125857000Y-88762408D01*
X125803314Y-88492510D01*
X125698005Y-88238273D01*
X125545120Y-88009465D01*
X125350535Y-87814880D01*
X125121727Y-87661995D01*
X124867490Y-87556686D01*
X124597592Y-87503000D01*
X124322408Y-87503000D01*
X124052510Y-87556686D01*
X123798273Y-87661995D01*
X123569465Y-87814880D01*
X123374880Y-88009465D01*
X123221995Y-88238273D01*
X123116686Y-88492510D01*
X123063000Y-88762408D01*
X120777000Y-88762408D01*
X120723314Y-88492510D01*
X120618005Y-88238273D01*
X120465120Y-88009465D01*
X120270535Y-87814880D01*
X120041727Y-87661995D01*
X119787490Y-87556686D01*
X119517592Y-87503000D01*
X119242408Y-87503000D01*
X118972510Y-87556686D01*
X118718273Y-87661995D01*
X118489465Y-87814880D01*
X118420345Y-87884000D01*
X112444902Y-87884000D01*
X112395000Y-87879085D01*
X112345098Y-87884000D01*
X89375754Y-87884000D01*
X89173648Y-87396074D01*
X88826183Y-86876056D01*
X88383944Y-86433817D01*
X87863926Y-86086352D01*
X87286113Y-85847014D01*
X86672710Y-85725000D01*
X86047290Y-85725000D01*
X85433887Y-85847014D01*
X84856074Y-86086352D01*
X84336056Y-86433817D01*
X83893817Y-86876056D01*
X83546352Y-87396074D01*
X83307014Y-87973887D01*
X83185000Y-88587290D01*
X73125000Y-88587290D01*
X73125000Y-85623061D01*
X106280000Y-85623061D01*
X106280000Y-85826939D01*
X106319774Y-86026898D01*
X106397795Y-86215256D01*
X106511063Y-86384774D01*
X106655226Y-86528937D01*
X106824744Y-86642205D01*
X107013102Y-86720226D01*
X107213061Y-86760000D01*
X107416939Y-86760000D01*
X107512459Y-86741000D01*
X122992541Y-86741000D01*
X123088061Y-86760000D01*
X123291939Y-86760000D01*
X123491898Y-86720226D01*
X123680256Y-86642205D01*
X123849774Y-86528937D01*
X123993937Y-86384774D01*
X124107205Y-86215256D01*
X124185226Y-86026898D01*
X124225000Y-85826939D01*
X124225000Y-85623061D01*
X124185226Y-85423102D01*
X124107205Y-85234744D01*
X123993937Y-85065226D01*
X123849774Y-84921063D01*
X123680256Y-84807795D01*
X123491898Y-84729774D01*
X123291939Y-84690000D01*
X123088061Y-84690000D01*
X122992541Y-84709000D01*
X107512459Y-84709000D01*
X107416939Y-84690000D01*
X107213061Y-84690000D01*
X107013102Y-84729774D01*
X106824744Y-84807795D01*
X106655226Y-84921063D01*
X106511063Y-85065226D01*
X106397795Y-85234744D01*
X106319774Y-85423102D01*
X106280000Y-85623061D01*
X73125000Y-85623061D01*
X73125000Y-77940000D01*
X105876928Y-77940000D01*
X105876928Y-79540000D01*
X105889188Y-79664482D01*
X105925498Y-79784180D01*
X105984463Y-79894494D01*
X106063815Y-79991185D01*
X106160506Y-80070537D01*
X106270820Y-80129502D01*
X106390518Y-80165812D01*
X106515000Y-80178072D01*
X108115000Y-80178072D01*
X108239482Y-80165812D01*
X108359180Y-80129502D01*
X108469494Y-80070537D01*
X108566185Y-79991185D01*
X108645537Y-79894494D01*
X108704502Y-79784180D01*
X108740812Y-79664482D01*
X108753072Y-79540000D01*
X108753072Y-77940000D01*
X108740812Y-77815518D01*
X108704502Y-77695820D01*
X108645537Y-77585506D01*
X108586625Y-77513721D01*
X116185000Y-77513721D01*
X116185000Y-77934279D01*
X116267047Y-78346756D01*
X116427988Y-78735302D01*
X116661637Y-79084983D01*
X116959017Y-79382363D01*
X117308698Y-79616012D01*
X117697244Y-79776953D01*
X118109721Y-79859000D01*
X118530279Y-79859000D01*
X118942756Y-79776953D01*
X119331302Y-79616012D01*
X119680983Y-79382363D01*
X119978363Y-79084983D01*
X120212012Y-78735302D01*
X120372953Y-78346756D01*
X120455000Y-77934279D01*
X120455000Y-77513721D01*
X120372953Y-77101244D01*
X120212012Y-76712698D01*
X119978363Y-76363017D01*
X119680983Y-76065637D01*
X119331302Y-75831988D01*
X118942756Y-75671047D01*
X118530279Y-75589000D01*
X118109721Y-75589000D01*
X117697244Y-75671047D01*
X117308698Y-75831988D01*
X116959017Y-76065637D01*
X116661637Y-76363017D01*
X116427988Y-76712698D01*
X116267047Y-77101244D01*
X116185000Y-77513721D01*
X108586625Y-77513721D01*
X108566185Y-77488815D01*
X108469494Y-77409463D01*
X108359180Y-77350498D01*
X108239482Y-77314188D01*
X108115000Y-77301928D01*
X106515000Y-77301928D01*
X106390518Y-77314188D01*
X106270820Y-77350498D01*
X106160506Y-77409463D01*
X106063815Y-77488815D01*
X105984463Y-77585506D01*
X105925498Y-77695820D01*
X105889188Y-77815518D01*
X105876928Y-77940000D01*
X73125000Y-77940000D01*
X73125000Y-76489946D01*
X73153158Y-76202764D01*
X73226123Y-75961093D01*
X73344637Y-75738201D01*
X73504187Y-75542573D01*
X73698699Y-75381660D01*
X73920756Y-75261593D01*
X74161912Y-75186944D01*
X74446811Y-75157000D01*
X122458168Y-75157000D01*
X122243368Y-75300525D01*
G36*
X147643368Y-75300525D02*
G01*
X147436525Y-75507368D01*
X147274010Y-75750589D01*
X147162068Y-76020842D01*
X147105000Y-76307740D01*
X147105000Y-76600260D01*
X147162068Y-76887158D01*
X147274010Y-77157411D01*
X147436525Y-77400632D01*
X147643368Y-77607475D01*
X147817760Y-77724000D01*
X147643368Y-77840525D01*
X147436525Y-78047368D01*
X147320000Y-78221760D01*
X147203475Y-78047368D01*
X146996632Y-77840525D01*
X146753411Y-77678010D01*
X146483158Y-77566068D01*
X146196260Y-77509000D01*
X145903740Y-77509000D01*
X145616842Y-77566068D01*
X145346589Y-77678010D01*
X145103368Y-77840525D01*
X144896525Y-78047368D01*
X144780000Y-78221760D01*
X144663475Y-78047368D01*
X144456632Y-77840525D01*
X144282240Y-77724000D01*
X144456632Y-77607475D01*
X144663475Y-77400632D01*
X144825990Y-77157411D01*
X144937932Y-76887158D01*
X144995000Y-76600260D01*
X144995000Y-76307740D01*
X144937932Y-76020842D01*
X144825990Y-75750589D01*
X144663475Y-75507368D01*
X144456632Y-75300525D01*
X144241832Y-75157000D01*
X147858168Y-75157000D01*
X147643368Y-75300525D01*
X147643368Y-75300525D01*
G37*
X147643368Y-75300525D02*
X147436525Y-75507368D01*
X147274010Y-75750589D01*
X147162068Y-76020842D01*
X147105000Y-76307740D01*
X147105000Y-76600260D01*
X147162068Y-76887158D01*
X147274010Y-77157411D01*
X147436525Y-77400632D01*
X147643368Y-77607475D01*
X147817760Y-77724000D01*
X147643368Y-77840525D01*
X147436525Y-78047368D01*
X147320000Y-78221760D01*
X147203475Y-78047368D01*
X146996632Y-77840525D01*
X146753411Y-77678010D01*
X146483158Y-77566068D01*
X146196260Y-77509000D01*
X145903740Y-77509000D01*
X145616842Y-77566068D01*
X145346589Y-77678010D01*
X145103368Y-77840525D01*
X144896525Y-78047368D01*
X144780000Y-78221760D01*
X144663475Y-78047368D01*
X144456632Y-77840525D01*
X144282240Y-77724000D01*
X144456632Y-77607475D01*
X144663475Y-77400632D01*
X144825990Y-77157411D01*
X144937932Y-76887158D01*
X144995000Y-76600260D01*
X144995000Y-76307740D01*
X144937932Y-76020842D01*
X144825990Y-75750589D01*
X144663475Y-75507368D01*
X144456632Y-75300525D01*
X144241832Y-75157000D01*
X147858168Y-75157000D01*
X147643368Y-75300525D01*
G36*
X140023368Y-75300525D02*
G01*
X139816525Y-75507368D01*
X139654010Y-75750589D01*
X139542068Y-76020842D01*
X139485000Y-76307740D01*
X139485000Y-76600260D01*
X139542068Y-76887158D01*
X139654010Y-77157411D01*
X139816525Y-77400632D01*
X140023368Y-77607475D01*
X140197760Y-77724000D01*
X140023368Y-77840525D01*
X139816525Y-78047368D01*
X139700000Y-78221760D01*
X139583475Y-78047368D01*
X139376632Y-77840525D01*
X139133411Y-77678010D01*
X138863158Y-77566068D01*
X138576260Y-77509000D01*
X138283740Y-77509000D01*
X137996842Y-77566068D01*
X137726589Y-77678010D01*
X137483368Y-77840525D01*
X137276525Y-78047368D01*
X137160000Y-78221760D01*
X137043475Y-78047368D01*
X136836632Y-77840525D01*
X136662240Y-77724000D01*
X136836632Y-77607475D01*
X137043475Y-77400632D01*
X137205990Y-77157411D01*
X137317932Y-76887158D01*
X137375000Y-76600260D01*
X137375000Y-76307740D01*
X137317932Y-76020842D01*
X137205990Y-75750589D01*
X137043475Y-75507368D01*
X136836632Y-75300525D01*
X136621832Y-75157000D01*
X140238168Y-75157000D01*
X140023368Y-75300525D01*
X140023368Y-75300525D01*
G37*
X140023368Y-75300525D02*
X139816525Y-75507368D01*
X139654010Y-75750589D01*
X139542068Y-76020842D01*
X139485000Y-76307740D01*
X139485000Y-76600260D01*
X139542068Y-76887158D01*
X139654010Y-77157411D01*
X139816525Y-77400632D01*
X140023368Y-77607475D01*
X140197760Y-77724000D01*
X140023368Y-77840525D01*
X139816525Y-78047368D01*
X139700000Y-78221760D01*
X139583475Y-78047368D01*
X139376632Y-77840525D01*
X139133411Y-77678010D01*
X138863158Y-77566068D01*
X138576260Y-77509000D01*
X138283740Y-77509000D01*
X137996842Y-77566068D01*
X137726589Y-77678010D01*
X137483368Y-77840525D01*
X137276525Y-78047368D01*
X137160000Y-78221760D01*
X137043475Y-78047368D01*
X136836632Y-77840525D01*
X136662240Y-77724000D01*
X136836632Y-77607475D01*
X137043475Y-77400632D01*
X137205990Y-77157411D01*
X137317932Y-76887158D01*
X137375000Y-76600260D01*
X137375000Y-76307740D01*
X137317932Y-76020842D01*
X137205990Y-75750589D01*
X137043475Y-75507368D01*
X136836632Y-75300525D01*
X136621832Y-75157000D01*
X140238168Y-75157000D01*
X140023368Y-75300525D01*
G36*
X129863368Y-75300525D02*
G01*
X129656525Y-75507368D01*
X129494010Y-75750589D01*
X129382068Y-76020842D01*
X129325000Y-76307740D01*
X129325000Y-76600260D01*
X129382068Y-76887158D01*
X129494010Y-77157411D01*
X129656525Y-77400632D01*
X129863368Y-77607475D01*
X130037760Y-77724000D01*
X129863368Y-77840525D01*
X129656525Y-78047368D01*
X129540000Y-78221760D01*
X129423475Y-78047368D01*
X129216632Y-77840525D01*
X128973411Y-77678010D01*
X128703158Y-77566068D01*
X128416260Y-77509000D01*
X128123740Y-77509000D01*
X127836842Y-77566068D01*
X127566589Y-77678010D01*
X127323368Y-77840525D01*
X127116525Y-78047368D01*
X127000000Y-78221760D01*
X126883475Y-78047368D01*
X126676632Y-77840525D01*
X126502240Y-77724000D01*
X126676632Y-77607475D01*
X126883475Y-77400632D01*
X127045990Y-77157411D01*
X127157932Y-76887158D01*
X127215000Y-76600260D01*
X127215000Y-76307740D01*
X127157932Y-76020842D01*
X127045990Y-75750589D01*
X126883475Y-75507368D01*
X126676632Y-75300525D01*
X126461832Y-75157000D01*
X130078168Y-75157000D01*
X129863368Y-75300525D01*
X129863368Y-75300525D01*
G37*
X129863368Y-75300525D02*
X129656525Y-75507368D01*
X129494010Y-75750589D01*
X129382068Y-76020842D01*
X129325000Y-76307740D01*
X129325000Y-76600260D01*
X129382068Y-76887158D01*
X129494010Y-77157411D01*
X129656525Y-77400632D01*
X129863368Y-77607475D01*
X130037760Y-77724000D01*
X129863368Y-77840525D01*
X129656525Y-78047368D01*
X129540000Y-78221760D01*
X129423475Y-78047368D01*
X129216632Y-77840525D01*
X128973411Y-77678010D01*
X128703158Y-77566068D01*
X128416260Y-77509000D01*
X128123740Y-77509000D01*
X127836842Y-77566068D01*
X127566589Y-77678010D01*
X127323368Y-77840525D01*
X127116525Y-78047368D01*
X127000000Y-78221760D01*
X126883475Y-78047368D01*
X126676632Y-77840525D01*
X126502240Y-77724000D01*
X126676632Y-77607475D01*
X126883475Y-77400632D01*
X127045990Y-77157411D01*
X127157932Y-76887158D01*
X127215000Y-76600260D01*
X127215000Y-76307740D01*
X127157932Y-76020842D01*
X127045990Y-75750589D01*
X126883475Y-75507368D01*
X126676632Y-75300525D01*
X126461832Y-75157000D01*
X130078168Y-75157000D01*
X129863368Y-75300525D01*
G36*
X165423368Y-75300525D02*
G01*
X165216525Y-75507368D01*
X165054010Y-75750589D01*
X164942068Y-76020842D01*
X164885000Y-76307740D01*
X164885000Y-76600260D01*
X164942068Y-76887158D01*
X165054010Y-77157411D01*
X165216525Y-77400632D01*
X165423368Y-77607475D01*
X165597760Y-77724000D01*
X165423368Y-77840525D01*
X165216525Y-78047368D01*
X165100000Y-78221760D01*
X164983475Y-78047368D01*
X164776632Y-77840525D01*
X164533411Y-77678010D01*
X164263158Y-77566068D01*
X163976260Y-77509000D01*
X163683740Y-77509000D01*
X163396842Y-77566068D01*
X163126589Y-77678010D01*
X162883368Y-77840525D01*
X162676525Y-78047368D01*
X162560000Y-78221760D01*
X162443475Y-78047368D01*
X162236632Y-77840525D01*
X162062240Y-77724000D01*
X162236632Y-77607475D01*
X162443475Y-77400632D01*
X162605990Y-77157411D01*
X162717932Y-76887158D01*
X162775000Y-76600260D01*
X162775000Y-76307740D01*
X162717932Y-76020842D01*
X162605990Y-75750589D01*
X162443475Y-75507368D01*
X162236632Y-75300525D01*
X162021832Y-75157000D01*
X165638168Y-75157000D01*
X165423368Y-75300525D01*
X165423368Y-75300525D01*
G37*
X165423368Y-75300525D02*
X165216525Y-75507368D01*
X165054010Y-75750589D01*
X164942068Y-76020842D01*
X164885000Y-76307740D01*
X164885000Y-76600260D01*
X164942068Y-76887158D01*
X165054010Y-77157411D01*
X165216525Y-77400632D01*
X165423368Y-77607475D01*
X165597760Y-77724000D01*
X165423368Y-77840525D01*
X165216525Y-78047368D01*
X165100000Y-78221760D01*
X164983475Y-78047368D01*
X164776632Y-77840525D01*
X164533411Y-77678010D01*
X164263158Y-77566068D01*
X163976260Y-77509000D01*
X163683740Y-77509000D01*
X163396842Y-77566068D01*
X163126589Y-77678010D01*
X162883368Y-77840525D01*
X162676525Y-78047368D01*
X162560000Y-78221760D01*
X162443475Y-78047368D01*
X162236632Y-77840525D01*
X162062240Y-77724000D01*
X162236632Y-77607475D01*
X162443475Y-77400632D01*
X162605990Y-77157411D01*
X162717932Y-76887158D01*
X162775000Y-76600260D01*
X162775000Y-76307740D01*
X162717932Y-76020842D01*
X162605990Y-75750589D01*
X162443475Y-75507368D01*
X162236632Y-75300525D01*
X162021832Y-75157000D01*
X165638168Y-75157000D01*
X165423368Y-75300525D01*
G36*
X160343368Y-75300525D02*
G01*
X160136525Y-75507368D01*
X159974010Y-75750589D01*
X159862068Y-76020842D01*
X159805000Y-76307740D01*
X159805000Y-76600260D01*
X159862068Y-76887158D01*
X159974010Y-77157411D01*
X160136525Y-77400632D01*
X160343368Y-77607475D01*
X160517760Y-77724000D01*
X160343368Y-77840525D01*
X160136525Y-78047368D01*
X160020000Y-78221760D01*
X159903475Y-78047368D01*
X159696632Y-77840525D01*
X159453411Y-77678010D01*
X159183158Y-77566068D01*
X158896260Y-77509000D01*
X158603740Y-77509000D01*
X158316842Y-77566068D01*
X158046589Y-77678010D01*
X157803368Y-77840525D01*
X157596525Y-78047368D01*
X157480000Y-78221760D01*
X157363475Y-78047368D01*
X157156632Y-77840525D01*
X156982240Y-77724000D01*
X157156632Y-77607475D01*
X157363475Y-77400632D01*
X157525990Y-77157411D01*
X157637932Y-76887158D01*
X157695000Y-76600260D01*
X157695000Y-76307740D01*
X157637932Y-76020842D01*
X157525990Y-75750589D01*
X157363475Y-75507368D01*
X157156632Y-75300525D01*
X156941832Y-75157000D01*
X160558168Y-75157000D01*
X160343368Y-75300525D01*
X160343368Y-75300525D01*
G37*
X160343368Y-75300525D02*
X160136525Y-75507368D01*
X159974010Y-75750589D01*
X159862068Y-76020842D01*
X159805000Y-76307740D01*
X159805000Y-76600260D01*
X159862068Y-76887158D01*
X159974010Y-77157411D01*
X160136525Y-77400632D01*
X160343368Y-77607475D01*
X160517760Y-77724000D01*
X160343368Y-77840525D01*
X160136525Y-78047368D01*
X160020000Y-78221760D01*
X159903475Y-78047368D01*
X159696632Y-77840525D01*
X159453411Y-77678010D01*
X159183158Y-77566068D01*
X158896260Y-77509000D01*
X158603740Y-77509000D01*
X158316842Y-77566068D01*
X158046589Y-77678010D01*
X157803368Y-77840525D01*
X157596525Y-78047368D01*
X157480000Y-78221760D01*
X157363475Y-78047368D01*
X157156632Y-77840525D01*
X156982240Y-77724000D01*
X157156632Y-77607475D01*
X157363475Y-77400632D01*
X157525990Y-77157411D01*
X157637932Y-76887158D01*
X157695000Y-76600260D01*
X157695000Y-76307740D01*
X157637932Y-76020842D01*
X157525990Y-75750589D01*
X157363475Y-75507368D01*
X157156632Y-75300525D01*
X156941832Y-75157000D01*
X160558168Y-75157000D01*
X160343368Y-75300525D01*
M02*
