G04 #@! TF.GenerationSoftware,KiCad,Pcbnew,(5.0.0)*
G04 #@! TF.CreationDate,2019-09-21T17:28:20-05:00*
G04 #@! TF.ProjectId,RaspberryPiBreakout_Hardware,5261737062657272795069427265616B,rev?*
G04 #@! TF.SameCoordinates,Original*
G04 #@! TF.FileFunction,Legend,Top*
G04 #@! TF.FilePolarity,Positive*
%FSLAX46Y46*%
G04 Gerber Fmt 4.6, Leading zero omitted, Abs format (unit mm)*
G04 Created by KiCad (PCBNEW (5.0.0)) date 09/21/19 17:28:20*
%MOMM*%
%LPD*%
G01*
G04 APERTURE LIST*
%ADD10C,0.200000*%
%ADD11C,0.300000*%
%ADD12C,0.254000*%
%ADD13C,0.120000*%
%ADD14C,0.150000*%
%ADD15C,0.010000*%
G04 APERTURE END LIST*
D10*
X162560000Y-86360000D02*
X162560000Y-88900000D01*
X148590000Y-86360000D02*
X162560000Y-86360000D01*
X148590000Y-88900000D02*
X148590000Y-86360000D01*
D11*
X152146428Y-88308571D02*
X151432142Y-88308571D01*
X151432142Y-86808571D01*
X152646428Y-87522857D02*
X153146428Y-87522857D01*
X153360714Y-88308571D02*
X152646428Y-88308571D01*
X152646428Y-86808571D01*
X153360714Y-86808571D01*
X154003571Y-88308571D02*
X154003571Y-86808571D01*
X154360714Y-86808571D01*
X154575000Y-86880000D01*
X154717857Y-87022857D01*
X154789285Y-87165714D01*
X154860714Y-87451428D01*
X154860714Y-87665714D01*
X154789285Y-87951428D01*
X154717857Y-88094285D01*
X154575000Y-88237142D01*
X154360714Y-88308571D01*
X154003571Y-88308571D01*
X156646428Y-88308571D02*
X156646428Y-86808571D01*
X157360714Y-88308571D02*
X157360714Y-86808571D01*
X158217857Y-88308571D01*
X158217857Y-86808571D01*
X158932142Y-88308571D02*
X158932142Y-86808571D01*
X159289285Y-86808571D01*
X159503571Y-86880000D01*
X159646428Y-87022857D01*
X159717857Y-87165714D01*
X159789285Y-87451428D01*
X159789285Y-87665714D01*
X159717857Y-87951428D01*
X159646428Y-88094285D01*
X159503571Y-88237142D01*
X159289285Y-88308571D01*
X158932142Y-88308571D01*
D10*
X162560000Y-88900000D02*
X148590000Y-88900000D01*
X162560000Y-116840000D02*
X162560000Y-88900000D01*
X148590000Y-116840000D02*
X162560000Y-116840000D01*
X148590000Y-109855000D02*
X148590000Y-116840000D01*
D12*
X158610904Y-113743619D02*
X159191476Y-113743619D01*
X158901190Y-114759619D02*
X158901190Y-113743619D01*
X159433380Y-113743619D02*
X160110714Y-114759619D01*
X160110714Y-113743619D02*
X159433380Y-114759619D01*
X159215666Y-110949619D02*
X158877000Y-110465809D01*
X158635095Y-110949619D02*
X158635095Y-109933619D01*
X159022142Y-109933619D01*
X159118904Y-109982000D01*
X159167285Y-110030380D01*
X159215666Y-110127142D01*
X159215666Y-110272285D01*
X159167285Y-110369047D01*
X159118904Y-110417428D01*
X159022142Y-110465809D01*
X158635095Y-110465809D01*
X159554333Y-109933619D02*
X160231666Y-110949619D01*
X160231666Y-109933619D02*
X159554333Y-110949619D01*
X158786285Y-107091238D02*
X158931428Y-107139619D01*
X159173333Y-107139619D01*
X159270095Y-107091238D01*
X159318476Y-107042857D01*
X159366857Y-106946095D01*
X159366857Y-106849333D01*
X159318476Y-106752571D01*
X159270095Y-106704190D01*
X159173333Y-106655809D01*
X158979809Y-106607428D01*
X158883047Y-106559047D01*
X158834666Y-106510666D01*
X158786285Y-106413904D01*
X158786285Y-106317142D01*
X158834666Y-106220380D01*
X158883047Y-106172000D01*
X158979809Y-106123619D01*
X159221714Y-106123619D01*
X159366857Y-106172000D01*
X159802285Y-107139619D02*
X159802285Y-106123619D01*
X160044190Y-106123619D01*
X160189333Y-106172000D01*
X160286095Y-106268761D01*
X160334476Y-106365523D01*
X160382857Y-106559047D01*
X160382857Y-106704190D01*
X160334476Y-106897714D01*
X160286095Y-106994476D01*
X160189333Y-107091238D01*
X160044190Y-107139619D01*
X159802285Y-107139619D01*
X160769904Y-106849333D02*
X161253714Y-106849333D01*
X160673142Y-107139619D02*
X161011809Y-106123619D01*
X161350476Y-107139619D01*
X158810476Y-103281238D02*
X158955619Y-103329619D01*
X159197523Y-103329619D01*
X159294285Y-103281238D01*
X159342666Y-103232857D01*
X159391047Y-103136095D01*
X159391047Y-103039333D01*
X159342666Y-102942571D01*
X159294285Y-102894190D01*
X159197523Y-102845809D01*
X159004000Y-102797428D01*
X158907238Y-102749047D01*
X158858857Y-102700666D01*
X158810476Y-102603904D01*
X158810476Y-102507142D01*
X158858857Y-102410380D01*
X158907238Y-102362000D01*
X159004000Y-102313619D01*
X159245904Y-102313619D01*
X159391047Y-102362000D01*
X160407047Y-103232857D02*
X160358666Y-103281238D01*
X160213523Y-103329619D01*
X160116761Y-103329619D01*
X159971619Y-103281238D01*
X159874857Y-103184476D01*
X159826476Y-103087714D01*
X159778095Y-102894190D01*
X159778095Y-102749047D01*
X159826476Y-102555523D01*
X159874857Y-102458761D01*
X159971619Y-102362000D01*
X160116761Y-102313619D01*
X160213523Y-102313619D01*
X160358666Y-102362000D01*
X160407047Y-102410380D01*
X161326285Y-103329619D02*
X160842476Y-103329619D01*
X160842476Y-102313619D01*
X158568571Y-98503619D02*
X159197523Y-98503619D01*
X158858857Y-98890666D01*
X159004000Y-98890666D01*
X159100761Y-98939047D01*
X159149142Y-98987428D01*
X159197523Y-99084190D01*
X159197523Y-99326095D01*
X159149142Y-99422857D01*
X159100761Y-99471238D01*
X159004000Y-99519619D01*
X158713714Y-99519619D01*
X158616952Y-99471238D01*
X158568571Y-99422857D01*
X159632952Y-99422857D02*
X159681333Y-99471238D01*
X159632952Y-99519619D01*
X159584571Y-99471238D01*
X159632952Y-99422857D01*
X159632952Y-99519619D01*
X160020000Y-98503619D02*
X160648952Y-98503619D01*
X160310285Y-98890666D01*
X160455428Y-98890666D01*
X160552190Y-98939047D01*
X160600571Y-98987428D01*
X160648952Y-99084190D01*
X160648952Y-99326095D01*
X160600571Y-99422857D01*
X160552190Y-99471238D01*
X160455428Y-99519619D01*
X160165142Y-99519619D01*
X160068380Y-99471238D01*
X160020000Y-99422857D01*
X160987619Y-98842285D02*
X161229523Y-99519619D01*
X161471428Y-98842285D01*
X159239857Y-94693619D02*
X158756047Y-94693619D01*
X158707666Y-95177428D01*
X158756047Y-95129047D01*
X158852809Y-95080666D01*
X159094714Y-95080666D01*
X159191476Y-95129047D01*
X159239857Y-95177428D01*
X159288238Y-95274190D01*
X159288238Y-95516095D01*
X159239857Y-95612857D01*
X159191476Y-95661238D01*
X159094714Y-95709619D01*
X158852809Y-95709619D01*
X158756047Y-95661238D01*
X158707666Y-95612857D01*
X159626904Y-95032285D02*
X159868809Y-95709619D01*
X160110714Y-95032285D01*
X159439428Y-91899619D02*
X158858857Y-91899619D01*
X159149142Y-91899619D02*
X159149142Y-90883619D01*
X159052380Y-91028761D01*
X158955619Y-91125523D01*
X158858857Y-91173904D01*
X159826476Y-90980380D02*
X159874857Y-90932000D01*
X159971619Y-90883619D01*
X160213523Y-90883619D01*
X160310285Y-90932000D01*
X160358666Y-90980380D01*
X160407047Y-91077142D01*
X160407047Y-91173904D01*
X160358666Y-91319047D01*
X159778095Y-91899619D01*
X160407047Y-91899619D01*
X160745714Y-91222285D02*
X160987619Y-91899619D01*
X161229523Y-91222285D01*
D10*
X148590000Y-88900000D02*
X148590000Y-109855000D01*
D11*
X102683571Y-98734285D02*
X102683571Y-97805714D01*
X103255000Y-98305714D01*
X103255000Y-98091428D01*
X103326428Y-97948571D01*
X103397857Y-97877142D01*
X103540714Y-97805714D01*
X103897857Y-97805714D01*
X104040714Y-97877142D01*
X104112142Y-97948571D01*
X104183571Y-98091428D01*
X104183571Y-98520000D01*
X104112142Y-98662857D01*
X104040714Y-98734285D01*
X104040714Y-97162857D02*
X104112142Y-97091428D01*
X104183571Y-97162857D01*
X104112142Y-97234285D01*
X104040714Y-97162857D01*
X104183571Y-97162857D01*
X102683571Y-96591428D02*
X102683571Y-95662857D01*
X103255000Y-96162857D01*
X103255000Y-95948571D01*
X103326428Y-95805714D01*
X103397857Y-95734285D01*
X103540714Y-95662857D01*
X103897857Y-95662857D01*
X104040714Y-95734285D01*
X104112142Y-95805714D01*
X104183571Y-95948571D01*
X104183571Y-96377142D01*
X104112142Y-96520000D01*
X104040714Y-96591428D01*
X102683571Y-95234285D02*
X104183571Y-94734285D01*
X102683571Y-94234285D01*
X80657285Y-134013571D02*
X80157285Y-133299285D01*
X79800142Y-134013571D02*
X79800142Y-132513571D01*
X80371571Y-132513571D01*
X80514428Y-132585000D01*
X80585857Y-132656428D01*
X80657285Y-132799285D01*
X80657285Y-133013571D01*
X80585857Y-133156428D01*
X80514428Y-133227857D01*
X80371571Y-133299285D01*
X79800142Y-133299285D01*
X81943000Y-134013571D02*
X81943000Y-133227857D01*
X81871571Y-133085000D01*
X81728714Y-133013571D01*
X81443000Y-133013571D01*
X81300142Y-133085000D01*
X81943000Y-133942142D02*
X81800142Y-134013571D01*
X81443000Y-134013571D01*
X81300142Y-133942142D01*
X81228714Y-133799285D01*
X81228714Y-133656428D01*
X81300142Y-133513571D01*
X81443000Y-133442142D01*
X81800142Y-133442142D01*
X81943000Y-133370714D01*
X82585857Y-133942142D02*
X82728714Y-134013571D01*
X83014428Y-134013571D01*
X83157285Y-133942142D01*
X83228714Y-133799285D01*
X83228714Y-133727857D01*
X83157285Y-133585000D01*
X83014428Y-133513571D01*
X82800142Y-133513571D01*
X82657285Y-133442142D01*
X82585857Y-133299285D01*
X82585857Y-133227857D01*
X82657285Y-133085000D01*
X82800142Y-133013571D01*
X83014428Y-133013571D01*
X83157285Y-133085000D01*
X83871571Y-133013571D02*
X83871571Y-134513571D01*
X83871571Y-133085000D02*
X84014428Y-133013571D01*
X84300142Y-133013571D01*
X84443000Y-133085000D01*
X84514428Y-133156428D01*
X84585857Y-133299285D01*
X84585857Y-133727857D01*
X84514428Y-133870714D01*
X84443000Y-133942142D01*
X84300142Y-134013571D01*
X84014428Y-134013571D01*
X83871571Y-133942142D01*
X85228714Y-134013571D02*
X85228714Y-132513571D01*
X85228714Y-133085000D02*
X85371571Y-133013571D01*
X85657285Y-133013571D01*
X85800142Y-133085000D01*
X85871571Y-133156428D01*
X85943000Y-133299285D01*
X85943000Y-133727857D01*
X85871571Y-133870714D01*
X85800142Y-133942142D01*
X85657285Y-134013571D01*
X85371571Y-134013571D01*
X85228714Y-133942142D01*
X87157285Y-133942142D02*
X87014428Y-134013571D01*
X86728714Y-134013571D01*
X86585857Y-133942142D01*
X86514428Y-133799285D01*
X86514428Y-133227857D01*
X86585857Y-133085000D01*
X86728714Y-133013571D01*
X87014428Y-133013571D01*
X87157285Y-133085000D01*
X87228714Y-133227857D01*
X87228714Y-133370714D01*
X86514428Y-133513571D01*
X87871571Y-134013571D02*
X87871571Y-133013571D01*
X87871571Y-133299285D02*
X87943000Y-133156428D01*
X88014428Y-133085000D01*
X88157285Y-133013571D01*
X88300142Y-133013571D01*
X88800142Y-134013571D02*
X88800142Y-133013571D01*
X88800142Y-133299285D02*
X88871571Y-133156428D01*
X88943000Y-133085000D01*
X89085857Y-133013571D01*
X89228714Y-133013571D01*
X89585857Y-133013571D02*
X89943000Y-134013571D01*
X90300142Y-133013571D02*
X89943000Y-134013571D01*
X89800142Y-134370714D01*
X89728714Y-134442142D01*
X89585857Y-134513571D01*
X92014428Y-134013571D02*
X92014428Y-132513571D01*
X92585857Y-132513571D01*
X92728714Y-132585000D01*
X92800142Y-132656428D01*
X92871571Y-132799285D01*
X92871571Y-133013571D01*
X92800142Y-133156428D01*
X92728714Y-133227857D01*
X92585857Y-133299285D01*
X92014428Y-133299285D01*
X93514428Y-134013571D02*
X93514428Y-133013571D01*
X93514428Y-132513571D02*
X93443000Y-132585000D01*
X93514428Y-132656428D01*
X93585857Y-132585000D01*
X93514428Y-132513571D01*
X93514428Y-132656428D01*
X95871571Y-133227857D02*
X96085857Y-133299285D01*
X96157285Y-133370714D01*
X96228714Y-133513571D01*
X96228714Y-133727857D01*
X96157285Y-133870714D01*
X96085857Y-133942142D01*
X95943000Y-134013571D01*
X95371571Y-134013571D01*
X95371571Y-132513571D01*
X95871571Y-132513571D01*
X96014428Y-132585000D01*
X96085857Y-132656428D01*
X96157285Y-132799285D01*
X96157285Y-132942142D01*
X96085857Y-133085000D01*
X96014428Y-133156428D01*
X95871571Y-133227857D01*
X95371571Y-133227857D01*
X96871571Y-134013571D02*
X96871571Y-133013571D01*
X96871571Y-133299285D02*
X96943000Y-133156428D01*
X97014428Y-133085000D01*
X97157285Y-133013571D01*
X97300142Y-133013571D01*
X98371571Y-133942142D02*
X98228714Y-134013571D01*
X97943000Y-134013571D01*
X97800142Y-133942142D01*
X97728714Y-133799285D01*
X97728714Y-133227857D01*
X97800142Y-133085000D01*
X97943000Y-133013571D01*
X98228714Y-133013571D01*
X98371571Y-133085000D01*
X98443000Y-133227857D01*
X98443000Y-133370714D01*
X97728714Y-133513571D01*
X99728714Y-134013571D02*
X99728714Y-133227857D01*
X99657285Y-133085000D01*
X99514428Y-133013571D01*
X99228714Y-133013571D01*
X99085857Y-133085000D01*
X99728714Y-133942142D02*
X99585857Y-134013571D01*
X99228714Y-134013571D01*
X99085857Y-133942142D01*
X99014428Y-133799285D01*
X99014428Y-133656428D01*
X99085857Y-133513571D01*
X99228714Y-133442142D01*
X99585857Y-133442142D01*
X99728714Y-133370714D01*
X100443000Y-134013571D02*
X100443000Y-132513571D01*
X100585857Y-133442142D02*
X101014428Y-134013571D01*
X101014428Y-133013571D02*
X100443000Y-133585000D01*
X101871571Y-134013571D02*
X101728714Y-133942142D01*
X101657285Y-133870714D01*
X101585857Y-133727857D01*
X101585857Y-133299285D01*
X101657285Y-133156428D01*
X101728714Y-133085000D01*
X101871571Y-133013571D01*
X102085857Y-133013571D01*
X102228714Y-133085000D01*
X102300142Y-133156428D01*
X102371571Y-133299285D01*
X102371571Y-133727857D01*
X102300142Y-133870714D01*
X102228714Y-133942142D01*
X102085857Y-134013571D01*
X101871571Y-134013571D01*
X103657285Y-133013571D02*
X103657285Y-134013571D01*
X103014428Y-133013571D02*
X103014428Y-133799285D01*
X103085857Y-133942142D01*
X103228714Y-134013571D01*
X103443000Y-134013571D01*
X103585857Y-133942142D01*
X103657285Y-133870714D01*
X104157285Y-133013571D02*
X104728714Y-133013571D01*
X104371571Y-132513571D02*
X104371571Y-133799285D01*
X104443000Y-133942142D01*
X104585857Y-134013571D01*
X104728714Y-134013571D01*
X105300142Y-133942142D02*
X105300142Y-134013571D01*
X105228714Y-134156428D01*
X105157285Y-134227857D01*
X107943000Y-134013571D02*
X107443000Y-133299285D01*
X107085857Y-134013571D02*
X107085857Y-132513571D01*
X107657285Y-132513571D01*
X107800142Y-132585000D01*
X107871571Y-132656428D01*
X107943000Y-132799285D01*
X107943000Y-133013571D01*
X107871571Y-133156428D01*
X107800142Y-133227857D01*
X107657285Y-133299285D01*
X107085857Y-133299285D01*
X109157285Y-133942142D02*
X109014428Y-134013571D01*
X108728714Y-134013571D01*
X108585857Y-133942142D01*
X108514428Y-133799285D01*
X108514428Y-133227857D01*
X108585857Y-133085000D01*
X108728714Y-133013571D01*
X109014428Y-133013571D01*
X109157285Y-133085000D01*
X109228714Y-133227857D01*
X109228714Y-133370714D01*
X108514428Y-133513571D01*
X109728714Y-133013571D02*
X110085857Y-134013571D01*
X110443000Y-133013571D01*
X112085857Y-132656428D02*
X112157285Y-132585000D01*
X112300142Y-132513571D01*
X112657285Y-132513571D01*
X112800142Y-132585000D01*
X112871571Y-132656428D01*
X112943000Y-132799285D01*
X112943000Y-132942142D01*
X112871571Y-133156428D01*
X112014428Y-134013571D01*
X112943000Y-134013571D01*
X79800142Y-136563571D02*
X79800142Y-135063571D01*
X80300142Y-136135000D01*
X80800142Y-135063571D01*
X80800142Y-136563571D01*
X82157285Y-136563571D02*
X82157285Y-135777857D01*
X82085857Y-135635000D01*
X81943000Y-135563571D01*
X81657285Y-135563571D01*
X81514428Y-135635000D01*
X82157285Y-136492142D02*
X82014428Y-136563571D01*
X81657285Y-136563571D01*
X81514428Y-136492142D01*
X81443000Y-136349285D01*
X81443000Y-136206428D01*
X81514428Y-136063571D01*
X81657285Y-135992142D01*
X82014428Y-135992142D01*
X82157285Y-135920714D01*
X82871571Y-136563571D02*
X82871571Y-135563571D01*
X82871571Y-135849285D02*
X82943000Y-135706428D01*
X83014428Y-135635000D01*
X83157285Y-135563571D01*
X83300142Y-135563571D01*
X83728714Y-136492142D02*
X83871571Y-136563571D01*
X84157285Y-136563571D01*
X84300142Y-136492142D01*
X84371571Y-136349285D01*
X84371571Y-136277857D01*
X84300142Y-136135000D01*
X84157285Y-136063571D01*
X83943000Y-136063571D01*
X83800142Y-135992142D01*
X83728714Y-135849285D01*
X83728714Y-135777857D01*
X83800142Y-135635000D01*
X83943000Y-135563571D01*
X84157285Y-135563571D01*
X84300142Y-135635000D01*
X87014428Y-136563571D02*
X86514428Y-135849285D01*
X86157285Y-136563571D02*
X86157285Y-135063571D01*
X86728714Y-135063571D01*
X86871571Y-135135000D01*
X86943000Y-135206428D01*
X87014428Y-135349285D01*
X87014428Y-135563571D01*
X86943000Y-135706428D01*
X86871571Y-135777857D01*
X86728714Y-135849285D01*
X86157285Y-135849285D01*
X87871571Y-136563571D02*
X87728714Y-136492142D01*
X87657285Y-136420714D01*
X87585857Y-136277857D01*
X87585857Y-135849285D01*
X87657285Y-135706428D01*
X87728714Y-135635000D01*
X87871571Y-135563571D01*
X88085857Y-135563571D01*
X88228714Y-135635000D01*
X88300142Y-135706428D01*
X88371571Y-135849285D01*
X88371571Y-136277857D01*
X88300142Y-136420714D01*
X88228714Y-136492142D01*
X88085857Y-136563571D01*
X87871571Y-136563571D01*
X88871571Y-135563571D02*
X89228714Y-136563571D01*
X89585857Y-135563571D01*
X90728714Y-136492142D02*
X90585857Y-136563571D01*
X90300142Y-136563571D01*
X90157285Y-136492142D01*
X90085857Y-136349285D01*
X90085857Y-135777857D01*
X90157285Y-135635000D01*
X90300142Y-135563571D01*
X90585857Y-135563571D01*
X90728714Y-135635000D01*
X90800142Y-135777857D01*
X90800142Y-135920714D01*
X90085857Y-136063571D01*
X91443000Y-136563571D02*
X91443000Y-135563571D01*
X91443000Y-135849285D02*
X91514428Y-135706428D01*
X91585857Y-135635000D01*
X91728714Y-135563571D01*
X91871571Y-135563571D01*
X93514428Y-136563571D02*
X93514428Y-135063571D01*
X93871571Y-135063571D01*
X94085857Y-135135000D01*
X94228714Y-135277857D01*
X94300142Y-135420714D01*
X94371571Y-135706428D01*
X94371571Y-135920714D01*
X94300142Y-136206428D01*
X94228714Y-136349285D01*
X94085857Y-136492142D01*
X93871571Y-136563571D01*
X93514428Y-136563571D01*
X95585857Y-136492142D02*
X95443000Y-136563571D01*
X95157285Y-136563571D01*
X95014428Y-136492142D01*
X94943000Y-136349285D01*
X94943000Y-135777857D01*
X95014428Y-135635000D01*
X95157285Y-135563571D01*
X95443000Y-135563571D01*
X95585857Y-135635000D01*
X95657285Y-135777857D01*
X95657285Y-135920714D01*
X94943000Y-136063571D01*
X96228714Y-136492142D02*
X96371571Y-136563571D01*
X96657285Y-136563571D01*
X96800142Y-136492142D01*
X96871571Y-136349285D01*
X96871571Y-136277857D01*
X96800142Y-136135000D01*
X96657285Y-136063571D01*
X96443000Y-136063571D01*
X96300142Y-135992142D01*
X96228714Y-135849285D01*
X96228714Y-135777857D01*
X96300142Y-135635000D01*
X96443000Y-135563571D01*
X96657285Y-135563571D01*
X96800142Y-135635000D01*
X97514428Y-136563571D02*
X97514428Y-135563571D01*
X97514428Y-135063571D02*
X97443000Y-135135000D01*
X97514428Y-135206428D01*
X97585857Y-135135000D01*
X97514428Y-135063571D01*
X97514428Y-135206428D01*
X98871571Y-135563571D02*
X98871571Y-136777857D01*
X98800142Y-136920714D01*
X98728714Y-136992142D01*
X98585857Y-137063571D01*
X98371571Y-137063571D01*
X98228714Y-136992142D01*
X98871571Y-136492142D02*
X98728714Y-136563571D01*
X98443000Y-136563571D01*
X98300142Y-136492142D01*
X98228714Y-136420714D01*
X98157285Y-136277857D01*
X98157285Y-135849285D01*
X98228714Y-135706428D01*
X98300142Y-135635000D01*
X98443000Y-135563571D01*
X98728714Y-135563571D01*
X98871571Y-135635000D01*
X99585857Y-135563571D02*
X99585857Y-136563571D01*
X99585857Y-135706428D02*
X99657285Y-135635000D01*
X99800142Y-135563571D01*
X100014428Y-135563571D01*
X100157285Y-135635000D01*
X100228714Y-135777857D01*
X100228714Y-136563571D01*
X101871571Y-135063571D02*
X102728714Y-135063571D01*
X102300142Y-136563571D02*
X102300142Y-135063571D01*
X103800142Y-136492142D02*
X103657285Y-136563571D01*
X103371571Y-136563571D01*
X103228714Y-136492142D01*
X103157285Y-136349285D01*
X103157285Y-135777857D01*
X103228714Y-135635000D01*
X103371571Y-135563571D01*
X103657285Y-135563571D01*
X103800142Y-135635000D01*
X103871571Y-135777857D01*
X103871571Y-135920714D01*
X103157285Y-136063571D01*
X105157285Y-136563571D02*
X105157285Y-135777857D01*
X105085857Y-135635000D01*
X104943000Y-135563571D01*
X104657285Y-135563571D01*
X104514428Y-135635000D01*
X105157285Y-136492142D02*
X105014428Y-136563571D01*
X104657285Y-136563571D01*
X104514428Y-136492142D01*
X104443000Y-136349285D01*
X104443000Y-136206428D01*
X104514428Y-136063571D01*
X104657285Y-135992142D01*
X105014428Y-135992142D01*
X105157285Y-135920714D01*
X105871571Y-136563571D02*
X105871571Y-135563571D01*
X105871571Y-135706428D02*
X105943000Y-135635000D01*
X106085857Y-135563571D01*
X106300142Y-135563571D01*
X106443000Y-135635000D01*
X106514428Y-135777857D01*
X106514428Y-136563571D01*
X106514428Y-135777857D02*
X106585857Y-135635000D01*
X106728714Y-135563571D01*
X106943000Y-135563571D01*
X107085857Y-135635000D01*
X107157285Y-135777857D01*
X107157285Y-136563571D01*
X79800142Y-139113571D02*
X79800142Y-137613571D01*
X80300142Y-138685000D01*
X80800142Y-137613571D01*
X80800142Y-139113571D01*
X81514428Y-139113571D02*
X81514428Y-138113571D01*
X81514428Y-137613571D02*
X81443000Y-137685000D01*
X81514428Y-137756428D01*
X81585857Y-137685000D01*
X81514428Y-137613571D01*
X81514428Y-137756428D01*
X82157285Y-139042142D02*
X82300142Y-139113571D01*
X82585857Y-139113571D01*
X82728714Y-139042142D01*
X82800142Y-138899285D01*
X82800142Y-138827857D01*
X82728714Y-138685000D01*
X82585857Y-138613571D01*
X82371571Y-138613571D01*
X82228714Y-138542142D01*
X82157285Y-138399285D01*
X82157285Y-138327857D01*
X82228714Y-138185000D01*
X82371571Y-138113571D01*
X82585857Y-138113571D01*
X82728714Y-138185000D01*
X83371571Y-139042142D02*
X83514428Y-139113571D01*
X83800142Y-139113571D01*
X83943000Y-139042142D01*
X84014428Y-138899285D01*
X84014428Y-138827857D01*
X83943000Y-138685000D01*
X83800142Y-138613571D01*
X83585857Y-138613571D01*
X83443000Y-138542142D01*
X83371571Y-138399285D01*
X83371571Y-138327857D01*
X83443000Y-138185000D01*
X83585857Y-138113571D01*
X83800142Y-138113571D01*
X83943000Y-138185000D01*
X84871571Y-139113571D02*
X84728714Y-139042142D01*
X84657285Y-138970714D01*
X84585857Y-138827857D01*
X84585857Y-138399285D01*
X84657285Y-138256428D01*
X84728714Y-138185000D01*
X84871571Y-138113571D01*
X85085857Y-138113571D01*
X85228714Y-138185000D01*
X85300142Y-138256428D01*
X85371571Y-138399285D01*
X85371571Y-138827857D01*
X85300142Y-138970714D01*
X85228714Y-139042142D01*
X85085857Y-139113571D01*
X84871571Y-139113571D01*
X86657285Y-138113571D02*
X86657285Y-139113571D01*
X86014428Y-138113571D02*
X86014428Y-138899285D01*
X86085857Y-139042142D01*
X86228714Y-139113571D01*
X86443000Y-139113571D01*
X86585857Y-139042142D01*
X86657285Y-138970714D01*
X87371571Y-139113571D02*
X87371571Y-138113571D01*
X87371571Y-138399285D02*
X87443000Y-138256428D01*
X87514428Y-138185000D01*
X87657285Y-138113571D01*
X87800142Y-138113571D01*
X88300142Y-139113571D02*
X88300142Y-138113571D01*
X88300142Y-137613571D02*
X88228714Y-137685000D01*
X88300142Y-137756428D01*
X88371571Y-137685000D01*
X88300142Y-137613571D01*
X88300142Y-137756428D01*
X90085857Y-139042142D02*
X90300142Y-139113571D01*
X90657285Y-139113571D01*
X90800142Y-139042142D01*
X90871571Y-138970714D01*
X90943000Y-138827857D01*
X90943000Y-138685000D01*
X90871571Y-138542142D01*
X90800142Y-138470714D01*
X90657285Y-138399285D01*
X90371571Y-138327857D01*
X90228714Y-138256428D01*
X90157285Y-138185000D01*
X90085857Y-138042142D01*
X90085857Y-137899285D01*
X90157285Y-137756428D01*
X90228714Y-137685000D01*
X90371571Y-137613571D01*
X90728714Y-137613571D01*
X90943000Y-137685000D01*
X92800142Y-139113571D02*
X92728714Y-139113571D01*
X92585857Y-139042142D01*
X92371571Y-138827857D01*
X92014428Y-138399285D01*
X91871571Y-138185000D01*
X91800142Y-137970714D01*
X91800142Y-137827857D01*
X91871571Y-137685000D01*
X92014428Y-137613571D01*
X92085857Y-137613571D01*
X92228714Y-137685000D01*
X92300142Y-137827857D01*
X92300142Y-137899285D01*
X92228714Y-138042142D01*
X92157285Y-138113571D01*
X91728714Y-138399285D01*
X91657285Y-138470714D01*
X91585857Y-138613571D01*
X91585857Y-138827857D01*
X91657285Y-138970714D01*
X91728714Y-139042142D01*
X91871571Y-139113571D01*
X92085857Y-139113571D01*
X92228714Y-139042142D01*
X92300142Y-138970714D01*
X92514428Y-138685000D01*
X92585857Y-138470714D01*
X92585857Y-138327857D01*
X93228714Y-137613571D02*
X94085857Y-137613571D01*
X93657285Y-139113571D02*
X93657285Y-137613571D01*
X94657285Y-139042142D02*
X94657285Y-139113571D01*
X94585857Y-139256428D01*
X94514428Y-139327857D01*
X96371571Y-137756428D02*
X96443000Y-137685000D01*
X96585857Y-137613571D01*
X96943000Y-137613571D01*
X97085857Y-137685000D01*
X97157285Y-137756428D01*
X97228714Y-137899285D01*
X97228714Y-138042142D01*
X97157285Y-138256428D01*
X96300142Y-139113571D01*
X97228714Y-139113571D01*
X98157285Y-137613571D02*
X98300142Y-137613571D01*
X98443000Y-137685000D01*
X98514428Y-137756428D01*
X98585857Y-137899285D01*
X98657285Y-138185000D01*
X98657285Y-138542142D01*
X98585857Y-138827857D01*
X98514428Y-138970714D01*
X98443000Y-139042142D01*
X98300142Y-139113571D01*
X98157285Y-139113571D01*
X98014428Y-139042142D01*
X97943000Y-138970714D01*
X97871571Y-138827857D01*
X97800142Y-138542142D01*
X97800142Y-138185000D01*
X97871571Y-137899285D01*
X97943000Y-137756428D01*
X98014428Y-137685000D01*
X98157285Y-137613571D01*
X100085857Y-139113571D02*
X99228714Y-139113571D01*
X99657285Y-139113571D02*
X99657285Y-137613571D01*
X99514428Y-137827857D01*
X99371571Y-137970714D01*
X99228714Y-138042142D01*
X100800142Y-139113571D02*
X101085857Y-139113571D01*
X101228714Y-139042142D01*
X101300142Y-138970714D01*
X101443000Y-138756428D01*
X101514428Y-138470714D01*
X101514428Y-137899285D01*
X101443000Y-137756428D01*
X101371571Y-137685000D01*
X101228714Y-137613571D01*
X100943000Y-137613571D01*
X100800142Y-137685000D01*
X100728714Y-137756428D01*
X100657285Y-137899285D01*
X100657285Y-138256428D01*
X100728714Y-138399285D01*
X100800142Y-138470714D01*
X100943000Y-138542142D01*
X101228714Y-138542142D01*
X101371571Y-138470714D01*
X101443000Y-138399285D01*
X101514428Y-138256428D01*
X79657285Y-140163571D02*
X80657285Y-140163571D01*
X79657285Y-141663571D01*
X80657285Y-141663571D01*
X81871571Y-141663571D02*
X81871571Y-140877857D01*
X81800142Y-140735000D01*
X81657285Y-140663571D01*
X81371571Y-140663571D01*
X81228714Y-140735000D01*
X81871571Y-141592142D02*
X81728714Y-141663571D01*
X81371571Y-141663571D01*
X81228714Y-141592142D01*
X81157285Y-141449285D01*
X81157285Y-141306428D01*
X81228714Y-141163571D01*
X81371571Y-141092142D01*
X81728714Y-141092142D01*
X81871571Y-141020714D01*
X82585857Y-141663571D02*
X82585857Y-140163571D01*
X82728714Y-141092142D02*
X83157285Y-141663571D01*
X83157285Y-140663571D02*
X82585857Y-141235000D01*
X85443000Y-140877857D02*
X85657285Y-140949285D01*
X85728714Y-141020714D01*
X85800142Y-141163571D01*
X85800142Y-141377857D01*
X85728714Y-141520714D01*
X85657285Y-141592142D01*
X85514428Y-141663571D01*
X84943000Y-141663571D01*
X84943000Y-140163571D01*
X85443000Y-140163571D01*
X85585857Y-140235000D01*
X85657285Y-140306428D01*
X85728714Y-140449285D01*
X85728714Y-140592142D01*
X85657285Y-140735000D01*
X85585857Y-140806428D01*
X85443000Y-140877857D01*
X84943000Y-140877857D01*
X86443000Y-141663571D02*
X86443000Y-140663571D01*
X86443000Y-140949285D02*
X86514428Y-140806428D01*
X86585857Y-140735000D01*
X86728714Y-140663571D01*
X86871571Y-140663571D01*
X87585857Y-141663571D02*
X87443000Y-141592142D01*
X87371571Y-141520714D01*
X87300142Y-141377857D01*
X87300142Y-140949285D01*
X87371571Y-140806428D01*
X87443000Y-140735000D01*
X87585857Y-140663571D01*
X87800142Y-140663571D01*
X87943000Y-140735000D01*
X88014428Y-140806428D01*
X88085857Y-140949285D01*
X88085857Y-141377857D01*
X88014428Y-141520714D01*
X87943000Y-141592142D01*
X87800142Y-141663571D01*
X87585857Y-141663571D01*
X88943000Y-141663571D02*
X88800142Y-141592142D01*
X88728714Y-141520714D01*
X88657285Y-141377857D01*
X88657285Y-140949285D01*
X88728714Y-140806428D01*
X88800142Y-140735000D01*
X88943000Y-140663571D01*
X89157285Y-140663571D01*
X89300142Y-140735000D01*
X89371571Y-140806428D01*
X89443000Y-140949285D01*
X89443000Y-141377857D01*
X89371571Y-141520714D01*
X89300142Y-141592142D01*
X89157285Y-141663571D01*
X88943000Y-141663571D01*
X90085857Y-141663571D02*
X90085857Y-140163571D01*
X90228714Y-141092142D02*
X90657285Y-141663571D01*
X90657285Y-140663571D02*
X90085857Y-141235000D01*
X91228714Y-141592142D02*
X91371571Y-141663571D01*
X91657285Y-141663571D01*
X91800142Y-141592142D01*
X91871571Y-141449285D01*
X91871571Y-141377857D01*
X91800142Y-141235000D01*
X91657285Y-141163571D01*
X91443000Y-141163571D01*
X91300142Y-141092142D01*
X91228714Y-140949285D01*
X91228714Y-140877857D01*
X91300142Y-140735000D01*
X91443000Y-140663571D01*
X91657285Y-140663571D01*
X91800142Y-140735000D01*
X129091428Y-96869285D02*
X129091428Y-96155000D01*
X128377142Y-96083571D01*
X128448571Y-96155000D01*
X128520000Y-96297857D01*
X128520000Y-96655000D01*
X128448571Y-96797857D01*
X128377142Y-96869285D01*
X128234285Y-96940714D01*
X127877142Y-96940714D01*
X127734285Y-96869285D01*
X127662857Y-96797857D01*
X127591428Y-96655000D01*
X127591428Y-96297857D01*
X127662857Y-96155000D01*
X127734285Y-96083571D01*
X129091428Y-97369285D02*
X127591428Y-97869285D01*
X129091428Y-98369285D01*
D13*
G04 #@! TO.C,C1*
X118676267Y-105535000D02*
X118333733Y-105535000D01*
X118676267Y-106555000D02*
X118333733Y-106555000D01*
G04 #@! TO.C,C2*
X125163733Y-106555000D02*
X125506267Y-106555000D01*
X125163733Y-105535000D02*
X125506267Y-105535000D01*
D14*
G04 #@! TO.C,Conn1*
X70485000Y-77089000D02*
X82778600Y-77089000D01*
X58166000Y-77089000D02*
X65913000Y-77089000D01*
X65913000Y-92837000D02*
X58166000Y-92837000D01*
X70485000Y-92837000D02*
X82778600Y-92837000D01*
X69342000Y-84963000D02*
G75*
G03X69342000Y-84963000I-1143000J0D01*
G01*
X68199000Y-82677000D02*
X68199000Y-79400400D01*
X70485000Y-84963000D02*
X82778600Y-84963000D01*
X68199000Y-87249000D02*
X68199000Y-90551000D01*
X70485000Y-84963000D02*
X69342000Y-84963000D01*
X68199000Y-82677000D02*
X68199000Y-83820000D01*
X58166000Y-84937600D02*
X67056000Y-84937600D01*
X68199000Y-87249000D02*
X68199000Y-86106000D01*
X68199000Y-78232000D02*
X68199000Y-79400400D01*
X70459600Y-77089000D02*
X69367400Y-77089000D01*
X65887600Y-92837000D02*
X67056000Y-92837000D01*
X68199000Y-90525600D02*
X68199000Y-91694000D01*
X70510400Y-92837000D02*
X69316600Y-92837000D01*
X67056000Y-77089000D02*
G75*
G03X68199000Y-78232000I1143000J0D01*
G01*
X68199000Y-78232000D02*
G75*
G03X69342000Y-77089000I0J1143000D01*
G01*
X67056000Y-77089000D02*
X65836800Y-77089000D01*
X82778600Y-77089000D02*
X82778600Y-92837000D01*
X58140600Y-77089000D02*
X58140600Y-92837000D01*
X68199000Y-91719400D02*
G75*
G03X67081400Y-92837000I0J-1117600D01*
G01*
X69316600Y-92837000D02*
G75*
G03X68199000Y-91719400I-1117600J0D01*
G01*
G04 #@! TO.C,U1*
X116840000Y-104140000D02*
X116840000Y-87630000D01*
X127000000Y-87630000D02*
X127000000Y-104140000D01*
X116840000Y-87630000D02*
X127000000Y-87630000D01*
X116840000Y-104140000D02*
X127000000Y-104140000D01*
X119380000Y-91440000D02*
X124460000Y-91440000D01*
X116840000Y-93980000D02*
X119380000Y-91440000D01*
X116840000Y-99060000D02*
X116840000Y-93980000D01*
X119380000Y-101600000D02*
X116840000Y-99060000D01*
X124460000Y-101600000D02*
X119380000Y-101600000D01*
X127000000Y-99060000D02*
X124460000Y-101600000D01*
X127000000Y-93980000D02*
X127000000Y-99060000D01*
X124460000Y-91440000D02*
X127000000Y-93980000D01*
D13*
G04 #@! TO.C,C3*
X113098733Y-106555000D02*
X113441267Y-106555000D01*
X113098733Y-105535000D02*
X113441267Y-105535000D01*
G04 #@! TO.C,C4*
X106611267Y-106555000D02*
X106268733Y-106555000D01*
X106611267Y-105535000D02*
X106268733Y-105535000D01*
D14*
G04 #@! TO.C,Conn2*
X78740000Y-116840000D02*
X78740000Y-119380000D01*
X73152000Y-112395000D02*
X73152000Y-123825000D01*
X85090000Y-112395000D02*
X85090000Y-121920000D01*
X87630000Y-114300000D02*
X87630000Y-121920000D01*
X73152000Y-116840000D02*
X78740000Y-116840000D01*
X85090000Y-112395000D02*
X73152000Y-112395000D01*
X73152000Y-119380000D02*
X73660000Y-119380000D01*
X85090000Y-123825000D02*
X73152000Y-123825000D01*
X85090000Y-121920000D02*
X85090000Y-123825000D01*
X77470000Y-119380000D02*
X78740000Y-119380000D01*
X77470000Y-119380000D02*
X73660000Y-119380000D01*
X85090000Y-114300000D02*
X87630000Y-114300000D01*
X87630000Y-121920000D02*
X85090000Y-121920000D01*
G04 #@! TO.C,Conn3*
X73152000Y-109855000D02*
X73152000Y-95885000D01*
X78740000Y-105410000D02*
X78740000Y-100330000D01*
X78740000Y-101600000D02*
X81280000Y-101600000D01*
X81280000Y-101600000D02*
X81280000Y-104140000D01*
X73152000Y-100330000D02*
X78740000Y-100330000D01*
X85090000Y-95885000D02*
X73152000Y-95885000D01*
X87630000Y-97790000D02*
X87630000Y-107950000D01*
X73152000Y-105410000D02*
X73660000Y-105410000D01*
X85090000Y-109855000D02*
X73152000Y-109855000D01*
X85090000Y-107950000D02*
X85090000Y-109855000D01*
X77470000Y-105410000D02*
X78740000Y-105410000D01*
X77470000Y-105410000D02*
X73660000Y-105410000D01*
X78740000Y-104140000D02*
X81280000Y-104140000D01*
X85090000Y-107950000D02*
X85090000Y-95885000D01*
X85090000Y-97790000D02*
X87630000Y-97790000D01*
X87630000Y-107950000D02*
X85090000Y-107950000D01*
G04 #@! TO.C,U3*
X114935000Y-87630000D02*
X114935000Y-104140000D01*
X104775000Y-104140000D02*
X104775000Y-87630000D01*
X114935000Y-104140000D02*
X104775000Y-104140000D01*
X114935000Y-87630000D02*
X104775000Y-87630000D01*
X112395000Y-100330000D02*
X107315000Y-100330000D01*
X114935000Y-97790000D02*
X112395000Y-100330000D01*
X114935000Y-92710000D02*
X114935000Y-97790000D01*
X112395000Y-90170000D02*
X114935000Y-92710000D01*
X107315000Y-90170000D02*
X112395000Y-90170000D01*
X104775000Y-92710000D02*
X107315000Y-90170000D01*
X104775000Y-97790000D02*
X104775000Y-92710000D01*
X107315000Y-100330000D02*
X104775000Y-97790000D01*
D13*
G04 #@! TO.C,D1*
X155650000Y-92175000D02*
X158110000Y-92175000D01*
X158110000Y-92175000D02*
X158110000Y-90705000D01*
X158110000Y-90705000D02*
X155650000Y-90705000D01*
G04 #@! TO.C,D2*
X158110000Y-94515000D02*
X155650000Y-94515000D01*
X158110000Y-95985000D02*
X158110000Y-94515000D01*
X155650000Y-95985000D02*
X158110000Y-95985000D01*
G04 #@! TO.C,D3*
X155650000Y-99795000D02*
X158110000Y-99795000D01*
X158110000Y-99795000D02*
X158110000Y-98325000D01*
X158110000Y-98325000D02*
X155650000Y-98325000D01*
G04 #@! TO.C,D4*
X158110000Y-113565000D02*
X155650000Y-113565000D01*
X158110000Y-115035000D02*
X158110000Y-113565000D01*
X155650000Y-115035000D02*
X158110000Y-115035000D01*
G04 #@! TO.C,D5*
X155650000Y-111225000D02*
X158110000Y-111225000D01*
X158110000Y-111225000D02*
X158110000Y-109755000D01*
X158110000Y-109755000D02*
X155650000Y-109755000D01*
G04 #@! TO.C,R1*
X151198733Y-90930000D02*
X151541267Y-90930000D01*
X151198733Y-91950000D02*
X151541267Y-91950000D01*
G04 #@! TO.C,R2*
X151198733Y-95760000D02*
X151541267Y-95760000D01*
X151198733Y-94740000D02*
X151541267Y-94740000D01*
G04 #@! TO.C,R3*
X151198733Y-98550000D02*
X151541267Y-98550000D01*
X151198733Y-99570000D02*
X151541267Y-99570000D01*
G04 #@! TO.C,R4*
X151353733Y-114810000D02*
X151696267Y-114810000D01*
X151353733Y-113790000D02*
X151696267Y-113790000D01*
G04 #@! TO.C,R5*
X151353733Y-109980000D02*
X151696267Y-109980000D01*
X151353733Y-111000000D02*
X151696267Y-111000000D01*
G04 #@! TO.C,C5*
X109250241Y-80894000D02*
X109250241Y-80264000D01*
X109565241Y-80579000D02*
X108935241Y-80579000D01*
X102824000Y-79142000D02*
X102824000Y-78338000D01*
X102864000Y-79373000D02*
X102864000Y-78107000D01*
X102904000Y-79542000D02*
X102904000Y-77938000D01*
X102944000Y-79680000D02*
X102944000Y-77800000D01*
X102984000Y-79799000D02*
X102984000Y-77681000D01*
X103024000Y-79905000D02*
X103024000Y-77575000D01*
X103064000Y-80002000D02*
X103064000Y-77478000D01*
X103104000Y-80090000D02*
X103104000Y-77390000D01*
X103144000Y-80172000D02*
X103144000Y-77308000D01*
X103184000Y-80249000D02*
X103184000Y-77231000D01*
X103224000Y-80321000D02*
X103224000Y-77159000D01*
X103264000Y-80390000D02*
X103264000Y-77090000D01*
X103304000Y-80454000D02*
X103304000Y-77026000D01*
X103344000Y-80516000D02*
X103344000Y-76964000D01*
X103384000Y-80574000D02*
X103384000Y-76906000D01*
X103424000Y-80630000D02*
X103424000Y-76850000D01*
X103464000Y-80684000D02*
X103464000Y-76796000D01*
X103504000Y-80735000D02*
X103504000Y-76745000D01*
X103544000Y-80784000D02*
X103544000Y-76696000D01*
X103584000Y-80832000D02*
X103584000Y-76648000D01*
X103624000Y-80877000D02*
X103624000Y-76603000D01*
X103664000Y-80922000D02*
X103664000Y-76558000D01*
X103704000Y-80964000D02*
X103704000Y-76516000D01*
X103744000Y-81005000D02*
X103744000Y-76475000D01*
X103784000Y-77700000D02*
X103784000Y-76435000D01*
X103784000Y-81045000D02*
X103784000Y-79780000D01*
X103824000Y-77700000D02*
X103824000Y-76397000D01*
X103824000Y-81083000D02*
X103824000Y-79780000D01*
X103864000Y-77700000D02*
X103864000Y-76360000D01*
X103864000Y-81120000D02*
X103864000Y-79780000D01*
X103904000Y-77700000D02*
X103904000Y-76324000D01*
X103904000Y-81156000D02*
X103904000Y-79780000D01*
X103944000Y-77700000D02*
X103944000Y-76290000D01*
X103944000Y-81190000D02*
X103944000Y-79780000D01*
X103984000Y-77700000D02*
X103984000Y-76256000D01*
X103984000Y-81224000D02*
X103984000Y-79780000D01*
X104024000Y-77700000D02*
X104024000Y-76224000D01*
X104024000Y-81256000D02*
X104024000Y-79780000D01*
X104064000Y-77700000D02*
X104064000Y-76192000D01*
X104064000Y-81288000D02*
X104064000Y-79780000D01*
X104104000Y-77700000D02*
X104104000Y-76162000D01*
X104104000Y-81318000D02*
X104104000Y-79780000D01*
X104144000Y-77700000D02*
X104144000Y-76133000D01*
X104144000Y-81347000D02*
X104144000Y-79780000D01*
X104184000Y-77700000D02*
X104184000Y-76104000D01*
X104184000Y-81376000D02*
X104184000Y-79780000D01*
X104224000Y-77700000D02*
X104224000Y-76076000D01*
X104224000Y-81404000D02*
X104224000Y-79780000D01*
X104264000Y-77700000D02*
X104264000Y-76050000D01*
X104264000Y-81430000D02*
X104264000Y-79780000D01*
X104304000Y-77700000D02*
X104304000Y-76024000D01*
X104304000Y-81456000D02*
X104304000Y-79780000D01*
X104344000Y-77700000D02*
X104344000Y-75998000D01*
X104344000Y-81482000D02*
X104344000Y-79780000D01*
X104384000Y-77700000D02*
X104384000Y-75974000D01*
X104384000Y-81506000D02*
X104384000Y-79780000D01*
X104424000Y-77700000D02*
X104424000Y-75950000D01*
X104424000Y-81530000D02*
X104424000Y-79780000D01*
X104464000Y-77700000D02*
X104464000Y-75928000D01*
X104464000Y-81552000D02*
X104464000Y-79780000D01*
X104504000Y-77700000D02*
X104504000Y-75906000D01*
X104504000Y-81574000D02*
X104504000Y-79780000D01*
X104544000Y-77700000D02*
X104544000Y-75884000D01*
X104544000Y-81596000D02*
X104544000Y-79780000D01*
X104584000Y-77700000D02*
X104584000Y-75864000D01*
X104584000Y-81616000D02*
X104584000Y-79780000D01*
X104624000Y-77700000D02*
X104624000Y-75844000D01*
X104624000Y-81636000D02*
X104624000Y-79780000D01*
X104664000Y-77700000D02*
X104664000Y-75824000D01*
X104664000Y-81656000D02*
X104664000Y-79780000D01*
X104704000Y-77700000D02*
X104704000Y-75806000D01*
X104704000Y-81674000D02*
X104704000Y-79780000D01*
X104744000Y-77700000D02*
X104744000Y-75788000D01*
X104744000Y-81692000D02*
X104744000Y-79780000D01*
X104784000Y-77700000D02*
X104784000Y-75770000D01*
X104784000Y-81710000D02*
X104784000Y-79780000D01*
X104824000Y-77700000D02*
X104824000Y-75754000D01*
X104824000Y-81726000D02*
X104824000Y-79780000D01*
X104864000Y-77700000D02*
X104864000Y-75738000D01*
X104864000Y-81742000D02*
X104864000Y-79780000D01*
X104904000Y-77700000D02*
X104904000Y-75722000D01*
X104904000Y-81758000D02*
X104904000Y-79780000D01*
X104944000Y-77700000D02*
X104944000Y-75707000D01*
X104944000Y-81773000D02*
X104944000Y-79780000D01*
X104984000Y-77700000D02*
X104984000Y-75693000D01*
X104984000Y-81787000D02*
X104984000Y-79780000D01*
X105024000Y-77700000D02*
X105024000Y-75679000D01*
X105024000Y-81801000D02*
X105024000Y-79780000D01*
X105064000Y-77700000D02*
X105064000Y-75666000D01*
X105064000Y-81814000D02*
X105064000Y-79780000D01*
X105104000Y-77700000D02*
X105104000Y-75654000D01*
X105104000Y-81826000D02*
X105104000Y-79780000D01*
X105144000Y-77700000D02*
X105144000Y-75642000D01*
X105144000Y-81838000D02*
X105144000Y-79780000D01*
X105184000Y-77700000D02*
X105184000Y-75630000D01*
X105184000Y-81850000D02*
X105184000Y-79780000D01*
X105224000Y-77700000D02*
X105224000Y-75619000D01*
X105224000Y-81861000D02*
X105224000Y-79780000D01*
X105264000Y-77700000D02*
X105264000Y-75609000D01*
X105264000Y-81871000D02*
X105264000Y-79780000D01*
X105304000Y-77700000D02*
X105304000Y-75599000D01*
X105304000Y-81881000D02*
X105304000Y-79780000D01*
X105344000Y-77700000D02*
X105344000Y-75590000D01*
X105344000Y-81890000D02*
X105344000Y-79780000D01*
X105385000Y-77700000D02*
X105385000Y-75581000D01*
X105385000Y-81899000D02*
X105385000Y-79780000D01*
X105425000Y-77700000D02*
X105425000Y-75573000D01*
X105425000Y-81907000D02*
X105425000Y-79780000D01*
X105465000Y-77700000D02*
X105465000Y-75565000D01*
X105465000Y-81915000D02*
X105465000Y-79780000D01*
X105505000Y-77700000D02*
X105505000Y-75558000D01*
X105505000Y-81922000D02*
X105505000Y-79780000D01*
X105545000Y-77700000D02*
X105545000Y-75551000D01*
X105545000Y-81929000D02*
X105545000Y-79780000D01*
X105585000Y-77700000D02*
X105585000Y-75545000D01*
X105585000Y-81935000D02*
X105585000Y-79780000D01*
X105625000Y-77700000D02*
X105625000Y-75539000D01*
X105625000Y-81941000D02*
X105625000Y-79780000D01*
X105665000Y-77700000D02*
X105665000Y-75534000D01*
X105665000Y-81946000D02*
X105665000Y-79780000D01*
X105705000Y-77700000D02*
X105705000Y-75529000D01*
X105705000Y-81951000D02*
X105705000Y-79780000D01*
X105745000Y-77700000D02*
X105745000Y-75525000D01*
X105745000Y-81955000D02*
X105745000Y-79780000D01*
X105785000Y-77700000D02*
X105785000Y-75522000D01*
X105785000Y-81958000D02*
X105785000Y-79780000D01*
X105825000Y-77700000D02*
X105825000Y-75518000D01*
X105825000Y-81962000D02*
X105825000Y-79780000D01*
X105865000Y-81964000D02*
X105865000Y-75516000D01*
X105905000Y-81967000D02*
X105905000Y-75513000D01*
X105945000Y-81968000D02*
X105945000Y-75512000D01*
X105985000Y-81970000D02*
X105985000Y-75510000D01*
X106025000Y-81970000D02*
X106025000Y-75510000D01*
X106065000Y-81970000D02*
X106065000Y-75510000D01*
X109335000Y-78740000D02*
G75*
G03X109335000Y-78740000I-3270000J0D01*
G01*
G04 #@! TO.C,R6*
X90045000Y-102166267D02*
X90045000Y-101823733D01*
X89025000Y-102166267D02*
X89025000Y-101823733D01*
G04 #@! TO.C,R7*
X89025000Y-105821267D02*
X89025000Y-105478733D01*
X90045000Y-105821267D02*
X90045000Y-105478733D01*
G04 #@! TO.C,D6*
X155650000Y-107415000D02*
X158110000Y-107415000D01*
X158110000Y-107415000D02*
X158110000Y-105945000D01*
X158110000Y-105945000D02*
X155650000Y-105945000D01*
G04 #@! TO.C,D7*
X158110000Y-102135000D02*
X155650000Y-102135000D01*
X158110000Y-103605000D02*
X158110000Y-102135000D01*
X155650000Y-103605000D02*
X158110000Y-103605000D01*
G04 #@! TO.C,R8*
X151198733Y-107190000D02*
X151541267Y-107190000D01*
X151198733Y-106170000D02*
X151541267Y-106170000D01*
G04 #@! TO.C,R9*
X151198733Y-102360000D02*
X151541267Y-102360000D01*
X151198733Y-103380000D02*
X151541267Y-103380000D01*
D15*
G04 #@! TO.C,G\002A\002A\002A*
G36*
X193843896Y-130959364D02*
X193975117Y-130978290D01*
X194081956Y-131009351D01*
X194098253Y-131016407D01*
X194163655Y-131046715D01*
X194103513Y-131036541D01*
X193894196Y-131013066D01*
X193698137Y-131014629D01*
X193524244Y-131041134D01*
X193517063Y-131042916D01*
X193314424Y-131109555D01*
X193103259Y-131209412D01*
X192882850Y-131343073D01*
X192652476Y-131511123D01*
X192411416Y-131714149D01*
X192158951Y-131952738D01*
X191894360Y-132227476D01*
X191616922Y-132538949D01*
X191478674Y-132702039D01*
X191350595Y-132856726D01*
X191228234Y-133007569D01*
X191109674Y-133157339D01*
X190992997Y-133308810D01*
X190876286Y-133464751D01*
X190757623Y-133627936D01*
X190635092Y-133801136D01*
X190506773Y-133987123D01*
X190370751Y-134188669D01*
X190225107Y-134408545D01*
X190067924Y-134649524D01*
X189897284Y-134914377D01*
X189711270Y-135205876D01*
X189507965Y-135526793D01*
X189337114Y-135797783D01*
X188947504Y-136426057D01*
X188572770Y-137048898D01*
X188218937Y-137656254D01*
X188129886Y-137812542D01*
X188049409Y-137953746D01*
X187956172Y-138116150D01*
X187857853Y-138286458D01*
X187762127Y-138451373D01*
X187678135Y-138595103D01*
X187594477Y-138738510D01*
X187502709Y-138897325D01*
X187409914Y-139059192D01*
X187323173Y-139211754D01*
X187249570Y-139342655D01*
X187247215Y-139346879D01*
X187183738Y-139460571D01*
X187123519Y-139568068D01*
X187070564Y-139662244D01*
X187028882Y-139735974D01*
X187002476Y-139782135D01*
X187001645Y-139783564D01*
X186951215Y-139870135D01*
X186873388Y-139663280D01*
X186832568Y-139560977D01*
X186781818Y-139443482D01*
X186723684Y-139315792D01*
X186660713Y-139182899D01*
X186595450Y-139049801D01*
X186530441Y-138921490D01*
X186468233Y-138802962D01*
X186411371Y-138699212D01*
X186362402Y-138615235D01*
X186323871Y-138556025D01*
X186298324Y-138526577D01*
X186292774Y-138524223D01*
X186279304Y-138540984D01*
X186250388Y-138587461D01*
X186209363Y-138657947D01*
X186159563Y-138746734D01*
X186114112Y-138829945D01*
X186040723Y-138965318D01*
X185962028Y-139109554D01*
X185880422Y-139258346D01*
X185798303Y-139407386D01*
X185718068Y-139552364D01*
X185642113Y-139688974D01*
X185572834Y-139812907D01*
X185512629Y-139919855D01*
X185463894Y-140005510D01*
X185429026Y-140065564D01*
X185410421Y-140095708D01*
X185408709Y-140097940D01*
X185407319Y-140089140D01*
X185417975Y-140049615D01*
X185438652Y-139986184D01*
X185459332Y-139927538D01*
X185509554Y-139789544D01*
X185565380Y-139637317D01*
X185625214Y-139475107D01*
X185687461Y-139307163D01*
X185750526Y-139137736D01*
X185812812Y-138971076D01*
X185872723Y-138811433D01*
X185928665Y-138663057D01*
X185979041Y-138530198D01*
X186022256Y-138417105D01*
X186056713Y-138328030D01*
X186080819Y-138267222D01*
X186092976Y-138238931D01*
X186093836Y-138237546D01*
X186110745Y-138245386D01*
X186142460Y-138280479D01*
X186182907Y-138335849D01*
X186194178Y-138352819D01*
X186235994Y-138414621D01*
X186270076Y-138460624D01*
X186290325Y-138482712D01*
X186292410Y-138483555D01*
X186305103Y-138466489D01*
X186333639Y-138419000D01*
X186375163Y-138346134D01*
X186426823Y-138252939D01*
X186485766Y-138144459D01*
X186515588Y-138088851D01*
X186585820Y-137958087D01*
X186669905Y-137802714D01*
X186762172Y-137633138D01*
X186856949Y-137459770D01*
X186948564Y-137293017D01*
X187004173Y-137192305D01*
X187084896Y-137046217D01*
X187179719Y-136874200D01*
X187283546Y-136685526D01*
X187391279Y-136489465D01*
X187497823Y-136295289D01*
X187598080Y-136112269D01*
X187633032Y-136048375D01*
X187795475Y-135753646D01*
X187955033Y-135468741D01*
X188109976Y-135196559D01*
X188258576Y-134939999D01*
X188399105Y-134701962D01*
X188529834Y-134485346D01*
X188649035Y-134293052D01*
X188754980Y-134127979D01*
X188845941Y-133993026D01*
X188914645Y-133898303D01*
X189010883Y-133782260D01*
X189096714Y-133698827D01*
X189170716Y-133648797D01*
X189231466Y-133632966D01*
X189277542Y-133652126D01*
X189298953Y-133683730D01*
X189318799Y-133737281D01*
X189322215Y-133768765D01*
X189310920Y-133772969D01*
X189286636Y-133744682D01*
X189281512Y-133736550D01*
X189242827Y-133689563D01*
X189206886Y-133676430D01*
X189206410Y-133676515D01*
X189168734Y-133700564D01*
X189116554Y-133760614D01*
X189050504Y-133855541D01*
X188971218Y-133984221D01*
X188879330Y-134145527D01*
X188775474Y-134338335D01*
X188660283Y-134561521D01*
X188534393Y-134813958D01*
X188398436Y-135094522D01*
X188349916Y-135196362D01*
X188302132Y-135298182D01*
X188243809Y-135424305D01*
X188176415Y-135571431D01*
X188101418Y-135736261D01*
X188020284Y-135915496D01*
X187934481Y-136105836D01*
X187845478Y-136303981D01*
X187754740Y-136506634D01*
X187663736Y-136710493D01*
X187573934Y-136912261D01*
X187486800Y-137108637D01*
X187403803Y-137296322D01*
X187326409Y-137472018D01*
X187256086Y-137632424D01*
X187194302Y-137774241D01*
X187142525Y-137894170D01*
X187102221Y-137988911D01*
X187074858Y-138055166D01*
X187061904Y-138089635D01*
X187061144Y-138093879D01*
X187073418Y-138079534D01*
X187104847Y-138036307D01*
X187152324Y-137968660D01*
X187212739Y-137881057D01*
X187282983Y-137777958D01*
X187337530Y-137697187D01*
X187428460Y-137562900D01*
X187536112Y-137405331D01*
X187657739Y-137228405D01*
X187790593Y-137036050D01*
X187931927Y-136832190D01*
X188078992Y-136620751D01*
X188229040Y-136405659D01*
X188379325Y-136190841D01*
X188527097Y-135980221D01*
X188669609Y-135777725D01*
X188804114Y-135587281D01*
X188927863Y-135412812D01*
X189038109Y-135258246D01*
X189132104Y-135127508D01*
X189207100Y-135024523D01*
X189228257Y-134995888D01*
X189594212Y-134509274D01*
X189943207Y-134057839D01*
X190276000Y-133640794D01*
X190593345Y-133257350D01*
X190896002Y-132906718D01*
X191184725Y-132588110D01*
X191460272Y-132300736D01*
X191723399Y-132043807D01*
X191974863Y-131816534D01*
X192215422Y-131618128D01*
X192445830Y-131447801D01*
X192666846Y-131304762D01*
X192879226Y-131188224D01*
X192880624Y-131187529D01*
X193038935Y-131111975D01*
X193173676Y-131055257D01*
X193294715Y-131014091D01*
X193411922Y-130985193D01*
X193535167Y-130965279D01*
X193556341Y-130962679D01*
X193700301Y-130953764D01*
X193843896Y-130959364D01*
X193843896Y-130959364D01*
G37*
X193843896Y-130959364D02*
X193975117Y-130978290D01*
X194081956Y-131009351D01*
X194098253Y-131016407D01*
X194163655Y-131046715D01*
X194103513Y-131036541D01*
X193894196Y-131013066D01*
X193698137Y-131014629D01*
X193524244Y-131041134D01*
X193517063Y-131042916D01*
X193314424Y-131109555D01*
X193103259Y-131209412D01*
X192882850Y-131343073D01*
X192652476Y-131511123D01*
X192411416Y-131714149D01*
X192158951Y-131952738D01*
X191894360Y-132227476D01*
X191616922Y-132538949D01*
X191478674Y-132702039D01*
X191350595Y-132856726D01*
X191228234Y-133007569D01*
X191109674Y-133157339D01*
X190992997Y-133308810D01*
X190876286Y-133464751D01*
X190757623Y-133627936D01*
X190635092Y-133801136D01*
X190506773Y-133987123D01*
X190370751Y-134188669D01*
X190225107Y-134408545D01*
X190067924Y-134649524D01*
X189897284Y-134914377D01*
X189711270Y-135205876D01*
X189507965Y-135526793D01*
X189337114Y-135797783D01*
X188947504Y-136426057D01*
X188572770Y-137048898D01*
X188218937Y-137656254D01*
X188129886Y-137812542D01*
X188049409Y-137953746D01*
X187956172Y-138116150D01*
X187857853Y-138286458D01*
X187762127Y-138451373D01*
X187678135Y-138595103D01*
X187594477Y-138738510D01*
X187502709Y-138897325D01*
X187409914Y-139059192D01*
X187323173Y-139211754D01*
X187249570Y-139342655D01*
X187247215Y-139346879D01*
X187183738Y-139460571D01*
X187123519Y-139568068D01*
X187070564Y-139662244D01*
X187028882Y-139735974D01*
X187002476Y-139782135D01*
X187001645Y-139783564D01*
X186951215Y-139870135D01*
X186873388Y-139663280D01*
X186832568Y-139560977D01*
X186781818Y-139443482D01*
X186723684Y-139315792D01*
X186660713Y-139182899D01*
X186595450Y-139049801D01*
X186530441Y-138921490D01*
X186468233Y-138802962D01*
X186411371Y-138699212D01*
X186362402Y-138615235D01*
X186323871Y-138556025D01*
X186298324Y-138526577D01*
X186292774Y-138524223D01*
X186279304Y-138540984D01*
X186250388Y-138587461D01*
X186209363Y-138657947D01*
X186159563Y-138746734D01*
X186114112Y-138829945D01*
X186040723Y-138965318D01*
X185962028Y-139109554D01*
X185880422Y-139258346D01*
X185798303Y-139407386D01*
X185718068Y-139552364D01*
X185642113Y-139688974D01*
X185572834Y-139812907D01*
X185512629Y-139919855D01*
X185463894Y-140005510D01*
X185429026Y-140065564D01*
X185410421Y-140095708D01*
X185408709Y-140097940D01*
X185407319Y-140089140D01*
X185417975Y-140049615D01*
X185438652Y-139986184D01*
X185459332Y-139927538D01*
X185509554Y-139789544D01*
X185565380Y-139637317D01*
X185625214Y-139475107D01*
X185687461Y-139307163D01*
X185750526Y-139137736D01*
X185812812Y-138971076D01*
X185872723Y-138811433D01*
X185928665Y-138663057D01*
X185979041Y-138530198D01*
X186022256Y-138417105D01*
X186056713Y-138328030D01*
X186080819Y-138267222D01*
X186092976Y-138238931D01*
X186093836Y-138237546D01*
X186110745Y-138245386D01*
X186142460Y-138280479D01*
X186182907Y-138335849D01*
X186194178Y-138352819D01*
X186235994Y-138414621D01*
X186270076Y-138460624D01*
X186290325Y-138482712D01*
X186292410Y-138483555D01*
X186305103Y-138466489D01*
X186333639Y-138419000D01*
X186375163Y-138346134D01*
X186426823Y-138252939D01*
X186485766Y-138144459D01*
X186515588Y-138088851D01*
X186585820Y-137958087D01*
X186669905Y-137802714D01*
X186762172Y-137633138D01*
X186856949Y-137459770D01*
X186948564Y-137293017D01*
X187004173Y-137192305D01*
X187084896Y-137046217D01*
X187179719Y-136874200D01*
X187283546Y-136685526D01*
X187391279Y-136489465D01*
X187497823Y-136295289D01*
X187598080Y-136112269D01*
X187633032Y-136048375D01*
X187795475Y-135753646D01*
X187955033Y-135468741D01*
X188109976Y-135196559D01*
X188258576Y-134939999D01*
X188399105Y-134701962D01*
X188529834Y-134485346D01*
X188649035Y-134293052D01*
X188754980Y-134127979D01*
X188845941Y-133993026D01*
X188914645Y-133898303D01*
X189010883Y-133782260D01*
X189096714Y-133698827D01*
X189170716Y-133648797D01*
X189231466Y-133632966D01*
X189277542Y-133652126D01*
X189298953Y-133683730D01*
X189318799Y-133737281D01*
X189322215Y-133768765D01*
X189310920Y-133772969D01*
X189286636Y-133744682D01*
X189281512Y-133736550D01*
X189242827Y-133689563D01*
X189206886Y-133676430D01*
X189206410Y-133676515D01*
X189168734Y-133700564D01*
X189116554Y-133760614D01*
X189050504Y-133855541D01*
X188971218Y-133984221D01*
X188879330Y-134145527D01*
X188775474Y-134338335D01*
X188660283Y-134561521D01*
X188534393Y-134813958D01*
X188398436Y-135094522D01*
X188349916Y-135196362D01*
X188302132Y-135298182D01*
X188243809Y-135424305D01*
X188176415Y-135571431D01*
X188101418Y-135736261D01*
X188020284Y-135915496D01*
X187934481Y-136105836D01*
X187845478Y-136303981D01*
X187754740Y-136506634D01*
X187663736Y-136710493D01*
X187573934Y-136912261D01*
X187486800Y-137108637D01*
X187403803Y-137296322D01*
X187326409Y-137472018D01*
X187256086Y-137632424D01*
X187194302Y-137774241D01*
X187142525Y-137894170D01*
X187102221Y-137988911D01*
X187074858Y-138055166D01*
X187061904Y-138089635D01*
X187061144Y-138093879D01*
X187073418Y-138079534D01*
X187104847Y-138036307D01*
X187152324Y-137968660D01*
X187212739Y-137881057D01*
X187282983Y-137777958D01*
X187337530Y-137697187D01*
X187428460Y-137562900D01*
X187536112Y-137405331D01*
X187657739Y-137228405D01*
X187790593Y-137036050D01*
X187931927Y-136832190D01*
X188078992Y-136620751D01*
X188229040Y-136405659D01*
X188379325Y-136190841D01*
X188527097Y-135980221D01*
X188669609Y-135777725D01*
X188804114Y-135587281D01*
X188927863Y-135412812D01*
X189038109Y-135258246D01*
X189132104Y-135127508D01*
X189207100Y-135024523D01*
X189228257Y-134995888D01*
X189594212Y-134509274D01*
X189943207Y-134057839D01*
X190276000Y-133640794D01*
X190593345Y-133257350D01*
X190896002Y-132906718D01*
X191184725Y-132588110D01*
X191460272Y-132300736D01*
X191723399Y-132043807D01*
X191974863Y-131816534D01*
X192215422Y-131618128D01*
X192445830Y-131447801D01*
X192666846Y-131304762D01*
X192879226Y-131188224D01*
X192880624Y-131187529D01*
X193038935Y-131111975D01*
X193173676Y-131055257D01*
X193294715Y-131014091D01*
X193411922Y-130985193D01*
X193535167Y-130965279D01*
X193556341Y-130962679D01*
X193700301Y-130953764D01*
X193843896Y-130959364D01*
G36*
X185392937Y-140138035D02*
X185382913Y-140148059D01*
X185372889Y-140138035D01*
X185382913Y-140128012D01*
X185392937Y-140138035D01*
X185392937Y-140138035D01*
G37*
X185392937Y-140138035D02*
X185382913Y-140148059D01*
X185372889Y-140138035D01*
X185382913Y-140128012D01*
X185392937Y-140138035D01*
G36*
X187273770Y-135428811D02*
X187263272Y-135452974D01*
X187229131Y-135504375D01*
X187209543Y-135532109D01*
X187172901Y-135586196D01*
X187137000Y-135645563D01*
X187099587Y-135714959D01*
X187058408Y-135799130D01*
X187011212Y-135902823D01*
X186955745Y-136030788D01*
X186889755Y-136187770D01*
X186831006Y-136329824D01*
X186781041Y-136452483D01*
X186719417Y-136605788D01*
X186648806Y-136782941D01*
X186571880Y-136977142D01*
X186491310Y-137181592D01*
X186409768Y-137389491D01*
X186329926Y-137594041D01*
X186254455Y-137788441D01*
X186186027Y-137965893D01*
X186127313Y-138119596D01*
X186115631Y-138150434D01*
X186093990Y-138207663D01*
X185981544Y-138053688D01*
X185931827Y-137989314D01*
X185889845Y-137941788D01*
X185861408Y-137917335D01*
X185853319Y-137916269D01*
X185842100Y-137936736D01*
X185814984Y-137990287D01*
X185773460Y-138073877D01*
X185719017Y-138184461D01*
X185653146Y-138318994D01*
X185577335Y-138474431D01*
X185493075Y-138647729D01*
X185401855Y-138835841D01*
X185305164Y-139035723D01*
X185266578Y-139115620D01*
X185044428Y-139575554D01*
X184838286Y-140001769D01*
X184646935Y-140396756D01*
X184469157Y-140763002D01*
X184303736Y-141102995D01*
X184149455Y-141419225D01*
X184005096Y-141714179D01*
X183869443Y-141990347D01*
X183741278Y-142250216D01*
X183619385Y-142496275D01*
X183502545Y-142731013D01*
X183389543Y-142956917D01*
X183325219Y-143084997D01*
X183238040Y-143259365D01*
X183163596Y-143409261D01*
X183099241Y-143538126D01*
X183042326Y-143649404D01*
X182990204Y-143746534D01*
X182940228Y-143832960D01*
X182889750Y-143912124D01*
X182836122Y-143987466D01*
X182776696Y-144062429D01*
X182708826Y-144140454D01*
X182629863Y-144224984D01*
X182537160Y-144319461D01*
X182428070Y-144427325D01*
X182299944Y-144552020D01*
X182150136Y-144696987D01*
X181975997Y-144865667D01*
X181894673Y-144944697D01*
X181747988Y-145088227D01*
X181604479Y-145230150D01*
X181467892Y-145366661D01*
X181341971Y-145493953D01*
X181230461Y-145608220D01*
X181137105Y-145705656D01*
X181065649Y-145782453D01*
X181024055Y-145829703D01*
X180910934Y-145962710D01*
X180773761Y-146119984D01*
X180616550Y-146297156D01*
X180443311Y-146489856D01*
X180258057Y-146693716D01*
X180064800Y-146904364D01*
X179867551Y-147117433D01*
X179670322Y-147328552D01*
X179477125Y-147533353D01*
X179291973Y-147727465D01*
X179118876Y-147906519D01*
X179090552Y-147935540D01*
X178994757Y-148033821D01*
X178909222Y-148122109D01*
X178837647Y-148196543D01*
X178783726Y-148253264D01*
X178751157Y-148288413D01*
X178742980Y-148298433D01*
X178767621Y-148307212D01*
X178823450Y-148323274D01*
X178902650Y-148344626D01*
X178997401Y-148369276D01*
X179099886Y-148395229D01*
X179202287Y-148420494D01*
X179296785Y-148443077D01*
X179375561Y-148460986D01*
X179405996Y-148467439D01*
X179534747Y-148491716D01*
X179628316Y-148504502D01*
X179689862Y-148506031D01*
X179722546Y-148496538D01*
X179727386Y-148491274D01*
X179746539Y-148472377D01*
X179789878Y-148434821D01*
X179850128Y-148384805D01*
X179893960Y-148349314D01*
X180050316Y-148223885D01*
X179733896Y-148522325D01*
X179801893Y-148534494D01*
X179922416Y-148551926D01*
X180066871Y-148566047D01*
X180229785Y-148576897D01*
X180405684Y-148584515D01*
X180589096Y-148588942D01*
X180774545Y-148590218D01*
X180956560Y-148588383D01*
X181129667Y-148583477D01*
X181288392Y-148575540D01*
X181427262Y-148564611D01*
X181540803Y-148550733D01*
X181623542Y-148533943D01*
X181659392Y-148520897D01*
X181682315Y-148497244D01*
X181722888Y-148442275D01*
X181778948Y-148359531D01*
X181848333Y-148252553D01*
X181928882Y-148124885D01*
X182018433Y-147980066D01*
X182114822Y-147821640D01*
X182215890Y-147653147D01*
X182319473Y-147478130D01*
X182423411Y-147300130D01*
X182525540Y-147122689D01*
X182623699Y-146949349D01*
X182676954Y-146853899D01*
X182761462Y-146704109D01*
X182852224Y-146547722D01*
X182943949Y-146393549D01*
X183031345Y-146250399D01*
X183109122Y-146127083D01*
X183158572Y-146052005D01*
X183232557Y-145939036D01*
X183318479Y-145801784D01*
X183409574Y-145651431D01*
X183499078Y-145499162D01*
X183580227Y-145356158D01*
X183588346Y-145341485D01*
X183687975Y-145165471D01*
X183785947Y-145002793D01*
X183889307Y-144842514D01*
X184005105Y-144673700D01*
X184137422Y-144489473D01*
X184420767Y-144093587D01*
X184688519Y-143702454D01*
X184946903Y-143306427D01*
X185202144Y-142895860D01*
X185460466Y-142461105D01*
X185580503Y-142253031D01*
X185652532Y-142129258D01*
X185718078Y-142022420D01*
X185783047Y-141924144D01*
X185853349Y-141826058D01*
X185934891Y-141719791D01*
X186033581Y-141596972D01*
X186103957Y-141511279D01*
X186201085Y-141393462D01*
X186297697Y-141275944D01*
X186388315Y-141165412D01*
X186467460Y-141068553D01*
X186529655Y-140992057D01*
X186555544Y-140959977D01*
X186617849Y-140883224D01*
X186696735Y-140787251D01*
X186782829Y-140683400D01*
X186866760Y-140583013D01*
X186880636Y-140566517D01*
X186948974Y-140483771D01*
X187006960Y-140410515D01*
X187050066Y-140352716D01*
X187073761Y-140316336D01*
X187076914Y-140308063D01*
X187071566Y-140277958D01*
X187057804Y-140223247D01*
X187039052Y-140155712D01*
X187018735Y-140087138D01*
X187000277Y-140029308D01*
X186987102Y-139994006D01*
X186984176Y-139988930D01*
X186966672Y-139997048D01*
X186929056Y-140026839D01*
X186882407Y-140069120D01*
X186836142Y-140110811D01*
X186814484Y-140124625D01*
X186818683Y-140109787D01*
X186819788Y-140107964D01*
X186847816Y-140059229D01*
X186882297Y-139995222D01*
X186895901Y-139968915D01*
X186923259Y-139917491D01*
X186940037Y-139897523D01*
X186953248Y-139904436D01*
X186964757Y-139923994D01*
X186975547Y-139940396D01*
X186989173Y-139946017D01*
X187010790Y-139937635D01*
X187045551Y-139912025D01*
X187098609Y-139865968D01*
X187175117Y-139796240D01*
X187187980Y-139784417D01*
X187414882Y-139577548D01*
X187617024Y-139397130D01*
X187797391Y-139240674D01*
X187958970Y-139105687D01*
X188104748Y-138989680D01*
X188237710Y-138890162D01*
X188360844Y-138804641D01*
X188369969Y-138798588D01*
X188533173Y-138697532D01*
X188672826Y-138625596D01*
X188788235Y-138583026D01*
X188878704Y-138570069D01*
X188943538Y-138586970D01*
X188951342Y-138592350D01*
X188972743Y-138611095D01*
X188968759Y-138620250D01*
X188933583Y-138623382D01*
X188900137Y-138623822D01*
X188810762Y-138637078D01*
X188722084Y-138679497D01*
X188718136Y-138681981D01*
X188647919Y-138731593D01*
X188556976Y-138803331D01*
X188452696Y-138890736D01*
X188342467Y-138987348D01*
X188233678Y-139086707D01*
X188133719Y-139182355D01*
X188059235Y-139257999D01*
X187997375Y-139323938D01*
X187919012Y-139408476D01*
X187828258Y-139507082D01*
X187729228Y-139615224D01*
X187626035Y-139728369D01*
X187522792Y-139841985D01*
X187423612Y-139951542D01*
X187332610Y-140052507D01*
X187253898Y-140140347D01*
X187191591Y-140210532D01*
X187149801Y-140258530D01*
X187136092Y-140275039D01*
X187091907Y-140331212D01*
X187146129Y-140575429D01*
X187190670Y-140787550D01*
X187225303Y-140981681D01*
X187251339Y-141169155D01*
X187270088Y-141361305D01*
X187282860Y-141569466D01*
X187290967Y-141804971D01*
X187291652Y-141833984D01*
X187294164Y-142159895D01*
X187285428Y-142457401D01*
X187264404Y-142736867D01*
X187230053Y-143008661D01*
X187181336Y-143283150D01*
X187117875Y-143567974D01*
X186979104Y-144056644D01*
X186803670Y-144530823D01*
X186592984Y-144988586D01*
X186348459Y-145428005D01*
X186071507Y-145847154D01*
X185763539Y-146244108D01*
X185425967Y-146616941D01*
X185060203Y-146963726D01*
X184667659Y-147282537D01*
X184249747Y-147571448D01*
X184127845Y-147647046D01*
X183711805Y-147878005D01*
X183276599Y-148080039D01*
X182828896Y-148250636D01*
X182375364Y-148387282D01*
X181922672Y-148487467D01*
X181874626Y-148495912D01*
X181769241Y-148517362D01*
X181701244Y-148539486D01*
X181668447Y-148562416D01*
X181650261Y-148588349D01*
X181612797Y-148642366D01*
X181559481Y-148719504D01*
X181493742Y-148814800D01*
X181419005Y-148923293D01*
X181360037Y-149008990D01*
X181140034Y-149321328D01*
X180933073Y-149599115D01*
X180736898Y-149844862D01*
X180549250Y-150061079D01*
X180367873Y-150250275D01*
X180190510Y-150414962D01*
X180014902Y-150557649D01*
X179882372Y-150652152D01*
X179765567Y-150723470D01*
X179631100Y-150794152D01*
X179491727Y-150858296D01*
X179360202Y-150909996D01*
X179257422Y-150941416D01*
X179093019Y-150970605D01*
X178915119Y-150983585D01*
X178741198Y-150979757D01*
X178613057Y-150963514D01*
X178375488Y-150898122D01*
X178147800Y-150793947D01*
X177930301Y-150651139D01*
X177855012Y-150590686D01*
X177796899Y-150545432D01*
X177749595Y-150521942D01*
X177695813Y-150513373D01*
X177657589Y-150512542D01*
X177388930Y-150496796D01*
X177116328Y-150451325D01*
X177051496Y-150433729D01*
X178533048Y-150433729D01*
X178560802Y-150451137D01*
X178586859Y-150459275D01*
X178624883Y-150463649D01*
X178690650Y-150465793D01*
X178771857Y-150465388D01*
X178797356Y-150464723D01*
X178914299Y-150456279D01*
X179010794Y-150436855D01*
X179093632Y-150407881D01*
X179229144Y-150346008D01*
X179350417Y-150275152D01*
X179468264Y-150187888D01*
X179593496Y-150076788D01*
X179637893Y-150034013D01*
X179703412Y-149968744D01*
X179752110Y-149917955D01*
X179780380Y-149885608D01*
X179784614Y-149875667D01*
X179779677Y-149878261D01*
X179572469Y-150006954D01*
X179393431Y-150109580D01*
X179241035Y-150187013D01*
X179233741Y-150190399D01*
X179126157Y-150236511D01*
X179002942Y-150283635D01*
X178875241Y-150328021D01*
X178754201Y-150365923D01*
X178650966Y-150393591D01*
X178596633Y-150404647D01*
X178545065Y-150417821D01*
X178533048Y-150433729D01*
X177051496Y-150433729D01*
X176849016Y-150378775D01*
X176596231Y-150281794D01*
X176367210Y-150163030D01*
X176307524Y-150125527D01*
X176238491Y-150085361D01*
X176170635Y-150054141D01*
X176131058Y-150041648D01*
X176078859Y-150026140D01*
X176005493Y-149998128D01*
X175925551Y-149963247D01*
X175913891Y-149957769D01*
X175753521Y-149859773D01*
X175753261Y-149859529D01*
X177705527Y-149859529D01*
X177712177Y-149875423D01*
X177730916Y-149896913D01*
X177735338Y-149901621D01*
X177760418Y-149926352D01*
X177785343Y-149941643D01*
X177817865Y-149947725D01*
X177865736Y-149944835D01*
X177936710Y-149933204D01*
X178038538Y-149913069D01*
X178048386Y-149911070D01*
X178130309Y-149892803D01*
X178224165Y-149869304D01*
X178322696Y-149842720D01*
X178418647Y-149815195D01*
X178504762Y-149788877D01*
X178573786Y-149765911D01*
X178618463Y-149748443D01*
X178631537Y-149738619D01*
X178631521Y-149738604D01*
X178609838Y-149738521D01*
X178558302Y-149744607D01*
X178486468Y-149755648D01*
X178455871Y-149760886D01*
X178368412Y-149774192D01*
X178255664Y-149788382D01*
X178132348Y-149801733D01*
X178016203Y-149812285D01*
X177892727Y-149822362D01*
X177804566Y-149830648D01*
X177747076Y-149838619D01*
X177715612Y-149847754D01*
X177705527Y-149859529D01*
X175753261Y-149859529D01*
X175614468Y-149729286D01*
X175498073Y-149568581D01*
X175405680Y-149379931D01*
X175338629Y-149165610D01*
X175298263Y-148927891D01*
X175296632Y-148912057D01*
X175282526Y-148825851D01*
X175257752Y-148723630D01*
X175227426Y-148626236D01*
X175224470Y-148618067D01*
X175146000Y-148376547D01*
X175135904Y-148337404D01*
X175526562Y-148337404D01*
X175535307Y-148480796D01*
X175544168Y-148568117D01*
X175562212Y-148639708D01*
X175595208Y-148714613D01*
X175620338Y-148761459D01*
X175790926Y-149037385D01*
X175976140Y-149277078D01*
X176177254Y-149482115D01*
X176261366Y-149553911D01*
X176381650Y-149651355D01*
X176511958Y-149638929D01*
X176579835Y-149631428D01*
X176629916Y-149623965D01*
X176650619Y-149618457D01*
X176654914Y-149613060D01*
X176651087Y-149605942D01*
X176632837Y-149592642D01*
X176593861Y-149568696D01*
X176527857Y-149529643D01*
X176511958Y-149520275D01*
X176292854Y-149372640D01*
X176096115Y-149200005D01*
X175918540Y-148998798D01*
X175756925Y-148765448D01*
X175626208Y-148532328D01*
X175526562Y-148337404D01*
X175135904Y-148337404D01*
X175074684Y-148100068D01*
X175011486Y-147793288D01*
X174957370Y-147460862D01*
X174915142Y-147124539D01*
X174905931Y-147019573D01*
X174898203Y-146891861D01*
X174892000Y-146747484D01*
X174887364Y-146592526D01*
X174884339Y-146433066D01*
X174882967Y-146275188D01*
X174883290Y-146124973D01*
X174885352Y-145988503D01*
X174889194Y-145871861D01*
X174894859Y-145781127D01*
X174902390Y-145722385D01*
X174905245Y-145711200D01*
X174916295Y-145680873D01*
X174922434Y-145679337D01*
X174925389Y-145710642D01*
X174926608Y-145761319D01*
X174933116Y-145920594D01*
X174947144Y-146109738D01*
X174967506Y-146319477D01*
X174993017Y-146540543D01*
X175022490Y-146763662D01*
X175054741Y-146979566D01*
X175088584Y-147178981D01*
X175122834Y-147352639D01*
X175139416Y-147425564D01*
X175170047Y-147547659D01*
X175202512Y-147668077D01*
X175234957Y-147780857D01*
X175265530Y-147880041D01*
X175292374Y-147959668D01*
X175313636Y-148013781D01*
X175327461Y-148036418D01*
X175329500Y-148036485D01*
X175347915Y-148004033D01*
X175357120Y-147940283D01*
X175357129Y-147852958D01*
X175347958Y-147749780D01*
X175329621Y-147638470D01*
X175328730Y-147634117D01*
X175299690Y-147484699D01*
X175276093Y-147341685D01*
X175257380Y-147198269D01*
X175242993Y-147047645D01*
X175232373Y-146883006D01*
X175224962Y-146697546D01*
X175220202Y-146484458D01*
X175217871Y-146282550D01*
X175214747Y-145892131D01*
X175330145Y-145892131D01*
X175332070Y-145970029D01*
X175336047Y-146067022D01*
X175341727Y-146176151D01*
X175348760Y-146290457D01*
X175356798Y-146402978D01*
X175365493Y-146506757D01*
X175371014Y-146563213D01*
X175382150Y-146657311D01*
X175396947Y-146765212D01*
X175414088Y-146879044D01*
X175432256Y-146990937D01*
X175450136Y-147093018D01*
X175466411Y-147177418D01*
X175479765Y-147236264D01*
X175487483Y-147259695D01*
X175498307Y-147251553D01*
X175518162Y-147211399D01*
X175544334Y-147145557D01*
X175574110Y-147060351D01*
X175577773Y-147049198D01*
X175622874Y-146914700D01*
X175663207Y-146801757D01*
X175697245Y-146714209D01*
X175723463Y-146655897D01*
X175740335Y-146630661D01*
X175744061Y-146630622D01*
X175743387Y-146652329D01*
X175735402Y-146705427D01*
X175721428Y-146782154D01*
X175702790Y-146874747D01*
X175700911Y-146883678D01*
X175675314Y-147010071D01*
X175648052Y-147153090D01*
X175623088Y-147291576D01*
X175610246Y-147367468D01*
X175571218Y-147606690D01*
X175632137Y-147781597D01*
X175683112Y-147915721D01*
X175746146Y-148062799D01*
X175815929Y-148211783D01*
X175887154Y-148351626D01*
X175954511Y-148471284D01*
X175992115Y-148530655D01*
X176087713Y-148657266D01*
X176203724Y-148787695D01*
X176327993Y-148909321D01*
X176448364Y-149009523D01*
X176465042Y-149021717D01*
X176525717Y-149061615D01*
X176600434Y-149105573D01*
X176681188Y-149149542D01*
X176759972Y-149189474D01*
X176828780Y-149221320D01*
X176879605Y-149241032D01*
X176904442Y-149244559D01*
X176904929Y-149244170D01*
X176901238Y-149223328D01*
X176883903Y-149175744D01*
X176856450Y-149110908D01*
X176850351Y-149097355D01*
X176791164Y-148961149D01*
X176724583Y-148798110D01*
X176654968Y-148619739D01*
X176586677Y-148437537D01*
X176524068Y-148263005D01*
X176471500Y-148107645D01*
X176452179Y-148046717D01*
X176418770Y-147935045D01*
X176382724Y-147808832D01*
X176345663Y-147674378D01*
X176309208Y-147537986D01*
X176274983Y-147405956D01*
X176244609Y-147284589D01*
X176219709Y-147180186D01*
X176201904Y-147099049D01*
X176192817Y-147047479D01*
X176191992Y-147036052D01*
X176199301Y-147043733D01*
X176219690Y-147084710D01*
X176251436Y-147155018D01*
X176292814Y-147250692D01*
X176342102Y-147367766D01*
X176397575Y-147502274D01*
X176439566Y-147605675D01*
X176527604Y-147822039D01*
X176605009Y-148007799D01*
X176675050Y-148169959D01*
X176740999Y-148315521D01*
X176806124Y-148451490D01*
X176873695Y-148584868D01*
X176946983Y-148722660D01*
X177029256Y-148871868D01*
X177038145Y-148887761D01*
X177118104Y-149029527D01*
X177181883Y-149139685D01*
X177232131Y-149222020D01*
X177271500Y-149280322D01*
X177302642Y-149318377D01*
X177328206Y-149339974D01*
X177350844Y-149348900D01*
X177361527Y-149349795D01*
X177397861Y-149339117D01*
X177457729Y-149310295D01*
X177531801Y-149268151D01*
X177587477Y-149233062D01*
X177669195Y-149176836D01*
X177770398Y-149103341D01*
X177879782Y-149020988D01*
X177986041Y-148938188D01*
X178015677Y-148914472D01*
X178034894Y-148898730D01*
X179198304Y-148898730D01*
X179208327Y-148908753D01*
X179218351Y-148898730D01*
X179208327Y-148888706D01*
X179198304Y-148898730D01*
X178034894Y-148898730D01*
X178055585Y-148881781D01*
X179238398Y-148881781D01*
X179253723Y-148877984D01*
X179299530Y-148848612D01*
X179375571Y-148793841D01*
X179481594Y-148713849D01*
X179535362Y-148672497D01*
X179602875Y-148618869D01*
X179655401Y-148574310D01*
X179686772Y-148544239D01*
X179692634Y-148534365D01*
X179674977Y-148542860D01*
X179632990Y-148571193D01*
X179573589Y-148614078D01*
X179503688Y-148666224D01*
X179430202Y-148722344D01*
X179360045Y-148777149D01*
X179300132Y-148825350D01*
X179257379Y-148861659D01*
X179238699Y-148880787D01*
X179238398Y-148881781D01*
X178055585Y-148881781D01*
X178101964Y-148843790D01*
X178196702Y-148764280D01*
X178295300Y-148680008D01*
X178393167Y-148595038D01*
X178485714Y-148513435D01*
X178568350Y-148439265D01*
X178636485Y-148376591D01*
X178685528Y-148329480D01*
X178710889Y-148301996D01*
X178713182Y-148296799D01*
X178693128Y-148288011D01*
X178642871Y-148268371D01*
X178569883Y-148240742D01*
X178481636Y-148207988D01*
X178477126Y-148206330D01*
X178010200Y-148014180D01*
X177559464Y-147787678D01*
X177127627Y-147528823D01*
X176717395Y-147239616D01*
X176331476Y-146922059D01*
X175972578Y-146578152D01*
X175643407Y-146209895D01*
X175460359Y-145976828D01*
X175409736Y-145910388D01*
X175367985Y-145858130D01*
X175340798Y-145827043D01*
X175333843Y-145821461D01*
X175330619Y-145840288D01*
X175330145Y-145892131D01*
X175214747Y-145892131D01*
X175212656Y-145631011D01*
X175078617Y-145410490D01*
X174833957Y-144969715D01*
X174625070Y-144511201D01*
X174451882Y-144034725D01*
X174314317Y-143540065D01*
X174212301Y-143026996D01*
X174163936Y-142674026D01*
X174154590Y-142562382D01*
X174147659Y-142419877D01*
X174143145Y-142255673D01*
X174141047Y-142078932D01*
X174141364Y-141898815D01*
X174144098Y-141724483D01*
X174149248Y-141565098D01*
X174156814Y-141429821D01*
X174163936Y-141350900D01*
X174242602Y-140824419D01*
X174357343Y-140315422D01*
X174508197Y-139823817D01*
X174695200Y-139349514D01*
X174918390Y-138892421D01*
X175177805Y-138452448D01*
X175473482Y-138029503D01*
X175587759Y-137882708D01*
X175689818Y-137761120D01*
X175814137Y-137622438D01*
X175952284Y-137475369D01*
X176095829Y-137328621D01*
X176236341Y-137190901D01*
X176365388Y-137070916D01*
X176421745Y-137021355D01*
X176824938Y-136701304D01*
X177248869Y-136415264D01*
X177692016Y-136163899D01*
X178152860Y-135947872D01*
X178629878Y-135767844D01*
X179121550Y-135624478D01*
X179626356Y-135518438D01*
X179990174Y-135466372D01*
X180139365Y-135452873D01*
X180317200Y-135442902D01*
X180513272Y-135436540D01*
X180717175Y-135433868D01*
X180918503Y-135434965D01*
X181106849Y-135439912D01*
X181271807Y-135448790D01*
X181353394Y-135455846D01*
X181872562Y-135528541D01*
X182375592Y-135637891D01*
X182862912Y-135784072D01*
X183334949Y-135967261D01*
X183792129Y-136187634D01*
X184234881Y-136445368D01*
X184663632Y-136740639D01*
X184891753Y-136917585D01*
X184979259Y-136991693D01*
X185083633Y-137085609D01*
X185198793Y-137193332D01*
X185318654Y-137308860D01*
X185437133Y-137426192D01*
X185548148Y-137539326D01*
X185645614Y-137642261D01*
X185723448Y-137728996D01*
X185763813Y-137777909D01*
X185806226Y-137830745D01*
X185838840Y-137868157D01*
X185854026Y-137881681D01*
X185865114Y-137864592D01*
X185891941Y-137815833D01*
X185932322Y-137739596D01*
X185984069Y-137640075D01*
X186044997Y-137521465D01*
X186112919Y-137387958D01*
X186159318Y-137296100D01*
X186303183Y-137013442D01*
X186441542Y-136747393D01*
X186573196Y-136500027D01*
X186696946Y-136273419D01*
X186811594Y-136069643D01*
X186915941Y-135890774D01*
X187008787Y-135738887D01*
X187088935Y-135616055D01*
X187155186Y-135524354D01*
X187206340Y-135465859D01*
X187226472Y-135449320D01*
X187261284Y-135428666D01*
X187273770Y-135428811D01*
X187273770Y-135428811D01*
G37*
X187273770Y-135428811D02*
X187263272Y-135452974D01*
X187229131Y-135504375D01*
X187209543Y-135532109D01*
X187172901Y-135586196D01*
X187137000Y-135645563D01*
X187099587Y-135714959D01*
X187058408Y-135799130D01*
X187011212Y-135902823D01*
X186955745Y-136030788D01*
X186889755Y-136187770D01*
X186831006Y-136329824D01*
X186781041Y-136452483D01*
X186719417Y-136605788D01*
X186648806Y-136782941D01*
X186571880Y-136977142D01*
X186491310Y-137181592D01*
X186409768Y-137389491D01*
X186329926Y-137594041D01*
X186254455Y-137788441D01*
X186186027Y-137965893D01*
X186127313Y-138119596D01*
X186115631Y-138150434D01*
X186093990Y-138207663D01*
X185981544Y-138053688D01*
X185931827Y-137989314D01*
X185889845Y-137941788D01*
X185861408Y-137917335D01*
X185853319Y-137916269D01*
X185842100Y-137936736D01*
X185814984Y-137990287D01*
X185773460Y-138073877D01*
X185719017Y-138184461D01*
X185653146Y-138318994D01*
X185577335Y-138474431D01*
X185493075Y-138647729D01*
X185401855Y-138835841D01*
X185305164Y-139035723D01*
X185266578Y-139115620D01*
X185044428Y-139575554D01*
X184838286Y-140001769D01*
X184646935Y-140396756D01*
X184469157Y-140763002D01*
X184303736Y-141102995D01*
X184149455Y-141419225D01*
X184005096Y-141714179D01*
X183869443Y-141990347D01*
X183741278Y-142250216D01*
X183619385Y-142496275D01*
X183502545Y-142731013D01*
X183389543Y-142956917D01*
X183325219Y-143084997D01*
X183238040Y-143259365D01*
X183163596Y-143409261D01*
X183099241Y-143538126D01*
X183042326Y-143649404D01*
X182990204Y-143746534D01*
X182940228Y-143832960D01*
X182889750Y-143912124D01*
X182836122Y-143987466D01*
X182776696Y-144062429D01*
X182708826Y-144140454D01*
X182629863Y-144224984D01*
X182537160Y-144319461D01*
X182428070Y-144427325D01*
X182299944Y-144552020D01*
X182150136Y-144696987D01*
X181975997Y-144865667D01*
X181894673Y-144944697D01*
X181747988Y-145088227D01*
X181604479Y-145230150D01*
X181467892Y-145366661D01*
X181341971Y-145493953D01*
X181230461Y-145608220D01*
X181137105Y-145705656D01*
X181065649Y-145782453D01*
X181024055Y-145829703D01*
X180910934Y-145962710D01*
X180773761Y-146119984D01*
X180616550Y-146297156D01*
X180443311Y-146489856D01*
X180258057Y-146693716D01*
X180064800Y-146904364D01*
X179867551Y-147117433D01*
X179670322Y-147328552D01*
X179477125Y-147533353D01*
X179291973Y-147727465D01*
X179118876Y-147906519D01*
X179090552Y-147935540D01*
X178994757Y-148033821D01*
X178909222Y-148122109D01*
X178837647Y-148196543D01*
X178783726Y-148253264D01*
X178751157Y-148288413D01*
X178742980Y-148298433D01*
X178767621Y-148307212D01*
X178823450Y-148323274D01*
X178902650Y-148344626D01*
X178997401Y-148369276D01*
X179099886Y-148395229D01*
X179202287Y-148420494D01*
X179296785Y-148443077D01*
X179375561Y-148460986D01*
X179405996Y-148467439D01*
X179534747Y-148491716D01*
X179628316Y-148504502D01*
X179689862Y-148506031D01*
X179722546Y-148496538D01*
X179727386Y-148491274D01*
X179746539Y-148472377D01*
X179789878Y-148434821D01*
X179850128Y-148384805D01*
X179893960Y-148349314D01*
X180050316Y-148223885D01*
X179733896Y-148522325D01*
X179801893Y-148534494D01*
X179922416Y-148551926D01*
X180066871Y-148566047D01*
X180229785Y-148576897D01*
X180405684Y-148584515D01*
X180589096Y-148588942D01*
X180774545Y-148590218D01*
X180956560Y-148588383D01*
X181129667Y-148583477D01*
X181288392Y-148575540D01*
X181427262Y-148564611D01*
X181540803Y-148550733D01*
X181623542Y-148533943D01*
X181659392Y-148520897D01*
X181682315Y-148497244D01*
X181722888Y-148442275D01*
X181778948Y-148359531D01*
X181848333Y-148252553D01*
X181928882Y-148124885D01*
X182018433Y-147980066D01*
X182114822Y-147821640D01*
X182215890Y-147653147D01*
X182319473Y-147478130D01*
X182423411Y-147300130D01*
X182525540Y-147122689D01*
X182623699Y-146949349D01*
X182676954Y-146853899D01*
X182761462Y-146704109D01*
X182852224Y-146547722D01*
X182943949Y-146393549D01*
X183031345Y-146250399D01*
X183109122Y-146127083D01*
X183158572Y-146052005D01*
X183232557Y-145939036D01*
X183318479Y-145801784D01*
X183409574Y-145651431D01*
X183499078Y-145499162D01*
X183580227Y-145356158D01*
X183588346Y-145341485D01*
X183687975Y-145165471D01*
X183785947Y-145002793D01*
X183889307Y-144842514D01*
X184005105Y-144673700D01*
X184137422Y-144489473D01*
X184420767Y-144093587D01*
X184688519Y-143702454D01*
X184946903Y-143306427D01*
X185202144Y-142895860D01*
X185460466Y-142461105D01*
X185580503Y-142253031D01*
X185652532Y-142129258D01*
X185718078Y-142022420D01*
X185783047Y-141924144D01*
X185853349Y-141826058D01*
X185934891Y-141719791D01*
X186033581Y-141596972D01*
X186103957Y-141511279D01*
X186201085Y-141393462D01*
X186297697Y-141275944D01*
X186388315Y-141165412D01*
X186467460Y-141068553D01*
X186529655Y-140992057D01*
X186555544Y-140959977D01*
X186617849Y-140883224D01*
X186696735Y-140787251D01*
X186782829Y-140683400D01*
X186866760Y-140583013D01*
X186880636Y-140566517D01*
X186948974Y-140483771D01*
X187006960Y-140410515D01*
X187050066Y-140352716D01*
X187073761Y-140316336D01*
X187076914Y-140308063D01*
X187071566Y-140277958D01*
X187057804Y-140223247D01*
X187039052Y-140155712D01*
X187018735Y-140087138D01*
X187000277Y-140029308D01*
X186987102Y-139994006D01*
X186984176Y-139988930D01*
X186966672Y-139997048D01*
X186929056Y-140026839D01*
X186882407Y-140069120D01*
X186836142Y-140110811D01*
X186814484Y-140124625D01*
X186818683Y-140109787D01*
X186819788Y-140107964D01*
X186847816Y-140059229D01*
X186882297Y-139995222D01*
X186895901Y-139968915D01*
X186923259Y-139917491D01*
X186940037Y-139897523D01*
X186953248Y-139904436D01*
X186964757Y-139923994D01*
X186975547Y-139940396D01*
X186989173Y-139946017D01*
X187010790Y-139937635D01*
X187045551Y-139912025D01*
X187098609Y-139865968D01*
X187175117Y-139796240D01*
X187187980Y-139784417D01*
X187414882Y-139577548D01*
X187617024Y-139397130D01*
X187797391Y-139240674D01*
X187958970Y-139105687D01*
X188104748Y-138989680D01*
X188237710Y-138890162D01*
X188360844Y-138804641D01*
X188369969Y-138798588D01*
X188533173Y-138697532D01*
X188672826Y-138625596D01*
X188788235Y-138583026D01*
X188878704Y-138570069D01*
X188943538Y-138586970D01*
X188951342Y-138592350D01*
X188972743Y-138611095D01*
X188968759Y-138620250D01*
X188933583Y-138623382D01*
X188900137Y-138623822D01*
X188810762Y-138637078D01*
X188722084Y-138679497D01*
X188718136Y-138681981D01*
X188647919Y-138731593D01*
X188556976Y-138803331D01*
X188452696Y-138890736D01*
X188342467Y-138987348D01*
X188233678Y-139086707D01*
X188133719Y-139182355D01*
X188059235Y-139257999D01*
X187997375Y-139323938D01*
X187919012Y-139408476D01*
X187828258Y-139507082D01*
X187729228Y-139615224D01*
X187626035Y-139728369D01*
X187522792Y-139841985D01*
X187423612Y-139951542D01*
X187332610Y-140052507D01*
X187253898Y-140140347D01*
X187191591Y-140210532D01*
X187149801Y-140258530D01*
X187136092Y-140275039D01*
X187091907Y-140331212D01*
X187146129Y-140575429D01*
X187190670Y-140787550D01*
X187225303Y-140981681D01*
X187251339Y-141169155D01*
X187270088Y-141361305D01*
X187282860Y-141569466D01*
X187290967Y-141804971D01*
X187291652Y-141833984D01*
X187294164Y-142159895D01*
X187285428Y-142457401D01*
X187264404Y-142736867D01*
X187230053Y-143008661D01*
X187181336Y-143283150D01*
X187117875Y-143567974D01*
X186979104Y-144056644D01*
X186803670Y-144530823D01*
X186592984Y-144988586D01*
X186348459Y-145428005D01*
X186071507Y-145847154D01*
X185763539Y-146244108D01*
X185425967Y-146616941D01*
X185060203Y-146963726D01*
X184667659Y-147282537D01*
X184249747Y-147571448D01*
X184127845Y-147647046D01*
X183711805Y-147878005D01*
X183276599Y-148080039D01*
X182828896Y-148250636D01*
X182375364Y-148387282D01*
X181922672Y-148487467D01*
X181874626Y-148495912D01*
X181769241Y-148517362D01*
X181701244Y-148539486D01*
X181668447Y-148562416D01*
X181650261Y-148588349D01*
X181612797Y-148642366D01*
X181559481Y-148719504D01*
X181493742Y-148814800D01*
X181419005Y-148923293D01*
X181360037Y-149008990D01*
X181140034Y-149321328D01*
X180933073Y-149599115D01*
X180736898Y-149844862D01*
X180549250Y-150061079D01*
X180367873Y-150250275D01*
X180190510Y-150414962D01*
X180014902Y-150557649D01*
X179882372Y-150652152D01*
X179765567Y-150723470D01*
X179631100Y-150794152D01*
X179491727Y-150858296D01*
X179360202Y-150909996D01*
X179257422Y-150941416D01*
X179093019Y-150970605D01*
X178915119Y-150983585D01*
X178741198Y-150979757D01*
X178613057Y-150963514D01*
X178375488Y-150898122D01*
X178147800Y-150793947D01*
X177930301Y-150651139D01*
X177855012Y-150590686D01*
X177796899Y-150545432D01*
X177749595Y-150521942D01*
X177695813Y-150513373D01*
X177657589Y-150512542D01*
X177388930Y-150496796D01*
X177116328Y-150451325D01*
X177051496Y-150433729D01*
X178533048Y-150433729D01*
X178560802Y-150451137D01*
X178586859Y-150459275D01*
X178624883Y-150463649D01*
X178690650Y-150465793D01*
X178771857Y-150465388D01*
X178797356Y-150464723D01*
X178914299Y-150456279D01*
X179010794Y-150436855D01*
X179093632Y-150407881D01*
X179229144Y-150346008D01*
X179350417Y-150275152D01*
X179468264Y-150187888D01*
X179593496Y-150076788D01*
X179637893Y-150034013D01*
X179703412Y-149968744D01*
X179752110Y-149917955D01*
X179780380Y-149885608D01*
X179784614Y-149875667D01*
X179779677Y-149878261D01*
X179572469Y-150006954D01*
X179393431Y-150109580D01*
X179241035Y-150187013D01*
X179233741Y-150190399D01*
X179126157Y-150236511D01*
X179002942Y-150283635D01*
X178875241Y-150328021D01*
X178754201Y-150365923D01*
X178650966Y-150393591D01*
X178596633Y-150404647D01*
X178545065Y-150417821D01*
X178533048Y-150433729D01*
X177051496Y-150433729D01*
X176849016Y-150378775D01*
X176596231Y-150281794D01*
X176367210Y-150163030D01*
X176307524Y-150125527D01*
X176238491Y-150085361D01*
X176170635Y-150054141D01*
X176131058Y-150041648D01*
X176078859Y-150026140D01*
X176005493Y-149998128D01*
X175925551Y-149963247D01*
X175913891Y-149957769D01*
X175753521Y-149859773D01*
X175753261Y-149859529D01*
X177705527Y-149859529D01*
X177712177Y-149875423D01*
X177730916Y-149896913D01*
X177735338Y-149901621D01*
X177760418Y-149926352D01*
X177785343Y-149941643D01*
X177817865Y-149947725D01*
X177865736Y-149944835D01*
X177936710Y-149933204D01*
X178038538Y-149913069D01*
X178048386Y-149911070D01*
X178130309Y-149892803D01*
X178224165Y-149869304D01*
X178322696Y-149842720D01*
X178418647Y-149815195D01*
X178504762Y-149788877D01*
X178573786Y-149765911D01*
X178618463Y-149748443D01*
X178631537Y-149738619D01*
X178631521Y-149738604D01*
X178609838Y-149738521D01*
X178558302Y-149744607D01*
X178486468Y-149755648D01*
X178455871Y-149760886D01*
X178368412Y-149774192D01*
X178255664Y-149788382D01*
X178132348Y-149801733D01*
X178016203Y-149812285D01*
X177892727Y-149822362D01*
X177804566Y-149830648D01*
X177747076Y-149838619D01*
X177715612Y-149847754D01*
X177705527Y-149859529D01*
X175753261Y-149859529D01*
X175614468Y-149729286D01*
X175498073Y-149568581D01*
X175405680Y-149379931D01*
X175338629Y-149165610D01*
X175298263Y-148927891D01*
X175296632Y-148912057D01*
X175282526Y-148825851D01*
X175257752Y-148723630D01*
X175227426Y-148626236D01*
X175224470Y-148618067D01*
X175146000Y-148376547D01*
X175135904Y-148337404D01*
X175526562Y-148337404D01*
X175535307Y-148480796D01*
X175544168Y-148568117D01*
X175562212Y-148639708D01*
X175595208Y-148714613D01*
X175620338Y-148761459D01*
X175790926Y-149037385D01*
X175976140Y-149277078D01*
X176177254Y-149482115D01*
X176261366Y-149553911D01*
X176381650Y-149651355D01*
X176511958Y-149638929D01*
X176579835Y-149631428D01*
X176629916Y-149623965D01*
X176650619Y-149618457D01*
X176654914Y-149613060D01*
X176651087Y-149605942D01*
X176632837Y-149592642D01*
X176593861Y-149568696D01*
X176527857Y-149529643D01*
X176511958Y-149520275D01*
X176292854Y-149372640D01*
X176096115Y-149200005D01*
X175918540Y-148998798D01*
X175756925Y-148765448D01*
X175626208Y-148532328D01*
X175526562Y-148337404D01*
X175135904Y-148337404D01*
X175074684Y-148100068D01*
X175011486Y-147793288D01*
X174957370Y-147460862D01*
X174915142Y-147124539D01*
X174905931Y-147019573D01*
X174898203Y-146891861D01*
X174892000Y-146747484D01*
X174887364Y-146592526D01*
X174884339Y-146433066D01*
X174882967Y-146275188D01*
X174883290Y-146124973D01*
X174885352Y-145988503D01*
X174889194Y-145871861D01*
X174894859Y-145781127D01*
X174902390Y-145722385D01*
X174905245Y-145711200D01*
X174916295Y-145680873D01*
X174922434Y-145679337D01*
X174925389Y-145710642D01*
X174926608Y-145761319D01*
X174933116Y-145920594D01*
X174947144Y-146109738D01*
X174967506Y-146319477D01*
X174993017Y-146540543D01*
X175022490Y-146763662D01*
X175054741Y-146979566D01*
X175088584Y-147178981D01*
X175122834Y-147352639D01*
X175139416Y-147425564D01*
X175170047Y-147547659D01*
X175202512Y-147668077D01*
X175234957Y-147780857D01*
X175265530Y-147880041D01*
X175292374Y-147959668D01*
X175313636Y-148013781D01*
X175327461Y-148036418D01*
X175329500Y-148036485D01*
X175347915Y-148004033D01*
X175357120Y-147940283D01*
X175357129Y-147852958D01*
X175347958Y-147749780D01*
X175329621Y-147638470D01*
X175328730Y-147634117D01*
X175299690Y-147484699D01*
X175276093Y-147341685D01*
X175257380Y-147198269D01*
X175242993Y-147047645D01*
X175232373Y-146883006D01*
X175224962Y-146697546D01*
X175220202Y-146484458D01*
X175217871Y-146282550D01*
X175214747Y-145892131D01*
X175330145Y-145892131D01*
X175332070Y-145970029D01*
X175336047Y-146067022D01*
X175341727Y-146176151D01*
X175348760Y-146290457D01*
X175356798Y-146402978D01*
X175365493Y-146506757D01*
X175371014Y-146563213D01*
X175382150Y-146657311D01*
X175396947Y-146765212D01*
X175414088Y-146879044D01*
X175432256Y-146990937D01*
X175450136Y-147093018D01*
X175466411Y-147177418D01*
X175479765Y-147236264D01*
X175487483Y-147259695D01*
X175498307Y-147251553D01*
X175518162Y-147211399D01*
X175544334Y-147145557D01*
X175574110Y-147060351D01*
X175577773Y-147049198D01*
X175622874Y-146914700D01*
X175663207Y-146801757D01*
X175697245Y-146714209D01*
X175723463Y-146655897D01*
X175740335Y-146630661D01*
X175744061Y-146630622D01*
X175743387Y-146652329D01*
X175735402Y-146705427D01*
X175721428Y-146782154D01*
X175702790Y-146874747D01*
X175700911Y-146883678D01*
X175675314Y-147010071D01*
X175648052Y-147153090D01*
X175623088Y-147291576D01*
X175610246Y-147367468D01*
X175571218Y-147606690D01*
X175632137Y-147781597D01*
X175683112Y-147915721D01*
X175746146Y-148062799D01*
X175815929Y-148211783D01*
X175887154Y-148351626D01*
X175954511Y-148471284D01*
X175992115Y-148530655D01*
X176087713Y-148657266D01*
X176203724Y-148787695D01*
X176327993Y-148909321D01*
X176448364Y-149009523D01*
X176465042Y-149021717D01*
X176525717Y-149061615D01*
X176600434Y-149105573D01*
X176681188Y-149149542D01*
X176759972Y-149189474D01*
X176828780Y-149221320D01*
X176879605Y-149241032D01*
X176904442Y-149244559D01*
X176904929Y-149244170D01*
X176901238Y-149223328D01*
X176883903Y-149175744D01*
X176856450Y-149110908D01*
X176850351Y-149097355D01*
X176791164Y-148961149D01*
X176724583Y-148798110D01*
X176654968Y-148619739D01*
X176586677Y-148437537D01*
X176524068Y-148263005D01*
X176471500Y-148107645D01*
X176452179Y-148046717D01*
X176418770Y-147935045D01*
X176382724Y-147808832D01*
X176345663Y-147674378D01*
X176309208Y-147537986D01*
X176274983Y-147405956D01*
X176244609Y-147284589D01*
X176219709Y-147180186D01*
X176201904Y-147099049D01*
X176192817Y-147047479D01*
X176191992Y-147036052D01*
X176199301Y-147043733D01*
X176219690Y-147084710D01*
X176251436Y-147155018D01*
X176292814Y-147250692D01*
X176342102Y-147367766D01*
X176397575Y-147502274D01*
X176439566Y-147605675D01*
X176527604Y-147822039D01*
X176605009Y-148007799D01*
X176675050Y-148169959D01*
X176740999Y-148315521D01*
X176806124Y-148451490D01*
X176873695Y-148584868D01*
X176946983Y-148722660D01*
X177029256Y-148871868D01*
X177038145Y-148887761D01*
X177118104Y-149029527D01*
X177181883Y-149139685D01*
X177232131Y-149222020D01*
X177271500Y-149280322D01*
X177302642Y-149318377D01*
X177328206Y-149339974D01*
X177350844Y-149348900D01*
X177361527Y-149349795D01*
X177397861Y-149339117D01*
X177457729Y-149310295D01*
X177531801Y-149268151D01*
X177587477Y-149233062D01*
X177669195Y-149176836D01*
X177770398Y-149103341D01*
X177879782Y-149020988D01*
X177986041Y-148938188D01*
X178015677Y-148914472D01*
X178034894Y-148898730D01*
X179198304Y-148898730D01*
X179208327Y-148908753D01*
X179218351Y-148898730D01*
X179208327Y-148888706D01*
X179198304Y-148898730D01*
X178034894Y-148898730D01*
X178055585Y-148881781D01*
X179238398Y-148881781D01*
X179253723Y-148877984D01*
X179299530Y-148848612D01*
X179375571Y-148793841D01*
X179481594Y-148713849D01*
X179535362Y-148672497D01*
X179602875Y-148618869D01*
X179655401Y-148574310D01*
X179686772Y-148544239D01*
X179692634Y-148534365D01*
X179674977Y-148542860D01*
X179632990Y-148571193D01*
X179573589Y-148614078D01*
X179503688Y-148666224D01*
X179430202Y-148722344D01*
X179360045Y-148777149D01*
X179300132Y-148825350D01*
X179257379Y-148861659D01*
X179238699Y-148880787D01*
X179238398Y-148881781D01*
X178055585Y-148881781D01*
X178101964Y-148843790D01*
X178196702Y-148764280D01*
X178295300Y-148680008D01*
X178393167Y-148595038D01*
X178485714Y-148513435D01*
X178568350Y-148439265D01*
X178636485Y-148376591D01*
X178685528Y-148329480D01*
X178710889Y-148301996D01*
X178713182Y-148296799D01*
X178693128Y-148288011D01*
X178642871Y-148268371D01*
X178569883Y-148240742D01*
X178481636Y-148207988D01*
X178477126Y-148206330D01*
X178010200Y-148014180D01*
X177559464Y-147787678D01*
X177127627Y-147528823D01*
X176717395Y-147239616D01*
X176331476Y-146922059D01*
X175972578Y-146578152D01*
X175643407Y-146209895D01*
X175460359Y-145976828D01*
X175409736Y-145910388D01*
X175367985Y-145858130D01*
X175340798Y-145827043D01*
X175333843Y-145821461D01*
X175330619Y-145840288D01*
X175330145Y-145892131D01*
X175214747Y-145892131D01*
X175212656Y-145631011D01*
X175078617Y-145410490D01*
X174833957Y-144969715D01*
X174625070Y-144511201D01*
X174451882Y-144034725D01*
X174314317Y-143540065D01*
X174212301Y-143026996D01*
X174163936Y-142674026D01*
X174154590Y-142562382D01*
X174147659Y-142419877D01*
X174143145Y-142255673D01*
X174141047Y-142078932D01*
X174141364Y-141898815D01*
X174144098Y-141724483D01*
X174149248Y-141565098D01*
X174156814Y-141429821D01*
X174163936Y-141350900D01*
X174242602Y-140824419D01*
X174357343Y-140315422D01*
X174508197Y-139823817D01*
X174695200Y-139349514D01*
X174918390Y-138892421D01*
X175177805Y-138452448D01*
X175473482Y-138029503D01*
X175587759Y-137882708D01*
X175689818Y-137761120D01*
X175814137Y-137622438D01*
X175952284Y-137475369D01*
X176095829Y-137328621D01*
X176236341Y-137190901D01*
X176365388Y-137070916D01*
X176421745Y-137021355D01*
X176824938Y-136701304D01*
X177248869Y-136415264D01*
X177692016Y-136163899D01*
X178152860Y-135947872D01*
X178629878Y-135767844D01*
X179121550Y-135624478D01*
X179626356Y-135518438D01*
X179990174Y-135466372D01*
X180139365Y-135452873D01*
X180317200Y-135442902D01*
X180513272Y-135436540D01*
X180717175Y-135433868D01*
X180918503Y-135434965D01*
X181106849Y-135439912D01*
X181271807Y-135448790D01*
X181353394Y-135455846D01*
X181872562Y-135528541D01*
X182375592Y-135637891D01*
X182862912Y-135784072D01*
X183334949Y-135967261D01*
X183792129Y-136187634D01*
X184234881Y-136445368D01*
X184663632Y-136740639D01*
X184891753Y-136917585D01*
X184979259Y-136991693D01*
X185083633Y-137085609D01*
X185198793Y-137193332D01*
X185318654Y-137308860D01*
X185437133Y-137426192D01*
X185548148Y-137539326D01*
X185645614Y-137642261D01*
X185723448Y-137728996D01*
X185763813Y-137777909D01*
X185806226Y-137830745D01*
X185838840Y-137868157D01*
X185854026Y-137881681D01*
X185865114Y-137864592D01*
X185891941Y-137815833D01*
X185932322Y-137739596D01*
X185984069Y-137640075D01*
X186044997Y-137521465D01*
X186112919Y-137387958D01*
X186159318Y-137296100D01*
X186303183Y-137013442D01*
X186441542Y-136747393D01*
X186573196Y-136500027D01*
X186696946Y-136273419D01*
X186811594Y-136069643D01*
X186915941Y-135890774D01*
X187008787Y-135738887D01*
X187088935Y-135616055D01*
X187155186Y-135524354D01*
X187206340Y-135465859D01*
X187226472Y-135449320D01*
X187261284Y-135428666D01*
X187273770Y-135428811D01*
G04 #@! TO.C,U2*
D14*
X170790894Y-80657379D02*
X170790894Y-81466903D01*
X170838513Y-81562141D01*
X170886132Y-81609760D01*
X170981370Y-81657379D01*
X171171846Y-81657379D01*
X171267084Y-81609760D01*
X171314703Y-81562141D01*
X171362322Y-81466903D01*
X171362322Y-80657379D01*
X171790894Y-80752618D02*
X171838513Y-80704999D01*
X171933751Y-80657379D01*
X172171846Y-80657379D01*
X172267084Y-80704999D01*
X172314703Y-80752618D01*
X172362322Y-80847856D01*
X172362322Y-80943094D01*
X172314703Y-81085951D01*
X171743275Y-81657379D01*
X172362322Y-81657379D01*
G04 #@! TO.C,C1*
X118338333Y-107672142D02*
X118290714Y-107719761D01*
X118147857Y-107767380D01*
X118052619Y-107767380D01*
X117909761Y-107719761D01*
X117814523Y-107624523D01*
X117766904Y-107529285D01*
X117719285Y-107338809D01*
X117719285Y-107195952D01*
X117766904Y-107005476D01*
X117814523Y-106910238D01*
X117909761Y-106815000D01*
X118052619Y-106767380D01*
X118147857Y-106767380D01*
X118290714Y-106815000D01*
X118338333Y-106862619D01*
X119290714Y-107767380D02*
X118719285Y-107767380D01*
X119005000Y-107767380D02*
X119005000Y-106767380D01*
X118909761Y-106910238D01*
X118814523Y-107005476D01*
X118719285Y-107053095D01*
G04 #@! TO.C,C2*
X125168333Y-107672142D02*
X125120714Y-107719761D01*
X124977857Y-107767380D01*
X124882619Y-107767380D01*
X124739761Y-107719761D01*
X124644523Y-107624523D01*
X124596904Y-107529285D01*
X124549285Y-107338809D01*
X124549285Y-107195952D01*
X124596904Y-107005476D01*
X124644523Y-106910238D01*
X124739761Y-106815000D01*
X124882619Y-106767380D01*
X124977857Y-106767380D01*
X125120714Y-106815000D01*
X125168333Y-106862619D01*
X125549285Y-106862619D02*
X125596904Y-106815000D01*
X125692142Y-106767380D01*
X125930238Y-106767380D01*
X126025476Y-106815000D01*
X126073095Y-106862619D01*
X126120714Y-106957857D01*
X126120714Y-107053095D01*
X126073095Y-107195952D01*
X125501666Y-107767380D01*
X126120714Y-107767380D01*
G04 #@! TO.C,U1*
X124896666Y-86447380D02*
X125087142Y-86447380D01*
X125182380Y-86495000D01*
X125277619Y-86590238D01*
X125325238Y-86780714D01*
X125325238Y-87114047D01*
X125277619Y-87304523D01*
X125182380Y-87399761D01*
X125087142Y-87447380D01*
X124896666Y-87447380D01*
X124801428Y-87399761D01*
X124706190Y-87304523D01*
X124658571Y-87114047D01*
X124658571Y-86780714D01*
X124706190Y-86590238D01*
X124801428Y-86495000D01*
X124896666Y-86447380D01*
X125753809Y-87447380D02*
X125753809Y-86447380D01*
X126325238Y-87447380D02*
X125896666Y-86875952D01*
X126325238Y-86447380D02*
X125753809Y-87018809D01*
X126753809Y-87447380D02*
X126753809Y-86447380D01*
G04 #@! TO.C,C3*
X113498333Y-107672142D02*
X113450714Y-107719761D01*
X113307857Y-107767380D01*
X113212619Y-107767380D01*
X113069761Y-107719761D01*
X112974523Y-107624523D01*
X112926904Y-107529285D01*
X112879285Y-107338809D01*
X112879285Y-107195952D01*
X112926904Y-107005476D01*
X112974523Y-106910238D01*
X113069761Y-106815000D01*
X113212619Y-106767380D01*
X113307857Y-106767380D01*
X113450714Y-106815000D01*
X113498333Y-106862619D01*
X113831666Y-106767380D02*
X114450714Y-106767380D01*
X114117380Y-107148333D01*
X114260238Y-107148333D01*
X114355476Y-107195952D01*
X114403095Y-107243571D01*
X114450714Y-107338809D01*
X114450714Y-107576904D01*
X114403095Y-107672142D01*
X114355476Y-107719761D01*
X114260238Y-107767380D01*
X113974523Y-107767380D01*
X113879285Y-107719761D01*
X113831666Y-107672142D01*
G04 #@! TO.C,C4*
X105878333Y-107672142D02*
X105830714Y-107719761D01*
X105687857Y-107767380D01*
X105592619Y-107767380D01*
X105449761Y-107719761D01*
X105354523Y-107624523D01*
X105306904Y-107529285D01*
X105259285Y-107338809D01*
X105259285Y-107195952D01*
X105306904Y-107005476D01*
X105354523Y-106910238D01*
X105449761Y-106815000D01*
X105592619Y-106767380D01*
X105687857Y-106767380D01*
X105830714Y-106815000D01*
X105878333Y-106862619D01*
X106735476Y-107100714D02*
X106735476Y-107767380D01*
X106497380Y-106719761D02*
X106259285Y-107434047D01*
X106878333Y-107434047D01*
G04 #@! TO.C,U3*
X112831666Y-86447380D02*
X113022142Y-86447380D01*
X113117380Y-86495000D01*
X113212619Y-86590238D01*
X113260238Y-86780714D01*
X113260238Y-87114047D01*
X113212619Y-87304523D01*
X113117380Y-87399761D01*
X113022142Y-87447380D01*
X112831666Y-87447380D01*
X112736428Y-87399761D01*
X112641190Y-87304523D01*
X112593571Y-87114047D01*
X112593571Y-86780714D01*
X112641190Y-86590238D01*
X112736428Y-86495000D01*
X112831666Y-86447380D01*
X113688809Y-87447380D02*
X113688809Y-86447380D01*
X114260238Y-87447380D02*
X113831666Y-86875952D01*
X114260238Y-86447380D02*
X113688809Y-87018809D01*
X114688809Y-87447380D02*
X114688809Y-86447380D01*
G04 #@! TO.C,D1*
X155711904Y-90622380D02*
X155711904Y-89622380D01*
X155950000Y-89622380D01*
X156092857Y-89670000D01*
X156188095Y-89765238D01*
X156235714Y-89860476D01*
X156283333Y-90050952D01*
X156283333Y-90193809D01*
X156235714Y-90384285D01*
X156188095Y-90479523D01*
X156092857Y-90574761D01*
X155950000Y-90622380D01*
X155711904Y-90622380D01*
X157235714Y-90622380D02*
X156664285Y-90622380D01*
X156950000Y-90622380D02*
X156950000Y-89622380D01*
X156854761Y-89765238D01*
X156759523Y-89860476D01*
X156664285Y-89908095D01*
G04 #@! TO.C,D2*
X155711904Y-94432380D02*
X155711904Y-93432380D01*
X155950000Y-93432380D01*
X156092857Y-93480000D01*
X156188095Y-93575238D01*
X156235714Y-93670476D01*
X156283333Y-93860952D01*
X156283333Y-94003809D01*
X156235714Y-94194285D01*
X156188095Y-94289523D01*
X156092857Y-94384761D01*
X155950000Y-94432380D01*
X155711904Y-94432380D01*
X156664285Y-93527619D02*
X156711904Y-93480000D01*
X156807142Y-93432380D01*
X157045238Y-93432380D01*
X157140476Y-93480000D01*
X157188095Y-93527619D01*
X157235714Y-93622857D01*
X157235714Y-93718095D01*
X157188095Y-93860952D01*
X156616666Y-94432380D01*
X157235714Y-94432380D01*
G04 #@! TO.C,D3*
X155711904Y-98242380D02*
X155711904Y-97242380D01*
X155950000Y-97242380D01*
X156092857Y-97290000D01*
X156188095Y-97385238D01*
X156235714Y-97480476D01*
X156283333Y-97670952D01*
X156283333Y-97813809D01*
X156235714Y-98004285D01*
X156188095Y-98099523D01*
X156092857Y-98194761D01*
X155950000Y-98242380D01*
X155711904Y-98242380D01*
X156616666Y-97242380D02*
X157235714Y-97242380D01*
X156902380Y-97623333D01*
X157045238Y-97623333D01*
X157140476Y-97670952D01*
X157188095Y-97718571D01*
X157235714Y-97813809D01*
X157235714Y-98051904D01*
X157188095Y-98147142D01*
X157140476Y-98194761D01*
X157045238Y-98242380D01*
X156759523Y-98242380D01*
X156664285Y-98194761D01*
X156616666Y-98147142D01*
G04 #@! TO.C,D4*
X155711904Y-113482380D02*
X155711904Y-112482380D01*
X155950000Y-112482380D01*
X156092857Y-112530000D01*
X156188095Y-112625238D01*
X156235714Y-112720476D01*
X156283333Y-112910952D01*
X156283333Y-113053809D01*
X156235714Y-113244285D01*
X156188095Y-113339523D01*
X156092857Y-113434761D01*
X155950000Y-113482380D01*
X155711904Y-113482380D01*
X157140476Y-112815714D02*
X157140476Y-113482380D01*
X156902380Y-112434761D02*
X156664285Y-113149047D01*
X157283333Y-113149047D01*
G04 #@! TO.C,D5*
X155471904Y-109672380D02*
X155471904Y-108672380D01*
X155710000Y-108672380D01*
X155852857Y-108720000D01*
X155948095Y-108815238D01*
X155995714Y-108910476D01*
X156043333Y-109100952D01*
X156043333Y-109243809D01*
X155995714Y-109434285D01*
X155948095Y-109529523D01*
X155852857Y-109624761D01*
X155710000Y-109672380D01*
X155471904Y-109672380D01*
X156948095Y-108672380D02*
X156471904Y-108672380D01*
X156424285Y-109148571D01*
X156471904Y-109100952D01*
X156567142Y-109053333D01*
X156805238Y-109053333D01*
X156900476Y-109100952D01*
X156948095Y-109148571D01*
X156995714Y-109243809D01*
X156995714Y-109481904D01*
X156948095Y-109577142D01*
X156900476Y-109624761D01*
X156805238Y-109672380D01*
X156567142Y-109672380D01*
X156471904Y-109624761D01*
X156424285Y-109577142D01*
G04 #@! TO.C,R1*
X151203333Y-90622380D02*
X150870000Y-90146190D01*
X150631904Y-90622380D02*
X150631904Y-89622380D01*
X151012857Y-89622380D01*
X151108095Y-89670000D01*
X151155714Y-89717619D01*
X151203333Y-89812857D01*
X151203333Y-89955714D01*
X151155714Y-90050952D01*
X151108095Y-90098571D01*
X151012857Y-90146190D01*
X150631904Y-90146190D01*
X152155714Y-90622380D02*
X151584285Y-90622380D01*
X151870000Y-90622380D02*
X151870000Y-89622380D01*
X151774761Y-89765238D01*
X151679523Y-89860476D01*
X151584285Y-89908095D01*
G04 #@! TO.C,R2*
X151203333Y-94432380D02*
X150870000Y-93956190D01*
X150631904Y-94432380D02*
X150631904Y-93432380D01*
X151012857Y-93432380D01*
X151108095Y-93480000D01*
X151155714Y-93527619D01*
X151203333Y-93622857D01*
X151203333Y-93765714D01*
X151155714Y-93860952D01*
X151108095Y-93908571D01*
X151012857Y-93956190D01*
X150631904Y-93956190D01*
X151584285Y-93527619D02*
X151631904Y-93480000D01*
X151727142Y-93432380D01*
X151965238Y-93432380D01*
X152060476Y-93480000D01*
X152108095Y-93527619D01*
X152155714Y-93622857D01*
X152155714Y-93718095D01*
X152108095Y-93860952D01*
X151536666Y-94432380D01*
X152155714Y-94432380D01*
G04 #@! TO.C,R3*
X151203333Y-98242380D02*
X150870000Y-97766190D01*
X150631904Y-98242380D02*
X150631904Y-97242380D01*
X151012857Y-97242380D01*
X151108095Y-97290000D01*
X151155714Y-97337619D01*
X151203333Y-97432857D01*
X151203333Y-97575714D01*
X151155714Y-97670952D01*
X151108095Y-97718571D01*
X151012857Y-97766190D01*
X150631904Y-97766190D01*
X151536666Y-97242380D02*
X152155714Y-97242380D01*
X151822380Y-97623333D01*
X151965238Y-97623333D01*
X152060476Y-97670952D01*
X152108095Y-97718571D01*
X152155714Y-97813809D01*
X152155714Y-98051904D01*
X152108095Y-98147142D01*
X152060476Y-98194761D01*
X151965238Y-98242380D01*
X151679523Y-98242380D01*
X151584285Y-98194761D01*
X151536666Y-98147142D01*
G04 #@! TO.C,R4*
X151358333Y-113482380D02*
X151025000Y-113006190D01*
X150786904Y-113482380D02*
X150786904Y-112482380D01*
X151167857Y-112482380D01*
X151263095Y-112530000D01*
X151310714Y-112577619D01*
X151358333Y-112672857D01*
X151358333Y-112815714D01*
X151310714Y-112910952D01*
X151263095Y-112958571D01*
X151167857Y-113006190D01*
X150786904Y-113006190D01*
X152215476Y-112815714D02*
X152215476Y-113482380D01*
X151977380Y-112434761D02*
X151739285Y-113149047D01*
X152358333Y-113149047D01*
G04 #@! TO.C,R5*
X151358333Y-109672380D02*
X151025000Y-109196190D01*
X150786904Y-109672380D02*
X150786904Y-108672380D01*
X151167857Y-108672380D01*
X151263095Y-108720000D01*
X151310714Y-108767619D01*
X151358333Y-108862857D01*
X151358333Y-109005714D01*
X151310714Y-109100952D01*
X151263095Y-109148571D01*
X151167857Y-109196190D01*
X150786904Y-109196190D01*
X152263095Y-108672380D02*
X151786904Y-108672380D01*
X151739285Y-109148571D01*
X151786904Y-109100952D01*
X151882142Y-109053333D01*
X152120238Y-109053333D01*
X152215476Y-109100952D01*
X152263095Y-109148571D01*
X152310714Y-109243809D01*
X152310714Y-109481904D01*
X152263095Y-109577142D01*
X152215476Y-109624761D01*
X152120238Y-109672380D01*
X151882142Y-109672380D01*
X151786904Y-109624761D01*
X151739285Y-109577142D01*
G04 #@! TO.C,C5*
X101433333Y-79097142D02*
X101385714Y-79144761D01*
X101242857Y-79192380D01*
X101147619Y-79192380D01*
X101004761Y-79144761D01*
X100909523Y-79049523D01*
X100861904Y-78954285D01*
X100814285Y-78763809D01*
X100814285Y-78620952D01*
X100861904Y-78430476D01*
X100909523Y-78335238D01*
X101004761Y-78240000D01*
X101147619Y-78192380D01*
X101242857Y-78192380D01*
X101385714Y-78240000D01*
X101433333Y-78287619D01*
X102338095Y-78192380D02*
X101861904Y-78192380D01*
X101814285Y-78668571D01*
X101861904Y-78620952D01*
X101957142Y-78573333D01*
X102195238Y-78573333D01*
X102290476Y-78620952D01*
X102338095Y-78668571D01*
X102385714Y-78763809D01*
X102385714Y-79001904D01*
X102338095Y-79097142D01*
X102290476Y-79144761D01*
X102195238Y-79192380D01*
X101957142Y-79192380D01*
X101861904Y-79144761D01*
X101814285Y-79097142D01*
G04 #@! TO.C,R6*
X89987380Y-99226666D02*
X89511190Y-99560000D01*
X89987380Y-99798095D02*
X88987380Y-99798095D01*
X88987380Y-99417142D01*
X89035000Y-99321904D01*
X89082619Y-99274285D01*
X89177857Y-99226666D01*
X89320714Y-99226666D01*
X89415952Y-99274285D01*
X89463571Y-99321904D01*
X89511190Y-99417142D01*
X89511190Y-99798095D01*
X88987380Y-98369523D02*
X88987380Y-98560000D01*
X89035000Y-98655238D01*
X89082619Y-98702857D01*
X89225476Y-98798095D01*
X89415952Y-98845714D01*
X89796904Y-98845714D01*
X89892142Y-98798095D01*
X89939761Y-98750476D01*
X89987380Y-98655238D01*
X89987380Y-98464761D01*
X89939761Y-98369523D01*
X89892142Y-98321904D01*
X89796904Y-98274285D01*
X89558809Y-98274285D01*
X89463571Y-98321904D01*
X89415952Y-98369523D01*
X89368333Y-98464761D01*
X89368333Y-98655238D01*
X89415952Y-98750476D01*
X89463571Y-98798095D01*
X89558809Y-98845714D01*
G04 #@! TO.C,R7*
X89987380Y-108751666D02*
X89511190Y-109085000D01*
X89987380Y-109323095D02*
X88987380Y-109323095D01*
X88987380Y-108942142D01*
X89035000Y-108846904D01*
X89082619Y-108799285D01*
X89177857Y-108751666D01*
X89320714Y-108751666D01*
X89415952Y-108799285D01*
X89463571Y-108846904D01*
X89511190Y-108942142D01*
X89511190Y-109323095D01*
X88987380Y-108418333D02*
X88987380Y-107751666D01*
X89987380Y-108180238D01*
G04 #@! TO.C,D6*
X155711904Y-105862380D02*
X155711904Y-104862380D01*
X155950000Y-104862380D01*
X156092857Y-104910000D01*
X156188095Y-105005238D01*
X156235714Y-105100476D01*
X156283333Y-105290952D01*
X156283333Y-105433809D01*
X156235714Y-105624285D01*
X156188095Y-105719523D01*
X156092857Y-105814761D01*
X155950000Y-105862380D01*
X155711904Y-105862380D01*
X157140476Y-104862380D02*
X156950000Y-104862380D01*
X156854761Y-104910000D01*
X156807142Y-104957619D01*
X156711904Y-105100476D01*
X156664285Y-105290952D01*
X156664285Y-105671904D01*
X156711904Y-105767142D01*
X156759523Y-105814761D01*
X156854761Y-105862380D01*
X157045238Y-105862380D01*
X157140476Y-105814761D01*
X157188095Y-105767142D01*
X157235714Y-105671904D01*
X157235714Y-105433809D01*
X157188095Y-105338571D01*
X157140476Y-105290952D01*
X157045238Y-105243333D01*
X156854761Y-105243333D01*
X156759523Y-105290952D01*
X156711904Y-105338571D01*
X156664285Y-105433809D01*
G04 #@! TO.C,D7*
X155711904Y-102052380D02*
X155711904Y-101052380D01*
X155950000Y-101052380D01*
X156092857Y-101100000D01*
X156188095Y-101195238D01*
X156235714Y-101290476D01*
X156283333Y-101480952D01*
X156283333Y-101623809D01*
X156235714Y-101814285D01*
X156188095Y-101909523D01*
X156092857Y-102004761D01*
X155950000Y-102052380D01*
X155711904Y-102052380D01*
X156616666Y-101052380D02*
X157283333Y-101052380D01*
X156854761Y-102052380D01*
G04 #@! TO.C,R8*
X151203333Y-105862380D02*
X150870000Y-105386190D01*
X150631904Y-105862380D02*
X150631904Y-104862380D01*
X151012857Y-104862380D01*
X151108095Y-104910000D01*
X151155714Y-104957619D01*
X151203333Y-105052857D01*
X151203333Y-105195714D01*
X151155714Y-105290952D01*
X151108095Y-105338571D01*
X151012857Y-105386190D01*
X150631904Y-105386190D01*
X151774761Y-105290952D02*
X151679523Y-105243333D01*
X151631904Y-105195714D01*
X151584285Y-105100476D01*
X151584285Y-105052857D01*
X151631904Y-104957619D01*
X151679523Y-104910000D01*
X151774761Y-104862380D01*
X151965238Y-104862380D01*
X152060476Y-104910000D01*
X152108095Y-104957619D01*
X152155714Y-105052857D01*
X152155714Y-105100476D01*
X152108095Y-105195714D01*
X152060476Y-105243333D01*
X151965238Y-105290952D01*
X151774761Y-105290952D01*
X151679523Y-105338571D01*
X151631904Y-105386190D01*
X151584285Y-105481428D01*
X151584285Y-105671904D01*
X151631904Y-105767142D01*
X151679523Y-105814761D01*
X151774761Y-105862380D01*
X151965238Y-105862380D01*
X152060476Y-105814761D01*
X152108095Y-105767142D01*
X152155714Y-105671904D01*
X152155714Y-105481428D01*
X152108095Y-105386190D01*
X152060476Y-105338571D01*
X151965238Y-105290952D01*
G04 #@! TO.C,R9*
X151203333Y-101892380D02*
X150870000Y-101416190D01*
X150631904Y-101892380D02*
X150631904Y-100892380D01*
X151012857Y-100892380D01*
X151108095Y-100940000D01*
X151155714Y-100987619D01*
X151203333Y-101082857D01*
X151203333Y-101225714D01*
X151155714Y-101320952D01*
X151108095Y-101368571D01*
X151012857Y-101416190D01*
X150631904Y-101416190D01*
X151679523Y-101892380D02*
X151870000Y-101892380D01*
X151965238Y-101844761D01*
X152012857Y-101797142D01*
X152108095Y-101654285D01*
X152155714Y-101463809D01*
X152155714Y-101082857D01*
X152108095Y-100987619D01*
X152060476Y-100940000D01*
X151965238Y-100892380D01*
X151774761Y-100892380D01*
X151679523Y-100940000D01*
X151631904Y-100987619D01*
X151584285Y-101082857D01*
X151584285Y-101320952D01*
X151631904Y-101416190D01*
X151679523Y-101463809D01*
X151774761Y-101511428D01*
X151965238Y-101511428D01*
X152060476Y-101463809D01*
X152108095Y-101416190D01*
X152155714Y-101320952D01*
G04 #@! TD*
M02*
