M48
;DRILL file {KiCad (5.0.2)-1} date 2/28/2019 4:52:58 PM
;FORMAT={-:-/ absolute / inch / decimal}
FMAT,2
INCH,TZ
T1C0.0350
T2C0.0354
T3C0.1598
%
G90
G05
T1
X6.Y-4.4
X6.Y-4.5
X6.Y-4.6
T2
X4.85Y-3.01
X4.85Y-3.11
X4.95Y-3.01
X4.95Y-3.11
X5.05Y-3.01
X5.05Y-3.11
X5.15Y-3.01
X5.15Y-3.11
X5.25Y-3.01
X5.25Y-3.11
X5.35Y-3.01
X5.35Y-3.11
X5.45Y-3.01
X5.45Y-3.11
X5.55Y-3.01
X5.55Y-3.11
X5.65Y-3.01
X5.65Y-3.11
X5.75Y-3.01
X5.75Y-3.11
X5.85Y-3.01
X5.85Y-3.11
X5.95Y-3.01
X5.95Y-3.11
X6.05Y-3.01
X6.05Y-3.11
X6.15Y-3.01
X6.15Y-3.11
X6.25Y-3.01
X6.25Y-3.11
X6.35Y-3.01
X6.35Y-3.11
X6.45Y-3.01
X6.45Y-3.11
X6.55Y-3.01
X6.55Y-3.11
X6.65Y-3.01
X6.65Y-3.11
X6.75Y-3.01
X6.75Y-3.11
T3
X6.6Y-4.355
X6.6Y-4.665
T0
M30
