G04 #@! TF.GenerationSoftware,KiCad,Pcbnew,(5.0.2)-1*
G04 #@! TF.CreationDate,2019-02-28T16:47:17-06:00*
G04 #@! TF.ProjectId,RaspberryPiBreakout_Hardware,52617370-6265-4727-9279-506942726561,rev?*
G04 #@! TF.SameCoordinates,Original*
G04 #@! TF.FileFunction,Copper,L2,Bot*
G04 #@! TF.FilePolarity,Positive*
%FSLAX46Y46*%
G04 Gerber Fmt 4.6, Leading zero omitted, Abs format (unit mm)*
G04 Created by KiCad (PCBNEW (5.0.2)-1) date 2/28/2019 4:47:17 PM*
%MOMM*%
%LPD*%
G01*
G04 APERTURE LIST*
G04 #@! TA.AperFunction,ComponentPad*
%ADD10C,1.700000*%
G04 #@! TD*
G04 #@! TA.AperFunction,ComponentPad*
%ADD11C,5.080000*%
G04 #@! TD*
G04 #@! TA.AperFunction,ComponentPad*
%ADD12C,1.524000*%
G04 #@! TD*
G04 #@! TA.AperFunction,Conductor*
%ADD13C,0.254000*%
G04 #@! TD*
G04 APERTURE END LIST*
D10*
G04 #@! TO.P,U2,40*
G04 #@! TO.N,Net-(U2-Pad40)*
X171450000Y-76454000D03*
G04 #@! TO.P,U2,39*
G04 #@! TO.N,GND*
X171450000Y-78994000D03*
G04 #@! TO.P,U2,38*
G04 #@! TO.N,Net-(U2-Pad38)*
X168910000Y-76454000D03*
G04 #@! TO.P,U2,37*
G04 #@! TO.N,Net-(U2-Pad37)*
X168910000Y-78994000D03*
G04 #@! TO.P,U2,36*
G04 #@! TO.N,Net-(U2-Pad36)*
X166370000Y-76454000D03*
G04 #@! TO.P,U2,35*
G04 #@! TO.N,Net-(U2-Pad35)*
X166370000Y-78994000D03*
G04 #@! TO.P,U2,34*
G04 #@! TO.N,GND*
X163830000Y-76454000D03*
G04 #@! TO.P,U2,33*
G04 #@! TO.N,Net-(U2-Pad33)*
X163830000Y-78994000D03*
G04 #@! TO.P,U2,32*
G04 #@! TO.N,Net-(U2-Pad32)*
X161290000Y-76454000D03*
G04 #@! TO.P,U2,31*
G04 #@! TO.N,Net-(U2-Pad31)*
X161290000Y-78994000D03*
G04 #@! TO.P,U2,30*
G04 #@! TO.N,GND*
X158750000Y-76454000D03*
G04 #@! TO.P,U2,29*
G04 #@! TO.N,Net-(U2-Pad29)*
X158750000Y-78994000D03*
G04 #@! TO.P,U2,28*
G04 #@! TO.N,Net-(U2-Pad28)*
X156210000Y-76454000D03*
G04 #@! TO.P,U2,27*
G04 #@! TO.N,Net-(U2-Pad27)*
X156210000Y-78994000D03*
G04 #@! TO.P,U2,26*
G04 #@! TO.N,Net-(U2-Pad26)*
X153670000Y-76454000D03*
G04 #@! TO.P,U2,25*
G04 #@! TO.N,GND*
X153670000Y-78994000D03*
G04 #@! TO.P,U2,24*
G04 #@! TO.N,Net-(U2-Pad24)*
X151130000Y-76454000D03*
G04 #@! TO.P,U2,23*
G04 #@! TO.N,Net-(U2-Pad23)*
X151130000Y-78994000D03*
G04 #@! TO.P,U2,22*
G04 #@! TO.N,Net-(U2-Pad22)*
X148590000Y-76454000D03*
G04 #@! TO.P,U2,21*
G04 #@! TO.N,Net-(U2-Pad21)*
X148590000Y-78994000D03*
G04 #@! TO.P,U2,20*
G04 #@! TO.N,GND*
X146050000Y-76454000D03*
G04 #@! TO.P,U2,19*
G04 #@! TO.N,Net-(U2-Pad19)*
X146050000Y-78994000D03*
G04 #@! TO.P,U2,18*
G04 #@! TO.N,N/C*
X143510000Y-76454000D03*
G04 #@! TO.P,U2,17*
G04 #@! TO.N,Net-(U2-Pad17)*
X143510000Y-78994000D03*
G04 #@! TO.P,U2,16*
G04 #@! TO.N,Net-(U2-Pad16)*
X140970000Y-76454000D03*
G04 #@! TO.P,U2,15*
G04 #@! TO.N,Net-(U2-Pad15)*
X140970000Y-78994000D03*
G04 #@! TO.P,U2,14*
G04 #@! TO.N,GND*
X138430000Y-76454000D03*
G04 #@! TO.P,U2,13*
G04 #@! TO.N,Net-(U2-Pad13)*
X138430000Y-78994000D03*
G04 #@! TO.P,U2,12*
G04 #@! TO.N,Net-(U2-Pad12)*
X135890000Y-76454000D03*
G04 #@! TO.P,U2,11*
G04 #@! TO.N,Net-(U2-Pad11)*
X135890000Y-78994000D03*
G04 #@! TO.P,U2,10*
G04 #@! TO.N,Net-(U2-Pad10)*
X133350000Y-76454000D03*
G04 #@! TO.P,U2,9*
G04 #@! TO.N,GND*
X133350000Y-78994000D03*
G04 #@! TO.P,U2,8*
G04 #@! TO.N,Net-(U2-Pad8)*
X130810000Y-76454000D03*
G04 #@! TO.P,U2,7*
G04 #@! TO.N,Net-(U2-Pad7)*
X130810000Y-78994000D03*
G04 #@! TO.P,U2,6*
G04 #@! TO.N,GND*
X128270000Y-76454000D03*
G04 #@! TO.P,U2,5*
G04 #@! TO.N,Net-(U2-Pad5)*
X128270000Y-78994000D03*
G04 #@! TO.P,U2,4*
G04 #@! TO.N,+5V*
X125730000Y-76454000D03*
G04 #@! TO.P,U2,3*
G04 #@! TO.N,Net-(U2-Pad3)*
X125730000Y-78994000D03*
G04 #@! TO.P,U2,2*
G04 #@! TO.N,+5V*
X123190000Y-76454000D03*
G04 #@! TO.P,U2,1*
G04 #@! TO.N,Net-(U2-Pad1)*
X123190000Y-78994000D03*
G04 #@! TD*
D11*
G04 #@! TO.P,Conn1,1*
G04 #@! TO.N,GND*
X167640000Y-118491000D03*
G04 #@! TO.P,Conn1,2*
G04 #@! TO.N,Net-(C1-Pad1)*
X167640000Y-110617000D03*
G04 #@! TD*
D12*
G04 #@! TO.P,U1,3*
G04 #@! TO.N,+5V*
X152400000Y-116840000D03*
G04 #@! TO.P,U1,2*
G04 #@! TO.N,GND*
X152400000Y-114300000D03*
G04 #@! TO.P,U1,1*
G04 #@! TO.N,Net-(C1-Pad1)*
X152400000Y-111760000D03*
G04 #@! TD*
D13*
G04 #@! TO.N,GND*
G36*
X196723000Y-130085863D02*
X196563217Y-130117646D01*
X196320095Y-130280095D01*
X196157646Y-130523218D01*
X196115000Y-130737613D01*
X196115001Y-138349237D01*
X195794241Y-138445164D01*
X195706769Y-138485582D01*
X195618806Y-138524929D01*
X195611502Y-138529601D01*
X195611498Y-138529603D01*
X195611499Y-138529603D01*
X195128040Y-138842966D01*
X195055447Y-138906293D01*
X194982045Y-138968763D01*
X194976343Y-138975300D01*
X194600266Y-139411759D01*
X194548347Y-139492942D01*
X194495446Y-139573475D01*
X194491808Y-139581350D01*
X194253347Y-140105817D01*
X194226300Y-140198309D01*
X194198129Y-140290452D01*
X194196847Y-140299031D01*
X194115171Y-140869346D01*
X194115171Y-140941766D01*
X194109362Y-141013963D01*
X194109952Y-141022618D01*
X194132272Y-141322966D01*
X194147826Y-141393711D01*
X194157654Y-141465455D01*
X194160088Y-141473781D01*
X194325164Y-142025758D01*
X194365591Y-142113250D01*
X194404930Y-142201194D01*
X194409603Y-142208501D01*
X194722966Y-142691961D01*
X194786328Y-142764594D01*
X194848763Y-142837955D01*
X194855296Y-142843654D01*
X194855300Y-142843658D01*
X194855305Y-142843661D01*
X195291759Y-143219734D01*
X195372942Y-143271653D01*
X195453475Y-143324554D01*
X195461346Y-143328190D01*
X195461349Y-143328192D01*
X195461352Y-143328193D01*
X195985817Y-143566653D01*
X196078309Y-143593700D01*
X196115000Y-143604917D01*
X196115001Y-151710388D01*
X196119297Y-151731983D01*
X196079910Y-152007009D01*
X195925619Y-152346352D01*
X195682288Y-152628752D01*
X195369479Y-152831506D01*
X194988815Y-152945348D01*
X194955032Y-152947858D01*
X194890388Y-152935000D01*
X74349612Y-152935000D01*
X74328014Y-152939296D01*
X74052991Y-152899910D01*
X73713648Y-152745619D01*
X73431248Y-152502288D01*
X73228494Y-152189479D01*
X73114652Y-151808815D01*
X73112142Y-151775032D01*
X73125000Y-151710388D01*
X73125000Y-143590763D01*
X73445758Y-143494836D01*
X73533250Y-143454409D01*
X73621194Y-143415070D01*
X73628498Y-143410399D01*
X73628502Y-143410397D01*
X74111961Y-143097034D01*
X74184594Y-143033672D01*
X74257955Y-142971237D01*
X74263654Y-142964704D01*
X74263658Y-142964700D01*
X74263661Y-142964695D01*
X74639734Y-142528241D01*
X74691653Y-142447058D01*
X74744554Y-142366525D01*
X74748192Y-142358650D01*
X74986653Y-141834183D01*
X75013700Y-141741691D01*
X75041871Y-141649548D01*
X75043153Y-141640969D01*
X75124829Y-141070653D01*
X75124829Y-140998233D01*
X75130638Y-140926036D01*
X75130048Y-140917382D01*
X75107728Y-140617033D01*
X75092174Y-140546288D01*
X75082346Y-140474544D01*
X75079912Y-140466219D01*
X74914836Y-139914241D01*
X74874418Y-139826769D01*
X74835071Y-139738806D01*
X74830397Y-139731499D01*
X74517034Y-139248040D01*
X74453707Y-139175447D01*
X74391237Y-139102045D01*
X74384700Y-139096343D01*
X73948241Y-138720266D01*
X73867058Y-138668347D01*
X73786525Y-138615446D01*
X73778654Y-138611810D01*
X73778651Y-138611808D01*
X73778648Y-138611807D01*
X73254183Y-138373347D01*
X73161691Y-138346300D01*
X73125000Y-138335083D01*
X73125000Y-126299322D01*
X116185000Y-126299322D01*
X116185000Y-127148678D01*
X116510034Y-127933380D01*
X117110620Y-128533966D01*
X117895322Y-128859000D01*
X118744678Y-128859000D01*
X119529380Y-128533966D01*
X120129966Y-127933380D01*
X120455000Y-127148678D01*
X120455000Y-126299322D01*
X120129966Y-125514620D01*
X119529380Y-124914034D01*
X118744678Y-124589000D01*
X117895322Y-124589000D01*
X117110620Y-124914034D01*
X116510034Y-125514620D01*
X116185000Y-126299322D01*
X73125000Y-126299322D01*
X73125000Y-116562119D01*
X151003000Y-116562119D01*
X151003000Y-117117881D01*
X151215680Y-117631337D01*
X151608663Y-118024320D01*
X152122119Y-118237000D01*
X152677881Y-118237000D01*
X153191337Y-118024320D01*
X153584320Y-117631337D01*
X153797000Y-117117881D01*
X153797000Y-116562119D01*
X153584320Y-116048663D01*
X153191337Y-115655680D01*
X152677881Y-115443000D01*
X152122119Y-115443000D01*
X151608663Y-115655680D01*
X151215680Y-116048663D01*
X151003000Y-116562119D01*
X73125000Y-116562119D01*
X73125000Y-111482119D01*
X151003000Y-111482119D01*
X151003000Y-112037881D01*
X151215680Y-112551337D01*
X151608663Y-112944320D01*
X152122119Y-113157000D01*
X152677881Y-113157000D01*
X153191337Y-112944320D01*
X153584320Y-112551337D01*
X153797000Y-112037881D01*
X153797000Y-111482119D01*
X153584320Y-110968663D01*
X153191337Y-110575680D01*
X152677881Y-110363000D01*
X152122119Y-110363000D01*
X151608663Y-110575680D01*
X151215680Y-110968663D01*
X151003000Y-111482119D01*
X73125000Y-111482119D01*
X73125000Y-109985453D01*
X164465000Y-109985453D01*
X164465000Y-111248547D01*
X164948365Y-112415493D01*
X165841507Y-113308635D01*
X167008453Y-113792000D01*
X168271547Y-113792000D01*
X169438493Y-113308635D01*
X170331635Y-112415493D01*
X170815000Y-111248547D01*
X170815000Y-109985453D01*
X170331635Y-108818507D01*
X169438493Y-107925365D01*
X168271547Y-107442000D01*
X167008453Y-107442000D01*
X165841507Y-107925365D01*
X164948365Y-108818507D01*
X164465000Y-109985453D01*
X73125000Y-109985453D01*
X73125000Y-77299322D01*
X116185000Y-77299322D01*
X116185000Y-78148678D01*
X116510034Y-78933380D01*
X117110620Y-79533966D01*
X117895322Y-79859000D01*
X118744678Y-79859000D01*
X119529380Y-79533966D01*
X120129966Y-78933380D01*
X120455000Y-78148678D01*
X120455000Y-77299322D01*
X120129966Y-76514620D01*
X119529380Y-75914034D01*
X118744678Y-75589000D01*
X117895322Y-75589000D01*
X117110620Y-75914034D01*
X116510034Y-76514620D01*
X116185000Y-77299322D01*
X73125000Y-77299322D01*
X73125000Y-76381612D01*
X73120704Y-76360014D01*
X73160090Y-76084991D01*
X73314381Y-75745648D01*
X73557712Y-75463248D01*
X73870523Y-75260494D01*
X74251184Y-75146652D01*
X74284968Y-75144142D01*
X74349612Y-75157000D01*
X122440743Y-75157000D01*
X122348815Y-75195078D01*
X121931078Y-75612815D01*
X121705000Y-76158615D01*
X121705000Y-76749385D01*
X121931078Y-77295185D01*
X122348815Y-77712922D01*
X122375560Y-77724000D01*
X122348815Y-77735078D01*
X121931078Y-78152815D01*
X121705000Y-78698615D01*
X121705000Y-79289385D01*
X121931078Y-79835185D01*
X122348815Y-80252922D01*
X122894615Y-80479000D01*
X123485385Y-80479000D01*
X124031185Y-80252922D01*
X124448922Y-79835185D01*
X124460000Y-79808440D01*
X124471078Y-79835185D01*
X124888815Y-80252922D01*
X125434615Y-80479000D01*
X126025385Y-80479000D01*
X126571185Y-80252922D01*
X126988922Y-79835185D01*
X127000000Y-79808440D01*
X127011078Y-79835185D01*
X127428815Y-80252922D01*
X127974615Y-80479000D01*
X128565385Y-80479000D01*
X129111185Y-80252922D01*
X129528922Y-79835185D01*
X129540000Y-79808440D01*
X129551078Y-79835185D01*
X129968815Y-80252922D01*
X130514615Y-80479000D01*
X131105385Y-80479000D01*
X131651185Y-80252922D01*
X132068922Y-79835185D01*
X132295000Y-79289385D01*
X132295000Y-78698615D01*
X132068922Y-78152815D01*
X131651185Y-77735078D01*
X131624440Y-77724000D01*
X131651185Y-77712922D01*
X132068922Y-77295185D01*
X132080000Y-77268440D01*
X132091078Y-77295185D01*
X132508815Y-77712922D01*
X133054615Y-77939000D01*
X133645385Y-77939000D01*
X134191185Y-77712922D01*
X134608922Y-77295185D01*
X134620000Y-77268440D01*
X134631078Y-77295185D01*
X135048815Y-77712922D01*
X135075560Y-77724000D01*
X135048815Y-77735078D01*
X134631078Y-78152815D01*
X134405000Y-78698615D01*
X134405000Y-79289385D01*
X134631078Y-79835185D01*
X135048815Y-80252922D01*
X135594615Y-80479000D01*
X136185385Y-80479000D01*
X136731185Y-80252922D01*
X137148922Y-79835185D01*
X137160000Y-79808440D01*
X137171078Y-79835185D01*
X137588815Y-80252922D01*
X138134615Y-80479000D01*
X138725385Y-80479000D01*
X139271185Y-80252922D01*
X139688922Y-79835185D01*
X139700000Y-79808440D01*
X139711078Y-79835185D01*
X140128815Y-80252922D01*
X140674615Y-80479000D01*
X141265385Y-80479000D01*
X141811185Y-80252922D01*
X142228922Y-79835185D01*
X142240000Y-79808440D01*
X142251078Y-79835185D01*
X142668815Y-80252922D01*
X143214615Y-80479000D01*
X143805385Y-80479000D01*
X144351185Y-80252922D01*
X144768922Y-79835185D01*
X144780000Y-79808440D01*
X144791078Y-79835185D01*
X145208815Y-80252922D01*
X145754615Y-80479000D01*
X146345385Y-80479000D01*
X146891185Y-80252922D01*
X147308922Y-79835185D01*
X147320000Y-79808440D01*
X147331078Y-79835185D01*
X147748815Y-80252922D01*
X148294615Y-80479000D01*
X148885385Y-80479000D01*
X149431185Y-80252922D01*
X149848922Y-79835185D01*
X149860000Y-79808440D01*
X149871078Y-79835185D01*
X150288815Y-80252922D01*
X150834615Y-80479000D01*
X151425385Y-80479000D01*
X151971185Y-80252922D01*
X152388922Y-79835185D01*
X152615000Y-79289385D01*
X152615000Y-78698615D01*
X152388922Y-78152815D01*
X151971185Y-77735078D01*
X151944440Y-77724000D01*
X151971185Y-77712922D01*
X152388922Y-77295185D01*
X152400000Y-77268440D01*
X152411078Y-77295185D01*
X152828815Y-77712922D01*
X153374615Y-77939000D01*
X153965385Y-77939000D01*
X154511185Y-77712922D01*
X154928922Y-77295185D01*
X154940000Y-77268440D01*
X154951078Y-77295185D01*
X155368815Y-77712922D01*
X155395560Y-77724000D01*
X155368815Y-77735078D01*
X154951078Y-78152815D01*
X154725000Y-78698615D01*
X154725000Y-79289385D01*
X154951078Y-79835185D01*
X155368815Y-80252922D01*
X155914615Y-80479000D01*
X156505385Y-80479000D01*
X157051185Y-80252922D01*
X157468922Y-79835185D01*
X157480000Y-79808440D01*
X157491078Y-79835185D01*
X157908815Y-80252922D01*
X158454615Y-80479000D01*
X159045385Y-80479000D01*
X159591185Y-80252922D01*
X160008922Y-79835185D01*
X160020000Y-79808440D01*
X160031078Y-79835185D01*
X160448815Y-80252922D01*
X160994615Y-80479000D01*
X161585385Y-80479000D01*
X162131185Y-80252922D01*
X162548922Y-79835185D01*
X162560000Y-79808440D01*
X162571078Y-79835185D01*
X162988815Y-80252922D01*
X163534615Y-80479000D01*
X164125385Y-80479000D01*
X164671185Y-80252922D01*
X165088922Y-79835185D01*
X165100000Y-79808440D01*
X165111078Y-79835185D01*
X165528815Y-80252922D01*
X166074615Y-80479000D01*
X166665385Y-80479000D01*
X167211185Y-80252922D01*
X167628922Y-79835185D01*
X167640000Y-79808440D01*
X167651078Y-79835185D01*
X168068815Y-80252922D01*
X168614615Y-80479000D01*
X169205385Y-80479000D01*
X169751185Y-80252922D01*
X170168922Y-79835185D01*
X170395000Y-79289385D01*
X170395000Y-78698615D01*
X170168922Y-78152815D01*
X169751185Y-77735078D01*
X169724440Y-77724000D01*
X169751185Y-77712922D01*
X170168922Y-77295185D01*
X170180000Y-77268440D01*
X170191078Y-77295185D01*
X170608815Y-77712922D01*
X171154615Y-77939000D01*
X171745385Y-77939000D01*
X172291185Y-77712922D01*
X172708922Y-77295185D01*
X172935000Y-76749385D01*
X172935000Y-76158615D01*
X172708922Y-75612815D01*
X172291185Y-75195078D01*
X172199257Y-75157000D01*
X177110388Y-75157000D01*
X177131986Y-75152704D01*
X177407009Y-75192090D01*
X177746352Y-75346381D01*
X178028752Y-75589712D01*
X178231506Y-75902523D01*
X178345348Y-76283184D01*
X178347859Y-76316969D01*
X178335000Y-76381613D01*
X178335000Y-77009616D01*
X178129966Y-76514620D01*
X177529380Y-75914034D01*
X176744678Y-75589000D01*
X175895322Y-75589000D01*
X175110620Y-75914034D01*
X174510034Y-76514620D01*
X174185000Y-77299322D01*
X174185000Y-78148678D01*
X174510034Y-78933380D01*
X175110620Y-79533966D01*
X175895322Y-79859000D01*
X176744678Y-79859000D01*
X177529380Y-79533966D01*
X178129966Y-78933380D01*
X178335000Y-78438384D01*
X178335001Y-126009618D01*
X178129966Y-125514620D01*
X177529380Y-124914034D01*
X176744678Y-124589000D01*
X175895322Y-124589000D01*
X175110620Y-124914034D01*
X174510034Y-125514620D01*
X174185000Y-126299322D01*
X174185000Y-127148678D01*
X174510034Y-127933380D01*
X175110620Y-128533966D01*
X175895322Y-128859000D01*
X176744678Y-128859000D01*
X177529380Y-128533966D01*
X178129966Y-127933380D01*
X178335001Y-127438381D01*
X178335001Y-128705607D01*
X178320601Y-128778000D01*
X178377646Y-129064783D01*
X178540095Y-129307905D01*
X178783217Y-129470354D01*
X178997612Y-129513000D01*
X179070000Y-129527399D01*
X179142388Y-129513000D01*
X194890388Y-129513000D01*
X195104783Y-129470354D01*
X195347905Y-129307905D01*
X195510354Y-129064783D01*
X195567399Y-128778000D01*
X195510354Y-128491217D01*
X195347905Y-128248095D01*
X195104783Y-128085646D01*
X194890388Y-128043000D01*
X179805000Y-128043000D01*
X179805000Y-76381612D01*
X179762354Y-76167217D01*
X179760433Y-76164342D01*
X179755728Y-76101033D01*
X179740174Y-76030288D01*
X179730346Y-75958544D01*
X179727912Y-75950219D01*
X179562836Y-75398241D01*
X179522418Y-75310769D01*
X179483071Y-75222806D01*
X179478397Y-75215499D01*
X179165034Y-74732040D01*
X179101707Y-74659447D01*
X179039237Y-74586045D01*
X179032700Y-74580343D01*
X178596241Y-74204266D01*
X178515058Y-74152347D01*
X178434525Y-74099446D01*
X178426654Y-74095810D01*
X178426651Y-74095808D01*
X178426648Y-74095807D01*
X177902183Y-73857347D01*
X177809691Y-73830300D01*
X177717548Y-73802129D01*
X177708969Y-73800847D01*
X177612281Y-73787000D01*
X196723000Y-73787000D01*
X196723000Y-130085863D01*
X196723000Y-130085863D01*
G37*
X196723000Y-130085863D02*
X196563217Y-130117646D01*
X196320095Y-130280095D01*
X196157646Y-130523218D01*
X196115000Y-130737613D01*
X196115001Y-138349237D01*
X195794241Y-138445164D01*
X195706769Y-138485582D01*
X195618806Y-138524929D01*
X195611502Y-138529601D01*
X195611498Y-138529603D01*
X195611499Y-138529603D01*
X195128040Y-138842966D01*
X195055447Y-138906293D01*
X194982045Y-138968763D01*
X194976343Y-138975300D01*
X194600266Y-139411759D01*
X194548347Y-139492942D01*
X194495446Y-139573475D01*
X194491808Y-139581350D01*
X194253347Y-140105817D01*
X194226300Y-140198309D01*
X194198129Y-140290452D01*
X194196847Y-140299031D01*
X194115171Y-140869346D01*
X194115171Y-140941766D01*
X194109362Y-141013963D01*
X194109952Y-141022618D01*
X194132272Y-141322966D01*
X194147826Y-141393711D01*
X194157654Y-141465455D01*
X194160088Y-141473781D01*
X194325164Y-142025758D01*
X194365591Y-142113250D01*
X194404930Y-142201194D01*
X194409603Y-142208501D01*
X194722966Y-142691961D01*
X194786328Y-142764594D01*
X194848763Y-142837955D01*
X194855296Y-142843654D01*
X194855300Y-142843658D01*
X194855305Y-142843661D01*
X195291759Y-143219734D01*
X195372942Y-143271653D01*
X195453475Y-143324554D01*
X195461346Y-143328190D01*
X195461349Y-143328192D01*
X195461352Y-143328193D01*
X195985817Y-143566653D01*
X196078309Y-143593700D01*
X196115000Y-143604917D01*
X196115001Y-151710388D01*
X196119297Y-151731983D01*
X196079910Y-152007009D01*
X195925619Y-152346352D01*
X195682288Y-152628752D01*
X195369479Y-152831506D01*
X194988815Y-152945348D01*
X194955032Y-152947858D01*
X194890388Y-152935000D01*
X74349612Y-152935000D01*
X74328014Y-152939296D01*
X74052991Y-152899910D01*
X73713648Y-152745619D01*
X73431248Y-152502288D01*
X73228494Y-152189479D01*
X73114652Y-151808815D01*
X73112142Y-151775032D01*
X73125000Y-151710388D01*
X73125000Y-143590763D01*
X73445758Y-143494836D01*
X73533250Y-143454409D01*
X73621194Y-143415070D01*
X73628498Y-143410399D01*
X73628502Y-143410397D01*
X74111961Y-143097034D01*
X74184594Y-143033672D01*
X74257955Y-142971237D01*
X74263654Y-142964704D01*
X74263658Y-142964700D01*
X74263661Y-142964695D01*
X74639734Y-142528241D01*
X74691653Y-142447058D01*
X74744554Y-142366525D01*
X74748192Y-142358650D01*
X74986653Y-141834183D01*
X75013700Y-141741691D01*
X75041871Y-141649548D01*
X75043153Y-141640969D01*
X75124829Y-141070653D01*
X75124829Y-140998233D01*
X75130638Y-140926036D01*
X75130048Y-140917382D01*
X75107728Y-140617033D01*
X75092174Y-140546288D01*
X75082346Y-140474544D01*
X75079912Y-140466219D01*
X74914836Y-139914241D01*
X74874418Y-139826769D01*
X74835071Y-139738806D01*
X74830397Y-139731499D01*
X74517034Y-139248040D01*
X74453707Y-139175447D01*
X74391237Y-139102045D01*
X74384700Y-139096343D01*
X73948241Y-138720266D01*
X73867058Y-138668347D01*
X73786525Y-138615446D01*
X73778654Y-138611810D01*
X73778651Y-138611808D01*
X73778648Y-138611807D01*
X73254183Y-138373347D01*
X73161691Y-138346300D01*
X73125000Y-138335083D01*
X73125000Y-126299322D01*
X116185000Y-126299322D01*
X116185000Y-127148678D01*
X116510034Y-127933380D01*
X117110620Y-128533966D01*
X117895322Y-128859000D01*
X118744678Y-128859000D01*
X119529380Y-128533966D01*
X120129966Y-127933380D01*
X120455000Y-127148678D01*
X120455000Y-126299322D01*
X120129966Y-125514620D01*
X119529380Y-124914034D01*
X118744678Y-124589000D01*
X117895322Y-124589000D01*
X117110620Y-124914034D01*
X116510034Y-125514620D01*
X116185000Y-126299322D01*
X73125000Y-126299322D01*
X73125000Y-116562119D01*
X151003000Y-116562119D01*
X151003000Y-117117881D01*
X151215680Y-117631337D01*
X151608663Y-118024320D01*
X152122119Y-118237000D01*
X152677881Y-118237000D01*
X153191337Y-118024320D01*
X153584320Y-117631337D01*
X153797000Y-117117881D01*
X153797000Y-116562119D01*
X153584320Y-116048663D01*
X153191337Y-115655680D01*
X152677881Y-115443000D01*
X152122119Y-115443000D01*
X151608663Y-115655680D01*
X151215680Y-116048663D01*
X151003000Y-116562119D01*
X73125000Y-116562119D01*
X73125000Y-111482119D01*
X151003000Y-111482119D01*
X151003000Y-112037881D01*
X151215680Y-112551337D01*
X151608663Y-112944320D01*
X152122119Y-113157000D01*
X152677881Y-113157000D01*
X153191337Y-112944320D01*
X153584320Y-112551337D01*
X153797000Y-112037881D01*
X153797000Y-111482119D01*
X153584320Y-110968663D01*
X153191337Y-110575680D01*
X152677881Y-110363000D01*
X152122119Y-110363000D01*
X151608663Y-110575680D01*
X151215680Y-110968663D01*
X151003000Y-111482119D01*
X73125000Y-111482119D01*
X73125000Y-109985453D01*
X164465000Y-109985453D01*
X164465000Y-111248547D01*
X164948365Y-112415493D01*
X165841507Y-113308635D01*
X167008453Y-113792000D01*
X168271547Y-113792000D01*
X169438493Y-113308635D01*
X170331635Y-112415493D01*
X170815000Y-111248547D01*
X170815000Y-109985453D01*
X170331635Y-108818507D01*
X169438493Y-107925365D01*
X168271547Y-107442000D01*
X167008453Y-107442000D01*
X165841507Y-107925365D01*
X164948365Y-108818507D01*
X164465000Y-109985453D01*
X73125000Y-109985453D01*
X73125000Y-77299322D01*
X116185000Y-77299322D01*
X116185000Y-78148678D01*
X116510034Y-78933380D01*
X117110620Y-79533966D01*
X117895322Y-79859000D01*
X118744678Y-79859000D01*
X119529380Y-79533966D01*
X120129966Y-78933380D01*
X120455000Y-78148678D01*
X120455000Y-77299322D01*
X120129966Y-76514620D01*
X119529380Y-75914034D01*
X118744678Y-75589000D01*
X117895322Y-75589000D01*
X117110620Y-75914034D01*
X116510034Y-76514620D01*
X116185000Y-77299322D01*
X73125000Y-77299322D01*
X73125000Y-76381612D01*
X73120704Y-76360014D01*
X73160090Y-76084991D01*
X73314381Y-75745648D01*
X73557712Y-75463248D01*
X73870523Y-75260494D01*
X74251184Y-75146652D01*
X74284968Y-75144142D01*
X74349612Y-75157000D01*
X122440743Y-75157000D01*
X122348815Y-75195078D01*
X121931078Y-75612815D01*
X121705000Y-76158615D01*
X121705000Y-76749385D01*
X121931078Y-77295185D01*
X122348815Y-77712922D01*
X122375560Y-77724000D01*
X122348815Y-77735078D01*
X121931078Y-78152815D01*
X121705000Y-78698615D01*
X121705000Y-79289385D01*
X121931078Y-79835185D01*
X122348815Y-80252922D01*
X122894615Y-80479000D01*
X123485385Y-80479000D01*
X124031185Y-80252922D01*
X124448922Y-79835185D01*
X124460000Y-79808440D01*
X124471078Y-79835185D01*
X124888815Y-80252922D01*
X125434615Y-80479000D01*
X126025385Y-80479000D01*
X126571185Y-80252922D01*
X126988922Y-79835185D01*
X127000000Y-79808440D01*
X127011078Y-79835185D01*
X127428815Y-80252922D01*
X127974615Y-80479000D01*
X128565385Y-80479000D01*
X129111185Y-80252922D01*
X129528922Y-79835185D01*
X129540000Y-79808440D01*
X129551078Y-79835185D01*
X129968815Y-80252922D01*
X130514615Y-80479000D01*
X131105385Y-80479000D01*
X131651185Y-80252922D01*
X132068922Y-79835185D01*
X132295000Y-79289385D01*
X132295000Y-78698615D01*
X132068922Y-78152815D01*
X131651185Y-77735078D01*
X131624440Y-77724000D01*
X131651185Y-77712922D01*
X132068922Y-77295185D01*
X132080000Y-77268440D01*
X132091078Y-77295185D01*
X132508815Y-77712922D01*
X133054615Y-77939000D01*
X133645385Y-77939000D01*
X134191185Y-77712922D01*
X134608922Y-77295185D01*
X134620000Y-77268440D01*
X134631078Y-77295185D01*
X135048815Y-77712922D01*
X135075560Y-77724000D01*
X135048815Y-77735078D01*
X134631078Y-78152815D01*
X134405000Y-78698615D01*
X134405000Y-79289385D01*
X134631078Y-79835185D01*
X135048815Y-80252922D01*
X135594615Y-80479000D01*
X136185385Y-80479000D01*
X136731185Y-80252922D01*
X137148922Y-79835185D01*
X137160000Y-79808440D01*
X137171078Y-79835185D01*
X137588815Y-80252922D01*
X138134615Y-80479000D01*
X138725385Y-80479000D01*
X139271185Y-80252922D01*
X139688922Y-79835185D01*
X139700000Y-79808440D01*
X139711078Y-79835185D01*
X140128815Y-80252922D01*
X140674615Y-80479000D01*
X141265385Y-80479000D01*
X141811185Y-80252922D01*
X142228922Y-79835185D01*
X142240000Y-79808440D01*
X142251078Y-79835185D01*
X142668815Y-80252922D01*
X143214615Y-80479000D01*
X143805385Y-80479000D01*
X144351185Y-80252922D01*
X144768922Y-79835185D01*
X144780000Y-79808440D01*
X144791078Y-79835185D01*
X145208815Y-80252922D01*
X145754615Y-80479000D01*
X146345385Y-80479000D01*
X146891185Y-80252922D01*
X147308922Y-79835185D01*
X147320000Y-79808440D01*
X147331078Y-79835185D01*
X147748815Y-80252922D01*
X148294615Y-80479000D01*
X148885385Y-80479000D01*
X149431185Y-80252922D01*
X149848922Y-79835185D01*
X149860000Y-79808440D01*
X149871078Y-79835185D01*
X150288815Y-80252922D01*
X150834615Y-80479000D01*
X151425385Y-80479000D01*
X151971185Y-80252922D01*
X152388922Y-79835185D01*
X152615000Y-79289385D01*
X152615000Y-78698615D01*
X152388922Y-78152815D01*
X151971185Y-77735078D01*
X151944440Y-77724000D01*
X151971185Y-77712922D01*
X152388922Y-77295185D01*
X152400000Y-77268440D01*
X152411078Y-77295185D01*
X152828815Y-77712922D01*
X153374615Y-77939000D01*
X153965385Y-77939000D01*
X154511185Y-77712922D01*
X154928922Y-77295185D01*
X154940000Y-77268440D01*
X154951078Y-77295185D01*
X155368815Y-77712922D01*
X155395560Y-77724000D01*
X155368815Y-77735078D01*
X154951078Y-78152815D01*
X154725000Y-78698615D01*
X154725000Y-79289385D01*
X154951078Y-79835185D01*
X155368815Y-80252922D01*
X155914615Y-80479000D01*
X156505385Y-80479000D01*
X157051185Y-80252922D01*
X157468922Y-79835185D01*
X157480000Y-79808440D01*
X157491078Y-79835185D01*
X157908815Y-80252922D01*
X158454615Y-80479000D01*
X159045385Y-80479000D01*
X159591185Y-80252922D01*
X160008922Y-79835185D01*
X160020000Y-79808440D01*
X160031078Y-79835185D01*
X160448815Y-80252922D01*
X160994615Y-80479000D01*
X161585385Y-80479000D01*
X162131185Y-80252922D01*
X162548922Y-79835185D01*
X162560000Y-79808440D01*
X162571078Y-79835185D01*
X162988815Y-80252922D01*
X163534615Y-80479000D01*
X164125385Y-80479000D01*
X164671185Y-80252922D01*
X165088922Y-79835185D01*
X165100000Y-79808440D01*
X165111078Y-79835185D01*
X165528815Y-80252922D01*
X166074615Y-80479000D01*
X166665385Y-80479000D01*
X167211185Y-80252922D01*
X167628922Y-79835185D01*
X167640000Y-79808440D01*
X167651078Y-79835185D01*
X168068815Y-80252922D01*
X168614615Y-80479000D01*
X169205385Y-80479000D01*
X169751185Y-80252922D01*
X170168922Y-79835185D01*
X170395000Y-79289385D01*
X170395000Y-78698615D01*
X170168922Y-78152815D01*
X169751185Y-77735078D01*
X169724440Y-77724000D01*
X169751185Y-77712922D01*
X170168922Y-77295185D01*
X170180000Y-77268440D01*
X170191078Y-77295185D01*
X170608815Y-77712922D01*
X171154615Y-77939000D01*
X171745385Y-77939000D01*
X172291185Y-77712922D01*
X172708922Y-77295185D01*
X172935000Y-76749385D01*
X172935000Y-76158615D01*
X172708922Y-75612815D01*
X172291185Y-75195078D01*
X172199257Y-75157000D01*
X177110388Y-75157000D01*
X177131986Y-75152704D01*
X177407009Y-75192090D01*
X177746352Y-75346381D01*
X178028752Y-75589712D01*
X178231506Y-75902523D01*
X178345348Y-76283184D01*
X178347859Y-76316969D01*
X178335000Y-76381613D01*
X178335000Y-77009616D01*
X178129966Y-76514620D01*
X177529380Y-75914034D01*
X176744678Y-75589000D01*
X175895322Y-75589000D01*
X175110620Y-75914034D01*
X174510034Y-76514620D01*
X174185000Y-77299322D01*
X174185000Y-78148678D01*
X174510034Y-78933380D01*
X175110620Y-79533966D01*
X175895322Y-79859000D01*
X176744678Y-79859000D01*
X177529380Y-79533966D01*
X178129966Y-78933380D01*
X178335000Y-78438384D01*
X178335001Y-126009618D01*
X178129966Y-125514620D01*
X177529380Y-124914034D01*
X176744678Y-124589000D01*
X175895322Y-124589000D01*
X175110620Y-124914034D01*
X174510034Y-125514620D01*
X174185000Y-126299322D01*
X174185000Y-127148678D01*
X174510034Y-127933380D01*
X175110620Y-128533966D01*
X175895322Y-128859000D01*
X176744678Y-128859000D01*
X177529380Y-128533966D01*
X178129966Y-127933380D01*
X178335001Y-127438381D01*
X178335001Y-128705607D01*
X178320601Y-128778000D01*
X178377646Y-129064783D01*
X178540095Y-129307905D01*
X178783217Y-129470354D01*
X178997612Y-129513000D01*
X179070000Y-129527399D01*
X179142388Y-129513000D01*
X194890388Y-129513000D01*
X195104783Y-129470354D01*
X195347905Y-129307905D01*
X195510354Y-129064783D01*
X195567399Y-128778000D01*
X195510354Y-128491217D01*
X195347905Y-128248095D01*
X195104783Y-128085646D01*
X194890388Y-128043000D01*
X179805000Y-128043000D01*
X179805000Y-76381612D01*
X179762354Y-76167217D01*
X179760433Y-76164342D01*
X179755728Y-76101033D01*
X179740174Y-76030288D01*
X179730346Y-75958544D01*
X179727912Y-75950219D01*
X179562836Y-75398241D01*
X179522418Y-75310769D01*
X179483071Y-75222806D01*
X179478397Y-75215499D01*
X179165034Y-74732040D01*
X179101707Y-74659447D01*
X179039237Y-74586045D01*
X179032700Y-74580343D01*
X178596241Y-74204266D01*
X178515058Y-74152347D01*
X178434525Y-74099446D01*
X178426654Y-74095810D01*
X178426651Y-74095808D01*
X178426648Y-74095807D01*
X177902183Y-73857347D01*
X177809691Y-73830300D01*
X177717548Y-73802129D01*
X177708969Y-73800847D01*
X177612281Y-73787000D01*
X196723000Y-73787000D01*
X196723000Y-130085863D01*
G36*
X165528815Y-75195078D02*
X165111078Y-75612815D01*
X164885000Y-76158615D01*
X164885000Y-76749385D01*
X165111078Y-77295185D01*
X165528815Y-77712922D01*
X165555560Y-77724000D01*
X165528815Y-77735078D01*
X165111078Y-78152815D01*
X165100000Y-78179560D01*
X165088922Y-78152815D01*
X164671185Y-77735078D01*
X164125385Y-77509000D01*
X163534615Y-77509000D01*
X162988815Y-77735078D01*
X162571078Y-78152815D01*
X162560000Y-78179560D01*
X162548922Y-78152815D01*
X162131185Y-77735078D01*
X162104440Y-77724000D01*
X162131185Y-77712922D01*
X162548922Y-77295185D01*
X162775000Y-76749385D01*
X162775000Y-76158615D01*
X162548922Y-75612815D01*
X162131185Y-75195078D01*
X162039257Y-75157000D01*
X165620743Y-75157000D01*
X165528815Y-75195078D01*
X165528815Y-75195078D01*
G37*
X165528815Y-75195078D02*
X165111078Y-75612815D01*
X164885000Y-76158615D01*
X164885000Y-76749385D01*
X165111078Y-77295185D01*
X165528815Y-77712922D01*
X165555560Y-77724000D01*
X165528815Y-77735078D01*
X165111078Y-78152815D01*
X165100000Y-78179560D01*
X165088922Y-78152815D01*
X164671185Y-77735078D01*
X164125385Y-77509000D01*
X163534615Y-77509000D01*
X162988815Y-77735078D01*
X162571078Y-78152815D01*
X162560000Y-78179560D01*
X162548922Y-78152815D01*
X162131185Y-77735078D01*
X162104440Y-77724000D01*
X162131185Y-77712922D01*
X162548922Y-77295185D01*
X162775000Y-76749385D01*
X162775000Y-76158615D01*
X162548922Y-75612815D01*
X162131185Y-75195078D01*
X162039257Y-75157000D01*
X165620743Y-75157000D01*
X165528815Y-75195078D01*
G36*
X147748815Y-75195078D02*
X147331078Y-75612815D01*
X147105000Y-76158615D01*
X147105000Y-76749385D01*
X147331078Y-77295185D01*
X147748815Y-77712922D01*
X147775560Y-77724000D01*
X147748815Y-77735078D01*
X147331078Y-78152815D01*
X147320000Y-78179560D01*
X147308922Y-78152815D01*
X146891185Y-77735078D01*
X146345385Y-77509000D01*
X145754615Y-77509000D01*
X145208815Y-77735078D01*
X144791078Y-78152815D01*
X144780000Y-78179560D01*
X144768922Y-78152815D01*
X144351185Y-77735078D01*
X144324440Y-77724000D01*
X144351185Y-77712922D01*
X144768922Y-77295185D01*
X144995000Y-76749385D01*
X144995000Y-76158615D01*
X144768922Y-75612815D01*
X144351185Y-75195078D01*
X144259257Y-75157000D01*
X147840743Y-75157000D01*
X147748815Y-75195078D01*
X147748815Y-75195078D01*
G37*
X147748815Y-75195078D02*
X147331078Y-75612815D01*
X147105000Y-76158615D01*
X147105000Y-76749385D01*
X147331078Y-77295185D01*
X147748815Y-77712922D01*
X147775560Y-77724000D01*
X147748815Y-77735078D01*
X147331078Y-78152815D01*
X147320000Y-78179560D01*
X147308922Y-78152815D01*
X146891185Y-77735078D01*
X146345385Y-77509000D01*
X145754615Y-77509000D01*
X145208815Y-77735078D01*
X144791078Y-78152815D01*
X144780000Y-78179560D01*
X144768922Y-78152815D01*
X144351185Y-77735078D01*
X144324440Y-77724000D01*
X144351185Y-77712922D01*
X144768922Y-77295185D01*
X144995000Y-76749385D01*
X144995000Y-76158615D01*
X144768922Y-75612815D01*
X144351185Y-75195078D01*
X144259257Y-75157000D01*
X147840743Y-75157000D01*
X147748815Y-75195078D01*
G36*
X160448815Y-75195078D02*
X160031078Y-75612815D01*
X159805000Y-76158615D01*
X159805000Y-76749385D01*
X160031078Y-77295185D01*
X160448815Y-77712922D01*
X160475560Y-77724000D01*
X160448815Y-77735078D01*
X160031078Y-78152815D01*
X160020000Y-78179560D01*
X160008922Y-78152815D01*
X159591185Y-77735078D01*
X159045385Y-77509000D01*
X158454615Y-77509000D01*
X157908815Y-77735078D01*
X157491078Y-78152815D01*
X157480000Y-78179560D01*
X157468922Y-78152815D01*
X157051185Y-77735078D01*
X157024440Y-77724000D01*
X157051185Y-77712922D01*
X157468922Y-77295185D01*
X157695000Y-76749385D01*
X157695000Y-76158615D01*
X157468922Y-75612815D01*
X157051185Y-75195078D01*
X156959257Y-75157000D01*
X160540743Y-75157000D01*
X160448815Y-75195078D01*
X160448815Y-75195078D01*
G37*
X160448815Y-75195078D02*
X160031078Y-75612815D01*
X159805000Y-76158615D01*
X159805000Y-76749385D01*
X160031078Y-77295185D01*
X160448815Y-77712922D01*
X160475560Y-77724000D01*
X160448815Y-77735078D01*
X160031078Y-78152815D01*
X160020000Y-78179560D01*
X160008922Y-78152815D01*
X159591185Y-77735078D01*
X159045385Y-77509000D01*
X158454615Y-77509000D01*
X157908815Y-77735078D01*
X157491078Y-78152815D01*
X157480000Y-78179560D01*
X157468922Y-78152815D01*
X157051185Y-77735078D01*
X157024440Y-77724000D01*
X157051185Y-77712922D01*
X157468922Y-77295185D01*
X157695000Y-76749385D01*
X157695000Y-76158615D01*
X157468922Y-75612815D01*
X157051185Y-75195078D01*
X156959257Y-75157000D01*
X160540743Y-75157000D01*
X160448815Y-75195078D01*
G36*
X140128815Y-75195078D02*
X139711078Y-75612815D01*
X139485000Y-76158615D01*
X139485000Y-76749385D01*
X139711078Y-77295185D01*
X140128815Y-77712922D01*
X140155560Y-77724000D01*
X140128815Y-77735078D01*
X139711078Y-78152815D01*
X139700000Y-78179560D01*
X139688922Y-78152815D01*
X139271185Y-77735078D01*
X138725385Y-77509000D01*
X138134615Y-77509000D01*
X137588815Y-77735078D01*
X137171078Y-78152815D01*
X137160000Y-78179560D01*
X137148922Y-78152815D01*
X136731185Y-77735078D01*
X136704440Y-77724000D01*
X136731185Y-77712922D01*
X137148922Y-77295185D01*
X137375000Y-76749385D01*
X137375000Y-76158615D01*
X137148922Y-75612815D01*
X136731185Y-75195078D01*
X136639257Y-75157000D01*
X140220743Y-75157000D01*
X140128815Y-75195078D01*
X140128815Y-75195078D01*
G37*
X140128815Y-75195078D02*
X139711078Y-75612815D01*
X139485000Y-76158615D01*
X139485000Y-76749385D01*
X139711078Y-77295185D01*
X140128815Y-77712922D01*
X140155560Y-77724000D01*
X140128815Y-77735078D01*
X139711078Y-78152815D01*
X139700000Y-78179560D01*
X139688922Y-78152815D01*
X139271185Y-77735078D01*
X138725385Y-77509000D01*
X138134615Y-77509000D01*
X137588815Y-77735078D01*
X137171078Y-78152815D01*
X137160000Y-78179560D01*
X137148922Y-78152815D01*
X136731185Y-77735078D01*
X136704440Y-77724000D01*
X136731185Y-77712922D01*
X137148922Y-77295185D01*
X137375000Y-76749385D01*
X137375000Y-76158615D01*
X137148922Y-75612815D01*
X136731185Y-75195078D01*
X136639257Y-75157000D01*
X140220743Y-75157000D01*
X140128815Y-75195078D01*
G36*
X129968815Y-75195078D02*
X129551078Y-75612815D01*
X129325000Y-76158615D01*
X129325000Y-76749385D01*
X129551078Y-77295185D01*
X129968815Y-77712922D01*
X129995560Y-77724000D01*
X129968815Y-77735078D01*
X129551078Y-78152815D01*
X129540000Y-78179560D01*
X129528922Y-78152815D01*
X129111185Y-77735078D01*
X128565385Y-77509000D01*
X127974615Y-77509000D01*
X127428815Y-77735078D01*
X127011078Y-78152815D01*
X127000000Y-78179560D01*
X126988922Y-78152815D01*
X126571185Y-77735078D01*
X126544440Y-77724000D01*
X126571185Y-77712922D01*
X126988922Y-77295185D01*
X127215000Y-76749385D01*
X127215000Y-76158615D01*
X126988922Y-75612815D01*
X126571185Y-75195078D01*
X126479257Y-75157000D01*
X130060743Y-75157000D01*
X129968815Y-75195078D01*
X129968815Y-75195078D01*
G37*
X129968815Y-75195078D02*
X129551078Y-75612815D01*
X129325000Y-76158615D01*
X129325000Y-76749385D01*
X129551078Y-77295185D01*
X129968815Y-77712922D01*
X129995560Y-77724000D01*
X129968815Y-77735078D01*
X129551078Y-78152815D01*
X129540000Y-78179560D01*
X129528922Y-78152815D01*
X129111185Y-77735078D01*
X128565385Y-77509000D01*
X127974615Y-77509000D01*
X127428815Y-77735078D01*
X127011078Y-78152815D01*
X127000000Y-78179560D01*
X126988922Y-78152815D01*
X126571185Y-77735078D01*
X126544440Y-77724000D01*
X126571185Y-77712922D01*
X126988922Y-77295185D01*
X127215000Y-76749385D01*
X127215000Y-76158615D01*
X126988922Y-75612815D01*
X126571185Y-75195078D01*
X126479257Y-75157000D01*
X130060743Y-75157000D01*
X129968815Y-75195078D01*
G04 #@! TD*
M02*
