M48
; DRILL file {KiCad (5.1.5)-3} date 12/14/2019 4:38:40 PM
; FORMAT={-:-/ absolute / inch / decimal}
; #@! TF.CreationDate,2019-12-14T16:38:40-06:00
; #@! TF.GenerationSoftware,Kicad,Pcbnew,(5.1.5)-3
; #@! TF.FileFunction,Plated,1,2,PTH
FMAT,2
INCH
T1C0.0157
T2C0.0300
T3C0.0315
T4C0.0350
T5C0.0354
T6C0.1598
%
G90
G05
T1
X3.5589Y-3.65
X3.5589Y-3.98
X3.56Y-4.23
X4.15Y-4.65
X4.165Y-3.98
X4.265Y-3.52
X4.27Y-4.75
X4.305Y-3.88
X4.72Y-4.28
X4.765Y-3.68
X4.765Y-3.83
X4.765Y-3.98
X4.765Y-4.13
X4.765Y-4.43
X4.765Y-4.58
X4.9Y-3.31
X4.95Y-3.45
X4.95Y-4.03
X4.95Y-4.28
X5.05Y-3.36
X5.05Y-3.93
X5.05Y-4.13
X5.1Y-4.75
X5.2Y-4.65
X5.275Y-3.32
X5.275Y-3.88
X5.84Y-3.385
X5.84Y-3.45
T2
X3.39Y-4.55
T3
X3.84Y-3.0916
X3.84Y-3.19
X5.635Y-4.0016
X5.635Y-4.1
T4
X6.0Y-3.32
X6.0Y-3.42
X6.0Y-3.52
X6.55Y-3.95
X6.55Y-4.05
X6.55Y-4.15
T5
X3.39Y-3.35
X3.39Y-3.45
X3.39Y-3.55
X3.39Y-3.65
X3.39Y-4.65
X3.39Y-4.75
X4.85Y-3.01
X4.85Y-3.11
X4.95Y-3.01
X4.95Y-3.11
X5.05Y-3.01
X5.05Y-3.11
X5.15Y-3.01
X5.15Y-3.11
X5.25Y-3.01
X5.25Y-3.11
X5.35Y-3.01
X5.35Y-3.11
X5.45Y-3.01
X5.45Y-3.11
X5.55Y-3.01
X5.55Y-3.11
X5.65Y-3.01
X5.65Y-3.11
X5.75Y-3.01
X5.75Y-3.11
X5.85Y-3.01
X5.85Y-3.11
X5.95Y-3.01
X5.95Y-3.11
X6.05Y-3.01
X6.05Y-3.11
X6.15Y-3.01
X6.15Y-3.11
X6.25Y-3.01
X6.25Y-3.11
X6.35Y-3.01
X6.35Y-3.11
X6.45Y-3.01
X6.45Y-3.11
X6.55Y-3.01
X6.55Y-3.11
X6.65Y-3.01
X6.65Y-3.11
X6.75Y-3.01
X6.75Y-3.11
X3.39Y-3.93
X3.39Y-4.03
X3.39Y-4.13
X3.39Y-4.23
T6
X6.335Y-4.445
X6.335Y-4.755
T0
M30
