G04 #@! TF.GenerationSoftware,KiCad,Pcbnew,(5.0.2)-1*
G04 #@! TF.CreationDate,2019-02-28T16:52:56-06:00*
G04 #@! TF.ProjectId,RaspberryPiBreakout_Hardware,52617370-6265-4727-9279-506942726561,rev?*
G04 #@! TF.SameCoordinates,Original*
G04 #@! TF.FileFunction,Copper,L2,Bot*
G04 #@! TF.FilePolarity,Positive*
%FSLAX46Y46*%
G04 Gerber Fmt 4.6, Leading zero omitted, Abs format (unit mm)*
G04 Created by KiCad (PCBNEW (5.0.2)-1) date 2/28/2019 4:52:56 PM*
%MOMM*%
%LPD*%
G01*
G04 APERTURE LIST*
G04 #@! TA.AperFunction,ComponentPad*
%ADD10C,1.700000*%
G04 #@! TD*
G04 #@! TA.AperFunction,ComponentPad*
%ADD11C,5.080000*%
G04 #@! TD*
G04 #@! TA.AperFunction,ComponentPad*
%ADD12C,1.524000*%
G04 #@! TD*
G04 #@! TA.AperFunction,Conductor*
%ADD13C,0.254000*%
G04 #@! TD*
G04 APERTURE END LIST*
D10*
G04 #@! TO.P,U2,40*
G04 #@! TO.N,Net-(U2-Pad40)*
X171450000Y-76454000D03*
G04 #@! TO.P,U2,39*
G04 #@! TO.N,GND*
X171450000Y-78994000D03*
G04 #@! TO.P,U2,38*
G04 #@! TO.N,Net-(U2-Pad38)*
X168910000Y-76454000D03*
G04 #@! TO.P,U2,37*
G04 #@! TO.N,Net-(U2-Pad37)*
X168910000Y-78994000D03*
G04 #@! TO.P,U2,36*
G04 #@! TO.N,Net-(U2-Pad36)*
X166370000Y-76454000D03*
G04 #@! TO.P,U2,35*
G04 #@! TO.N,Net-(U2-Pad35)*
X166370000Y-78994000D03*
G04 #@! TO.P,U2,34*
G04 #@! TO.N,GND*
X163830000Y-76454000D03*
G04 #@! TO.P,U2,33*
G04 #@! TO.N,Net-(U2-Pad33)*
X163830000Y-78994000D03*
G04 #@! TO.P,U2,32*
G04 #@! TO.N,Net-(U2-Pad32)*
X161290000Y-76454000D03*
G04 #@! TO.P,U2,31*
G04 #@! TO.N,Net-(U2-Pad31)*
X161290000Y-78994000D03*
G04 #@! TO.P,U2,30*
G04 #@! TO.N,GND*
X158750000Y-76454000D03*
G04 #@! TO.P,U2,29*
G04 #@! TO.N,Net-(U2-Pad29)*
X158750000Y-78994000D03*
G04 #@! TO.P,U2,28*
G04 #@! TO.N,Net-(U2-Pad28)*
X156210000Y-76454000D03*
G04 #@! TO.P,U2,27*
G04 #@! TO.N,Net-(U2-Pad27)*
X156210000Y-78994000D03*
G04 #@! TO.P,U2,26*
G04 #@! TO.N,Net-(U2-Pad26)*
X153670000Y-76454000D03*
G04 #@! TO.P,U2,25*
G04 #@! TO.N,GND*
X153670000Y-78994000D03*
G04 #@! TO.P,U2,24*
G04 #@! TO.N,Net-(U2-Pad24)*
X151130000Y-76454000D03*
G04 #@! TO.P,U2,23*
G04 #@! TO.N,Net-(U2-Pad23)*
X151130000Y-78994000D03*
G04 #@! TO.P,U2,22*
G04 #@! TO.N,Net-(U2-Pad22)*
X148590000Y-76454000D03*
G04 #@! TO.P,U2,21*
G04 #@! TO.N,Net-(U2-Pad21)*
X148590000Y-78994000D03*
G04 #@! TO.P,U2,20*
G04 #@! TO.N,GND*
X146050000Y-76454000D03*
G04 #@! TO.P,U2,19*
G04 #@! TO.N,Net-(U2-Pad19)*
X146050000Y-78994000D03*
G04 #@! TO.P,U2,18*
G04 #@! TO.N,N/C*
X143510000Y-76454000D03*
G04 #@! TO.P,U2,17*
G04 #@! TO.N,Net-(U2-Pad17)*
X143510000Y-78994000D03*
G04 #@! TO.P,U2,16*
G04 #@! TO.N,Net-(U2-Pad16)*
X140970000Y-76454000D03*
G04 #@! TO.P,U2,15*
G04 #@! TO.N,Net-(U2-Pad15)*
X140970000Y-78994000D03*
G04 #@! TO.P,U2,14*
G04 #@! TO.N,GND*
X138430000Y-76454000D03*
G04 #@! TO.P,U2,13*
G04 #@! TO.N,Net-(U2-Pad13)*
X138430000Y-78994000D03*
G04 #@! TO.P,U2,12*
G04 #@! TO.N,Net-(U2-Pad12)*
X135890000Y-76454000D03*
G04 #@! TO.P,U2,11*
G04 #@! TO.N,Net-(U2-Pad11)*
X135890000Y-78994000D03*
G04 #@! TO.P,U2,10*
G04 #@! TO.N,Net-(U2-Pad10)*
X133350000Y-76454000D03*
G04 #@! TO.P,U2,9*
G04 #@! TO.N,GND*
X133350000Y-78994000D03*
G04 #@! TO.P,U2,8*
G04 #@! TO.N,Net-(U2-Pad8)*
X130810000Y-76454000D03*
G04 #@! TO.P,U2,7*
G04 #@! TO.N,Net-(U2-Pad7)*
X130810000Y-78994000D03*
G04 #@! TO.P,U2,6*
G04 #@! TO.N,GND*
X128270000Y-76454000D03*
G04 #@! TO.P,U2,5*
G04 #@! TO.N,Net-(U2-Pad5)*
X128270000Y-78994000D03*
G04 #@! TO.P,U2,4*
G04 #@! TO.N,+5V*
X125730000Y-76454000D03*
G04 #@! TO.P,U2,3*
G04 #@! TO.N,Net-(U2-Pad3)*
X125730000Y-78994000D03*
G04 #@! TO.P,U2,2*
G04 #@! TO.N,+5V*
X123190000Y-76454000D03*
G04 #@! TO.P,U2,1*
G04 #@! TO.N,Net-(U2-Pad1)*
X123190000Y-78994000D03*
G04 #@! TD*
D11*
G04 #@! TO.P,Conn1,1*
G04 #@! TO.N,GND*
X167640000Y-118491000D03*
G04 #@! TO.P,Conn1,2*
G04 #@! TO.N,Net-(C1-Pad1)*
X167640000Y-110617000D03*
G04 #@! TD*
D12*
G04 #@! TO.P,U1,3*
G04 #@! TO.N,+5V*
X152400000Y-116840000D03*
G04 #@! TO.P,U1,2*
G04 #@! TO.N,GND*
X152400000Y-114300000D03*
G04 #@! TO.P,U1,1*
G04 #@! TO.N,Net-(C1-Pad1)*
X152400000Y-111760000D03*
G04 #@! TD*
D13*
G04 #@! TO.N,GND*
G36*
X122348815Y-75195078D02*
X121931078Y-75612815D01*
X121705000Y-76158615D01*
X121705000Y-76749385D01*
X121931078Y-77295185D01*
X122348815Y-77712922D01*
X122375560Y-77724000D01*
X122348815Y-77735078D01*
X121931078Y-78152815D01*
X121705000Y-78698615D01*
X121705000Y-79289385D01*
X121931078Y-79835185D01*
X122348815Y-80252922D01*
X122894615Y-80479000D01*
X123485385Y-80479000D01*
X124031185Y-80252922D01*
X124448922Y-79835185D01*
X124460000Y-79808440D01*
X124471078Y-79835185D01*
X124888815Y-80252922D01*
X125434615Y-80479000D01*
X126025385Y-80479000D01*
X126571185Y-80252922D01*
X126988922Y-79835185D01*
X127000000Y-79808440D01*
X127011078Y-79835185D01*
X127428815Y-80252922D01*
X127974615Y-80479000D01*
X128565385Y-80479000D01*
X129111185Y-80252922D01*
X129528922Y-79835185D01*
X129540000Y-79808440D01*
X129551078Y-79835185D01*
X129968815Y-80252922D01*
X130514615Y-80479000D01*
X131105385Y-80479000D01*
X131651185Y-80252922D01*
X132068922Y-79835185D01*
X132295000Y-79289385D01*
X132295000Y-78698615D01*
X132068922Y-78152815D01*
X131651185Y-77735078D01*
X131624440Y-77724000D01*
X131651185Y-77712922D01*
X132068922Y-77295185D01*
X132080000Y-77268440D01*
X132091078Y-77295185D01*
X132508815Y-77712922D01*
X133054615Y-77939000D01*
X133645385Y-77939000D01*
X134191185Y-77712922D01*
X134608922Y-77295185D01*
X134620000Y-77268440D01*
X134631078Y-77295185D01*
X135048815Y-77712922D01*
X135075560Y-77724000D01*
X135048815Y-77735078D01*
X134631078Y-78152815D01*
X134405000Y-78698615D01*
X134405000Y-79289385D01*
X134631078Y-79835185D01*
X135048815Y-80252922D01*
X135594615Y-80479000D01*
X136185385Y-80479000D01*
X136731185Y-80252922D01*
X137148922Y-79835185D01*
X137160000Y-79808440D01*
X137171078Y-79835185D01*
X137588815Y-80252922D01*
X138134615Y-80479000D01*
X138725385Y-80479000D01*
X139271185Y-80252922D01*
X139688922Y-79835185D01*
X139700000Y-79808440D01*
X139711078Y-79835185D01*
X140128815Y-80252922D01*
X140674615Y-80479000D01*
X141265385Y-80479000D01*
X141811185Y-80252922D01*
X142228922Y-79835185D01*
X142240000Y-79808440D01*
X142251078Y-79835185D01*
X142668815Y-80252922D01*
X143214615Y-80479000D01*
X143805385Y-80479000D01*
X144351185Y-80252922D01*
X144768922Y-79835185D01*
X144780000Y-79808440D01*
X144791078Y-79835185D01*
X145208815Y-80252922D01*
X145754615Y-80479000D01*
X146345385Y-80479000D01*
X146891185Y-80252922D01*
X147308922Y-79835185D01*
X147320000Y-79808440D01*
X147331078Y-79835185D01*
X147748815Y-80252922D01*
X148294615Y-80479000D01*
X148885385Y-80479000D01*
X149431185Y-80252922D01*
X149848922Y-79835185D01*
X149860000Y-79808440D01*
X149871078Y-79835185D01*
X150288815Y-80252922D01*
X150834615Y-80479000D01*
X151425385Y-80479000D01*
X151971185Y-80252922D01*
X152388922Y-79835185D01*
X152615000Y-79289385D01*
X152615000Y-78698615D01*
X152388922Y-78152815D01*
X151971185Y-77735078D01*
X151944440Y-77724000D01*
X151971185Y-77712922D01*
X152388922Y-77295185D01*
X152400000Y-77268440D01*
X152411078Y-77295185D01*
X152828815Y-77712922D01*
X153374615Y-77939000D01*
X153965385Y-77939000D01*
X154511185Y-77712922D01*
X154928922Y-77295185D01*
X154940000Y-77268440D01*
X154951078Y-77295185D01*
X155368815Y-77712922D01*
X155395560Y-77724000D01*
X155368815Y-77735078D01*
X154951078Y-78152815D01*
X154725000Y-78698615D01*
X154725000Y-79289385D01*
X154951078Y-79835185D01*
X155368815Y-80252922D01*
X155914615Y-80479000D01*
X156505385Y-80479000D01*
X157051185Y-80252922D01*
X157468922Y-79835185D01*
X157480000Y-79808440D01*
X157491078Y-79835185D01*
X157908815Y-80252922D01*
X158454615Y-80479000D01*
X159045385Y-80479000D01*
X159591185Y-80252922D01*
X160008922Y-79835185D01*
X160020000Y-79808440D01*
X160031078Y-79835185D01*
X160448815Y-80252922D01*
X160994615Y-80479000D01*
X161585385Y-80479000D01*
X162131185Y-80252922D01*
X162548922Y-79835185D01*
X162560000Y-79808440D01*
X162571078Y-79835185D01*
X162988815Y-80252922D01*
X163534615Y-80479000D01*
X164125385Y-80479000D01*
X164671185Y-80252922D01*
X165088922Y-79835185D01*
X165100000Y-79808440D01*
X165111078Y-79835185D01*
X165528815Y-80252922D01*
X166074615Y-80479000D01*
X166665385Y-80479000D01*
X167211185Y-80252922D01*
X167628922Y-79835185D01*
X167640000Y-79808440D01*
X167651078Y-79835185D01*
X168068815Y-80252922D01*
X168614615Y-80479000D01*
X169205385Y-80479000D01*
X169751185Y-80252922D01*
X170168922Y-79835185D01*
X170395000Y-79289385D01*
X170395000Y-78698615D01*
X170168922Y-78152815D01*
X169751185Y-77735078D01*
X169724440Y-77724000D01*
X169751185Y-77712922D01*
X170168922Y-77295185D01*
X170180000Y-77268440D01*
X170191078Y-77295185D01*
X170608815Y-77712922D01*
X171154615Y-77939000D01*
X171745385Y-77939000D01*
X172291185Y-77712922D01*
X172708922Y-77295185D01*
X172935000Y-76749385D01*
X172935000Y-76158615D01*
X172708922Y-75612815D01*
X172291185Y-75195078D01*
X172199257Y-75157000D01*
X176985634Y-75157000D01*
X177399922Y-75216331D01*
X177732746Y-75367657D01*
X178009720Y-75606313D01*
X178208580Y-75913116D01*
X178320618Y-76287748D01*
X178335000Y-76481274D01*
X178335000Y-77009616D01*
X178129966Y-76514620D01*
X177529380Y-75914034D01*
X176744678Y-75589000D01*
X175895322Y-75589000D01*
X175110620Y-75914034D01*
X174510034Y-76514620D01*
X174185000Y-77299322D01*
X174185000Y-78148678D01*
X174510034Y-78933380D01*
X175110620Y-79533966D01*
X175895322Y-79859000D01*
X176744678Y-79859000D01*
X177529380Y-79533966D01*
X178129966Y-78933380D01*
X178335000Y-78438384D01*
X178335001Y-126009618D01*
X178129966Y-125514620D01*
X177529380Y-124914034D01*
X176744678Y-124589000D01*
X175895322Y-124589000D01*
X175110620Y-124914034D01*
X174510034Y-125514620D01*
X174185000Y-126299322D01*
X174185000Y-127148678D01*
X174510034Y-127933380D01*
X175110620Y-128533966D01*
X175895322Y-128859000D01*
X176744678Y-128859000D01*
X177529380Y-128533966D01*
X178129966Y-127933380D01*
X178335001Y-127438381D01*
X178335001Y-128705607D01*
X178320601Y-128778000D01*
X178377646Y-129064783D01*
X178540095Y-129307905D01*
X178783217Y-129470354D01*
X178997612Y-129513000D01*
X179070000Y-129527399D01*
X179142388Y-129513000D01*
X194765634Y-129513000D01*
X195179922Y-129572331D01*
X195512746Y-129723657D01*
X195789720Y-129962313D01*
X195988580Y-130269116D01*
X196100618Y-130643748D01*
X196115000Y-130837275D01*
X196115001Y-138323142D01*
X195787078Y-138421212D01*
X195696505Y-138463063D01*
X195605466Y-138503787D01*
X195597901Y-138508624D01*
X195114442Y-138821987D01*
X195039277Y-138887558D01*
X194963306Y-138952214D01*
X194957407Y-138958977D01*
X194957403Y-138958981D01*
X194957400Y-138958986D01*
X194581327Y-139395440D01*
X194527590Y-139479465D01*
X194472816Y-139562851D01*
X194469050Y-139571002D01*
X194230589Y-140095469D01*
X194202587Y-140191226D01*
X194173427Y-140286607D01*
X194172099Y-140295487D01*
X194090423Y-140865802D01*
X194090423Y-140940785D01*
X194084411Y-141015512D01*
X194085021Y-141024470D01*
X194107341Y-141324819D01*
X194123441Y-141398045D01*
X194133616Y-141472326D01*
X194136136Y-141480944D01*
X194301212Y-142032922D01*
X194343071Y-142123513D01*
X194383787Y-142214534D01*
X194388624Y-142222099D01*
X194701987Y-142705558D01*
X194767558Y-142780723D01*
X194832214Y-142856694D01*
X194838977Y-142862593D01*
X194838981Y-142862597D01*
X194838986Y-142862600D01*
X195275440Y-143238673D01*
X195359465Y-143292410D01*
X195442851Y-143347184D01*
X195451002Y-143350950D01*
X195975469Y-143589411D01*
X196071237Y-143617416D01*
X196115000Y-143630795D01*
X196115001Y-151585627D01*
X196055669Y-151999922D01*
X195904343Y-152332746D01*
X195665687Y-152609720D01*
X195358885Y-152808579D01*
X194984252Y-152920618D01*
X194790726Y-152935000D01*
X74474366Y-152935000D01*
X74060078Y-152875669D01*
X73727254Y-152724343D01*
X73450280Y-152485687D01*
X73251421Y-152178885D01*
X73139382Y-151804252D01*
X73125000Y-151610726D01*
X73125000Y-143616857D01*
X73452922Y-143518788D01*
X73543513Y-143476929D01*
X73634534Y-143436213D01*
X73642096Y-143431378D01*
X73642100Y-143431376D01*
X74125558Y-143118013D01*
X74200723Y-143052442D01*
X74276694Y-142987786D01*
X74282593Y-142981023D01*
X74282597Y-142981019D01*
X74282600Y-142981014D01*
X74658673Y-142544560D01*
X74712410Y-142460535D01*
X74767184Y-142377149D01*
X74770950Y-142368998D01*
X75009411Y-141844531D01*
X75037416Y-141748763D01*
X75066573Y-141653393D01*
X75067901Y-141644513D01*
X75149577Y-141074198D01*
X75149577Y-140999215D01*
X75155589Y-140924488D01*
X75154979Y-140915530D01*
X75132659Y-140615181D01*
X75116559Y-140541954D01*
X75106384Y-140467674D01*
X75103864Y-140459055D01*
X74938788Y-139907078D01*
X74896937Y-139816505D01*
X74856213Y-139725466D01*
X74851376Y-139717901D01*
X74538013Y-139234442D01*
X74472442Y-139159277D01*
X74407786Y-139083306D01*
X74401023Y-139077407D01*
X74401019Y-139077403D01*
X74401014Y-139077400D01*
X73964560Y-138701327D01*
X73880535Y-138647590D01*
X73797149Y-138592816D01*
X73788998Y-138589050D01*
X73264531Y-138350589D01*
X73168774Y-138322587D01*
X73125000Y-138309205D01*
X73125000Y-126299322D01*
X116185000Y-126299322D01*
X116185000Y-127148678D01*
X116510034Y-127933380D01*
X117110620Y-128533966D01*
X117895322Y-128859000D01*
X118744678Y-128859000D01*
X119529380Y-128533966D01*
X120129966Y-127933380D01*
X120455000Y-127148678D01*
X120455000Y-126299322D01*
X120129966Y-125514620D01*
X119529380Y-124914034D01*
X118744678Y-124589000D01*
X117895322Y-124589000D01*
X117110620Y-124914034D01*
X116510034Y-125514620D01*
X116185000Y-126299322D01*
X73125000Y-126299322D01*
X73125000Y-116562119D01*
X151003000Y-116562119D01*
X151003000Y-117117881D01*
X151215680Y-117631337D01*
X151608663Y-118024320D01*
X152122119Y-118237000D01*
X152677881Y-118237000D01*
X153191337Y-118024320D01*
X153584320Y-117631337D01*
X153797000Y-117117881D01*
X153797000Y-116562119D01*
X153584320Y-116048663D01*
X153191337Y-115655680D01*
X152677881Y-115443000D01*
X152122119Y-115443000D01*
X151608663Y-115655680D01*
X151215680Y-116048663D01*
X151003000Y-116562119D01*
X73125000Y-116562119D01*
X73125000Y-111482119D01*
X151003000Y-111482119D01*
X151003000Y-112037881D01*
X151215680Y-112551337D01*
X151608663Y-112944320D01*
X152122119Y-113157000D01*
X152677881Y-113157000D01*
X153191337Y-112944320D01*
X153584320Y-112551337D01*
X153797000Y-112037881D01*
X153797000Y-111482119D01*
X153584320Y-110968663D01*
X153191337Y-110575680D01*
X152677881Y-110363000D01*
X152122119Y-110363000D01*
X151608663Y-110575680D01*
X151215680Y-110968663D01*
X151003000Y-111482119D01*
X73125000Y-111482119D01*
X73125000Y-109985453D01*
X164465000Y-109985453D01*
X164465000Y-111248547D01*
X164948365Y-112415493D01*
X165841507Y-113308635D01*
X167008453Y-113792000D01*
X168271547Y-113792000D01*
X169438493Y-113308635D01*
X170331635Y-112415493D01*
X170815000Y-111248547D01*
X170815000Y-109985453D01*
X170331635Y-108818507D01*
X169438493Y-107925365D01*
X168271547Y-107442000D01*
X167008453Y-107442000D01*
X165841507Y-107925365D01*
X164948365Y-108818507D01*
X164465000Y-109985453D01*
X73125000Y-109985453D01*
X73125000Y-77299322D01*
X116185000Y-77299322D01*
X116185000Y-78148678D01*
X116510034Y-78933380D01*
X117110620Y-79533966D01*
X117895322Y-79859000D01*
X118744678Y-79859000D01*
X119529380Y-79533966D01*
X120129966Y-78933380D01*
X120455000Y-78148678D01*
X120455000Y-77299322D01*
X120129966Y-76514620D01*
X119529380Y-75914034D01*
X118744678Y-75589000D01*
X117895322Y-75589000D01*
X117110620Y-75914034D01*
X116510034Y-76514620D01*
X116185000Y-77299322D01*
X73125000Y-77299322D01*
X73125000Y-76506366D01*
X73184331Y-76092078D01*
X73335657Y-75759254D01*
X73574313Y-75482280D01*
X73881116Y-75283420D01*
X74255748Y-75171382D01*
X74449274Y-75157000D01*
X122440743Y-75157000D01*
X122348815Y-75195078D01*
X122348815Y-75195078D01*
G37*
X122348815Y-75195078D02*
X121931078Y-75612815D01*
X121705000Y-76158615D01*
X121705000Y-76749385D01*
X121931078Y-77295185D01*
X122348815Y-77712922D01*
X122375560Y-77724000D01*
X122348815Y-77735078D01*
X121931078Y-78152815D01*
X121705000Y-78698615D01*
X121705000Y-79289385D01*
X121931078Y-79835185D01*
X122348815Y-80252922D01*
X122894615Y-80479000D01*
X123485385Y-80479000D01*
X124031185Y-80252922D01*
X124448922Y-79835185D01*
X124460000Y-79808440D01*
X124471078Y-79835185D01*
X124888815Y-80252922D01*
X125434615Y-80479000D01*
X126025385Y-80479000D01*
X126571185Y-80252922D01*
X126988922Y-79835185D01*
X127000000Y-79808440D01*
X127011078Y-79835185D01*
X127428815Y-80252922D01*
X127974615Y-80479000D01*
X128565385Y-80479000D01*
X129111185Y-80252922D01*
X129528922Y-79835185D01*
X129540000Y-79808440D01*
X129551078Y-79835185D01*
X129968815Y-80252922D01*
X130514615Y-80479000D01*
X131105385Y-80479000D01*
X131651185Y-80252922D01*
X132068922Y-79835185D01*
X132295000Y-79289385D01*
X132295000Y-78698615D01*
X132068922Y-78152815D01*
X131651185Y-77735078D01*
X131624440Y-77724000D01*
X131651185Y-77712922D01*
X132068922Y-77295185D01*
X132080000Y-77268440D01*
X132091078Y-77295185D01*
X132508815Y-77712922D01*
X133054615Y-77939000D01*
X133645385Y-77939000D01*
X134191185Y-77712922D01*
X134608922Y-77295185D01*
X134620000Y-77268440D01*
X134631078Y-77295185D01*
X135048815Y-77712922D01*
X135075560Y-77724000D01*
X135048815Y-77735078D01*
X134631078Y-78152815D01*
X134405000Y-78698615D01*
X134405000Y-79289385D01*
X134631078Y-79835185D01*
X135048815Y-80252922D01*
X135594615Y-80479000D01*
X136185385Y-80479000D01*
X136731185Y-80252922D01*
X137148922Y-79835185D01*
X137160000Y-79808440D01*
X137171078Y-79835185D01*
X137588815Y-80252922D01*
X138134615Y-80479000D01*
X138725385Y-80479000D01*
X139271185Y-80252922D01*
X139688922Y-79835185D01*
X139700000Y-79808440D01*
X139711078Y-79835185D01*
X140128815Y-80252922D01*
X140674615Y-80479000D01*
X141265385Y-80479000D01*
X141811185Y-80252922D01*
X142228922Y-79835185D01*
X142240000Y-79808440D01*
X142251078Y-79835185D01*
X142668815Y-80252922D01*
X143214615Y-80479000D01*
X143805385Y-80479000D01*
X144351185Y-80252922D01*
X144768922Y-79835185D01*
X144780000Y-79808440D01*
X144791078Y-79835185D01*
X145208815Y-80252922D01*
X145754615Y-80479000D01*
X146345385Y-80479000D01*
X146891185Y-80252922D01*
X147308922Y-79835185D01*
X147320000Y-79808440D01*
X147331078Y-79835185D01*
X147748815Y-80252922D01*
X148294615Y-80479000D01*
X148885385Y-80479000D01*
X149431185Y-80252922D01*
X149848922Y-79835185D01*
X149860000Y-79808440D01*
X149871078Y-79835185D01*
X150288815Y-80252922D01*
X150834615Y-80479000D01*
X151425385Y-80479000D01*
X151971185Y-80252922D01*
X152388922Y-79835185D01*
X152615000Y-79289385D01*
X152615000Y-78698615D01*
X152388922Y-78152815D01*
X151971185Y-77735078D01*
X151944440Y-77724000D01*
X151971185Y-77712922D01*
X152388922Y-77295185D01*
X152400000Y-77268440D01*
X152411078Y-77295185D01*
X152828815Y-77712922D01*
X153374615Y-77939000D01*
X153965385Y-77939000D01*
X154511185Y-77712922D01*
X154928922Y-77295185D01*
X154940000Y-77268440D01*
X154951078Y-77295185D01*
X155368815Y-77712922D01*
X155395560Y-77724000D01*
X155368815Y-77735078D01*
X154951078Y-78152815D01*
X154725000Y-78698615D01*
X154725000Y-79289385D01*
X154951078Y-79835185D01*
X155368815Y-80252922D01*
X155914615Y-80479000D01*
X156505385Y-80479000D01*
X157051185Y-80252922D01*
X157468922Y-79835185D01*
X157480000Y-79808440D01*
X157491078Y-79835185D01*
X157908815Y-80252922D01*
X158454615Y-80479000D01*
X159045385Y-80479000D01*
X159591185Y-80252922D01*
X160008922Y-79835185D01*
X160020000Y-79808440D01*
X160031078Y-79835185D01*
X160448815Y-80252922D01*
X160994615Y-80479000D01*
X161585385Y-80479000D01*
X162131185Y-80252922D01*
X162548922Y-79835185D01*
X162560000Y-79808440D01*
X162571078Y-79835185D01*
X162988815Y-80252922D01*
X163534615Y-80479000D01*
X164125385Y-80479000D01*
X164671185Y-80252922D01*
X165088922Y-79835185D01*
X165100000Y-79808440D01*
X165111078Y-79835185D01*
X165528815Y-80252922D01*
X166074615Y-80479000D01*
X166665385Y-80479000D01*
X167211185Y-80252922D01*
X167628922Y-79835185D01*
X167640000Y-79808440D01*
X167651078Y-79835185D01*
X168068815Y-80252922D01*
X168614615Y-80479000D01*
X169205385Y-80479000D01*
X169751185Y-80252922D01*
X170168922Y-79835185D01*
X170395000Y-79289385D01*
X170395000Y-78698615D01*
X170168922Y-78152815D01*
X169751185Y-77735078D01*
X169724440Y-77724000D01*
X169751185Y-77712922D01*
X170168922Y-77295185D01*
X170180000Y-77268440D01*
X170191078Y-77295185D01*
X170608815Y-77712922D01*
X171154615Y-77939000D01*
X171745385Y-77939000D01*
X172291185Y-77712922D01*
X172708922Y-77295185D01*
X172935000Y-76749385D01*
X172935000Y-76158615D01*
X172708922Y-75612815D01*
X172291185Y-75195078D01*
X172199257Y-75157000D01*
X176985634Y-75157000D01*
X177399922Y-75216331D01*
X177732746Y-75367657D01*
X178009720Y-75606313D01*
X178208580Y-75913116D01*
X178320618Y-76287748D01*
X178335000Y-76481274D01*
X178335000Y-77009616D01*
X178129966Y-76514620D01*
X177529380Y-75914034D01*
X176744678Y-75589000D01*
X175895322Y-75589000D01*
X175110620Y-75914034D01*
X174510034Y-76514620D01*
X174185000Y-77299322D01*
X174185000Y-78148678D01*
X174510034Y-78933380D01*
X175110620Y-79533966D01*
X175895322Y-79859000D01*
X176744678Y-79859000D01*
X177529380Y-79533966D01*
X178129966Y-78933380D01*
X178335000Y-78438384D01*
X178335001Y-126009618D01*
X178129966Y-125514620D01*
X177529380Y-124914034D01*
X176744678Y-124589000D01*
X175895322Y-124589000D01*
X175110620Y-124914034D01*
X174510034Y-125514620D01*
X174185000Y-126299322D01*
X174185000Y-127148678D01*
X174510034Y-127933380D01*
X175110620Y-128533966D01*
X175895322Y-128859000D01*
X176744678Y-128859000D01*
X177529380Y-128533966D01*
X178129966Y-127933380D01*
X178335001Y-127438381D01*
X178335001Y-128705607D01*
X178320601Y-128778000D01*
X178377646Y-129064783D01*
X178540095Y-129307905D01*
X178783217Y-129470354D01*
X178997612Y-129513000D01*
X179070000Y-129527399D01*
X179142388Y-129513000D01*
X194765634Y-129513000D01*
X195179922Y-129572331D01*
X195512746Y-129723657D01*
X195789720Y-129962313D01*
X195988580Y-130269116D01*
X196100618Y-130643748D01*
X196115000Y-130837275D01*
X196115001Y-138323142D01*
X195787078Y-138421212D01*
X195696505Y-138463063D01*
X195605466Y-138503787D01*
X195597901Y-138508624D01*
X195114442Y-138821987D01*
X195039277Y-138887558D01*
X194963306Y-138952214D01*
X194957407Y-138958977D01*
X194957403Y-138958981D01*
X194957400Y-138958986D01*
X194581327Y-139395440D01*
X194527590Y-139479465D01*
X194472816Y-139562851D01*
X194469050Y-139571002D01*
X194230589Y-140095469D01*
X194202587Y-140191226D01*
X194173427Y-140286607D01*
X194172099Y-140295487D01*
X194090423Y-140865802D01*
X194090423Y-140940785D01*
X194084411Y-141015512D01*
X194085021Y-141024470D01*
X194107341Y-141324819D01*
X194123441Y-141398045D01*
X194133616Y-141472326D01*
X194136136Y-141480944D01*
X194301212Y-142032922D01*
X194343071Y-142123513D01*
X194383787Y-142214534D01*
X194388624Y-142222099D01*
X194701987Y-142705558D01*
X194767558Y-142780723D01*
X194832214Y-142856694D01*
X194838977Y-142862593D01*
X194838981Y-142862597D01*
X194838986Y-142862600D01*
X195275440Y-143238673D01*
X195359465Y-143292410D01*
X195442851Y-143347184D01*
X195451002Y-143350950D01*
X195975469Y-143589411D01*
X196071237Y-143617416D01*
X196115000Y-143630795D01*
X196115001Y-151585627D01*
X196055669Y-151999922D01*
X195904343Y-152332746D01*
X195665687Y-152609720D01*
X195358885Y-152808579D01*
X194984252Y-152920618D01*
X194790726Y-152935000D01*
X74474366Y-152935000D01*
X74060078Y-152875669D01*
X73727254Y-152724343D01*
X73450280Y-152485687D01*
X73251421Y-152178885D01*
X73139382Y-151804252D01*
X73125000Y-151610726D01*
X73125000Y-143616857D01*
X73452922Y-143518788D01*
X73543513Y-143476929D01*
X73634534Y-143436213D01*
X73642096Y-143431378D01*
X73642100Y-143431376D01*
X74125558Y-143118013D01*
X74200723Y-143052442D01*
X74276694Y-142987786D01*
X74282593Y-142981023D01*
X74282597Y-142981019D01*
X74282600Y-142981014D01*
X74658673Y-142544560D01*
X74712410Y-142460535D01*
X74767184Y-142377149D01*
X74770950Y-142368998D01*
X75009411Y-141844531D01*
X75037416Y-141748763D01*
X75066573Y-141653393D01*
X75067901Y-141644513D01*
X75149577Y-141074198D01*
X75149577Y-140999215D01*
X75155589Y-140924488D01*
X75154979Y-140915530D01*
X75132659Y-140615181D01*
X75116559Y-140541954D01*
X75106384Y-140467674D01*
X75103864Y-140459055D01*
X74938788Y-139907078D01*
X74896937Y-139816505D01*
X74856213Y-139725466D01*
X74851376Y-139717901D01*
X74538013Y-139234442D01*
X74472442Y-139159277D01*
X74407786Y-139083306D01*
X74401023Y-139077407D01*
X74401019Y-139077403D01*
X74401014Y-139077400D01*
X73964560Y-138701327D01*
X73880535Y-138647590D01*
X73797149Y-138592816D01*
X73788998Y-138589050D01*
X73264531Y-138350589D01*
X73168774Y-138322587D01*
X73125000Y-138309205D01*
X73125000Y-126299322D01*
X116185000Y-126299322D01*
X116185000Y-127148678D01*
X116510034Y-127933380D01*
X117110620Y-128533966D01*
X117895322Y-128859000D01*
X118744678Y-128859000D01*
X119529380Y-128533966D01*
X120129966Y-127933380D01*
X120455000Y-127148678D01*
X120455000Y-126299322D01*
X120129966Y-125514620D01*
X119529380Y-124914034D01*
X118744678Y-124589000D01*
X117895322Y-124589000D01*
X117110620Y-124914034D01*
X116510034Y-125514620D01*
X116185000Y-126299322D01*
X73125000Y-126299322D01*
X73125000Y-116562119D01*
X151003000Y-116562119D01*
X151003000Y-117117881D01*
X151215680Y-117631337D01*
X151608663Y-118024320D01*
X152122119Y-118237000D01*
X152677881Y-118237000D01*
X153191337Y-118024320D01*
X153584320Y-117631337D01*
X153797000Y-117117881D01*
X153797000Y-116562119D01*
X153584320Y-116048663D01*
X153191337Y-115655680D01*
X152677881Y-115443000D01*
X152122119Y-115443000D01*
X151608663Y-115655680D01*
X151215680Y-116048663D01*
X151003000Y-116562119D01*
X73125000Y-116562119D01*
X73125000Y-111482119D01*
X151003000Y-111482119D01*
X151003000Y-112037881D01*
X151215680Y-112551337D01*
X151608663Y-112944320D01*
X152122119Y-113157000D01*
X152677881Y-113157000D01*
X153191337Y-112944320D01*
X153584320Y-112551337D01*
X153797000Y-112037881D01*
X153797000Y-111482119D01*
X153584320Y-110968663D01*
X153191337Y-110575680D01*
X152677881Y-110363000D01*
X152122119Y-110363000D01*
X151608663Y-110575680D01*
X151215680Y-110968663D01*
X151003000Y-111482119D01*
X73125000Y-111482119D01*
X73125000Y-109985453D01*
X164465000Y-109985453D01*
X164465000Y-111248547D01*
X164948365Y-112415493D01*
X165841507Y-113308635D01*
X167008453Y-113792000D01*
X168271547Y-113792000D01*
X169438493Y-113308635D01*
X170331635Y-112415493D01*
X170815000Y-111248547D01*
X170815000Y-109985453D01*
X170331635Y-108818507D01*
X169438493Y-107925365D01*
X168271547Y-107442000D01*
X167008453Y-107442000D01*
X165841507Y-107925365D01*
X164948365Y-108818507D01*
X164465000Y-109985453D01*
X73125000Y-109985453D01*
X73125000Y-77299322D01*
X116185000Y-77299322D01*
X116185000Y-78148678D01*
X116510034Y-78933380D01*
X117110620Y-79533966D01*
X117895322Y-79859000D01*
X118744678Y-79859000D01*
X119529380Y-79533966D01*
X120129966Y-78933380D01*
X120455000Y-78148678D01*
X120455000Y-77299322D01*
X120129966Y-76514620D01*
X119529380Y-75914034D01*
X118744678Y-75589000D01*
X117895322Y-75589000D01*
X117110620Y-75914034D01*
X116510034Y-76514620D01*
X116185000Y-77299322D01*
X73125000Y-77299322D01*
X73125000Y-76506366D01*
X73184331Y-76092078D01*
X73335657Y-75759254D01*
X73574313Y-75482280D01*
X73881116Y-75283420D01*
X74255748Y-75171382D01*
X74449274Y-75157000D01*
X122440743Y-75157000D01*
X122348815Y-75195078D01*
G36*
X147748815Y-75195078D02*
X147331078Y-75612815D01*
X147105000Y-76158615D01*
X147105000Y-76749385D01*
X147331078Y-77295185D01*
X147748815Y-77712922D01*
X147775560Y-77724000D01*
X147748815Y-77735078D01*
X147331078Y-78152815D01*
X147320000Y-78179560D01*
X147308922Y-78152815D01*
X146891185Y-77735078D01*
X146345385Y-77509000D01*
X145754615Y-77509000D01*
X145208815Y-77735078D01*
X144791078Y-78152815D01*
X144780000Y-78179560D01*
X144768922Y-78152815D01*
X144351185Y-77735078D01*
X144324440Y-77724000D01*
X144351185Y-77712922D01*
X144768922Y-77295185D01*
X144995000Y-76749385D01*
X144995000Y-76158615D01*
X144768922Y-75612815D01*
X144351185Y-75195078D01*
X144259257Y-75157000D01*
X147840743Y-75157000D01*
X147748815Y-75195078D01*
X147748815Y-75195078D01*
G37*
X147748815Y-75195078D02*
X147331078Y-75612815D01*
X147105000Y-76158615D01*
X147105000Y-76749385D01*
X147331078Y-77295185D01*
X147748815Y-77712922D01*
X147775560Y-77724000D01*
X147748815Y-77735078D01*
X147331078Y-78152815D01*
X147320000Y-78179560D01*
X147308922Y-78152815D01*
X146891185Y-77735078D01*
X146345385Y-77509000D01*
X145754615Y-77509000D01*
X145208815Y-77735078D01*
X144791078Y-78152815D01*
X144780000Y-78179560D01*
X144768922Y-78152815D01*
X144351185Y-77735078D01*
X144324440Y-77724000D01*
X144351185Y-77712922D01*
X144768922Y-77295185D01*
X144995000Y-76749385D01*
X144995000Y-76158615D01*
X144768922Y-75612815D01*
X144351185Y-75195078D01*
X144259257Y-75157000D01*
X147840743Y-75157000D01*
X147748815Y-75195078D01*
G36*
X140128815Y-75195078D02*
X139711078Y-75612815D01*
X139485000Y-76158615D01*
X139485000Y-76749385D01*
X139711078Y-77295185D01*
X140128815Y-77712922D01*
X140155560Y-77724000D01*
X140128815Y-77735078D01*
X139711078Y-78152815D01*
X139700000Y-78179560D01*
X139688922Y-78152815D01*
X139271185Y-77735078D01*
X138725385Y-77509000D01*
X138134615Y-77509000D01*
X137588815Y-77735078D01*
X137171078Y-78152815D01*
X137160000Y-78179560D01*
X137148922Y-78152815D01*
X136731185Y-77735078D01*
X136704440Y-77724000D01*
X136731185Y-77712922D01*
X137148922Y-77295185D01*
X137375000Y-76749385D01*
X137375000Y-76158615D01*
X137148922Y-75612815D01*
X136731185Y-75195078D01*
X136639257Y-75157000D01*
X140220743Y-75157000D01*
X140128815Y-75195078D01*
X140128815Y-75195078D01*
G37*
X140128815Y-75195078D02*
X139711078Y-75612815D01*
X139485000Y-76158615D01*
X139485000Y-76749385D01*
X139711078Y-77295185D01*
X140128815Y-77712922D01*
X140155560Y-77724000D01*
X140128815Y-77735078D01*
X139711078Y-78152815D01*
X139700000Y-78179560D01*
X139688922Y-78152815D01*
X139271185Y-77735078D01*
X138725385Y-77509000D01*
X138134615Y-77509000D01*
X137588815Y-77735078D01*
X137171078Y-78152815D01*
X137160000Y-78179560D01*
X137148922Y-78152815D01*
X136731185Y-77735078D01*
X136704440Y-77724000D01*
X136731185Y-77712922D01*
X137148922Y-77295185D01*
X137375000Y-76749385D01*
X137375000Y-76158615D01*
X137148922Y-75612815D01*
X136731185Y-75195078D01*
X136639257Y-75157000D01*
X140220743Y-75157000D01*
X140128815Y-75195078D01*
G36*
X165528815Y-75195078D02*
X165111078Y-75612815D01*
X164885000Y-76158615D01*
X164885000Y-76749385D01*
X165111078Y-77295185D01*
X165528815Y-77712922D01*
X165555560Y-77724000D01*
X165528815Y-77735078D01*
X165111078Y-78152815D01*
X165100000Y-78179560D01*
X165088922Y-78152815D01*
X164671185Y-77735078D01*
X164125385Y-77509000D01*
X163534615Y-77509000D01*
X162988815Y-77735078D01*
X162571078Y-78152815D01*
X162560000Y-78179560D01*
X162548922Y-78152815D01*
X162131185Y-77735078D01*
X162104440Y-77724000D01*
X162131185Y-77712922D01*
X162548922Y-77295185D01*
X162775000Y-76749385D01*
X162775000Y-76158615D01*
X162548922Y-75612815D01*
X162131185Y-75195078D01*
X162039257Y-75157000D01*
X165620743Y-75157000D01*
X165528815Y-75195078D01*
X165528815Y-75195078D01*
G37*
X165528815Y-75195078D02*
X165111078Y-75612815D01*
X164885000Y-76158615D01*
X164885000Y-76749385D01*
X165111078Y-77295185D01*
X165528815Y-77712922D01*
X165555560Y-77724000D01*
X165528815Y-77735078D01*
X165111078Y-78152815D01*
X165100000Y-78179560D01*
X165088922Y-78152815D01*
X164671185Y-77735078D01*
X164125385Y-77509000D01*
X163534615Y-77509000D01*
X162988815Y-77735078D01*
X162571078Y-78152815D01*
X162560000Y-78179560D01*
X162548922Y-78152815D01*
X162131185Y-77735078D01*
X162104440Y-77724000D01*
X162131185Y-77712922D01*
X162548922Y-77295185D01*
X162775000Y-76749385D01*
X162775000Y-76158615D01*
X162548922Y-75612815D01*
X162131185Y-75195078D01*
X162039257Y-75157000D01*
X165620743Y-75157000D01*
X165528815Y-75195078D01*
G36*
X129968815Y-75195078D02*
X129551078Y-75612815D01*
X129325000Y-76158615D01*
X129325000Y-76749385D01*
X129551078Y-77295185D01*
X129968815Y-77712922D01*
X129995560Y-77724000D01*
X129968815Y-77735078D01*
X129551078Y-78152815D01*
X129540000Y-78179560D01*
X129528922Y-78152815D01*
X129111185Y-77735078D01*
X128565385Y-77509000D01*
X127974615Y-77509000D01*
X127428815Y-77735078D01*
X127011078Y-78152815D01*
X127000000Y-78179560D01*
X126988922Y-78152815D01*
X126571185Y-77735078D01*
X126544440Y-77724000D01*
X126571185Y-77712922D01*
X126988922Y-77295185D01*
X127215000Y-76749385D01*
X127215000Y-76158615D01*
X126988922Y-75612815D01*
X126571185Y-75195078D01*
X126479257Y-75157000D01*
X130060743Y-75157000D01*
X129968815Y-75195078D01*
X129968815Y-75195078D01*
G37*
X129968815Y-75195078D02*
X129551078Y-75612815D01*
X129325000Y-76158615D01*
X129325000Y-76749385D01*
X129551078Y-77295185D01*
X129968815Y-77712922D01*
X129995560Y-77724000D01*
X129968815Y-77735078D01*
X129551078Y-78152815D01*
X129540000Y-78179560D01*
X129528922Y-78152815D01*
X129111185Y-77735078D01*
X128565385Y-77509000D01*
X127974615Y-77509000D01*
X127428815Y-77735078D01*
X127011078Y-78152815D01*
X127000000Y-78179560D01*
X126988922Y-78152815D01*
X126571185Y-77735078D01*
X126544440Y-77724000D01*
X126571185Y-77712922D01*
X126988922Y-77295185D01*
X127215000Y-76749385D01*
X127215000Y-76158615D01*
X126988922Y-75612815D01*
X126571185Y-75195078D01*
X126479257Y-75157000D01*
X130060743Y-75157000D01*
X129968815Y-75195078D01*
G36*
X160448815Y-75195078D02*
X160031078Y-75612815D01*
X159805000Y-76158615D01*
X159805000Y-76749385D01*
X160031078Y-77295185D01*
X160448815Y-77712922D01*
X160475560Y-77724000D01*
X160448815Y-77735078D01*
X160031078Y-78152815D01*
X160020000Y-78179560D01*
X160008922Y-78152815D01*
X159591185Y-77735078D01*
X159045385Y-77509000D01*
X158454615Y-77509000D01*
X157908815Y-77735078D01*
X157491078Y-78152815D01*
X157480000Y-78179560D01*
X157468922Y-78152815D01*
X157051185Y-77735078D01*
X157024440Y-77724000D01*
X157051185Y-77712922D01*
X157468922Y-77295185D01*
X157695000Y-76749385D01*
X157695000Y-76158615D01*
X157468922Y-75612815D01*
X157051185Y-75195078D01*
X156959257Y-75157000D01*
X160540743Y-75157000D01*
X160448815Y-75195078D01*
X160448815Y-75195078D01*
G37*
X160448815Y-75195078D02*
X160031078Y-75612815D01*
X159805000Y-76158615D01*
X159805000Y-76749385D01*
X160031078Y-77295185D01*
X160448815Y-77712922D01*
X160475560Y-77724000D01*
X160448815Y-77735078D01*
X160031078Y-78152815D01*
X160020000Y-78179560D01*
X160008922Y-78152815D01*
X159591185Y-77735078D01*
X159045385Y-77509000D01*
X158454615Y-77509000D01*
X157908815Y-77735078D01*
X157491078Y-78152815D01*
X157480000Y-78179560D01*
X157468922Y-78152815D01*
X157051185Y-77735078D01*
X157024440Y-77724000D01*
X157051185Y-77712922D01*
X157468922Y-77295185D01*
X157695000Y-76749385D01*
X157695000Y-76158615D01*
X157468922Y-75612815D01*
X157051185Y-75195078D01*
X156959257Y-75157000D01*
X160540743Y-75157000D01*
X160448815Y-75195078D01*
G04 #@! TD*
M02*
