G04 #@! TF.GenerationSoftware,KiCad,Pcbnew,(5.0.2)-1*
G04 #@! TF.CreationDate,2019-02-28T16:47:17-06:00*
G04 #@! TF.ProjectId,RaspberryPiBreakout_Hardware,52617370-6265-4727-9279-506942726561,rev?*
G04 #@! TF.SameCoordinates,Original*
G04 #@! TF.FileFunction,Legend,Bot*
G04 #@! TF.FilePolarity,Positive*
%FSLAX46Y46*%
G04 Gerber Fmt 4.6, Leading zero omitted, Abs format (unit mm)*
G04 Created by KiCad (PCBNEW (5.0.2)-1) date 2/28/2019 4:47:17 PM*
%MOMM*%
%LPD*%
G01*
G04 APERTURE LIST*
%ADD10C,0.150000*%
%ADD11C,0.010000*%
G04 APERTURE END LIST*
D10*
G04 #@! TO.C,U2*
X72390000Y-80010000D02*
X72390000Y-85090000D01*
X121920000Y-80264000D02*
X172720000Y-80264000D01*
X121920000Y-75184000D02*
X121920000Y-80264000D01*
X172720000Y-75184000D02*
X121920000Y-75184000D01*
X172720000Y-80264000D02*
X172720000Y-75184000D01*
D11*
G04 #@! TO.C,G\002A\002A\002A*
G36*
X143455537Y-95274521D02*
X143454120Y-95283867D01*
X143480486Y-95323577D01*
X143490527Y-95328176D01*
X143521407Y-95311828D01*
X143526933Y-95283867D01*
X143509749Y-95241717D01*
X143490527Y-95239558D01*
X143455537Y-95274521D01*
X143455537Y-95274521D01*
G37*
X143455537Y-95274521D02*
X143454120Y-95283867D01*
X143480486Y-95323577D01*
X143490527Y-95328176D01*
X143521407Y-95311828D01*
X143526933Y-95283867D01*
X143509749Y-95241717D01*
X143490527Y-95239558D01*
X143455537Y-95274521D01*
G36*
X143739577Y-95651106D02*
X143648491Y-95689018D01*
X143601658Y-95723448D01*
X143493079Y-95851838D01*
X143439410Y-95999350D01*
X143443019Y-96150898D01*
X143506275Y-96291395D01*
X143511405Y-96298334D01*
X143548850Y-96337264D01*
X143595325Y-96348179D01*
X143674388Y-96334034D01*
X143714023Y-96323734D01*
X143847790Y-96292887D01*
X143947597Y-96287453D01*
X144042975Y-96309243D01*
X144141301Y-96349923D01*
X144304115Y-96406876D01*
X144436001Y-96411373D01*
X144550007Y-96362474D01*
X144605644Y-96316506D01*
X144688519Y-96205302D01*
X144693971Y-96168848D01*
X144537065Y-96168848D01*
X144518734Y-96218643D01*
X144484578Y-96236073D01*
X144475439Y-96232281D01*
X144446784Y-96184375D01*
X144441333Y-96145468D01*
X144459693Y-96088885D01*
X144500410Y-96086665D01*
X144527002Y-96115222D01*
X144537065Y-96168848D01*
X144693971Y-96168848D01*
X144704926Y-96095605D01*
X144656129Y-95989197D01*
X144633761Y-95969090D01*
X144308682Y-95969090D01*
X144308485Y-96030918D01*
X144298855Y-96072263D01*
X144272327Y-96145241D01*
X144239767Y-96162586D01*
X144214633Y-96152595D01*
X144204449Y-96139000D01*
X143695513Y-96139000D01*
X143681966Y-96179184D01*
X143647847Y-96166977D01*
X143606591Y-96108564D01*
X143600103Y-96095073D01*
X143571027Y-96017010D01*
X143561553Y-95968073D01*
X143577005Y-95960817D01*
X143612497Y-95993424D01*
X143653582Y-96047461D01*
X143685815Y-96104494D01*
X143695513Y-96139000D01*
X144204449Y-96139000D01*
X144173706Y-96097963D01*
X144156593Y-96016130D01*
X144162857Y-95952733D01*
X143960778Y-95952733D01*
X143955932Y-96046135D01*
X143926275Y-96079808D01*
X143879700Y-96053339D01*
X143824098Y-95966314D01*
X143821072Y-95960051D01*
X143779293Y-95868143D01*
X143770735Y-95822961D01*
X143798916Y-95810361D01*
X143857133Y-95815017D01*
X143920010Y-95831599D01*
X143949635Y-95876076D01*
X143960778Y-95952733D01*
X144162857Y-95952733D01*
X144164323Y-95937907D01*
X144202348Y-95915938D01*
X144274681Y-95938180D01*
X144308682Y-95969090D01*
X144633761Y-95969090D01*
X144543390Y-95887858D01*
X144367974Y-95793370D01*
X144185639Y-95724650D01*
X143994746Y-95668894D01*
X143850527Y-95644388D01*
X143739577Y-95651106D01*
X143739577Y-95651106D01*
G37*
X143739577Y-95651106D02*
X143648491Y-95689018D01*
X143601658Y-95723448D01*
X143493079Y-95851838D01*
X143439410Y-95999350D01*
X143443019Y-96150898D01*
X143506275Y-96291395D01*
X143511405Y-96298334D01*
X143548850Y-96337264D01*
X143595325Y-96348179D01*
X143674388Y-96334034D01*
X143714023Y-96323734D01*
X143847790Y-96292887D01*
X143947597Y-96287453D01*
X144042975Y-96309243D01*
X144141301Y-96349923D01*
X144304115Y-96406876D01*
X144436001Y-96411373D01*
X144550007Y-96362474D01*
X144605644Y-96316506D01*
X144688519Y-96205302D01*
X144693971Y-96168848D01*
X144537065Y-96168848D01*
X144518734Y-96218643D01*
X144484578Y-96236073D01*
X144475439Y-96232281D01*
X144446784Y-96184375D01*
X144441333Y-96145468D01*
X144459693Y-96088885D01*
X144500410Y-96086665D01*
X144527002Y-96115222D01*
X144537065Y-96168848D01*
X144693971Y-96168848D01*
X144704926Y-96095605D01*
X144656129Y-95989197D01*
X144633761Y-95969090D01*
X144308682Y-95969090D01*
X144308485Y-96030918D01*
X144298855Y-96072263D01*
X144272327Y-96145241D01*
X144239767Y-96162586D01*
X144214633Y-96152595D01*
X144204449Y-96139000D01*
X143695513Y-96139000D01*
X143681966Y-96179184D01*
X143647847Y-96166977D01*
X143606591Y-96108564D01*
X143600103Y-96095073D01*
X143571027Y-96017010D01*
X143561553Y-95968073D01*
X143577005Y-95960817D01*
X143612497Y-95993424D01*
X143653582Y-96047461D01*
X143685815Y-96104494D01*
X143695513Y-96139000D01*
X144204449Y-96139000D01*
X144173706Y-96097963D01*
X144156593Y-96016130D01*
X144162857Y-95952733D01*
X143960778Y-95952733D01*
X143955932Y-96046135D01*
X143926275Y-96079808D01*
X143879700Y-96053339D01*
X143824098Y-95966314D01*
X143821072Y-95960051D01*
X143779293Y-95868143D01*
X143770735Y-95822961D01*
X143798916Y-95810361D01*
X143857133Y-95815017D01*
X143920010Y-95831599D01*
X143949635Y-95876076D01*
X143960778Y-95952733D01*
X144162857Y-95952733D01*
X144164323Y-95937907D01*
X144202348Y-95915938D01*
X144274681Y-95938180D01*
X144308682Y-95969090D01*
X144633761Y-95969090D01*
X144543390Y-95887858D01*
X144367974Y-95793370D01*
X144185639Y-95724650D01*
X143994746Y-95668894D01*
X143850527Y-95644388D01*
X143739577Y-95651106D01*
G36*
X145391332Y-98550268D02*
X145333419Y-98622425D01*
X145335444Y-98675566D01*
X145400019Y-98725732D01*
X145421785Y-98737397D01*
X145532353Y-98781702D01*
X145607316Y-98776446D01*
X145659018Y-98719907D01*
X145667265Y-98703149D01*
X145674798Y-98677873D01*
X145555499Y-98677873D01*
X145521564Y-98670767D01*
X145515139Y-98668356D01*
X145473668Y-98641527D01*
X145473370Y-98626274D01*
X145509196Y-98630073D01*
X145534098Y-98649398D01*
X145555499Y-98677873D01*
X145674798Y-98677873D01*
X145689022Y-98630154D01*
X145666730Y-98580055D01*
X145658073Y-98571317D01*
X145556717Y-98508127D01*
X145458226Y-98507672D01*
X145391332Y-98550268D01*
X145391332Y-98550268D01*
G37*
X145391332Y-98550268D02*
X145333419Y-98622425D01*
X145335444Y-98675566D01*
X145400019Y-98725732D01*
X145421785Y-98737397D01*
X145532353Y-98781702D01*
X145607316Y-98776446D01*
X145659018Y-98719907D01*
X145667265Y-98703149D01*
X145674798Y-98677873D01*
X145555499Y-98677873D01*
X145521564Y-98670767D01*
X145515139Y-98668356D01*
X145473668Y-98641527D01*
X145473370Y-98626274D01*
X145509196Y-98630073D01*
X145534098Y-98649398D01*
X145555499Y-98677873D01*
X145674798Y-98677873D01*
X145689022Y-98630154D01*
X145666730Y-98580055D01*
X145658073Y-98571317D01*
X145556717Y-98508127D01*
X145458226Y-98507672D01*
X145391332Y-98550268D01*
G36*
X143472241Y-98480643D02*
X143365126Y-98525265D01*
X143290857Y-98611479D01*
X143240795Y-98748423D01*
X143212374Y-98900636D01*
X143194516Y-99061502D01*
X143200227Y-99167087D01*
X143235504Y-99227522D01*
X143306344Y-99252940D01*
X143418744Y-99253473D01*
X143421114Y-99253322D01*
X143517175Y-99243739D01*
X143565760Y-99221498D01*
X143587093Y-99171830D01*
X143594667Y-99126586D01*
X143624099Y-99034626D01*
X143630051Y-99029891D01*
X143493067Y-99029891D01*
X143475935Y-99110791D01*
X143415998Y-99150185D01*
X143349133Y-99158926D01*
X143315351Y-99150266D01*
X143297292Y-99110557D01*
X143290469Y-99025043D01*
X143289867Y-98964045D01*
X143293391Y-98853872D01*
X143302509Y-98773023D01*
X143311990Y-98744366D01*
X143345181Y-98750121D01*
X143391713Y-98800107D01*
X143439756Y-98875671D01*
X143477482Y-98958161D01*
X143493062Y-99028925D01*
X143493067Y-99029891D01*
X143630051Y-99029891D01*
X143668858Y-98999021D01*
X143745793Y-99010275D01*
X143826728Y-99056919D01*
X143885504Y-99120296D01*
X143899467Y-99163496D01*
X143906900Y-99214071D01*
X143937873Y-99236063D01*
X144005398Y-99231358D01*
X144122485Y-99201841D01*
X144136533Y-99197851D01*
X144272398Y-99156479D01*
X144353883Y-99120664D01*
X144392419Y-99079927D01*
X144399432Y-99023789D01*
X144393126Y-98980750D01*
X144282028Y-98980750D01*
X144279446Y-99031506D01*
X144264994Y-99040886D01*
X144192517Y-99064262D01*
X144170400Y-99071577D01*
X144059307Y-99089123D01*
X143985837Y-99053114D01*
X143966989Y-99025740D01*
X143949640Y-98957682D01*
X143972126Y-98871721D01*
X143986590Y-98839473D01*
X144032948Y-98753871D01*
X144072341Y-98727768D01*
X144121358Y-98757157D01*
X144160264Y-98797534D01*
X144240791Y-98899252D01*
X144282028Y-98980750D01*
X144393126Y-98980750D01*
X144390776Y-98964718D01*
X144346376Y-98823270D01*
X144264908Y-98719821D01*
X144166816Y-98651522D01*
X143966142Y-98651522D01*
X143895592Y-98771094D01*
X143819448Y-98864640D01*
X143739183Y-98891649D01*
X143652655Y-98851990D01*
X143561628Y-98750969D01*
X143507613Y-98665213D01*
X143480516Y-98599198D01*
X143481163Y-98577729D01*
X143526417Y-98560391D01*
X143615021Y-98559923D01*
X143725285Y-98574272D01*
X143835522Y-98601386D01*
X143873538Y-98614863D01*
X143966142Y-98651522D01*
X144166816Y-98651522D01*
X144165611Y-98650683D01*
X144001287Y-98561021D01*
X143869725Y-98505459D01*
X143749877Y-98476957D01*
X143620836Y-98468477D01*
X143472241Y-98480643D01*
X143472241Y-98480643D01*
G37*
X143472241Y-98480643D02*
X143365126Y-98525265D01*
X143290857Y-98611479D01*
X143240795Y-98748423D01*
X143212374Y-98900636D01*
X143194516Y-99061502D01*
X143200227Y-99167087D01*
X143235504Y-99227522D01*
X143306344Y-99252940D01*
X143418744Y-99253473D01*
X143421114Y-99253322D01*
X143517175Y-99243739D01*
X143565760Y-99221498D01*
X143587093Y-99171830D01*
X143594667Y-99126586D01*
X143624099Y-99034626D01*
X143630051Y-99029891D01*
X143493067Y-99029891D01*
X143475935Y-99110791D01*
X143415998Y-99150185D01*
X143349133Y-99158926D01*
X143315351Y-99150266D01*
X143297292Y-99110557D01*
X143290469Y-99025043D01*
X143289867Y-98964045D01*
X143293391Y-98853872D01*
X143302509Y-98773023D01*
X143311990Y-98744366D01*
X143345181Y-98750121D01*
X143391713Y-98800107D01*
X143439756Y-98875671D01*
X143477482Y-98958161D01*
X143493062Y-99028925D01*
X143493067Y-99029891D01*
X143630051Y-99029891D01*
X143668858Y-98999021D01*
X143745793Y-99010275D01*
X143826728Y-99056919D01*
X143885504Y-99120296D01*
X143899467Y-99163496D01*
X143906900Y-99214071D01*
X143937873Y-99236063D01*
X144005398Y-99231358D01*
X144122485Y-99201841D01*
X144136533Y-99197851D01*
X144272398Y-99156479D01*
X144353883Y-99120664D01*
X144392419Y-99079927D01*
X144399432Y-99023789D01*
X144393126Y-98980750D01*
X144282028Y-98980750D01*
X144279446Y-99031506D01*
X144264994Y-99040886D01*
X144192517Y-99064262D01*
X144170400Y-99071577D01*
X144059307Y-99089123D01*
X143985837Y-99053114D01*
X143966989Y-99025740D01*
X143949640Y-98957682D01*
X143972126Y-98871721D01*
X143986590Y-98839473D01*
X144032948Y-98753871D01*
X144072341Y-98727768D01*
X144121358Y-98757157D01*
X144160264Y-98797534D01*
X144240791Y-98899252D01*
X144282028Y-98980750D01*
X144393126Y-98980750D01*
X144390776Y-98964718D01*
X144346376Y-98823270D01*
X144264908Y-98719821D01*
X144166816Y-98651522D01*
X143966142Y-98651522D01*
X143895592Y-98771094D01*
X143819448Y-98864640D01*
X143739183Y-98891649D01*
X143652655Y-98851990D01*
X143561628Y-98750969D01*
X143507613Y-98665213D01*
X143480516Y-98599198D01*
X143481163Y-98577729D01*
X143526417Y-98560391D01*
X143615021Y-98559923D01*
X143725285Y-98574272D01*
X143835522Y-98601386D01*
X143873538Y-98614863D01*
X143966142Y-98651522D01*
X144166816Y-98651522D01*
X144165611Y-98650683D01*
X144001287Y-98561021D01*
X143869725Y-98505459D01*
X143749877Y-98476957D01*
X143620836Y-98468477D01*
X143472241Y-98480643D01*
G36*
X145670970Y-99007199D02*
X145632280Y-99066176D01*
X145639279Y-99139018D01*
X145701935Y-99210480D01*
X145805228Y-99258199D01*
X145887419Y-99244453D01*
X145932883Y-99192820D01*
X145942279Y-99154670D01*
X145846011Y-99154670D01*
X145806366Y-99148640D01*
X145747194Y-99109723D01*
X145702092Y-99072558D01*
X145712836Y-99060912D01*
X145752037Y-99060000D01*
X145817920Y-99081545D01*
X145842114Y-99110800D01*
X145846011Y-99154670D01*
X145942279Y-99154670D01*
X145955602Y-99100576D01*
X145913971Y-99029364D01*
X145845450Y-98991754D01*
X145745358Y-98977315D01*
X145670970Y-99007199D01*
X145670970Y-99007199D01*
G37*
X145670970Y-99007199D02*
X145632280Y-99066176D01*
X145639279Y-99139018D01*
X145701935Y-99210480D01*
X145805228Y-99258199D01*
X145887419Y-99244453D01*
X145932883Y-99192820D01*
X145942279Y-99154670D01*
X145846011Y-99154670D01*
X145806366Y-99148640D01*
X145747194Y-99109723D01*
X145702092Y-99072558D01*
X145712836Y-99060912D01*
X145752037Y-99060000D01*
X145817920Y-99081545D01*
X145842114Y-99110800D01*
X145846011Y-99154670D01*
X145942279Y-99154670D01*
X145955602Y-99100576D01*
X145913971Y-99029364D01*
X145845450Y-98991754D01*
X145745358Y-98977315D01*
X145670970Y-99007199D01*
G36*
X144981449Y-98983090D02*
X144924627Y-99052604D01*
X144915985Y-99109107D01*
X144935844Y-99202440D01*
X145002232Y-99257258D01*
X145057382Y-99275058D01*
X145137869Y-99278031D01*
X145196341Y-99228870D01*
X145201316Y-99221937D01*
X145248597Y-99116069D01*
X145248203Y-99113082D01*
X145152533Y-99113082D01*
X145129983Y-99154827D01*
X145077803Y-99154719D01*
X145019202Y-99113288D01*
X145016387Y-99109982D01*
X144989537Y-99059568D01*
X144992755Y-99039156D01*
X145041259Y-99030414D01*
X145104071Y-99054363D01*
X145147832Y-99095570D01*
X145152533Y-99113082D01*
X145248203Y-99113082D01*
X145237156Y-99029539D01*
X145171962Y-98973589D01*
X145084800Y-98958400D01*
X144981449Y-98983090D01*
X144981449Y-98983090D01*
G37*
X144981449Y-98983090D02*
X144924627Y-99052604D01*
X144915985Y-99109107D01*
X144935844Y-99202440D01*
X145002232Y-99257258D01*
X145057382Y-99275058D01*
X145137869Y-99278031D01*
X145196341Y-99228870D01*
X145201316Y-99221937D01*
X145248597Y-99116069D01*
X145248203Y-99113082D01*
X145152533Y-99113082D01*
X145129983Y-99154827D01*
X145077803Y-99154719D01*
X145019202Y-99113288D01*
X145016387Y-99109982D01*
X144989537Y-99059568D01*
X144992755Y-99039156D01*
X145041259Y-99030414D01*
X145104071Y-99054363D01*
X145147832Y-99095570D01*
X145152533Y-99113082D01*
X145248203Y-99113082D01*
X145237156Y-99029539D01*
X145171962Y-98973589D01*
X145084800Y-98958400D01*
X144981449Y-98983090D01*
G36*
X141924762Y-103388658D02*
X141881423Y-103451306D01*
X141879548Y-103513036D01*
X141918606Y-103560472D01*
X141974882Y-103542609D01*
X141996160Y-103523627D01*
X142030548Y-103462581D01*
X142032405Y-103399836D01*
X142002752Y-103362996D01*
X141990147Y-103361067D01*
X141924762Y-103388658D01*
X141924762Y-103388658D01*
G37*
X141924762Y-103388658D02*
X141881423Y-103451306D01*
X141879548Y-103513036D01*
X141918606Y-103560472D01*
X141974882Y-103542609D01*
X141996160Y-103523627D01*
X142030548Y-103462581D01*
X142032405Y-103399836D01*
X142002752Y-103362996D01*
X141990147Y-103361067D01*
X141924762Y-103388658D01*
G36*
X142613968Y-104224211D02*
X142556629Y-104267378D01*
X142551292Y-104318056D01*
X142579794Y-104387054D01*
X142631912Y-104394068D01*
X142697178Y-104343224D01*
X142733764Y-104273822D01*
X142713248Y-104226774D01*
X142645814Y-104216645D01*
X142613968Y-104224211D01*
X142613968Y-104224211D01*
G37*
X142613968Y-104224211D02*
X142556629Y-104267378D01*
X142551292Y-104318056D01*
X142579794Y-104387054D01*
X142631912Y-104394068D01*
X142697178Y-104343224D01*
X142733764Y-104273822D01*
X142713248Y-104226774D01*
X142645814Y-104216645D01*
X142613968Y-104224211D01*
G36*
X148772878Y-95740229D02*
X148625035Y-95755805D01*
X148510263Y-95781873D01*
X148491277Y-95789074D01*
X148368729Y-95856558D01*
X148298994Y-95941139D01*
X148273109Y-96059043D01*
X148276917Y-96177277D01*
X148294935Y-96305401D01*
X148321822Y-96420536D01*
X148341287Y-96474158D01*
X148367731Y-96522304D01*
X148401110Y-96551392D01*
X148457733Y-96566654D01*
X148553909Y-96573319D01*
X148658084Y-96575755D01*
X148826017Y-96572859D01*
X149003627Y-96560478D01*
X149148800Y-96541847D01*
X149267270Y-96519109D01*
X149337358Y-96495244D01*
X149377492Y-96457960D01*
X149406098Y-96394971D01*
X149417456Y-96362670D01*
X149443386Y-96221411D01*
X149437498Y-96111831D01*
X149245631Y-96111831D01*
X149243931Y-96169379D01*
X149234844Y-96268388D01*
X149212323Y-96321781D01*
X149158808Y-96351549D01*
X149081067Y-96373341D01*
X148932693Y-96408713D01*
X148846145Y-96418957D01*
X148819091Y-96400661D01*
X148849199Y-96350413D01*
X148934137Y-96264798D01*
X148978781Y-96223667D01*
X149079744Y-96133594D01*
X149163079Y-96062511D01*
X149215184Y-96021903D01*
X149223617Y-96016979D01*
X149239346Y-96039960D01*
X149245631Y-96111831D01*
X149437498Y-96111831D01*
X149435221Y-96069471D01*
X149397542Y-95928529D01*
X149389667Y-95914910D01*
X149021684Y-95914910D01*
X148924375Y-96018550D01*
X148842771Y-96098050D01*
X148735361Y-96193350D01*
X148659258Y-96256445D01*
X148567277Y-96327484D01*
X148513242Y-96359272D01*
X148483808Y-96356799D01*
X148466905Y-96328350D01*
X148448378Y-96249534D01*
X148439980Y-96158353D01*
X148458189Y-96060514D01*
X148506805Y-95978628D01*
X148567019Y-95939825D01*
X148610501Y-95936023D01*
X148701083Y-95930515D01*
X148805842Y-95925146D01*
X149021684Y-95914910D01*
X149389667Y-95914910D01*
X149334933Y-95820262D01*
X149295350Y-95784920D01*
X149215029Y-95757492D01*
X149087856Y-95740969D01*
X148933812Y-95735250D01*
X148772878Y-95740229D01*
X148772878Y-95740229D01*
G37*
X148772878Y-95740229D02*
X148625035Y-95755805D01*
X148510263Y-95781873D01*
X148491277Y-95789074D01*
X148368729Y-95856558D01*
X148298994Y-95941139D01*
X148273109Y-96059043D01*
X148276917Y-96177277D01*
X148294935Y-96305401D01*
X148321822Y-96420536D01*
X148341287Y-96474158D01*
X148367731Y-96522304D01*
X148401110Y-96551392D01*
X148457733Y-96566654D01*
X148553909Y-96573319D01*
X148658084Y-96575755D01*
X148826017Y-96572859D01*
X149003627Y-96560478D01*
X149148800Y-96541847D01*
X149267270Y-96519109D01*
X149337358Y-96495244D01*
X149377492Y-96457960D01*
X149406098Y-96394971D01*
X149417456Y-96362670D01*
X149443386Y-96221411D01*
X149437498Y-96111831D01*
X149245631Y-96111831D01*
X149243931Y-96169379D01*
X149234844Y-96268388D01*
X149212323Y-96321781D01*
X149158808Y-96351549D01*
X149081067Y-96373341D01*
X148932693Y-96408713D01*
X148846145Y-96418957D01*
X148819091Y-96400661D01*
X148849199Y-96350413D01*
X148934137Y-96264798D01*
X148978781Y-96223667D01*
X149079744Y-96133594D01*
X149163079Y-96062511D01*
X149215184Y-96021903D01*
X149223617Y-96016979D01*
X149239346Y-96039960D01*
X149245631Y-96111831D01*
X149437498Y-96111831D01*
X149435221Y-96069471D01*
X149397542Y-95928529D01*
X149389667Y-95914910D01*
X149021684Y-95914910D01*
X148924375Y-96018550D01*
X148842771Y-96098050D01*
X148735361Y-96193350D01*
X148659258Y-96256445D01*
X148567277Y-96327484D01*
X148513242Y-96359272D01*
X148483808Y-96356799D01*
X148466905Y-96328350D01*
X148448378Y-96249534D01*
X148439980Y-96158353D01*
X148458189Y-96060514D01*
X148506805Y-95978628D01*
X148567019Y-95939825D01*
X148610501Y-95936023D01*
X148701083Y-95930515D01*
X148805842Y-95925146D01*
X149021684Y-95914910D01*
X149389667Y-95914910D01*
X149334933Y-95820262D01*
X149295350Y-95784920D01*
X149215029Y-95757492D01*
X149087856Y-95740969D01*
X148933812Y-95735250D01*
X148772878Y-95740229D01*
G36*
X148415030Y-96781017D02*
X148381150Y-96844015D01*
X148388314Y-96931171D01*
X148432981Y-96979625D01*
X148504431Y-96993463D01*
X148571088Y-96971536D01*
X148596453Y-96938730D01*
X148596116Y-96858195D01*
X148545657Y-96790989D01*
X148480785Y-96763743D01*
X148415030Y-96781017D01*
X148415030Y-96781017D01*
G37*
X148415030Y-96781017D02*
X148381150Y-96844015D01*
X148388314Y-96931171D01*
X148432981Y-96979625D01*
X148504431Y-96993463D01*
X148571088Y-96971536D01*
X148596453Y-96938730D01*
X148596116Y-96858195D01*
X148545657Y-96790989D01*
X148480785Y-96763743D01*
X148415030Y-96781017D01*
G36*
X148319174Y-97083445D02*
X148289406Y-97115394D01*
X148282372Y-97188824D01*
X148288083Y-97259806D01*
X148317548Y-97484308D01*
X148350629Y-97669066D01*
X148385416Y-97805391D01*
X148420002Y-97884593D01*
X148427250Y-97893345D01*
X148475685Y-97932291D01*
X148524236Y-97932917D01*
X148590000Y-97904409D01*
X148644353Y-97857666D01*
X148712462Y-97772753D01*
X148758393Y-97702626D01*
X148857431Y-97555183D01*
X148952495Y-97447033D01*
X149035601Y-97385852D01*
X149095978Y-97378138D01*
X149142569Y-97425879D01*
X149134967Y-97510215D01*
X149073724Y-97627854D01*
X149047821Y-97665235D01*
X148988771Y-97762814D01*
X148965090Y-97838258D01*
X148967465Y-97858373D01*
X149010666Y-97901597D01*
X149078144Y-97891582D01*
X149158866Y-97832895D01*
X149227913Y-97750640D01*
X149288907Y-97651544D01*
X149311180Y-97572329D01*
X149304637Y-97491609D01*
X149255943Y-97350270D01*
X149175963Y-97249162D01*
X149075200Y-97200124D01*
X149043550Y-97197334D01*
X148938766Y-97214271D01*
X148841535Y-97270857D01*
X148740370Y-97375757D01*
X148656395Y-97489328D01*
X148582808Y-97588046D01*
X148531960Y-97631552D01*
X148499717Y-97616935D01*
X148481948Y-97541279D01*
X148474521Y-97401673D01*
X148473847Y-97360619D01*
X148458905Y-97215279D01*
X148420709Y-97118848D01*
X148362981Y-97077996D01*
X148319174Y-97083445D01*
X148319174Y-97083445D01*
G37*
X148319174Y-97083445D02*
X148289406Y-97115394D01*
X148282372Y-97188824D01*
X148288083Y-97259806D01*
X148317548Y-97484308D01*
X148350629Y-97669066D01*
X148385416Y-97805391D01*
X148420002Y-97884593D01*
X148427250Y-97893345D01*
X148475685Y-97932291D01*
X148524236Y-97932917D01*
X148590000Y-97904409D01*
X148644353Y-97857666D01*
X148712462Y-97772753D01*
X148758393Y-97702626D01*
X148857431Y-97555183D01*
X148952495Y-97447033D01*
X149035601Y-97385852D01*
X149095978Y-97378138D01*
X149142569Y-97425879D01*
X149134967Y-97510215D01*
X149073724Y-97627854D01*
X149047821Y-97665235D01*
X148988771Y-97762814D01*
X148965090Y-97838258D01*
X148967465Y-97858373D01*
X149010666Y-97901597D01*
X149078144Y-97891582D01*
X149158866Y-97832895D01*
X149227913Y-97750640D01*
X149288907Y-97651544D01*
X149311180Y-97572329D01*
X149304637Y-97491609D01*
X149255943Y-97350270D01*
X149175963Y-97249162D01*
X149075200Y-97200124D01*
X149043550Y-97197334D01*
X148938766Y-97214271D01*
X148841535Y-97270857D01*
X148740370Y-97375757D01*
X148656395Y-97489328D01*
X148582808Y-97588046D01*
X148531960Y-97631552D01*
X148499717Y-97616935D01*
X148481948Y-97541279D01*
X148474521Y-97401673D01*
X148473847Y-97360619D01*
X148458905Y-97215279D01*
X148420709Y-97118848D01*
X148362981Y-97077996D01*
X148319174Y-97083445D01*
G36*
X149094097Y-98735078D02*
X149056782Y-98769794D01*
X149053198Y-98843392D01*
X149056919Y-98869705D01*
X149075306Y-98983010D01*
X148849586Y-99004331D01*
X148700895Y-99015933D01*
X148551023Y-99023777D01*
X148460644Y-99025893D01*
X148362962Y-99028929D01*
X148316723Y-99043081D01*
X148305705Y-99076488D01*
X148308244Y-99102334D01*
X148315714Y-99135259D01*
X148334931Y-99156697D01*
X148377882Y-99168745D01*
X148456553Y-99173501D01*
X148582931Y-99173064D01*
X148700066Y-99170914D01*
X148866176Y-99168572D01*
X148975984Y-99170480D01*
X149040867Y-99178153D01*
X149072200Y-99193105D01*
X149081360Y-99216851D01*
X149081529Y-99221714D01*
X149090745Y-99303939D01*
X149100904Y-99350566D01*
X149105084Y-99381085D01*
X149091230Y-99403262D01*
X149048586Y-99420390D01*
X148966392Y-99435761D01*
X148833889Y-99452668D01*
X148728130Y-99464656D01*
X148336444Y-99508312D01*
X148302425Y-99634651D01*
X148287332Y-99756428D01*
X148295281Y-99896427D01*
X148322513Y-100027115D01*
X148365267Y-100120959D01*
X148369575Y-100126449D01*
X148436773Y-100160226D01*
X148558074Y-100172931D01*
X148723109Y-100164247D01*
X148877867Y-100142005D01*
X149011999Y-100123740D01*
X149149487Y-100113117D01*
X149174200Y-100112377D01*
X149318133Y-100109867D01*
X149317925Y-99898200D01*
X149312452Y-99812888D01*
X149148281Y-99812888D01*
X149147530Y-99869238D01*
X149138414Y-99910295D01*
X149111436Y-99939112D01*
X149057103Y-99958738D01*
X148965918Y-99972223D01*
X148828388Y-99982619D01*
X148635016Y-99992974D01*
X148578878Y-99995811D01*
X148499231Y-99970175D01*
X148464513Y-99921864D01*
X148443072Y-99818385D01*
X148466198Y-99725344D01*
X148526789Y-99665350D01*
X148547372Y-99658062D01*
X148619854Y-99644908D01*
X148734128Y-99629222D01*
X148855831Y-99615428D01*
X148996198Y-99605765D01*
X149082820Y-99617435D01*
X149128484Y-99659072D01*
X149145974Y-99739309D01*
X149148281Y-99812888D01*
X149312452Y-99812888D01*
X149308854Y-99756813D01*
X149285143Y-99636799D01*
X149266765Y-99588836D01*
X149238926Y-99510695D01*
X149241210Y-99455097D01*
X149242310Y-99453370D01*
X149260715Y-99392314D01*
X149262875Y-99330933D01*
X149258587Y-99253312D01*
X149253309Y-99135183D01*
X149248762Y-99017739D01*
X149233842Y-98860003D01*
X149201276Y-98764324D01*
X149148948Y-98726830D01*
X149094097Y-98735078D01*
X149094097Y-98735078D01*
G37*
X149094097Y-98735078D02*
X149056782Y-98769794D01*
X149053198Y-98843392D01*
X149056919Y-98869705D01*
X149075306Y-98983010D01*
X148849586Y-99004331D01*
X148700895Y-99015933D01*
X148551023Y-99023777D01*
X148460644Y-99025893D01*
X148362962Y-99028929D01*
X148316723Y-99043081D01*
X148305705Y-99076488D01*
X148308244Y-99102334D01*
X148315714Y-99135259D01*
X148334931Y-99156697D01*
X148377882Y-99168745D01*
X148456553Y-99173501D01*
X148582931Y-99173064D01*
X148700066Y-99170914D01*
X148866176Y-99168572D01*
X148975984Y-99170480D01*
X149040867Y-99178153D01*
X149072200Y-99193105D01*
X149081360Y-99216851D01*
X149081529Y-99221714D01*
X149090745Y-99303939D01*
X149100904Y-99350566D01*
X149105084Y-99381085D01*
X149091230Y-99403262D01*
X149048586Y-99420390D01*
X148966392Y-99435761D01*
X148833889Y-99452668D01*
X148728130Y-99464656D01*
X148336444Y-99508312D01*
X148302425Y-99634651D01*
X148287332Y-99756428D01*
X148295281Y-99896427D01*
X148322513Y-100027115D01*
X148365267Y-100120959D01*
X148369575Y-100126449D01*
X148436773Y-100160226D01*
X148558074Y-100172931D01*
X148723109Y-100164247D01*
X148877867Y-100142005D01*
X149011999Y-100123740D01*
X149149487Y-100113117D01*
X149174200Y-100112377D01*
X149318133Y-100109867D01*
X149317925Y-99898200D01*
X149312452Y-99812888D01*
X149148281Y-99812888D01*
X149147530Y-99869238D01*
X149138414Y-99910295D01*
X149111436Y-99939112D01*
X149057103Y-99958738D01*
X148965918Y-99972223D01*
X148828388Y-99982619D01*
X148635016Y-99992974D01*
X148578878Y-99995811D01*
X148499231Y-99970175D01*
X148464513Y-99921864D01*
X148443072Y-99818385D01*
X148466198Y-99725344D01*
X148526789Y-99665350D01*
X148547372Y-99658062D01*
X148619854Y-99644908D01*
X148734128Y-99629222D01*
X148855831Y-99615428D01*
X148996198Y-99605765D01*
X149082820Y-99617435D01*
X149128484Y-99659072D01*
X149145974Y-99739309D01*
X149148281Y-99812888D01*
X149312452Y-99812888D01*
X149308854Y-99756813D01*
X149285143Y-99636799D01*
X149266765Y-99588836D01*
X149238926Y-99510695D01*
X149241210Y-99455097D01*
X149242310Y-99453370D01*
X149260715Y-99392314D01*
X149262875Y-99330933D01*
X149258587Y-99253312D01*
X149253309Y-99135183D01*
X149248762Y-99017739D01*
X149233842Y-98860003D01*
X149201276Y-98764324D01*
X149148948Y-98726830D01*
X149094097Y-98735078D01*
G36*
X148471377Y-100241978D02*
X148375447Y-100270336D01*
X148334507Y-100297932D01*
X148315844Y-100354947D01*
X148304215Y-100458905D01*
X148299596Y-100589387D01*
X148301961Y-100725972D01*
X148311288Y-100848240D01*
X148327550Y-100935770D01*
X148335297Y-100955220D01*
X148375527Y-100999651D01*
X148445663Y-101015911D01*
X148514581Y-101015033D01*
X148610773Y-101010764D01*
X148751865Y-101005605D01*
X148915042Y-101000359D01*
X149009404Y-100997632D01*
X149361075Y-100987930D01*
X149344609Y-100782791D01*
X149174260Y-100782791D01*
X149143960Y-100812753D01*
X149073527Y-100820761D01*
X149028732Y-100821067D01*
X148874797Y-100821067D01*
X148897723Y-100694067D01*
X148932621Y-100554840D01*
X148960458Y-100506534D01*
X148750467Y-100506534D01*
X148724347Y-100644083D01*
X148704470Y-100711000D01*
X148670517Y-100787206D01*
X148617664Y-100816953D01*
X148553507Y-100821067D01*
X148437600Y-100821067D01*
X148437600Y-100633962D01*
X148440595Y-100524859D01*
X148455033Y-100463462D01*
X148489098Y-100429822D01*
X148528513Y-100412292D01*
X148621434Y-100389647D01*
X148689380Y-100387730D01*
X148738850Y-100421911D01*
X148750467Y-100506534D01*
X148960458Y-100506534D01*
X148978321Y-100475538D01*
X149039308Y-100448647D01*
X149044371Y-100448533D01*
X149091768Y-100470120D01*
X149128557Y-100542495D01*
X149144779Y-100598997D01*
X149172007Y-100716373D01*
X149174260Y-100782791D01*
X149344609Y-100782791D01*
X149343610Y-100770353D01*
X149323249Y-100631114D01*
X149288868Y-100498332D01*
X149259220Y-100424455D01*
X149213742Y-100347049D01*
X149166502Y-100309023D01*
X149091900Y-100296066D01*
X149026614Y-100294405D01*
X148911327Y-100284875D01*
X148813254Y-100262838D01*
X148784771Y-100250900D01*
X148702333Y-100229513D01*
X148589103Y-100227455D01*
X148471377Y-100241978D01*
X148471377Y-100241978D01*
G37*
X148471377Y-100241978D02*
X148375447Y-100270336D01*
X148334507Y-100297932D01*
X148315844Y-100354947D01*
X148304215Y-100458905D01*
X148299596Y-100589387D01*
X148301961Y-100725972D01*
X148311288Y-100848240D01*
X148327550Y-100935770D01*
X148335297Y-100955220D01*
X148375527Y-100999651D01*
X148445663Y-101015911D01*
X148514581Y-101015033D01*
X148610773Y-101010764D01*
X148751865Y-101005605D01*
X148915042Y-101000359D01*
X149009404Y-100997632D01*
X149361075Y-100987930D01*
X149344609Y-100782791D01*
X149174260Y-100782791D01*
X149143960Y-100812753D01*
X149073527Y-100820761D01*
X149028732Y-100821067D01*
X148874797Y-100821067D01*
X148897723Y-100694067D01*
X148932621Y-100554840D01*
X148960458Y-100506534D01*
X148750467Y-100506534D01*
X148724347Y-100644083D01*
X148704470Y-100711000D01*
X148670517Y-100787206D01*
X148617664Y-100816953D01*
X148553507Y-100821067D01*
X148437600Y-100821067D01*
X148437600Y-100633962D01*
X148440595Y-100524859D01*
X148455033Y-100463462D01*
X148489098Y-100429822D01*
X148528513Y-100412292D01*
X148621434Y-100389647D01*
X148689380Y-100387730D01*
X148738850Y-100421911D01*
X148750467Y-100506534D01*
X148960458Y-100506534D01*
X148978321Y-100475538D01*
X149039308Y-100448647D01*
X149044371Y-100448533D01*
X149091768Y-100470120D01*
X149128557Y-100542495D01*
X149144779Y-100598997D01*
X149172007Y-100716373D01*
X149174260Y-100782791D01*
X149344609Y-100782791D01*
X149343610Y-100770353D01*
X149323249Y-100631114D01*
X149288868Y-100498332D01*
X149259220Y-100424455D01*
X149213742Y-100347049D01*
X149166502Y-100309023D01*
X149091900Y-100296066D01*
X149026614Y-100294405D01*
X148911327Y-100284875D01*
X148813254Y-100262838D01*
X148784771Y-100250900D01*
X148702333Y-100229513D01*
X148589103Y-100227455D01*
X148471377Y-100241978D01*
G36*
X148335095Y-101259054D02*
X148322453Y-101286734D01*
X148325112Y-101341909D01*
X148328461Y-101440459D01*
X148330920Y-101528515D01*
X148352394Y-101697692D01*
X148409759Y-101810958D01*
X148507585Y-101871911D01*
X148650439Y-101884148D01*
X148763195Y-101868932D01*
X148879252Y-101850899D01*
X149021736Y-101834403D01*
X149100246Y-101827534D01*
X149231983Y-101808002D01*
X149304681Y-101774732D01*
X149315404Y-101730118D01*
X149274360Y-101685617D01*
X149204765Y-101664531D01*
X149078919Y-101664413D01*
X148990300Y-101672458D01*
X148849609Y-101686227D01*
X148716174Y-101696205D01*
X148632333Y-101699861D01*
X148505333Y-101701600D01*
X148504871Y-101540734D01*
X148498149Y-101384267D01*
X148477097Y-101286630D01*
X148438762Y-101239881D01*
X148390852Y-101234157D01*
X148335095Y-101259054D01*
X148335095Y-101259054D01*
G37*
X148335095Y-101259054D02*
X148322453Y-101286734D01*
X148325112Y-101341909D01*
X148328461Y-101440459D01*
X148330920Y-101528515D01*
X148352394Y-101697692D01*
X148409759Y-101810958D01*
X148507585Y-101871911D01*
X148650439Y-101884148D01*
X148763195Y-101868932D01*
X148879252Y-101850899D01*
X149021736Y-101834403D01*
X149100246Y-101827534D01*
X149231983Y-101808002D01*
X149304681Y-101774732D01*
X149315404Y-101730118D01*
X149274360Y-101685617D01*
X149204765Y-101664531D01*
X149078919Y-101664413D01*
X148990300Y-101672458D01*
X148849609Y-101686227D01*
X148716174Y-101696205D01*
X148632333Y-101699861D01*
X148505333Y-101701600D01*
X148504871Y-101540734D01*
X148498149Y-101384267D01*
X148477097Y-101286630D01*
X148438762Y-101239881D01*
X148390852Y-101234157D01*
X148335095Y-101259054D01*
G36*
X148606257Y-102007703D02*
X148460946Y-102012075D01*
X148367198Y-102020215D01*
X148316949Y-102032820D01*
X148302133Y-102050427D01*
X148332299Y-102123028D01*
X148417855Y-102165837D01*
X148512107Y-102175734D01*
X148640800Y-102175734D01*
X148640800Y-102345067D01*
X148635399Y-102452670D01*
X148608992Y-102507416D01*
X148546269Y-102523939D01*
X148458486Y-102519366D01*
X148373401Y-102533226D01*
X148328709Y-102582977D01*
X148337903Y-102653423D01*
X148352624Y-102679275D01*
X148371520Y-102696945D01*
X148404935Y-102706745D01*
X148463214Y-102708987D01*
X148556699Y-102703983D01*
X148695735Y-102692046D01*
X148890666Y-102673488D01*
X148917466Y-102670912D01*
X149074662Y-102654055D01*
X149206497Y-102636625D01*
X149298683Y-102620735D01*
X149336516Y-102608994D01*
X149346345Y-102561113D01*
X149338460Y-102527966D01*
X149318017Y-102498998D01*
X149275005Y-102484416D01*
X149194480Y-102482159D01*
X149063343Y-102490027D01*
X148810133Y-102509177D01*
X148810133Y-102183137D01*
X149061854Y-102170425D01*
X149209179Y-102160284D01*
X149299091Y-102145223D01*
X149341908Y-102121103D01*
X149347946Y-102083783D01*
X149340313Y-102058661D01*
X149322804Y-102038116D01*
X149282043Y-102023615D01*
X149208177Y-102014184D01*
X149091351Y-102008849D01*
X148921711Y-102006639D01*
X148811196Y-102006400D01*
X148606257Y-102007703D01*
X148606257Y-102007703D01*
G37*
X148606257Y-102007703D02*
X148460946Y-102012075D01*
X148367198Y-102020215D01*
X148316949Y-102032820D01*
X148302133Y-102050427D01*
X148332299Y-102123028D01*
X148417855Y-102165837D01*
X148512107Y-102175734D01*
X148640800Y-102175734D01*
X148640800Y-102345067D01*
X148635399Y-102452670D01*
X148608992Y-102507416D01*
X148546269Y-102523939D01*
X148458486Y-102519366D01*
X148373401Y-102533226D01*
X148328709Y-102582977D01*
X148337903Y-102653423D01*
X148352624Y-102679275D01*
X148371520Y-102696945D01*
X148404935Y-102706745D01*
X148463214Y-102708987D01*
X148556699Y-102703983D01*
X148695735Y-102692046D01*
X148890666Y-102673488D01*
X148917466Y-102670912D01*
X149074662Y-102654055D01*
X149206497Y-102636625D01*
X149298683Y-102620735D01*
X149336516Y-102608994D01*
X149346345Y-102561113D01*
X149338460Y-102527966D01*
X149318017Y-102498998D01*
X149275005Y-102484416D01*
X149194480Y-102482159D01*
X149063343Y-102490027D01*
X148810133Y-102509177D01*
X148810133Y-102183137D01*
X149061854Y-102170425D01*
X149209179Y-102160284D01*
X149299091Y-102145223D01*
X149341908Y-102121103D01*
X149347946Y-102083783D01*
X149340313Y-102058661D01*
X149322804Y-102038116D01*
X149282043Y-102023615D01*
X149208177Y-102014184D01*
X149091351Y-102008849D01*
X148921711Y-102006639D01*
X148811196Y-102006400D01*
X148606257Y-102007703D01*
G36*
X148892411Y-102714264D02*
X148736644Y-102723614D01*
X148585509Y-102736565D01*
X148455463Y-102751957D01*
X148362963Y-102768629D01*
X148326423Y-102782672D01*
X148306603Y-102834570D01*
X148339410Y-102883870D01*
X148410826Y-102915873D01*
X148458157Y-102920800D01*
X148539232Y-102929527D01*
X148570677Y-102961756D01*
X148573066Y-102983807D01*
X148577566Y-103055620D01*
X148588844Y-103160025D01*
X148593917Y-103198933D01*
X148614767Y-103351053D01*
X148458450Y-103390414D01*
X148348985Y-103431125D01*
X148303678Y-103480777D01*
X148324024Y-103537197D01*
X148344466Y-103556183D01*
X148407721Y-103570779D01*
X148525003Y-103553692D01*
X148569647Y-103542799D01*
X148672722Y-103519679D01*
X148746579Y-103509883D01*
X148770025Y-103512869D01*
X148761621Y-103529117D01*
X148748142Y-103530400D01*
X148686101Y-103556706D01*
X148602173Y-103625760D01*
X148510201Y-103722767D01*
X148424029Y-103832934D01*
X148357501Y-103941465D01*
X148350895Y-103954939D01*
X148296696Y-104086250D01*
X148286222Y-104170892D01*
X148324098Y-104217504D01*
X148414948Y-104234724D01*
X148500490Y-104234408D01*
X148617746Y-104230276D01*
X148777566Y-104225017D01*
X148954807Y-104219446D01*
X149059042Y-104216294D01*
X149220193Y-104210945D01*
X149324909Y-104204530D01*
X149384466Y-104194281D01*
X149410138Y-104177429D01*
X149413204Y-104151205D01*
X149409007Y-104130353D01*
X149392848Y-104056485D01*
X149388452Y-104035425D01*
X149223513Y-104035425D01*
X148957557Y-104047031D01*
X148816681Y-104053526D01*
X148691051Y-104059927D01*
X148605305Y-104064969D01*
X148598466Y-104065451D01*
X148531005Y-104063110D01*
X148505333Y-104048962D01*
X148526844Y-103996442D01*
X148580532Y-103917624D01*
X148650132Y-103833553D01*
X148719377Y-103765272D01*
X148733042Y-103754387D01*
X148822402Y-103709294D01*
X148936613Y-103677989D01*
X148963206Y-103674160D01*
X149060930Y-103671749D01*
X149124352Y-103699387D01*
X149165593Y-103769166D01*
X149196770Y-103893179D01*
X149200084Y-103910536D01*
X149223513Y-104035425D01*
X149388452Y-104035425D01*
X149369495Y-103944614D01*
X149351398Y-103855627D01*
X149303771Y-103688310D01*
X149234496Y-103578457D01*
X149133945Y-103516874D01*
X148992490Y-103494368D01*
X148972539Y-103493860D01*
X148883447Y-103489472D01*
X148839451Y-103480906D01*
X148844000Y-103472931D01*
X148946001Y-103429735D01*
X149071520Y-103367624D01*
X149199305Y-103298159D01*
X149308102Y-103232904D01*
X149376658Y-103183420D01*
X149377400Y-103182738D01*
X149440307Y-103084519D01*
X149453600Y-102987879D01*
X149444772Y-102944254D01*
X149306082Y-102944254D01*
X149291531Y-102999670D01*
X149278766Y-103022292D01*
X149227292Y-103072344D01*
X149134041Y-103135634D01*
X149020236Y-103200518D01*
X148907100Y-103255355D01*
X148815853Y-103288503D01*
X148784733Y-103293307D01*
X148757938Y-103264625D01*
X148744460Y-103175790D01*
X148742400Y-103094509D01*
X148742400Y-102895685D01*
X148984206Y-102871858D01*
X149121629Y-102861825D01*
X149208450Y-102865762D01*
X149260618Y-102885053D01*
X149275039Y-102897059D01*
X149306082Y-102944254D01*
X149444772Y-102944254D01*
X149428464Y-102863678D01*
X149349763Y-102775148D01*
X149222925Y-102719433D01*
X149152009Y-102711013D01*
X149036351Y-102709677D01*
X148892411Y-102714264D01*
X148892411Y-102714264D01*
G37*
X148892411Y-102714264D02*
X148736644Y-102723614D01*
X148585509Y-102736565D01*
X148455463Y-102751957D01*
X148362963Y-102768629D01*
X148326423Y-102782672D01*
X148306603Y-102834570D01*
X148339410Y-102883870D01*
X148410826Y-102915873D01*
X148458157Y-102920800D01*
X148539232Y-102929527D01*
X148570677Y-102961756D01*
X148573066Y-102983807D01*
X148577566Y-103055620D01*
X148588844Y-103160025D01*
X148593917Y-103198933D01*
X148614767Y-103351053D01*
X148458450Y-103390414D01*
X148348985Y-103431125D01*
X148303678Y-103480777D01*
X148324024Y-103537197D01*
X148344466Y-103556183D01*
X148407721Y-103570779D01*
X148525003Y-103553692D01*
X148569647Y-103542799D01*
X148672722Y-103519679D01*
X148746579Y-103509883D01*
X148770025Y-103512869D01*
X148761621Y-103529117D01*
X148748142Y-103530400D01*
X148686101Y-103556706D01*
X148602173Y-103625760D01*
X148510201Y-103722767D01*
X148424029Y-103832934D01*
X148357501Y-103941465D01*
X148350895Y-103954939D01*
X148296696Y-104086250D01*
X148286222Y-104170892D01*
X148324098Y-104217504D01*
X148414948Y-104234724D01*
X148500490Y-104234408D01*
X148617746Y-104230276D01*
X148777566Y-104225017D01*
X148954807Y-104219446D01*
X149059042Y-104216294D01*
X149220193Y-104210945D01*
X149324909Y-104204530D01*
X149384466Y-104194281D01*
X149410138Y-104177429D01*
X149413204Y-104151205D01*
X149409007Y-104130353D01*
X149392848Y-104056485D01*
X149388452Y-104035425D01*
X149223513Y-104035425D01*
X148957557Y-104047031D01*
X148816681Y-104053526D01*
X148691051Y-104059927D01*
X148605305Y-104064969D01*
X148598466Y-104065451D01*
X148531005Y-104063110D01*
X148505333Y-104048962D01*
X148526844Y-103996442D01*
X148580532Y-103917624D01*
X148650132Y-103833553D01*
X148719377Y-103765272D01*
X148733042Y-103754387D01*
X148822402Y-103709294D01*
X148936613Y-103677989D01*
X148963206Y-103674160D01*
X149060930Y-103671749D01*
X149124352Y-103699387D01*
X149165593Y-103769166D01*
X149196770Y-103893179D01*
X149200084Y-103910536D01*
X149223513Y-104035425D01*
X149388452Y-104035425D01*
X149369495Y-103944614D01*
X149351398Y-103855627D01*
X149303771Y-103688310D01*
X149234496Y-103578457D01*
X149133945Y-103516874D01*
X148992490Y-103494368D01*
X148972539Y-103493860D01*
X148883447Y-103489472D01*
X148839451Y-103480906D01*
X148844000Y-103472931D01*
X148946001Y-103429735D01*
X149071520Y-103367624D01*
X149199305Y-103298159D01*
X149308102Y-103232904D01*
X149376658Y-103183420D01*
X149377400Y-103182738D01*
X149440307Y-103084519D01*
X149453600Y-102987879D01*
X149444772Y-102944254D01*
X149306082Y-102944254D01*
X149291531Y-102999670D01*
X149278766Y-103022292D01*
X149227292Y-103072344D01*
X149134041Y-103135634D01*
X149020236Y-103200518D01*
X148907100Y-103255355D01*
X148815853Y-103288503D01*
X148784733Y-103293307D01*
X148757938Y-103264625D01*
X148744460Y-103175790D01*
X148742400Y-103094509D01*
X148742400Y-102895685D01*
X148984206Y-102871858D01*
X149121629Y-102861825D01*
X149208450Y-102865762D01*
X149260618Y-102885053D01*
X149275039Y-102897059D01*
X149306082Y-102944254D01*
X149444772Y-102944254D01*
X149428464Y-102863678D01*
X149349763Y-102775148D01*
X149222925Y-102719433D01*
X149152009Y-102711013D01*
X149036351Y-102709677D01*
X148892411Y-102714264D01*
G36*
X142287755Y-92975255D02*
X142104956Y-92991985D01*
X141890259Y-93024285D01*
X141686449Y-93061223D01*
X141516965Y-93096685D01*
X141399750Y-93130664D01*
X141319688Y-93168568D01*
X141265615Y-93211791D01*
X141178200Y-93299206D01*
X141124285Y-93251867D01*
X140885333Y-93251867D01*
X140868400Y-93268800D01*
X140851466Y-93251867D01*
X140716000Y-93251867D01*
X140699066Y-93268800D01*
X140682133Y-93251867D01*
X140699066Y-93234934D01*
X140716000Y-93251867D01*
X140851466Y-93251867D01*
X140868400Y-93234934D01*
X140885333Y-93251867D01*
X141124285Y-93251867D01*
X141064455Y-93199336D01*
X140937588Y-93118439D01*
X140837922Y-93099467D01*
X140715387Y-93124237D01*
X140615421Y-93189026D01*
X140555813Y-93279546D01*
X140546666Y-93333347D01*
X140557111Y-93423780D01*
X140592333Y-93454974D01*
X140650784Y-93436786D01*
X140728141Y-93426707D01*
X140830762Y-93451387D01*
X140914153Y-93493567D01*
X140903173Y-93522341D01*
X140861468Y-93585290D01*
X140839730Y-93614576D01*
X140671560Y-93889324D01*
X140564682Y-94188325D01*
X140521117Y-94503045D01*
X140542887Y-94824951D01*
X140547199Y-94849085D01*
X140587488Y-95029842D01*
X140641879Y-95223854D01*
X140706156Y-95420714D01*
X140776097Y-95610013D01*
X140847487Y-95781342D01*
X140916104Y-95924292D01*
X140977732Y-96028455D01*
X141028151Y-96083422D01*
X141049686Y-96088888D01*
X141086132Y-96110094D01*
X141106134Y-96149570D01*
X141144932Y-96200235D01*
X141187260Y-96199179D01*
X141240071Y-96206266D01*
X141293268Y-96268733D01*
X141310764Y-96299363D01*
X141367127Y-96377570D01*
X141424355Y-96416934D01*
X141434901Y-96418400D01*
X141479506Y-96438221D01*
X141494699Y-96506850D01*
X141494933Y-96522250D01*
X141501896Y-96594149D01*
X141535460Y-96617758D01*
X141588066Y-96615383D01*
X141658213Y-96593259D01*
X141678817Y-96539831D01*
X141678729Y-96530502D01*
X141676259Y-96456337D01*
X141774461Y-96538968D01*
X141848609Y-96593812D01*
X141905516Y-96623087D01*
X141912398Y-96624387D01*
X141969917Y-96628657D01*
X142062671Y-96635744D01*
X142087600Y-96637671D01*
X142168423Y-96642668D01*
X142301469Y-96649490D01*
X142471278Y-96657401D01*
X142662389Y-96665666D01*
X142763144Y-96669784D01*
X142946859Y-96677816D01*
X143105277Y-96686034D01*
X143226720Y-96693727D01*
X143299508Y-96700187D01*
X143315126Y-96703304D01*
X143316565Y-96740980D01*
X143304316Y-96805706D01*
X143281602Y-96896205D01*
X142357616Y-96890383D01*
X142113172Y-96889615D01*
X141890445Y-96890388D01*
X141698560Y-96892553D01*
X141546637Y-96895960D01*
X141443801Y-96900458D01*
X141399173Y-96905898D01*
X141398693Y-96906154D01*
X141351347Y-96959885D01*
X141306009Y-97046650D01*
X141275839Y-97136323D01*
X141272596Y-97194843D01*
X141282390Y-97252317D01*
X141296229Y-97366115D01*
X141313116Y-97525017D01*
X141332056Y-97717800D01*
X141352051Y-97933245D01*
X141372104Y-98160129D01*
X141391218Y-98387231D01*
X141408397Y-98603331D01*
X141422643Y-98797208D01*
X141432959Y-98957639D01*
X141437650Y-99052685D01*
X141440398Y-99199420D01*
X141437337Y-99319484D01*
X141429167Y-99397749D01*
X141420690Y-99419623D01*
X141403329Y-99462122D01*
X141396356Y-99545918D01*
X141397046Y-99579338D01*
X141393580Y-99697199D01*
X141377407Y-99837968D01*
X141365225Y-99906667D01*
X141343950Y-100021451D01*
X141316430Y-100186458D01*
X141285210Y-100384751D01*
X141252833Y-100599392D01*
X141221846Y-100813445D01*
X141194792Y-101009972D01*
X141174217Y-101172035D01*
X141171174Y-101198202D01*
X141155769Y-101308216D01*
X141131001Y-101374394D01*
X141081256Y-101420344D01*
X140991981Y-101469135D01*
X140890659Y-101529367D01*
X140828921Y-101597237D01*
X140782845Y-101700439D01*
X140776539Y-101718534D01*
X140738247Y-101883883D01*
X140724891Y-102090933D01*
X140725739Y-102175159D01*
X140732933Y-102462452D01*
X140977643Y-102467488D01*
X141133528Y-102465187D01*
X141230100Y-102446076D01*
X141275019Y-102403463D01*
X141275945Y-102330651D01*
X141245391Y-102233493D01*
X141206289Y-102125301D01*
X141194740Y-102066587D01*
X141212116Y-102044357D01*
X141259792Y-102045620D01*
X141265169Y-102046378D01*
X141339099Y-102085312D01*
X141411621Y-102165937D01*
X141466274Y-102263903D01*
X141486596Y-102354864D01*
X141484863Y-102371320D01*
X141489026Y-102442858D01*
X141539061Y-102478883D01*
X141639814Y-102480762D01*
X141778447Y-102454249D01*
X141920781Y-102411900D01*
X142018966Y-102366756D01*
X142065611Y-102323429D01*
X142053322Y-102286529D01*
X142050480Y-102284575D01*
X142028436Y-102251934D01*
X141799471Y-102251934D01*
X141783209Y-102303936D01*
X141743772Y-102305645D01*
X141696228Y-102262670D01*
X141662974Y-102201134D01*
X141573655Y-102040134D01*
X141458090Y-101934762D01*
X141323107Y-101888748D01*
X141175535Y-101905824D01*
X141144047Y-101917581D01*
X141041997Y-101987518D01*
X140995403Y-102081874D01*
X141009929Y-102187777D01*
X141017920Y-102204219D01*
X141050173Y-102275321D01*
X141042687Y-102305806D01*
X141007816Y-102311200D01*
X140962507Y-102281125D01*
X140933818Y-102201580D01*
X140921084Y-102088585D01*
X140923637Y-101958160D01*
X140940812Y-101826325D01*
X140971941Y-101709100D01*
X141016359Y-101622504D01*
X141037397Y-101600279D01*
X141133996Y-101560500D01*
X141257275Y-101565638D01*
X141386010Y-101612724D01*
X141455733Y-101658821D01*
X141530176Y-101736821D01*
X141612454Y-101850632D01*
X141691300Y-101980812D01*
X141755445Y-102107918D01*
X141793621Y-102212506D01*
X141799471Y-102251934D01*
X142028436Y-102251934D01*
X142021205Y-102241228D01*
X141983130Y-102153450D01*
X141952138Y-102063845D01*
X141896477Y-101923882D01*
X141818344Y-101772706D01*
X141762222Y-101683574D01*
X141633528Y-101499858D01*
X141646354Y-101420049D01*
X141452713Y-101420049D01*
X141404909Y-101424962D01*
X141401800Y-101424394D01*
X141351385Y-101382404D01*
X141332958Y-101311844D01*
X141323382Y-101210534D01*
X141391471Y-101295200D01*
X141448302Y-101377655D01*
X141452713Y-101420049D01*
X141646354Y-101420049D01*
X141667663Y-101287462D01*
X141694320Y-101126104D01*
X141714321Y-101020360D01*
X141729069Y-100965132D01*
X141584444Y-100965132D01*
X141576122Y-101052585D01*
X141560338Y-101142572D01*
X141544507Y-101175115D01*
X141521026Y-101160078D01*
X141507157Y-101142087D01*
X141471705Y-101059818D01*
X141461066Y-100985926D01*
X141449930Y-100910156D01*
X141427200Y-100871867D01*
X141403081Y-100825299D01*
X141393776Y-100747041D01*
X141400968Y-100671853D01*
X141415982Y-100640373D01*
X141443919Y-100653421D01*
X141489946Y-100711872D01*
X141518814Y-100758887D01*
X141570079Y-100867435D01*
X141584444Y-100965132D01*
X141729069Y-100965132D01*
X141730756Y-100958818D01*
X141746713Y-100930062D01*
X141765280Y-100922680D01*
X141766371Y-100922667D01*
X141803972Y-100944300D01*
X141878365Y-101002521D01*
X141977192Y-101087312D01*
X142045126Y-101148656D01*
X142180567Y-101268676D01*
X142326668Y-101390906D01*
X142457968Y-101494235D01*
X142494000Y-101520798D01*
X142601217Y-101599151D01*
X142691478Y-101667322D01*
X142746201Y-101711259D01*
X142748000Y-101712864D01*
X142804349Y-101735955D01*
X142918793Y-101760488D01*
X143081769Y-101784728D01*
X143248049Y-101803485D01*
X143431164Y-101822718D01*
X143556421Y-101839062D01*
X143633500Y-101854756D01*
X143672082Y-101872036D01*
X143681848Y-101893142D01*
X143679807Y-101903308D01*
X143666982Y-101963836D01*
X143649783Y-102070169D01*
X143631134Y-102200772D01*
X143613957Y-102334109D01*
X143601176Y-102448647D01*
X143595712Y-102522851D01*
X143595712Y-102522867D01*
X143590528Y-102543389D01*
X143569942Y-102558566D01*
X143525163Y-102569194D01*
X143447398Y-102576070D01*
X143327855Y-102579987D01*
X143157743Y-102581743D01*
X142940795Y-102582134D01*
X142286924Y-102582134D01*
X142178795Y-102671712D01*
X142110974Y-102736205D01*
X142073293Y-102788163D01*
X142070567Y-102798712D01*
X142040751Y-102824313D01*
X141967791Y-102838049D01*
X141954677Y-102838564D01*
X141813894Y-102872986D01*
X141687249Y-102960853D01*
X141582017Y-103088225D01*
X141505472Y-103241163D01*
X141464887Y-103405727D01*
X141467536Y-103567977D01*
X141508843Y-103692949D01*
X141623926Y-103853139D01*
X141771697Y-103954285D01*
X141947900Y-103997123D01*
X142131432Y-104012343D01*
X142101049Y-104118281D01*
X142075577Y-104311151D01*
X142104536Y-104499549D01*
X142183336Y-104665304D01*
X142261796Y-104754701D01*
X142368670Y-104820009D01*
X142504472Y-104862492D01*
X142648687Y-104880249D01*
X142780798Y-104871375D01*
X142880292Y-104833968D01*
X142903232Y-104814204D01*
X142922280Y-104794816D01*
X142945295Y-104779524D01*
X142979539Y-104768050D01*
X143032269Y-104760114D01*
X143110747Y-104755436D01*
X143222231Y-104753738D01*
X143373982Y-104754741D01*
X143573259Y-104758164D01*
X143827323Y-104763730D01*
X144068414Y-104769383D01*
X144345578Y-104775586D01*
X144610221Y-104780848D01*
X144852284Y-104785019D01*
X145061709Y-104787949D01*
X145228437Y-104789488D01*
X145342408Y-104789485D01*
X145375774Y-104788881D01*
X145582082Y-104782338D01*
X145635517Y-104918369D01*
X145688951Y-105054400D01*
X145944806Y-105054400D01*
X146075597Y-105053074D01*
X146155865Y-105045400D01*
X146202813Y-105025834D01*
X146233646Y-104988832D01*
X146251819Y-104955470D01*
X146315658Y-104867322D01*
X146333467Y-104850587D01*
X146111002Y-104850587D01*
X146094773Y-104875395D01*
X146030961Y-104905691D01*
X145938463Y-104902041D01*
X145844784Y-104868323D01*
X145797663Y-104833511D01*
X145769602Y-104797231D01*
X145795373Y-104784599D01*
X145835309Y-104783467D01*
X145934739Y-104790415D01*
X146029376Y-104804742D01*
X146098579Y-104824383D01*
X146111002Y-104850587D01*
X146333467Y-104850587D01*
X146402052Y-104786140D01*
X146409504Y-104780687D01*
X146500721Y-104715734D01*
X142824834Y-104715734D01*
X142717596Y-104715734D01*
X142609743Y-104701966D01*
X142497893Y-104668730D01*
X142495161Y-104667601D01*
X142380880Y-104585815D01*
X142303489Y-104460977D01*
X142266457Y-104308950D01*
X142273249Y-104145595D01*
X142327333Y-103986772D01*
X142340984Y-103962200D01*
X142403590Y-103872297D01*
X142459341Y-103841233D01*
X142524500Y-103864184D01*
X142566702Y-103895220D01*
X142662564Y-104008056D01*
X142740265Y-104169425D01*
X142792309Y-104360973D01*
X142808425Y-104487134D01*
X142824834Y-104715734D01*
X146500721Y-104715734D01*
X146516029Y-104704834D01*
X146498894Y-104499353D01*
X146333796Y-104499353D01*
X146325449Y-104527136D01*
X146296488Y-104547261D01*
X146240120Y-104560746D01*
X146149551Y-104568611D01*
X146017990Y-104571874D01*
X145838642Y-104571554D01*
X145604713Y-104568671D01*
X145330333Y-104564553D01*
X145035522Y-104559637D01*
X144726740Y-104553558D01*
X144420695Y-104546712D01*
X144134096Y-104539493D01*
X143883650Y-104532294D01*
X143704733Y-104526224D01*
X143508609Y-104517532D01*
X143338138Y-104507506D01*
X143203926Y-104496975D01*
X143116581Y-104486766D01*
X143086667Y-104477999D01*
X143090784Y-104453871D01*
X143106823Y-104433572D01*
X143140308Y-104416691D01*
X143196767Y-104402815D01*
X143281727Y-104391532D01*
X143400714Y-104382432D01*
X143559255Y-104375101D01*
X143762877Y-104369128D01*
X144017106Y-104364101D01*
X144327470Y-104359608D01*
X144699495Y-104355237D01*
X144739709Y-104354797D01*
X146294706Y-104337870D01*
X146315824Y-104416735D01*
X146328324Y-104462892D01*
X146333796Y-104499353D01*
X146498894Y-104499353D01*
X146493262Y-104431830D01*
X146469419Y-104245892D01*
X146436412Y-104125409D01*
X146230014Y-104125409D01*
X144888204Y-104134263D01*
X144593469Y-104136580D01*
X144320360Y-104139446D01*
X144076190Y-104142728D01*
X143868272Y-104146298D01*
X143703922Y-104150024D01*
X143590452Y-104153776D01*
X143535176Y-104157423D01*
X143531020Y-104158491D01*
X143491700Y-104166480D01*
X143404468Y-104172039D01*
X143301844Y-104173867D01*
X143088043Y-104173867D01*
X143018216Y-104036995D01*
X142959379Y-103935957D01*
X142898021Y-103851336D01*
X142882061Y-103833795D01*
X142832912Y-103772871D01*
X142815733Y-103731814D01*
X142798221Y-103689747D01*
X142760411Y-103622129D01*
X142497156Y-103622129D01*
X142492554Y-103634340D01*
X142459860Y-103664370D01*
X142443862Y-103630167D01*
X142443200Y-103613068D01*
X142459862Y-103578187D01*
X142477619Y-103581542D01*
X142497156Y-103622129D01*
X142760411Y-103622129D01*
X142751101Y-103605481D01*
X142698940Y-103520013D01*
X142273740Y-103520013D01*
X142270134Y-103641749D01*
X142255319Y-103715946D01*
X142223579Y-103762575D01*
X142198598Y-103782480D01*
X142073849Y-103831183D01*
X141932666Y-103814297D01*
X141885162Y-103795518D01*
X141782083Y-103719186D01*
X141711086Y-103608416D01*
X141672025Y-103477661D01*
X141664751Y-103341373D01*
X141689119Y-103214003D01*
X141744981Y-103110004D01*
X141832191Y-103043827D01*
X141892949Y-103028838D01*
X142035666Y-103043842D01*
X142148236Y-103116464D01*
X142226997Y-103241979D01*
X142268289Y-103415666D01*
X142273740Y-103520013D01*
X142698940Y-103520013D01*
X142682495Y-103493068D01*
X142633353Y-103416349D01*
X142519181Y-103236119D01*
X142426244Y-103079276D01*
X142358944Y-102953990D01*
X142321684Y-102868431D01*
X142318100Y-102831411D01*
X142355204Y-102825237D01*
X142448844Y-102817425D01*
X142587863Y-102808686D01*
X142761102Y-102799733D01*
X142930084Y-102792360D01*
X143526976Y-102768400D01*
X143526955Y-103013153D01*
X143529177Y-103143077D01*
X143539123Y-103223329D01*
X143561666Y-103271911D01*
X143601681Y-103306823D01*
X143607524Y-103310710D01*
X143684329Y-103338924D01*
X143799636Y-103357529D01*
X143930670Y-103365689D01*
X144054658Y-103362565D01*
X144148828Y-103347319D01*
X144181740Y-103331842D01*
X144205788Y-103279733D01*
X144215584Y-103225600D01*
X143911273Y-103225600D01*
X143836574Y-103225600D01*
X143769151Y-103205636D01*
X143742809Y-103175917D01*
X143729805Y-103106070D01*
X143756455Y-103086857D01*
X143813248Y-103122321D01*
X143829841Y-103138920D01*
X143911273Y-103225600D01*
X144215584Y-103225600D01*
X144224118Y-103178443D01*
X144232529Y-103067818D01*
X144234164Y-103039334D01*
X144068800Y-103039334D01*
X144061539Y-103125275D01*
X144035091Y-103151803D01*
X143982454Y-103120170D01*
X143926874Y-103064734D01*
X143824882Y-102933404D01*
X143764073Y-102791790D01*
X143750911Y-102742222D01*
X143740869Y-102692133D01*
X143749383Y-102678862D01*
X143786100Y-102705871D01*
X143860666Y-102776622D01*
X143868843Y-102784555D01*
X143949720Y-102858399D01*
X144013076Y-102907877D01*
X144039017Y-102920800D01*
X144058706Y-102950584D01*
X144068544Y-103023817D01*
X144068800Y-103039334D01*
X144234164Y-103039334D01*
X144239307Y-102949797D01*
X144248933Y-102860921D01*
X144259253Y-102820599D01*
X144303979Y-102810099D01*
X144403628Y-102804686D01*
X144545595Y-102804174D01*
X144717276Y-102808376D01*
X144906065Y-102817107D01*
X145099359Y-102830182D01*
X145140964Y-102833599D01*
X145484995Y-102862842D01*
X145630259Y-103086554D01*
X145752266Y-103279741D01*
X145881328Y-103493011D01*
X146004639Y-103704599D01*
X146109392Y-103892739D01*
X146151128Y-103971838D01*
X146230014Y-104125409D01*
X146436412Y-104125409D01*
X146426991Y-104091022D01*
X146359545Y-103937747D01*
X146235393Y-103700769D01*
X146099136Y-103458264D01*
X145961929Y-103229127D01*
X145834927Y-103032254D01*
X145771935Y-102942475D01*
X145700394Y-102838594D01*
X145648523Y-102751557D01*
X145626790Y-102699055D01*
X145626666Y-102696941D01*
X145611857Y-102653338D01*
X145601266Y-102648423D01*
X145558396Y-102645582D01*
X145464196Y-102639143D01*
X145334907Y-102630218D01*
X145254133Y-102624612D01*
X145066551Y-102614124D01*
X144849802Y-102605848D01*
X144642450Y-102601166D01*
X144585266Y-102600656D01*
X144238133Y-102599067D01*
X144238176Y-102573667D01*
X144068077Y-102573667D01*
X144062591Y-102673085D01*
X144047714Y-102737589D01*
X144034513Y-102751467D01*
X143999714Y-102725003D01*
X143943208Y-102656060D01*
X143885489Y-102572105D01*
X143814159Y-102445120D01*
X143786121Y-102350557D01*
X143788150Y-102301736D01*
X143805547Y-102210728D01*
X143936450Y-102303298D01*
X144013693Y-102363165D01*
X144052590Y-102418263D01*
X144066348Y-102495717D01*
X144068077Y-102573667D01*
X144238176Y-102573667D01*
X144238596Y-102328134D01*
X144240448Y-102152636D01*
X144249037Y-102033841D01*
X144269968Y-101960727D01*
X144292271Y-101938667D01*
X144138990Y-101938667D01*
X144126618Y-102003227D01*
X144113538Y-102101826D01*
X144110180Y-102133400D01*
X144093012Y-102221771D01*
X144066849Y-102272452D01*
X144056023Y-102277334D01*
X144016010Y-102251071D01*
X143958200Y-102184103D01*
X143923967Y-102135088D01*
X143869762Y-102039420D01*
X143836598Y-101957619D01*
X143831733Y-101930032D01*
X143841262Y-101892270D01*
X143880994Y-101876098D01*
X143967651Y-101876062D01*
X143992600Y-101877545D01*
X144092114Y-101889085D01*
X144136080Y-101910206D01*
X144138990Y-101938667D01*
X144292271Y-101938667D01*
X144308849Y-101922271D01*
X144371286Y-101907452D01*
X144453750Y-101905218D01*
X144547594Y-101908531D01*
X144692664Y-101917397D01*
X144872783Y-101930661D01*
X145071778Y-101947171D01*
X145186400Y-101957493D01*
X145398278Y-101976901D01*
X145609367Y-101995789D01*
X145800508Y-102012473D01*
X145952541Y-102025269D01*
X146005838Y-102029522D01*
X146266476Y-102049695D01*
X146288067Y-101951847D01*
X146307661Y-101867649D01*
X146321434Y-101814963D01*
X146326114Y-101770550D01*
X146332345Y-101669252D01*
X146339602Y-101521888D01*
X146347363Y-101339274D01*
X146355104Y-101132227D01*
X146356672Y-101086829D01*
X146364605Y-100876754D01*
X146373160Y-100689528D01*
X146381728Y-100535791D01*
X146389703Y-100426179D01*
X146396478Y-100371331D01*
X146397728Y-100367700D01*
X146414170Y-100383672D01*
X146442980Y-100452065D01*
X146478999Y-100559874D01*
X146494276Y-100611139D01*
X146532350Y-100748674D01*
X146551320Y-100841041D01*
X146552587Y-100907625D01*
X146537549Y-100967813D01*
X146522739Y-101005446D01*
X146457312Y-101249227D01*
X146454255Y-101515504D01*
X146507852Y-101781067D01*
X146551560Y-101916568D01*
X146587796Y-101997128D01*
X146622752Y-102034147D01*
X146648663Y-102040267D01*
X146710909Y-102018434D01*
X146730561Y-101993267D01*
X146773814Y-101953920D01*
X146851996Y-101925588D01*
X146922285Y-101903893D01*
X146940156Y-101867080D01*
X146931629Y-101828654D01*
X146885029Y-101664723D01*
X146858167Y-101538066D01*
X146852918Y-101458851D01*
X146859813Y-101439298D01*
X146896787Y-101443568D01*
X146953991Y-101490026D01*
X147017796Y-101562198D01*
X147074569Y-101643609D01*
X147110682Y-101717785D01*
X147116800Y-101749904D01*
X147123975Y-101816082D01*
X147154799Y-101848088D01*
X147223223Y-101851040D01*
X147338057Y-101831125D01*
X147461217Y-101801610D01*
X147533632Y-101766118D01*
X147561210Y-101711012D01*
X147555858Y-101669340D01*
X147382274Y-101669340D01*
X147354906Y-101705691D01*
X147339200Y-101712978D01*
X147295604Y-101701247D01*
X147269607Y-101635719D01*
X147227196Y-101544068D01*
X147148473Y-101443142D01*
X147053413Y-101353655D01*
X146961993Y-101296320D01*
X146933823Y-101287540D01*
X146811152Y-101292186D01*
X146718278Y-101348832D01*
X146665495Y-101444610D01*
X146663098Y-101566655D01*
X146675206Y-101610750D01*
X146702612Y-101703518D01*
X146707017Y-101752320D01*
X146689009Y-101749403D01*
X146667037Y-101718534D01*
X146646211Y-101649550D01*
X146632149Y-101532497D01*
X146627148Y-101386889D01*
X146627173Y-101379867D01*
X146638014Y-101182129D01*
X146668571Y-101047318D01*
X146719563Y-100973347D01*
X146772694Y-100956533D01*
X146856823Y-100979889D01*
X146963519Y-101039753D01*
X147071724Y-101120816D01*
X147160380Y-101207774D01*
X147201730Y-101268393D01*
X147256076Y-101377598D01*
X147315903Y-101491470D01*
X147319679Y-101498400D01*
X147370917Y-101604471D01*
X147382274Y-101669340D01*
X147555858Y-101669340D01*
X147549861Y-101622653D01*
X147505493Y-101487402D01*
X147497055Y-101464146D01*
X147420108Y-101284849D01*
X147329069Y-101143667D01*
X147243837Y-101048168D01*
X147180481Y-100982182D01*
X147133006Y-100923284D01*
X147095534Y-100857992D01*
X147062189Y-100772823D01*
X147060205Y-100766120D01*
X146879733Y-100766120D01*
X146854381Y-100813626D01*
X146828933Y-100821067D01*
X146783746Y-100814105D01*
X146778133Y-100808280D01*
X146800576Y-100779060D01*
X146828933Y-100753333D01*
X146868993Y-100729721D01*
X146879686Y-100760834D01*
X146879733Y-100766120D01*
X147060205Y-100766120D01*
X147027096Y-100654297D01*
X146989921Y-100510393D01*
X146774676Y-100510393D01*
X146751621Y-100634592D01*
X146741523Y-100656861D01*
X146711889Y-100699085D01*
X146685523Y-100698202D01*
X146657415Y-100647501D01*
X146622558Y-100540270D01*
X146603291Y-100471621D01*
X146573400Y-100350895D01*
X146565099Y-100276063D01*
X146577489Y-100229128D01*
X146590309Y-100211467D01*
X146635297Y-100139176D01*
X146654268Y-100092933D01*
X146182134Y-100092933D01*
X146181339Y-100231153D01*
X146178079Y-100406744D01*
X146172801Y-100608318D01*
X146165951Y-100824486D01*
X146157974Y-101043859D01*
X146149316Y-101255048D01*
X146140425Y-101446665D01*
X146131744Y-101607321D01*
X146123722Y-101725627D01*
X146116802Y-101790195D01*
X146115431Y-101796191D01*
X146075308Y-101816226D01*
X145976679Y-101823789D01*
X145827581Y-101819053D01*
X145636050Y-101802192D01*
X145474266Y-101782354D01*
X145370100Y-101770647D01*
X145207576Y-101755483D01*
X144995944Y-101737604D01*
X144744449Y-101717753D01*
X144462339Y-101696672D01*
X144158860Y-101675104D01*
X144018000Y-101665451D01*
X143799650Y-101649407D01*
X143584282Y-101631349D01*
X143389363Y-101612900D01*
X143232365Y-101595681D01*
X143154400Y-101585232D01*
X142900400Y-101546302D01*
X142917333Y-100565618D01*
X142923948Y-100162001D01*
X142928693Y-99819540D01*
X142931526Y-99531683D01*
X142932403Y-99291878D01*
X142931831Y-99190710D01*
X142753348Y-99190710D01*
X142751722Y-99360617D01*
X142748135Y-99572842D01*
X142742696Y-99835970D01*
X142735852Y-100143733D01*
X142730695Y-100380266D01*
X142725933Y-100613294D01*
X142721856Y-100827359D01*
X142718759Y-101006999D01*
X142716934Y-101136757D01*
X142716785Y-101151267D01*
X142712661Y-101279245D01*
X142703993Y-101376389D01*
X142692399Y-101426913D01*
X142688112Y-101430667D01*
X142650358Y-101410664D01*
X142577443Y-101358451D01*
X142493379Y-101291985D01*
X142394186Y-101206604D01*
X142267245Y-101091941D01*
X142132831Y-100966482D01*
X142063862Y-100900351D01*
X141948437Y-100786744D01*
X141875131Y-100708026D01*
X141836458Y-100652962D01*
X141824930Y-100610320D01*
X141833062Y-100568867D01*
X141836556Y-100559292D01*
X141860454Y-100469736D01*
X141877575Y-100364554D01*
X141698133Y-100364554D01*
X141690440Y-100491368D01*
X141670667Y-100573924D01*
X141643773Y-100606574D01*
X141614719Y-100583668D01*
X141588464Y-100499556D01*
X141586869Y-100491281D01*
X141546715Y-100268331D01*
X141521833Y-100107717D01*
X141512494Y-100005722D01*
X141518974Y-99958629D01*
X141541546Y-99962724D01*
X141580483Y-100014289D01*
X141617423Y-100076289D01*
X141682664Y-100242148D01*
X141698133Y-100364554D01*
X141877575Y-100364554D01*
X141879443Y-100353084D01*
X141883274Y-100315926D01*
X141899599Y-100176964D01*
X141924511Y-100024101D01*
X141953855Y-99878212D01*
X141983478Y-99760174D01*
X141985892Y-99753449D01*
X141808194Y-99753449D01*
X141792935Y-99844556D01*
X141774114Y-99899429D01*
X141765633Y-99906667D01*
X141739125Y-99878278D01*
X141698692Y-99805552D01*
X141671186Y-99745800D01*
X141629065Y-99628776D01*
X141618886Y-99528284D01*
X141633187Y-99418384D01*
X141657562Y-99306363D01*
X141678451Y-99243168D01*
X141692942Y-99234809D01*
X141698133Y-99284262D01*
X141713128Y-99356242D01*
X141750311Y-99451734D01*
X141761799Y-99475355D01*
X141807931Y-99613969D01*
X141808194Y-99753449D01*
X141985892Y-99753449D01*
X142006714Y-99695460D01*
X142029240Y-99617966D01*
X142036800Y-99537913D01*
X142045602Y-99472860D01*
X142069950Y-99355922D01*
X142106758Y-99200336D01*
X142131966Y-99101533D01*
X141952812Y-99101533D01*
X141936401Y-99170373D01*
X141932289Y-99180912D01*
X141892559Y-99280133D01*
X141846067Y-99110800D01*
X141820490Y-98996994D01*
X141807886Y-98898598D01*
X141808121Y-98864098D01*
X141817466Y-98826712D01*
X141837516Y-98836478D01*
X141875817Y-98899532D01*
X141894343Y-98934210D01*
X141940222Y-99032107D01*
X141952812Y-99101533D01*
X142131966Y-99101533D01*
X142152939Y-99019336D01*
X142188938Y-98885520D01*
X142244201Y-98683296D01*
X142282875Y-98535768D01*
X142306449Y-98432357D01*
X142309858Y-98408443D01*
X142134170Y-98408443D01*
X142110690Y-98525978D01*
X142084614Y-98619222D01*
X142045943Y-98722097D01*
X142012722Y-98758844D01*
X141987571Y-98731008D01*
X141973109Y-98640133D01*
X141970662Y-98552000D01*
X141983299Y-98437125D01*
X142015232Y-98346895D01*
X142058845Y-98296095D01*
X142102280Y-98296608D01*
X142131168Y-98335617D01*
X142134170Y-98408443D01*
X142309858Y-98408443D01*
X142316410Y-98362481D01*
X142314246Y-98315562D01*
X142301445Y-98281019D01*
X142279495Y-98248271D01*
X142278707Y-98247200D01*
X142185922Y-98173260D01*
X142095530Y-98152191D01*
X142032491Y-98150852D01*
X141982386Y-98166692D01*
X141930676Y-98210397D01*
X141862821Y-98292656D01*
X141811028Y-98361319D01*
X141724533Y-98471862D01*
X141667134Y-98530592D01*
X141632314Y-98543312D01*
X141619761Y-98531654D01*
X141607980Y-98482955D01*
X141592634Y-98378844D01*
X141575188Y-98231458D01*
X141557105Y-98052932D01*
X141543444Y-97899193D01*
X141526571Y-97705403D01*
X141510350Y-97533835D01*
X141496015Y-97396441D01*
X141484797Y-97305172D01*
X141478946Y-97273534D01*
X141476808Y-97235056D01*
X141484041Y-97231200D01*
X141525524Y-97254010D01*
X141607688Y-97318207D01*
X141723163Y-97417441D01*
X141864578Y-97545364D01*
X142024562Y-97695627D01*
X142036800Y-97707329D01*
X142169839Y-97831296D01*
X142310569Y-97956927D01*
X142436185Y-98064050D01*
X142481407Y-98100607D01*
X142672015Y-98250709D01*
X142715731Y-98579154D01*
X142728193Y-98675450D01*
X142738030Y-98762550D01*
X142745354Y-98849041D01*
X142750274Y-98943508D01*
X142752903Y-99054536D01*
X142753348Y-99190710D01*
X142931831Y-99190710D01*
X142931281Y-99093572D01*
X142928116Y-98930212D01*
X142922865Y-98795246D01*
X142915484Y-98682123D01*
X142905930Y-98584288D01*
X142904115Y-98568934D01*
X142875391Y-98331867D01*
X144225629Y-98322717D01*
X144534168Y-98321186D01*
X144832094Y-98320760D01*
X145110148Y-98321378D01*
X145359072Y-98322976D01*
X145569607Y-98325490D01*
X145732495Y-98328859D01*
X145838478Y-98333018D01*
X145850118Y-98333795D01*
X146124369Y-98354023D01*
X146152394Y-99054145D01*
X146161327Y-99292489D01*
X146169269Y-99533138D01*
X146175720Y-99758568D01*
X146180176Y-99951258D01*
X146182134Y-100092933D01*
X146654268Y-100092933D01*
X146661216Y-100076000D01*
X146678167Y-100033101D01*
X146693557Y-100036079D01*
X146713773Y-100092538D01*
X146732302Y-100160667D01*
X146768130Y-100346718D01*
X146774676Y-100510393D01*
X146989921Y-100510393D01*
X146984376Y-100488932D01*
X146963333Y-100404625D01*
X146914263Y-100214683D01*
X146863640Y-100031180D01*
X146816735Y-99872458D01*
X146791082Y-99794242D01*
X146548427Y-99794242D01*
X146546174Y-99904973D01*
X146533982Y-99977785D01*
X146510347Y-99990656D01*
X146480956Y-99949175D01*
X146451495Y-99858933D01*
X146438928Y-99799553D01*
X146427004Y-99669773D01*
X146431959Y-99538398D01*
X146434986Y-99517200D01*
X146457807Y-99381733D01*
X146497951Y-99483333D01*
X146535466Y-99621723D01*
X146548427Y-99794242D01*
X146791082Y-99794242D01*
X146778820Y-99756859D01*
X146771552Y-99737333D01*
X146718908Y-99612882D01*
X146651592Y-99470208D01*
X146576492Y-99321983D01*
X146500491Y-99180877D01*
X146430475Y-99059558D01*
X146373329Y-98970698D01*
X146335937Y-98926966D01*
X146329870Y-98924534D01*
X146313438Y-98894103D01*
X146306582Y-98801483D01*
X146309215Y-98644676D01*
X146313497Y-98552157D01*
X146333142Y-98179781D01*
X146285092Y-98122710D01*
X145999629Y-98122710D01*
X145985017Y-98132958D01*
X145949052Y-98141235D01*
X145886184Y-98147719D01*
X145790863Y-98152589D01*
X145657541Y-98156022D01*
X145480666Y-98158198D01*
X145254688Y-98159294D01*
X144974059Y-98159491D01*
X144633229Y-98158965D01*
X144495999Y-98158636D01*
X144177682Y-98157258D01*
X143878108Y-98154870D01*
X143604521Y-98151608D01*
X143364165Y-98147610D01*
X143164284Y-98143010D01*
X143012121Y-98137945D01*
X142914919Y-98132552D01*
X142882206Y-98128300D01*
X142818439Y-98093329D01*
X142715399Y-98019695D01*
X142582860Y-97915448D01*
X142430598Y-97788638D01*
X142268386Y-97647314D01*
X142106000Y-97499527D01*
X142019866Y-97418129D01*
X141914925Y-97320120D01*
X141819369Y-97235522D01*
X141750623Y-97179653D01*
X141740466Y-97172498D01*
X141684175Y-97127974D01*
X141664359Y-97100305D01*
X141696693Y-97094181D01*
X141787406Y-97088592D01*
X141927140Y-97083811D01*
X142106543Y-97080109D01*
X142316259Y-97077761D01*
X142460226Y-97077098D01*
X143256000Y-97075395D01*
X143256000Y-97320426D01*
X143260946Y-97496388D01*
X143278975Y-97616093D01*
X143314874Y-97690509D01*
X143373428Y-97730603D01*
X143441524Y-97745541D01*
X143571335Y-97741901D01*
X143707707Y-97709471D01*
X143820306Y-97656764D01*
X143854078Y-97629770D01*
X143878938Y-97591553D01*
X143879177Y-97581156D01*
X143515644Y-97581156D01*
X143510995Y-97601289D01*
X143493067Y-97603734D01*
X143465190Y-97591342D01*
X143470489Y-97581156D01*
X143510681Y-97577103D01*
X143515644Y-97581156D01*
X143879177Y-97581156D01*
X143880218Y-97536088D01*
X143879853Y-97534587D01*
X143717854Y-97534587D01*
X143709249Y-97576259D01*
X143677735Y-97574266D01*
X143621144Y-97532187D01*
X143553558Y-97465204D01*
X143489056Y-97388499D01*
X143441718Y-97317255D01*
X143425425Y-97270208D01*
X143441279Y-97249170D01*
X143495168Y-97269286D01*
X143535400Y-97292963D01*
X143626004Y-97367353D01*
X143690618Y-97454078D01*
X143717854Y-97534587D01*
X143879853Y-97534587D01*
X143857471Y-97442649D01*
X143849467Y-97415824D01*
X143819588Y-97303005D01*
X143801105Y-97205681D01*
X143798233Y-97171934D01*
X143799462Y-97161842D01*
X143662400Y-97161842D01*
X143642716Y-97194940D01*
X143582646Y-97175686D01*
X143538690Y-97147570D01*
X143490440Y-97098344D01*
X143453465Y-97036180D01*
X143437814Y-96983148D01*
X143453537Y-96961322D01*
X143453904Y-96961337D01*
X143498652Y-96984916D01*
X143562674Y-97038762D01*
X143623785Y-97101541D01*
X143659799Y-97151917D01*
X143662400Y-97161842D01*
X143799462Y-97161842D01*
X143803310Y-97130275D01*
X143829355Y-97107440D01*
X143891830Y-97097875D01*
X144006194Y-97096027D01*
X144009533Y-97096031D01*
X144124906Y-97098678D01*
X144287161Y-97105693D01*
X144475663Y-97116039D01*
X144669777Y-97128685D01*
X144689879Y-97130121D01*
X145158558Y-97163914D01*
X145318416Y-97324557D01*
X145408700Y-97418817D01*
X145517968Y-97538190D01*
X145635976Y-97670840D01*
X145752480Y-97804932D01*
X145857239Y-97928630D01*
X145940009Y-98030097D01*
X145990546Y-98097499D01*
X145998438Y-98110311D01*
X145999629Y-98122710D01*
X146285092Y-98122710D01*
X146157704Y-97971410D01*
X146065684Y-97864025D01*
X145943745Y-97724396D01*
X145807567Y-97570361D01*
X145672834Y-97419760D01*
X145669000Y-97415505D01*
X145554685Y-97284878D01*
X145459053Y-97168346D01*
X145390514Y-97076713D01*
X145357477Y-97020780D01*
X145355733Y-97013052D01*
X145341756Y-96979248D01*
X145289793Y-96964535D01*
X145194866Y-96963932D01*
X145093663Y-96964822D01*
X144951742Y-96962360D01*
X144781328Y-96957152D01*
X144594646Y-96949806D01*
X144403921Y-96940925D01*
X144221378Y-96931119D01*
X144059242Y-96920991D01*
X143929737Y-96911150D01*
X143845088Y-96902200D01*
X143817449Y-96895619D01*
X143819304Y-96852272D01*
X143836480Y-96794369D01*
X143850698Y-96756697D01*
X143714947Y-96756697D01*
X143712137Y-96774000D01*
X143686894Y-96854802D01*
X143680396Y-96875600D01*
X143655234Y-96920045D01*
X143616745Y-96910422D01*
X143558888Y-96850200D01*
X143505874Y-96776629D01*
X143507360Y-96738074D01*
X143567561Y-96724176D01*
X143610537Y-96723200D01*
X143690086Y-96730589D01*
X143714947Y-96756697D01*
X143850698Y-96756697D01*
X143867140Y-96713137D01*
X144653770Y-96742684D01*
X144889462Y-96751290D01*
X145112872Y-96758988D01*
X145311580Y-96765387D01*
X145473167Y-96770094D01*
X145585213Y-96772717D01*
X145616728Y-96773116D01*
X145718981Y-96775844D01*
X145768526Y-96787572D01*
X145780365Y-96815622D01*
X145774003Y-96849885D01*
X145777338Y-96921142D01*
X145809772Y-96946807D01*
X145868912Y-96952355D01*
X145915276Y-96913408D01*
X145952258Y-96823313D01*
X145983250Y-96675422D01*
X145989551Y-96632457D01*
X145806068Y-96632457D01*
X145487767Y-96609560D01*
X145361888Y-96601649D01*
X145182529Y-96591956D01*
X144963896Y-96581168D01*
X144720198Y-96569970D01*
X144465642Y-96559050D01*
X144322800Y-96553278D01*
X143975053Y-96539087D01*
X143637458Y-96524401D01*
X143316702Y-96509580D01*
X143019469Y-96494982D01*
X142752444Y-96480965D01*
X142522311Y-96467890D01*
X142335755Y-96456113D01*
X142199461Y-96445995D01*
X142120114Y-96437894D01*
X142102565Y-96434117D01*
X142082054Y-96386085D01*
X142080011Y-96292044D01*
X142093957Y-96170400D01*
X142099020Y-96146275D01*
X141901333Y-96146275D01*
X141895873Y-96273246D01*
X141877752Y-96337178D01*
X141844361Y-96342014D01*
X141799733Y-96299867D01*
X141742074Y-96256831D01*
X141710920Y-96249067D01*
X141668688Y-96223046D01*
X141664266Y-96203915D01*
X141671409Y-96129311D01*
X141689519Y-96028872D01*
X141713617Y-95923459D01*
X141738725Y-95833930D01*
X141759866Y-95781145D01*
X141766647Y-95774934D01*
X141816921Y-95806134D01*
X141859984Y-95889098D01*
X141890051Y-96007871D01*
X141901333Y-96146275D01*
X142099020Y-96146275D01*
X142121417Y-96039560D01*
X142159915Y-95917929D01*
X142177587Y-95876534D01*
X142272450Y-95611901D01*
X142324616Y-95324757D01*
X142328926Y-95045165D01*
X142325876Y-95012560D01*
X142316133Y-94900911D01*
X142313454Y-94821801D01*
X142318195Y-94792800D01*
X142353770Y-94805460D01*
X142438299Y-94839820D01*
X142558672Y-94890454D01*
X142684957Y-94944647D01*
X142866632Y-95021139D01*
X142995808Y-95069279D01*
X143080783Y-95090573D01*
X143129853Y-95086527D01*
X143151317Y-95058647D01*
X143154400Y-95029867D01*
X143167019Y-94976653D01*
X143211429Y-94966927D01*
X143297459Y-94999708D01*
X143323827Y-95012982D01*
X143422157Y-95063831D01*
X143339079Y-95146909D01*
X143270352Y-95245219D01*
X143261963Y-95336872D01*
X143296640Y-95395627D01*
X143310580Y-95423607D01*
X143270574Y-95435085D01*
X143227844Y-95436267D01*
X143135356Y-95419156D01*
X143099466Y-95377000D01*
X143054382Y-95261408D01*
X143011538Y-95198445D01*
X142975700Y-95195047D01*
X142974900Y-95195820D01*
X142966228Y-95247050D01*
X142992427Y-95327323D01*
X143042375Y-95415958D01*
X143104946Y-95492279D01*
X143154400Y-95529478D01*
X143241571Y-95552655D01*
X143383589Y-95564926D01*
X143539157Y-95565902D01*
X143707273Y-95557851D01*
X143820328Y-95539614D01*
X143890724Y-95507046D01*
X143930865Y-95456002D01*
X143940478Y-95431764D01*
X143950288Y-95425916D01*
X143816532Y-95425916D01*
X143801860Y-95461788D01*
X143753808Y-95470075D01*
X143744292Y-95470134D01*
X143684819Y-95460317D01*
X143675473Y-95417179D01*
X143681568Y-95388621D01*
X143682430Y-95320366D01*
X143580081Y-95320366D01*
X143578654Y-95367044D01*
X143539819Y-95399264D01*
X143482847Y-95382763D01*
X143423437Y-95339942D01*
X143374180Y-95274607D01*
X143370405Y-95210808D01*
X143410003Y-95170237D01*
X143440423Y-95165334D01*
X143494357Y-95191323D01*
X143546915Y-95251764D01*
X143580081Y-95320366D01*
X143682430Y-95320366D01*
X143682748Y-95295262D01*
X143664088Y-95236221D01*
X143643171Y-95181824D01*
X143665288Y-95165900D01*
X143669675Y-95165852D01*
X143742638Y-95188248D01*
X143788095Y-95259969D01*
X143807434Y-95343134D01*
X143816532Y-95425916D01*
X143950288Y-95425916D01*
X143966956Y-95415980D01*
X144036224Y-95416217D01*
X144156635Y-95433060D01*
X144277250Y-95455320D01*
X144435675Y-95488935D01*
X144539118Y-95518681D01*
X144599804Y-95549124D01*
X144629957Y-95584825D01*
X144631148Y-95587427D01*
X144651201Y-95619237D01*
X144686628Y-95639695D01*
X144750924Y-95651454D01*
X144857586Y-95657163D01*
X144996997Y-95659287D01*
X145152390Y-95661822D01*
X145255213Y-95668336D01*
X145320625Y-95682011D01*
X145363785Y-95706032D01*
X145399852Y-95743582D01*
X145400159Y-95743954D01*
X145446454Y-95814419D01*
X145509965Y-95929713D01*
X145582121Y-96072029D01*
X145654355Y-96223563D01*
X145718096Y-96366509D01*
X145764776Y-96483062D01*
X145782407Y-96538184D01*
X145806068Y-96632457D01*
X145989551Y-96632457D01*
X145997365Y-96579186D01*
X146017750Y-96435906D01*
X146037252Y-96314909D01*
X146052851Y-96234296D01*
X146058088Y-96215200D01*
X146067911Y-96150465D01*
X146072632Y-96034479D01*
X146072709Y-95883496D01*
X146070840Y-95806191D01*
X145914993Y-95806191D01*
X145914349Y-95814806D01*
X145908844Y-95893389D01*
X145903676Y-96007823D01*
X145901403Y-96079733D01*
X145896330Y-96173754D01*
X145884826Y-96218473D01*
X145863299Y-96210679D01*
X145828156Y-96147166D01*
X145775805Y-96024725D01*
X145740232Y-95935800D01*
X145691407Y-95824190D01*
X145646754Y-95742534D01*
X145615161Y-95706837D01*
X145612849Y-95706403D01*
X145577064Y-95680777D01*
X145512479Y-95612869D01*
X145440339Y-95526858D01*
X145183612Y-95526858D01*
X145158185Y-95560926D01*
X145078711Y-95569756D01*
X145059400Y-95569587D01*
X144982971Y-95566221D01*
X144971854Y-95559513D01*
X144836074Y-95559513D01*
X144802688Y-95571411D01*
X144784792Y-95571734D01*
X144722901Y-95546948D01*
X144693150Y-95478600D01*
X144668106Y-95374153D01*
X144647364Y-95320574D01*
X144623659Y-95301990D01*
X144611729Y-95300800D01*
X144583205Y-95329108D01*
X144576800Y-95367471D01*
X144559763Y-95416133D01*
X144534466Y-95419943D01*
X144476946Y-95403133D01*
X144383765Y-95378100D01*
X144347902Y-95368820D01*
X144259029Y-95341930D01*
X144221640Y-95312576D01*
X144221228Y-95293235D01*
X143998937Y-95293235D01*
X143968433Y-95300167D01*
X143960732Y-95300282D01*
X143899497Y-95283024D01*
X143882533Y-95266934D01*
X143879800Y-95237017D01*
X143920183Y-95241989D01*
X143967200Y-95266934D01*
X143998937Y-95293235D01*
X144221228Y-95293235D01*
X144220642Y-95265837D01*
X144224916Y-95247250D01*
X144219429Y-95147421D01*
X144186098Y-95096236D01*
X144146569Y-95047707D01*
X144139768Y-95029867D01*
X144175806Y-95040028D01*
X144260684Y-95067222D01*
X144379169Y-95106519D01*
X144441350Y-95127501D01*
X144578346Y-95175176D01*
X144664272Y-95211233D01*
X144712436Y-95245118D01*
X144736143Y-95286275D01*
X144748699Y-95344149D01*
X144748980Y-95345859D01*
X144774303Y-95442512D01*
X144809293Y-95515187D01*
X144812394Y-95519159D01*
X144836074Y-95559513D01*
X144971854Y-95559513D01*
X144967634Y-95556967D01*
X145006764Y-95537551D01*
X145008600Y-95536811D01*
X145067537Y-95494028D01*
X145084800Y-95454291D01*
X145099290Y-95415187D01*
X145017066Y-95415187D01*
X144993284Y-95459727D01*
X144938841Y-95467779D01*
X144879088Y-95440935D01*
X144848925Y-95404627D01*
X144817912Y-95335174D01*
X144828043Y-95305854D01*
X144866665Y-95300800D01*
X144901719Y-95317218D01*
X144898533Y-95334667D01*
X144889381Y-95389378D01*
X144922687Y-95416311D01*
X144969282Y-95399898D01*
X145007540Y-95379546D01*
X145017066Y-95415187D01*
X145099290Y-95415187D01*
X145102024Y-95407810D01*
X145138437Y-95413931D01*
X145165843Y-95455970D01*
X145183612Y-95526858D01*
X145440339Y-95526858D01*
X145430384Y-95514990D01*
X145389600Y-95462965D01*
X145261683Y-95300800D01*
X145017066Y-95300800D01*
X145004675Y-95328676D01*
X144994489Y-95323378D01*
X144990436Y-95283186D01*
X144994489Y-95278222D01*
X145014622Y-95282871D01*
X145017066Y-95300800D01*
X145261683Y-95300800D01*
X145208348Y-95233187D01*
X145059612Y-95058884D01*
X144940926Y-94937535D01*
X144849821Y-94866614D01*
X144783946Y-94843600D01*
X144707524Y-94862248D01*
X144688942Y-94910750D01*
X144727688Y-94972717D01*
X144769503Y-95020961D01*
X144780000Y-95041067D01*
X144749014Y-95041955D01*
X144657797Y-95018365D01*
X144508961Y-94971091D01*
X144305120Y-94900923D01*
X144231449Y-94874747D01*
X144097179Y-94829096D01*
X144010314Y-94807155D01*
X143955727Y-94806603D01*
X143918291Y-94825118D01*
X143916677Y-94826437D01*
X143878835Y-94892861D01*
X143884025Y-94968928D01*
X143893947Y-95036376D01*
X143869997Y-95054873D01*
X143809331Y-95044084D01*
X143728053Y-95016184D01*
X143605580Y-94963770D01*
X143459802Y-94895437D01*
X143308611Y-94819786D01*
X143169898Y-94745413D01*
X143086667Y-94696788D01*
X142985145Y-94648885D01*
X142886723Y-94624408D01*
X142871156Y-94623593D01*
X142804201Y-94630524D01*
X142783851Y-94665712D01*
X142789091Y-94725067D01*
X142797249Y-94796113D01*
X142796254Y-94826645D01*
X142796091Y-94826667D01*
X142763461Y-94813766D01*
X142685334Y-94779863D01*
X142577795Y-94732154D01*
X142456931Y-94677837D01*
X142338828Y-94624110D01*
X142239572Y-94578171D01*
X142218458Y-94568210D01*
X142101454Y-94527326D01*
X142027921Y-94537463D01*
X141995929Y-94599374D01*
X141995322Y-94655539D01*
X142015401Y-94744795D01*
X142051288Y-94804902D01*
X142053428Y-94806626D01*
X142096597Y-94874537D01*
X142126345Y-94992178D01*
X142141019Y-95142578D01*
X142138966Y-95308764D01*
X142118535Y-95473763D01*
X142118437Y-95474278D01*
X142092953Y-95596593D01*
X142068673Y-95694009D01*
X142050762Y-95745861D01*
X142050455Y-95746371D01*
X142021856Y-95747571D01*
X141979855Y-95702174D01*
X141934173Y-95627245D01*
X141894532Y-95539850D01*
X141870654Y-95457055D01*
X141867640Y-95425445D01*
X141858428Y-95357516D01*
X141820492Y-95338394D01*
X141791266Y-95340778D01*
X141748806Y-95357759D01*
X141711236Y-95403561D01*
X141671159Y-95490662D01*
X141624190Y-95622534D01*
X141577344Y-95773901D01*
X141537121Y-95924742D01*
X141511244Y-96045729D01*
X141509060Y-96059610D01*
X141492969Y-96155060D01*
X141477397Y-96193181D01*
X141455581Y-96183983D01*
X141439070Y-96163203D01*
X141401309Y-96079166D01*
X141393333Y-96026607D01*
X141369961Y-95939475D01*
X141311860Y-95891569D01*
X141237057Y-95895766D01*
X141221684Y-95903987D01*
X141177497Y-95921729D01*
X141138829Y-95902575D01*
X141089134Y-95836250D01*
X141073648Y-95812045D01*
X141008408Y-95687241D01*
X140936859Y-95515671D01*
X140865631Y-95317058D01*
X140801355Y-95111121D01*
X140750662Y-94917581D01*
X140721215Y-94763828D01*
X140706676Y-94439248D01*
X140752563Y-94127601D01*
X140832037Y-93895334D01*
X140923987Y-93724780D01*
X141020317Y-93617234D01*
X141118949Y-93574932D01*
X141130178Y-93574353D01*
X141182458Y-93545214D01*
X141239579Y-93471759D01*
X141254109Y-93445499D01*
X141314359Y-93354742D01*
X141382555Y-93288971D01*
X141398731Y-93279484D01*
X141510260Y-93242463D01*
X141672765Y-93209351D01*
X141869532Y-93181614D01*
X142083847Y-93160719D01*
X142298996Y-93148129D01*
X142498265Y-93145312D01*
X142664941Y-93153732D01*
X142731067Y-93162656D01*
X142855169Y-93181989D01*
X143020117Y-93203819D01*
X143199281Y-93224738D01*
X143291997Y-93234401D01*
X143541706Y-93267076D01*
X143808281Y-93315822D01*
X144079944Y-93377220D01*
X144344915Y-93447845D01*
X144591415Y-93524276D01*
X144807665Y-93603090D01*
X144981886Y-93680866D01*
X145102298Y-93754180D01*
X145114052Y-93763774D01*
X145226059Y-93885127D01*
X145346361Y-94059034D01*
X145468717Y-94271891D01*
X145586883Y-94510099D01*
X145694618Y-94760054D01*
X145785681Y-95008154D01*
X145853829Y-95240799D01*
X145892820Y-95444386D01*
X145895222Y-95466009D01*
X145907242Y-95604698D01*
X145914247Y-95725656D01*
X145914993Y-95806191D01*
X146070840Y-95806191D01*
X146068604Y-95713770D01*
X146060778Y-95541554D01*
X146049690Y-95383102D01*
X146035801Y-95254667D01*
X146029794Y-95216609D01*
X145985021Y-95039091D01*
X145912027Y-94831489D01*
X145817397Y-94606533D01*
X145707712Y-94376952D01*
X145589557Y-94155475D01*
X145469515Y-93954831D01*
X145354170Y-93787749D01*
X145250105Y-93666959D01*
X145210463Y-93632420D01*
X145021023Y-93515070D01*
X144774327Y-93404456D01*
X144480769Y-93303929D01*
X144150742Y-93216834D01*
X143794640Y-93146522D01*
X143620067Y-93120066D01*
X143408378Y-93090867D01*
X143169159Y-93057521D01*
X142939681Y-93025236D01*
X142833010Y-93010088D01*
X142632957Y-92985146D01*
X142457480Y-92973255D01*
X142287755Y-92975255D01*
X142287755Y-92975255D01*
G37*
X142287755Y-92975255D02*
X142104956Y-92991985D01*
X141890259Y-93024285D01*
X141686449Y-93061223D01*
X141516965Y-93096685D01*
X141399750Y-93130664D01*
X141319688Y-93168568D01*
X141265615Y-93211791D01*
X141178200Y-93299206D01*
X141124285Y-93251867D01*
X140885333Y-93251867D01*
X140868400Y-93268800D01*
X140851466Y-93251867D01*
X140716000Y-93251867D01*
X140699066Y-93268800D01*
X140682133Y-93251867D01*
X140699066Y-93234934D01*
X140716000Y-93251867D01*
X140851466Y-93251867D01*
X140868400Y-93234934D01*
X140885333Y-93251867D01*
X141124285Y-93251867D01*
X141064455Y-93199336D01*
X140937588Y-93118439D01*
X140837922Y-93099467D01*
X140715387Y-93124237D01*
X140615421Y-93189026D01*
X140555813Y-93279546D01*
X140546666Y-93333347D01*
X140557111Y-93423780D01*
X140592333Y-93454974D01*
X140650784Y-93436786D01*
X140728141Y-93426707D01*
X140830762Y-93451387D01*
X140914153Y-93493567D01*
X140903173Y-93522341D01*
X140861468Y-93585290D01*
X140839730Y-93614576D01*
X140671560Y-93889324D01*
X140564682Y-94188325D01*
X140521117Y-94503045D01*
X140542887Y-94824951D01*
X140547199Y-94849085D01*
X140587488Y-95029842D01*
X140641879Y-95223854D01*
X140706156Y-95420714D01*
X140776097Y-95610013D01*
X140847487Y-95781342D01*
X140916104Y-95924292D01*
X140977732Y-96028455D01*
X141028151Y-96083422D01*
X141049686Y-96088888D01*
X141086132Y-96110094D01*
X141106134Y-96149570D01*
X141144932Y-96200235D01*
X141187260Y-96199179D01*
X141240071Y-96206266D01*
X141293268Y-96268733D01*
X141310764Y-96299363D01*
X141367127Y-96377570D01*
X141424355Y-96416934D01*
X141434901Y-96418400D01*
X141479506Y-96438221D01*
X141494699Y-96506850D01*
X141494933Y-96522250D01*
X141501896Y-96594149D01*
X141535460Y-96617758D01*
X141588066Y-96615383D01*
X141658213Y-96593259D01*
X141678817Y-96539831D01*
X141678729Y-96530502D01*
X141676259Y-96456337D01*
X141774461Y-96538968D01*
X141848609Y-96593812D01*
X141905516Y-96623087D01*
X141912398Y-96624387D01*
X141969917Y-96628657D01*
X142062671Y-96635744D01*
X142087600Y-96637671D01*
X142168423Y-96642668D01*
X142301469Y-96649490D01*
X142471278Y-96657401D01*
X142662389Y-96665666D01*
X142763144Y-96669784D01*
X142946859Y-96677816D01*
X143105277Y-96686034D01*
X143226720Y-96693727D01*
X143299508Y-96700187D01*
X143315126Y-96703304D01*
X143316565Y-96740980D01*
X143304316Y-96805706D01*
X143281602Y-96896205D01*
X142357616Y-96890383D01*
X142113172Y-96889615D01*
X141890445Y-96890388D01*
X141698560Y-96892553D01*
X141546637Y-96895960D01*
X141443801Y-96900458D01*
X141399173Y-96905898D01*
X141398693Y-96906154D01*
X141351347Y-96959885D01*
X141306009Y-97046650D01*
X141275839Y-97136323D01*
X141272596Y-97194843D01*
X141282390Y-97252317D01*
X141296229Y-97366115D01*
X141313116Y-97525017D01*
X141332056Y-97717800D01*
X141352051Y-97933245D01*
X141372104Y-98160129D01*
X141391218Y-98387231D01*
X141408397Y-98603331D01*
X141422643Y-98797208D01*
X141432959Y-98957639D01*
X141437650Y-99052685D01*
X141440398Y-99199420D01*
X141437337Y-99319484D01*
X141429167Y-99397749D01*
X141420690Y-99419623D01*
X141403329Y-99462122D01*
X141396356Y-99545918D01*
X141397046Y-99579338D01*
X141393580Y-99697199D01*
X141377407Y-99837968D01*
X141365225Y-99906667D01*
X141343950Y-100021451D01*
X141316430Y-100186458D01*
X141285210Y-100384751D01*
X141252833Y-100599392D01*
X141221846Y-100813445D01*
X141194792Y-101009972D01*
X141174217Y-101172035D01*
X141171174Y-101198202D01*
X141155769Y-101308216D01*
X141131001Y-101374394D01*
X141081256Y-101420344D01*
X140991981Y-101469135D01*
X140890659Y-101529367D01*
X140828921Y-101597237D01*
X140782845Y-101700439D01*
X140776539Y-101718534D01*
X140738247Y-101883883D01*
X140724891Y-102090933D01*
X140725739Y-102175159D01*
X140732933Y-102462452D01*
X140977643Y-102467488D01*
X141133528Y-102465187D01*
X141230100Y-102446076D01*
X141275019Y-102403463D01*
X141275945Y-102330651D01*
X141245391Y-102233493D01*
X141206289Y-102125301D01*
X141194740Y-102066587D01*
X141212116Y-102044357D01*
X141259792Y-102045620D01*
X141265169Y-102046378D01*
X141339099Y-102085312D01*
X141411621Y-102165937D01*
X141466274Y-102263903D01*
X141486596Y-102354864D01*
X141484863Y-102371320D01*
X141489026Y-102442858D01*
X141539061Y-102478883D01*
X141639814Y-102480762D01*
X141778447Y-102454249D01*
X141920781Y-102411900D01*
X142018966Y-102366756D01*
X142065611Y-102323429D01*
X142053322Y-102286529D01*
X142050480Y-102284575D01*
X142028436Y-102251934D01*
X141799471Y-102251934D01*
X141783209Y-102303936D01*
X141743772Y-102305645D01*
X141696228Y-102262670D01*
X141662974Y-102201134D01*
X141573655Y-102040134D01*
X141458090Y-101934762D01*
X141323107Y-101888748D01*
X141175535Y-101905824D01*
X141144047Y-101917581D01*
X141041997Y-101987518D01*
X140995403Y-102081874D01*
X141009929Y-102187777D01*
X141017920Y-102204219D01*
X141050173Y-102275321D01*
X141042687Y-102305806D01*
X141007816Y-102311200D01*
X140962507Y-102281125D01*
X140933818Y-102201580D01*
X140921084Y-102088585D01*
X140923637Y-101958160D01*
X140940812Y-101826325D01*
X140971941Y-101709100D01*
X141016359Y-101622504D01*
X141037397Y-101600279D01*
X141133996Y-101560500D01*
X141257275Y-101565638D01*
X141386010Y-101612724D01*
X141455733Y-101658821D01*
X141530176Y-101736821D01*
X141612454Y-101850632D01*
X141691300Y-101980812D01*
X141755445Y-102107918D01*
X141793621Y-102212506D01*
X141799471Y-102251934D01*
X142028436Y-102251934D01*
X142021205Y-102241228D01*
X141983130Y-102153450D01*
X141952138Y-102063845D01*
X141896477Y-101923882D01*
X141818344Y-101772706D01*
X141762222Y-101683574D01*
X141633528Y-101499858D01*
X141646354Y-101420049D01*
X141452713Y-101420049D01*
X141404909Y-101424962D01*
X141401800Y-101424394D01*
X141351385Y-101382404D01*
X141332958Y-101311844D01*
X141323382Y-101210534D01*
X141391471Y-101295200D01*
X141448302Y-101377655D01*
X141452713Y-101420049D01*
X141646354Y-101420049D01*
X141667663Y-101287462D01*
X141694320Y-101126104D01*
X141714321Y-101020360D01*
X141729069Y-100965132D01*
X141584444Y-100965132D01*
X141576122Y-101052585D01*
X141560338Y-101142572D01*
X141544507Y-101175115D01*
X141521026Y-101160078D01*
X141507157Y-101142087D01*
X141471705Y-101059818D01*
X141461066Y-100985926D01*
X141449930Y-100910156D01*
X141427200Y-100871867D01*
X141403081Y-100825299D01*
X141393776Y-100747041D01*
X141400968Y-100671853D01*
X141415982Y-100640373D01*
X141443919Y-100653421D01*
X141489946Y-100711872D01*
X141518814Y-100758887D01*
X141570079Y-100867435D01*
X141584444Y-100965132D01*
X141729069Y-100965132D01*
X141730756Y-100958818D01*
X141746713Y-100930062D01*
X141765280Y-100922680D01*
X141766371Y-100922667D01*
X141803972Y-100944300D01*
X141878365Y-101002521D01*
X141977192Y-101087312D01*
X142045126Y-101148656D01*
X142180567Y-101268676D01*
X142326668Y-101390906D01*
X142457968Y-101494235D01*
X142494000Y-101520798D01*
X142601217Y-101599151D01*
X142691478Y-101667322D01*
X142746201Y-101711259D01*
X142748000Y-101712864D01*
X142804349Y-101735955D01*
X142918793Y-101760488D01*
X143081769Y-101784728D01*
X143248049Y-101803485D01*
X143431164Y-101822718D01*
X143556421Y-101839062D01*
X143633500Y-101854756D01*
X143672082Y-101872036D01*
X143681848Y-101893142D01*
X143679807Y-101903308D01*
X143666982Y-101963836D01*
X143649783Y-102070169D01*
X143631134Y-102200772D01*
X143613957Y-102334109D01*
X143601176Y-102448647D01*
X143595712Y-102522851D01*
X143595712Y-102522867D01*
X143590528Y-102543389D01*
X143569942Y-102558566D01*
X143525163Y-102569194D01*
X143447398Y-102576070D01*
X143327855Y-102579987D01*
X143157743Y-102581743D01*
X142940795Y-102582134D01*
X142286924Y-102582134D01*
X142178795Y-102671712D01*
X142110974Y-102736205D01*
X142073293Y-102788163D01*
X142070567Y-102798712D01*
X142040751Y-102824313D01*
X141967791Y-102838049D01*
X141954677Y-102838564D01*
X141813894Y-102872986D01*
X141687249Y-102960853D01*
X141582017Y-103088225D01*
X141505472Y-103241163D01*
X141464887Y-103405727D01*
X141467536Y-103567977D01*
X141508843Y-103692949D01*
X141623926Y-103853139D01*
X141771697Y-103954285D01*
X141947900Y-103997123D01*
X142131432Y-104012343D01*
X142101049Y-104118281D01*
X142075577Y-104311151D01*
X142104536Y-104499549D01*
X142183336Y-104665304D01*
X142261796Y-104754701D01*
X142368670Y-104820009D01*
X142504472Y-104862492D01*
X142648687Y-104880249D01*
X142780798Y-104871375D01*
X142880292Y-104833968D01*
X142903232Y-104814204D01*
X142922280Y-104794816D01*
X142945295Y-104779524D01*
X142979539Y-104768050D01*
X143032269Y-104760114D01*
X143110747Y-104755436D01*
X143222231Y-104753738D01*
X143373982Y-104754741D01*
X143573259Y-104758164D01*
X143827323Y-104763730D01*
X144068414Y-104769383D01*
X144345578Y-104775586D01*
X144610221Y-104780848D01*
X144852284Y-104785019D01*
X145061709Y-104787949D01*
X145228437Y-104789488D01*
X145342408Y-104789485D01*
X145375774Y-104788881D01*
X145582082Y-104782338D01*
X145635517Y-104918369D01*
X145688951Y-105054400D01*
X145944806Y-105054400D01*
X146075597Y-105053074D01*
X146155865Y-105045400D01*
X146202813Y-105025834D01*
X146233646Y-104988832D01*
X146251819Y-104955470D01*
X146315658Y-104867322D01*
X146333467Y-104850587D01*
X146111002Y-104850587D01*
X146094773Y-104875395D01*
X146030961Y-104905691D01*
X145938463Y-104902041D01*
X145844784Y-104868323D01*
X145797663Y-104833511D01*
X145769602Y-104797231D01*
X145795373Y-104784599D01*
X145835309Y-104783467D01*
X145934739Y-104790415D01*
X146029376Y-104804742D01*
X146098579Y-104824383D01*
X146111002Y-104850587D01*
X146333467Y-104850587D01*
X146402052Y-104786140D01*
X146409504Y-104780687D01*
X146500721Y-104715734D01*
X142824834Y-104715734D01*
X142717596Y-104715734D01*
X142609743Y-104701966D01*
X142497893Y-104668730D01*
X142495161Y-104667601D01*
X142380880Y-104585815D01*
X142303489Y-104460977D01*
X142266457Y-104308950D01*
X142273249Y-104145595D01*
X142327333Y-103986772D01*
X142340984Y-103962200D01*
X142403590Y-103872297D01*
X142459341Y-103841233D01*
X142524500Y-103864184D01*
X142566702Y-103895220D01*
X142662564Y-104008056D01*
X142740265Y-104169425D01*
X142792309Y-104360973D01*
X142808425Y-104487134D01*
X142824834Y-104715734D01*
X146500721Y-104715734D01*
X146516029Y-104704834D01*
X146498894Y-104499353D01*
X146333796Y-104499353D01*
X146325449Y-104527136D01*
X146296488Y-104547261D01*
X146240120Y-104560746D01*
X146149551Y-104568611D01*
X146017990Y-104571874D01*
X145838642Y-104571554D01*
X145604713Y-104568671D01*
X145330333Y-104564553D01*
X145035522Y-104559637D01*
X144726740Y-104553558D01*
X144420695Y-104546712D01*
X144134096Y-104539493D01*
X143883650Y-104532294D01*
X143704733Y-104526224D01*
X143508609Y-104517532D01*
X143338138Y-104507506D01*
X143203926Y-104496975D01*
X143116581Y-104486766D01*
X143086667Y-104477999D01*
X143090784Y-104453871D01*
X143106823Y-104433572D01*
X143140308Y-104416691D01*
X143196767Y-104402815D01*
X143281727Y-104391532D01*
X143400714Y-104382432D01*
X143559255Y-104375101D01*
X143762877Y-104369128D01*
X144017106Y-104364101D01*
X144327470Y-104359608D01*
X144699495Y-104355237D01*
X144739709Y-104354797D01*
X146294706Y-104337870D01*
X146315824Y-104416735D01*
X146328324Y-104462892D01*
X146333796Y-104499353D01*
X146498894Y-104499353D01*
X146493262Y-104431830D01*
X146469419Y-104245892D01*
X146436412Y-104125409D01*
X146230014Y-104125409D01*
X144888204Y-104134263D01*
X144593469Y-104136580D01*
X144320360Y-104139446D01*
X144076190Y-104142728D01*
X143868272Y-104146298D01*
X143703922Y-104150024D01*
X143590452Y-104153776D01*
X143535176Y-104157423D01*
X143531020Y-104158491D01*
X143491700Y-104166480D01*
X143404468Y-104172039D01*
X143301844Y-104173867D01*
X143088043Y-104173867D01*
X143018216Y-104036995D01*
X142959379Y-103935957D01*
X142898021Y-103851336D01*
X142882061Y-103833795D01*
X142832912Y-103772871D01*
X142815733Y-103731814D01*
X142798221Y-103689747D01*
X142760411Y-103622129D01*
X142497156Y-103622129D01*
X142492554Y-103634340D01*
X142459860Y-103664370D01*
X142443862Y-103630167D01*
X142443200Y-103613068D01*
X142459862Y-103578187D01*
X142477619Y-103581542D01*
X142497156Y-103622129D01*
X142760411Y-103622129D01*
X142751101Y-103605481D01*
X142698940Y-103520013D01*
X142273740Y-103520013D01*
X142270134Y-103641749D01*
X142255319Y-103715946D01*
X142223579Y-103762575D01*
X142198598Y-103782480D01*
X142073849Y-103831183D01*
X141932666Y-103814297D01*
X141885162Y-103795518D01*
X141782083Y-103719186D01*
X141711086Y-103608416D01*
X141672025Y-103477661D01*
X141664751Y-103341373D01*
X141689119Y-103214003D01*
X141744981Y-103110004D01*
X141832191Y-103043827D01*
X141892949Y-103028838D01*
X142035666Y-103043842D01*
X142148236Y-103116464D01*
X142226997Y-103241979D01*
X142268289Y-103415666D01*
X142273740Y-103520013D01*
X142698940Y-103520013D01*
X142682495Y-103493068D01*
X142633353Y-103416349D01*
X142519181Y-103236119D01*
X142426244Y-103079276D01*
X142358944Y-102953990D01*
X142321684Y-102868431D01*
X142318100Y-102831411D01*
X142355204Y-102825237D01*
X142448844Y-102817425D01*
X142587863Y-102808686D01*
X142761102Y-102799733D01*
X142930084Y-102792360D01*
X143526976Y-102768400D01*
X143526955Y-103013153D01*
X143529177Y-103143077D01*
X143539123Y-103223329D01*
X143561666Y-103271911D01*
X143601681Y-103306823D01*
X143607524Y-103310710D01*
X143684329Y-103338924D01*
X143799636Y-103357529D01*
X143930670Y-103365689D01*
X144054658Y-103362565D01*
X144148828Y-103347319D01*
X144181740Y-103331842D01*
X144205788Y-103279733D01*
X144215584Y-103225600D01*
X143911273Y-103225600D01*
X143836574Y-103225600D01*
X143769151Y-103205636D01*
X143742809Y-103175917D01*
X143729805Y-103106070D01*
X143756455Y-103086857D01*
X143813248Y-103122321D01*
X143829841Y-103138920D01*
X143911273Y-103225600D01*
X144215584Y-103225600D01*
X144224118Y-103178443D01*
X144232529Y-103067818D01*
X144234164Y-103039334D01*
X144068800Y-103039334D01*
X144061539Y-103125275D01*
X144035091Y-103151803D01*
X143982454Y-103120170D01*
X143926874Y-103064734D01*
X143824882Y-102933404D01*
X143764073Y-102791790D01*
X143750911Y-102742222D01*
X143740869Y-102692133D01*
X143749383Y-102678862D01*
X143786100Y-102705871D01*
X143860666Y-102776622D01*
X143868843Y-102784555D01*
X143949720Y-102858399D01*
X144013076Y-102907877D01*
X144039017Y-102920800D01*
X144058706Y-102950584D01*
X144068544Y-103023817D01*
X144068800Y-103039334D01*
X144234164Y-103039334D01*
X144239307Y-102949797D01*
X144248933Y-102860921D01*
X144259253Y-102820599D01*
X144303979Y-102810099D01*
X144403628Y-102804686D01*
X144545595Y-102804174D01*
X144717276Y-102808376D01*
X144906065Y-102817107D01*
X145099359Y-102830182D01*
X145140964Y-102833599D01*
X145484995Y-102862842D01*
X145630259Y-103086554D01*
X145752266Y-103279741D01*
X145881328Y-103493011D01*
X146004639Y-103704599D01*
X146109392Y-103892739D01*
X146151128Y-103971838D01*
X146230014Y-104125409D01*
X146436412Y-104125409D01*
X146426991Y-104091022D01*
X146359545Y-103937747D01*
X146235393Y-103700769D01*
X146099136Y-103458264D01*
X145961929Y-103229127D01*
X145834927Y-103032254D01*
X145771935Y-102942475D01*
X145700394Y-102838594D01*
X145648523Y-102751557D01*
X145626790Y-102699055D01*
X145626666Y-102696941D01*
X145611857Y-102653338D01*
X145601266Y-102648423D01*
X145558396Y-102645582D01*
X145464196Y-102639143D01*
X145334907Y-102630218D01*
X145254133Y-102624612D01*
X145066551Y-102614124D01*
X144849802Y-102605848D01*
X144642450Y-102601166D01*
X144585266Y-102600656D01*
X144238133Y-102599067D01*
X144238176Y-102573667D01*
X144068077Y-102573667D01*
X144062591Y-102673085D01*
X144047714Y-102737589D01*
X144034513Y-102751467D01*
X143999714Y-102725003D01*
X143943208Y-102656060D01*
X143885489Y-102572105D01*
X143814159Y-102445120D01*
X143786121Y-102350557D01*
X143788150Y-102301736D01*
X143805547Y-102210728D01*
X143936450Y-102303298D01*
X144013693Y-102363165D01*
X144052590Y-102418263D01*
X144066348Y-102495717D01*
X144068077Y-102573667D01*
X144238176Y-102573667D01*
X144238596Y-102328134D01*
X144240448Y-102152636D01*
X144249037Y-102033841D01*
X144269968Y-101960727D01*
X144292271Y-101938667D01*
X144138990Y-101938667D01*
X144126618Y-102003227D01*
X144113538Y-102101826D01*
X144110180Y-102133400D01*
X144093012Y-102221771D01*
X144066849Y-102272452D01*
X144056023Y-102277334D01*
X144016010Y-102251071D01*
X143958200Y-102184103D01*
X143923967Y-102135088D01*
X143869762Y-102039420D01*
X143836598Y-101957619D01*
X143831733Y-101930032D01*
X143841262Y-101892270D01*
X143880994Y-101876098D01*
X143967651Y-101876062D01*
X143992600Y-101877545D01*
X144092114Y-101889085D01*
X144136080Y-101910206D01*
X144138990Y-101938667D01*
X144292271Y-101938667D01*
X144308849Y-101922271D01*
X144371286Y-101907452D01*
X144453750Y-101905218D01*
X144547594Y-101908531D01*
X144692664Y-101917397D01*
X144872783Y-101930661D01*
X145071778Y-101947171D01*
X145186400Y-101957493D01*
X145398278Y-101976901D01*
X145609367Y-101995789D01*
X145800508Y-102012473D01*
X145952541Y-102025269D01*
X146005838Y-102029522D01*
X146266476Y-102049695D01*
X146288067Y-101951847D01*
X146307661Y-101867649D01*
X146321434Y-101814963D01*
X146326114Y-101770550D01*
X146332345Y-101669252D01*
X146339602Y-101521888D01*
X146347363Y-101339274D01*
X146355104Y-101132227D01*
X146356672Y-101086829D01*
X146364605Y-100876754D01*
X146373160Y-100689528D01*
X146381728Y-100535791D01*
X146389703Y-100426179D01*
X146396478Y-100371331D01*
X146397728Y-100367700D01*
X146414170Y-100383672D01*
X146442980Y-100452065D01*
X146478999Y-100559874D01*
X146494276Y-100611139D01*
X146532350Y-100748674D01*
X146551320Y-100841041D01*
X146552587Y-100907625D01*
X146537549Y-100967813D01*
X146522739Y-101005446D01*
X146457312Y-101249227D01*
X146454255Y-101515504D01*
X146507852Y-101781067D01*
X146551560Y-101916568D01*
X146587796Y-101997128D01*
X146622752Y-102034147D01*
X146648663Y-102040267D01*
X146710909Y-102018434D01*
X146730561Y-101993267D01*
X146773814Y-101953920D01*
X146851996Y-101925588D01*
X146922285Y-101903893D01*
X146940156Y-101867080D01*
X146931629Y-101828654D01*
X146885029Y-101664723D01*
X146858167Y-101538066D01*
X146852918Y-101458851D01*
X146859813Y-101439298D01*
X146896787Y-101443568D01*
X146953991Y-101490026D01*
X147017796Y-101562198D01*
X147074569Y-101643609D01*
X147110682Y-101717785D01*
X147116800Y-101749904D01*
X147123975Y-101816082D01*
X147154799Y-101848088D01*
X147223223Y-101851040D01*
X147338057Y-101831125D01*
X147461217Y-101801610D01*
X147533632Y-101766118D01*
X147561210Y-101711012D01*
X147555858Y-101669340D01*
X147382274Y-101669340D01*
X147354906Y-101705691D01*
X147339200Y-101712978D01*
X147295604Y-101701247D01*
X147269607Y-101635719D01*
X147227196Y-101544068D01*
X147148473Y-101443142D01*
X147053413Y-101353655D01*
X146961993Y-101296320D01*
X146933823Y-101287540D01*
X146811152Y-101292186D01*
X146718278Y-101348832D01*
X146665495Y-101444610D01*
X146663098Y-101566655D01*
X146675206Y-101610750D01*
X146702612Y-101703518D01*
X146707017Y-101752320D01*
X146689009Y-101749403D01*
X146667037Y-101718534D01*
X146646211Y-101649550D01*
X146632149Y-101532497D01*
X146627148Y-101386889D01*
X146627173Y-101379867D01*
X146638014Y-101182129D01*
X146668571Y-101047318D01*
X146719563Y-100973347D01*
X146772694Y-100956533D01*
X146856823Y-100979889D01*
X146963519Y-101039753D01*
X147071724Y-101120816D01*
X147160380Y-101207774D01*
X147201730Y-101268393D01*
X147256076Y-101377598D01*
X147315903Y-101491470D01*
X147319679Y-101498400D01*
X147370917Y-101604471D01*
X147382274Y-101669340D01*
X147555858Y-101669340D01*
X147549861Y-101622653D01*
X147505493Y-101487402D01*
X147497055Y-101464146D01*
X147420108Y-101284849D01*
X147329069Y-101143667D01*
X147243837Y-101048168D01*
X147180481Y-100982182D01*
X147133006Y-100923284D01*
X147095534Y-100857992D01*
X147062189Y-100772823D01*
X147060205Y-100766120D01*
X146879733Y-100766120D01*
X146854381Y-100813626D01*
X146828933Y-100821067D01*
X146783746Y-100814105D01*
X146778133Y-100808280D01*
X146800576Y-100779060D01*
X146828933Y-100753333D01*
X146868993Y-100729721D01*
X146879686Y-100760834D01*
X146879733Y-100766120D01*
X147060205Y-100766120D01*
X147027096Y-100654297D01*
X146989921Y-100510393D01*
X146774676Y-100510393D01*
X146751621Y-100634592D01*
X146741523Y-100656861D01*
X146711889Y-100699085D01*
X146685523Y-100698202D01*
X146657415Y-100647501D01*
X146622558Y-100540270D01*
X146603291Y-100471621D01*
X146573400Y-100350895D01*
X146565099Y-100276063D01*
X146577489Y-100229128D01*
X146590309Y-100211467D01*
X146635297Y-100139176D01*
X146654268Y-100092933D01*
X146182134Y-100092933D01*
X146181339Y-100231153D01*
X146178079Y-100406744D01*
X146172801Y-100608318D01*
X146165951Y-100824486D01*
X146157974Y-101043859D01*
X146149316Y-101255048D01*
X146140425Y-101446665D01*
X146131744Y-101607321D01*
X146123722Y-101725627D01*
X146116802Y-101790195D01*
X146115431Y-101796191D01*
X146075308Y-101816226D01*
X145976679Y-101823789D01*
X145827581Y-101819053D01*
X145636050Y-101802192D01*
X145474266Y-101782354D01*
X145370100Y-101770647D01*
X145207576Y-101755483D01*
X144995944Y-101737604D01*
X144744449Y-101717753D01*
X144462339Y-101696672D01*
X144158860Y-101675104D01*
X144018000Y-101665451D01*
X143799650Y-101649407D01*
X143584282Y-101631349D01*
X143389363Y-101612900D01*
X143232365Y-101595681D01*
X143154400Y-101585232D01*
X142900400Y-101546302D01*
X142917333Y-100565618D01*
X142923948Y-100162001D01*
X142928693Y-99819540D01*
X142931526Y-99531683D01*
X142932403Y-99291878D01*
X142931831Y-99190710D01*
X142753348Y-99190710D01*
X142751722Y-99360617D01*
X142748135Y-99572842D01*
X142742696Y-99835970D01*
X142735852Y-100143733D01*
X142730695Y-100380266D01*
X142725933Y-100613294D01*
X142721856Y-100827359D01*
X142718759Y-101006999D01*
X142716934Y-101136757D01*
X142716785Y-101151267D01*
X142712661Y-101279245D01*
X142703993Y-101376389D01*
X142692399Y-101426913D01*
X142688112Y-101430667D01*
X142650358Y-101410664D01*
X142577443Y-101358451D01*
X142493379Y-101291985D01*
X142394186Y-101206604D01*
X142267245Y-101091941D01*
X142132831Y-100966482D01*
X142063862Y-100900351D01*
X141948437Y-100786744D01*
X141875131Y-100708026D01*
X141836458Y-100652962D01*
X141824930Y-100610320D01*
X141833062Y-100568867D01*
X141836556Y-100559292D01*
X141860454Y-100469736D01*
X141877575Y-100364554D01*
X141698133Y-100364554D01*
X141690440Y-100491368D01*
X141670667Y-100573924D01*
X141643773Y-100606574D01*
X141614719Y-100583668D01*
X141588464Y-100499556D01*
X141586869Y-100491281D01*
X141546715Y-100268331D01*
X141521833Y-100107717D01*
X141512494Y-100005722D01*
X141518974Y-99958629D01*
X141541546Y-99962724D01*
X141580483Y-100014289D01*
X141617423Y-100076289D01*
X141682664Y-100242148D01*
X141698133Y-100364554D01*
X141877575Y-100364554D01*
X141879443Y-100353084D01*
X141883274Y-100315926D01*
X141899599Y-100176964D01*
X141924511Y-100024101D01*
X141953855Y-99878212D01*
X141983478Y-99760174D01*
X141985892Y-99753449D01*
X141808194Y-99753449D01*
X141792935Y-99844556D01*
X141774114Y-99899429D01*
X141765633Y-99906667D01*
X141739125Y-99878278D01*
X141698692Y-99805552D01*
X141671186Y-99745800D01*
X141629065Y-99628776D01*
X141618886Y-99528284D01*
X141633187Y-99418384D01*
X141657562Y-99306363D01*
X141678451Y-99243168D01*
X141692942Y-99234809D01*
X141698133Y-99284262D01*
X141713128Y-99356242D01*
X141750311Y-99451734D01*
X141761799Y-99475355D01*
X141807931Y-99613969D01*
X141808194Y-99753449D01*
X141985892Y-99753449D01*
X142006714Y-99695460D01*
X142029240Y-99617966D01*
X142036800Y-99537913D01*
X142045602Y-99472860D01*
X142069950Y-99355922D01*
X142106758Y-99200336D01*
X142131966Y-99101533D01*
X141952812Y-99101533D01*
X141936401Y-99170373D01*
X141932289Y-99180912D01*
X141892559Y-99280133D01*
X141846067Y-99110800D01*
X141820490Y-98996994D01*
X141807886Y-98898598D01*
X141808121Y-98864098D01*
X141817466Y-98826712D01*
X141837516Y-98836478D01*
X141875817Y-98899532D01*
X141894343Y-98934210D01*
X141940222Y-99032107D01*
X141952812Y-99101533D01*
X142131966Y-99101533D01*
X142152939Y-99019336D01*
X142188938Y-98885520D01*
X142244201Y-98683296D01*
X142282875Y-98535768D01*
X142306449Y-98432357D01*
X142309858Y-98408443D01*
X142134170Y-98408443D01*
X142110690Y-98525978D01*
X142084614Y-98619222D01*
X142045943Y-98722097D01*
X142012722Y-98758844D01*
X141987571Y-98731008D01*
X141973109Y-98640133D01*
X141970662Y-98552000D01*
X141983299Y-98437125D01*
X142015232Y-98346895D01*
X142058845Y-98296095D01*
X142102280Y-98296608D01*
X142131168Y-98335617D01*
X142134170Y-98408443D01*
X142309858Y-98408443D01*
X142316410Y-98362481D01*
X142314246Y-98315562D01*
X142301445Y-98281019D01*
X142279495Y-98248271D01*
X142278707Y-98247200D01*
X142185922Y-98173260D01*
X142095530Y-98152191D01*
X142032491Y-98150852D01*
X141982386Y-98166692D01*
X141930676Y-98210397D01*
X141862821Y-98292656D01*
X141811028Y-98361319D01*
X141724533Y-98471862D01*
X141667134Y-98530592D01*
X141632314Y-98543312D01*
X141619761Y-98531654D01*
X141607980Y-98482955D01*
X141592634Y-98378844D01*
X141575188Y-98231458D01*
X141557105Y-98052932D01*
X141543444Y-97899193D01*
X141526571Y-97705403D01*
X141510350Y-97533835D01*
X141496015Y-97396441D01*
X141484797Y-97305172D01*
X141478946Y-97273534D01*
X141476808Y-97235056D01*
X141484041Y-97231200D01*
X141525524Y-97254010D01*
X141607688Y-97318207D01*
X141723163Y-97417441D01*
X141864578Y-97545364D01*
X142024562Y-97695627D01*
X142036800Y-97707329D01*
X142169839Y-97831296D01*
X142310569Y-97956927D01*
X142436185Y-98064050D01*
X142481407Y-98100607D01*
X142672015Y-98250709D01*
X142715731Y-98579154D01*
X142728193Y-98675450D01*
X142738030Y-98762550D01*
X142745354Y-98849041D01*
X142750274Y-98943508D01*
X142752903Y-99054536D01*
X142753348Y-99190710D01*
X142931831Y-99190710D01*
X142931281Y-99093572D01*
X142928116Y-98930212D01*
X142922865Y-98795246D01*
X142915484Y-98682123D01*
X142905930Y-98584288D01*
X142904115Y-98568934D01*
X142875391Y-98331867D01*
X144225629Y-98322717D01*
X144534168Y-98321186D01*
X144832094Y-98320760D01*
X145110148Y-98321378D01*
X145359072Y-98322976D01*
X145569607Y-98325490D01*
X145732495Y-98328859D01*
X145838478Y-98333018D01*
X145850118Y-98333795D01*
X146124369Y-98354023D01*
X146152394Y-99054145D01*
X146161327Y-99292489D01*
X146169269Y-99533138D01*
X146175720Y-99758568D01*
X146180176Y-99951258D01*
X146182134Y-100092933D01*
X146654268Y-100092933D01*
X146661216Y-100076000D01*
X146678167Y-100033101D01*
X146693557Y-100036079D01*
X146713773Y-100092538D01*
X146732302Y-100160667D01*
X146768130Y-100346718D01*
X146774676Y-100510393D01*
X146989921Y-100510393D01*
X146984376Y-100488932D01*
X146963333Y-100404625D01*
X146914263Y-100214683D01*
X146863640Y-100031180D01*
X146816735Y-99872458D01*
X146791082Y-99794242D01*
X146548427Y-99794242D01*
X146546174Y-99904973D01*
X146533982Y-99977785D01*
X146510347Y-99990656D01*
X146480956Y-99949175D01*
X146451495Y-99858933D01*
X146438928Y-99799553D01*
X146427004Y-99669773D01*
X146431959Y-99538398D01*
X146434986Y-99517200D01*
X146457807Y-99381733D01*
X146497951Y-99483333D01*
X146535466Y-99621723D01*
X146548427Y-99794242D01*
X146791082Y-99794242D01*
X146778820Y-99756859D01*
X146771552Y-99737333D01*
X146718908Y-99612882D01*
X146651592Y-99470208D01*
X146576492Y-99321983D01*
X146500491Y-99180877D01*
X146430475Y-99059558D01*
X146373329Y-98970698D01*
X146335937Y-98926966D01*
X146329870Y-98924534D01*
X146313438Y-98894103D01*
X146306582Y-98801483D01*
X146309215Y-98644676D01*
X146313497Y-98552157D01*
X146333142Y-98179781D01*
X146285092Y-98122710D01*
X145999629Y-98122710D01*
X145985017Y-98132958D01*
X145949052Y-98141235D01*
X145886184Y-98147719D01*
X145790863Y-98152589D01*
X145657541Y-98156022D01*
X145480666Y-98158198D01*
X145254688Y-98159294D01*
X144974059Y-98159491D01*
X144633229Y-98158965D01*
X144495999Y-98158636D01*
X144177682Y-98157258D01*
X143878108Y-98154870D01*
X143604521Y-98151608D01*
X143364165Y-98147610D01*
X143164284Y-98143010D01*
X143012121Y-98137945D01*
X142914919Y-98132552D01*
X142882206Y-98128300D01*
X142818439Y-98093329D01*
X142715399Y-98019695D01*
X142582860Y-97915448D01*
X142430598Y-97788638D01*
X142268386Y-97647314D01*
X142106000Y-97499527D01*
X142019866Y-97418129D01*
X141914925Y-97320120D01*
X141819369Y-97235522D01*
X141750623Y-97179653D01*
X141740466Y-97172498D01*
X141684175Y-97127974D01*
X141664359Y-97100305D01*
X141696693Y-97094181D01*
X141787406Y-97088592D01*
X141927140Y-97083811D01*
X142106543Y-97080109D01*
X142316259Y-97077761D01*
X142460226Y-97077098D01*
X143256000Y-97075395D01*
X143256000Y-97320426D01*
X143260946Y-97496388D01*
X143278975Y-97616093D01*
X143314874Y-97690509D01*
X143373428Y-97730603D01*
X143441524Y-97745541D01*
X143571335Y-97741901D01*
X143707707Y-97709471D01*
X143820306Y-97656764D01*
X143854078Y-97629770D01*
X143878938Y-97591553D01*
X143879177Y-97581156D01*
X143515644Y-97581156D01*
X143510995Y-97601289D01*
X143493067Y-97603734D01*
X143465190Y-97591342D01*
X143470489Y-97581156D01*
X143510681Y-97577103D01*
X143515644Y-97581156D01*
X143879177Y-97581156D01*
X143880218Y-97536088D01*
X143879853Y-97534587D01*
X143717854Y-97534587D01*
X143709249Y-97576259D01*
X143677735Y-97574266D01*
X143621144Y-97532187D01*
X143553558Y-97465204D01*
X143489056Y-97388499D01*
X143441718Y-97317255D01*
X143425425Y-97270208D01*
X143441279Y-97249170D01*
X143495168Y-97269286D01*
X143535400Y-97292963D01*
X143626004Y-97367353D01*
X143690618Y-97454078D01*
X143717854Y-97534587D01*
X143879853Y-97534587D01*
X143857471Y-97442649D01*
X143849467Y-97415824D01*
X143819588Y-97303005D01*
X143801105Y-97205681D01*
X143798233Y-97171934D01*
X143799462Y-97161842D01*
X143662400Y-97161842D01*
X143642716Y-97194940D01*
X143582646Y-97175686D01*
X143538690Y-97147570D01*
X143490440Y-97098344D01*
X143453465Y-97036180D01*
X143437814Y-96983148D01*
X143453537Y-96961322D01*
X143453904Y-96961337D01*
X143498652Y-96984916D01*
X143562674Y-97038762D01*
X143623785Y-97101541D01*
X143659799Y-97151917D01*
X143662400Y-97161842D01*
X143799462Y-97161842D01*
X143803310Y-97130275D01*
X143829355Y-97107440D01*
X143891830Y-97097875D01*
X144006194Y-97096027D01*
X144009533Y-97096031D01*
X144124906Y-97098678D01*
X144287161Y-97105693D01*
X144475663Y-97116039D01*
X144669777Y-97128685D01*
X144689879Y-97130121D01*
X145158558Y-97163914D01*
X145318416Y-97324557D01*
X145408700Y-97418817D01*
X145517968Y-97538190D01*
X145635976Y-97670840D01*
X145752480Y-97804932D01*
X145857239Y-97928630D01*
X145940009Y-98030097D01*
X145990546Y-98097499D01*
X145998438Y-98110311D01*
X145999629Y-98122710D01*
X146285092Y-98122710D01*
X146157704Y-97971410D01*
X146065684Y-97864025D01*
X145943745Y-97724396D01*
X145807567Y-97570361D01*
X145672834Y-97419760D01*
X145669000Y-97415505D01*
X145554685Y-97284878D01*
X145459053Y-97168346D01*
X145390514Y-97076713D01*
X145357477Y-97020780D01*
X145355733Y-97013052D01*
X145341756Y-96979248D01*
X145289793Y-96964535D01*
X145194866Y-96963932D01*
X145093663Y-96964822D01*
X144951742Y-96962360D01*
X144781328Y-96957152D01*
X144594646Y-96949806D01*
X144403921Y-96940925D01*
X144221378Y-96931119D01*
X144059242Y-96920991D01*
X143929737Y-96911150D01*
X143845088Y-96902200D01*
X143817449Y-96895619D01*
X143819304Y-96852272D01*
X143836480Y-96794369D01*
X143850698Y-96756697D01*
X143714947Y-96756697D01*
X143712137Y-96774000D01*
X143686894Y-96854802D01*
X143680396Y-96875600D01*
X143655234Y-96920045D01*
X143616745Y-96910422D01*
X143558888Y-96850200D01*
X143505874Y-96776629D01*
X143507360Y-96738074D01*
X143567561Y-96724176D01*
X143610537Y-96723200D01*
X143690086Y-96730589D01*
X143714947Y-96756697D01*
X143850698Y-96756697D01*
X143867140Y-96713137D01*
X144653770Y-96742684D01*
X144889462Y-96751290D01*
X145112872Y-96758988D01*
X145311580Y-96765387D01*
X145473167Y-96770094D01*
X145585213Y-96772717D01*
X145616728Y-96773116D01*
X145718981Y-96775844D01*
X145768526Y-96787572D01*
X145780365Y-96815622D01*
X145774003Y-96849885D01*
X145777338Y-96921142D01*
X145809772Y-96946807D01*
X145868912Y-96952355D01*
X145915276Y-96913408D01*
X145952258Y-96823313D01*
X145983250Y-96675422D01*
X145989551Y-96632457D01*
X145806068Y-96632457D01*
X145487767Y-96609560D01*
X145361888Y-96601649D01*
X145182529Y-96591956D01*
X144963896Y-96581168D01*
X144720198Y-96569970D01*
X144465642Y-96559050D01*
X144322800Y-96553278D01*
X143975053Y-96539087D01*
X143637458Y-96524401D01*
X143316702Y-96509580D01*
X143019469Y-96494982D01*
X142752444Y-96480965D01*
X142522311Y-96467890D01*
X142335755Y-96456113D01*
X142199461Y-96445995D01*
X142120114Y-96437894D01*
X142102565Y-96434117D01*
X142082054Y-96386085D01*
X142080011Y-96292044D01*
X142093957Y-96170400D01*
X142099020Y-96146275D01*
X141901333Y-96146275D01*
X141895873Y-96273246D01*
X141877752Y-96337178D01*
X141844361Y-96342014D01*
X141799733Y-96299867D01*
X141742074Y-96256831D01*
X141710920Y-96249067D01*
X141668688Y-96223046D01*
X141664266Y-96203915D01*
X141671409Y-96129311D01*
X141689519Y-96028872D01*
X141713617Y-95923459D01*
X141738725Y-95833930D01*
X141759866Y-95781145D01*
X141766647Y-95774934D01*
X141816921Y-95806134D01*
X141859984Y-95889098D01*
X141890051Y-96007871D01*
X141901333Y-96146275D01*
X142099020Y-96146275D01*
X142121417Y-96039560D01*
X142159915Y-95917929D01*
X142177587Y-95876534D01*
X142272450Y-95611901D01*
X142324616Y-95324757D01*
X142328926Y-95045165D01*
X142325876Y-95012560D01*
X142316133Y-94900911D01*
X142313454Y-94821801D01*
X142318195Y-94792800D01*
X142353770Y-94805460D01*
X142438299Y-94839820D01*
X142558672Y-94890454D01*
X142684957Y-94944647D01*
X142866632Y-95021139D01*
X142995808Y-95069279D01*
X143080783Y-95090573D01*
X143129853Y-95086527D01*
X143151317Y-95058647D01*
X143154400Y-95029867D01*
X143167019Y-94976653D01*
X143211429Y-94966927D01*
X143297459Y-94999708D01*
X143323827Y-95012982D01*
X143422157Y-95063831D01*
X143339079Y-95146909D01*
X143270352Y-95245219D01*
X143261963Y-95336872D01*
X143296640Y-95395627D01*
X143310580Y-95423607D01*
X143270574Y-95435085D01*
X143227844Y-95436267D01*
X143135356Y-95419156D01*
X143099466Y-95377000D01*
X143054382Y-95261408D01*
X143011538Y-95198445D01*
X142975700Y-95195047D01*
X142974900Y-95195820D01*
X142966228Y-95247050D01*
X142992427Y-95327323D01*
X143042375Y-95415958D01*
X143104946Y-95492279D01*
X143154400Y-95529478D01*
X143241571Y-95552655D01*
X143383589Y-95564926D01*
X143539157Y-95565902D01*
X143707273Y-95557851D01*
X143820328Y-95539614D01*
X143890724Y-95507046D01*
X143930865Y-95456002D01*
X143940478Y-95431764D01*
X143950288Y-95425916D01*
X143816532Y-95425916D01*
X143801860Y-95461788D01*
X143753808Y-95470075D01*
X143744292Y-95470134D01*
X143684819Y-95460317D01*
X143675473Y-95417179D01*
X143681568Y-95388621D01*
X143682430Y-95320366D01*
X143580081Y-95320366D01*
X143578654Y-95367044D01*
X143539819Y-95399264D01*
X143482847Y-95382763D01*
X143423437Y-95339942D01*
X143374180Y-95274607D01*
X143370405Y-95210808D01*
X143410003Y-95170237D01*
X143440423Y-95165334D01*
X143494357Y-95191323D01*
X143546915Y-95251764D01*
X143580081Y-95320366D01*
X143682430Y-95320366D01*
X143682748Y-95295262D01*
X143664088Y-95236221D01*
X143643171Y-95181824D01*
X143665288Y-95165900D01*
X143669675Y-95165852D01*
X143742638Y-95188248D01*
X143788095Y-95259969D01*
X143807434Y-95343134D01*
X143816532Y-95425916D01*
X143950288Y-95425916D01*
X143966956Y-95415980D01*
X144036224Y-95416217D01*
X144156635Y-95433060D01*
X144277250Y-95455320D01*
X144435675Y-95488935D01*
X144539118Y-95518681D01*
X144599804Y-95549124D01*
X144629957Y-95584825D01*
X144631148Y-95587427D01*
X144651201Y-95619237D01*
X144686628Y-95639695D01*
X144750924Y-95651454D01*
X144857586Y-95657163D01*
X144996997Y-95659287D01*
X145152390Y-95661822D01*
X145255213Y-95668336D01*
X145320625Y-95682011D01*
X145363785Y-95706032D01*
X145399852Y-95743582D01*
X145400159Y-95743954D01*
X145446454Y-95814419D01*
X145509965Y-95929713D01*
X145582121Y-96072029D01*
X145654355Y-96223563D01*
X145718096Y-96366509D01*
X145764776Y-96483062D01*
X145782407Y-96538184D01*
X145806068Y-96632457D01*
X145989551Y-96632457D01*
X145997365Y-96579186D01*
X146017750Y-96435906D01*
X146037252Y-96314909D01*
X146052851Y-96234296D01*
X146058088Y-96215200D01*
X146067911Y-96150465D01*
X146072632Y-96034479D01*
X146072709Y-95883496D01*
X146070840Y-95806191D01*
X145914993Y-95806191D01*
X145914349Y-95814806D01*
X145908844Y-95893389D01*
X145903676Y-96007823D01*
X145901403Y-96079733D01*
X145896330Y-96173754D01*
X145884826Y-96218473D01*
X145863299Y-96210679D01*
X145828156Y-96147166D01*
X145775805Y-96024725D01*
X145740232Y-95935800D01*
X145691407Y-95824190D01*
X145646754Y-95742534D01*
X145615161Y-95706837D01*
X145612849Y-95706403D01*
X145577064Y-95680777D01*
X145512479Y-95612869D01*
X145440339Y-95526858D01*
X145183612Y-95526858D01*
X145158185Y-95560926D01*
X145078711Y-95569756D01*
X145059400Y-95569587D01*
X144982971Y-95566221D01*
X144971854Y-95559513D01*
X144836074Y-95559513D01*
X144802688Y-95571411D01*
X144784792Y-95571734D01*
X144722901Y-95546948D01*
X144693150Y-95478600D01*
X144668106Y-95374153D01*
X144647364Y-95320574D01*
X144623659Y-95301990D01*
X144611729Y-95300800D01*
X144583205Y-95329108D01*
X144576800Y-95367471D01*
X144559763Y-95416133D01*
X144534466Y-95419943D01*
X144476946Y-95403133D01*
X144383765Y-95378100D01*
X144347902Y-95368820D01*
X144259029Y-95341930D01*
X144221640Y-95312576D01*
X144221228Y-95293235D01*
X143998937Y-95293235D01*
X143968433Y-95300167D01*
X143960732Y-95300282D01*
X143899497Y-95283024D01*
X143882533Y-95266934D01*
X143879800Y-95237017D01*
X143920183Y-95241989D01*
X143967200Y-95266934D01*
X143998937Y-95293235D01*
X144221228Y-95293235D01*
X144220642Y-95265837D01*
X144224916Y-95247250D01*
X144219429Y-95147421D01*
X144186098Y-95096236D01*
X144146569Y-95047707D01*
X144139768Y-95029867D01*
X144175806Y-95040028D01*
X144260684Y-95067222D01*
X144379169Y-95106519D01*
X144441350Y-95127501D01*
X144578346Y-95175176D01*
X144664272Y-95211233D01*
X144712436Y-95245118D01*
X144736143Y-95286275D01*
X144748699Y-95344149D01*
X144748980Y-95345859D01*
X144774303Y-95442512D01*
X144809293Y-95515187D01*
X144812394Y-95519159D01*
X144836074Y-95559513D01*
X144971854Y-95559513D01*
X144967634Y-95556967D01*
X145006764Y-95537551D01*
X145008600Y-95536811D01*
X145067537Y-95494028D01*
X145084800Y-95454291D01*
X145099290Y-95415187D01*
X145017066Y-95415187D01*
X144993284Y-95459727D01*
X144938841Y-95467779D01*
X144879088Y-95440935D01*
X144848925Y-95404627D01*
X144817912Y-95335174D01*
X144828043Y-95305854D01*
X144866665Y-95300800D01*
X144901719Y-95317218D01*
X144898533Y-95334667D01*
X144889381Y-95389378D01*
X144922687Y-95416311D01*
X144969282Y-95399898D01*
X145007540Y-95379546D01*
X145017066Y-95415187D01*
X145099290Y-95415187D01*
X145102024Y-95407810D01*
X145138437Y-95413931D01*
X145165843Y-95455970D01*
X145183612Y-95526858D01*
X145440339Y-95526858D01*
X145430384Y-95514990D01*
X145389600Y-95462965D01*
X145261683Y-95300800D01*
X145017066Y-95300800D01*
X145004675Y-95328676D01*
X144994489Y-95323378D01*
X144990436Y-95283186D01*
X144994489Y-95278222D01*
X145014622Y-95282871D01*
X145017066Y-95300800D01*
X145261683Y-95300800D01*
X145208348Y-95233187D01*
X145059612Y-95058884D01*
X144940926Y-94937535D01*
X144849821Y-94866614D01*
X144783946Y-94843600D01*
X144707524Y-94862248D01*
X144688942Y-94910750D01*
X144727688Y-94972717D01*
X144769503Y-95020961D01*
X144780000Y-95041067D01*
X144749014Y-95041955D01*
X144657797Y-95018365D01*
X144508961Y-94971091D01*
X144305120Y-94900923D01*
X144231449Y-94874747D01*
X144097179Y-94829096D01*
X144010314Y-94807155D01*
X143955727Y-94806603D01*
X143918291Y-94825118D01*
X143916677Y-94826437D01*
X143878835Y-94892861D01*
X143884025Y-94968928D01*
X143893947Y-95036376D01*
X143869997Y-95054873D01*
X143809331Y-95044084D01*
X143728053Y-95016184D01*
X143605580Y-94963770D01*
X143459802Y-94895437D01*
X143308611Y-94819786D01*
X143169898Y-94745413D01*
X143086667Y-94696788D01*
X142985145Y-94648885D01*
X142886723Y-94624408D01*
X142871156Y-94623593D01*
X142804201Y-94630524D01*
X142783851Y-94665712D01*
X142789091Y-94725067D01*
X142797249Y-94796113D01*
X142796254Y-94826645D01*
X142796091Y-94826667D01*
X142763461Y-94813766D01*
X142685334Y-94779863D01*
X142577795Y-94732154D01*
X142456931Y-94677837D01*
X142338828Y-94624110D01*
X142239572Y-94578171D01*
X142218458Y-94568210D01*
X142101454Y-94527326D01*
X142027921Y-94537463D01*
X141995929Y-94599374D01*
X141995322Y-94655539D01*
X142015401Y-94744795D01*
X142051288Y-94804902D01*
X142053428Y-94806626D01*
X142096597Y-94874537D01*
X142126345Y-94992178D01*
X142141019Y-95142578D01*
X142138966Y-95308764D01*
X142118535Y-95473763D01*
X142118437Y-95474278D01*
X142092953Y-95596593D01*
X142068673Y-95694009D01*
X142050762Y-95745861D01*
X142050455Y-95746371D01*
X142021856Y-95747571D01*
X141979855Y-95702174D01*
X141934173Y-95627245D01*
X141894532Y-95539850D01*
X141870654Y-95457055D01*
X141867640Y-95425445D01*
X141858428Y-95357516D01*
X141820492Y-95338394D01*
X141791266Y-95340778D01*
X141748806Y-95357759D01*
X141711236Y-95403561D01*
X141671159Y-95490662D01*
X141624190Y-95622534D01*
X141577344Y-95773901D01*
X141537121Y-95924742D01*
X141511244Y-96045729D01*
X141509060Y-96059610D01*
X141492969Y-96155060D01*
X141477397Y-96193181D01*
X141455581Y-96183983D01*
X141439070Y-96163203D01*
X141401309Y-96079166D01*
X141393333Y-96026607D01*
X141369961Y-95939475D01*
X141311860Y-95891569D01*
X141237057Y-95895766D01*
X141221684Y-95903987D01*
X141177497Y-95921729D01*
X141138829Y-95902575D01*
X141089134Y-95836250D01*
X141073648Y-95812045D01*
X141008408Y-95687241D01*
X140936859Y-95515671D01*
X140865631Y-95317058D01*
X140801355Y-95111121D01*
X140750662Y-94917581D01*
X140721215Y-94763828D01*
X140706676Y-94439248D01*
X140752563Y-94127601D01*
X140832037Y-93895334D01*
X140923987Y-93724780D01*
X141020317Y-93617234D01*
X141118949Y-93574932D01*
X141130178Y-93574353D01*
X141182458Y-93545214D01*
X141239579Y-93471759D01*
X141254109Y-93445499D01*
X141314359Y-93354742D01*
X141382555Y-93288971D01*
X141398731Y-93279484D01*
X141510260Y-93242463D01*
X141672765Y-93209351D01*
X141869532Y-93181614D01*
X142083847Y-93160719D01*
X142298996Y-93148129D01*
X142498265Y-93145312D01*
X142664941Y-93153732D01*
X142731067Y-93162656D01*
X142855169Y-93181989D01*
X143020117Y-93203819D01*
X143199281Y-93224738D01*
X143291997Y-93234401D01*
X143541706Y-93267076D01*
X143808281Y-93315822D01*
X144079944Y-93377220D01*
X144344915Y-93447845D01*
X144591415Y-93524276D01*
X144807665Y-93603090D01*
X144981886Y-93680866D01*
X145102298Y-93754180D01*
X145114052Y-93763774D01*
X145226059Y-93885127D01*
X145346361Y-94059034D01*
X145468717Y-94271891D01*
X145586883Y-94510099D01*
X145694618Y-94760054D01*
X145785681Y-95008154D01*
X145853829Y-95240799D01*
X145892820Y-95444386D01*
X145895222Y-95466009D01*
X145907242Y-95604698D01*
X145914247Y-95725656D01*
X145914993Y-95806191D01*
X146070840Y-95806191D01*
X146068604Y-95713770D01*
X146060778Y-95541554D01*
X146049690Y-95383102D01*
X146035801Y-95254667D01*
X146029794Y-95216609D01*
X145985021Y-95039091D01*
X145912027Y-94831489D01*
X145817397Y-94606533D01*
X145707712Y-94376952D01*
X145589557Y-94155475D01*
X145469515Y-93954831D01*
X145354170Y-93787749D01*
X145250105Y-93666959D01*
X145210463Y-93632420D01*
X145021023Y-93515070D01*
X144774327Y-93404456D01*
X144480769Y-93303929D01*
X144150742Y-93216834D01*
X143794640Y-93146522D01*
X143620067Y-93120066D01*
X143408378Y-93090867D01*
X143169159Y-93057521D01*
X142939681Y-93025236D01*
X142833010Y-93010088D01*
X142632957Y-92985146D01*
X142457480Y-92973255D01*
X142287755Y-92975255D01*
G04 #@! TD*
M02*
