G04 #@! TF.GenerationSoftware,KiCad,Pcbnew,(5.1.4)-1*
G04 #@! TF.CreationDate,2020-11-03T16:52:14-06:00*
G04 #@! TF.ProjectId,RaspberryPiBreakout_Hardware,52617370-6265-4727-9279-506942726561,rev?*
G04 #@! TF.SameCoordinates,Original*
G04 #@! TF.FileFunction,Paste,Top*
G04 #@! TF.FilePolarity,Positive*
%FSLAX46Y46*%
G04 Gerber Fmt 4.6, Leading zero omitted, Abs format (unit mm)*
G04 Created by KiCad (PCBNEW (5.1.4)-1) date 2020-11-03 16:52:14*
%MOMM*%
%LPD*%
G04 APERTURE LIST*
%ADD10C,0.100000*%
%ADD11C,0.950000*%
%ADD12C,5.080000*%
G04 APERTURE END LIST*
D10*
G36*
X117940779Y-105571144D02*
G01*
X117963834Y-105574563D01*
X117986443Y-105580227D01*
X118008387Y-105588079D01*
X118029457Y-105598044D01*
X118049448Y-105610026D01*
X118068168Y-105623910D01*
X118085438Y-105639562D01*
X118101090Y-105656832D01*
X118114974Y-105675552D01*
X118126956Y-105695543D01*
X118136921Y-105716613D01*
X118144773Y-105738557D01*
X118150437Y-105761166D01*
X118153856Y-105784221D01*
X118155000Y-105807500D01*
X118155000Y-106282500D01*
X118153856Y-106305779D01*
X118150437Y-106328834D01*
X118144773Y-106351443D01*
X118136921Y-106373387D01*
X118126956Y-106394457D01*
X118114974Y-106414448D01*
X118101090Y-106433168D01*
X118085438Y-106450438D01*
X118068168Y-106466090D01*
X118049448Y-106479974D01*
X118029457Y-106491956D01*
X118008387Y-106501921D01*
X117986443Y-106509773D01*
X117963834Y-106515437D01*
X117940779Y-106518856D01*
X117917500Y-106520000D01*
X117342500Y-106520000D01*
X117319221Y-106518856D01*
X117296166Y-106515437D01*
X117273557Y-106509773D01*
X117251613Y-106501921D01*
X117230543Y-106491956D01*
X117210552Y-106479974D01*
X117191832Y-106466090D01*
X117174562Y-106450438D01*
X117158910Y-106433168D01*
X117145026Y-106414448D01*
X117133044Y-106394457D01*
X117123079Y-106373387D01*
X117115227Y-106351443D01*
X117109563Y-106328834D01*
X117106144Y-106305779D01*
X117105000Y-106282500D01*
X117105000Y-105807500D01*
X117106144Y-105784221D01*
X117109563Y-105761166D01*
X117115227Y-105738557D01*
X117123079Y-105716613D01*
X117133044Y-105695543D01*
X117145026Y-105675552D01*
X117158910Y-105656832D01*
X117174562Y-105639562D01*
X117191832Y-105623910D01*
X117210552Y-105610026D01*
X117230543Y-105598044D01*
X117251613Y-105588079D01*
X117273557Y-105580227D01*
X117296166Y-105574563D01*
X117319221Y-105571144D01*
X117342500Y-105570000D01*
X117917500Y-105570000D01*
X117940779Y-105571144D01*
X117940779Y-105571144D01*
G37*
D11*
X117630000Y-106045000D03*
D10*
G36*
X119690779Y-105571144D02*
G01*
X119713834Y-105574563D01*
X119736443Y-105580227D01*
X119758387Y-105588079D01*
X119779457Y-105598044D01*
X119799448Y-105610026D01*
X119818168Y-105623910D01*
X119835438Y-105639562D01*
X119851090Y-105656832D01*
X119864974Y-105675552D01*
X119876956Y-105695543D01*
X119886921Y-105716613D01*
X119894773Y-105738557D01*
X119900437Y-105761166D01*
X119903856Y-105784221D01*
X119905000Y-105807500D01*
X119905000Y-106282500D01*
X119903856Y-106305779D01*
X119900437Y-106328834D01*
X119894773Y-106351443D01*
X119886921Y-106373387D01*
X119876956Y-106394457D01*
X119864974Y-106414448D01*
X119851090Y-106433168D01*
X119835438Y-106450438D01*
X119818168Y-106466090D01*
X119799448Y-106479974D01*
X119779457Y-106491956D01*
X119758387Y-106501921D01*
X119736443Y-106509773D01*
X119713834Y-106515437D01*
X119690779Y-106518856D01*
X119667500Y-106520000D01*
X119092500Y-106520000D01*
X119069221Y-106518856D01*
X119046166Y-106515437D01*
X119023557Y-106509773D01*
X119001613Y-106501921D01*
X118980543Y-106491956D01*
X118960552Y-106479974D01*
X118941832Y-106466090D01*
X118924562Y-106450438D01*
X118908910Y-106433168D01*
X118895026Y-106414448D01*
X118883044Y-106394457D01*
X118873079Y-106373387D01*
X118865227Y-106351443D01*
X118859563Y-106328834D01*
X118856144Y-106305779D01*
X118855000Y-106282500D01*
X118855000Y-105807500D01*
X118856144Y-105784221D01*
X118859563Y-105761166D01*
X118865227Y-105738557D01*
X118873079Y-105716613D01*
X118883044Y-105695543D01*
X118895026Y-105675552D01*
X118908910Y-105656832D01*
X118924562Y-105639562D01*
X118941832Y-105623910D01*
X118960552Y-105610026D01*
X118980543Y-105598044D01*
X119001613Y-105588079D01*
X119023557Y-105580227D01*
X119046166Y-105574563D01*
X119069221Y-105571144D01*
X119092500Y-105570000D01*
X119667500Y-105570000D01*
X119690779Y-105571144D01*
X119690779Y-105571144D01*
G37*
D11*
X119380000Y-106045000D03*
D12*
X86360000Y-81026000D03*
X86360000Y-88900000D03*
D10*
G36*
X114455779Y-105571144D02*
G01*
X114478834Y-105574563D01*
X114501443Y-105580227D01*
X114523387Y-105588079D01*
X114544457Y-105598044D01*
X114564448Y-105610026D01*
X114583168Y-105623910D01*
X114600438Y-105639562D01*
X114616090Y-105656832D01*
X114629974Y-105675552D01*
X114641956Y-105695543D01*
X114651921Y-105716613D01*
X114659773Y-105738557D01*
X114665437Y-105761166D01*
X114668856Y-105784221D01*
X114670000Y-105807500D01*
X114670000Y-106282500D01*
X114668856Y-106305779D01*
X114665437Y-106328834D01*
X114659773Y-106351443D01*
X114651921Y-106373387D01*
X114641956Y-106394457D01*
X114629974Y-106414448D01*
X114616090Y-106433168D01*
X114600438Y-106450438D01*
X114583168Y-106466090D01*
X114564448Y-106479974D01*
X114544457Y-106491956D01*
X114523387Y-106501921D01*
X114501443Y-106509773D01*
X114478834Y-106515437D01*
X114455779Y-106518856D01*
X114432500Y-106520000D01*
X113857500Y-106520000D01*
X113834221Y-106518856D01*
X113811166Y-106515437D01*
X113788557Y-106509773D01*
X113766613Y-106501921D01*
X113745543Y-106491956D01*
X113725552Y-106479974D01*
X113706832Y-106466090D01*
X113689562Y-106450438D01*
X113673910Y-106433168D01*
X113660026Y-106414448D01*
X113648044Y-106394457D01*
X113638079Y-106373387D01*
X113630227Y-106351443D01*
X113624563Y-106328834D01*
X113621144Y-106305779D01*
X113620000Y-106282500D01*
X113620000Y-105807500D01*
X113621144Y-105784221D01*
X113624563Y-105761166D01*
X113630227Y-105738557D01*
X113638079Y-105716613D01*
X113648044Y-105695543D01*
X113660026Y-105675552D01*
X113673910Y-105656832D01*
X113689562Y-105639562D01*
X113706832Y-105623910D01*
X113725552Y-105610026D01*
X113745543Y-105598044D01*
X113766613Y-105588079D01*
X113788557Y-105580227D01*
X113811166Y-105574563D01*
X113834221Y-105571144D01*
X113857500Y-105570000D01*
X114432500Y-105570000D01*
X114455779Y-105571144D01*
X114455779Y-105571144D01*
G37*
D11*
X114145000Y-106045000D03*
D10*
G36*
X112705779Y-105571144D02*
G01*
X112728834Y-105574563D01*
X112751443Y-105580227D01*
X112773387Y-105588079D01*
X112794457Y-105598044D01*
X112814448Y-105610026D01*
X112833168Y-105623910D01*
X112850438Y-105639562D01*
X112866090Y-105656832D01*
X112879974Y-105675552D01*
X112891956Y-105695543D01*
X112901921Y-105716613D01*
X112909773Y-105738557D01*
X112915437Y-105761166D01*
X112918856Y-105784221D01*
X112920000Y-105807500D01*
X112920000Y-106282500D01*
X112918856Y-106305779D01*
X112915437Y-106328834D01*
X112909773Y-106351443D01*
X112901921Y-106373387D01*
X112891956Y-106394457D01*
X112879974Y-106414448D01*
X112866090Y-106433168D01*
X112850438Y-106450438D01*
X112833168Y-106466090D01*
X112814448Y-106479974D01*
X112794457Y-106491956D01*
X112773387Y-106501921D01*
X112751443Y-106509773D01*
X112728834Y-106515437D01*
X112705779Y-106518856D01*
X112682500Y-106520000D01*
X112107500Y-106520000D01*
X112084221Y-106518856D01*
X112061166Y-106515437D01*
X112038557Y-106509773D01*
X112016613Y-106501921D01*
X111995543Y-106491956D01*
X111975552Y-106479974D01*
X111956832Y-106466090D01*
X111939562Y-106450438D01*
X111923910Y-106433168D01*
X111910026Y-106414448D01*
X111898044Y-106394457D01*
X111888079Y-106373387D01*
X111880227Y-106351443D01*
X111874563Y-106328834D01*
X111871144Y-106305779D01*
X111870000Y-106282500D01*
X111870000Y-105807500D01*
X111871144Y-105784221D01*
X111874563Y-105761166D01*
X111880227Y-105738557D01*
X111888079Y-105716613D01*
X111898044Y-105695543D01*
X111910026Y-105675552D01*
X111923910Y-105656832D01*
X111939562Y-105639562D01*
X111956832Y-105623910D01*
X111975552Y-105610026D01*
X111995543Y-105598044D01*
X112016613Y-105588079D01*
X112038557Y-105580227D01*
X112061166Y-105574563D01*
X112084221Y-105571144D01*
X112107500Y-105570000D01*
X112682500Y-105570000D01*
X112705779Y-105571144D01*
X112705779Y-105571144D01*
G37*
D11*
X112395000Y-106045000D03*
D10*
G36*
X107625779Y-105571144D02*
G01*
X107648834Y-105574563D01*
X107671443Y-105580227D01*
X107693387Y-105588079D01*
X107714457Y-105598044D01*
X107734448Y-105610026D01*
X107753168Y-105623910D01*
X107770438Y-105639562D01*
X107786090Y-105656832D01*
X107799974Y-105675552D01*
X107811956Y-105695543D01*
X107821921Y-105716613D01*
X107829773Y-105738557D01*
X107835437Y-105761166D01*
X107838856Y-105784221D01*
X107840000Y-105807500D01*
X107840000Y-106282500D01*
X107838856Y-106305779D01*
X107835437Y-106328834D01*
X107829773Y-106351443D01*
X107821921Y-106373387D01*
X107811956Y-106394457D01*
X107799974Y-106414448D01*
X107786090Y-106433168D01*
X107770438Y-106450438D01*
X107753168Y-106466090D01*
X107734448Y-106479974D01*
X107714457Y-106491956D01*
X107693387Y-106501921D01*
X107671443Y-106509773D01*
X107648834Y-106515437D01*
X107625779Y-106518856D01*
X107602500Y-106520000D01*
X107027500Y-106520000D01*
X107004221Y-106518856D01*
X106981166Y-106515437D01*
X106958557Y-106509773D01*
X106936613Y-106501921D01*
X106915543Y-106491956D01*
X106895552Y-106479974D01*
X106876832Y-106466090D01*
X106859562Y-106450438D01*
X106843910Y-106433168D01*
X106830026Y-106414448D01*
X106818044Y-106394457D01*
X106808079Y-106373387D01*
X106800227Y-106351443D01*
X106794563Y-106328834D01*
X106791144Y-106305779D01*
X106790000Y-106282500D01*
X106790000Y-105807500D01*
X106791144Y-105784221D01*
X106794563Y-105761166D01*
X106800227Y-105738557D01*
X106808079Y-105716613D01*
X106818044Y-105695543D01*
X106830026Y-105675552D01*
X106843910Y-105656832D01*
X106859562Y-105639562D01*
X106876832Y-105623910D01*
X106895552Y-105610026D01*
X106915543Y-105598044D01*
X106936613Y-105588079D01*
X106958557Y-105580227D01*
X106981166Y-105574563D01*
X107004221Y-105571144D01*
X107027500Y-105570000D01*
X107602500Y-105570000D01*
X107625779Y-105571144D01*
X107625779Y-105571144D01*
G37*
D11*
X107315000Y-106045000D03*
D10*
G36*
X105875779Y-105571144D02*
G01*
X105898834Y-105574563D01*
X105921443Y-105580227D01*
X105943387Y-105588079D01*
X105964457Y-105598044D01*
X105984448Y-105610026D01*
X106003168Y-105623910D01*
X106020438Y-105639562D01*
X106036090Y-105656832D01*
X106049974Y-105675552D01*
X106061956Y-105695543D01*
X106071921Y-105716613D01*
X106079773Y-105738557D01*
X106085437Y-105761166D01*
X106088856Y-105784221D01*
X106090000Y-105807500D01*
X106090000Y-106282500D01*
X106088856Y-106305779D01*
X106085437Y-106328834D01*
X106079773Y-106351443D01*
X106071921Y-106373387D01*
X106061956Y-106394457D01*
X106049974Y-106414448D01*
X106036090Y-106433168D01*
X106020438Y-106450438D01*
X106003168Y-106466090D01*
X105984448Y-106479974D01*
X105964457Y-106491956D01*
X105943387Y-106501921D01*
X105921443Y-106509773D01*
X105898834Y-106515437D01*
X105875779Y-106518856D01*
X105852500Y-106520000D01*
X105277500Y-106520000D01*
X105254221Y-106518856D01*
X105231166Y-106515437D01*
X105208557Y-106509773D01*
X105186613Y-106501921D01*
X105165543Y-106491956D01*
X105145552Y-106479974D01*
X105126832Y-106466090D01*
X105109562Y-106450438D01*
X105093910Y-106433168D01*
X105080026Y-106414448D01*
X105068044Y-106394457D01*
X105058079Y-106373387D01*
X105050227Y-106351443D01*
X105044563Y-106328834D01*
X105041144Y-106305779D01*
X105040000Y-106282500D01*
X105040000Y-105807500D01*
X105041144Y-105784221D01*
X105044563Y-105761166D01*
X105050227Y-105738557D01*
X105058079Y-105716613D01*
X105068044Y-105695543D01*
X105080026Y-105675552D01*
X105093910Y-105656832D01*
X105109562Y-105639562D01*
X105126832Y-105623910D01*
X105145552Y-105610026D01*
X105165543Y-105598044D01*
X105186613Y-105588079D01*
X105208557Y-105580227D01*
X105231166Y-105574563D01*
X105254221Y-105571144D01*
X105277500Y-105570000D01*
X105852500Y-105570000D01*
X105875779Y-105571144D01*
X105875779Y-105571144D01*
G37*
D11*
X105565000Y-106045000D03*
D10*
G36*
X157635779Y-94776144D02*
G01*
X157658834Y-94779563D01*
X157681443Y-94785227D01*
X157703387Y-94793079D01*
X157724457Y-94803044D01*
X157744448Y-94815026D01*
X157763168Y-94828910D01*
X157780438Y-94844562D01*
X157796090Y-94861832D01*
X157809974Y-94880552D01*
X157821956Y-94900543D01*
X157831921Y-94921613D01*
X157839773Y-94943557D01*
X157845437Y-94966166D01*
X157848856Y-94989221D01*
X157850000Y-95012500D01*
X157850000Y-95487500D01*
X157848856Y-95510779D01*
X157845437Y-95533834D01*
X157839773Y-95556443D01*
X157831921Y-95578387D01*
X157821956Y-95599457D01*
X157809974Y-95619448D01*
X157796090Y-95638168D01*
X157780438Y-95655438D01*
X157763168Y-95671090D01*
X157744448Y-95684974D01*
X157724457Y-95696956D01*
X157703387Y-95706921D01*
X157681443Y-95714773D01*
X157658834Y-95720437D01*
X157635779Y-95723856D01*
X157612500Y-95725000D01*
X157037500Y-95725000D01*
X157014221Y-95723856D01*
X156991166Y-95720437D01*
X156968557Y-95714773D01*
X156946613Y-95706921D01*
X156925543Y-95696956D01*
X156905552Y-95684974D01*
X156886832Y-95671090D01*
X156869562Y-95655438D01*
X156853910Y-95638168D01*
X156840026Y-95619448D01*
X156828044Y-95599457D01*
X156818079Y-95578387D01*
X156810227Y-95556443D01*
X156804563Y-95533834D01*
X156801144Y-95510779D01*
X156800000Y-95487500D01*
X156800000Y-95012500D01*
X156801144Y-94989221D01*
X156804563Y-94966166D01*
X156810227Y-94943557D01*
X156818079Y-94921613D01*
X156828044Y-94900543D01*
X156840026Y-94880552D01*
X156853910Y-94861832D01*
X156869562Y-94844562D01*
X156886832Y-94828910D01*
X156905552Y-94815026D01*
X156925543Y-94803044D01*
X156946613Y-94793079D01*
X156968557Y-94785227D01*
X156991166Y-94779563D01*
X157014221Y-94776144D01*
X157037500Y-94775000D01*
X157612500Y-94775000D01*
X157635779Y-94776144D01*
X157635779Y-94776144D01*
G37*
D11*
X157325000Y-95250000D03*
D10*
G36*
X155885779Y-94776144D02*
G01*
X155908834Y-94779563D01*
X155931443Y-94785227D01*
X155953387Y-94793079D01*
X155974457Y-94803044D01*
X155994448Y-94815026D01*
X156013168Y-94828910D01*
X156030438Y-94844562D01*
X156046090Y-94861832D01*
X156059974Y-94880552D01*
X156071956Y-94900543D01*
X156081921Y-94921613D01*
X156089773Y-94943557D01*
X156095437Y-94966166D01*
X156098856Y-94989221D01*
X156100000Y-95012500D01*
X156100000Y-95487500D01*
X156098856Y-95510779D01*
X156095437Y-95533834D01*
X156089773Y-95556443D01*
X156081921Y-95578387D01*
X156071956Y-95599457D01*
X156059974Y-95619448D01*
X156046090Y-95638168D01*
X156030438Y-95655438D01*
X156013168Y-95671090D01*
X155994448Y-95684974D01*
X155974457Y-95696956D01*
X155953387Y-95706921D01*
X155931443Y-95714773D01*
X155908834Y-95720437D01*
X155885779Y-95723856D01*
X155862500Y-95725000D01*
X155287500Y-95725000D01*
X155264221Y-95723856D01*
X155241166Y-95720437D01*
X155218557Y-95714773D01*
X155196613Y-95706921D01*
X155175543Y-95696956D01*
X155155552Y-95684974D01*
X155136832Y-95671090D01*
X155119562Y-95655438D01*
X155103910Y-95638168D01*
X155090026Y-95619448D01*
X155078044Y-95599457D01*
X155068079Y-95578387D01*
X155060227Y-95556443D01*
X155054563Y-95533834D01*
X155051144Y-95510779D01*
X155050000Y-95487500D01*
X155050000Y-95012500D01*
X155051144Y-94989221D01*
X155054563Y-94966166D01*
X155060227Y-94943557D01*
X155068079Y-94921613D01*
X155078044Y-94900543D01*
X155090026Y-94880552D01*
X155103910Y-94861832D01*
X155119562Y-94844562D01*
X155136832Y-94828910D01*
X155155552Y-94815026D01*
X155175543Y-94803044D01*
X155196613Y-94793079D01*
X155218557Y-94785227D01*
X155241166Y-94779563D01*
X155264221Y-94776144D01*
X155287500Y-94775000D01*
X155862500Y-94775000D01*
X155885779Y-94776144D01*
X155885779Y-94776144D01*
G37*
D11*
X155575000Y-95250000D03*
D10*
G36*
X157635779Y-102396144D02*
G01*
X157658834Y-102399563D01*
X157681443Y-102405227D01*
X157703387Y-102413079D01*
X157724457Y-102423044D01*
X157744448Y-102435026D01*
X157763168Y-102448910D01*
X157780438Y-102464562D01*
X157796090Y-102481832D01*
X157809974Y-102500552D01*
X157821956Y-102520543D01*
X157831921Y-102541613D01*
X157839773Y-102563557D01*
X157845437Y-102586166D01*
X157848856Y-102609221D01*
X157850000Y-102632500D01*
X157850000Y-103107500D01*
X157848856Y-103130779D01*
X157845437Y-103153834D01*
X157839773Y-103176443D01*
X157831921Y-103198387D01*
X157821956Y-103219457D01*
X157809974Y-103239448D01*
X157796090Y-103258168D01*
X157780438Y-103275438D01*
X157763168Y-103291090D01*
X157744448Y-103304974D01*
X157724457Y-103316956D01*
X157703387Y-103326921D01*
X157681443Y-103334773D01*
X157658834Y-103340437D01*
X157635779Y-103343856D01*
X157612500Y-103345000D01*
X157037500Y-103345000D01*
X157014221Y-103343856D01*
X156991166Y-103340437D01*
X156968557Y-103334773D01*
X156946613Y-103326921D01*
X156925543Y-103316956D01*
X156905552Y-103304974D01*
X156886832Y-103291090D01*
X156869562Y-103275438D01*
X156853910Y-103258168D01*
X156840026Y-103239448D01*
X156828044Y-103219457D01*
X156818079Y-103198387D01*
X156810227Y-103176443D01*
X156804563Y-103153834D01*
X156801144Y-103130779D01*
X156800000Y-103107500D01*
X156800000Y-102632500D01*
X156801144Y-102609221D01*
X156804563Y-102586166D01*
X156810227Y-102563557D01*
X156818079Y-102541613D01*
X156828044Y-102520543D01*
X156840026Y-102500552D01*
X156853910Y-102481832D01*
X156869562Y-102464562D01*
X156886832Y-102448910D01*
X156905552Y-102435026D01*
X156925543Y-102423044D01*
X156946613Y-102413079D01*
X156968557Y-102405227D01*
X156991166Y-102399563D01*
X157014221Y-102396144D01*
X157037500Y-102395000D01*
X157612500Y-102395000D01*
X157635779Y-102396144D01*
X157635779Y-102396144D01*
G37*
D11*
X157325000Y-102870000D03*
D10*
G36*
X155885779Y-102396144D02*
G01*
X155908834Y-102399563D01*
X155931443Y-102405227D01*
X155953387Y-102413079D01*
X155974457Y-102423044D01*
X155994448Y-102435026D01*
X156013168Y-102448910D01*
X156030438Y-102464562D01*
X156046090Y-102481832D01*
X156059974Y-102500552D01*
X156071956Y-102520543D01*
X156081921Y-102541613D01*
X156089773Y-102563557D01*
X156095437Y-102586166D01*
X156098856Y-102609221D01*
X156100000Y-102632500D01*
X156100000Y-103107500D01*
X156098856Y-103130779D01*
X156095437Y-103153834D01*
X156089773Y-103176443D01*
X156081921Y-103198387D01*
X156071956Y-103219457D01*
X156059974Y-103239448D01*
X156046090Y-103258168D01*
X156030438Y-103275438D01*
X156013168Y-103291090D01*
X155994448Y-103304974D01*
X155974457Y-103316956D01*
X155953387Y-103326921D01*
X155931443Y-103334773D01*
X155908834Y-103340437D01*
X155885779Y-103343856D01*
X155862500Y-103345000D01*
X155287500Y-103345000D01*
X155264221Y-103343856D01*
X155241166Y-103340437D01*
X155218557Y-103334773D01*
X155196613Y-103326921D01*
X155175543Y-103316956D01*
X155155552Y-103304974D01*
X155136832Y-103291090D01*
X155119562Y-103275438D01*
X155103910Y-103258168D01*
X155090026Y-103239448D01*
X155078044Y-103219457D01*
X155068079Y-103198387D01*
X155060227Y-103176443D01*
X155054563Y-103153834D01*
X155051144Y-103130779D01*
X155050000Y-103107500D01*
X155050000Y-102632500D01*
X155051144Y-102609221D01*
X155054563Y-102586166D01*
X155060227Y-102563557D01*
X155068079Y-102541613D01*
X155078044Y-102520543D01*
X155090026Y-102500552D01*
X155103910Y-102481832D01*
X155119562Y-102464562D01*
X155136832Y-102448910D01*
X155155552Y-102435026D01*
X155175543Y-102423044D01*
X155196613Y-102413079D01*
X155218557Y-102405227D01*
X155241166Y-102399563D01*
X155264221Y-102396144D01*
X155287500Y-102395000D01*
X155862500Y-102395000D01*
X155885779Y-102396144D01*
X155885779Y-102396144D01*
G37*
D11*
X155575000Y-102870000D03*
D10*
G36*
X155885779Y-117636144D02*
G01*
X155908834Y-117639563D01*
X155931443Y-117645227D01*
X155953387Y-117653079D01*
X155974457Y-117663044D01*
X155994448Y-117675026D01*
X156013168Y-117688910D01*
X156030438Y-117704562D01*
X156046090Y-117721832D01*
X156059974Y-117740552D01*
X156071956Y-117760543D01*
X156081921Y-117781613D01*
X156089773Y-117803557D01*
X156095437Y-117826166D01*
X156098856Y-117849221D01*
X156100000Y-117872500D01*
X156100000Y-118347500D01*
X156098856Y-118370779D01*
X156095437Y-118393834D01*
X156089773Y-118416443D01*
X156081921Y-118438387D01*
X156071956Y-118459457D01*
X156059974Y-118479448D01*
X156046090Y-118498168D01*
X156030438Y-118515438D01*
X156013168Y-118531090D01*
X155994448Y-118544974D01*
X155974457Y-118556956D01*
X155953387Y-118566921D01*
X155931443Y-118574773D01*
X155908834Y-118580437D01*
X155885779Y-118583856D01*
X155862500Y-118585000D01*
X155287500Y-118585000D01*
X155264221Y-118583856D01*
X155241166Y-118580437D01*
X155218557Y-118574773D01*
X155196613Y-118566921D01*
X155175543Y-118556956D01*
X155155552Y-118544974D01*
X155136832Y-118531090D01*
X155119562Y-118515438D01*
X155103910Y-118498168D01*
X155090026Y-118479448D01*
X155078044Y-118459457D01*
X155068079Y-118438387D01*
X155060227Y-118416443D01*
X155054563Y-118393834D01*
X155051144Y-118370779D01*
X155050000Y-118347500D01*
X155050000Y-117872500D01*
X155051144Y-117849221D01*
X155054563Y-117826166D01*
X155060227Y-117803557D01*
X155068079Y-117781613D01*
X155078044Y-117760543D01*
X155090026Y-117740552D01*
X155103910Y-117721832D01*
X155119562Y-117704562D01*
X155136832Y-117688910D01*
X155155552Y-117675026D01*
X155175543Y-117663044D01*
X155196613Y-117653079D01*
X155218557Y-117645227D01*
X155241166Y-117639563D01*
X155264221Y-117636144D01*
X155287500Y-117635000D01*
X155862500Y-117635000D01*
X155885779Y-117636144D01*
X155885779Y-117636144D01*
G37*
D11*
X155575000Y-118110000D03*
D10*
G36*
X157635779Y-117636144D02*
G01*
X157658834Y-117639563D01*
X157681443Y-117645227D01*
X157703387Y-117653079D01*
X157724457Y-117663044D01*
X157744448Y-117675026D01*
X157763168Y-117688910D01*
X157780438Y-117704562D01*
X157796090Y-117721832D01*
X157809974Y-117740552D01*
X157821956Y-117760543D01*
X157831921Y-117781613D01*
X157839773Y-117803557D01*
X157845437Y-117826166D01*
X157848856Y-117849221D01*
X157850000Y-117872500D01*
X157850000Y-118347500D01*
X157848856Y-118370779D01*
X157845437Y-118393834D01*
X157839773Y-118416443D01*
X157831921Y-118438387D01*
X157821956Y-118459457D01*
X157809974Y-118479448D01*
X157796090Y-118498168D01*
X157780438Y-118515438D01*
X157763168Y-118531090D01*
X157744448Y-118544974D01*
X157724457Y-118556956D01*
X157703387Y-118566921D01*
X157681443Y-118574773D01*
X157658834Y-118580437D01*
X157635779Y-118583856D01*
X157612500Y-118585000D01*
X157037500Y-118585000D01*
X157014221Y-118583856D01*
X156991166Y-118580437D01*
X156968557Y-118574773D01*
X156946613Y-118566921D01*
X156925543Y-118556956D01*
X156905552Y-118544974D01*
X156886832Y-118531090D01*
X156869562Y-118515438D01*
X156853910Y-118498168D01*
X156840026Y-118479448D01*
X156828044Y-118459457D01*
X156818079Y-118438387D01*
X156810227Y-118416443D01*
X156804563Y-118393834D01*
X156801144Y-118370779D01*
X156800000Y-118347500D01*
X156800000Y-117872500D01*
X156801144Y-117849221D01*
X156804563Y-117826166D01*
X156810227Y-117803557D01*
X156818079Y-117781613D01*
X156828044Y-117760543D01*
X156840026Y-117740552D01*
X156853910Y-117721832D01*
X156869562Y-117704562D01*
X156886832Y-117688910D01*
X156905552Y-117675026D01*
X156925543Y-117663044D01*
X156946613Y-117653079D01*
X156968557Y-117645227D01*
X156991166Y-117639563D01*
X157014221Y-117636144D01*
X157037500Y-117635000D01*
X157612500Y-117635000D01*
X157635779Y-117636144D01*
X157635779Y-117636144D01*
G37*
D11*
X157325000Y-118110000D03*
D10*
G36*
X157635779Y-113826144D02*
G01*
X157658834Y-113829563D01*
X157681443Y-113835227D01*
X157703387Y-113843079D01*
X157724457Y-113853044D01*
X157744448Y-113865026D01*
X157763168Y-113878910D01*
X157780438Y-113894562D01*
X157796090Y-113911832D01*
X157809974Y-113930552D01*
X157821956Y-113950543D01*
X157831921Y-113971613D01*
X157839773Y-113993557D01*
X157845437Y-114016166D01*
X157848856Y-114039221D01*
X157850000Y-114062500D01*
X157850000Y-114537500D01*
X157848856Y-114560779D01*
X157845437Y-114583834D01*
X157839773Y-114606443D01*
X157831921Y-114628387D01*
X157821956Y-114649457D01*
X157809974Y-114669448D01*
X157796090Y-114688168D01*
X157780438Y-114705438D01*
X157763168Y-114721090D01*
X157744448Y-114734974D01*
X157724457Y-114746956D01*
X157703387Y-114756921D01*
X157681443Y-114764773D01*
X157658834Y-114770437D01*
X157635779Y-114773856D01*
X157612500Y-114775000D01*
X157037500Y-114775000D01*
X157014221Y-114773856D01*
X156991166Y-114770437D01*
X156968557Y-114764773D01*
X156946613Y-114756921D01*
X156925543Y-114746956D01*
X156905552Y-114734974D01*
X156886832Y-114721090D01*
X156869562Y-114705438D01*
X156853910Y-114688168D01*
X156840026Y-114669448D01*
X156828044Y-114649457D01*
X156818079Y-114628387D01*
X156810227Y-114606443D01*
X156804563Y-114583834D01*
X156801144Y-114560779D01*
X156800000Y-114537500D01*
X156800000Y-114062500D01*
X156801144Y-114039221D01*
X156804563Y-114016166D01*
X156810227Y-113993557D01*
X156818079Y-113971613D01*
X156828044Y-113950543D01*
X156840026Y-113930552D01*
X156853910Y-113911832D01*
X156869562Y-113894562D01*
X156886832Y-113878910D01*
X156905552Y-113865026D01*
X156925543Y-113853044D01*
X156946613Y-113843079D01*
X156968557Y-113835227D01*
X156991166Y-113829563D01*
X157014221Y-113826144D01*
X157037500Y-113825000D01*
X157612500Y-113825000D01*
X157635779Y-113826144D01*
X157635779Y-113826144D01*
G37*
D11*
X157325000Y-114300000D03*
D10*
G36*
X155885779Y-113826144D02*
G01*
X155908834Y-113829563D01*
X155931443Y-113835227D01*
X155953387Y-113843079D01*
X155974457Y-113853044D01*
X155994448Y-113865026D01*
X156013168Y-113878910D01*
X156030438Y-113894562D01*
X156046090Y-113911832D01*
X156059974Y-113930552D01*
X156071956Y-113950543D01*
X156081921Y-113971613D01*
X156089773Y-113993557D01*
X156095437Y-114016166D01*
X156098856Y-114039221D01*
X156100000Y-114062500D01*
X156100000Y-114537500D01*
X156098856Y-114560779D01*
X156095437Y-114583834D01*
X156089773Y-114606443D01*
X156081921Y-114628387D01*
X156071956Y-114649457D01*
X156059974Y-114669448D01*
X156046090Y-114688168D01*
X156030438Y-114705438D01*
X156013168Y-114721090D01*
X155994448Y-114734974D01*
X155974457Y-114746956D01*
X155953387Y-114756921D01*
X155931443Y-114764773D01*
X155908834Y-114770437D01*
X155885779Y-114773856D01*
X155862500Y-114775000D01*
X155287500Y-114775000D01*
X155264221Y-114773856D01*
X155241166Y-114770437D01*
X155218557Y-114764773D01*
X155196613Y-114756921D01*
X155175543Y-114746956D01*
X155155552Y-114734974D01*
X155136832Y-114721090D01*
X155119562Y-114705438D01*
X155103910Y-114688168D01*
X155090026Y-114669448D01*
X155078044Y-114649457D01*
X155068079Y-114628387D01*
X155060227Y-114606443D01*
X155054563Y-114583834D01*
X155051144Y-114560779D01*
X155050000Y-114537500D01*
X155050000Y-114062500D01*
X155051144Y-114039221D01*
X155054563Y-114016166D01*
X155060227Y-113993557D01*
X155068079Y-113971613D01*
X155078044Y-113950543D01*
X155090026Y-113930552D01*
X155103910Y-113911832D01*
X155119562Y-113894562D01*
X155136832Y-113878910D01*
X155155552Y-113865026D01*
X155175543Y-113853044D01*
X155196613Y-113843079D01*
X155218557Y-113835227D01*
X155241166Y-113829563D01*
X155264221Y-113826144D01*
X155287500Y-113825000D01*
X155862500Y-113825000D01*
X155885779Y-113826144D01*
X155885779Y-113826144D01*
G37*
D11*
X155575000Y-114300000D03*
D10*
G36*
X150805779Y-94776144D02*
G01*
X150828834Y-94779563D01*
X150851443Y-94785227D01*
X150873387Y-94793079D01*
X150894457Y-94803044D01*
X150914448Y-94815026D01*
X150933168Y-94828910D01*
X150950438Y-94844562D01*
X150966090Y-94861832D01*
X150979974Y-94880552D01*
X150991956Y-94900543D01*
X151001921Y-94921613D01*
X151009773Y-94943557D01*
X151015437Y-94966166D01*
X151018856Y-94989221D01*
X151020000Y-95012500D01*
X151020000Y-95487500D01*
X151018856Y-95510779D01*
X151015437Y-95533834D01*
X151009773Y-95556443D01*
X151001921Y-95578387D01*
X150991956Y-95599457D01*
X150979974Y-95619448D01*
X150966090Y-95638168D01*
X150950438Y-95655438D01*
X150933168Y-95671090D01*
X150914448Y-95684974D01*
X150894457Y-95696956D01*
X150873387Y-95706921D01*
X150851443Y-95714773D01*
X150828834Y-95720437D01*
X150805779Y-95723856D01*
X150782500Y-95725000D01*
X150207500Y-95725000D01*
X150184221Y-95723856D01*
X150161166Y-95720437D01*
X150138557Y-95714773D01*
X150116613Y-95706921D01*
X150095543Y-95696956D01*
X150075552Y-95684974D01*
X150056832Y-95671090D01*
X150039562Y-95655438D01*
X150023910Y-95638168D01*
X150010026Y-95619448D01*
X149998044Y-95599457D01*
X149988079Y-95578387D01*
X149980227Y-95556443D01*
X149974563Y-95533834D01*
X149971144Y-95510779D01*
X149970000Y-95487500D01*
X149970000Y-95012500D01*
X149971144Y-94989221D01*
X149974563Y-94966166D01*
X149980227Y-94943557D01*
X149988079Y-94921613D01*
X149998044Y-94900543D01*
X150010026Y-94880552D01*
X150023910Y-94861832D01*
X150039562Y-94844562D01*
X150056832Y-94828910D01*
X150075552Y-94815026D01*
X150095543Y-94803044D01*
X150116613Y-94793079D01*
X150138557Y-94785227D01*
X150161166Y-94779563D01*
X150184221Y-94776144D01*
X150207500Y-94775000D01*
X150782500Y-94775000D01*
X150805779Y-94776144D01*
X150805779Y-94776144D01*
G37*
D11*
X150495000Y-95250000D03*
D10*
G36*
X152555779Y-94776144D02*
G01*
X152578834Y-94779563D01*
X152601443Y-94785227D01*
X152623387Y-94793079D01*
X152644457Y-94803044D01*
X152664448Y-94815026D01*
X152683168Y-94828910D01*
X152700438Y-94844562D01*
X152716090Y-94861832D01*
X152729974Y-94880552D01*
X152741956Y-94900543D01*
X152751921Y-94921613D01*
X152759773Y-94943557D01*
X152765437Y-94966166D01*
X152768856Y-94989221D01*
X152770000Y-95012500D01*
X152770000Y-95487500D01*
X152768856Y-95510779D01*
X152765437Y-95533834D01*
X152759773Y-95556443D01*
X152751921Y-95578387D01*
X152741956Y-95599457D01*
X152729974Y-95619448D01*
X152716090Y-95638168D01*
X152700438Y-95655438D01*
X152683168Y-95671090D01*
X152664448Y-95684974D01*
X152644457Y-95696956D01*
X152623387Y-95706921D01*
X152601443Y-95714773D01*
X152578834Y-95720437D01*
X152555779Y-95723856D01*
X152532500Y-95725000D01*
X151957500Y-95725000D01*
X151934221Y-95723856D01*
X151911166Y-95720437D01*
X151888557Y-95714773D01*
X151866613Y-95706921D01*
X151845543Y-95696956D01*
X151825552Y-95684974D01*
X151806832Y-95671090D01*
X151789562Y-95655438D01*
X151773910Y-95638168D01*
X151760026Y-95619448D01*
X151748044Y-95599457D01*
X151738079Y-95578387D01*
X151730227Y-95556443D01*
X151724563Y-95533834D01*
X151721144Y-95510779D01*
X151720000Y-95487500D01*
X151720000Y-95012500D01*
X151721144Y-94989221D01*
X151724563Y-94966166D01*
X151730227Y-94943557D01*
X151738079Y-94921613D01*
X151748044Y-94900543D01*
X151760026Y-94880552D01*
X151773910Y-94861832D01*
X151789562Y-94844562D01*
X151806832Y-94828910D01*
X151825552Y-94815026D01*
X151845543Y-94803044D01*
X151866613Y-94793079D01*
X151888557Y-94785227D01*
X151911166Y-94779563D01*
X151934221Y-94776144D01*
X151957500Y-94775000D01*
X152532500Y-94775000D01*
X152555779Y-94776144D01*
X152555779Y-94776144D01*
G37*
D11*
X152245000Y-95250000D03*
D10*
G36*
X150805779Y-102396144D02*
G01*
X150828834Y-102399563D01*
X150851443Y-102405227D01*
X150873387Y-102413079D01*
X150894457Y-102423044D01*
X150914448Y-102435026D01*
X150933168Y-102448910D01*
X150950438Y-102464562D01*
X150966090Y-102481832D01*
X150979974Y-102500552D01*
X150991956Y-102520543D01*
X151001921Y-102541613D01*
X151009773Y-102563557D01*
X151015437Y-102586166D01*
X151018856Y-102609221D01*
X151020000Y-102632500D01*
X151020000Y-103107500D01*
X151018856Y-103130779D01*
X151015437Y-103153834D01*
X151009773Y-103176443D01*
X151001921Y-103198387D01*
X150991956Y-103219457D01*
X150979974Y-103239448D01*
X150966090Y-103258168D01*
X150950438Y-103275438D01*
X150933168Y-103291090D01*
X150914448Y-103304974D01*
X150894457Y-103316956D01*
X150873387Y-103326921D01*
X150851443Y-103334773D01*
X150828834Y-103340437D01*
X150805779Y-103343856D01*
X150782500Y-103345000D01*
X150207500Y-103345000D01*
X150184221Y-103343856D01*
X150161166Y-103340437D01*
X150138557Y-103334773D01*
X150116613Y-103326921D01*
X150095543Y-103316956D01*
X150075552Y-103304974D01*
X150056832Y-103291090D01*
X150039562Y-103275438D01*
X150023910Y-103258168D01*
X150010026Y-103239448D01*
X149998044Y-103219457D01*
X149988079Y-103198387D01*
X149980227Y-103176443D01*
X149974563Y-103153834D01*
X149971144Y-103130779D01*
X149970000Y-103107500D01*
X149970000Y-102632500D01*
X149971144Y-102609221D01*
X149974563Y-102586166D01*
X149980227Y-102563557D01*
X149988079Y-102541613D01*
X149998044Y-102520543D01*
X150010026Y-102500552D01*
X150023910Y-102481832D01*
X150039562Y-102464562D01*
X150056832Y-102448910D01*
X150075552Y-102435026D01*
X150095543Y-102423044D01*
X150116613Y-102413079D01*
X150138557Y-102405227D01*
X150161166Y-102399563D01*
X150184221Y-102396144D01*
X150207500Y-102395000D01*
X150782500Y-102395000D01*
X150805779Y-102396144D01*
X150805779Y-102396144D01*
G37*
D11*
X150495000Y-102870000D03*
D10*
G36*
X152555779Y-102396144D02*
G01*
X152578834Y-102399563D01*
X152601443Y-102405227D01*
X152623387Y-102413079D01*
X152644457Y-102423044D01*
X152664448Y-102435026D01*
X152683168Y-102448910D01*
X152700438Y-102464562D01*
X152716090Y-102481832D01*
X152729974Y-102500552D01*
X152741956Y-102520543D01*
X152751921Y-102541613D01*
X152759773Y-102563557D01*
X152765437Y-102586166D01*
X152768856Y-102609221D01*
X152770000Y-102632500D01*
X152770000Y-103107500D01*
X152768856Y-103130779D01*
X152765437Y-103153834D01*
X152759773Y-103176443D01*
X152751921Y-103198387D01*
X152741956Y-103219457D01*
X152729974Y-103239448D01*
X152716090Y-103258168D01*
X152700438Y-103275438D01*
X152683168Y-103291090D01*
X152664448Y-103304974D01*
X152644457Y-103316956D01*
X152623387Y-103326921D01*
X152601443Y-103334773D01*
X152578834Y-103340437D01*
X152555779Y-103343856D01*
X152532500Y-103345000D01*
X151957500Y-103345000D01*
X151934221Y-103343856D01*
X151911166Y-103340437D01*
X151888557Y-103334773D01*
X151866613Y-103326921D01*
X151845543Y-103316956D01*
X151825552Y-103304974D01*
X151806832Y-103291090D01*
X151789562Y-103275438D01*
X151773910Y-103258168D01*
X151760026Y-103239448D01*
X151748044Y-103219457D01*
X151738079Y-103198387D01*
X151730227Y-103176443D01*
X151724563Y-103153834D01*
X151721144Y-103130779D01*
X151720000Y-103107500D01*
X151720000Y-102632500D01*
X151721144Y-102609221D01*
X151724563Y-102586166D01*
X151730227Y-102563557D01*
X151738079Y-102541613D01*
X151748044Y-102520543D01*
X151760026Y-102500552D01*
X151773910Y-102481832D01*
X151789562Y-102464562D01*
X151806832Y-102448910D01*
X151825552Y-102435026D01*
X151845543Y-102423044D01*
X151866613Y-102413079D01*
X151888557Y-102405227D01*
X151911166Y-102399563D01*
X151934221Y-102396144D01*
X151957500Y-102395000D01*
X152532500Y-102395000D01*
X152555779Y-102396144D01*
X152555779Y-102396144D01*
G37*
D11*
X152245000Y-102870000D03*
D10*
G36*
X152710779Y-117636144D02*
G01*
X152733834Y-117639563D01*
X152756443Y-117645227D01*
X152778387Y-117653079D01*
X152799457Y-117663044D01*
X152819448Y-117675026D01*
X152838168Y-117688910D01*
X152855438Y-117704562D01*
X152871090Y-117721832D01*
X152884974Y-117740552D01*
X152896956Y-117760543D01*
X152906921Y-117781613D01*
X152914773Y-117803557D01*
X152920437Y-117826166D01*
X152923856Y-117849221D01*
X152925000Y-117872500D01*
X152925000Y-118347500D01*
X152923856Y-118370779D01*
X152920437Y-118393834D01*
X152914773Y-118416443D01*
X152906921Y-118438387D01*
X152896956Y-118459457D01*
X152884974Y-118479448D01*
X152871090Y-118498168D01*
X152855438Y-118515438D01*
X152838168Y-118531090D01*
X152819448Y-118544974D01*
X152799457Y-118556956D01*
X152778387Y-118566921D01*
X152756443Y-118574773D01*
X152733834Y-118580437D01*
X152710779Y-118583856D01*
X152687500Y-118585000D01*
X152112500Y-118585000D01*
X152089221Y-118583856D01*
X152066166Y-118580437D01*
X152043557Y-118574773D01*
X152021613Y-118566921D01*
X152000543Y-118556956D01*
X151980552Y-118544974D01*
X151961832Y-118531090D01*
X151944562Y-118515438D01*
X151928910Y-118498168D01*
X151915026Y-118479448D01*
X151903044Y-118459457D01*
X151893079Y-118438387D01*
X151885227Y-118416443D01*
X151879563Y-118393834D01*
X151876144Y-118370779D01*
X151875000Y-118347500D01*
X151875000Y-117872500D01*
X151876144Y-117849221D01*
X151879563Y-117826166D01*
X151885227Y-117803557D01*
X151893079Y-117781613D01*
X151903044Y-117760543D01*
X151915026Y-117740552D01*
X151928910Y-117721832D01*
X151944562Y-117704562D01*
X151961832Y-117688910D01*
X151980552Y-117675026D01*
X152000543Y-117663044D01*
X152021613Y-117653079D01*
X152043557Y-117645227D01*
X152066166Y-117639563D01*
X152089221Y-117636144D01*
X152112500Y-117635000D01*
X152687500Y-117635000D01*
X152710779Y-117636144D01*
X152710779Y-117636144D01*
G37*
D11*
X152400000Y-118110000D03*
D10*
G36*
X150960779Y-117636144D02*
G01*
X150983834Y-117639563D01*
X151006443Y-117645227D01*
X151028387Y-117653079D01*
X151049457Y-117663044D01*
X151069448Y-117675026D01*
X151088168Y-117688910D01*
X151105438Y-117704562D01*
X151121090Y-117721832D01*
X151134974Y-117740552D01*
X151146956Y-117760543D01*
X151156921Y-117781613D01*
X151164773Y-117803557D01*
X151170437Y-117826166D01*
X151173856Y-117849221D01*
X151175000Y-117872500D01*
X151175000Y-118347500D01*
X151173856Y-118370779D01*
X151170437Y-118393834D01*
X151164773Y-118416443D01*
X151156921Y-118438387D01*
X151146956Y-118459457D01*
X151134974Y-118479448D01*
X151121090Y-118498168D01*
X151105438Y-118515438D01*
X151088168Y-118531090D01*
X151069448Y-118544974D01*
X151049457Y-118556956D01*
X151028387Y-118566921D01*
X151006443Y-118574773D01*
X150983834Y-118580437D01*
X150960779Y-118583856D01*
X150937500Y-118585000D01*
X150362500Y-118585000D01*
X150339221Y-118583856D01*
X150316166Y-118580437D01*
X150293557Y-118574773D01*
X150271613Y-118566921D01*
X150250543Y-118556956D01*
X150230552Y-118544974D01*
X150211832Y-118531090D01*
X150194562Y-118515438D01*
X150178910Y-118498168D01*
X150165026Y-118479448D01*
X150153044Y-118459457D01*
X150143079Y-118438387D01*
X150135227Y-118416443D01*
X150129563Y-118393834D01*
X150126144Y-118370779D01*
X150125000Y-118347500D01*
X150125000Y-117872500D01*
X150126144Y-117849221D01*
X150129563Y-117826166D01*
X150135227Y-117803557D01*
X150143079Y-117781613D01*
X150153044Y-117760543D01*
X150165026Y-117740552D01*
X150178910Y-117721832D01*
X150194562Y-117704562D01*
X150211832Y-117688910D01*
X150230552Y-117675026D01*
X150250543Y-117663044D01*
X150271613Y-117653079D01*
X150293557Y-117645227D01*
X150316166Y-117639563D01*
X150339221Y-117636144D01*
X150362500Y-117635000D01*
X150937500Y-117635000D01*
X150960779Y-117636144D01*
X150960779Y-117636144D01*
G37*
D11*
X150650000Y-118110000D03*
D10*
G36*
X150960779Y-113826144D02*
G01*
X150983834Y-113829563D01*
X151006443Y-113835227D01*
X151028387Y-113843079D01*
X151049457Y-113853044D01*
X151069448Y-113865026D01*
X151088168Y-113878910D01*
X151105438Y-113894562D01*
X151121090Y-113911832D01*
X151134974Y-113930552D01*
X151146956Y-113950543D01*
X151156921Y-113971613D01*
X151164773Y-113993557D01*
X151170437Y-114016166D01*
X151173856Y-114039221D01*
X151175000Y-114062500D01*
X151175000Y-114537500D01*
X151173856Y-114560779D01*
X151170437Y-114583834D01*
X151164773Y-114606443D01*
X151156921Y-114628387D01*
X151146956Y-114649457D01*
X151134974Y-114669448D01*
X151121090Y-114688168D01*
X151105438Y-114705438D01*
X151088168Y-114721090D01*
X151069448Y-114734974D01*
X151049457Y-114746956D01*
X151028387Y-114756921D01*
X151006443Y-114764773D01*
X150983834Y-114770437D01*
X150960779Y-114773856D01*
X150937500Y-114775000D01*
X150362500Y-114775000D01*
X150339221Y-114773856D01*
X150316166Y-114770437D01*
X150293557Y-114764773D01*
X150271613Y-114756921D01*
X150250543Y-114746956D01*
X150230552Y-114734974D01*
X150211832Y-114721090D01*
X150194562Y-114705438D01*
X150178910Y-114688168D01*
X150165026Y-114669448D01*
X150153044Y-114649457D01*
X150143079Y-114628387D01*
X150135227Y-114606443D01*
X150129563Y-114583834D01*
X150126144Y-114560779D01*
X150125000Y-114537500D01*
X150125000Y-114062500D01*
X150126144Y-114039221D01*
X150129563Y-114016166D01*
X150135227Y-113993557D01*
X150143079Y-113971613D01*
X150153044Y-113950543D01*
X150165026Y-113930552D01*
X150178910Y-113911832D01*
X150194562Y-113894562D01*
X150211832Y-113878910D01*
X150230552Y-113865026D01*
X150250543Y-113853044D01*
X150271613Y-113843079D01*
X150293557Y-113835227D01*
X150316166Y-113829563D01*
X150339221Y-113826144D01*
X150362500Y-113825000D01*
X150937500Y-113825000D01*
X150960779Y-113826144D01*
X150960779Y-113826144D01*
G37*
D11*
X150650000Y-114300000D03*
D10*
G36*
X152710779Y-113826144D02*
G01*
X152733834Y-113829563D01*
X152756443Y-113835227D01*
X152778387Y-113843079D01*
X152799457Y-113853044D01*
X152819448Y-113865026D01*
X152838168Y-113878910D01*
X152855438Y-113894562D01*
X152871090Y-113911832D01*
X152884974Y-113930552D01*
X152896956Y-113950543D01*
X152906921Y-113971613D01*
X152914773Y-113993557D01*
X152920437Y-114016166D01*
X152923856Y-114039221D01*
X152925000Y-114062500D01*
X152925000Y-114537500D01*
X152923856Y-114560779D01*
X152920437Y-114583834D01*
X152914773Y-114606443D01*
X152906921Y-114628387D01*
X152896956Y-114649457D01*
X152884974Y-114669448D01*
X152871090Y-114688168D01*
X152855438Y-114705438D01*
X152838168Y-114721090D01*
X152819448Y-114734974D01*
X152799457Y-114746956D01*
X152778387Y-114756921D01*
X152756443Y-114764773D01*
X152733834Y-114770437D01*
X152710779Y-114773856D01*
X152687500Y-114775000D01*
X152112500Y-114775000D01*
X152089221Y-114773856D01*
X152066166Y-114770437D01*
X152043557Y-114764773D01*
X152021613Y-114756921D01*
X152000543Y-114746956D01*
X151980552Y-114734974D01*
X151961832Y-114721090D01*
X151944562Y-114705438D01*
X151928910Y-114688168D01*
X151915026Y-114669448D01*
X151903044Y-114649457D01*
X151893079Y-114628387D01*
X151885227Y-114606443D01*
X151879563Y-114583834D01*
X151876144Y-114560779D01*
X151875000Y-114537500D01*
X151875000Y-114062500D01*
X151876144Y-114039221D01*
X151879563Y-114016166D01*
X151885227Y-113993557D01*
X151893079Y-113971613D01*
X151903044Y-113950543D01*
X151915026Y-113930552D01*
X151928910Y-113911832D01*
X151944562Y-113894562D01*
X151961832Y-113878910D01*
X151980552Y-113865026D01*
X152000543Y-113853044D01*
X152021613Y-113843079D01*
X152043557Y-113835227D01*
X152066166Y-113829563D01*
X152089221Y-113826144D01*
X152112500Y-113825000D01*
X152687500Y-113825000D01*
X152710779Y-113826144D01*
X152710779Y-113826144D01*
G37*
D11*
X152400000Y-114300000D03*
D10*
G36*
X89795779Y-100596144D02*
G01*
X89818834Y-100599563D01*
X89841443Y-100605227D01*
X89863387Y-100613079D01*
X89884457Y-100623044D01*
X89904448Y-100635026D01*
X89923168Y-100648910D01*
X89940438Y-100664562D01*
X89956090Y-100681832D01*
X89969974Y-100700552D01*
X89981956Y-100720543D01*
X89991921Y-100741613D01*
X89999773Y-100763557D01*
X90005437Y-100786166D01*
X90008856Y-100809221D01*
X90010000Y-100832500D01*
X90010000Y-101407500D01*
X90008856Y-101430779D01*
X90005437Y-101453834D01*
X89999773Y-101476443D01*
X89991921Y-101498387D01*
X89981956Y-101519457D01*
X89969974Y-101539448D01*
X89956090Y-101558168D01*
X89940438Y-101575438D01*
X89923168Y-101591090D01*
X89904448Y-101604974D01*
X89884457Y-101616956D01*
X89863387Y-101626921D01*
X89841443Y-101634773D01*
X89818834Y-101640437D01*
X89795779Y-101643856D01*
X89772500Y-101645000D01*
X89297500Y-101645000D01*
X89274221Y-101643856D01*
X89251166Y-101640437D01*
X89228557Y-101634773D01*
X89206613Y-101626921D01*
X89185543Y-101616956D01*
X89165552Y-101604974D01*
X89146832Y-101591090D01*
X89129562Y-101575438D01*
X89113910Y-101558168D01*
X89100026Y-101539448D01*
X89088044Y-101519457D01*
X89078079Y-101498387D01*
X89070227Y-101476443D01*
X89064563Y-101453834D01*
X89061144Y-101430779D01*
X89060000Y-101407500D01*
X89060000Y-100832500D01*
X89061144Y-100809221D01*
X89064563Y-100786166D01*
X89070227Y-100763557D01*
X89078079Y-100741613D01*
X89088044Y-100720543D01*
X89100026Y-100700552D01*
X89113910Y-100681832D01*
X89129562Y-100664562D01*
X89146832Y-100648910D01*
X89165552Y-100635026D01*
X89185543Y-100623044D01*
X89206613Y-100613079D01*
X89228557Y-100605227D01*
X89251166Y-100599563D01*
X89274221Y-100596144D01*
X89297500Y-100595000D01*
X89772500Y-100595000D01*
X89795779Y-100596144D01*
X89795779Y-100596144D01*
G37*
D11*
X89535000Y-101120000D03*
D10*
G36*
X89795779Y-102346144D02*
G01*
X89818834Y-102349563D01*
X89841443Y-102355227D01*
X89863387Y-102363079D01*
X89884457Y-102373044D01*
X89904448Y-102385026D01*
X89923168Y-102398910D01*
X89940438Y-102414562D01*
X89956090Y-102431832D01*
X89969974Y-102450552D01*
X89981956Y-102470543D01*
X89991921Y-102491613D01*
X89999773Y-102513557D01*
X90005437Y-102536166D01*
X90008856Y-102559221D01*
X90010000Y-102582500D01*
X90010000Y-103157500D01*
X90008856Y-103180779D01*
X90005437Y-103203834D01*
X89999773Y-103226443D01*
X89991921Y-103248387D01*
X89981956Y-103269457D01*
X89969974Y-103289448D01*
X89956090Y-103308168D01*
X89940438Y-103325438D01*
X89923168Y-103341090D01*
X89904448Y-103354974D01*
X89884457Y-103366956D01*
X89863387Y-103376921D01*
X89841443Y-103384773D01*
X89818834Y-103390437D01*
X89795779Y-103393856D01*
X89772500Y-103395000D01*
X89297500Y-103395000D01*
X89274221Y-103393856D01*
X89251166Y-103390437D01*
X89228557Y-103384773D01*
X89206613Y-103376921D01*
X89185543Y-103366956D01*
X89165552Y-103354974D01*
X89146832Y-103341090D01*
X89129562Y-103325438D01*
X89113910Y-103308168D01*
X89100026Y-103289448D01*
X89088044Y-103269457D01*
X89078079Y-103248387D01*
X89070227Y-103226443D01*
X89064563Y-103203834D01*
X89061144Y-103180779D01*
X89060000Y-103157500D01*
X89060000Y-102582500D01*
X89061144Y-102559221D01*
X89064563Y-102536166D01*
X89070227Y-102513557D01*
X89078079Y-102491613D01*
X89088044Y-102470543D01*
X89100026Y-102450552D01*
X89113910Y-102431832D01*
X89129562Y-102414562D01*
X89146832Y-102398910D01*
X89165552Y-102385026D01*
X89185543Y-102373044D01*
X89206613Y-102363079D01*
X89228557Y-102355227D01*
X89251166Y-102349563D01*
X89274221Y-102346144D01*
X89297500Y-102345000D01*
X89772500Y-102345000D01*
X89795779Y-102346144D01*
X89795779Y-102346144D01*
G37*
D11*
X89535000Y-102870000D03*
D10*
G36*
X89795779Y-106001144D02*
G01*
X89818834Y-106004563D01*
X89841443Y-106010227D01*
X89863387Y-106018079D01*
X89884457Y-106028044D01*
X89904448Y-106040026D01*
X89923168Y-106053910D01*
X89940438Y-106069562D01*
X89956090Y-106086832D01*
X89969974Y-106105552D01*
X89981956Y-106125543D01*
X89991921Y-106146613D01*
X89999773Y-106168557D01*
X90005437Y-106191166D01*
X90008856Y-106214221D01*
X90010000Y-106237500D01*
X90010000Y-106812500D01*
X90008856Y-106835779D01*
X90005437Y-106858834D01*
X89999773Y-106881443D01*
X89991921Y-106903387D01*
X89981956Y-106924457D01*
X89969974Y-106944448D01*
X89956090Y-106963168D01*
X89940438Y-106980438D01*
X89923168Y-106996090D01*
X89904448Y-107009974D01*
X89884457Y-107021956D01*
X89863387Y-107031921D01*
X89841443Y-107039773D01*
X89818834Y-107045437D01*
X89795779Y-107048856D01*
X89772500Y-107050000D01*
X89297500Y-107050000D01*
X89274221Y-107048856D01*
X89251166Y-107045437D01*
X89228557Y-107039773D01*
X89206613Y-107031921D01*
X89185543Y-107021956D01*
X89165552Y-107009974D01*
X89146832Y-106996090D01*
X89129562Y-106980438D01*
X89113910Y-106963168D01*
X89100026Y-106944448D01*
X89088044Y-106924457D01*
X89078079Y-106903387D01*
X89070227Y-106881443D01*
X89064563Y-106858834D01*
X89061144Y-106835779D01*
X89060000Y-106812500D01*
X89060000Y-106237500D01*
X89061144Y-106214221D01*
X89064563Y-106191166D01*
X89070227Y-106168557D01*
X89078079Y-106146613D01*
X89088044Y-106125543D01*
X89100026Y-106105552D01*
X89113910Y-106086832D01*
X89129562Y-106069562D01*
X89146832Y-106053910D01*
X89165552Y-106040026D01*
X89185543Y-106028044D01*
X89206613Y-106018079D01*
X89228557Y-106010227D01*
X89251166Y-106004563D01*
X89274221Y-106001144D01*
X89297500Y-106000000D01*
X89772500Y-106000000D01*
X89795779Y-106001144D01*
X89795779Y-106001144D01*
G37*
D11*
X89535000Y-106525000D03*
D10*
G36*
X89795779Y-104251144D02*
G01*
X89818834Y-104254563D01*
X89841443Y-104260227D01*
X89863387Y-104268079D01*
X89884457Y-104278044D01*
X89904448Y-104290026D01*
X89923168Y-104303910D01*
X89940438Y-104319562D01*
X89956090Y-104336832D01*
X89969974Y-104355552D01*
X89981956Y-104375543D01*
X89991921Y-104396613D01*
X89999773Y-104418557D01*
X90005437Y-104441166D01*
X90008856Y-104464221D01*
X90010000Y-104487500D01*
X90010000Y-105062500D01*
X90008856Y-105085779D01*
X90005437Y-105108834D01*
X89999773Y-105131443D01*
X89991921Y-105153387D01*
X89981956Y-105174457D01*
X89969974Y-105194448D01*
X89956090Y-105213168D01*
X89940438Y-105230438D01*
X89923168Y-105246090D01*
X89904448Y-105259974D01*
X89884457Y-105271956D01*
X89863387Y-105281921D01*
X89841443Y-105289773D01*
X89818834Y-105295437D01*
X89795779Y-105298856D01*
X89772500Y-105300000D01*
X89297500Y-105300000D01*
X89274221Y-105298856D01*
X89251166Y-105295437D01*
X89228557Y-105289773D01*
X89206613Y-105281921D01*
X89185543Y-105271956D01*
X89165552Y-105259974D01*
X89146832Y-105246090D01*
X89129562Y-105230438D01*
X89113910Y-105213168D01*
X89100026Y-105194448D01*
X89088044Y-105174457D01*
X89078079Y-105153387D01*
X89070227Y-105131443D01*
X89064563Y-105108834D01*
X89061144Y-105085779D01*
X89060000Y-105062500D01*
X89060000Y-104487500D01*
X89061144Y-104464221D01*
X89064563Y-104441166D01*
X89070227Y-104418557D01*
X89078079Y-104396613D01*
X89088044Y-104375543D01*
X89100026Y-104355552D01*
X89113910Y-104336832D01*
X89129562Y-104319562D01*
X89146832Y-104303910D01*
X89165552Y-104290026D01*
X89185543Y-104278044D01*
X89206613Y-104268079D01*
X89228557Y-104260227D01*
X89251166Y-104254563D01*
X89274221Y-104251144D01*
X89297500Y-104250000D01*
X89772500Y-104250000D01*
X89795779Y-104251144D01*
X89795779Y-104251144D01*
G37*
D11*
X89535000Y-104775000D03*
D10*
G36*
X157635779Y-110016144D02*
G01*
X157658834Y-110019563D01*
X157681443Y-110025227D01*
X157703387Y-110033079D01*
X157724457Y-110043044D01*
X157744448Y-110055026D01*
X157763168Y-110068910D01*
X157780438Y-110084562D01*
X157796090Y-110101832D01*
X157809974Y-110120552D01*
X157821956Y-110140543D01*
X157831921Y-110161613D01*
X157839773Y-110183557D01*
X157845437Y-110206166D01*
X157848856Y-110229221D01*
X157850000Y-110252500D01*
X157850000Y-110727500D01*
X157848856Y-110750779D01*
X157845437Y-110773834D01*
X157839773Y-110796443D01*
X157831921Y-110818387D01*
X157821956Y-110839457D01*
X157809974Y-110859448D01*
X157796090Y-110878168D01*
X157780438Y-110895438D01*
X157763168Y-110911090D01*
X157744448Y-110924974D01*
X157724457Y-110936956D01*
X157703387Y-110946921D01*
X157681443Y-110954773D01*
X157658834Y-110960437D01*
X157635779Y-110963856D01*
X157612500Y-110965000D01*
X157037500Y-110965000D01*
X157014221Y-110963856D01*
X156991166Y-110960437D01*
X156968557Y-110954773D01*
X156946613Y-110946921D01*
X156925543Y-110936956D01*
X156905552Y-110924974D01*
X156886832Y-110911090D01*
X156869562Y-110895438D01*
X156853910Y-110878168D01*
X156840026Y-110859448D01*
X156828044Y-110839457D01*
X156818079Y-110818387D01*
X156810227Y-110796443D01*
X156804563Y-110773834D01*
X156801144Y-110750779D01*
X156800000Y-110727500D01*
X156800000Y-110252500D01*
X156801144Y-110229221D01*
X156804563Y-110206166D01*
X156810227Y-110183557D01*
X156818079Y-110161613D01*
X156828044Y-110140543D01*
X156840026Y-110120552D01*
X156853910Y-110101832D01*
X156869562Y-110084562D01*
X156886832Y-110068910D01*
X156905552Y-110055026D01*
X156925543Y-110043044D01*
X156946613Y-110033079D01*
X156968557Y-110025227D01*
X156991166Y-110019563D01*
X157014221Y-110016144D01*
X157037500Y-110015000D01*
X157612500Y-110015000D01*
X157635779Y-110016144D01*
X157635779Y-110016144D01*
G37*
D11*
X157325000Y-110490000D03*
D10*
G36*
X155885779Y-110016144D02*
G01*
X155908834Y-110019563D01*
X155931443Y-110025227D01*
X155953387Y-110033079D01*
X155974457Y-110043044D01*
X155994448Y-110055026D01*
X156013168Y-110068910D01*
X156030438Y-110084562D01*
X156046090Y-110101832D01*
X156059974Y-110120552D01*
X156071956Y-110140543D01*
X156081921Y-110161613D01*
X156089773Y-110183557D01*
X156095437Y-110206166D01*
X156098856Y-110229221D01*
X156100000Y-110252500D01*
X156100000Y-110727500D01*
X156098856Y-110750779D01*
X156095437Y-110773834D01*
X156089773Y-110796443D01*
X156081921Y-110818387D01*
X156071956Y-110839457D01*
X156059974Y-110859448D01*
X156046090Y-110878168D01*
X156030438Y-110895438D01*
X156013168Y-110911090D01*
X155994448Y-110924974D01*
X155974457Y-110936956D01*
X155953387Y-110946921D01*
X155931443Y-110954773D01*
X155908834Y-110960437D01*
X155885779Y-110963856D01*
X155862500Y-110965000D01*
X155287500Y-110965000D01*
X155264221Y-110963856D01*
X155241166Y-110960437D01*
X155218557Y-110954773D01*
X155196613Y-110946921D01*
X155175543Y-110936956D01*
X155155552Y-110924974D01*
X155136832Y-110911090D01*
X155119562Y-110895438D01*
X155103910Y-110878168D01*
X155090026Y-110859448D01*
X155078044Y-110839457D01*
X155068079Y-110818387D01*
X155060227Y-110796443D01*
X155054563Y-110773834D01*
X155051144Y-110750779D01*
X155050000Y-110727500D01*
X155050000Y-110252500D01*
X155051144Y-110229221D01*
X155054563Y-110206166D01*
X155060227Y-110183557D01*
X155068079Y-110161613D01*
X155078044Y-110140543D01*
X155090026Y-110120552D01*
X155103910Y-110101832D01*
X155119562Y-110084562D01*
X155136832Y-110068910D01*
X155155552Y-110055026D01*
X155175543Y-110043044D01*
X155196613Y-110033079D01*
X155218557Y-110025227D01*
X155241166Y-110019563D01*
X155264221Y-110016144D01*
X155287500Y-110015000D01*
X155862500Y-110015000D01*
X155885779Y-110016144D01*
X155885779Y-110016144D01*
G37*
D11*
X155575000Y-110490000D03*
D10*
G36*
X155885779Y-106206144D02*
G01*
X155908834Y-106209563D01*
X155931443Y-106215227D01*
X155953387Y-106223079D01*
X155974457Y-106233044D01*
X155994448Y-106245026D01*
X156013168Y-106258910D01*
X156030438Y-106274562D01*
X156046090Y-106291832D01*
X156059974Y-106310552D01*
X156071956Y-106330543D01*
X156081921Y-106351613D01*
X156089773Y-106373557D01*
X156095437Y-106396166D01*
X156098856Y-106419221D01*
X156100000Y-106442500D01*
X156100000Y-106917500D01*
X156098856Y-106940779D01*
X156095437Y-106963834D01*
X156089773Y-106986443D01*
X156081921Y-107008387D01*
X156071956Y-107029457D01*
X156059974Y-107049448D01*
X156046090Y-107068168D01*
X156030438Y-107085438D01*
X156013168Y-107101090D01*
X155994448Y-107114974D01*
X155974457Y-107126956D01*
X155953387Y-107136921D01*
X155931443Y-107144773D01*
X155908834Y-107150437D01*
X155885779Y-107153856D01*
X155862500Y-107155000D01*
X155287500Y-107155000D01*
X155264221Y-107153856D01*
X155241166Y-107150437D01*
X155218557Y-107144773D01*
X155196613Y-107136921D01*
X155175543Y-107126956D01*
X155155552Y-107114974D01*
X155136832Y-107101090D01*
X155119562Y-107085438D01*
X155103910Y-107068168D01*
X155090026Y-107049448D01*
X155078044Y-107029457D01*
X155068079Y-107008387D01*
X155060227Y-106986443D01*
X155054563Y-106963834D01*
X155051144Y-106940779D01*
X155050000Y-106917500D01*
X155050000Y-106442500D01*
X155051144Y-106419221D01*
X155054563Y-106396166D01*
X155060227Y-106373557D01*
X155068079Y-106351613D01*
X155078044Y-106330543D01*
X155090026Y-106310552D01*
X155103910Y-106291832D01*
X155119562Y-106274562D01*
X155136832Y-106258910D01*
X155155552Y-106245026D01*
X155175543Y-106233044D01*
X155196613Y-106223079D01*
X155218557Y-106215227D01*
X155241166Y-106209563D01*
X155264221Y-106206144D01*
X155287500Y-106205000D01*
X155862500Y-106205000D01*
X155885779Y-106206144D01*
X155885779Y-106206144D01*
G37*
D11*
X155575000Y-106680000D03*
D10*
G36*
X157635779Y-106206144D02*
G01*
X157658834Y-106209563D01*
X157681443Y-106215227D01*
X157703387Y-106223079D01*
X157724457Y-106233044D01*
X157744448Y-106245026D01*
X157763168Y-106258910D01*
X157780438Y-106274562D01*
X157796090Y-106291832D01*
X157809974Y-106310552D01*
X157821956Y-106330543D01*
X157831921Y-106351613D01*
X157839773Y-106373557D01*
X157845437Y-106396166D01*
X157848856Y-106419221D01*
X157850000Y-106442500D01*
X157850000Y-106917500D01*
X157848856Y-106940779D01*
X157845437Y-106963834D01*
X157839773Y-106986443D01*
X157831921Y-107008387D01*
X157821956Y-107029457D01*
X157809974Y-107049448D01*
X157796090Y-107068168D01*
X157780438Y-107085438D01*
X157763168Y-107101090D01*
X157744448Y-107114974D01*
X157724457Y-107126956D01*
X157703387Y-107136921D01*
X157681443Y-107144773D01*
X157658834Y-107150437D01*
X157635779Y-107153856D01*
X157612500Y-107155000D01*
X157037500Y-107155000D01*
X157014221Y-107153856D01*
X156991166Y-107150437D01*
X156968557Y-107144773D01*
X156946613Y-107136921D01*
X156925543Y-107126956D01*
X156905552Y-107114974D01*
X156886832Y-107101090D01*
X156869562Y-107085438D01*
X156853910Y-107068168D01*
X156840026Y-107049448D01*
X156828044Y-107029457D01*
X156818079Y-107008387D01*
X156810227Y-106986443D01*
X156804563Y-106963834D01*
X156801144Y-106940779D01*
X156800000Y-106917500D01*
X156800000Y-106442500D01*
X156801144Y-106419221D01*
X156804563Y-106396166D01*
X156810227Y-106373557D01*
X156818079Y-106351613D01*
X156828044Y-106330543D01*
X156840026Y-106310552D01*
X156853910Y-106291832D01*
X156869562Y-106274562D01*
X156886832Y-106258910D01*
X156905552Y-106245026D01*
X156925543Y-106233044D01*
X156946613Y-106223079D01*
X156968557Y-106215227D01*
X156991166Y-106209563D01*
X157014221Y-106206144D01*
X157037500Y-106205000D01*
X157612500Y-106205000D01*
X157635779Y-106206144D01*
X157635779Y-106206144D01*
G37*
D11*
X157325000Y-106680000D03*
D10*
G36*
X152555779Y-110016144D02*
G01*
X152578834Y-110019563D01*
X152601443Y-110025227D01*
X152623387Y-110033079D01*
X152644457Y-110043044D01*
X152664448Y-110055026D01*
X152683168Y-110068910D01*
X152700438Y-110084562D01*
X152716090Y-110101832D01*
X152729974Y-110120552D01*
X152741956Y-110140543D01*
X152751921Y-110161613D01*
X152759773Y-110183557D01*
X152765437Y-110206166D01*
X152768856Y-110229221D01*
X152770000Y-110252500D01*
X152770000Y-110727500D01*
X152768856Y-110750779D01*
X152765437Y-110773834D01*
X152759773Y-110796443D01*
X152751921Y-110818387D01*
X152741956Y-110839457D01*
X152729974Y-110859448D01*
X152716090Y-110878168D01*
X152700438Y-110895438D01*
X152683168Y-110911090D01*
X152664448Y-110924974D01*
X152644457Y-110936956D01*
X152623387Y-110946921D01*
X152601443Y-110954773D01*
X152578834Y-110960437D01*
X152555779Y-110963856D01*
X152532500Y-110965000D01*
X151957500Y-110965000D01*
X151934221Y-110963856D01*
X151911166Y-110960437D01*
X151888557Y-110954773D01*
X151866613Y-110946921D01*
X151845543Y-110936956D01*
X151825552Y-110924974D01*
X151806832Y-110911090D01*
X151789562Y-110895438D01*
X151773910Y-110878168D01*
X151760026Y-110859448D01*
X151748044Y-110839457D01*
X151738079Y-110818387D01*
X151730227Y-110796443D01*
X151724563Y-110773834D01*
X151721144Y-110750779D01*
X151720000Y-110727500D01*
X151720000Y-110252500D01*
X151721144Y-110229221D01*
X151724563Y-110206166D01*
X151730227Y-110183557D01*
X151738079Y-110161613D01*
X151748044Y-110140543D01*
X151760026Y-110120552D01*
X151773910Y-110101832D01*
X151789562Y-110084562D01*
X151806832Y-110068910D01*
X151825552Y-110055026D01*
X151845543Y-110043044D01*
X151866613Y-110033079D01*
X151888557Y-110025227D01*
X151911166Y-110019563D01*
X151934221Y-110016144D01*
X151957500Y-110015000D01*
X152532500Y-110015000D01*
X152555779Y-110016144D01*
X152555779Y-110016144D01*
G37*
D11*
X152245000Y-110490000D03*
D10*
G36*
X150805779Y-110016144D02*
G01*
X150828834Y-110019563D01*
X150851443Y-110025227D01*
X150873387Y-110033079D01*
X150894457Y-110043044D01*
X150914448Y-110055026D01*
X150933168Y-110068910D01*
X150950438Y-110084562D01*
X150966090Y-110101832D01*
X150979974Y-110120552D01*
X150991956Y-110140543D01*
X151001921Y-110161613D01*
X151009773Y-110183557D01*
X151015437Y-110206166D01*
X151018856Y-110229221D01*
X151020000Y-110252500D01*
X151020000Y-110727500D01*
X151018856Y-110750779D01*
X151015437Y-110773834D01*
X151009773Y-110796443D01*
X151001921Y-110818387D01*
X150991956Y-110839457D01*
X150979974Y-110859448D01*
X150966090Y-110878168D01*
X150950438Y-110895438D01*
X150933168Y-110911090D01*
X150914448Y-110924974D01*
X150894457Y-110936956D01*
X150873387Y-110946921D01*
X150851443Y-110954773D01*
X150828834Y-110960437D01*
X150805779Y-110963856D01*
X150782500Y-110965000D01*
X150207500Y-110965000D01*
X150184221Y-110963856D01*
X150161166Y-110960437D01*
X150138557Y-110954773D01*
X150116613Y-110946921D01*
X150095543Y-110936956D01*
X150075552Y-110924974D01*
X150056832Y-110911090D01*
X150039562Y-110895438D01*
X150023910Y-110878168D01*
X150010026Y-110859448D01*
X149998044Y-110839457D01*
X149988079Y-110818387D01*
X149980227Y-110796443D01*
X149974563Y-110773834D01*
X149971144Y-110750779D01*
X149970000Y-110727500D01*
X149970000Y-110252500D01*
X149971144Y-110229221D01*
X149974563Y-110206166D01*
X149980227Y-110183557D01*
X149988079Y-110161613D01*
X149998044Y-110140543D01*
X150010026Y-110120552D01*
X150023910Y-110101832D01*
X150039562Y-110084562D01*
X150056832Y-110068910D01*
X150075552Y-110055026D01*
X150095543Y-110043044D01*
X150116613Y-110033079D01*
X150138557Y-110025227D01*
X150161166Y-110019563D01*
X150184221Y-110016144D01*
X150207500Y-110015000D01*
X150782500Y-110015000D01*
X150805779Y-110016144D01*
X150805779Y-110016144D01*
G37*
D11*
X150495000Y-110490000D03*
D10*
G36*
X150805779Y-106206144D02*
G01*
X150828834Y-106209563D01*
X150851443Y-106215227D01*
X150873387Y-106223079D01*
X150894457Y-106233044D01*
X150914448Y-106245026D01*
X150933168Y-106258910D01*
X150950438Y-106274562D01*
X150966090Y-106291832D01*
X150979974Y-106310552D01*
X150991956Y-106330543D01*
X151001921Y-106351613D01*
X151009773Y-106373557D01*
X151015437Y-106396166D01*
X151018856Y-106419221D01*
X151020000Y-106442500D01*
X151020000Y-106917500D01*
X151018856Y-106940779D01*
X151015437Y-106963834D01*
X151009773Y-106986443D01*
X151001921Y-107008387D01*
X150991956Y-107029457D01*
X150979974Y-107049448D01*
X150966090Y-107068168D01*
X150950438Y-107085438D01*
X150933168Y-107101090D01*
X150914448Y-107114974D01*
X150894457Y-107126956D01*
X150873387Y-107136921D01*
X150851443Y-107144773D01*
X150828834Y-107150437D01*
X150805779Y-107153856D01*
X150782500Y-107155000D01*
X150207500Y-107155000D01*
X150184221Y-107153856D01*
X150161166Y-107150437D01*
X150138557Y-107144773D01*
X150116613Y-107136921D01*
X150095543Y-107126956D01*
X150075552Y-107114974D01*
X150056832Y-107101090D01*
X150039562Y-107085438D01*
X150023910Y-107068168D01*
X150010026Y-107049448D01*
X149998044Y-107029457D01*
X149988079Y-107008387D01*
X149980227Y-106986443D01*
X149974563Y-106963834D01*
X149971144Y-106940779D01*
X149970000Y-106917500D01*
X149970000Y-106442500D01*
X149971144Y-106419221D01*
X149974563Y-106396166D01*
X149980227Y-106373557D01*
X149988079Y-106351613D01*
X149998044Y-106330543D01*
X150010026Y-106310552D01*
X150023910Y-106291832D01*
X150039562Y-106274562D01*
X150056832Y-106258910D01*
X150075552Y-106245026D01*
X150095543Y-106233044D01*
X150116613Y-106223079D01*
X150138557Y-106215227D01*
X150161166Y-106209563D01*
X150184221Y-106206144D01*
X150207500Y-106205000D01*
X150782500Y-106205000D01*
X150805779Y-106206144D01*
X150805779Y-106206144D01*
G37*
D11*
X150495000Y-106680000D03*
D10*
G36*
X152555779Y-106206144D02*
G01*
X152578834Y-106209563D01*
X152601443Y-106215227D01*
X152623387Y-106223079D01*
X152644457Y-106233044D01*
X152664448Y-106245026D01*
X152683168Y-106258910D01*
X152700438Y-106274562D01*
X152716090Y-106291832D01*
X152729974Y-106310552D01*
X152741956Y-106330543D01*
X152751921Y-106351613D01*
X152759773Y-106373557D01*
X152765437Y-106396166D01*
X152768856Y-106419221D01*
X152770000Y-106442500D01*
X152770000Y-106917500D01*
X152768856Y-106940779D01*
X152765437Y-106963834D01*
X152759773Y-106986443D01*
X152751921Y-107008387D01*
X152741956Y-107029457D01*
X152729974Y-107049448D01*
X152716090Y-107068168D01*
X152700438Y-107085438D01*
X152683168Y-107101090D01*
X152664448Y-107114974D01*
X152644457Y-107126956D01*
X152623387Y-107136921D01*
X152601443Y-107144773D01*
X152578834Y-107150437D01*
X152555779Y-107153856D01*
X152532500Y-107155000D01*
X151957500Y-107155000D01*
X151934221Y-107153856D01*
X151911166Y-107150437D01*
X151888557Y-107144773D01*
X151866613Y-107136921D01*
X151845543Y-107126956D01*
X151825552Y-107114974D01*
X151806832Y-107101090D01*
X151789562Y-107085438D01*
X151773910Y-107068168D01*
X151760026Y-107049448D01*
X151748044Y-107029457D01*
X151738079Y-107008387D01*
X151730227Y-106986443D01*
X151724563Y-106963834D01*
X151721144Y-106940779D01*
X151720000Y-106917500D01*
X151720000Y-106442500D01*
X151721144Y-106419221D01*
X151724563Y-106396166D01*
X151730227Y-106373557D01*
X151738079Y-106351613D01*
X151748044Y-106330543D01*
X151760026Y-106310552D01*
X151773910Y-106291832D01*
X151789562Y-106274562D01*
X151806832Y-106258910D01*
X151825552Y-106245026D01*
X151845543Y-106233044D01*
X151866613Y-106223079D01*
X151888557Y-106215227D01*
X151911166Y-106209563D01*
X151934221Y-106206144D01*
X151957500Y-106205000D01*
X152532500Y-106205000D01*
X152555779Y-106206144D01*
X152555779Y-106206144D01*
G37*
D11*
X152245000Y-106680000D03*
D10*
G36*
X124770779Y-105571144D02*
G01*
X124793834Y-105574563D01*
X124816443Y-105580227D01*
X124838387Y-105588079D01*
X124859457Y-105598044D01*
X124879448Y-105610026D01*
X124898168Y-105623910D01*
X124915438Y-105639562D01*
X124931090Y-105656832D01*
X124944974Y-105675552D01*
X124956956Y-105695543D01*
X124966921Y-105716613D01*
X124974773Y-105738557D01*
X124980437Y-105761166D01*
X124983856Y-105784221D01*
X124985000Y-105807500D01*
X124985000Y-106282500D01*
X124983856Y-106305779D01*
X124980437Y-106328834D01*
X124974773Y-106351443D01*
X124966921Y-106373387D01*
X124956956Y-106394457D01*
X124944974Y-106414448D01*
X124931090Y-106433168D01*
X124915438Y-106450438D01*
X124898168Y-106466090D01*
X124879448Y-106479974D01*
X124859457Y-106491956D01*
X124838387Y-106501921D01*
X124816443Y-106509773D01*
X124793834Y-106515437D01*
X124770779Y-106518856D01*
X124747500Y-106520000D01*
X124172500Y-106520000D01*
X124149221Y-106518856D01*
X124126166Y-106515437D01*
X124103557Y-106509773D01*
X124081613Y-106501921D01*
X124060543Y-106491956D01*
X124040552Y-106479974D01*
X124021832Y-106466090D01*
X124004562Y-106450438D01*
X123988910Y-106433168D01*
X123975026Y-106414448D01*
X123963044Y-106394457D01*
X123953079Y-106373387D01*
X123945227Y-106351443D01*
X123939563Y-106328834D01*
X123936144Y-106305779D01*
X123935000Y-106282500D01*
X123935000Y-105807500D01*
X123936144Y-105784221D01*
X123939563Y-105761166D01*
X123945227Y-105738557D01*
X123953079Y-105716613D01*
X123963044Y-105695543D01*
X123975026Y-105675552D01*
X123988910Y-105656832D01*
X124004562Y-105639562D01*
X124021832Y-105623910D01*
X124040552Y-105610026D01*
X124060543Y-105598044D01*
X124081613Y-105588079D01*
X124103557Y-105580227D01*
X124126166Y-105574563D01*
X124149221Y-105571144D01*
X124172500Y-105570000D01*
X124747500Y-105570000D01*
X124770779Y-105571144D01*
X124770779Y-105571144D01*
G37*
D11*
X124460000Y-106045000D03*
D10*
G36*
X126520779Y-105571144D02*
G01*
X126543834Y-105574563D01*
X126566443Y-105580227D01*
X126588387Y-105588079D01*
X126609457Y-105598044D01*
X126629448Y-105610026D01*
X126648168Y-105623910D01*
X126665438Y-105639562D01*
X126681090Y-105656832D01*
X126694974Y-105675552D01*
X126706956Y-105695543D01*
X126716921Y-105716613D01*
X126724773Y-105738557D01*
X126730437Y-105761166D01*
X126733856Y-105784221D01*
X126735000Y-105807500D01*
X126735000Y-106282500D01*
X126733856Y-106305779D01*
X126730437Y-106328834D01*
X126724773Y-106351443D01*
X126716921Y-106373387D01*
X126706956Y-106394457D01*
X126694974Y-106414448D01*
X126681090Y-106433168D01*
X126665438Y-106450438D01*
X126648168Y-106466090D01*
X126629448Y-106479974D01*
X126609457Y-106491956D01*
X126588387Y-106501921D01*
X126566443Y-106509773D01*
X126543834Y-106515437D01*
X126520779Y-106518856D01*
X126497500Y-106520000D01*
X125922500Y-106520000D01*
X125899221Y-106518856D01*
X125876166Y-106515437D01*
X125853557Y-106509773D01*
X125831613Y-106501921D01*
X125810543Y-106491956D01*
X125790552Y-106479974D01*
X125771832Y-106466090D01*
X125754562Y-106450438D01*
X125738910Y-106433168D01*
X125725026Y-106414448D01*
X125713044Y-106394457D01*
X125703079Y-106373387D01*
X125695227Y-106351443D01*
X125689563Y-106328834D01*
X125686144Y-106305779D01*
X125685000Y-106282500D01*
X125685000Y-105807500D01*
X125686144Y-105784221D01*
X125689563Y-105761166D01*
X125695227Y-105738557D01*
X125703079Y-105716613D01*
X125713044Y-105695543D01*
X125725026Y-105675552D01*
X125738910Y-105656832D01*
X125754562Y-105639562D01*
X125771832Y-105623910D01*
X125790552Y-105610026D01*
X125810543Y-105598044D01*
X125831613Y-105588079D01*
X125853557Y-105580227D01*
X125876166Y-105574563D01*
X125899221Y-105571144D01*
X125922500Y-105570000D01*
X126497500Y-105570000D01*
X126520779Y-105571144D01*
X126520779Y-105571144D01*
G37*
D11*
X126210000Y-106045000D03*
D10*
G36*
X157635779Y-98586144D02*
G01*
X157658834Y-98589563D01*
X157681443Y-98595227D01*
X157703387Y-98603079D01*
X157724457Y-98613044D01*
X157744448Y-98625026D01*
X157763168Y-98638910D01*
X157780438Y-98654562D01*
X157796090Y-98671832D01*
X157809974Y-98690552D01*
X157821956Y-98710543D01*
X157831921Y-98731613D01*
X157839773Y-98753557D01*
X157845437Y-98776166D01*
X157848856Y-98799221D01*
X157850000Y-98822500D01*
X157850000Y-99297500D01*
X157848856Y-99320779D01*
X157845437Y-99343834D01*
X157839773Y-99366443D01*
X157831921Y-99388387D01*
X157821956Y-99409457D01*
X157809974Y-99429448D01*
X157796090Y-99448168D01*
X157780438Y-99465438D01*
X157763168Y-99481090D01*
X157744448Y-99494974D01*
X157724457Y-99506956D01*
X157703387Y-99516921D01*
X157681443Y-99524773D01*
X157658834Y-99530437D01*
X157635779Y-99533856D01*
X157612500Y-99535000D01*
X157037500Y-99535000D01*
X157014221Y-99533856D01*
X156991166Y-99530437D01*
X156968557Y-99524773D01*
X156946613Y-99516921D01*
X156925543Y-99506956D01*
X156905552Y-99494974D01*
X156886832Y-99481090D01*
X156869562Y-99465438D01*
X156853910Y-99448168D01*
X156840026Y-99429448D01*
X156828044Y-99409457D01*
X156818079Y-99388387D01*
X156810227Y-99366443D01*
X156804563Y-99343834D01*
X156801144Y-99320779D01*
X156800000Y-99297500D01*
X156800000Y-98822500D01*
X156801144Y-98799221D01*
X156804563Y-98776166D01*
X156810227Y-98753557D01*
X156818079Y-98731613D01*
X156828044Y-98710543D01*
X156840026Y-98690552D01*
X156853910Y-98671832D01*
X156869562Y-98654562D01*
X156886832Y-98638910D01*
X156905552Y-98625026D01*
X156925543Y-98613044D01*
X156946613Y-98603079D01*
X156968557Y-98595227D01*
X156991166Y-98589563D01*
X157014221Y-98586144D01*
X157037500Y-98585000D01*
X157612500Y-98585000D01*
X157635779Y-98586144D01*
X157635779Y-98586144D01*
G37*
D11*
X157325000Y-99060000D03*
D10*
G36*
X155885779Y-98586144D02*
G01*
X155908834Y-98589563D01*
X155931443Y-98595227D01*
X155953387Y-98603079D01*
X155974457Y-98613044D01*
X155994448Y-98625026D01*
X156013168Y-98638910D01*
X156030438Y-98654562D01*
X156046090Y-98671832D01*
X156059974Y-98690552D01*
X156071956Y-98710543D01*
X156081921Y-98731613D01*
X156089773Y-98753557D01*
X156095437Y-98776166D01*
X156098856Y-98799221D01*
X156100000Y-98822500D01*
X156100000Y-99297500D01*
X156098856Y-99320779D01*
X156095437Y-99343834D01*
X156089773Y-99366443D01*
X156081921Y-99388387D01*
X156071956Y-99409457D01*
X156059974Y-99429448D01*
X156046090Y-99448168D01*
X156030438Y-99465438D01*
X156013168Y-99481090D01*
X155994448Y-99494974D01*
X155974457Y-99506956D01*
X155953387Y-99516921D01*
X155931443Y-99524773D01*
X155908834Y-99530437D01*
X155885779Y-99533856D01*
X155862500Y-99535000D01*
X155287500Y-99535000D01*
X155264221Y-99533856D01*
X155241166Y-99530437D01*
X155218557Y-99524773D01*
X155196613Y-99516921D01*
X155175543Y-99506956D01*
X155155552Y-99494974D01*
X155136832Y-99481090D01*
X155119562Y-99465438D01*
X155103910Y-99448168D01*
X155090026Y-99429448D01*
X155078044Y-99409457D01*
X155068079Y-99388387D01*
X155060227Y-99366443D01*
X155054563Y-99343834D01*
X155051144Y-99320779D01*
X155050000Y-99297500D01*
X155050000Y-98822500D01*
X155051144Y-98799221D01*
X155054563Y-98776166D01*
X155060227Y-98753557D01*
X155068079Y-98731613D01*
X155078044Y-98710543D01*
X155090026Y-98690552D01*
X155103910Y-98671832D01*
X155119562Y-98654562D01*
X155136832Y-98638910D01*
X155155552Y-98625026D01*
X155175543Y-98613044D01*
X155196613Y-98603079D01*
X155218557Y-98595227D01*
X155241166Y-98589563D01*
X155264221Y-98586144D01*
X155287500Y-98585000D01*
X155862500Y-98585000D01*
X155885779Y-98586144D01*
X155885779Y-98586144D01*
G37*
D11*
X155575000Y-99060000D03*
D10*
G36*
X150805779Y-98586144D02*
G01*
X150828834Y-98589563D01*
X150851443Y-98595227D01*
X150873387Y-98603079D01*
X150894457Y-98613044D01*
X150914448Y-98625026D01*
X150933168Y-98638910D01*
X150950438Y-98654562D01*
X150966090Y-98671832D01*
X150979974Y-98690552D01*
X150991956Y-98710543D01*
X151001921Y-98731613D01*
X151009773Y-98753557D01*
X151015437Y-98776166D01*
X151018856Y-98799221D01*
X151020000Y-98822500D01*
X151020000Y-99297500D01*
X151018856Y-99320779D01*
X151015437Y-99343834D01*
X151009773Y-99366443D01*
X151001921Y-99388387D01*
X150991956Y-99409457D01*
X150979974Y-99429448D01*
X150966090Y-99448168D01*
X150950438Y-99465438D01*
X150933168Y-99481090D01*
X150914448Y-99494974D01*
X150894457Y-99506956D01*
X150873387Y-99516921D01*
X150851443Y-99524773D01*
X150828834Y-99530437D01*
X150805779Y-99533856D01*
X150782500Y-99535000D01*
X150207500Y-99535000D01*
X150184221Y-99533856D01*
X150161166Y-99530437D01*
X150138557Y-99524773D01*
X150116613Y-99516921D01*
X150095543Y-99506956D01*
X150075552Y-99494974D01*
X150056832Y-99481090D01*
X150039562Y-99465438D01*
X150023910Y-99448168D01*
X150010026Y-99429448D01*
X149998044Y-99409457D01*
X149988079Y-99388387D01*
X149980227Y-99366443D01*
X149974563Y-99343834D01*
X149971144Y-99320779D01*
X149970000Y-99297500D01*
X149970000Y-98822500D01*
X149971144Y-98799221D01*
X149974563Y-98776166D01*
X149980227Y-98753557D01*
X149988079Y-98731613D01*
X149998044Y-98710543D01*
X150010026Y-98690552D01*
X150023910Y-98671832D01*
X150039562Y-98654562D01*
X150056832Y-98638910D01*
X150075552Y-98625026D01*
X150095543Y-98613044D01*
X150116613Y-98603079D01*
X150138557Y-98595227D01*
X150161166Y-98589563D01*
X150184221Y-98586144D01*
X150207500Y-98585000D01*
X150782500Y-98585000D01*
X150805779Y-98586144D01*
X150805779Y-98586144D01*
G37*
D11*
X150495000Y-99060000D03*
D10*
G36*
X152555779Y-98586144D02*
G01*
X152578834Y-98589563D01*
X152601443Y-98595227D01*
X152623387Y-98603079D01*
X152644457Y-98613044D01*
X152664448Y-98625026D01*
X152683168Y-98638910D01*
X152700438Y-98654562D01*
X152716090Y-98671832D01*
X152729974Y-98690552D01*
X152741956Y-98710543D01*
X152751921Y-98731613D01*
X152759773Y-98753557D01*
X152765437Y-98776166D01*
X152768856Y-98799221D01*
X152770000Y-98822500D01*
X152770000Y-99297500D01*
X152768856Y-99320779D01*
X152765437Y-99343834D01*
X152759773Y-99366443D01*
X152751921Y-99388387D01*
X152741956Y-99409457D01*
X152729974Y-99429448D01*
X152716090Y-99448168D01*
X152700438Y-99465438D01*
X152683168Y-99481090D01*
X152664448Y-99494974D01*
X152644457Y-99506956D01*
X152623387Y-99516921D01*
X152601443Y-99524773D01*
X152578834Y-99530437D01*
X152555779Y-99533856D01*
X152532500Y-99535000D01*
X151957500Y-99535000D01*
X151934221Y-99533856D01*
X151911166Y-99530437D01*
X151888557Y-99524773D01*
X151866613Y-99516921D01*
X151845543Y-99506956D01*
X151825552Y-99494974D01*
X151806832Y-99481090D01*
X151789562Y-99465438D01*
X151773910Y-99448168D01*
X151760026Y-99429448D01*
X151748044Y-99409457D01*
X151738079Y-99388387D01*
X151730227Y-99366443D01*
X151724563Y-99343834D01*
X151721144Y-99320779D01*
X151720000Y-99297500D01*
X151720000Y-98822500D01*
X151721144Y-98799221D01*
X151724563Y-98776166D01*
X151730227Y-98753557D01*
X151738079Y-98731613D01*
X151748044Y-98710543D01*
X151760026Y-98690552D01*
X151773910Y-98671832D01*
X151789562Y-98654562D01*
X151806832Y-98638910D01*
X151825552Y-98625026D01*
X151845543Y-98613044D01*
X151866613Y-98603079D01*
X151888557Y-98595227D01*
X151911166Y-98589563D01*
X151934221Y-98586144D01*
X151957500Y-98585000D01*
X152532500Y-98585000D01*
X152555779Y-98586144D01*
X152555779Y-98586144D01*
G37*
D11*
X152245000Y-99060000D03*
M02*
