G04 #@! TF.GenerationSoftware,KiCad,Pcbnew,(5.0.2)-1*
G04 #@! TF.CreationDate,2019-02-28T16:47:17-06:00*
G04 #@! TF.ProjectId,RaspberryPiBreakout_Hardware,52617370-6265-4727-9279-506942726561,rev?*
G04 #@! TF.SameCoordinates,Original*
G04 #@! TF.FileFunction,Paste,Top*
G04 #@! TF.FilePolarity,Positive*
%FSLAX46Y46*%
G04 Gerber Fmt 4.6, Leading zero omitted, Abs format (unit mm)*
G04 Created by KiCad (PCBNEW (5.0.2)-1) date 2/28/2019 4:47:17 PM*
%MOMM*%
%LPD*%
G01*
G04 APERTURE LIST*
%ADD10C,0.100000*%
%ADD11C,0.950000*%
%ADD12C,5.080000*%
G04 APERTURE END LIST*
D10*
G04 #@! TO.C,C1*
G36*
X157740779Y-112506144D02*
X157763834Y-112509563D01*
X157786443Y-112515227D01*
X157808387Y-112523079D01*
X157829457Y-112533044D01*
X157849448Y-112545026D01*
X157868168Y-112558910D01*
X157885438Y-112574562D01*
X157901090Y-112591832D01*
X157914974Y-112610552D01*
X157926956Y-112630543D01*
X157936921Y-112651613D01*
X157944773Y-112673557D01*
X157950437Y-112696166D01*
X157953856Y-112719221D01*
X157955000Y-112742500D01*
X157955000Y-113317500D01*
X157953856Y-113340779D01*
X157950437Y-113363834D01*
X157944773Y-113386443D01*
X157936921Y-113408387D01*
X157926956Y-113429457D01*
X157914974Y-113449448D01*
X157901090Y-113468168D01*
X157885438Y-113485438D01*
X157868168Y-113501090D01*
X157849448Y-113514974D01*
X157829457Y-113526956D01*
X157808387Y-113536921D01*
X157786443Y-113544773D01*
X157763834Y-113550437D01*
X157740779Y-113553856D01*
X157717500Y-113555000D01*
X157242500Y-113555000D01*
X157219221Y-113553856D01*
X157196166Y-113550437D01*
X157173557Y-113544773D01*
X157151613Y-113536921D01*
X157130543Y-113526956D01*
X157110552Y-113514974D01*
X157091832Y-113501090D01*
X157074562Y-113485438D01*
X157058910Y-113468168D01*
X157045026Y-113449448D01*
X157033044Y-113429457D01*
X157023079Y-113408387D01*
X157015227Y-113386443D01*
X157009563Y-113363834D01*
X157006144Y-113340779D01*
X157005000Y-113317500D01*
X157005000Y-112742500D01*
X157006144Y-112719221D01*
X157009563Y-112696166D01*
X157015227Y-112673557D01*
X157023079Y-112651613D01*
X157033044Y-112630543D01*
X157045026Y-112610552D01*
X157058910Y-112591832D01*
X157074562Y-112574562D01*
X157091832Y-112558910D01*
X157110552Y-112545026D01*
X157130543Y-112533044D01*
X157151613Y-112523079D01*
X157173557Y-112515227D01*
X157196166Y-112509563D01*
X157219221Y-112506144D01*
X157242500Y-112505000D01*
X157717500Y-112505000D01*
X157740779Y-112506144D01*
X157740779Y-112506144D01*
G37*
D11*
X157480000Y-113030000D03*
D10*
G36*
X157740779Y-110756144D02*
X157763834Y-110759563D01*
X157786443Y-110765227D01*
X157808387Y-110773079D01*
X157829457Y-110783044D01*
X157849448Y-110795026D01*
X157868168Y-110808910D01*
X157885438Y-110824562D01*
X157901090Y-110841832D01*
X157914974Y-110860552D01*
X157926956Y-110880543D01*
X157936921Y-110901613D01*
X157944773Y-110923557D01*
X157950437Y-110946166D01*
X157953856Y-110969221D01*
X157955000Y-110992500D01*
X157955000Y-111567500D01*
X157953856Y-111590779D01*
X157950437Y-111613834D01*
X157944773Y-111636443D01*
X157936921Y-111658387D01*
X157926956Y-111679457D01*
X157914974Y-111699448D01*
X157901090Y-111718168D01*
X157885438Y-111735438D01*
X157868168Y-111751090D01*
X157849448Y-111764974D01*
X157829457Y-111776956D01*
X157808387Y-111786921D01*
X157786443Y-111794773D01*
X157763834Y-111800437D01*
X157740779Y-111803856D01*
X157717500Y-111805000D01*
X157242500Y-111805000D01*
X157219221Y-111803856D01*
X157196166Y-111800437D01*
X157173557Y-111794773D01*
X157151613Y-111786921D01*
X157130543Y-111776956D01*
X157110552Y-111764974D01*
X157091832Y-111751090D01*
X157074562Y-111735438D01*
X157058910Y-111718168D01*
X157045026Y-111699448D01*
X157033044Y-111679457D01*
X157023079Y-111658387D01*
X157015227Y-111636443D01*
X157009563Y-111613834D01*
X157006144Y-111590779D01*
X157005000Y-111567500D01*
X157005000Y-110992500D01*
X157006144Y-110969221D01*
X157009563Y-110946166D01*
X157015227Y-110923557D01*
X157023079Y-110901613D01*
X157033044Y-110880543D01*
X157045026Y-110860552D01*
X157058910Y-110841832D01*
X157074562Y-110824562D01*
X157091832Y-110808910D01*
X157110552Y-110795026D01*
X157130543Y-110783044D01*
X157151613Y-110773079D01*
X157173557Y-110765227D01*
X157196166Y-110759563D01*
X157219221Y-110756144D01*
X157242500Y-110755000D01*
X157717500Y-110755000D01*
X157740779Y-110756144D01*
X157740779Y-110756144D01*
G37*
D11*
X157480000Y-111280000D03*
G04 #@! TD*
D10*
G04 #@! TO.C,C2*
G36*
X157740779Y-115046144D02*
X157763834Y-115049563D01*
X157786443Y-115055227D01*
X157808387Y-115063079D01*
X157829457Y-115073044D01*
X157849448Y-115085026D01*
X157868168Y-115098910D01*
X157885438Y-115114562D01*
X157901090Y-115131832D01*
X157914974Y-115150552D01*
X157926956Y-115170543D01*
X157936921Y-115191613D01*
X157944773Y-115213557D01*
X157950437Y-115236166D01*
X157953856Y-115259221D01*
X157955000Y-115282500D01*
X157955000Y-115857500D01*
X157953856Y-115880779D01*
X157950437Y-115903834D01*
X157944773Y-115926443D01*
X157936921Y-115948387D01*
X157926956Y-115969457D01*
X157914974Y-115989448D01*
X157901090Y-116008168D01*
X157885438Y-116025438D01*
X157868168Y-116041090D01*
X157849448Y-116054974D01*
X157829457Y-116066956D01*
X157808387Y-116076921D01*
X157786443Y-116084773D01*
X157763834Y-116090437D01*
X157740779Y-116093856D01*
X157717500Y-116095000D01*
X157242500Y-116095000D01*
X157219221Y-116093856D01*
X157196166Y-116090437D01*
X157173557Y-116084773D01*
X157151613Y-116076921D01*
X157130543Y-116066956D01*
X157110552Y-116054974D01*
X157091832Y-116041090D01*
X157074562Y-116025438D01*
X157058910Y-116008168D01*
X157045026Y-115989448D01*
X157033044Y-115969457D01*
X157023079Y-115948387D01*
X157015227Y-115926443D01*
X157009563Y-115903834D01*
X157006144Y-115880779D01*
X157005000Y-115857500D01*
X157005000Y-115282500D01*
X157006144Y-115259221D01*
X157009563Y-115236166D01*
X157015227Y-115213557D01*
X157023079Y-115191613D01*
X157033044Y-115170543D01*
X157045026Y-115150552D01*
X157058910Y-115131832D01*
X157074562Y-115114562D01*
X157091832Y-115098910D01*
X157110552Y-115085026D01*
X157130543Y-115073044D01*
X157151613Y-115063079D01*
X157173557Y-115055227D01*
X157196166Y-115049563D01*
X157219221Y-115046144D01*
X157242500Y-115045000D01*
X157717500Y-115045000D01*
X157740779Y-115046144D01*
X157740779Y-115046144D01*
G37*
D11*
X157480000Y-115570000D03*
D10*
G36*
X157740779Y-116796144D02*
X157763834Y-116799563D01*
X157786443Y-116805227D01*
X157808387Y-116813079D01*
X157829457Y-116823044D01*
X157849448Y-116835026D01*
X157868168Y-116848910D01*
X157885438Y-116864562D01*
X157901090Y-116881832D01*
X157914974Y-116900552D01*
X157926956Y-116920543D01*
X157936921Y-116941613D01*
X157944773Y-116963557D01*
X157950437Y-116986166D01*
X157953856Y-117009221D01*
X157955000Y-117032500D01*
X157955000Y-117607500D01*
X157953856Y-117630779D01*
X157950437Y-117653834D01*
X157944773Y-117676443D01*
X157936921Y-117698387D01*
X157926956Y-117719457D01*
X157914974Y-117739448D01*
X157901090Y-117758168D01*
X157885438Y-117775438D01*
X157868168Y-117791090D01*
X157849448Y-117804974D01*
X157829457Y-117816956D01*
X157808387Y-117826921D01*
X157786443Y-117834773D01*
X157763834Y-117840437D01*
X157740779Y-117843856D01*
X157717500Y-117845000D01*
X157242500Y-117845000D01*
X157219221Y-117843856D01*
X157196166Y-117840437D01*
X157173557Y-117834773D01*
X157151613Y-117826921D01*
X157130543Y-117816956D01*
X157110552Y-117804974D01*
X157091832Y-117791090D01*
X157074562Y-117775438D01*
X157058910Y-117758168D01*
X157045026Y-117739448D01*
X157033044Y-117719457D01*
X157023079Y-117698387D01*
X157015227Y-117676443D01*
X157009563Y-117653834D01*
X157006144Y-117630779D01*
X157005000Y-117607500D01*
X157005000Y-117032500D01*
X157006144Y-117009221D01*
X157009563Y-116986166D01*
X157015227Y-116963557D01*
X157023079Y-116941613D01*
X157033044Y-116920543D01*
X157045026Y-116900552D01*
X157058910Y-116881832D01*
X157074562Y-116864562D01*
X157091832Y-116848910D01*
X157110552Y-116835026D01*
X157130543Y-116823044D01*
X157151613Y-116813079D01*
X157173557Y-116805227D01*
X157196166Y-116799563D01*
X157219221Y-116796144D01*
X157242500Y-116795000D01*
X157717500Y-116795000D01*
X157740779Y-116796144D01*
X157740779Y-116796144D01*
G37*
D11*
X157480000Y-117320000D03*
G04 #@! TD*
D12*
G04 #@! TO.C,Conn1*
X167640000Y-118491000D03*
X167640000Y-110617000D03*
G04 #@! TD*
M02*
