G04 #@! TF.GenerationSoftware,KiCad,Pcbnew,(5.1.4)-1*
G04 #@! TF.CreationDate,2020-11-03T16:52:14-06:00*
G04 #@! TF.ProjectId,RaspberryPiBreakout_Hardware,52617370-6265-4727-9279-506942726561,rev?*
G04 #@! TF.SameCoordinates,Original*
G04 #@! TF.FileFunction,Copper,L2,Bot*
G04 #@! TF.FilePolarity,Positive*
%FSLAX46Y46*%
G04 Gerber Fmt 4.6, Leading zero omitted, Abs format (unit mm)*
G04 Created by KiCad (PCBNEW (5.1.4)-1) date 2020-11-03 16:52:14*
%MOMM*%
%LPD*%
G04 APERTURE LIST*
%ADD10C,1.700000*%
%ADD11C,5.080000*%
%ADD12C,1.524000*%
%ADD13C,1.600000*%
%ADD14R,1.600000X1.600000*%
%ADD15C,0.800000*%
%ADD16C,0.762000*%
%ADD17C,0.381000*%
%ADD18C,0.254000*%
G04 APERTURE END LIST*
D10*
X171450000Y-76454000D03*
X171450000Y-78994000D03*
X168910000Y-76454000D03*
X168910000Y-78994000D03*
X166370000Y-76454000D03*
X166370000Y-78994000D03*
X163830000Y-76454000D03*
X163830000Y-78994000D03*
X161290000Y-76454000D03*
X161290000Y-78994000D03*
X158750000Y-76454000D03*
X158750000Y-78994000D03*
X156210000Y-76454000D03*
X156210000Y-78994000D03*
X153670000Y-76454000D03*
X153670000Y-78994000D03*
X151130000Y-76454000D03*
X151130000Y-78994000D03*
X148590000Y-76454000D03*
X148590000Y-78994000D03*
X146050000Y-76454000D03*
X146050000Y-78994000D03*
X143510000Y-76454000D03*
X143510000Y-78994000D03*
X140970000Y-76454000D03*
X140970000Y-78994000D03*
X138430000Y-76454000D03*
X138430000Y-78994000D03*
X135890000Y-76454000D03*
X135890000Y-78994000D03*
X133350000Y-76454000D03*
X133350000Y-78994000D03*
X130810000Y-76454000D03*
X130810000Y-78994000D03*
X128270000Y-76454000D03*
X128270000Y-78994000D03*
X125730000Y-76454000D03*
X125730000Y-78994000D03*
X123190000Y-76454000D03*
X123190000Y-78994000D03*
D11*
X86360000Y-81026000D03*
X86360000Y-88900000D03*
D12*
X86360000Y-120650000D03*
X86360000Y-118110000D03*
X86360000Y-115570000D03*
X86360000Y-106680000D03*
X86360000Y-104140000D03*
X86360000Y-101600000D03*
X86360000Y-99060000D03*
X107315000Y-102870000D03*
X109855000Y-102870000D03*
X112395000Y-102870000D03*
D13*
X104815000Y-78740000D03*
D14*
X107315000Y-78740000D03*
D12*
X124460000Y-88900000D03*
X121920000Y-88900000D03*
X119380000Y-88900000D03*
D15*
X107315000Y-85725000D03*
X123190000Y-85725000D03*
X129540000Y-102870000D03*
X132080000Y-120650000D03*
X137160000Y-118110000D03*
X134649499Y-118080501D03*
X134649499Y-114300000D03*
X94742000Y-104775000D03*
X94742000Y-81915000D03*
X163830000Y-110490000D03*
X163830000Y-81915000D03*
X128270000Y-83185000D03*
X161925000Y-83185000D03*
X97155000Y-83185000D03*
X97155000Y-101092000D03*
X161925000Y-106680000D03*
X124460000Y-99060000D03*
D16*
X107315000Y-78740000D02*
X107315000Y-83185000D01*
X107315000Y-85725000D02*
X107315000Y-99060000D01*
X107315000Y-83185000D02*
X107315000Y-85725000D01*
X123190000Y-85725000D02*
X123190000Y-78994000D01*
X107315000Y-100965000D02*
X107315000Y-102870000D01*
X107315000Y-99060000D02*
X107315000Y-100965000D01*
D17*
X107315000Y-100965000D02*
X128905000Y-100965000D01*
X128905000Y-100965000D02*
X129540000Y-101600000D01*
X129540000Y-101600000D02*
X129540000Y-102870000D01*
X130810000Y-76454000D02*
X132109499Y-77753499D01*
X132109499Y-119985501D02*
X132109499Y-120620501D01*
X132109499Y-120620501D02*
X132080000Y-120650000D01*
X132109499Y-77753499D02*
X132109499Y-106680000D01*
X132109499Y-106680000D02*
X132109499Y-119985501D01*
X132109499Y-119985501D02*
X136554499Y-119985501D01*
X136554499Y-119985501D02*
X137160000Y-119380000D01*
X137160000Y-119380000D02*
X137160000Y-118110000D01*
X133350000Y-76454000D02*
X134649499Y-77753499D01*
X134649499Y-77753499D02*
X134649499Y-110490000D01*
X134649499Y-110490000D02*
X134649499Y-114300000D01*
X134649499Y-114300000D02*
X134649499Y-118080501D01*
X94742000Y-104775000D02*
X94742000Y-81915000D01*
X163830000Y-106680000D02*
X163830000Y-110490000D01*
X163830000Y-81915000D02*
X163830000Y-106680000D01*
X128270000Y-78994000D02*
X128270000Y-83185000D01*
X161925000Y-102870000D02*
X161925000Y-83185000D01*
X97155000Y-101092000D02*
X97155000Y-83185000D01*
X161925000Y-102870000D02*
X161925000Y-106680000D01*
X125730000Y-76454000D02*
X124841000Y-76454000D01*
X124460000Y-76835000D02*
X124460000Y-88900000D01*
X124841000Y-76454000D02*
X124460000Y-76835000D01*
X124460000Y-88900000D02*
X124460000Y-99060000D01*
D18*
G36*
X122243368Y-75300525D02*
G01*
X122036525Y-75507368D01*
X121874010Y-75750589D01*
X121762068Y-76020842D01*
X121705000Y-76307740D01*
X121705000Y-76600260D01*
X121762068Y-76887158D01*
X121874010Y-77157411D01*
X122036525Y-77400632D01*
X122243368Y-77607475D01*
X122417760Y-77724000D01*
X122243368Y-77840525D01*
X122036525Y-78047368D01*
X121874010Y-78290589D01*
X121762068Y-78560842D01*
X121705000Y-78847740D01*
X121705000Y-79140260D01*
X121762068Y-79427158D01*
X121874010Y-79697411D01*
X122036525Y-79940632D01*
X122174001Y-80078108D01*
X122174000Y-85527541D01*
X122155000Y-85623061D01*
X122155000Y-85826939D01*
X122194774Y-86026898D01*
X122272795Y-86215256D01*
X122386063Y-86384774D01*
X122530226Y-86528937D01*
X122699744Y-86642205D01*
X122888102Y-86720226D01*
X123088061Y-86760000D01*
X123291939Y-86760000D01*
X123491898Y-86720226D01*
X123634501Y-86661158D01*
X123634501Y-87771424D01*
X123569465Y-87814880D01*
X123374880Y-88009465D01*
X123221995Y-88238273D01*
X123116686Y-88492510D01*
X123063000Y-88762408D01*
X123063000Y-89037592D01*
X123116686Y-89307490D01*
X123221995Y-89561727D01*
X123374880Y-89790535D01*
X123569465Y-89985120D01*
X123634500Y-90028575D01*
X123634501Y-98432496D01*
X123542795Y-98569744D01*
X123464774Y-98758102D01*
X123425000Y-98958061D01*
X123425000Y-99161939D01*
X123464774Y-99361898D01*
X123542795Y-99550256D01*
X123656063Y-99719774D01*
X123800226Y-99863937D01*
X123969744Y-99977205D01*
X124158102Y-100055226D01*
X124358061Y-100095000D01*
X124561939Y-100095000D01*
X124761898Y-100055226D01*
X124950256Y-99977205D01*
X125119774Y-99863937D01*
X125263937Y-99719774D01*
X125377205Y-99550256D01*
X125455226Y-99361898D01*
X125495000Y-99161939D01*
X125495000Y-98958061D01*
X125455226Y-98758102D01*
X125377205Y-98569744D01*
X125285500Y-98432497D01*
X125285500Y-90028575D01*
X125350535Y-89985120D01*
X125545120Y-89790535D01*
X125698005Y-89561727D01*
X125803314Y-89307490D01*
X125857000Y-89037592D01*
X125857000Y-88762408D01*
X125803314Y-88492510D01*
X125698005Y-88238273D01*
X125545120Y-88009465D01*
X125350535Y-87814880D01*
X125285500Y-87771425D01*
X125285500Y-80417234D01*
X125296842Y-80421932D01*
X125583740Y-80479000D01*
X125876260Y-80479000D01*
X126163158Y-80421932D01*
X126433411Y-80309990D01*
X126676632Y-80147475D01*
X126883475Y-79940632D01*
X127000000Y-79766240D01*
X127116525Y-79940632D01*
X127323368Y-80147475D01*
X127444500Y-80228413D01*
X127444501Y-82557496D01*
X127352795Y-82694744D01*
X127274774Y-82883102D01*
X127235000Y-83083061D01*
X127235000Y-83286939D01*
X127274774Y-83486898D01*
X127352795Y-83675256D01*
X127466063Y-83844774D01*
X127610226Y-83988937D01*
X127779744Y-84102205D01*
X127968102Y-84180226D01*
X128168061Y-84220000D01*
X128371939Y-84220000D01*
X128571898Y-84180226D01*
X128760256Y-84102205D01*
X128929774Y-83988937D01*
X129073937Y-83844774D01*
X129187205Y-83675256D01*
X129265226Y-83486898D01*
X129305000Y-83286939D01*
X129305000Y-83083061D01*
X129265226Y-82883102D01*
X129187205Y-82694744D01*
X129095500Y-82557497D01*
X129095500Y-80228413D01*
X129216632Y-80147475D01*
X129423475Y-79940632D01*
X129540000Y-79766240D01*
X129656525Y-79940632D01*
X129863368Y-80147475D01*
X130106589Y-80309990D01*
X130376842Y-80421932D01*
X130663740Y-80479000D01*
X130956260Y-80479000D01*
X131243158Y-80421932D01*
X131283999Y-80405015D01*
X131284000Y-106639438D01*
X131283999Y-106639448D01*
X131284000Y-119944938D01*
X131280005Y-119985501D01*
X131280075Y-119986214D01*
X131276063Y-119990226D01*
X131162795Y-120159744D01*
X131084774Y-120348102D01*
X131045000Y-120548061D01*
X131045000Y-120751939D01*
X131084774Y-120951898D01*
X131162795Y-121140256D01*
X131276063Y-121309774D01*
X131420226Y-121453937D01*
X131589744Y-121567205D01*
X131778102Y-121645226D01*
X131978061Y-121685000D01*
X132181939Y-121685000D01*
X132381898Y-121645226D01*
X132570256Y-121567205D01*
X132739774Y-121453937D01*
X132883937Y-121309774D01*
X132997205Y-121140256D01*
X133075226Y-120951898D01*
X133103252Y-120811001D01*
X136513949Y-120811001D01*
X136554499Y-120814995D01*
X136595049Y-120811001D01*
X136595052Y-120811001D01*
X136716325Y-120799057D01*
X136871933Y-120751854D01*
X137015341Y-120675200D01*
X137141040Y-120572042D01*
X137166896Y-120540536D01*
X137715045Y-119992388D01*
X137746541Y-119966541D01*
X137772389Y-119935045D01*
X137772392Y-119935042D01*
X137849699Y-119840843D01*
X137926353Y-119697434D01*
X137951359Y-119615000D01*
X137973556Y-119541826D01*
X137985500Y-119420553D01*
X137985500Y-119420551D01*
X137989494Y-119380000D01*
X137985500Y-119339450D01*
X137985500Y-118737503D01*
X138077205Y-118600256D01*
X138155226Y-118411898D01*
X138195000Y-118211939D01*
X138195000Y-118008061D01*
X138155226Y-117808102D01*
X138077205Y-117619744D01*
X137963937Y-117450226D01*
X137819774Y-117306063D01*
X137650256Y-117192795D01*
X137461898Y-117114774D01*
X137261939Y-117075000D01*
X137058061Y-117075000D01*
X136858102Y-117114774D01*
X136669744Y-117192795D01*
X136500226Y-117306063D01*
X136356063Y-117450226D01*
X136242795Y-117619744D01*
X136164774Y-117808102D01*
X136125000Y-118008061D01*
X136125000Y-118211939D01*
X136164774Y-118411898D01*
X136242795Y-118600256D01*
X136334501Y-118737503D01*
X136334500Y-119038067D01*
X136212566Y-119160001D01*
X132934999Y-119160001D01*
X132934999Y-77885544D01*
X133203740Y-77939000D01*
X133496260Y-77939000D01*
X133639145Y-77910578D01*
X133823999Y-78095432D01*
X133824000Y-110449438D01*
X133823999Y-110449448D01*
X133824000Y-113672496D01*
X133732294Y-113809744D01*
X133654273Y-113998102D01*
X133614499Y-114198061D01*
X133614499Y-114401939D01*
X133654273Y-114601898D01*
X133732294Y-114790256D01*
X133823999Y-114927503D01*
X133824000Y-117452997D01*
X133732294Y-117590245D01*
X133654273Y-117778603D01*
X133614499Y-117978562D01*
X133614499Y-118182440D01*
X133654273Y-118382399D01*
X133732294Y-118570757D01*
X133845562Y-118740275D01*
X133989725Y-118884438D01*
X134159243Y-118997706D01*
X134347601Y-119075727D01*
X134547560Y-119115501D01*
X134751438Y-119115501D01*
X134951397Y-119075727D01*
X135139755Y-118997706D01*
X135309273Y-118884438D01*
X135453436Y-118740275D01*
X135566704Y-118570757D01*
X135644725Y-118382399D01*
X135684499Y-118182440D01*
X135684499Y-117978562D01*
X135644725Y-117778603D01*
X135566704Y-117590245D01*
X135474999Y-117452998D01*
X135474999Y-114927503D01*
X135566704Y-114790256D01*
X135644725Y-114601898D01*
X135684499Y-114401939D01*
X135684499Y-114198061D01*
X135644725Y-113998102D01*
X135566704Y-113809744D01*
X135474999Y-113672497D01*
X135474999Y-83083061D01*
X160890000Y-83083061D01*
X160890000Y-83286939D01*
X160929774Y-83486898D01*
X161007795Y-83675256D01*
X161099501Y-83812504D01*
X161099500Y-102829447D01*
X161099500Y-102829448D01*
X161099501Y-106052496D01*
X161007795Y-106189744D01*
X160929774Y-106378102D01*
X160890000Y-106578061D01*
X160890000Y-106781939D01*
X160929774Y-106981898D01*
X161007795Y-107170256D01*
X161121063Y-107339774D01*
X161265226Y-107483937D01*
X161434744Y-107597205D01*
X161623102Y-107675226D01*
X161823061Y-107715000D01*
X162026939Y-107715000D01*
X162226898Y-107675226D01*
X162415256Y-107597205D01*
X162584774Y-107483937D01*
X162728937Y-107339774D01*
X162842205Y-107170256D01*
X162920226Y-106981898D01*
X162960000Y-106781939D01*
X162960000Y-106578061D01*
X162920226Y-106378102D01*
X162842205Y-106189744D01*
X162750500Y-106052497D01*
X162750500Y-83812503D01*
X162842205Y-83675256D01*
X162920226Y-83486898D01*
X162960000Y-83286939D01*
X162960000Y-83083061D01*
X162920226Y-82883102D01*
X162842205Y-82694744D01*
X162728937Y-82525226D01*
X162584774Y-82381063D01*
X162415256Y-82267795D01*
X162226898Y-82189774D01*
X162026939Y-82150000D01*
X161823061Y-82150000D01*
X161623102Y-82189774D01*
X161434744Y-82267795D01*
X161265226Y-82381063D01*
X161121063Y-82525226D01*
X161007795Y-82694744D01*
X160929774Y-82883102D01*
X160890000Y-83083061D01*
X135474999Y-83083061D01*
X135474999Y-81813061D01*
X162795000Y-81813061D01*
X162795000Y-82016939D01*
X162834774Y-82216898D01*
X162912795Y-82405256D01*
X163004500Y-82542503D01*
X163004501Y-106639438D01*
X163004500Y-106639448D01*
X163004501Y-109862496D01*
X162912795Y-109999744D01*
X162834774Y-110188102D01*
X162795000Y-110388061D01*
X162795000Y-110591939D01*
X162834774Y-110791898D01*
X162912795Y-110980256D01*
X163026063Y-111149774D01*
X163170226Y-111293937D01*
X163339744Y-111407205D01*
X163528102Y-111485226D01*
X163728061Y-111525000D01*
X163931939Y-111525000D01*
X164131898Y-111485226D01*
X164320256Y-111407205D01*
X164489774Y-111293937D01*
X164633937Y-111149774D01*
X164747205Y-110980256D01*
X164825226Y-110791898D01*
X164865000Y-110591939D01*
X164865000Y-110388061D01*
X164825226Y-110188102D01*
X164747205Y-109999744D01*
X164655500Y-109862497D01*
X164655500Y-82542503D01*
X164747205Y-82405256D01*
X164825226Y-82216898D01*
X164865000Y-82016939D01*
X164865000Y-81813061D01*
X164825226Y-81613102D01*
X164747205Y-81424744D01*
X164633937Y-81255226D01*
X164489774Y-81111063D01*
X164320256Y-80997795D01*
X164131898Y-80919774D01*
X163931939Y-80880000D01*
X163728061Y-80880000D01*
X163528102Y-80919774D01*
X163339744Y-80997795D01*
X163170226Y-81111063D01*
X163026063Y-81255226D01*
X162912795Y-81424744D01*
X162834774Y-81613102D01*
X162795000Y-81813061D01*
X135474999Y-81813061D01*
X135474999Y-80425544D01*
X135743740Y-80479000D01*
X136036260Y-80479000D01*
X136323158Y-80421932D01*
X136593411Y-80309990D01*
X136836632Y-80147475D01*
X137043475Y-79940632D01*
X137160000Y-79766240D01*
X137276525Y-79940632D01*
X137483368Y-80147475D01*
X137726589Y-80309990D01*
X137996842Y-80421932D01*
X138283740Y-80479000D01*
X138576260Y-80479000D01*
X138863158Y-80421932D01*
X139133411Y-80309990D01*
X139376632Y-80147475D01*
X139583475Y-79940632D01*
X139700000Y-79766240D01*
X139816525Y-79940632D01*
X140023368Y-80147475D01*
X140266589Y-80309990D01*
X140536842Y-80421932D01*
X140823740Y-80479000D01*
X141116260Y-80479000D01*
X141403158Y-80421932D01*
X141673411Y-80309990D01*
X141916632Y-80147475D01*
X142123475Y-79940632D01*
X142240000Y-79766240D01*
X142356525Y-79940632D01*
X142563368Y-80147475D01*
X142806589Y-80309990D01*
X143076842Y-80421932D01*
X143363740Y-80479000D01*
X143656260Y-80479000D01*
X143943158Y-80421932D01*
X144213411Y-80309990D01*
X144456632Y-80147475D01*
X144663475Y-79940632D01*
X144780000Y-79766240D01*
X144896525Y-79940632D01*
X145103368Y-80147475D01*
X145346589Y-80309990D01*
X145616842Y-80421932D01*
X145903740Y-80479000D01*
X146196260Y-80479000D01*
X146483158Y-80421932D01*
X146753411Y-80309990D01*
X146996632Y-80147475D01*
X147203475Y-79940632D01*
X147320000Y-79766240D01*
X147436525Y-79940632D01*
X147643368Y-80147475D01*
X147886589Y-80309990D01*
X148156842Y-80421932D01*
X148443740Y-80479000D01*
X148736260Y-80479000D01*
X149023158Y-80421932D01*
X149293411Y-80309990D01*
X149536632Y-80147475D01*
X149743475Y-79940632D01*
X149860000Y-79766240D01*
X149976525Y-79940632D01*
X150183368Y-80147475D01*
X150426589Y-80309990D01*
X150696842Y-80421932D01*
X150983740Y-80479000D01*
X151276260Y-80479000D01*
X151563158Y-80421932D01*
X151833411Y-80309990D01*
X152076632Y-80147475D01*
X152283475Y-79940632D01*
X152445990Y-79697411D01*
X152557932Y-79427158D01*
X152615000Y-79140260D01*
X152615000Y-78847740D01*
X152557932Y-78560842D01*
X152445990Y-78290589D01*
X152283475Y-78047368D01*
X152076632Y-77840525D01*
X151902240Y-77724000D01*
X152076632Y-77607475D01*
X152283475Y-77400632D01*
X152400000Y-77226240D01*
X152516525Y-77400632D01*
X152723368Y-77607475D01*
X152966589Y-77769990D01*
X153236842Y-77881932D01*
X153523740Y-77939000D01*
X153816260Y-77939000D01*
X154103158Y-77881932D01*
X154373411Y-77769990D01*
X154616632Y-77607475D01*
X154823475Y-77400632D01*
X154940000Y-77226240D01*
X155056525Y-77400632D01*
X155263368Y-77607475D01*
X155437760Y-77724000D01*
X155263368Y-77840525D01*
X155056525Y-78047368D01*
X154894010Y-78290589D01*
X154782068Y-78560842D01*
X154725000Y-78847740D01*
X154725000Y-79140260D01*
X154782068Y-79427158D01*
X154894010Y-79697411D01*
X155056525Y-79940632D01*
X155263368Y-80147475D01*
X155506589Y-80309990D01*
X155776842Y-80421932D01*
X156063740Y-80479000D01*
X156356260Y-80479000D01*
X156643158Y-80421932D01*
X156913411Y-80309990D01*
X157156632Y-80147475D01*
X157363475Y-79940632D01*
X157480000Y-79766240D01*
X157596525Y-79940632D01*
X157803368Y-80147475D01*
X158046589Y-80309990D01*
X158316842Y-80421932D01*
X158603740Y-80479000D01*
X158896260Y-80479000D01*
X159183158Y-80421932D01*
X159453411Y-80309990D01*
X159696632Y-80147475D01*
X159903475Y-79940632D01*
X160020000Y-79766240D01*
X160136525Y-79940632D01*
X160343368Y-80147475D01*
X160586589Y-80309990D01*
X160856842Y-80421932D01*
X161143740Y-80479000D01*
X161436260Y-80479000D01*
X161723158Y-80421932D01*
X161993411Y-80309990D01*
X162236632Y-80147475D01*
X162443475Y-79940632D01*
X162560000Y-79766240D01*
X162676525Y-79940632D01*
X162883368Y-80147475D01*
X163126589Y-80309990D01*
X163396842Y-80421932D01*
X163683740Y-80479000D01*
X163976260Y-80479000D01*
X164263158Y-80421932D01*
X164533411Y-80309990D01*
X164776632Y-80147475D01*
X164983475Y-79940632D01*
X165100000Y-79766240D01*
X165216525Y-79940632D01*
X165423368Y-80147475D01*
X165666589Y-80309990D01*
X165936842Y-80421932D01*
X166223740Y-80479000D01*
X166516260Y-80479000D01*
X166803158Y-80421932D01*
X167073411Y-80309990D01*
X167316632Y-80147475D01*
X167523475Y-79940632D01*
X167640000Y-79766240D01*
X167756525Y-79940632D01*
X167963368Y-80147475D01*
X168206589Y-80309990D01*
X168476842Y-80421932D01*
X168763740Y-80479000D01*
X169056260Y-80479000D01*
X169343158Y-80421932D01*
X169613411Y-80309990D01*
X169856632Y-80147475D01*
X170063475Y-79940632D01*
X170225990Y-79697411D01*
X170337932Y-79427158D01*
X170395000Y-79140260D01*
X170395000Y-78847740D01*
X170337932Y-78560842D01*
X170225990Y-78290589D01*
X170063475Y-78047368D01*
X169856632Y-77840525D01*
X169682240Y-77724000D01*
X169856632Y-77607475D01*
X170063475Y-77400632D01*
X170180000Y-77226240D01*
X170296525Y-77400632D01*
X170503368Y-77607475D01*
X170746589Y-77769990D01*
X171016842Y-77881932D01*
X171303740Y-77939000D01*
X171596260Y-77939000D01*
X171883158Y-77881932D01*
X172153411Y-77769990D01*
X172396632Y-77607475D01*
X172603475Y-77400632D01*
X172765990Y-77157411D01*
X172877932Y-76887158D01*
X172935000Y-76600260D01*
X172935000Y-76307740D01*
X172877932Y-76020842D01*
X172765990Y-75750589D01*
X172603475Y-75507368D01*
X172396632Y-75300525D01*
X172181832Y-75157000D01*
X177002054Y-75157000D01*
X177289236Y-75185158D01*
X177530907Y-75258123D01*
X177753799Y-75376637D01*
X177949427Y-75536187D01*
X178110340Y-75730699D01*
X178230407Y-75952756D01*
X178305056Y-76193912D01*
X178335000Y-76478811D01*
X178335000Y-77009617D01*
X178212012Y-76712698D01*
X177978363Y-76363017D01*
X177680983Y-76065637D01*
X177331302Y-75831988D01*
X176942756Y-75671047D01*
X176530279Y-75589000D01*
X176109721Y-75589000D01*
X175697244Y-75671047D01*
X175308698Y-75831988D01*
X174959017Y-76065637D01*
X174661637Y-76363017D01*
X174427988Y-76712698D01*
X174267047Y-77101244D01*
X174185000Y-77513721D01*
X174185000Y-77934279D01*
X174267047Y-78346756D01*
X174427988Y-78735302D01*
X174661637Y-79084983D01*
X174959017Y-79382363D01*
X175308698Y-79616012D01*
X175697244Y-79776953D01*
X176109721Y-79859000D01*
X176530279Y-79859000D01*
X176942756Y-79776953D01*
X177331302Y-79616012D01*
X177680983Y-79382363D01*
X177978363Y-79084983D01*
X178212012Y-78735302D01*
X178335000Y-78438383D01*
X178335001Y-126009620D01*
X178212012Y-125712698D01*
X177978363Y-125363017D01*
X177680983Y-125065637D01*
X177331302Y-124831988D01*
X176942756Y-124671047D01*
X176530279Y-124589000D01*
X176109721Y-124589000D01*
X175697244Y-124671047D01*
X175308698Y-124831988D01*
X174959017Y-125065637D01*
X174661637Y-125363017D01*
X174427988Y-125712698D01*
X174267047Y-126101244D01*
X174185000Y-126513721D01*
X174185000Y-126934279D01*
X174267047Y-127346756D01*
X174427988Y-127735302D01*
X174661637Y-128084983D01*
X174959017Y-128382363D01*
X175308698Y-128616012D01*
X175697244Y-128776953D01*
X176109721Y-128859000D01*
X176530279Y-128859000D01*
X176942756Y-128776953D01*
X177331302Y-128616012D01*
X177680983Y-128382363D01*
X177978363Y-128084983D01*
X178212012Y-127735302D01*
X178335001Y-127438380D01*
X178335001Y-128741885D01*
X178331444Y-128778000D01*
X178345635Y-128922085D01*
X178387663Y-129060633D01*
X178455913Y-129188320D01*
X178547762Y-129300238D01*
X178659680Y-129392087D01*
X178787367Y-129460337D01*
X178925915Y-129502365D01*
X179033895Y-129513000D01*
X179070000Y-129516556D01*
X179106105Y-129513000D01*
X194782054Y-129513000D01*
X195069236Y-129541158D01*
X195310907Y-129614123D01*
X195533799Y-129732637D01*
X195729427Y-129892187D01*
X195890340Y-130086699D01*
X196010407Y-130308756D01*
X196085056Y-130549912D01*
X196115000Y-130834811D01*
X196115001Y-138311134D01*
X195845223Y-138394644D01*
X195783779Y-138420473D01*
X195722045Y-138445415D01*
X195712989Y-138450230D01*
X195712985Y-138450232D01*
X195712984Y-138450233D01*
X195364135Y-138638855D01*
X195308892Y-138676117D01*
X195253167Y-138712582D01*
X195245217Y-138719066D01*
X195245213Y-138719069D01*
X195245209Y-138719073D01*
X194939646Y-138971855D01*
X194892668Y-139019162D01*
X194845110Y-139065734D01*
X194838568Y-139073641D01*
X194587920Y-139380967D01*
X194551042Y-139436472D01*
X194513419Y-139491419D01*
X194508537Y-139500446D01*
X194322356Y-139850603D01*
X194296953Y-139912235D01*
X194270727Y-139973424D01*
X194267692Y-139983227D01*
X194153069Y-140362878D01*
X194140127Y-140428238D01*
X194126280Y-140493386D01*
X194125207Y-140503592D01*
X194086508Y-140898277D01*
X194086508Y-140930396D01*
X194083040Y-140962328D01*
X194083005Y-140972591D01*
X194083055Y-140986776D01*
X194086299Y-141018704D01*
X194086075Y-141050800D01*
X194087076Y-141061013D01*
X194128529Y-141455417D01*
X194141932Y-141520711D01*
X194154408Y-141586111D01*
X194157373Y-141595935D01*
X194274644Y-141974778D01*
X194300483Y-142036246D01*
X194325415Y-142097955D01*
X194330233Y-142107017D01*
X194518855Y-142455865D01*
X194556117Y-142511108D01*
X194592582Y-142566833D01*
X194599068Y-142574786D01*
X194851855Y-142880354D01*
X194899130Y-142927299D01*
X194945735Y-142974891D01*
X194953642Y-142981432D01*
X195260967Y-143232081D01*
X195316491Y-143268971D01*
X195371419Y-143306581D01*
X195380443Y-143311461D01*
X195380451Y-143311465D01*
X195730603Y-143497644D01*
X195792207Y-143523035D01*
X195853424Y-143549273D01*
X195863227Y-143552308D01*
X196115000Y-143628323D01*
X196115001Y-151602043D01*
X196086842Y-151889236D01*
X196013878Y-152130903D01*
X195895363Y-152353798D01*
X195735813Y-152549427D01*
X195541300Y-152710341D01*
X195319244Y-152830407D01*
X195078090Y-152905056D01*
X194793189Y-152935000D01*
X74457946Y-152935000D01*
X74170764Y-152906842D01*
X73929097Y-152833878D01*
X73706202Y-152715363D01*
X73510573Y-152555813D01*
X73349659Y-152361300D01*
X73229593Y-152139244D01*
X73154944Y-151898090D01*
X73125000Y-151613189D01*
X73125000Y-143628866D01*
X73394778Y-143545356D01*
X73456246Y-143519517D01*
X73517955Y-143494585D01*
X73527012Y-143489770D01*
X73527016Y-143489768D01*
X73527019Y-143489766D01*
X73875865Y-143301145D01*
X73931108Y-143263883D01*
X73986833Y-143227418D01*
X73994786Y-143220932D01*
X74300354Y-142968145D01*
X74347299Y-142920870D01*
X74394891Y-142874265D01*
X74401432Y-142866358D01*
X74652081Y-142559033D01*
X74688971Y-142503509D01*
X74726581Y-142448581D01*
X74731462Y-142439554D01*
X74917644Y-142089397D01*
X74943035Y-142027793D01*
X74969273Y-141966576D01*
X74972308Y-141956773D01*
X75086931Y-141577122D01*
X75099874Y-141511754D01*
X75113720Y-141446613D01*
X75114793Y-141436407D01*
X75153492Y-141041723D01*
X75153492Y-141009604D01*
X75156960Y-140977672D01*
X75156995Y-140967409D01*
X75156945Y-140953223D01*
X75153701Y-140921295D01*
X75153925Y-140889199D01*
X75152924Y-140878986D01*
X75111471Y-140484583D01*
X75098073Y-140419313D01*
X75085593Y-140353890D01*
X75082627Y-140344065D01*
X74965356Y-139965223D01*
X74939527Y-139903779D01*
X74914585Y-139842045D01*
X74909767Y-139832984D01*
X74721145Y-139484135D01*
X74683883Y-139428892D01*
X74647418Y-139373167D01*
X74640932Y-139365215D01*
X74640931Y-139365213D01*
X74640927Y-139365209D01*
X74388145Y-139059646D01*
X74340838Y-139012668D01*
X74294266Y-138965110D01*
X74286359Y-138958568D01*
X73979033Y-138707920D01*
X73923528Y-138671042D01*
X73868581Y-138633419D01*
X73859554Y-138628537D01*
X73509397Y-138442356D01*
X73447765Y-138416953D01*
X73386576Y-138390727D01*
X73376777Y-138387693D01*
X73376771Y-138387691D01*
X73125000Y-138311678D01*
X73125000Y-126513721D01*
X116185000Y-126513721D01*
X116185000Y-126934279D01*
X116267047Y-127346756D01*
X116427988Y-127735302D01*
X116661637Y-128084983D01*
X116959017Y-128382363D01*
X117308698Y-128616012D01*
X117697244Y-128776953D01*
X118109721Y-128859000D01*
X118530279Y-128859000D01*
X118942756Y-128776953D01*
X119331302Y-128616012D01*
X119680983Y-128382363D01*
X119978363Y-128084983D01*
X120212012Y-127735302D01*
X120372953Y-127346756D01*
X120455000Y-126934279D01*
X120455000Y-126513721D01*
X120372953Y-126101244D01*
X120212012Y-125712698D01*
X119978363Y-125363017D01*
X119680983Y-125065637D01*
X119331302Y-124831988D01*
X118942756Y-124671047D01*
X118530279Y-124589000D01*
X118109721Y-124589000D01*
X117697244Y-124671047D01*
X117308698Y-124831988D01*
X116959017Y-125065637D01*
X116661637Y-125363017D01*
X116427988Y-125712698D01*
X116267047Y-126101244D01*
X116185000Y-126513721D01*
X73125000Y-126513721D01*
X73125000Y-121687560D01*
X75364000Y-121687560D01*
X75364000Y-122152440D01*
X75454694Y-122608387D01*
X75632595Y-123037879D01*
X75890868Y-123424412D01*
X76219588Y-123753132D01*
X76606121Y-124011405D01*
X77035613Y-124189306D01*
X77491560Y-124280000D01*
X77956440Y-124280000D01*
X78412387Y-124189306D01*
X78841879Y-124011405D01*
X79228412Y-123753132D01*
X79557132Y-123424412D01*
X79815405Y-123037879D01*
X79993306Y-122608387D01*
X80084000Y-122152440D01*
X80084000Y-121687560D01*
X79993306Y-121231613D01*
X79815405Y-120802121D01*
X79557132Y-120415588D01*
X79228412Y-120086868D01*
X78841879Y-119828595D01*
X78412387Y-119650694D01*
X77956440Y-119560000D01*
X77491560Y-119560000D01*
X77035613Y-119650694D01*
X76606121Y-119828595D01*
X76219588Y-120086868D01*
X75890868Y-120415588D01*
X75632595Y-120802121D01*
X75454694Y-121231613D01*
X75364000Y-121687560D01*
X73125000Y-121687560D01*
X73125000Y-117972408D01*
X84963000Y-117972408D01*
X84963000Y-118247592D01*
X85016686Y-118517490D01*
X85121995Y-118771727D01*
X85274880Y-119000535D01*
X85469465Y-119195120D01*
X85698273Y-119348005D01*
X85775515Y-119380000D01*
X85698273Y-119411995D01*
X85469465Y-119564880D01*
X85274880Y-119759465D01*
X85121995Y-119988273D01*
X85016686Y-120242510D01*
X84963000Y-120512408D01*
X84963000Y-120787592D01*
X85016686Y-121057490D01*
X85121995Y-121311727D01*
X85274880Y-121540535D01*
X85469465Y-121735120D01*
X85698273Y-121888005D01*
X85952510Y-121993314D01*
X86222408Y-122047000D01*
X86497592Y-122047000D01*
X86767490Y-121993314D01*
X87021727Y-121888005D01*
X87250535Y-121735120D01*
X87445120Y-121540535D01*
X87598005Y-121311727D01*
X87703314Y-121057490D01*
X87757000Y-120787592D01*
X87757000Y-120512408D01*
X87703314Y-120242510D01*
X87598005Y-119988273D01*
X87445120Y-119759465D01*
X87250535Y-119564880D01*
X87021727Y-119411995D01*
X86944485Y-119380000D01*
X87021727Y-119348005D01*
X87250535Y-119195120D01*
X87445120Y-119000535D01*
X87598005Y-118771727D01*
X87703314Y-118517490D01*
X87757000Y-118247592D01*
X87757000Y-117972408D01*
X87703314Y-117702510D01*
X87598005Y-117448273D01*
X87445120Y-117219465D01*
X87250535Y-117024880D01*
X87021727Y-116871995D01*
X86767490Y-116766686D01*
X86497592Y-116713000D01*
X86222408Y-116713000D01*
X85952510Y-116766686D01*
X85698273Y-116871995D01*
X85469465Y-117024880D01*
X85274880Y-117219465D01*
X85121995Y-117448273D01*
X85016686Y-117702510D01*
X84963000Y-117972408D01*
X73125000Y-117972408D01*
X73125000Y-114067560D01*
X75364000Y-114067560D01*
X75364000Y-114532440D01*
X75454694Y-114988387D01*
X75632595Y-115417879D01*
X75890868Y-115804412D01*
X76219588Y-116133132D01*
X76606121Y-116391405D01*
X77035613Y-116569306D01*
X77491560Y-116660000D01*
X77956440Y-116660000D01*
X78412387Y-116569306D01*
X78841879Y-116391405D01*
X79228412Y-116133132D01*
X79557132Y-115804412D01*
X79815405Y-115417879D01*
X79993306Y-114988387D01*
X80084000Y-114532440D01*
X80084000Y-114067560D01*
X79993306Y-113611613D01*
X79815405Y-113182121D01*
X79557132Y-112795588D01*
X79228412Y-112466868D01*
X78841879Y-112208595D01*
X78412387Y-112030694D01*
X77956440Y-111940000D01*
X77491560Y-111940000D01*
X77035613Y-112030694D01*
X76606121Y-112208595D01*
X76219588Y-112466868D01*
X75890868Y-112795588D01*
X75632595Y-113182121D01*
X75454694Y-113611613D01*
X75364000Y-114067560D01*
X73125000Y-114067560D01*
X73125000Y-107717560D01*
X75364000Y-107717560D01*
X75364000Y-108182440D01*
X75454694Y-108638387D01*
X75632595Y-109067879D01*
X75890868Y-109454412D01*
X76219588Y-109783132D01*
X76606121Y-110041405D01*
X77035613Y-110219306D01*
X77491560Y-110310000D01*
X77956440Y-110310000D01*
X78412387Y-110219306D01*
X78841879Y-110041405D01*
X79228412Y-109783132D01*
X79557132Y-109454412D01*
X79815405Y-109067879D01*
X79993306Y-108638387D01*
X80084000Y-108182440D01*
X80084000Y-107717560D01*
X79993306Y-107261613D01*
X79815405Y-106832121D01*
X79557132Y-106445588D01*
X79228412Y-106116868D01*
X78841879Y-105858595D01*
X78412387Y-105680694D01*
X77956440Y-105590000D01*
X77491560Y-105590000D01*
X77035613Y-105680694D01*
X76606121Y-105858595D01*
X76219588Y-106116868D01*
X75890868Y-106445588D01*
X75632595Y-106832121D01*
X75454694Y-107261613D01*
X75364000Y-107717560D01*
X73125000Y-107717560D01*
X73125000Y-101462408D01*
X84963000Y-101462408D01*
X84963000Y-101737592D01*
X85016686Y-102007490D01*
X85121995Y-102261727D01*
X85274880Y-102490535D01*
X85469465Y-102685120D01*
X85698273Y-102838005D01*
X85775515Y-102870000D01*
X85698273Y-102901995D01*
X85469465Y-103054880D01*
X85274880Y-103249465D01*
X85121995Y-103478273D01*
X85016686Y-103732510D01*
X84963000Y-104002408D01*
X84963000Y-104277592D01*
X85016686Y-104547490D01*
X85121995Y-104801727D01*
X85274880Y-105030535D01*
X85469465Y-105225120D01*
X85698273Y-105378005D01*
X85775515Y-105410000D01*
X85698273Y-105441995D01*
X85469465Y-105594880D01*
X85274880Y-105789465D01*
X85121995Y-106018273D01*
X85016686Y-106272510D01*
X84963000Y-106542408D01*
X84963000Y-106817592D01*
X85016686Y-107087490D01*
X85121995Y-107341727D01*
X85274880Y-107570535D01*
X85469465Y-107765120D01*
X85698273Y-107918005D01*
X85952510Y-108023314D01*
X86222408Y-108077000D01*
X86497592Y-108077000D01*
X86767490Y-108023314D01*
X87021727Y-107918005D01*
X87250535Y-107765120D01*
X87445120Y-107570535D01*
X87598005Y-107341727D01*
X87703314Y-107087490D01*
X87757000Y-106817592D01*
X87757000Y-106542408D01*
X87703314Y-106272510D01*
X87598005Y-106018273D01*
X87445120Y-105789465D01*
X87250535Y-105594880D01*
X87021727Y-105441995D01*
X86944485Y-105410000D01*
X87021727Y-105378005D01*
X87250535Y-105225120D01*
X87445120Y-105030535D01*
X87598005Y-104801727D01*
X87703314Y-104547490D01*
X87757000Y-104277592D01*
X87757000Y-104002408D01*
X87703314Y-103732510D01*
X87598005Y-103478273D01*
X87445120Y-103249465D01*
X87250535Y-103054880D01*
X87021727Y-102901995D01*
X86944485Y-102870000D01*
X87021727Y-102838005D01*
X87250535Y-102685120D01*
X87445120Y-102490535D01*
X87598005Y-102261727D01*
X87703314Y-102007490D01*
X87757000Y-101737592D01*
X87757000Y-101462408D01*
X87703314Y-101192510D01*
X87598005Y-100938273D01*
X87445120Y-100709465D01*
X87250535Y-100514880D01*
X87021727Y-100361995D01*
X86767490Y-100256686D01*
X86497592Y-100203000D01*
X86222408Y-100203000D01*
X85952510Y-100256686D01*
X85698273Y-100361995D01*
X85469465Y-100514880D01*
X85274880Y-100709465D01*
X85121995Y-100938273D01*
X85016686Y-101192510D01*
X84963000Y-101462408D01*
X73125000Y-101462408D01*
X73125000Y-97557560D01*
X75364000Y-97557560D01*
X75364000Y-98022440D01*
X75454694Y-98478387D01*
X75632595Y-98907879D01*
X75890868Y-99294412D01*
X76219588Y-99623132D01*
X76606121Y-99881405D01*
X77035613Y-100059306D01*
X77491560Y-100150000D01*
X77956440Y-100150000D01*
X78412387Y-100059306D01*
X78841879Y-99881405D01*
X79228412Y-99623132D01*
X79557132Y-99294412D01*
X79815405Y-98907879D01*
X79993306Y-98478387D01*
X80084000Y-98022440D01*
X80084000Y-97557560D01*
X79993306Y-97101613D01*
X79815405Y-96672121D01*
X79557132Y-96285588D01*
X79228412Y-95956868D01*
X78841879Y-95698595D01*
X78412387Y-95520694D01*
X77956440Y-95430000D01*
X77491560Y-95430000D01*
X77035613Y-95520694D01*
X76606121Y-95698595D01*
X76219588Y-95956868D01*
X75890868Y-96285588D01*
X75632595Y-96672121D01*
X75454694Y-97101613D01*
X75364000Y-97557560D01*
X73125000Y-97557560D01*
X73125000Y-88587290D01*
X83185000Y-88587290D01*
X83185000Y-89212710D01*
X83307014Y-89826113D01*
X83546352Y-90403926D01*
X83893817Y-90923944D01*
X84336056Y-91366183D01*
X84856074Y-91713648D01*
X85433887Y-91952986D01*
X86047290Y-92075000D01*
X86672710Y-92075000D01*
X87286113Y-91952986D01*
X87863926Y-91713648D01*
X88383944Y-91366183D01*
X88826183Y-90923944D01*
X89173648Y-90403926D01*
X89412986Y-89826113D01*
X89535000Y-89212710D01*
X89535000Y-88587290D01*
X89412986Y-87973887D01*
X89173648Y-87396074D01*
X88826183Y-86876056D01*
X88383944Y-86433817D01*
X87863926Y-86086352D01*
X87286113Y-85847014D01*
X86672710Y-85725000D01*
X86047290Y-85725000D01*
X85433887Y-85847014D01*
X84856074Y-86086352D01*
X84336056Y-86433817D01*
X83893817Y-86876056D01*
X83546352Y-87396074D01*
X83307014Y-87973887D01*
X83185000Y-88587290D01*
X73125000Y-88587290D01*
X73125000Y-81813061D01*
X93707000Y-81813061D01*
X93707000Y-82016939D01*
X93746774Y-82216898D01*
X93824795Y-82405256D01*
X93916501Y-82542504D01*
X93916500Y-104147497D01*
X93824795Y-104284744D01*
X93746774Y-104473102D01*
X93707000Y-104673061D01*
X93707000Y-104876939D01*
X93746774Y-105076898D01*
X93824795Y-105265256D01*
X93938063Y-105434774D01*
X94082226Y-105578937D01*
X94251744Y-105692205D01*
X94440102Y-105770226D01*
X94640061Y-105810000D01*
X94843939Y-105810000D01*
X95043898Y-105770226D01*
X95232256Y-105692205D01*
X95401774Y-105578937D01*
X95545937Y-105434774D01*
X95659205Y-105265256D01*
X95737226Y-105076898D01*
X95777000Y-104876939D01*
X95777000Y-104673061D01*
X95737226Y-104473102D01*
X95659205Y-104284744D01*
X95567500Y-104147497D01*
X95567500Y-83083061D01*
X96120000Y-83083061D01*
X96120000Y-83286939D01*
X96159774Y-83486898D01*
X96237795Y-83675256D01*
X96329501Y-83812504D01*
X96329500Y-100464497D01*
X96237795Y-100601744D01*
X96159774Y-100790102D01*
X96120000Y-100990061D01*
X96120000Y-101193939D01*
X96159774Y-101393898D01*
X96237795Y-101582256D01*
X96351063Y-101751774D01*
X96495226Y-101895937D01*
X96664744Y-102009205D01*
X96853102Y-102087226D01*
X97053061Y-102127000D01*
X97256939Y-102127000D01*
X97456898Y-102087226D01*
X97645256Y-102009205D01*
X97814774Y-101895937D01*
X97958937Y-101751774D01*
X98072205Y-101582256D01*
X98150226Y-101393898D01*
X98190000Y-101193939D01*
X98190000Y-100990061D01*
X98150226Y-100790102D01*
X98072205Y-100601744D01*
X97980500Y-100464497D01*
X97980500Y-83812503D01*
X98072205Y-83675256D01*
X98150226Y-83486898D01*
X98190000Y-83286939D01*
X98190000Y-83083061D01*
X98150226Y-82883102D01*
X98072205Y-82694744D01*
X97958937Y-82525226D01*
X97814774Y-82381063D01*
X97645256Y-82267795D01*
X97456898Y-82189774D01*
X97256939Y-82150000D01*
X97053061Y-82150000D01*
X96853102Y-82189774D01*
X96664744Y-82267795D01*
X96495226Y-82381063D01*
X96351063Y-82525226D01*
X96237795Y-82694744D01*
X96159774Y-82883102D01*
X96120000Y-83083061D01*
X95567500Y-83083061D01*
X95567500Y-82542503D01*
X95659205Y-82405256D01*
X95737226Y-82216898D01*
X95777000Y-82016939D01*
X95777000Y-81813061D01*
X95737226Y-81613102D01*
X95659205Y-81424744D01*
X95545937Y-81255226D01*
X95401774Y-81111063D01*
X95232256Y-80997795D01*
X95043898Y-80919774D01*
X94843939Y-80880000D01*
X94640061Y-80880000D01*
X94440102Y-80919774D01*
X94251744Y-80997795D01*
X94082226Y-81111063D01*
X93938063Y-81255226D01*
X93824795Y-81424744D01*
X93746774Y-81613102D01*
X93707000Y-81813061D01*
X73125000Y-81813061D01*
X73125000Y-77940000D01*
X105876928Y-77940000D01*
X105876928Y-79540000D01*
X105889188Y-79664482D01*
X105925498Y-79784180D01*
X105984463Y-79894494D01*
X106063815Y-79991185D01*
X106160506Y-80070537D01*
X106270820Y-80129502D01*
X106299000Y-80138050D01*
X106299001Y-83135089D01*
X106299000Y-83135099D01*
X106299001Y-85527536D01*
X106280000Y-85623061D01*
X106280000Y-85826939D01*
X106299000Y-85922459D01*
X106299001Y-99010089D01*
X106299000Y-99010099D01*
X106299001Y-100915089D01*
X106299000Y-100915099D01*
X106299000Y-101910345D01*
X106229880Y-101979465D01*
X106076995Y-102208273D01*
X105971686Y-102462510D01*
X105918000Y-102732408D01*
X105918000Y-103007592D01*
X105971686Y-103277490D01*
X106076995Y-103531727D01*
X106229880Y-103760535D01*
X106424465Y-103955120D01*
X106653273Y-104108005D01*
X106907510Y-104213314D01*
X107177408Y-104267000D01*
X107452592Y-104267000D01*
X107722490Y-104213314D01*
X107976727Y-104108005D01*
X108205535Y-103955120D01*
X108400120Y-103760535D01*
X108553005Y-103531727D01*
X108658314Y-103277490D01*
X108712000Y-103007592D01*
X108712000Y-102732408D01*
X108658314Y-102462510D01*
X108553005Y-102208273D01*
X108400120Y-101979465D01*
X108331000Y-101910345D01*
X108331000Y-101790500D01*
X111498845Y-101790500D01*
X111309880Y-101979465D01*
X111156995Y-102208273D01*
X111051686Y-102462510D01*
X110998000Y-102732408D01*
X110998000Y-103007592D01*
X111051686Y-103277490D01*
X111156995Y-103531727D01*
X111309880Y-103760535D01*
X111504465Y-103955120D01*
X111733273Y-104108005D01*
X111987510Y-104213314D01*
X112257408Y-104267000D01*
X112532592Y-104267000D01*
X112802490Y-104213314D01*
X113056727Y-104108005D01*
X113285535Y-103955120D01*
X113480120Y-103760535D01*
X113633005Y-103531727D01*
X113738314Y-103277490D01*
X113792000Y-103007592D01*
X113792000Y-102732408D01*
X113738314Y-102462510D01*
X113633005Y-102208273D01*
X113480120Y-101979465D01*
X113291155Y-101790500D01*
X128563067Y-101790500D01*
X128714500Y-101941934D01*
X128714501Y-102242497D01*
X128622795Y-102379744D01*
X128544774Y-102568102D01*
X128505000Y-102768061D01*
X128505000Y-102971939D01*
X128544774Y-103171898D01*
X128622795Y-103360256D01*
X128736063Y-103529774D01*
X128880226Y-103673937D01*
X129049744Y-103787205D01*
X129238102Y-103865226D01*
X129438061Y-103905000D01*
X129641939Y-103905000D01*
X129841898Y-103865226D01*
X130030256Y-103787205D01*
X130199774Y-103673937D01*
X130343937Y-103529774D01*
X130457205Y-103360256D01*
X130535226Y-103171898D01*
X130575000Y-102971939D01*
X130575000Y-102768061D01*
X130535226Y-102568102D01*
X130457205Y-102379744D01*
X130365500Y-102242497D01*
X130365500Y-101640550D01*
X130369494Y-101600000D01*
X130361619Y-101520041D01*
X130353556Y-101438174D01*
X130306353Y-101282566D01*
X130290991Y-101253826D01*
X130229699Y-101139157D01*
X130152392Y-101044958D01*
X130152389Y-101044955D01*
X130126541Y-101013459D01*
X130095045Y-100987612D01*
X129517397Y-100409965D01*
X129491541Y-100378459D01*
X129365842Y-100275301D01*
X129222434Y-100198647D01*
X129066826Y-100151444D01*
X128945553Y-100139500D01*
X128945550Y-100139500D01*
X128905000Y-100135506D01*
X128864450Y-100139500D01*
X108331000Y-100139500D01*
X108331000Y-88762408D01*
X117983000Y-88762408D01*
X117983000Y-89037592D01*
X118036686Y-89307490D01*
X118141995Y-89561727D01*
X118294880Y-89790535D01*
X118489465Y-89985120D01*
X118718273Y-90138005D01*
X118972510Y-90243314D01*
X119242408Y-90297000D01*
X119517592Y-90297000D01*
X119787490Y-90243314D01*
X120041727Y-90138005D01*
X120270535Y-89985120D01*
X120465120Y-89790535D01*
X120618005Y-89561727D01*
X120723314Y-89307490D01*
X120777000Y-89037592D01*
X120777000Y-88762408D01*
X120723314Y-88492510D01*
X120618005Y-88238273D01*
X120465120Y-88009465D01*
X120270535Y-87814880D01*
X120041727Y-87661995D01*
X119787490Y-87556686D01*
X119517592Y-87503000D01*
X119242408Y-87503000D01*
X118972510Y-87556686D01*
X118718273Y-87661995D01*
X118489465Y-87814880D01*
X118294880Y-88009465D01*
X118141995Y-88238273D01*
X118036686Y-88492510D01*
X117983000Y-88762408D01*
X108331000Y-88762408D01*
X108331000Y-85922459D01*
X108350000Y-85826939D01*
X108350000Y-85623061D01*
X108331000Y-85527541D01*
X108331000Y-80138050D01*
X108359180Y-80129502D01*
X108469494Y-80070537D01*
X108566185Y-79991185D01*
X108645537Y-79894494D01*
X108704502Y-79784180D01*
X108740812Y-79664482D01*
X108753072Y-79540000D01*
X108753072Y-77940000D01*
X108740812Y-77815518D01*
X108704502Y-77695820D01*
X108645537Y-77585506D01*
X108586625Y-77513721D01*
X116185000Y-77513721D01*
X116185000Y-77934279D01*
X116267047Y-78346756D01*
X116427988Y-78735302D01*
X116661637Y-79084983D01*
X116959017Y-79382363D01*
X117308698Y-79616012D01*
X117697244Y-79776953D01*
X118109721Y-79859000D01*
X118530279Y-79859000D01*
X118942756Y-79776953D01*
X119331302Y-79616012D01*
X119680983Y-79382363D01*
X119978363Y-79084983D01*
X120212012Y-78735302D01*
X120372953Y-78346756D01*
X120455000Y-77934279D01*
X120455000Y-77513721D01*
X120372953Y-77101244D01*
X120212012Y-76712698D01*
X119978363Y-76363017D01*
X119680983Y-76065637D01*
X119331302Y-75831988D01*
X118942756Y-75671047D01*
X118530279Y-75589000D01*
X118109721Y-75589000D01*
X117697244Y-75671047D01*
X117308698Y-75831988D01*
X116959017Y-76065637D01*
X116661637Y-76363017D01*
X116427988Y-76712698D01*
X116267047Y-77101244D01*
X116185000Y-77513721D01*
X108586625Y-77513721D01*
X108566185Y-77488815D01*
X108469494Y-77409463D01*
X108359180Y-77350498D01*
X108239482Y-77314188D01*
X108115000Y-77301928D01*
X106515000Y-77301928D01*
X106390518Y-77314188D01*
X106270820Y-77350498D01*
X106160506Y-77409463D01*
X106063815Y-77488815D01*
X105984463Y-77585506D01*
X105925498Y-77695820D01*
X105889188Y-77815518D01*
X105876928Y-77940000D01*
X73125000Y-77940000D01*
X73125000Y-76489946D01*
X73153158Y-76202764D01*
X73226123Y-75961093D01*
X73344637Y-75738201D01*
X73504187Y-75542573D01*
X73698699Y-75381660D01*
X73920756Y-75261593D01*
X74161912Y-75186944D01*
X74446811Y-75157000D01*
X122458168Y-75157000D01*
X122243368Y-75300525D01*
X122243368Y-75300525D01*
G37*
X122243368Y-75300525D02*
X122036525Y-75507368D01*
X121874010Y-75750589D01*
X121762068Y-76020842D01*
X121705000Y-76307740D01*
X121705000Y-76600260D01*
X121762068Y-76887158D01*
X121874010Y-77157411D01*
X122036525Y-77400632D01*
X122243368Y-77607475D01*
X122417760Y-77724000D01*
X122243368Y-77840525D01*
X122036525Y-78047368D01*
X121874010Y-78290589D01*
X121762068Y-78560842D01*
X121705000Y-78847740D01*
X121705000Y-79140260D01*
X121762068Y-79427158D01*
X121874010Y-79697411D01*
X122036525Y-79940632D01*
X122174001Y-80078108D01*
X122174000Y-85527541D01*
X122155000Y-85623061D01*
X122155000Y-85826939D01*
X122194774Y-86026898D01*
X122272795Y-86215256D01*
X122386063Y-86384774D01*
X122530226Y-86528937D01*
X122699744Y-86642205D01*
X122888102Y-86720226D01*
X123088061Y-86760000D01*
X123291939Y-86760000D01*
X123491898Y-86720226D01*
X123634501Y-86661158D01*
X123634501Y-87771424D01*
X123569465Y-87814880D01*
X123374880Y-88009465D01*
X123221995Y-88238273D01*
X123116686Y-88492510D01*
X123063000Y-88762408D01*
X123063000Y-89037592D01*
X123116686Y-89307490D01*
X123221995Y-89561727D01*
X123374880Y-89790535D01*
X123569465Y-89985120D01*
X123634500Y-90028575D01*
X123634501Y-98432496D01*
X123542795Y-98569744D01*
X123464774Y-98758102D01*
X123425000Y-98958061D01*
X123425000Y-99161939D01*
X123464774Y-99361898D01*
X123542795Y-99550256D01*
X123656063Y-99719774D01*
X123800226Y-99863937D01*
X123969744Y-99977205D01*
X124158102Y-100055226D01*
X124358061Y-100095000D01*
X124561939Y-100095000D01*
X124761898Y-100055226D01*
X124950256Y-99977205D01*
X125119774Y-99863937D01*
X125263937Y-99719774D01*
X125377205Y-99550256D01*
X125455226Y-99361898D01*
X125495000Y-99161939D01*
X125495000Y-98958061D01*
X125455226Y-98758102D01*
X125377205Y-98569744D01*
X125285500Y-98432497D01*
X125285500Y-90028575D01*
X125350535Y-89985120D01*
X125545120Y-89790535D01*
X125698005Y-89561727D01*
X125803314Y-89307490D01*
X125857000Y-89037592D01*
X125857000Y-88762408D01*
X125803314Y-88492510D01*
X125698005Y-88238273D01*
X125545120Y-88009465D01*
X125350535Y-87814880D01*
X125285500Y-87771425D01*
X125285500Y-80417234D01*
X125296842Y-80421932D01*
X125583740Y-80479000D01*
X125876260Y-80479000D01*
X126163158Y-80421932D01*
X126433411Y-80309990D01*
X126676632Y-80147475D01*
X126883475Y-79940632D01*
X127000000Y-79766240D01*
X127116525Y-79940632D01*
X127323368Y-80147475D01*
X127444500Y-80228413D01*
X127444501Y-82557496D01*
X127352795Y-82694744D01*
X127274774Y-82883102D01*
X127235000Y-83083061D01*
X127235000Y-83286939D01*
X127274774Y-83486898D01*
X127352795Y-83675256D01*
X127466063Y-83844774D01*
X127610226Y-83988937D01*
X127779744Y-84102205D01*
X127968102Y-84180226D01*
X128168061Y-84220000D01*
X128371939Y-84220000D01*
X128571898Y-84180226D01*
X128760256Y-84102205D01*
X128929774Y-83988937D01*
X129073937Y-83844774D01*
X129187205Y-83675256D01*
X129265226Y-83486898D01*
X129305000Y-83286939D01*
X129305000Y-83083061D01*
X129265226Y-82883102D01*
X129187205Y-82694744D01*
X129095500Y-82557497D01*
X129095500Y-80228413D01*
X129216632Y-80147475D01*
X129423475Y-79940632D01*
X129540000Y-79766240D01*
X129656525Y-79940632D01*
X129863368Y-80147475D01*
X130106589Y-80309990D01*
X130376842Y-80421932D01*
X130663740Y-80479000D01*
X130956260Y-80479000D01*
X131243158Y-80421932D01*
X131283999Y-80405015D01*
X131284000Y-106639438D01*
X131283999Y-106639448D01*
X131284000Y-119944938D01*
X131280005Y-119985501D01*
X131280075Y-119986214D01*
X131276063Y-119990226D01*
X131162795Y-120159744D01*
X131084774Y-120348102D01*
X131045000Y-120548061D01*
X131045000Y-120751939D01*
X131084774Y-120951898D01*
X131162795Y-121140256D01*
X131276063Y-121309774D01*
X131420226Y-121453937D01*
X131589744Y-121567205D01*
X131778102Y-121645226D01*
X131978061Y-121685000D01*
X132181939Y-121685000D01*
X132381898Y-121645226D01*
X132570256Y-121567205D01*
X132739774Y-121453937D01*
X132883937Y-121309774D01*
X132997205Y-121140256D01*
X133075226Y-120951898D01*
X133103252Y-120811001D01*
X136513949Y-120811001D01*
X136554499Y-120814995D01*
X136595049Y-120811001D01*
X136595052Y-120811001D01*
X136716325Y-120799057D01*
X136871933Y-120751854D01*
X137015341Y-120675200D01*
X137141040Y-120572042D01*
X137166896Y-120540536D01*
X137715045Y-119992388D01*
X137746541Y-119966541D01*
X137772389Y-119935045D01*
X137772392Y-119935042D01*
X137849699Y-119840843D01*
X137926353Y-119697434D01*
X137951359Y-119615000D01*
X137973556Y-119541826D01*
X137985500Y-119420553D01*
X137985500Y-119420551D01*
X137989494Y-119380000D01*
X137985500Y-119339450D01*
X137985500Y-118737503D01*
X138077205Y-118600256D01*
X138155226Y-118411898D01*
X138195000Y-118211939D01*
X138195000Y-118008061D01*
X138155226Y-117808102D01*
X138077205Y-117619744D01*
X137963937Y-117450226D01*
X137819774Y-117306063D01*
X137650256Y-117192795D01*
X137461898Y-117114774D01*
X137261939Y-117075000D01*
X137058061Y-117075000D01*
X136858102Y-117114774D01*
X136669744Y-117192795D01*
X136500226Y-117306063D01*
X136356063Y-117450226D01*
X136242795Y-117619744D01*
X136164774Y-117808102D01*
X136125000Y-118008061D01*
X136125000Y-118211939D01*
X136164774Y-118411898D01*
X136242795Y-118600256D01*
X136334501Y-118737503D01*
X136334500Y-119038067D01*
X136212566Y-119160001D01*
X132934999Y-119160001D01*
X132934999Y-77885544D01*
X133203740Y-77939000D01*
X133496260Y-77939000D01*
X133639145Y-77910578D01*
X133823999Y-78095432D01*
X133824000Y-110449438D01*
X133823999Y-110449448D01*
X133824000Y-113672496D01*
X133732294Y-113809744D01*
X133654273Y-113998102D01*
X133614499Y-114198061D01*
X133614499Y-114401939D01*
X133654273Y-114601898D01*
X133732294Y-114790256D01*
X133823999Y-114927503D01*
X133824000Y-117452997D01*
X133732294Y-117590245D01*
X133654273Y-117778603D01*
X133614499Y-117978562D01*
X133614499Y-118182440D01*
X133654273Y-118382399D01*
X133732294Y-118570757D01*
X133845562Y-118740275D01*
X133989725Y-118884438D01*
X134159243Y-118997706D01*
X134347601Y-119075727D01*
X134547560Y-119115501D01*
X134751438Y-119115501D01*
X134951397Y-119075727D01*
X135139755Y-118997706D01*
X135309273Y-118884438D01*
X135453436Y-118740275D01*
X135566704Y-118570757D01*
X135644725Y-118382399D01*
X135684499Y-118182440D01*
X135684499Y-117978562D01*
X135644725Y-117778603D01*
X135566704Y-117590245D01*
X135474999Y-117452998D01*
X135474999Y-114927503D01*
X135566704Y-114790256D01*
X135644725Y-114601898D01*
X135684499Y-114401939D01*
X135684499Y-114198061D01*
X135644725Y-113998102D01*
X135566704Y-113809744D01*
X135474999Y-113672497D01*
X135474999Y-83083061D01*
X160890000Y-83083061D01*
X160890000Y-83286939D01*
X160929774Y-83486898D01*
X161007795Y-83675256D01*
X161099501Y-83812504D01*
X161099500Y-102829447D01*
X161099500Y-102829448D01*
X161099501Y-106052496D01*
X161007795Y-106189744D01*
X160929774Y-106378102D01*
X160890000Y-106578061D01*
X160890000Y-106781939D01*
X160929774Y-106981898D01*
X161007795Y-107170256D01*
X161121063Y-107339774D01*
X161265226Y-107483937D01*
X161434744Y-107597205D01*
X161623102Y-107675226D01*
X161823061Y-107715000D01*
X162026939Y-107715000D01*
X162226898Y-107675226D01*
X162415256Y-107597205D01*
X162584774Y-107483937D01*
X162728937Y-107339774D01*
X162842205Y-107170256D01*
X162920226Y-106981898D01*
X162960000Y-106781939D01*
X162960000Y-106578061D01*
X162920226Y-106378102D01*
X162842205Y-106189744D01*
X162750500Y-106052497D01*
X162750500Y-83812503D01*
X162842205Y-83675256D01*
X162920226Y-83486898D01*
X162960000Y-83286939D01*
X162960000Y-83083061D01*
X162920226Y-82883102D01*
X162842205Y-82694744D01*
X162728937Y-82525226D01*
X162584774Y-82381063D01*
X162415256Y-82267795D01*
X162226898Y-82189774D01*
X162026939Y-82150000D01*
X161823061Y-82150000D01*
X161623102Y-82189774D01*
X161434744Y-82267795D01*
X161265226Y-82381063D01*
X161121063Y-82525226D01*
X161007795Y-82694744D01*
X160929774Y-82883102D01*
X160890000Y-83083061D01*
X135474999Y-83083061D01*
X135474999Y-81813061D01*
X162795000Y-81813061D01*
X162795000Y-82016939D01*
X162834774Y-82216898D01*
X162912795Y-82405256D01*
X163004500Y-82542503D01*
X163004501Y-106639438D01*
X163004500Y-106639448D01*
X163004501Y-109862496D01*
X162912795Y-109999744D01*
X162834774Y-110188102D01*
X162795000Y-110388061D01*
X162795000Y-110591939D01*
X162834774Y-110791898D01*
X162912795Y-110980256D01*
X163026063Y-111149774D01*
X163170226Y-111293937D01*
X163339744Y-111407205D01*
X163528102Y-111485226D01*
X163728061Y-111525000D01*
X163931939Y-111525000D01*
X164131898Y-111485226D01*
X164320256Y-111407205D01*
X164489774Y-111293937D01*
X164633937Y-111149774D01*
X164747205Y-110980256D01*
X164825226Y-110791898D01*
X164865000Y-110591939D01*
X164865000Y-110388061D01*
X164825226Y-110188102D01*
X164747205Y-109999744D01*
X164655500Y-109862497D01*
X164655500Y-82542503D01*
X164747205Y-82405256D01*
X164825226Y-82216898D01*
X164865000Y-82016939D01*
X164865000Y-81813061D01*
X164825226Y-81613102D01*
X164747205Y-81424744D01*
X164633937Y-81255226D01*
X164489774Y-81111063D01*
X164320256Y-80997795D01*
X164131898Y-80919774D01*
X163931939Y-80880000D01*
X163728061Y-80880000D01*
X163528102Y-80919774D01*
X163339744Y-80997795D01*
X163170226Y-81111063D01*
X163026063Y-81255226D01*
X162912795Y-81424744D01*
X162834774Y-81613102D01*
X162795000Y-81813061D01*
X135474999Y-81813061D01*
X135474999Y-80425544D01*
X135743740Y-80479000D01*
X136036260Y-80479000D01*
X136323158Y-80421932D01*
X136593411Y-80309990D01*
X136836632Y-80147475D01*
X137043475Y-79940632D01*
X137160000Y-79766240D01*
X137276525Y-79940632D01*
X137483368Y-80147475D01*
X137726589Y-80309990D01*
X137996842Y-80421932D01*
X138283740Y-80479000D01*
X138576260Y-80479000D01*
X138863158Y-80421932D01*
X139133411Y-80309990D01*
X139376632Y-80147475D01*
X139583475Y-79940632D01*
X139700000Y-79766240D01*
X139816525Y-79940632D01*
X140023368Y-80147475D01*
X140266589Y-80309990D01*
X140536842Y-80421932D01*
X140823740Y-80479000D01*
X141116260Y-80479000D01*
X141403158Y-80421932D01*
X141673411Y-80309990D01*
X141916632Y-80147475D01*
X142123475Y-79940632D01*
X142240000Y-79766240D01*
X142356525Y-79940632D01*
X142563368Y-80147475D01*
X142806589Y-80309990D01*
X143076842Y-80421932D01*
X143363740Y-80479000D01*
X143656260Y-80479000D01*
X143943158Y-80421932D01*
X144213411Y-80309990D01*
X144456632Y-80147475D01*
X144663475Y-79940632D01*
X144780000Y-79766240D01*
X144896525Y-79940632D01*
X145103368Y-80147475D01*
X145346589Y-80309990D01*
X145616842Y-80421932D01*
X145903740Y-80479000D01*
X146196260Y-80479000D01*
X146483158Y-80421932D01*
X146753411Y-80309990D01*
X146996632Y-80147475D01*
X147203475Y-79940632D01*
X147320000Y-79766240D01*
X147436525Y-79940632D01*
X147643368Y-80147475D01*
X147886589Y-80309990D01*
X148156842Y-80421932D01*
X148443740Y-80479000D01*
X148736260Y-80479000D01*
X149023158Y-80421932D01*
X149293411Y-80309990D01*
X149536632Y-80147475D01*
X149743475Y-79940632D01*
X149860000Y-79766240D01*
X149976525Y-79940632D01*
X150183368Y-80147475D01*
X150426589Y-80309990D01*
X150696842Y-80421932D01*
X150983740Y-80479000D01*
X151276260Y-80479000D01*
X151563158Y-80421932D01*
X151833411Y-80309990D01*
X152076632Y-80147475D01*
X152283475Y-79940632D01*
X152445990Y-79697411D01*
X152557932Y-79427158D01*
X152615000Y-79140260D01*
X152615000Y-78847740D01*
X152557932Y-78560842D01*
X152445990Y-78290589D01*
X152283475Y-78047368D01*
X152076632Y-77840525D01*
X151902240Y-77724000D01*
X152076632Y-77607475D01*
X152283475Y-77400632D01*
X152400000Y-77226240D01*
X152516525Y-77400632D01*
X152723368Y-77607475D01*
X152966589Y-77769990D01*
X153236842Y-77881932D01*
X153523740Y-77939000D01*
X153816260Y-77939000D01*
X154103158Y-77881932D01*
X154373411Y-77769990D01*
X154616632Y-77607475D01*
X154823475Y-77400632D01*
X154940000Y-77226240D01*
X155056525Y-77400632D01*
X155263368Y-77607475D01*
X155437760Y-77724000D01*
X155263368Y-77840525D01*
X155056525Y-78047368D01*
X154894010Y-78290589D01*
X154782068Y-78560842D01*
X154725000Y-78847740D01*
X154725000Y-79140260D01*
X154782068Y-79427158D01*
X154894010Y-79697411D01*
X155056525Y-79940632D01*
X155263368Y-80147475D01*
X155506589Y-80309990D01*
X155776842Y-80421932D01*
X156063740Y-80479000D01*
X156356260Y-80479000D01*
X156643158Y-80421932D01*
X156913411Y-80309990D01*
X157156632Y-80147475D01*
X157363475Y-79940632D01*
X157480000Y-79766240D01*
X157596525Y-79940632D01*
X157803368Y-80147475D01*
X158046589Y-80309990D01*
X158316842Y-80421932D01*
X158603740Y-80479000D01*
X158896260Y-80479000D01*
X159183158Y-80421932D01*
X159453411Y-80309990D01*
X159696632Y-80147475D01*
X159903475Y-79940632D01*
X160020000Y-79766240D01*
X160136525Y-79940632D01*
X160343368Y-80147475D01*
X160586589Y-80309990D01*
X160856842Y-80421932D01*
X161143740Y-80479000D01*
X161436260Y-80479000D01*
X161723158Y-80421932D01*
X161993411Y-80309990D01*
X162236632Y-80147475D01*
X162443475Y-79940632D01*
X162560000Y-79766240D01*
X162676525Y-79940632D01*
X162883368Y-80147475D01*
X163126589Y-80309990D01*
X163396842Y-80421932D01*
X163683740Y-80479000D01*
X163976260Y-80479000D01*
X164263158Y-80421932D01*
X164533411Y-80309990D01*
X164776632Y-80147475D01*
X164983475Y-79940632D01*
X165100000Y-79766240D01*
X165216525Y-79940632D01*
X165423368Y-80147475D01*
X165666589Y-80309990D01*
X165936842Y-80421932D01*
X166223740Y-80479000D01*
X166516260Y-80479000D01*
X166803158Y-80421932D01*
X167073411Y-80309990D01*
X167316632Y-80147475D01*
X167523475Y-79940632D01*
X167640000Y-79766240D01*
X167756525Y-79940632D01*
X167963368Y-80147475D01*
X168206589Y-80309990D01*
X168476842Y-80421932D01*
X168763740Y-80479000D01*
X169056260Y-80479000D01*
X169343158Y-80421932D01*
X169613411Y-80309990D01*
X169856632Y-80147475D01*
X170063475Y-79940632D01*
X170225990Y-79697411D01*
X170337932Y-79427158D01*
X170395000Y-79140260D01*
X170395000Y-78847740D01*
X170337932Y-78560842D01*
X170225990Y-78290589D01*
X170063475Y-78047368D01*
X169856632Y-77840525D01*
X169682240Y-77724000D01*
X169856632Y-77607475D01*
X170063475Y-77400632D01*
X170180000Y-77226240D01*
X170296525Y-77400632D01*
X170503368Y-77607475D01*
X170746589Y-77769990D01*
X171016842Y-77881932D01*
X171303740Y-77939000D01*
X171596260Y-77939000D01*
X171883158Y-77881932D01*
X172153411Y-77769990D01*
X172396632Y-77607475D01*
X172603475Y-77400632D01*
X172765990Y-77157411D01*
X172877932Y-76887158D01*
X172935000Y-76600260D01*
X172935000Y-76307740D01*
X172877932Y-76020842D01*
X172765990Y-75750589D01*
X172603475Y-75507368D01*
X172396632Y-75300525D01*
X172181832Y-75157000D01*
X177002054Y-75157000D01*
X177289236Y-75185158D01*
X177530907Y-75258123D01*
X177753799Y-75376637D01*
X177949427Y-75536187D01*
X178110340Y-75730699D01*
X178230407Y-75952756D01*
X178305056Y-76193912D01*
X178335000Y-76478811D01*
X178335000Y-77009617D01*
X178212012Y-76712698D01*
X177978363Y-76363017D01*
X177680983Y-76065637D01*
X177331302Y-75831988D01*
X176942756Y-75671047D01*
X176530279Y-75589000D01*
X176109721Y-75589000D01*
X175697244Y-75671047D01*
X175308698Y-75831988D01*
X174959017Y-76065637D01*
X174661637Y-76363017D01*
X174427988Y-76712698D01*
X174267047Y-77101244D01*
X174185000Y-77513721D01*
X174185000Y-77934279D01*
X174267047Y-78346756D01*
X174427988Y-78735302D01*
X174661637Y-79084983D01*
X174959017Y-79382363D01*
X175308698Y-79616012D01*
X175697244Y-79776953D01*
X176109721Y-79859000D01*
X176530279Y-79859000D01*
X176942756Y-79776953D01*
X177331302Y-79616012D01*
X177680983Y-79382363D01*
X177978363Y-79084983D01*
X178212012Y-78735302D01*
X178335000Y-78438383D01*
X178335001Y-126009620D01*
X178212012Y-125712698D01*
X177978363Y-125363017D01*
X177680983Y-125065637D01*
X177331302Y-124831988D01*
X176942756Y-124671047D01*
X176530279Y-124589000D01*
X176109721Y-124589000D01*
X175697244Y-124671047D01*
X175308698Y-124831988D01*
X174959017Y-125065637D01*
X174661637Y-125363017D01*
X174427988Y-125712698D01*
X174267047Y-126101244D01*
X174185000Y-126513721D01*
X174185000Y-126934279D01*
X174267047Y-127346756D01*
X174427988Y-127735302D01*
X174661637Y-128084983D01*
X174959017Y-128382363D01*
X175308698Y-128616012D01*
X175697244Y-128776953D01*
X176109721Y-128859000D01*
X176530279Y-128859000D01*
X176942756Y-128776953D01*
X177331302Y-128616012D01*
X177680983Y-128382363D01*
X177978363Y-128084983D01*
X178212012Y-127735302D01*
X178335001Y-127438380D01*
X178335001Y-128741885D01*
X178331444Y-128778000D01*
X178345635Y-128922085D01*
X178387663Y-129060633D01*
X178455913Y-129188320D01*
X178547762Y-129300238D01*
X178659680Y-129392087D01*
X178787367Y-129460337D01*
X178925915Y-129502365D01*
X179033895Y-129513000D01*
X179070000Y-129516556D01*
X179106105Y-129513000D01*
X194782054Y-129513000D01*
X195069236Y-129541158D01*
X195310907Y-129614123D01*
X195533799Y-129732637D01*
X195729427Y-129892187D01*
X195890340Y-130086699D01*
X196010407Y-130308756D01*
X196085056Y-130549912D01*
X196115000Y-130834811D01*
X196115001Y-138311134D01*
X195845223Y-138394644D01*
X195783779Y-138420473D01*
X195722045Y-138445415D01*
X195712989Y-138450230D01*
X195712985Y-138450232D01*
X195712984Y-138450233D01*
X195364135Y-138638855D01*
X195308892Y-138676117D01*
X195253167Y-138712582D01*
X195245217Y-138719066D01*
X195245213Y-138719069D01*
X195245209Y-138719073D01*
X194939646Y-138971855D01*
X194892668Y-139019162D01*
X194845110Y-139065734D01*
X194838568Y-139073641D01*
X194587920Y-139380967D01*
X194551042Y-139436472D01*
X194513419Y-139491419D01*
X194508537Y-139500446D01*
X194322356Y-139850603D01*
X194296953Y-139912235D01*
X194270727Y-139973424D01*
X194267692Y-139983227D01*
X194153069Y-140362878D01*
X194140127Y-140428238D01*
X194126280Y-140493386D01*
X194125207Y-140503592D01*
X194086508Y-140898277D01*
X194086508Y-140930396D01*
X194083040Y-140962328D01*
X194083005Y-140972591D01*
X194083055Y-140986776D01*
X194086299Y-141018704D01*
X194086075Y-141050800D01*
X194087076Y-141061013D01*
X194128529Y-141455417D01*
X194141932Y-141520711D01*
X194154408Y-141586111D01*
X194157373Y-141595935D01*
X194274644Y-141974778D01*
X194300483Y-142036246D01*
X194325415Y-142097955D01*
X194330233Y-142107017D01*
X194518855Y-142455865D01*
X194556117Y-142511108D01*
X194592582Y-142566833D01*
X194599068Y-142574786D01*
X194851855Y-142880354D01*
X194899130Y-142927299D01*
X194945735Y-142974891D01*
X194953642Y-142981432D01*
X195260967Y-143232081D01*
X195316491Y-143268971D01*
X195371419Y-143306581D01*
X195380443Y-143311461D01*
X195380451Y-143311465D01*
X195730603Y-143497644D01*
X195792207Y-143523035D01*
X195853424Y-143549273D01*
X195863227Y-143552308D01*
X196115000Y-143628323D01*
X196115001Y-151602043D01*
X196086842Y-151889236D01*
X196013878Y-152130903D01*
X195895363Y-152353798D01*
X195735813Y-152549427D01*
X195541300Y-152710341D01*
X195319244Y-152830407D01*
X195078090Y-152905056D01*
X194793189Y-152935000D01*
X74457946Y-152935000D01*
X74170764Y-152906842D01*
X73929097Y-152833878D01*
X73706202Y-152715363D01*
X73510573Y-152555813D01*
X73349659Y-152361300D01*
X73229593Y-152139244D01*
X73154944Y-151898090D01*
X73125000Y-151613189D01*
X73125000Y-143628866D01*
X73394778Y-143545356D01*
X73456246Y-143519517D01*
X73517955Y-143494585D01*
X73527012Y-143489770D01*
X73527016Y-143489768D01*
X73527019Y-143489766D01*
X73875865Y-143301145D01*
X73931108Y-143263883D01*
X73986833Y-143227418D01*
X73994786Y-143220932D01*
X74300354Y-142968145D01*
X74347299Y-142920870D01*
X74394891Y-142874265D01*
X74401432Y-142866358D01*
X74652081Y-142559033D01*
X74688971Y-142503509D01*
X74726581Y-142448581D01*
X74731462Y-142439554D01*
X74917644Y-142089397D01*
X74943035Y-142027793D01*
X74969273Y-141966576D01*
X74972308Y-141956773D01*
X75086931Y-141577122D01*
X75099874Y-141511754D01*
X75113720Y-141446613D01*
X75114793Y-141436407D01*
X75153492Y-141041723D01*
X75153492Y-141009604D01*
X75156960Y-140977672D01*
X75156995Y-140967409D01*
X75156945Y-140953223D01*
X75153701Y-140921295D01*
X75153925Y-140889199D01*
X75152924Y-140878986D01*
X75111471Y-140484583D01*
X75098073Y-140419313D01*
X75085593Y-140353890D01*
X75082627Y-140344065D01*
X74965356Y-139965223D01*
X74939527Y-139903779D01*
X74914585Y-139842045D01*
X74909767Y-139832984D01*
X74721145Y-139484135D01*
X74683883Y-139428892D01*
X74647418Y-139373167D01*
X74640932Y-139365215D01*
X74640931Y-139365213D01*
X74640927Y-139365209D01*
X74388145Y-139059646D01*
X74340838Y-139012668D01*
X74294266Y-138965110D01*
X74286359Y-138958568D01*
X73979033Y-138707920D01*
X73923528Y-138671042D01*
X73868581Y-138633419D01*
X73859554Y-138628537D01*
X73509397Y-138442356D01*
X73447765Y-138416953D01*
X73386576Y-138390727D01*
X73376777Y-138387693D01*
X73376771Y-138387691D01*
X73125000Y-138311678D01*
X73125000Y-126513721D01*
X116185000Y-126513721D01*
X116185000Y-126934279D01*
X116267047Y-127346756D01*
X116427988Y-127735302D01*
X116661637Y-128084983D01*
X116959017Y-128382363D01*
X117308698Y-128616012D01*
X117697244Y-128776953D01*
X118109721Y-128859000D01*
X118530279Y-128859000D01*
X118942756Y-128776953D01*
X119331302Y-128616012D01*
X119680983Y-128382363D01*
X119978363Y-128084983D01*
X120212012Y-127735302D01*
X120372953Y-127346756D01*
X120455000Y-126934279D01*
X120455000Y-126513721D01*
X120372953Y-126101244D01*
X120212012Y-125712698D01*
X119978363Y-125363017D01*
X119680983Y-125065637D01*
X119331302Y-124831988D01*
X118942756Y-124671047D01*
X118530279Y-124589000D01*
X118109721Y-124589000D01*
X117697244Y-124671047D01*
X117308698Y-124831988D01*
X116959017Y-125065637D01*
X116661637Y-125363017D01*
X116427988Y-125712698D01*
X116267047Y-126101244D01*
X116185000Y-126513721D01*
X73125000Y-126513721D01*
X73125000Y-121687560D01*
X75364000Y-121687560D01*
X75364000Y-122152440D01*
X75454694Y-122608387D01*
X75632595Y-123037879D01*
X75890868Y-123424412D01*
X76219588Y-123753132D01*
X76606121Y-124011405D01*
X77035613Y-124189306D01*
X77491560Y-124280000D01*
X77956440Y-124280000D01*
X78412387Y-124189306D01*
X78841879Y-124011405D01*
X79228412Y-123753132D01*
X79557132Y-123424412D01*
X79815405Y-123037879D01*
X79993306Y-122608387D01*
X80084000Y-122152440D01*
X80084000Y-121687560D01*
X79993306Y-121231613D01*
X79815405Y-120802121D01*
X79557132Y-120415588D01*
X79228412Y-120086868D01*
X78841879Y-119828595D01*
X78412387Y-119650694D01*
X77956440Y-119560000D01*
X77491560Y-119560000D01*
X77035613Y-119650694D01*
X76606121Y-119828595D01*
X76219588Y-120086868D01*
X75890868Y-120415588D01*
X75632595Y-120802121D01*
X75454694Y-121231613D01*
X75364000Y-121687560D01*
X73125000Y-121687560D01*
X73125000Y-117972408D01*
X84963000Y-117972408D01*
X84963000Y-118247592D01*
X85016686Y-118517490D01*
X85121995Y-118771727D01*
X85274880Y-119000535D01*
X85469465Y-119195120D01*
X85698273Y-119348005D01*
X85775515Y-119380000D01*
X85698273Y-119411995D01*
X85469465Y-119564880D01*
X85274880Y-119759465D01*
X85121995Y-119988273D01*
X85016686Y-120242510D01*
X84963000Y-120512408D01*
X84963000Y-120787592D01*
X85016686Y-121057490D01*
X85121995Y-121311727D01*
X85274880Y-121540535D01*
X85469465Y-121735120D01*
X85698273Y-121888005D01*
X85952510Y-121993314D01*
X86222408Y-122047000D01*
X86497592Y-122047000D01*
X86767490Y-121993314D01*
X87021727Y-121888005D01*
X87250535Y-121735120D01*
X87445120Y-121540535D01*
X87598005Y-121311727D01*
X87703314Y-121057490D01*
X87757000Y-120787592D01*
X87757000Y-120512408D01*
X87703314Y-120242510D01*
X87598005Y-119988273D01*
X87445120Y-119759465D01*
X87250535Y-119564880D01*
X87021727Y-119411995D01*
X86944485Y-119380000D01*
X87021727Y-119348005D01*
X87250535Y-119195120D01*
X87445120Y-119000535D01*
X87598005Y-118771727D01*
X87703314Y-118517490D01*
X87757000Y-118247592D01*
X87757000Y-117972408D01*
X87703314Y-117702510D01*
X87598005Y-117448273D01*
X87445120Y-117219465D01*
X87250535Y-117024880D01*
X87021727Y-116871995D01*
X86767490Y-116766686D01*
X86497592Y-116713000D01*
X86222408Y-116713000D01*
X85952510Y-116766686D01*
X85698273Y-116871995D01*
X85469465Y-117024880D01*
X85274880Y-117219465D01*
X85121995Y-117448273D01*
X85016686Y-117702510D01*
X84963000Y-117972408D01*
X73125000Y-117972408D01*
X73125000Y-114067560D01*
X75364000Y-114067560D01*
X75364000Y-114532440D01*
X75454694Y-114988387D01*
X75632595Y-115417879D01*
X75890868Y-115804412D01*
X76219588Y-116133132D01*
X76606121Y-116391405D01*
X77035613Y-116569306D01*
X77491560Y-116660000D01*
X77956440Y-116660000D01*
X78412387Y-116569306D01*
X78841879Y-116391405D01*
X79228412Y-116133132D01*
X79557132Y-115804412D01*
X79815405Y-115417879D01*
X79993306Y-114988387D01*
X80084000Y-114532440D01*
X80084000Y-114067560D01*
X79993306Y-113611613D01*
X79815405Y-113182121D01*
X79557132Y-112795588D01*
X79228412Y-112466868D01*
X78841879Y-112208595D01*
X78412387Y-112030694D01*
X77956440Y-111940000D01*
X77491560Y-111940000D01*
X77035613Y-112030694D01*
X76606121Y-112208595D01*
X76219588Y-112466868D01*
X75890868Y-112795588D01*
X75632595Y-113182121D01*
X75454694Y-113611613D01*
X75364000Y-114067560D01*
X73125000Y-114067560D01*
X73125000Y-107717560D01*
X75364000Y-107717560D01*
X75364000Y-108182440D01*
X75454694Y-108638387D01*
X75632595Y-109067879D01*
X75890868Y-109454412D01*
X76219588Y-109783132D01*
X76606121Y-110041405D01*
X77035613Y-110219306D01*
X77491560Y-110310000D01*
X77956440Y-110310000D01*
X78412387Y-110219306D01*
X78841879Y-110041405D01*
X79228412Y-109783132D01*
X79557132Y-109454412D01*
X79815405Y-109067879D01*
X79993306Y-108638387D01*
X80084000Y-108182440D01*
X80084000Y-107717560D01*
X79993306Y-107261613D01*
X79815405Y-106832121D01*
X79557132Y-106445588D01*
X79228412Y-106116868D01*
X78841879Y-105858595D01*
X78412387Y-105680694D01*
X77956440Y-105590000D01*
X77491560Y-105590000D01*
X77035613Y-105680694D01*
X76606121Y-105858595D01*
X76219588Y-106116868D01*
X75890868Y-106445588D01*
X75632595Y-106832121D01*
X75454694Y-107261613D01*
X75364000Y-107717560D01*
X73125000Y-107717560D01*
X73125000Y-101462408D01*
X84963000Y-101462408D01*
X84963000Y-101737592D01*
X85016686Y-102007490D01*
X85121995Y-102261727D01*
X85274880Y-102490535D01*
X85469465Y-102685120D01*
X85698273Y-102838005D01*
X85775515Y-102870000D01*
X85698273Y-102901995D01*
X85469465Y-103054880D01*
X85274880Y-103249465D01*
X85121995Y-103478273D01*
X85016686Y-103732510D01*
X84963000Y-104002408D01*
X84963000Y-104277592D01*
X85016686Y-104547490D01*
X85121995Y-104801727D01*
X85274880Y-105030535D01*
X85469465Y-105225120D01*
X85698273Y-105378005D01*
X85775515Y-105410000D01*
X85698273Y-105441995D01*
X85469465Y-105594880D01*
X85274880Y-105789465D01*
X85121995Y-106018273D01*
X85016686Y-106272510D01*
X84963000Y-106542408D01*
X84963000Y-106817592D01*
X85016686Y-107087490D01*
X85121995Y-107341727D01*
X85274880Y-107570535D01*
X85469465Y-107765120D01*
X85698273Y-107918005D01*
X85952510Y-108023314D01*
X86222408Y-108077000D01*
X86497592Y-108077000D01*
X86767490Y-108023314D01*
X87021727Y-107918005D01*
X87250535Y-107765120D01*
X87445120Y-107570535D01*
X87598005Y-107341727D01*
X87703314Y-107087490D01*
X87757000Y-106817592D01*
X87757000Y-106542408D01*
X87703314Y-106272510D01*
X87598005Y-106018273D01*
X87445120Y-105789465D01*
X87250535Y-105594880D01*
X87021727Y-105441995D01*
X86944485Y-105410000D01*
X87021727Y-105378005D01*
X87250535Y-105225120D01*
X87445120Y-105030535D01*
X87598005Y-104801727D01*
X87703314Y-104547490D01*
X87757000Y-104277592D01*
X87757000Y-104002408D01*
X87703314Y-103732510D01*
X87598005Y-103478273D01*
X87445120Y-103249465D01*
X87250535Y-103054880D01*
X87021727Y-102901995D01*
X86944485Y-102870000D01*
X87021727Y-102838005D01*
X87250535Y-102685120D01*
X87445120Y-102490535D01*
X87598005Y-102261727D01*
X87703314Y-102007490D01*
X87757000Y-101737592D01*
X87757000Y-101462408D01*
X87703314Y-101192510D01*
X87598005Y-100938273D01*
X87445120Y-100709465D01*
X87250535Y-100514880D01*
X87021727Y-100361995D01*
X86767490Y-100256686D01*
X86497592Y-100203000D01*
X86222408Y-100203000D01*
X85952510Y-100256686D01*
X85698273Y-100361995D01*
X85469465Y-100514880D01*
X85274880Y-100709465D01*
X85121995Y-100938273D01*
X85016686Y-101192510D01*
X84963000Y-101462408D01*
X73125000Y-101462408D01*
X73125000Y-97557560D01*
X75364000Y-97557560D01*
X75364000Y-98022440D01*
X75454694Y-98478387D01*
X75632595Y-98907879D01*
X75890868Y-99294412D01*
X76219588Y-99623132D01*
X76606121Y-99881405D01*
X77035613Y-100059306D01*
X77491560Y-100150000D01*
X77956440Y-100150000D01*
X78412387Y-100059306D01*
X78841879Y-99881405D01*
X79228412Y-99623132D01*
X79557132Y-99294412D01*
X79815405Y-98907879D01*
X79993306Y-98478387D01*
X80084000Y-98022440D01*
X80084000Y-97557560D01*
X79993306Y-97101613D01*
X79815405Y-96672121D01*
X79557132Y-96285588D01*
X79228412Y-95956868D01*
X78841879Y-95698595D01*
X78412387Y-95520694D01*
X77956440Y-95430000D01*
X77491560Y-95430000D01*
X77035613Y-95520694D01*
X76606121Y-95698595D01*
X76219588Y-95956868D01*
X75890868Y-96285588D01*
X75632595Y-96672121D01*
X75454694Y-97101613D01*
X75364000Y-97557560D01*
X73125000Y-97557560D01*
X73125000Y-88587290D01*
X83185000Y-88587290D01*
X83185000Y-89212710D01*
X83307014Y-89826113D01*
X83546352Y-90403926D01*
X83893817Y-90923944D01*
X84336056Y-91366183D01*
X84856074Y-91713648D01*
X85433887Y-91952986D01*
X86047290Y-92075000D01*
X86672710Y-92075000D01*
X87286113Y-91952986D01*
X87863926Y-91713648D01*
X88383944Y-91366183D01*
X88826183Y-90923944D01*
X89173648Y-90403926D01*
X89412986Y-89826113D01*
X89535000Y-89212710D01*
X89535000Y-88587290D01*
X89412986Y-87973887D01*
X89173648Y-87396074D01*
X88826183Y-86876056D01*
X88383944Y-86433817D01*
X87863926Y-86086352D01*
X87286113Y-85847014D01*
X86672710Y-85725000D01*
X86047290Y-85725000D01*
X85433887Y-85847014D01*
X84856074Y-86086352D01*
X84336056Y-86433817D01*
X83893817Y-86876056D01*
X83546352Y-87396074D01*
X83307014Y-87973887D01*
X83185000Y-88587290D01*
X73125000Y-88587290D01*
X73125000Y-81813061D01*
X93707000Y-81813061D01*
X93707000Y-82016939D01*
X93746774Y-82216898D01*
X93824795Y-82405256D01*
X93916501Y-82542504D01*
X93916500Y-104147497D01*
X93824795Y-104284744D01*
X93746774Y-104473102D01*
X93707000Y-104673061D01*
X93707000Y-104876939D01*
X93746774Y-105076898D01*
X93824795Y-105265256D01*
X93938063Y-105434774D01*
X94082226Y-105578937D01*
X94251744Y-105692205D01*
X94440102Y-105770226D01*
X94640061Y-105810000D01*
X94843939Y-105810000D01*
X95043898Y-105770226D01*
X95232256Y-105692205D01*
X95401774Y-105578937D01*
X95545937Y-105434774D01*
X95659205Y-105265256D01*
X95737226Y-105076898D01*
X95777000Y-104876939D01*
X95777000Y-104673061D01*
X95737226Y-104473102D01*
X95659205Y-104284744D01*
X95567500Y-104147497D01*
X95567500Y-83083061D01*
X96120000Y-83083061D01*
X96120000Y-83286939D01*
X96159774Y-83486898D01*
X96237795Y-83675256D01*
X96329501Y-83812504D01*
X96329500Y-100464497D01*
X96237795Y-100601744D01*
X96159774Y-100790102D01*
X96120000Y-100990061D01*
X96120000Y-101193939D01*
X96159774Y-101393898D01*
X96237795Y-101582256D01*
X96351063Y-101751774D01*
X96495226Y-101895937D01*
X96664744Y-102009205D01*
X96853102Y-102087226D01*
X97053061Y-102127000D01*
X97256939Y-102127000D01*
X97456898Y-102087226D01*
X97645256Y-102009205D01*
X97814774Y-101895937D01*
X97958937Y-101751774D01*
X98072205Y-101582256D01*
X98150226Y-101393898D01*
X98190000Y-101193939D01*
X98190000Y-100990061D01*
X98150226Y-100790102D01*
X98072205Y-100601744D01*
X97980500Y-100464497D01*
X97980500Y-83812503D01*
X98072205Y-83675256D01*
X98150226Y-83486898D01*
X98190000Y-83286939D01*
X98190000Y-83083061D01*
X98150226Y-82883102D01*
X98072205Y-82694744D01*
X97958937Y-82525226D01*
X97814774Y-82381063D01*
X97645256Y-82267795D01*
X97456898Y-82189774D01*
X97256939Y-82150000D01*
X97053061Y-82150000D01*
X96853102Y-82189774D01*
X96664744Y-82267795D01*
X96495226Y-82381063D01*
X96351063Y-82525226D01*
X96237795Y-82694744D01*
X96159774Y-82883102D01*
X96120000Y-83083061D01*
X95567500Y-83083061D01*
X95567500Y-82542503D01*
X95659205Y-82405256D01*
X95737226Y-82216898D01*
X95777000Y-82016939D01*
X95777000Y-81813061D01*
X95737226Y-81613102D01*
X95659205Y-81424744D01*
X95545937Y-81255226D01*
X95401774Y-81111063D01*
X95232256Y-80997795D01*
X95043898Y-80919774D01*
X94843939Y-80880000D01*
X94640061Y-80880000D01*
X94440102Y-80919774D01*
X94251744Y-80997795D01*
X94082226Y-81111063D01*
X93938063Y-81255226D01*
X93824795Y-81424744D01*
X93746774Y-81613102D01*
X93707000Y-81813061D01*
X73125000Y-81813061D01*
X73125000Y-77940000D01*
X105876928Y-77940000D01*
X105876928Y-79540000D01*
X105889188Y-79664482D01*
X105925498Y-79784180D01*
X105984463Y-79894494D01*
X106063815Y-79991185D01*
X106160506Y-80070537D01*
X106270820Y-80129502D01*
X106299000Y-80138050D01*
X106299001Y-83135089D01*
X106299000Y-83135099D01*
X106299001Y-85527536D01*
X106280000Y-85623061D01*
X106280000Y-85826939D01*
X106299000Y-85922459D01*
X106299001Y-99010089D01*
X106299000Y-99010099D01*
X106299001Y-100915089D01*
X106299000Y-100915099D01*
X106299000Y-101910345D01*
X106229880Y-101979465D01*
X106076995Y-102208273D01*
X105971686Y-102462510D01*
X105918000Y-102732408D01*
X105918000Y-103007592D01*
X105971686Y-103277490D01*
X106076995Y-103531727D01*
X106229880Y-103760535D01*
X106424465Y-103955120D01*
X106653273Y-104108005D01*
X106907510Y-104213314D01*
X107177408Y-104267000D01*
X107452592Y-104267000D01*
X107722490Y-104213314D01*
X107976727Y-104108005D01*
X108205535Y-103955120D01*
X108400120Y-103760535D01*
X108553005Y-103531727D01*
X108658314Y-103277490D01*
X108712000Y-103007592D01*
X108712000Y-102732408D01*
X108658314Y-102462510D01*
X108553005Y-102208273D01*
X108400120Y-101979465D01*
X108331000Y-101910345D01*
X108331000Y-101790500D01*
X111498845Y-101790500D01*
X111309880Y-101979465D01*
X111156995Y-102208273D01*
X111051686Y-102462510D01*
X110998000Y-102732408D01*
X110998000Y-103007592D01*
X111051686Y-103277490D01*
X111156995Y-103531727D01*
X111309880Y-103760535D01*
X111504465Y-103955120D01*
X111733273Y-104108005D01*
X111987510Y-104213314D01*
X112257408Y-104267000D01*
X112532592Y-104267000D01*
X112802490Y-104213314D01*
X113056727Y-104108005D01*
X113285535Y-103955120D01*
X113480120Y-103760535D01*
X113633005Y-103531727D01*
X113738314Y-103277490D01*
X113792000Y-103007592D01*
X113792000Y-102732408D01*
X113738314Y-102462510D01*
X113633005Y-102208273D01*
X113480120Y-101979465D01*
X113291155Y-101790500D01*
X128563067Y-101790500D01*
X128714500Y-101941934D01*
X128714501Y-102242497D01*
X128622795Y-102379744D01*
X128544774Y-102568102D01*
X128505000Y-102768061D01*
X128505000Y-102971939D01*
X128544774Y-103171898D01*
X128622795Y-103360256D01*
X128736063Y-103529774D01*
X128880226Y-103673937D01*
X129049744Y-103787205D01*
X129238102Y-103865226D01*
X129438061Y-103905000D01*
X129641939Y-103905000D01*
X129841898Y-103865226D01*
X130030256Y-103787205D01*
X130199774Y-103673937D01*
X130343937Y-103529774D01*
X130457205Y-103360256D01*
X130535226Y-103171898D01*
X130575000Y-102971939D01*
X130575000Y-102768061D01*
X130535226Y-102568102D01*
X130457205Y-102379744D01*
X130365500Y-102242497D01*
X130365500Y-101640550D01*
X130369494Y-101600000D01*
X130361619Y-101520041D01*
X130353556Y-101438174D01*
X130306353Y-101282566D01*
X130290991Y-101253826D01*
X130229699Y-101139157D01*
X130152392Y-101044958D01*
X130152389Y-101044955D01*
X130126541Y-101013459D01*
X130095045Y-100987612D01*
X129517397Y-100409965D01*
X129491541Y-100378459D01*
X129365842Y-100275301D01*
X129222434Y-100198647D01*
X129066826Y-100151444D01*
X128945553Y-100139500D01*
X128945550Y-100139500D01*
X128905000Y-100135506D01*
X128864450Y-100139500D01*
X108331000Y-100139500D01*
X108331000Y-88762408D01*
X117983000Y-88762408D01*
X117983000Y-89037592D01*
X118036686Y-89307490D01*
X118141995Y-89561727D01*
X118294880Y-89790535D01*
X118489465Y-89985120D01*
X118718273Y-90138005D01*
X118972510Y-90243314D01*
X119242408Y-90297000D01*
X119517592Y-90297000D01*
X119787490Y-90243314D01*
X120041727Y-90138005D01*
X120270535Y-89985120D01*
X120465120Y-89790535D01*
X120618005Y-89561727D01*
X120723314Y-89307490D01*
X120777000Y-89037592D01*
X120777000Y-88762408D01*
X120723314Y-88492510D01*
X120618005Y-88238273D01*
X120465120Y-88009465D01*
X120270535Y-87814880D01*
X120041727Y-87661995D01*
X119787490Y-87556686D01*
X119517592Y-87503000D01*
X119242408Y-87503000D01*
X118972510Y-87556686D01*
X118718273Y-87661995D01*
X118489465Y-87814880D01*
X118294880Y-88009465D01*
X118141995Y-88238273D01*
X118036686Y-88492510D01*
X117983000Y-88762408D01*
X108331000Y-88762408D01*
X108331000Y-85922459D01*
X108350000Y-85826939D01*
X108350000Y-85623061D01*
X108331000Y-85527541D01*
X108331000Y-80138050D01*
X108359180Y-80129502D01*
X108469494Y-80070537D01*
X108566185Y-79991185D01*
X108645537Y-79894494D01*
X108704502Y-79784180D01*
X108740812Y-79664482D01*
X108753072Y-79540000D01*
X108753072Y-77940000D01*
X108740812Y-77815518D01*
X108704502Y-77695820D01*
X108645537Y-77585506D01*
X108586625Y-77513721D01*
X116185000Y-77513721D01*
X116185000Y-77934279D01*
X116267047Y-78346756D01*
X116427988Y-78735302D01*
X116661637Y-79084983D01*
X116959017Y-79382363D01*
X117308698Y-79616012D01*
X117697244Y-79776953D01*
X118109721Y-79859000D01*
X118530279Y-79859000D01*
X118942756Y-79776953D01*
X119331302Y-79616012D01*
X119680983Y-79382363D01*
X119978363Y-79084983D01*
X120212012Y-78735302D01*
X120372953Y-78346756D01*
X120455000Y-77934279D01*
X120455000Y-77513721D01*
X120372953Y-77101244D01*
X120212012Y-76712698D01*
X119978363Y-76363017D01*
X119680983Y-76065637D01*
X119331302Y-75831988D01*
X118942756Y-75671047D01*
X118530279Y-75589000D01*
X118109721Y-75589000D01*
X117697244Y-75671047D01*
X117308698Y-75831988D01*
X116959017Y-76065637D01*
X116661637Y-76363017D01*
X116427988Y-76712698D01*
X116267047Y-77101244D01*
X116185000Y-77513721D01*
X108586625Y-77513721D01*
X108566185Y-77488815D01*
X108469494Y-77409463D01*
X108359180Y-77350498D01*
X108239482Y-77314188D01*
X108115000Y-77301928D01*
X106515000Y-77301928D01*
X106390518Y-77314188D01*
X106270820Y-77350498D01*
X106160506Y-77409463D01*
X106063815Y-77488815D01*
X105984463Y-77585506D01*
X105925498Y-77695820D01*
X105889188Y-77815518D01*
X105876928Y-77940000D01*
X73125000Y-77940000D01*
X73125000Y-76489946D01*
X73153158Y-76202764D01*
X73226123Y-75961093D01*
X73344637Y-75738201D01*
X73504187Y-75542573D01*
X73698699Y-75381660D01*
X73920756Y-75261593D01*
X74161912Y-75186944D01*
X74446811Y-75157000D01*
X122458168Y-75157000D01*
X122243368Y-75300525D01*
G36*
X147643368Y-75300525D02*
G01*
X147436525Y-75507368D01*
X147274010Y-75750589D01*
X147162068Y-76020842D01*
X147105000Y-76307740D01*
X147105000Y-76600260D01*
X147162068Y-76887158D01*
X147274010Y-77157411D01*
X147436525Y-77400632D01*
X147643368Y-77607475D01*
X147817760Y-77724000D01*
X147643368Y-77840525D01*
X147436525Y-78047368D01*
X147320000Y-78221760D01*
X147203475Y-78047368D01*
X146996632Y-77840525D01*
X146753411Y-77678010D01*
X146483158Y-77566068D01*
X146196260Y-77509000D01*
X145903740Y-77509000D01*
X145616842Y-77566068D01*
X145346589Y-77678010D01*
X145103368Y-77840525D01*
X144896525Y-78047368D01*
X144780000Y-78221760D01*
X144663475Y-78047368D01*
X144456632Y-77840525D01*
X144282240Y-77724000D01*
X144456632Y-77607475D01*
X144663475Y-77400632D01*
X144825990Y-77157411D01*
X144937932Y-76887158D01*
X144995000Y-76600260D01*
X144995000Y-76307740D01*
X144937932Y-76020842D01*
X144825990Y-75750589D01*
X144663475Y-75507368D01*
X144456632Y-75300525D01*
X144241832Y-75157000D01*
X147858168Y-75157000D01*
X147643368Y-75300525D01*
X147643368Y-75300525D01*
G37*
X147643368Y-75300525D02*
X147436525Y-75507368D01*
X147274010Y-75750589D01*
X147162068Y-76020842D01*
X147105000Y-76307740D01*
X147105000Y-76600260D01*
X147162068Y-76887158D01*
X147274010Y-77157411D01*
X147436525Y-77400632D01*
X147643368Y-77607475D01*
X147817760Y-77724000D01*
X147643368Y-77840525D01*
X147436525Y-78047368D01*
X147320000Y-78221760D01*
X147203475Y-78047368D01*
X146996632Y-77840525D01*
X146753411Y-77678010D01*
X146483158Y-77566068D01*
X146196260Y-77509000D01*
X145903740Y-77509000D01*
X145616842Y-77566068D01*
X145346589Y-77678010D01*
X145103368Y-77840525D01*
X144896525Y-78047368D01*
X144780000Y-78221760D01*
X144663475Y-78047368D01*
X144456632Y-77840525D01*
X144282240Y-77724000D01*
X144456632Y-77607475D01*
X144663475Y-77400632D01*
X144825990Y-77157411D01*
X144937932Y-76887158D01*
X144995000Y-76600260D01*
X144995000Y-76307740D01*
X144937932Y-76020842D01*
X144825990Y-75750589D01*
X144663475Y-75507368D01*
X144456632Y-75300525D01*
X144241832Y-75157000D01*
X147858168Y-75157000D01*
X147643368Y-75300525D01*
G36*
X129863368Y-75300525D02*
G01*
X129656525Y-75507368D01*
X129494010Y-75750589D01*
X129382068Y-76020842D01*
X129325000Y-76307740D01*
X129325000Y-76600260D01*
X129382068Y-76887158D01*
X129494010Y-77157411D01*
X129656525Y-77400632D01*
X129863368Y-77607475D01*
X130037760Y-77724000D01*
X129863368Y-77840525D01*
X129656525Y-78047368D01*
X129540000Y-78221760D01*
X129423475Y-78047368D01*
X129216632Y-77840525D01*
X128973411Y-77678010D01*
X128703158Y-77566068D01*
X128416260Y-77509000D01*
X128123740Y-77509000D01*
X127836842Y-77566068D01*
X127566589Y-77678010D01*
X127323368Y-77840525D01*
X127116525Y-78047368D01*
X127000000Y-78221760D01*
X126883475Y-78047368D01*
X126676632Y-77840525D01*
X126502240Y-77724000D01*
X126676632Y-77607475D01*
X126883475Y-77400632D01*
X127045990Y-77157411D01*
X127157932Y-76887158D01*
X127215000Y-76600260D01*
X127215000Y-76307740D01*
X127157932Y-76020842D01*
X127045990Y-75750589D01*
X126883475Y-75507368D01*
X126676632Y-75300525D01*
X126461832Y-75157000D01*
X130078168Y-75157000D01*
X129863368Y-75300525D01*
X129863368Y-75300525D01*
G37*
X129863368Y-75300525D02*
X129656525Y-75507368D01*
X129494010Y-75750589D01*
X129382068Y-76020842D01*
X129325000Y-76307740D01*
X129325000Y-76600260D01*
X129382068Y-76887158D01*
X129494010Y-77157411D01*
X129656525Y-77400632D01*
X129863368Y-77607475D01*
X130037760Y-77724000D01*
X129863368Y-77840525D01*
X129656525Y-78047368D01*
X129540000Y-78221760D01*
X129423475Y-78047368D01*
X129216632Y-77840525D01*
X128973411Y-77678010D01*
X128703158Y-77566068D01*
X128416260Y-77509000D01*
X128123740Y-77509000D01*
X127836842Y-77566068D01*
X127566589Y-77678010D01*
X127323368Y-77840525D01*
X127116525Y-78047368D01*
X127000000Y-78221760D01*
X126883475Y-78047368D01*
X126676632Y-77840525D01*
X126502240Y-77724000D01*
X126676632Y-77607475D01*
X126883475Y-77400632D01*
X127045990Y-77157411D01*
X127157932Y-76887158D01*
X127215000Y-76600260D01*
X127215000Y-76307740D01*
X127157932Y-76020842D01*
X127045990Y-75750589D01*
X126883475Y-75507368D01*
X126676632Y-75300525D01*
X126461832Y-75157000D01*
X130078168Y-75157000D01*
X129863368Y-75300525D01*
G36*
X165423368Y-75300525D02*
G01*
X165216525Y-75507368D01*
X165054010Y-75750589D01*
X164942068Y-76020842D01*
X164885000Y-76307740D01*
X164885000Y-76600260D01*
X164942068Y-76887158D01*
X165054010Y-77157411D01*
X165216525Y-77400632D01*
X165423368Y-77607475D01*
X165597760Y-77724000D01*
X165423368Y-77840525D01*
X165216525Y-78047368D01*
X165100000Y-78221760D01*
X164983475Y-78047368D01*
X164776632Y-77840525D01*
X164533411Y-77678010D01*
X164263158Y-77566068D01*
X163976260Y-77509000D01*
X163683740Y-77509000D01*
X163396842Y-77566068D01*
X163126589Y-77678010D01*
X162883368Y-77840525D01*
X162676525Y-78047368D01*
X162560000Y-78221760D01*
X162443475Y-78047368D01*
X162236632Y-77840525D01*
X162062240Y-77724000D01*
X162236632Y-77607475D01*
X162443475Y-77400632D01*
X162605990Y-77157411D01*
X162717932Y-76887158D01*
X162775000Y-76600260D01*
X162775000Y-76307740D01*
X162717932Y-76020842D01*
X162605990Y-75750589D01*
X162443475Y-75507368D01*
X162236632Y-75300525D01*
X162021832Y-75157000D01*
X165638168Y-75157000D01*
X165423368Y-75300525D01*
X165423368Y-75300525D01*
G37*
X165423368Y-75300525D02*
X165216525Y-75507368D01*
X165054010Y-75750589D01*
X164942068Y-76020842D01*
X164885000Y-76307740D01*
X164885000Y-76600260D01*
X164942068Y-76887158D01*
X165054010Y-77157411D01*
X165216525Y-77400632D01*
X165423368Y-77607475D01*
X165597760Y-77724000D01*
X165423368Y-77840525D01*
X165216525Y-78047368D01*
X165100000Y-78221760D01*
X164983475Y-78047368D01*
X164776632Y-77840525D01*
X164533411Y-77678010D01*
X164263158Y-77566068D01*
X163976260Y-77509000D01*
X163683740Y-77509000D01*
X163396842Y-77566068D01*
X163126589Y-77678010D01*
X162883368Y-77840525D01*
X162676525Y-78047368D01*
X162560000Y-78221760D01*
X162443475Y-78047368D01*
X162236632Y-77840525D01*
X162062240Y-77724000D01*
X162236632Y-77607475D01*
X162443475Y-77400632D01*
X162605990Y-77157411D01*
X162717932Y-76887158D01*
X162775000Y-76600260D01*
X162775000Y-76307740D01*
X162717932Y-76020842D01*
X162605990Y-75750589D01*
X162443475Y-75507368D01*
X162236632Y-75300525D01*
X162021832Y-75157000D01*
X165638168Y-75157000D01*
X165423368Y-75300525D01*
G36*
X160343368Y-75300525D02*
G01*
X160136525Y-75507368D01*
X159974010Y-75750589D01*
X159862068Y-76020842D01*
X159805000Y-76307740D01*
X159805000Y-76600260D01*
X159862068Y-76887158D01*
X159974010Y-77157411D01*
X160136525Y-77400632D01*
X160343368Y-77607475D01*
X160517760Y-77724000D01*
X160343368Y-77840525D01*
X160136525Y-78047368D01*
X160020000Y-78221760D01*
X159903475Y-78047368D01*
X159696632Y-77840525D01*
X159453411Y-77678010D01*
X159183158Y-77566068D01*
X158896260Y-77509000D01*
X158603740Y-77509000D01*
X158316842Y-77566068D01*
X158046589Y-77678010D01*
X157803368Y-77840525D01*
X157596525Y-78047368D01*
X157480000Y-78221760D01*
X157363475Y-78047368D01*
X157156632Y-77840525D01*
X156982240Y-77724000D01*
X157156632Y-77607475D01*
X157363475Y-77400632D01*
X157525990Y-77157411D01*
X157637932Y-76887158D01*
X157695000Y-76600260D01*
X157695000Y-76307740D01*
X157637932Y-76020842D01*
X157525990Y-75750589D01*
X157363475Y-75507368D01*
X157156632Y-75300525D01*
X156941832Y-75157000D01*
X160558168Y-75157000D01*
X160343368Y-75300525D01*
X160343368Y-75300525D01*
G37*
X160343368Y-75300525D02*
X160136525Y-75507368D01*
X159974010Y-75750589D01*
X159862068Y-76020842D01*
X159805000Y-76307740D01*
X159805000Y-76600260D01*
X159862068Y-76887158D01*
X159974010Y-77157411D01*
X160136525Y-77400632D01*
X160343368Y-77607475D01*
X160517760Y-77724000D01*
X160343368Y-77840525D01*
X160136525Y-78047368D01*
X160020000Y-78221760D01*
X159903475Y-78047368D01*
X159696632Y-77840525D01*
X159453411Y-77678010D01*
X159183158Y-77566068D01*
X158896260Y-77509000D01*
X158603740Y-77509000D01*
X158316842Y-77566068D01*
X158046589Y-77678010D01*
X157803368Y-77840525D01*
X157596525Y-78047368D01*
X157480000Y-78221760D01*
X157363475Y-78047368D01*
X157156632Y-77840525D01*
X156982240Y-77724000D01*
X157156632Y-77607475D01*
X157363475Y-77400632D01*
X157525990Y-77157411D01*
X157637932Y-76887158D01*
X157695000Y-76600260D01*
X157695000Y-76307740D01*
X157637932Y-76020842D01*
X157525990Y-75750589D01*
X157363475Y-75507368D01*
X157156632Y-75300525D01*
X156941832Y-75157000D01*
X160558168Y-75157000D01*
X160343368Y-75300525D01*
G36*
X140023368Y-75300525D02*
G01*
X139816525Y-75507368D01*
X139654010Y-75750589D01*
X139542068Y-76020842D01*
X139485000Y-76307740D01*
X139485000Y-76600260D01*
X139542068Y-76887158D01*
X139654010Y-77157411D01*
X139816525Y-77400632D01*
X140023368Y-77607475D01*
X140197760Y-77724000D01*
X140023368Y-77840525D01*
X139816525Y-78047368D01*
X139700000Y-78221760D01*
X139583475Y-78047368D01*
X139376632Y-77840525D01*
X139133411Y-77678010D01*
X138863158Y-77566068D01*
X138576260Y-77509000D01*
X138283740Y-77509000D01*
X137996842Y-77566068D01*
X137726589Y-77678010D01*
X137483368Y-77840525D01*
X137276525Y-78047368D01*
X137160000Y-78221760D01*
X137043475Y-78047368D01*
X136836632Y-77840525D01*
X136662240Y-77724000D01*
X136836632Y-77607475D01*
X137043475Y-77400632D01*
X137205990Y-77157411D01*
X137317932Y-76887158D01*
X137375000Y-76600260D01*
X137375000Y-76307740D01*
X137317932Y-76020842D01*
X137205990Y-75750589D01*
X137043475Y-75507368D01*
X136836632Y-75300525D01*
X136621832Y-75157000D01*
X140238168Y-75157000D01*
X140023368Y-75300525D01*
X140023368Y-75300525D01*
G37*
X140023368Y-75300525D02*
X139816525Y-75507368D01*
X139654010Y-75750589D01*
X139542068Y-76020842D01*
X139485000Y-76307740D01*
X139485000Y-76600260D01*
X139542068Y-76887158D01*
X139654010Y-77157411D01*
X139816525Y-77400632D01*
X140023368Y-77607475D01*
X140197760Y-77724000D01*
X140023368Y-77840525D01*
X139816525Y-78047368D01*
X139700000Y-78221760D01*
X139583475Y-78047368D01*
X139376632Y-77840525D01*
X139133411Y-77678010D01*
X138863158Y-77566068D01*
X138576260Y-77509000D01*
X138283740Y-77509000D01*
X137996842Y-77566068D01*
X137726589Y-77678010D01*
X137483368Y-77840525D01*
X137276525Y-78047368D01*
X137160000Y-78221760D01*
X137043475Y-78047368D01*
X136836632Y-77840525D01*
X136662240Y-77724000D01*
X136836632Y-77607475D01*
X137043475Y-77400632D01*
X137205990Y-77157411D01*
X137317932Y-76887158D01*
X137375000Y-76600260D01*
X137375000Y-76307740D01*
X137317932Y-76020842D01*
X137205990Y-75750589D01*
X137043475Y-75507368D01*
X136836632Y-75300525D01*
X136621832Y-75157000D01*
X140238168Y-75157000D01*
X140023368Y-75300525D01*
M02*
