G04 #@! TF.GenerationSoftware,KiCad,Pcbnew,(5.0.2)-1*
G04 #@! TF.CreationDate,2019-02-28T16:47:17-06:00*
G04 #@! TF.ProjectId,RaspberryPiBreakout_Hardware,52617370-6265-4727-9279-506942726561,rev?*
G04 #@! TF.SameCoordinates,Original*
G04 #@! TF.FileFunction,Legend,Top*
G04 #@! TF.FilePolarity,Positive*
%FSLAX46Y46*%
G04 Gerber Fmt 4.6, Leading zero omitted, Abs format (unit mm)*
G04 Created by KiCad (PCBNEW (5.0.2)-1) date 2/28/2019 4:47:17 PM*
%MOMM*%
%LPD*%
G01*
G04 APERTURE LIST*
%ADD10C,0.300000*%
%ADD11C,0.120000*%
%ADD12C,0.150000*%
%ADD13C,0.010000*%
G04 APERTURE END LIST*
D10*
X80657285Y-134013571D02*
X80157285Y-133299285D01*
X79800142Y-134013571D02*
X79800142Y-132513571D01*
X80371571Y-132513571D01*
X80514428Y-132585000D01*
X80585857Y-132656428D01*
X80657285Y-132799285D01*
X80657285Y-133013571D01*
X80585857Y-133156428D01*
X80514428Y-133227857D01*
X80371571Y-133299285D01*
X79800142Y-133299285D01*
X81943000Y-134013571D02*
X81943000Y-133227857D01*
X81871571Y-133085000D01*
X81728714Y-133013571D01*
X81443000Y-133013571D01*
X81300142Y-133085000D01*
X81943000Y-133942142D02*
X81800142Y-134013571D01*
X81443000Y-134013571D01*
X81300142Y-133942142D01*
X81228714Y-133799285D01*
X81228714Y-133656428D01*
X81300142Y-133513571D01*
X81443000Y-133442142D01*
X81800142Y-133442142D01*
X81943000Y-133370714D01*
X82585857Y-133942142D02*
X82728714Y-134013571D01*
X83014428Y-134013571D01*
X83157285Y-133942142D01*
X83228714Y-133799285D01*
X83228714Y-133727857D01*
X83157285Y-133585000D01*
X83014428Y-133513571D01*
X82800142Y-133513571D01*
X82657285Y-133442142D01*
X82585857Y-133299285D01*
X82585857Y-133227857D01*
X82657285Y-133085000D01*
X82800142Y-133013571D01*
X83014428Y-133013571D01*
X83157285Y-133085000D01*
X83871571Y-133013571D02*
X83871571Y-134513571D01*
X83871571Y-133085000D02*
X84014428Y-133013571D01*
X84300142Y-133013571D01*
X84443000Y-133085000D01*
X84514428Y-133156428D01*
X84585857Y-133299285D01*
X84585857Y-133727857D01*
X84514428Y-133870714D01*
X84443000Y-133942142D01*
X84300142Y-134013571D01*
X84014428Y-134013571D01*
X83871571Y-133942142D01*
X85228714Y-134013571D02*
X85228714Y-132513571D01*
X85228714Y-133085000D02*
X85371571Y-133013571D01*
X85657285Y-133013571D01*
X85800142Y-133085000D01*
X85871571Y-133156428D01*
X85943000Y-133299285D01*
X85943000Y-133727857D01*
X85871571Y-133870714D01*
X85800142Y-133942142D01*
X85657285Y-134013571D01*
X85371571Y-134013571D01*
X85228714Y-133942142D01*
X87157285Y-133942142D02*
X87014428Y-134013571D01*
X86728714Y-134013571D01*
X86585857Y-133942142D01*
X86514428Y-133799285D01*
X86514428Y-133227857D01*
X86585857Y-133085000D01*
X86728714Y-133013571D01*
X87014428Y-133013571D01*
X87157285Y-133085000D01*
X87228714Y-133227857D01*
X87228714Y-133370714D01*
X86514428Y-133513571D01*
X87871571Y-134013571D02*
X87871571Y-133013571D01*
X87871571Y-133299285D02*
X87943000Y-133156428D01*
X88014428Y-133085000D01*
X88157285Y-133013571D01*
X88300142Y-133013571D01*
X88800142Y-134013571D02*
X88800142Y-133013571D01*
X88800142Y-133299285D02*
X88871571Y-133156428D01*
X88943000Y-133085000D01*
X89085857Y-133013571D01*
X89228714Y-133013571D01*
X89585857Y-133013571D02*
X89943000Y-134013571D01*
X90300142Y-133013571D02*
X89943000Y-134013571D01*
X89800142Y-134370714D01*
X89728714Y-134442142D01*
X89585857Y-134513571D01*
X92014428Y-134013571D02*
X92014428Y-132513571D01*
X92585857Y-132513571D01*
X92728714Y-132585000D01*
X92800142Y-132656428D01*
X92871571Y-132799285D01*
X92871571Y-133013571D01*
X92800142Y-133156428D01*
X92728714Y-133227857D01*
X92585857Y-133299285D01*
X92014428Y-133299285D01*
X93514428Y-134013571D02*
X93514428Y-133013571D01*
X93514428Y-132513571D02*
X93443000Y-132585000D01*
X93514428Y-132656428D01*
X93585857Y-132585000D01*
X93514428Y-132513571D01*
X93514428Y-132656428D01*
X95871571Y-133227857D02*
X96085857Y-133299285D01*
X96157285Y-133370714D01*
X96228714Y-133513571D01*
X96228714Y-133727857D01*
X96157285Y-133870714D01*
X96085857Y-133942142D01*
X95943000Y-134013571D01*
X95371571Y-134013571D01*
X95371571Y-132513571D01*
X95871571Y-132513571D01*
X96014428Y-132585000D01*
X96085857Y-132656428D01*
X96157285Y-132799285D01*
X96157285Y-132942142D01*
X96085857Y-133085000D01*
X96014428Y-133156428D01*
X95871571Y-133227857D01*
X95371571Y-133227857D01*
X96871571Y-134013571D02*
X96871571Y-133013571D01*
X96871571Y-133299285D02*
X96943000Y-133156428D01*
X97014428Y-133085000D01*
X97157285Y-133013571D01*
X97300142Y-133013571D01*
X98371571Y-133942142D02*
X98228714Y-134013571D01*
X97943000Y-134013571D01*
X97800142Y-133942142D01*
X97728714Y-133799285D01*
X97728714Y-133227857D01*
X97800142Y-133085000D01*
X97943000Y-133013571D01*
X98228714Y-133013571D01*
X98371571Y-133085000D01*
X98443000Y-133227857D01*
X98443000Y-133370714D01*
X97728714Y-133513571D01*
X99728714Y-134013571D02*
X99728714Y-133227857D01*
X99657285Y-133085000D01*
X99514428Y-133013571D01*
X99228714Y-133013571D01*
X99085857Y-133085000D01*
X99728714Y-133942142D02*
X99585857Y-134013571D01*
X99228714Y-134013571D01*
X99085857Y-133942142D01*
X99014428Y-133799285D01*
X99014428Y-133656428D01*
X99085857Y-133513571D01*
X99228714Y-133442142D01*
X99585857Y-133442142D01*
X99728714Y-133370714D01*
X100443000Y-134013571D02*
X100443000Y-132513571D01*
X100585857Y-133442142D02*
X101014428Y-134013571D01*
X101014428Y-133013571D02*
X100443000Y-133585000D01*
X101871571Y-134013571D02*
X101728714Y-133942142D01*
X101657285Y-133870714D01*
X101585857Y-133727857D01*
X101585857Y-133299285D01*
X101657285Y-133156428D01*
X101728714Y-133085000D01*
X101871571Y-133013571D01*
X102085857Y-133013571D01*
X102228714Y-133085000D01*
X102300142Y-133156428D01*
X102371571Y-133299285D01*
X102371571Y-133727857D01*
X102300142Y-133870714D01*
X102228714Y-133942142D01*
X102085857Y-134013571D01*
X101871571Y-134013571D01*
X103657285Y-133013571D02*
X103657285Y-134013571D01*
X103014428Y-133013571D02*
X103014428Y-133799285D01*
X103085857Y-133942142D01*
X103228714Y-134013571D01*
X103443000Y-134013571D01*
X103585857Y-133942142D01*
X103657285Y-133870714D01*
X104157285Y-133013571D02*
X104728714Y-133013571D01*
X104371571Y-132513571D02*
X104371571Y-133799285D01*
X104443000Y-133942142D01*
X104585857Y-134013571D01*
X104728714Y-134013571D01*
X105300142Y-133942142D02*
X105300142Y-134013571D01*
X105228714Y-134156428D01*
X105157285Y-134227857D01*
X107943000Y-134013571D02*
X107443000Y-133299285D01*
X107085857Y-134013571D02*
X107085857Y-132513571D01*
X107657285Y-132513571D01*
X107800142Y-132585000D01*
X107871571Y-132656428D01*
X107943000Y-132799285D01*
X107943000Y-133013571D01*
X107871571Y-133156428D01*
X107800142Y-133227857D01*
X107657285Y-133299285D01*
X107085857Y-133299285D01*
X109157285Y-133942142D02*
X109014428Y-134013571D01*
X108728714Y-134013571D01*
X108585857Y-133942142D01*
X108514428Y-133799285D01*
X108514428Y-133227857D01*
X108585857Y-133085000D01*
X108728714Y-133013571D01*
X109014428Y-133013571D01*
X109157285Y-133085000D01*
X109228714Y-133227857D01*
X109228714Y-133370714D01*
X108514428Y-133513571D01*
X109728714Y-133013571D02*
X110085857Y-134013571D01*
X110443000Y-133013571D01*
X112943000Y-134013571D02*
X112085857Y-134013571D01*
X112514428Y-134013571D02*
X112514428Y-132513571D01*
X112371571Y-132727857D01*
X112228714Y-132870714D01*
X112085857Y-132942142D01*
X79800142Y-136563571D02*
X79800142Y-135063571D01*
X80300142Y-136135000D01*
X80800142Y-135063571D01*
X80800142Y-136563571D01*
X82157285Y-136563571D02*
X82157285Y-135777857D01*
X82085857Y-135635000D01*
X81943000Y-135563571D01*
X81657285Y-135563571D01*
X81514428Y-135635000D01*
X82157285Y-136492142D02*
X82014428Y-136563571D01*
X81657285Y-136563571D01*
X81514428Y-136492142D01*
X81443000Y-136349285D01*
X81443000Y-136206428D01*
X81514428Y-136063571D01*
X81657285Y-135992142D01*
X82014428Y-135992142D01*
X82157285Y-135920714D01*
X82871571Y-136563571D02*
X82871571Y-135563571D01*
X82871571Y-135849285D02*
X82943000Y-135706428D01*
X83014428Y-135635000D01*
X83157285Y-135563571D01*
X83300142Y-135563571D01*
X83728714Y-136492142D02*
X83871571Y-136563571D01*
X84157285Y-136563571D01*
X84300142Y-136492142D01*
X84371571Y-136349285D01*
X84371571Y-136277857D01*
X84300142Y-136135000D01*
X84157285Y-136063571D01*
X83943000Y-136063571D01*
X83800142Y-135992142D01*
X83728714Y-135849285D01*
X83728714Y-135777857D01*
X83800142Y-135635000D01*
X83943000Y-135563571D01*
X84157285Y-135563571D01*
X84300142Y-135635000D01*
X87014428Y-136563571D02*
X86514428Y-135849285D01*
X86157285Y-136563571D02*
X86157285Y-135063571D01*
X86728714Y-135063571D01*
X86871571Y-135135000D01*
X86943000Y-135206428D01*
X87014428Y-135349285D01*
X87014428Y-135563571D01*
X86943000Y-135706428D01*
X86871571Y-135777857D01*
X86728714Y-135849285D01*
X86157285Y-135849285D01*
X87871571Y-136563571D02*
X87728714Y-136492142D01*
X87657285Y-136420714D01*
X87585857Y-136277857D01*
X87585857Y-135849285D01*
X87657285Y-135706428D01*
X87728714Y-135635000D01*
X87871571Y-135563571D01*
X88085857Y-135563571D01*
X88228714Y-135635000D01*
X88300142Y-135706428D01*
X88371571Y-135849285D01*
X88371571Y-136277857D01*
X88300142Y-136420714D01*
X88228714Y-136492142D01*
X88085857Y-136563571D01*
X87871571Y-136563571D01*
X88871571Y-135563571D02*
X89228714Y-136563571D01*
X89585857Y-135563571D01*
X90728714Y-136492142D02*
X90585857Y-136563571D01*
X90300142Y-136563571D01*
X90157285Y-136492142D01*
X90085857Y-136349285D01*
X90085857Y-135777857D01*
X90157285Y-135635000D01*
X90300142Y-135563571D01*
X90585857Y-135563571D01*
X90728714Y-135635000D01*
X90800142Y-135777857D01*
X90800142Y-135920714D01*
X90085857Y-136063571D01*
X91443000Y-136563571D02*
X91443000Y-135563571D01*
X91443000Y-135849285D02*
X91514428Y-135706428D01*
X91585857Y-135635000D01*
X91728714Y-135563571D01*
X91871571Y-135563571D01*
X93514428Y-136563571D02*
X93514428Y-135063571D01*
X93871571Y-135063571D01*
X94085857Y-135135000D01*
X94228714Y-135277857D01*
X94300142Y-135420714D01*
X94371571Y-135706428D01*
X94371571Y-135920714D01*
X94300142Y-136206428D01*
X94228714Y-136349285D01*
X94085857Y-136492142D01*
X93871571Y-136563571D01*
X93514428Y-136563571D01*
X95585857Y-136492142D02*
X95443000Y-136563571D01*
X95157285Y-136563571D01*
X95014428Y-136492142D01*
X94943000Y-136349285D01*
X94943000Y-135777857D01*
X95014428Y-135635000D01*
X95157285Y-135563571D01*
X95443000Y-135563571D01*
X95585857Y-135635000D01*
X95657285Y-135777857D01*
X95657285Y-135920714D01*
X94943000Y-136063571D01*
X96228714Y-136492142D02*
X96371571Y-136563571D01*
X96657285Y-136563571D01*
X96800142Y-136492142D01*
X96871571Y-136349285D01*
X96871571Y-136277857D01*
X96800142Y-136135000D01*
X96657285Y-136063571D01*
X96443000Y-136063571D01*
X96300142Y-135992142D01*
X96228714Y-135849285D01*
X96228714Y-135777857D01*
X96300142Y-135635000D01*
X96443000Y-135563571D01*
X96657285Y-135563571D01*
X96800142Y-135635000D01*
X97514428Y-136563571D02*
X97514428Y-135563571D01*
X97514428Y-135063571D02*
X97443000Y-135135000D01*
X97514428Y-135206428D01*
X97585857Y-135135000D01*
X97514428Y-135063571D01*
X97514428Y-135206428D01*
X98871571Y-135563571D02*
X98871571Y-136777857D01*
X98800142Y-136920714D01*
X98728714Y-136992142D01*
X98585857Y-137063571D01*
X98371571Y-137063571D01*
X98228714Y-136992142D01*
X98871571Y-136492142D02*
X98728714Y-136563571D01*
X98443000Y-136563571D01*
X98300142Y-136492142D01*
X98228714Y-136420714D01*
X98157285Y-136277857D01*
X98157285Y-135849285D01*
X98228714Y-135706428D01*
X98300142Y-135635000D01*
X98443000Y-135563571D01*
X98728714Y-135563571D01*
X98871571Y-135635000D01*
X99585857Y-135563571D02*
X99585857Y-136563571D01*
X99585857Y-135706428D02*
X99657285Y-135635000D01*
X99800142Y-135563571D01*
X100014428Y-135563571D01*
X100157285Y-135635000D01*
X100228714Y-135777857D01*
X100228714Y-136563571D01*
X101871571Y-135063571D02*
X102728714Y-135063571D01*
X102300142Y-136563571D02*
X102300142Y-135063571D01*
X103800142Y-136492142D02*
X103657285Y-136563571D01*
X103371571Y-136563571D01*
X103228714Y-136492142D01*
X103157285Y-136349285D01*
X103157285Y-135777857D01*
X103228714Y-135635000D01*
X103371571Y-135563571D01*
X103657285Y-135563571D01*
X103800142Y-135635000D01*
X103871571Y-135777857D01*
X103871571Y-135920714D01*
X103157285Y-136063571D01*
X105157285Y-136563571D02*
X105157285Y-135777857D01*
X105085857Y-135635000D01*
X104943000Y-135563571D01*
X104657285Y-135563571D01*
X104514428Y-135635000D01*
X105157285Y-136492142D02*
X105014428Y-136563571D01*
X104657285Y-136563571D01*
X104514428Y-136492142D01*
X104443000Y-136349285D01*
X104443000Y-136206428D01*
X104514428Y-136063571D01*
X104657285Y-135992142D01*
X105014428Y-135992142D01*
X105157285Y-135920714D01*
X105871571Y-136563571D02*
X105871571Y-135563571D01*
X105871571Y-135706428D02*
X105943000Y-135635000D01*
X106085857Y-135563571D01*
X106300142Y-135563571D01*
X106443000Y-135635000D01*
X106514428Y-135777857D01*
X106514428Y-136563571D01*
X106514428Y-135777857D02*
X106585857Y-135635000D01*
X106728714Y-135563571D01*
X106943000Y-135563571D01*
X107085857Y-135635000D01*
X107157285Y-135777857D01*
X107157285Y-136563571D01*
X79800142Y-139113571D02*
X79800142Y-137613571D01*
X80300142Y-138685000D01*
X80800142Y-137613571D01*
X80800142Y-139113571D01*
X81514428Y-139113571D02*
X81514428Y-138113571D01*
X81514428Y-137613571D02*
X81443000Y-137685000D01*
X81514428Y-137756428D01*
X81585857Y-137685000D01*
X81514428Y-137613571D01*
X81514428Y-137756428D01*
X82157285Y-139042142D02*
X82300142Y-139113571D01*
X82585857Y-139113571D01*
X82728714Y-139042142D01*
X82800142Y-138899285D01*
X82800142Y-138827857D01*
X82728714Y-138685000D01*
X82585857Y-138613571D01*
X82371571Y-138613571D01*
X82228714Y-138542142D01*
X82157285Y-138399285D01*
X82157285Y-138327857D01*
X82228714Y-138185000D01*
X82371571Y-138113571D01*
X82585857Y-138113571D01*
X82728714Y-138185000D01*
X83371571Y-139042142D02*
X83514428Y-139113571D01*
X83800142Y-139113571D01*
X83943000Y-139042142D01*
X84014428Y-138899285D01*
X84014428Y-138827857D01*
X83943000Y-138685000D01*
X83800142Y-138613571D01*
X83585857Y-138613571D01*
X83443000Y-138542142D01*
X83371571Y-138399285D01*
X83371571Y-138327857D01*
X83443000Y-138185000D01*
X83585857Y-138113571D01*
X83800142Y-138113571D01*
X83943000Y-138185000D01*
X84871571Y-139113571D02*
X84728714Y-139042142D01*
X84657285Y-138970714D01*
X84585857Y-138827857D01*
X84585857Y-138399285D01*
X84657285Y-138256428D01*
X84728714Y-138185000D01*
X84871571Y-138113571D01*
X85085857Y-138113571D01*
X85228714Y-138185000D01*
X85300142Y-138256428D01*
X85371571Y-138399285D01*
X85371571Y-138827857D01*
X85300142Y-138970714D01*
X85228714Y-139042142D01*
X85085857Y-139113571D01*
X84871571Y-139113571D01*
X86657285Y-138113571D02*
X86657285Y-139113571D01*
X86014428Y-138113571D02*
X86014428Y-138899285D01*
X86085857Y-139042142D01*
X86228714Y-139113571D01*
X86443000Y-139113571D01*
X86585857Y-139042142D01*
X86657285Y-138970714D01*
X87371571Y-139113571D02*
X87371571Y-138113571D01*
X87371571Y-138399285D02*
X87443000Y-138256428D01*
X87514428Y-138185000D01*
X87657285Y-138113571D01*
X87800142Y-138113571D01*
X88300142Y-139113571D02*
X88300142Y-138113571D01*
X88300142Y-137613571D02*
X88228714Y-137685000D01*
X88300142Y-137756428D01*
X88371571Y-137685000D01*
X88300142Y-137613571D01*
X88300142Y-137756428D01*
X90085857Y-139042142D02*
X90300142Y-139113571D01*
X90657285Y-139113571D01*
X90800142Y-139042142D01*
X90871571Y-138970714D01*
X90943000Y-138827857D01*
X90943000Y-138685000D01*
X90871571Y-138542142D01*
X90800142Y-138470714D01*
X90657285Y-138399285D01*
X90371571Y-138327857D01*
X90228714Y-138256428D01*
X90157285Y-138185000D01*
X90085857Y-138042142D01*
X90085857Y-137899285D01*
X90157285Y-137756428D01*
X90228714Y-137685000D01*
X90371571Y-137613571D01*
X90728714Y-137613571D01*
X90943000Y-137685000D01*
X92800142Y-139113571D02*
X92728714Y-139113571D01*
X92585857Y-139042142D01*
X92371571Y-138827857D01*
X92014428Y-138399285D01*
X91871571Y-138185000D01*
X91800142Y-137970714D01*
X91800142Y-137827857D01*
X91871571Y-137685000D01*
X92014428Y-137613571D01*
X92085857Y-137613571D01*
X92228714Y-137685000D01*
X92300142Y-137827857D01*
X92300142Y-137899285D01*
X92228714Y-138042142D01*
X92157285Y-138113571D01*
X91728714Y-138399285D01*
X91657285Y-138470714D01*
X91585857Y-138613571D01*
X91585857Y-138827857D01*
X91657285Y-138970714D01*
X91728714Y-139042142D01*
X91871571Y-139113571D01*
X92085857Y-139113571D01*
X92228714Y-139042142D01*
X92300142Y-138970714D01*
X92514428Y-138685000D01*
X92585857Y-138470714D01*
X92585857Y-138327857D01*
X93228714Y-137613571D02*
X94085857Y-137613571D01*
X93657285Y-139113571D02*
X93657285Y-137613571D01*
X94657285Y-139042142D02*
X94657285Y-139113571D01*
X94585857Y-139256428D01*
X94514428Y-139327857D01*
X96371571Y-137756428D02*
X96443000Y-137685000D01*
X96585857Y-137613571D01*
X96943000Y-137613571D01*
X97085857Y-137685000D01*
X97157285Y-137756428D01*
X97228714Y-137899285D01*
X97228714Y-138042142D01*
X97157285Y-138256428D01*
X96300142Y-139113571D01*
X97228714Y-139113571D01*
X98157285Y-137613571D02*
X98300142Y-137613571D01*
X98443000Y-137685000D01*
X98514428Y-137756428D01*
X98585857Y-137899285D01*
X98657285Y-138185000D01*
X98657285Y-138542142D01*
X98585857Y-138827857D01*
X98514428Y-138970714D01*
X98443000Y-139042142D01*
X98300142Y-139113571D01*
X98157285Y-139113571D01*
X98014428Y-139042142D01*
X97943000Y-138970714D01*
X97871571Y-138827857D01*
X97800142Y-138542142D01*
X97800142Y-138185000D01*
X97871571Y-137899285D01*
X97943000Y-137756428D01*
X98014428Y-137685000D01*
X98157285Y-137613571D01*
X100085857Y-139113571D02*
X99228714Y-139113571D01*
X99657285Y-139113571D02*
X99657285Y-137613571D01*
X99514428Y-137827857D01*
X99371571Y-137970714D01*
X99228714Y-138042142D01*
X100800142Y-139113571D02*
X101085857Y-139113571D01*
X101228714Y-139042142D01*
X101300142Y-138970714D01*
X101443000Y-138756428D01*
X101514428Y-138470714D01*
X101514428Y-137899285D01*
X101443000Y-137756428D01*
X101371571Y-137685000D01*
X101228714Y-137613571D01*
X100943000Y-137613571D01*
X100800142Y-137685000D01*
X100728714Y-137756428D01*
X100657285Y-137899285D01*
X100657285Y-138256428D01*
X100728714Y-138399285D01*
X100800142Y-138470714D01*
X100943000Y-138542142D01*
X101228714Y-138542142D01*
X101371571Y-138470714D01*
X101443000Y-138399285D01*
X101514428Y-138256428D01*
X79728714Y-141235000D02*
X80443000Y-141235000D01*
X79585857Y-141663571D02*
X80085857Y-140163571D01*
X80585857Y-141663571D01*
X81085857Y-140663571D02*
X81085857Y-141663571D01*
X81085857Y-140806428D02*
X81157285Y-140735000D01*
X81300142Y-140663571D01*
X81514428Y-140663571D01*
X81657285Y-140735000D01*
X81728714Y-140877857D01*
X81728714Y-141663571D01*
X83085857Y-141663571D02*
X83085857Y-140163571D01*
X83085857Y-141592142D02*
X82943000Y-141663571D01*
X82657285Y-141663571D01*
X82514428Y-141592142D01*
X82443000Y-141520714D01*
X82371571Y-141377857D01*
X82371571Y-140949285D01*
X82443000Y-140806428D01*
X82514428Y-140735000D01*
X82657285Y-140663571D01*
X82943000Y-140663571D01*
X83085857Y-140735000D01*
X83800142Y-141663571D02*
X83800142Y-140663571D01*
X83800142Y-140949285D02*
X83871571Y-140806428D01*
X83943000Y-140735000D01*
X84085857Y-140663571D01*
X84228714Y-140663571D01*
X85300142Y-141592142D02*
X85157285Y-141663571D01*
X84871571Y-141663571D01*
X84728714Y-141592142D01*
X84657285Y-141449285D01*
X84657285Y-140877857D01*
X84728714Y-140735000D01*
X84871571Y-140663571D01*
X85157285Y-140663571D01*
X85300142Y-140735000D01*
X85371571Y-140877857D01*
X85371571Y-141020714D01*
X84657285Y-141163571D01*
X85871571Y-140663571D02*
X86157285Y-141663571D01*
X86443000Y-140949285D01*
X86728714Y-141663571D01*
X87014428Y-140663571D01*
X88514428Y-140163571D02*
X89014428Y-141663571D01*
X89514428Y-140163571D01*
X90657285Y-141663571D02*
X90657285Y-140877857D01*
X90585857Y-140735000D01*
X90443000Y-140663571D01*
X90157285Y-140663571D01*
X90014428Y-140735000D01*
X90657285Y-141592142D02*
X90514428Y-141663571D01*
X90157285Y-141663571D01*
X90014428Y-141592142D01*
X89943000Y-141449285D01*
X89943000Y-141306428D01*
X90014428Y-141163571D01*
X90157285Y-141092142D01*
X90514428Y-141092142D01*
X90657285Y-141020714D01*
X91371571Y-140663571D02*
X91371571Y-141663571D01*
X91371571Y-140806428D02*
X91443000Y-140735000D01*
X91585857Y-140663571D01*
X91800142Y-140663571D01*
X91943000Y-140735000D01*
X92014428Y-140877857D01*
X92014428Y-141663571D01*
X93871571Y-141663571D02*
X93871571Y-140163571D01*
X93871571Y-140877857D02*
X94728714Y-140877857D01*
X94728714Y-141663571D02*
X94728714Y-140163571D01*
X95657285Y-141663571D02*
X95514428Y-141592142D01*
X95443000Y-141520714D01*
X95371571Y-141377857D01*
X95371571Y-140949285D01*
X95443000Y-140806428D01*
X95514428Y-140735000D01*
X95657285Y-140663571D01*
X95871571Y-140663571D01*
X96014428Y-140735000D01*
X96085857Y-140806428D01*
X96157285Y-140949285D01*
X96157285Y-141377857D01*
X96085857Y-141520714D01*
X96014428Y-141592142D01*
X95871571Y-141663571D01*
X95657285Y-141663571D01*
X96800142Y-141663571D02*
X96800142Y-140663571D01*
X96800142Y-140949285D02*
X96871571Y-140806428D01*
X96943000Y-140735000D01*
X97085857Y-140663571D01*
X97228714Y-140663571D01*
X97728714Y-140663571D02*
X97728714Y-141663571D01*
X97728714Y-140806428D02*
X97800142Y-140735000D01*
X97943000Y-140663571D01*
X98157285Y-140663571D01*
X98300142Y-140735000D01*
X98371571Y-140877857D01*
X98371571Y-141663571D01*
X144494285Y-107128571D02*
X143780000Y-107128571D01*
X143708571Y-107842857D01*
X143780000Y-107771428D01*
X143922857Y-107700000D01*
X144280000Y-107700000D01*
X144422857Y-107771428D01*
X144494285Y-107842857D01*
X144565714Y-107985714D01*
X144565714Y-108342857D01*
X144494285Y-108485714D01*
X144422857Y-108557142D01*
X144280000Y-108628571D01*
X143922857Y-108628571D01*
X143780000Y-108557142D01*
X143708571Y-108485714D01*
X144994285Y-107128571D02*
X145494285Y-108628571D01*
X145994285Y-107128571D01*
D11*
G04 #@! TO.C,C1*
X156970000Y-111983733D02*
X156970000Y-112326267D01*
X157990000Y-111983733D02*
X157990000Y-112326267D01*
G04 #@! TO.C,C2*
X157990000Y-116616267D02*
X157990000Y-116273733D01*
X156970000Y-116616267D02*
X156970000Y-116273733D01*
D12*
G04 #@! TO.C,Conn1*
X183515000Y-122428000D02*
X171221400Y-122428000D01*
X195834000Y-122428000D02*
X188087000Y-122428000D01*
X188087000Y-106680000D02*
X195834000Y-106680000D01*
X183515000Y-106680000D02*
X171221400Y-106680000D01*
X186944000Y-114554000D02*
G75*
G03X186944000Y-114554000I-1143000J0D01*
G01*
X185801000Y-116840000D02*
X185801000Y-120116600D01*
X183515000Y-114554000D02*
X171221400Y-114554000D01*
X185801000Y-112268000D02*
X185801000Y-108966000D01*
X183515000Y-114554000D02*
X184658000Y-114554000D01*
X185801000Y-116840000D02*
X185801000Y-115697000D01*
X195834000Y-114579400D02*
X186944000Y-114579400D01*
X185801000Y-112268000D02*
X185801000Y-113411000D01*
X185801000Y-121285000D02*
X185801000Y-120116600D01*
X183540400Y-122428000D02*
X184632600Y-122428000D01*
X188112400Y-106680000D02*
X186944000Y-106680000D01*
X185801000Y-108991400D02*
X185801000Y-107823000D01*
X183489600Y-106680000D02*
X184683400Y-106680000D01*
X186944000Y-122428000D02*
G75*
G03X185801000Y-121285000I-1143000J0D01*
G01*
X185801000Y-121285000D02*
G75*
G03X184658000Y-122428000I0J-1143000D01*
G01*
X186944000Y-122428000D02*
X188163200Y-122428000D01*
X171221400Y-122428000D02*
X171221400Y-106680000D01*
X195859400Y-122428000D02*
X195859400Y-106680000D01*
X185801000Y-107797600D02*
G75*
G03X186918600Y-106680000I0J1117600D01*
G01*
X184683400Y-106680000D02*
G75*
G03X185801000Y-107797600I1117600J0D01*
G01*
G04 #@! TO.C,U1*
X137160000Y-109220000D02*
X153670000Y-109220000D01*
X153670000Y-119380000D02*
X137160000Y-119380000D01*
X153670000Y-109220000D02*
X153670000Y-119380000D01*
X137160000Y-109220000D02*
X137160000Y-119380000D01*
X149860000Y-111760000D02*
X149860000Y-116840000D01*
X147320000Y-109220000D02*
X149860000Y-111760000D01*
X142240000Y-109220000D02*
X147320000Y-109220000D01*
X139700000Y-111760000D02*
X142240000Y-109220000D01*
X139700000Y-116840000D02*
X139700000Y-111760000D01*
X142240000Y-119380000D02*
X139700000Y-116840000D01*
X147320000Y-119380000D02*
X142240000Y-119380000D01*
X149860000Y-116840000D02*
X147320000Y-119380000D01*
D13*
G04 #@! TO.C,G\002A\002A\002A*
G36*
X114085925Y-83559712D02*
X114282447Y-83588056D01*
X114442454Y-83634573D01*
X114466860Y-83645141D01*
X114564808Y-83690531D01*
X114474737Y-83675294D01*
X114161257Y-83640137D01*
X113867633Y-83642478D01*
X113607203Y-83682172D01*
X113596450Y-83684841D01*
X113292969Y-83784643D01*
X112976722Y-83934192D01*
X112646630Y-84134367D01*
X112301613Y-84386045D01*
X111940593Y-84690105D01*
X111562492Y-85047424D01*
X111166230Y-85458881D01*
X110750730Y-85925354D01*
X110543685Y-86169604D01*
X110351869Y-86401268D01*
X110168616Y-86627176D01*
X109991057Y-86851478D01*
X109816317Y-87078325D01*
X109641527Y-87311869D01*
X109463813Y-87556261D01*
X109280305Y-87815651D01*
X109088131Y-88094192D01*
X108884419Y-88396034D01*
X108666297Y-88725329D01*
X108430894Y-89086228D01*
X108175338Y-89482881D01*
X107896758Y-89919441D01*
X107592280Y-90400057D01*
X107336407Y-90805901D01*
X106752914Y-91746826D01*
X106191699Y-92679616D01*
X105661785Y-93589214D01*
X105528420Y-93823276D01*
X105407894Y-94034748D01*
X105268260Y-94277970D01*
X105121014Y-94533029D01*
X104977650Y-94780013D01*
X104851861Y-94995268D01*
X104726572Y-95210040D01*
X104589137Y-95447887D01*
X104450163Y-95690304D01*
X104320257Y-95918787D01*
X104210027Y-96114829D01*
X104206500Y-96121155D01*
X104111434Y-96291425D01*
X104021248Y-96452415D01*
X103941941Y-96593457D01*
X103879516Y-96703878D01*
X103839970Y-96773010D01*
X103838725Y-96775150D01*
X103763200Y-96904802D01*
X103646642Y-96595008D01*
X103585509Y-96441795D01*
X103509504Y-96265831D01*
X103422441Y-96074597D01*
X103328133Y-95875573D01*
X103230393Y-95676239D01*
X103133034Y-95484077D01*
X103039868Y-95306565D01*
X102954710Y-95151186D01*
X102881372Y-95025418D01*
X102823666Y-94936743D01*
X102785406Y-94892641D01*
X102777094Y-94889116D01*
X102756921Y-94914217D01*
X102713616Y-94983823D01*
X102652174Y-95089385D01*
X102577592Y-95222356D01*
X102509524Y-95346976D01*
X102399614Y-95549715D01*
X102281757Y-95765729D01*
X102159541Y-95988565D01*
X102036557Y-96211772D01*
X101916394Y-96428897D01*
X101802641Y-96633489D01*
X101698887Y-96819096D01*
X101608721Y-96979265D01*
X101535734Y-97107544D01*
X101483514Y-97197483D01*
X101455651Y-97242627D01*
X101453087Y-97245971D01*
X101451005Y-97232792D01*
X101466964Y-97173598D01*
X101497931Y-97078601D01*
X101528901Y-96990771D01*
X101604116Y-96784106D01*
X101687723Y-96556125D01*
X101777333Y-96313193D01*
X101870557Y-96061675D01*
X101965004Y-95807935D01*
X102058285Y-95558339D01*
X102148011Y-95319251D01*
X102231791Y-95097038D01*
X102307236Y-94898063D01*
X102371956Y-94728692D01*
X102423562Y-94595290D01*
X102459663Y-94504222D01*
X102477869Y-94461853D01*
X102479157Y-94459778D01*
X102504481Y-94471519D01*
X102551978Y-94524075D01*
X102612554Y-94607001D01*
X102629434Y-94632414D01*
X102692058Y-94724971D01*
X102743101Y-94793868D01*
X102773427Y-94826947D01*
X102776550Y-94828210D01*
X102795559Y-94802651D01*
X102838295Y-94731530D01*
X102900483Y-94622404D01*
X102977851Y-94482830D01*
X103066126Y-94320367D01*
X103110789Y-94237087D01*
X103215970Y-94041251D01*
X103341899Y-93808557D01*
X103480082Y-93554595D01*
X103622024Y-93294952D01*
X103759229Y-93045217D01*
X103842512Y-92894387D01*
X103963405Y-92675601D01*
X104105415Y-92417982D01*
X104260910Y-92135416D01*
X104422255Y-91841789D01*
X104581819Y-91550984D01*
X104731967Y-91276887D01*
X104784313Y-91181196D01*
X105027594Y-90739800D01*
X105266553Y-90313116D01*
X105498601Y-89905486D01*
X105721150Y-89521254D01*
X105931611Y-89164760D01*
X106127396Y-88840349D01*
X106305916Y-88552362D01*
X106464583Y-88305143D01*
X106600809Y-88103033D01*
X106703703Y-87961171D01*
X106847832Y-87787382D01*
X106976376Y-87662429D01*
X107087204Y-87587503D01*
X107178185Y-87563793D01*
X107247191Y-87592488D01*
X107279256Y-87639819D01*
X107308979Y-87720020D01*
X107314094Y-87767171D01*
X107297179Y-87773467D01*
X107260810Y-87731104D01*
X107253136Y-87718925D01*
X107195200Y-87648555D01*
X107141373Y-87628887D01*
X107140660Y-87629015D01*
X107084235Y-87665030D01*
X107006089Y-87754963D01*
X106907170Y-87897130D01*
X106788429Y-88089845D01*
X106650814Y-88331423D01*
X106495275Y-88620180D01*
X106322761Y-88954430D01*
X106134223Y-89332489D01*
X105930609Y-89752672D01*
X105857944Y-89905191D01*
X105786381Y-90057681D01*
X105699035Y-90246567D01*
X105598103Y-90466908D01*
X105485784Y-90713764D01*
X105364275Y-90982192D01*
X105235774Y-91267252D01*
X105102479Y-91564002D01*
X104966587Y-91867501D01*
X104830297Y-92172809D01*
X104695805Y-92474983D01*
X104565311Y-92769083D01*
X104441011Y-93050167D01*
X104325103Y-93313295D01*
X104219785Y-93553525D01*
X104127255Y-93765915D01*
X104049711Y-93945525D01*
X103989351Y-94087414D01*
X103948371Y-94186639D01*
X103928971Y-94238261D01*
X103927834Y-94244617D01*
X103946215Y-94223134D01*
X103993285Y-94158395D01*
X104064388Y-94057085D01*
X104154868Y-93925886D01*
X104260068Y-93771482D01*
X104341759Y-93650517D01*
X104477938Y-93449403D01*
X104639162Y-93213422D01*
X104821315Y-92948453D01*
X105020283Y-92660374D01*
X105231949Y-92355066D01*
X105452199Y-92038407D01*
X105676917Y-91716278D01*
X105901988Y-91394558D01*
X106123297Y-91079126D01*
X106336728Y-90775862D01*
X106538168Y-90490645D01*
X106723499Y-90229355D01*
X106888607Y-89997871D01*
X107029377Y-89802073D01*
X107141694Y-89647839D01*
X107173380Y-89604955D01*
X107721447Y-88876184D01*
X108244115Y-88200098D01*
X108742516Y-87575517D01*
X109217785Y-87001257D01*
X109671054Y-86476139D01*
X110103456Y-85998980D01*
X110516125Y-85568598D01*
X110910194Y-85183811D01*
X111286796Y-84843439D01*
X111647064Y-84546300D01*
X111992133Y-84291211D01*
X112323134Y-84076991D01*
X112641202Y-83902459D01*
X112643295Y-83901419D01*
X112880388Y-83788266D01*
X113082180Y-83703323D01*
X113263453Y-83641672D01*
X113438986Y-83598393D01*
X113623563Y-83568569D01*
X113655273Y-83564675D01*
X113870873Y-83551324D01*
X114085925Y-83559712D01*
X114085925Y-83559712D01*
G37*
X114085925Y-83559712D02*
X114282447Y-83588056D01*
X114442454Y-83634573D01*
X114466860Y-83645141D01*
X114564808Y-83690531D01*
X114474737Y-83675294D01*
X114161257Y-83640137D01*
X113867633Y-83642478D01*
X113607203Y-83682172D01*
X113596450Y-83684841D01*
X113292969Y-83784643D01*
X112976722Y-83934192D01*
X112646630Y-84134367D01*
X112301613Y-84386045D01*
X111940593Y-84690105D01*
X111562492Y-85047424D01*
X111166230Y-85458881D01*
X110750730Y-85925354D01*
X110543685Y-86169604D01*
X110351869Y-86401268D01*
X110168616Y-86627176D01*
X109991057Y-86851478D01*
X109816317Y-87078325D01*
X109641527Y-87311869D01*
X109463813Y-87556261D01*
X109280305Y-87815651D01*
X109088131Y-88094192D01*
X108884419Y-88396034D01*
X108666297Y-88725329D01*
X108430894Y-89086228D01*
X108175338Y-89482881D01*
X107896758Y-89919441D01*
X107592280Y-90400057D01*
X107336407Y-90805901D01*
X106752914Y-91746826D01*
X106191699Y-92679616D01*
X105661785Y-93589214D01*
X105528420Y-93823276D01*
X105407894Y-94034748D01*
X105268260Y-94277970D01*
X105121014Y-94533029D01*
X104977650Y-94780013D01*
X104851861Y-94995268D01*
X104726572Y-95210040D01*
X104589137Y-95447887D01*
X104450163Y-95690304D01*
X104320257Y-95918787D01*
X104210027Y-96114829D01*
X104206500Y-96121155D01*
X104111434Y-96291425D01*
X104021248Y-96452415D01*
X103941941Y-96593457D01*
X103879516Y-96703878D01*
X103839970Y-96773010D01*
X103838725Y-96775150D01*
X103763200Y-96904802D01*
X103646642Y-96595008D01*
X103585509Y-96441795D01*
X103509504Y-96265831D01*
X103422441Y-96074597D01*
X103328133Y-95875573D01*
X103230393Y-95676239D01*
X103133034Y-95484077D01*
X103039868Y-95306565D01*
X102954710Y-95151186D01*
X102881372Y-95025418D01*
X102823666Y-94936743D01*
X102785406Y-94892641D01*
X102777094Y-94889116D01*
X102756921Y-94914217D01*
X102713616Y-94983823D01*
X102652174Y-95089385D01*
X102577592Y-95222356D01*
X102509524Y-95346976D01*
X102399614Y-95549715D01*
X102281757Y-95765729D01*
X102159541Y-95988565D01*
X102036557Y-96211772D01*
X101916394Y-96428897D01*
X101802641Y-96633489D01*
X101698887Y-96819096D01*
X101608721Y-96979265D01*
X101535734Y-97107544D01*
X101483514Y-97197483D01*
X101455651Y-97242627D01*
X101453087Y-97245971D01*
X101451005Y-97232792D01*
X101466964Y-97173598D01*
X101497931Y-97078601D01*
X101528901Y-96990771D01*
X101604116Y-96784106D01*
X101687723Y-96556125D01*
X101777333Y-96313193D01*
X101870557Y-96061675D01*
X101965004Y-95807935D01*
X102058285Y-95558339D01*
X102148011Y-95319251D01*
X102231791Y-95097038D01*
X102307236Y-94898063D01*
X102371956Y-94728692D01*
X102423562Y-94595290D01*
X102459663Y-94504222D01*
X102477869Y-94461853D01*
X102479157Y-94459778D01*
X102504481Y-94471519D01*
X102551978Y-94524075D01*
X102612554Y-94607001D01*
X102629434Y-94632414D01*
X102692058Y-94724971D01*
X102743101Y-94793868D01*
X102773427Y-94826947D01*
X102776550Y-94828210D01*
X102795559Y-94802651D01*
X102838295Y-94731530D01*
X102900483Y-94622404D01*
X102977851Y-94482830D01*
X103066126Y-94320367D01*
X103110789Y-94237087D01*
X103215970Y-94041251D01*
X103341899Y-93808557D01*
X103480082Y-93554595D01*
X103622024Y-93294952D01*
X103759229Y-93045217D01*
X103842512Y-92894387D01*
X103963405Y-92675601D01*
X104105415Y-92417982D01*
X104260910Y-92135416D01*
X104422255Y-91841789D01*
X104581819Y-91550984D01*
X104731967Y-91276887D01*
X104784313Y-91181196D01*
X105027594Y-90739800D01*
X105266553Y-90313116D01*
X105498601Y-89905486D01*
X105721150Y-89521254D01*
X105931611Y-89164760D01*
X106127396Y-88840349D01*
X106305916Y-88552362D01*
X106464583Y-88305143D01*
X106600809Y-88103033D01*
X106703703Y-87961171D01*
X106847832Y-87787382D01*
X106976376Y-87662429D01*
X107087204Y-87587503D01*
X107178185Y-87563793D01*
X107247191Y-87592488D01*
X107279256Y-87639819D01*
X107308979Y-87720020D01*
X107314094Y-87767171D01*
X107297179Y-87773467D01*
X107260810Y-87731104D01*
X107253136Y-87718925D01*
X107195200Y-87648555D01*
X107141373Y-87628887D01*
X107140660Y-87629015D01*
X107084235Y-87665030D01*
X107006089Y-87754963D01*
X106907170Y-87897130D01*
X106788429Y-88089845D01*
X106650814Y-88331423D01*
X106495275Y-88620180D01*
X106322761Y-88954430D01*
X106134223Y-89332489D01*
X105930609Y-89752672D01*
X105857944Y-89905191D01*
X105786381Y-90057681D01*
X105699035Y-90246567D01*
X105598103Y-90466908D01*
X105485784Y-90713764D01*
X105364275Y-90982192D01*
X105235774Y-91267252D01*
X105102479Y-91564002D01*
X104966587Y-91867501D01*
X104830297Y-92172809D01*
X104695805Y-92474983D01*
X104565311Y-92769083D01*
X104441011Y-93050167D01*
X104325103Y-93313295D01*
X104219785Y-93553525D01*
X104127255Y-93765915D01*
X104049711Y-93945525D01*
X103989351Y-94087414D01*
X103948371Y-94186639D01*
X103928971Y-94238261D01*
X103927834Y-94244617D01*
X103946215Y-94223134D01*
X103993285Y-94158395D01*
X104064388Y-94057085D01*
X104154868Y-93925886D01*
X104260068Y-93771482D01*
X104341759Y-93650517D01*
X104477938Y-93449403D01*
X104639162Y-93213422D01*
X104821315Y-92948453D01*
X105020283Y-92660374D01*
X105231949Y-92355066D01*
X105452199Y-92038407D01*
X105676917Y-91716278D01*
X105901988Y-91394558D01*
X106123297Y-91079126D01*
X106336728Y-90775862D01*
X106538168Y-90490645D01*
X106723499Y-90229355D01*
X106888607Y-89997871D01*
X107029377Y-89802073D01*
X107141694Y-89647839D01*
X107173380Y-89604955D01*
X107721447Y-88876184D01*
X108244115Y-88200098D01*
X108742516Y-87575517D01*
X109217785Y-87001257D01*
X109671054Y-86476139D01*
X110103456Y-85998980D01*
X110516125Y-85568598D01*
X110910194Y-85183811D01*
X111286796Y-84843439D01*
X111647064Y-84546300D01*
X111992133Y-84291211D01*
X112323134Y-84076991D01*
X112641202Y-83902459D01*
X112643295Y-83901419D01*
X112880388Y-83788266D01*
X113082180Y-83703323D01*
X113263453Y-83641672D01*
X113438986Y-83598393D01*
X113623563Y-83568569D01*
X113655273Y-83564675D01*
X113870873Y-83551324D01*
X114085925Y-83559712D01*
G36*
X101429466Y-97306019D02*
X101414454Y-97321031D01*
X101399442Y-97306019D01*
X101414454Y-97291007D01*
X101429466Y-97306019D01*
X101429466Y-97306019D01*
G37*
X101429466Y-97306019D02*
X101414454Y-97321031D01*
X101399442Y-97306019D01*
X101414454Y-97291007D01*
X101429466Y-97306019D01*
G36*
X104246269Y-90253315D02*
X104230547Y-90289503D01*
X104179416Y-90366482D01*
X104150081Y-90408018D01*
X104095205Y-90489021D01*
X104041438Y-90577931D01*
X103985406Y-90681860D01*
X103923736Y-90807918D01*
X103853053Y-90963213D01*
X103769984Y-91154857D01*
X103671155Y-91389959D01*
X103583169Y-91602706D01*
X103508340Y-91786403D01*
X103416050Y-92015999D01*
X103310301Y-92281309D01*
X103195093Y-92572152D01*
X103074429Y-92878343D01*
X102952309Y-93189701D01*
X102832734Y-93496041D01*
X102719706Y-93787182D01*
X102617226Y-94052940D01*
X102529294Y-94283132D01*
X102511798Y-94329316D01*
X102479389Y-94415024D01*
X102310985Y-94184425D01*
X102236527Y-94088016D01*
X102173654Y-94016840D01*
X102131066Y-93980219D01*
X102118950Y-93978622D01*
X102102149Y-94009274D01*
X102061539Y-94089474D01*
X101999351Y-94214661D01*
X101917816Y-94380275D01*
X101819165Y-94581757D01*
X101705628Y-94814546D01*
X101579437Y-95074082D01*
X101442822Y-95355805D01*
X101298014Y-95655156D01*
X101240226Y-95774813D01*
X100907527Y-96463626D01*
X100598801Y-97101942D01*
X100312227Y-97693488D01*
X100045981Y-98241991D01*
X99798240Y-98751178D01*
X99567183Y-99224775D01*
X99350986Y-99666509D01*
X99147827Y-100080107D01*
X98955883Y-100469297D01*
X98773330Y-100837804D01*
X98598347Y-101189355D01*
X98429111Y-101527678D01*
X98332778Y-101719494D01*
X98202215Y-101980634D01*
X98090725Y-102205124D01*
X97994344Y-102398118D01*
X97909107Y-102564770D01*
X97831047Y-102710237D01*
X97756201Y-102839672D01*
X97680603Y-102958229D01*
X97600288Y-103071064D01*
X97511290Y-103183331D01*
X97409645Y-103300185D01*
X97291388Y-103426780D01*
X97152552Y-103568272D01*
X96989175Y-103729814D01*
X96797289Y-103916561D01*
X96572930Y-104133668D01*
X96312133Y-104386290D01*
X96190340Y-104504649D01*
X95970659Y-104719604D01*
X95755736Y-104932153D01*
X95551178Y-105136597D01*
X95362595Y-105327234D01*
X95195592Y-105498365D01*
X95055780Y-105644287D01*
X94948764Y-105759302D01*
X94886472Y-105830064D01*
X94717057Y-106029260D01*
X94511623Y-106264800D01*
X94276177Y-106530139D01*
X94016729Y-106818734D01*
X93739285Y-107124041D01*
X93449856Y-107439516D01*
X93154449Y-107758616D01*
X92859072Y-108074796D01*
X92569734Y-108381512D01*
X92292443Y-108672221D01*
X92033207Y-108940379D01*
X91990788Y-108983842D01*
X91847321Y-109131031D01*
X91719222Y-109263254D01*
X91612028Y-109374730D01*
X91531274Y-109459678D01*
X91482498Y-109512318D01*
X91470252Y-109527324D01*
X91507155Y-109540472D01*
X91590766Y-109564527D01*
X91709379Y-109596505D01*
X91851282Y-109633420D01*
X92004768Y-109672289D01*
X92158127Y-109710126D01*
X92299650Y-109743948D01*
X92417628Y-109770768D01*
X92463208Y-109780433D01*
X92656030Y-109816791D01*
X92796163Y-109835940D01*
X92888337Y-109838230D01*
X92937285Y-109824013D01*
X92944533Y-109816129D01*
X92973218Y-109787829D01*
X93038123Y-109731583D01*
X93128356Y-109656677D01*
X93194000Y-109603524D01*
X93428165Y-109415679D01*
X93191224Y-109639155D01*
X92954283Y-109862632D01*
X93056118Y-109880857D01*
X93236617Y-109906964D01*
X93452959Y-109928113D01*
X93696944Y-109944361D01*
X93960377Y-109955771D01*
X94235061Y-109962401D01*
X94512797Y-109964312D01*
X94785389Y-109961563D01*
X95044640Y-109954216D01*
X95282352Y-109942329D01*
X95490328Y-109925962D01*
X95660372Y-109905177D01*
X95784285Y-109880032D01*
X95837975Y-109860493D01*
X95872306Y-109825070D01*
X95933069Y-109742746D01*
X96017027Y-109618826D01*
X96120940Y-109458613D01*
X96241573Y-109267411D01*
X96375687Y-109050526D01*
X96520044Y-108813261D01*
X96671407Y-108560920D01*
X96826537Y-108298808D01*
X96982197Y-108032229D01*
X97135149Y-107766487D01*
X97282155Y-107506887D01*
X97361913Y-107363938D01*
X97488475Y-107139606D01*
X97624403Y-106905396D01*
X97761773Y-106674501D01*
X97892662Y-106460115D01*
X98009143Y-106275431D01*
X98083201Y-106162993D01*
X98194003Y-105993806D01*
X98322683Y-105788252D01*
X98459111Y-105563079D01*
X98593155Y-105335035D01*
X98714686Y-105120867D01*
X98726845Y-105098893D01*
X98876054Y-104835288D01*
X99022780Y-104591655D01*
X99177576Y-104351616D01*
X99350999Y-104098793D01*
X99549161Y-103822888D01*
X99973509Y-103229996D01*
X100374504Y-102644221D01*
X100761470Y-102051116D01*
X101143728Y-101436236D01*
X101530600Y-100785132D01*
X101710372Y-100473513D01*
X101818246Y-100288146D01*
X101916409Y-100128141D01*
X102013710Y-99980959D01*
X102118996Y-99834062D01*
X102241116Y-99674913D01*
X102388918Y-99490974D01*
X102494315Y-99362638D01*
X102639778Y-99186192D01*
X102784467Y-99010192D01*
X102920180Y-98844654D01*
X103038711Y-98699596D01*
X103131856Y-98585033D01*
X103170628Y-98536988D01*
X103263939Y-98422040D01*
X103382081Y-98278307D01*
X103511018Y-98122776D01*
X103636716Y-97972434D01*
X103657498Y-97947728D01*
X103759843Y-97823805D01*
X103846685Y-97714095D01*
X103911242Y-97627532D01*
X103946729Y-97573049D01*
X103951451Y-97560658D01*
X103943442Y-97515572D01*
X103922831Y-97433635D01*
X103894748Y-97332493D01*
X103864320Y-97229794D01*
X103836676Y-97143185D01*
X103816945Y-97090315D01*
X103812563Y-97082714D01*
X103786348Y-97094871D01*
X103730014Y-97139487D01*
X103660150Y-97202809D01*
X103590862Y-97265247D01*
X103558426Y-97285936D01*
X103564715Y-97263714D01*
X103566369Y-97260983D01*
X103608345Y-97187996D01*
X103659985Y-97092136D01*
X103680359Y-97052738D01*
X103721331Y-96975724D01*
X103746459Y-96945819D01*
X103766244Y-96956173D01*
X103783481Y-96985462D01*
X103799639Y-97010028D01*
X103820047Y-97018446D01*
X103852422Y-97005892D01*
X103904480Y-96967538D01*
X103983941Y-96898561D01*
X104098522Y-96794134D01*
X104117787Y-96776428D01*
X104457604Y-96466613D01*
X104760338Y-96196413D01*
X105030463Y-95962098D01*
X105272450Y-95759938D01*
X105490771Y-95586201D01*
X105689901Y-95437159D01*
X105874310Y-95309080D01*
X105887976Y-95300014D01*
X106132396Y-95148669D01*
X106341546Y-95040936D01*
X106514386Y-94977181D01*
X106649875Y-94957776D01*
X106746974Y-94983087D01*
X106758662Y-94991145D01*
X106790713Y-95019219D01*
X106784746Y-95032929D01*
X106732065Y-95037620D01*
X106681975Y-95038279D01*
X106548123Y-95058131D01*
X106415317Y-95121659D01*
X106409403Y-95125379D01*
X106304244Y-95199680D01*
X106168045Y-95307118D01*
X106011871Y-95438018D01*
X105846788Y-95582708D01*
X105683862Y-95731512D01*
X105534160Y-95874757D01*
X105422610Y-95988045D01*
X105329967Y-96086797D01*
X105212607Y-96213405D01*
X105076691Y-96361081D01*
X104928380Y-96523037D01*
X104773834Y-96692487D01*
X104619213Y-96862644D01*
X104470678Y-97026720D01*
X104334390Y-97177928D01*
X104216509Y-97309482D01*
X104123195Y-97414593D01*
X104060609Y-97486475D01*
X104040078Y-97511200D01*
X103973904Y-97595327D01*
X104055109Y-97961075D01*
X104121815Y-98278755D01*
X104173683Y-98569493D01*
X104212675Y-98850260D01*
X104240754Y-99138032D01*
X104259883Y-99449781D01*
X104272024Y-99802482D01*
X104273050Y-99845933D01*
X104276813Y-100334029D01*
X104263729Y-100779584D01*
X104232242Y-101198122D01*
X104180797Y-101605171D01*
X104107836Y-102016256D01*
X104012795Y-102442818D01*
X103804967Y-103174668D01*
X103542230Y-103884816D01*
X103226700Y-104570377D01*
X102860491Y-105228467D01*
X102445717Y-105856200D01*
X101984493Y-106450693D01*
X101478933Y-107009061D01*
X100931152Y-107528418D01*
X100343264Y-108005881D01*
X99717384Y-108438565D01*
X99534819Y-108551783D01*
X98911742Y-108897676D01*
X98259962Y-109200249D01*
X97589466Y-109455741D01*
X96910240Y-109660388D01*
X96232273Y-109810428D01*
X96160317Y-109823075D01*
X96002490Y-109855200D01*
X95900655Y-109888334D01*
X95851537Y-109922675D01*
X95824301Y-109961513D01*
X95768193Y-110042410D01*
X95688345Y-110157934D01*
X95589891Y-110300654D01*
X95477963Y-110463137D01*
X95389651Y-110591480D01*
X95060166Y-111059248D01*
X94750214Y-111475272D01*
X94456415Y-111843312D01*
X94175387Y-112167125D01*
X93903750Y-112450473D01*
X93638124Y-112697113D01*
X93375127Y-112910806D01*
X93176645Y-113052338D01*
X93001714Y-113159146D01*
X92800332Y-113265003D01*
X92591602Y-113361066D01*
X92394626Y-113438495D01*
X92240698Y-113485551D01*
X91994482Y-113529265D01*
X91728053Y-113548705D01*
X91467582Y-113542972D01*
X91275675Y-113518644D01*
X90919882Y-113420712D01*
X90578889Y-113264696D01*
X90253154Y-113050821D01*
X90140399Y-112960285D01*
X90053367Y-112892510D01*
X89982522Y-112857330D01*
X89901977Y-112844498D01*
X89844731Y-112843253D01*
X89442378Y-112819672D01*
X89034119Y-112751572D01*
X88937025Y-112725220D01*
X91155850Y-112725220D01*
X91197415Y-112751291D01*
X91236440Y-112763478D01*
X91293385Y-112770029D01*
X91391881Y-112773240D01*
X91513499Y-112772633D01*
X91551688Y-112771637D01*
X91726825Y-112758992D01*
X91871340Y-112729901D01*
X91995401Y-112686509D01*
X92198348Y-112593845D01*
X92379971Y-112487730D01*
X92556463Y-112357040D01*
X92744015Y-112190653D01*
X92810506Y-112126591D01*
X92908629Y-112028842D01*
X92981561Y-111952778D01*
X93023899Y-111904335D01*
X93030240Y-111889446D01*
X93022846Y-111893331D01*
X92712525Y-112086066D01*
X92444390Y-112239763D01*
X92216156Y-112355729D01*
X92205233Y-112360800D01*
X92044111Y-112429860D01*
X91859580Y-112500433D01*
X91668331Y-112566908D01*
X91487057Y-112623671D01*
X91332449Y-112665108D01*
X91251078Y-112681665D01*
X91173847Y-112701396D01*
X91155850Y-112725220D01*
X88937025Y-112725220D01*
X88633783Y-112642918D01*
X88255204Y-112497677D01*
X87912213Y-112319811D01*
X87822826Y-112263646D01*
X87719439Y-112203491D01*
X87617815Y-112156736D01*
X87558544Y-112138025D01*
X87480368Y-112114800D01*
X87370493Y-112072848D01*
X87250769Y-112020608D01*
X87233307Y-112012405D01*
X86993131Y-111865643D01*
X86992741Y-111865277D01*
X89916525Y-111865277D01*
X89926484Y-111889080D01*
X89954548Y-111921264D01*
X89961171Y-111928315D01*
X89998732Y-111965354D01*
X90036060Y-111988253D01*
X90084766Y-111997363D01*
X90156460Y-111993034D01*
X90262752Y-111975616D01*
X90415254Y-111945460D01*
X90430002Y-111942466D01*
X90552694Y-111915109D01*
X90693255Y-111879917D01*
X90840819Y-111840103D01*
X90984519Y-111798882D01*
X91113488Y-111759467D01*
X91216861Y-111725072D01*
X91283770Y-111698911D01*
X91303350Y-111684198D01*
X91303327Y-111684175D01*
X91270854Y-111684051D01*
X91193671Y-111693165D01*
X91086090Y-111709702D01*
X91040268Y-111717545D01*
X90909286Y-111737473D01*
X90740430Y-111758724D01*
X90555748Y-111778721D01*
X90381804Y-111794523D01*
X90196882Y-111809615D01*
X90064850Y-111822024D01*
X89978751Y-111833962D01*
X89931628Y-111847642D01*
X89916525Y-111865277D01*
X86992741Y-111865277D01*
X86784879Y-111670221D01*
X86610563Y-111429543D01*
X86472191Y-111147015D01*
X86371774Y-110826039D01*
X86311320Y-110470023D01*
X86308877Y-110446309D01*
X86287752Y-110317204D01*
X86250650Y-110164114D01*
X86205232Y-110018253D01*
X86200805Y-110006019D01*
X86083286Y-109644309D01*
X86068165Y-109585688D01*
X86653228Y-109585688D01*
X86666325Y-109800438D01*
X86679595Y-109931212D01*
X86706619Y-110038430D01*
X86756036Y-110150610D01*
X86793670Y-110220769D01*
X87049150Y-110634004D01*
X87326533Y-110992978D01*
X87627729Y-111300048D01*
X87753697Y-111407573D01*
X87933839Y-111553508D01*
X88128993Y-111534899D01*
X88230648Y-111523666D01*
X88305651Y-111512488D01*
X88336656Y-111504240D01*
X88343089Y-111496156D01*
X88337358Y-111485496D01*
X88310026Y-111465577D01*
X88251654Y-111429716D01*
X88152803Y-111371228D01*
X88128993Y-111357198D01*
X87800854Y-111136094D01*
X87506212Y-110877550D01*
X87240268Y-110576215D01*
X86998228Y-110226742D01*
X86802462Y-109877613D01*
X86653228Y-109585688D01*
X86068165Y-109585688D01*
X85976480Y-109230246D01*
X85881832Y-108770801D01*
X85800786Y-108272948D01*
X85737544Y-107769258D01*
X85723749Y-107612057D01*
X85712175Y-107420791D01*
X85702885Y-107204567D01*
X85695943Y-106972495D01*
X85691413Y-106733683D01*
X85689358Y-106497239D01*
X85689842Y-106272272D01*
X85692929Y-106067890D01*
X85698683Y-105893202D01*
X85707167Y-105757316D01*
X85718446Y-105669341D01*
X85722722Y-105652591D01*
X85739271Y-105607172D01*
X85748465Y-105604872D01*
X85752890Y-105651755D01*
X85754715Y-105727650D01*
X85764463Y-105966187D01*
X85785472Y-106249455D01*
X85815966Y-106563569D01*
X85854172Y-106894644D01*
X85898312Y-107228796D01*
X85946613Y-107552140D01*
X85997297Y-107850793D01*
X86048590Y-108110868D01*
X86073425Y-108220084D01*
X86119298Y-108402938D01*
X86167919Y-108583279D01*
X86216511Y-108752183D01*
X86262297Y-108900724D01*
X86302500Y-109019978D01*
X86334342Y-109101018D01*
X86355048Y-109134921D01*
X86358102Y-109135022D01*
X86385680Y-109086420D01*
X86399466Y-108990946D01*
X86399479Y-108860165D01*
X86385744Y-108705641D01*
X86358282Y-108538940D01*
X86356948Y-108532420D01*
X86313457Y-108308646D01*
X86278118Y-108094464D01*
X86250092Y-107879679D01*
X86228545Y-107654099D01*
X86212640Y-107407529D01*
X86201542Y-107129777D01*
X86194413Y-106810650D01*
X86190922Y-106508265D01*
X86186243Y-105923559D01*
X86359067Y-105923559D01*
X86361951Y-106040222D01*
X86367907Y-106185483D01*
X86376412Y-106348919D01*
X86386946Y-106520106D01*
X86398984Y-106688623D01*
X86412006Y-106844045D01*
X86420274Y-106928596D01*
X86436953Y-107069521D01*
X86459113Y-107231117D01*
X86484783Y-107401596D01*
X86511993Y-107569170D01*
X86538771Y-107722051D01*
X86563145Y-107848451D01*
X86583144Y-107936582D01*
X86594702Y-107971672D01*
X86610913Y-107959479D01*
X86640648Y-107899342D01*
X86679844Y-107800735D01*
X86724438Y-107673128D01*
X86729924Y-107656424D01*
X86797469Y-107454996D01*
X86857873Y-107285849D01*
X86908850Y-107154734D01*
X86948114Y-107067403D01*
X86973382Y-107029608D01*
X86978963Y-107029551D01*
X86977954Y-107062059D01*
X86965994Y-107141580D01*
X86945067Y-107256489D01*
X86917154Y-107395161D01*
X86914340Y-107408535D01*
X86876005Y-107597826D01*
X86835176Y-107812017D01*
X86797790Y-108019418D01*
X86778556Y-108133076D01*
X86720107Y-108491345D01*
X86811341Y-108753292D01*
X86887683Y-108954161D01*
X86982085Y-109174429D01*
X87086595Y-109397553D01*
X87193264Y-109606988D01*
X87294141Y-109786191D01*
X87350457Y-109875107D01*
X87493629Y-110064724D01*
X87667371Y-110260060D01*
X87853480Y-110442212D01*
X88033753Y-110592278D01*
X88058729Y-110610541D01*
X88149598Y-110670292D01*
X88261498Y-110736125D01*
X88382438Y-110801975D01*
X88500428Y-110861779D01*
X88603477Y-110909473D01*
X88679595Y-110938993D01*
X88716791Y-110944276D01*
X88717520Y-110943693D01*
X88711993Y-110912480D01*
X88686031Y-110841217D01*
X88644917Y-110744116D01*
X88635783Y-110723819D01*
X88547142Y-110519831D01*
X88447428Y-110275657D01*
X88343170Y-110008523D01*
X88240894Y-109735651D01*
X88147129Y-109474266D01*
X88068402Y-109241593D01*
X88039466Y-109150345D01*
X87989432Y-108983101D01*
X87935448Y-108794079D01*
X87879943Y-108592717D01*
X87825348Y-108388451D01*
X87774091Y-108190717D01*
X87728601Y-108008954D01*
X87691310Y-107852597D01*
X87664645Y-107731084D01*
X87651036Y-107653850D01*
X87649800Y-107636736D01*
X87660747Y-107648239D01*
X87691282Y-107709609D01*
X87738825Y-107814905D01*
X87800795Y-107958189D01*
X87874610Y-108133523D01*
X87957689Y-108334967D01*
X88020576Y-108489825D01*
X88152424Y-108813859D01*
X88268349Y-109092060D01*
X88373246Y-109334916D01*
X88472013Y-109552915D01*
X88569547Y-109756547D01*
X88670744Y-109956299D01*
X88780501Y-110162661D01*
X88903716Y-110386121D01*
X88917029Y-110409922D01*
X89036779Y-110622237D01*
X89132296Y-110787213D01*
X89207550Y-110910521D01*
X89266511Y-110997836D01*
X89313149Y-111054829D01*
X89351435Y-111087173D01*
X89385339Y-111100540D01*
X89401339Y-111101882D01*
X89455753Y-111085889D01*
X89545414Y-111042724D01*
X89656346Y-110979609D01*
X89739728Y-110927057D01*
X89862112Y-110842852D01*
X90013678Y-110732783D01*
X90177496Y-110609448D01*
X90336633Y-110485443D01*
X90381016Y-110449926D01*
X90409797Y-110426350D01*
X92152161Y-110426350D01*
X92167172Y-110441362D01*
X92182184Y-110426350D01*
X92167172Y-110411338D01*
X92152161Y-110426350D01*
X90409797Y-110426350D01*
X90440784Y-110400967D01*
X92212208Y-110400967D01*
X92235159Y-110395280D01*
X92303761Y-110351291D01*
X92417642Y-110269265D01*
X92576427Y-110149465D01*
X92656951Y-110087535D01*
X92758062Y-110007220D01*
X92836726Y-109940488D01*
X92883708Y-109895451D01*
X92892488Y-109880665D01*
X92866043Y-109893386D01*
X92803163Y-109935820D01*
X92714201Y-110000045D01*
X92609515Y-110078141D01*
X92499459Y-110162188D01*
X92394390Y-110244266D01*
X92304663Y-110316454D01*
X92240634Y-110370831D01*
X92212658Y-110399478D01*
X92212208Y-110400967D01*
X90440784Y-110400967D01*
X90510243Y-110344070D01*
X90652126Y-110224993D01*
X90799789Y-110098784D01*
X90946359Y-109971530D01*
X91084961Y-109849319D01*
X91208719Y-109738238D01*
X91310760Y-109644376D01*
X91384209Y-109573821D01*
X91422191Y-109532660D01*
X91425625Y-109524876D01*
X91395592Y-109511715D01*
X91320325Y-109482302D01*
X91211015Y-109440924D01*
X91078853Y-109391870D01*
X91072100Y-109389386D01*
X90372814Y-109101617D01*
X89697776Y-108762398D01*
X89051041Y-108374728D01*
X88436663Y-107941602D01*
X87858697Y-107466016D01*
X87321198Y-106950969D01*
X86828219Y-106399455D01*
X86554081Y-106050404D01*
X86478266Y-105950902D01*
X86415738Y-105872638D01*
X86375022Y-105826081D01*
X86364605Y-105817721D01*
X86359778Y-105845918D01*
X86359067Y-105923559D01*
X86186243Y-105923559D01*
X86183112Y-105532496D01*
X85982369Y-105202236D01*
X85615959Y-104542116D01*
X85303122Y-103855429D01*
X85043748Y-103141842D01*
X84837726Y-102401020D01*
X84684944Y-101632631D01*
X84612511Y-101104009D01*
X84598514Y-100936807D01*
X84588135Y-100723387D01*
X84581374Y-100477470D01*
X84578231Y-100212776D01*
X84578707Y-99943026D01*
X84582801Y-99681940D01*
X84590513Y-99443239D01*
X84601844Y-99240643D01*
X84612511Y-99122449D01*
X84730324Y-98333972D01*
X84902164Y-97571679D01*
X85128088Y-96835434D01*
X85408150Y-96125101D01*
X85742408Y-95440543D01*
X86130917Y-94781623D01*
X86573734Y-94148206D01*
X86744879Y-93928359D01*
X86897727Y-93746265D01*
X87083911Y-93538570D01*
X87290805Y-93318315D01*
X87505783Y-93098539D01*
X87716218Y-92892285D01*
X87909485Y-92712591D01*
X87993886Y-92638366D01*
X88597723Y-92159046D01*
X89232617Y-91730663D01*
X89896291Y-91354210D01*
X90586466Y-91030679D01*
X91300866Y-90761063D01*
X92037212Y-90546354D01*
X92793227Y-90387544D01*
X93338094Y-90309568D01*
X93561529Y-90289351D01*
X93827860Y-90274418D01*
X94121505Y-90264891D01*
X94426877Y-90260888D01*
X94728392Y-90262531D01*
X95010466Y-90269941D01*
X95257513Y-90283236D01*
X95379702Y-90293804D01*
X96157227Y-90402675D01*
X96910583Y-90566441D01*
X97640410Y-90785367D01*
X98347349Y-91059717D01*
X99032039Y-91389756D01*
X99695120Y-91775747D01*
X100337232Y-92217956D01*
X100678875Y-92482957D01*
X100809927Y-92593944D01*
X100966242Y-92734595D01*
X101138709Y-92895925D01*
X101318217Y-93068944D01*
X101495656Y-93244664D01*
X101661915Y-93414098D01*
X101807884Y-93568258D01*
X101924452Y-93698155D01*
X101984903Y-93771409D01*
X102048422Y-93850537D01*
X102097266Y-93906568D01*
X102120009Y-93926822D01*
X102136615Y-93901229D01*
X102176793Y-93828205D01*
X102237268Y-93714030D01*
X102314767Y-93564985D01*
X102406014Y-93387349D01*
X102507737Y-93187404D01*
X102577226Y-93049835D01*
X102792684Y-92626516D01*
X102999895Y-92228071D01*
X103197065Y-91857606D01*
X103382398Y-91518230D01*
X103554098Y-91213048D01*
X103710372Y-90945168D01*
X103849422Y-90717696D01*
X103969454Y-90533739D01*
X104068673Y-90396405D01*
X104145283Y-90308799D01*
X104175434Y-90284030D01*
X104227570Y-90253098D01*
X104246269Y-90253315D01*
X104246269Y-90253315D01*
G37*
X104246269Y-90253315D02*
X104230547Y-90289503D01*
X104179416Y-90366482D01*
X104150081Y-90408018D01*
X104095205Y-90489021D01*
X104041438Y-90577931D01*
X103985406Y-90681860D01*
X103923736Y-90807918D01*
X103853053Y-90963213D01*
X103769984Y-91154857D01*
X103671155Y-91389959D01*
X103583169Y-91602706D01*
X103508340Y-91786403D01*
X103416050Y-92015999D01*
X103310301Y-92281309D01*
X103195093Y-92572152D01*
X103074429Y-92878343D01*
X102952309Y-93189701D01*
X102832734Y-93496041D01*
X102719706Y-93787182D01*
X102617226Y-94052940D01*
X102529294Y-94283132D01*
X102511798Y-94329316D01*
X102479389Y-94415024D01*
X102310985Y-94184425D01*
X102236527Y-94088016D01*
X102173654Y-94016840D01*
X102131066Y-93980219D01*
X102118950Y-93978622D01*
X102102149Y-94009274D01*
X102061539Y-94089474D01*
X101999351Y-94214661D01*
X101917816Y-94380275D01*
X101819165Y-94581757D01*
X101705628Y-94814546D01*
X101579437Y-95074082D01*
X101442822Y-95355805D01*
X101298014Y-95655156D01*
X101240226Y-95774813D01*
X100907527Y-96463626D01*
X100598801Y-97101942D01*
X100312227Y-97693488D01*
X100045981Y-98241991D01*
X99798240Y-98751178D01*
X99567183Y-99224775D01*
X99350986Y-99666509D01*
X99147827Y-100080107D01*
X98955883Y-100469297D01*
X98773330Y-100837804D01*
X98598347Y-101189355D01*
X98429111Y-101527678D01*
X98332778Y-101719494D01*
X98202215Y-101980634D01*
X98090725Y-102205124D01*
X97994344Y-102398118D01*
X97909107Y-102564770D01*
X97831047Y-102710237D01*
X97756201Y-102839672D01*
X97680603Y-102958229D01*
X97600288Y-103071064D01*
X97511290Y-103183331D01*
X97409645Y-103300185D01*
X97291388Y-103426780D01*
X97152552Y-103568272D01*
X96989175Y-103729814D01*
X96797289Y-103916561D01*
X96572930Y-104133668D01*
X96312133Y-104386290D01*
X96190340Y-104504649D01*
X95970659Y-104719604D01*
X95755736Y-104932153D01*
X95551178Y-105136597D01*
X95362595Y-105327234D01*
X95195592Y-105498365D01*
X95055780Y-105644287D01*
X94948764Y-105759302D01*
X94886472Y-105830064D01*
X94717057Y-106029260D01*
X94511623Y-106264800D01*
X94276177Y-106530139D01*
X94016729Y-106818734D01*
X93739285Y-107124041D01*
X93449856Y-107439516D01*
X93154449Y-107758616D01*
X92859072Y-108074796D01*
X92569734Y-108381512D01*
X92292443Y-108672221D01*
X92033207Y-108940379D01*
X91990788Y-108983842D01*
X91847321Y-109131031D01*
X91719222Y-109263254D01*
X91612028Y-109374730D01*
X91531274Y-109459678D01*
X91482498Y-109512318D01*
X91470252Y-109527324D01*
X91507155Y-109540472D01*
X91590766Y-109564527D01*
X91709379Y-109596505D01*
X91851282Y-109633420D01*
X92004768Y-109672289D01*
X92158127Y-109710126D01*
X92299650Y-109743948D01*
X92417628Y-109770768D01*
X92463208Y-109780433D01*
X92656030Y-109816791D01*
X92796163Y-109835940D01*
X92888337Y-109838230D01*
X92937285Y-109824013D01*
X92944533Y-109816129D01*
X92973218Y-109787829D01*
X93038123Y-109731583D01*
X93128356Y-109656677D01*
X93194000Y-109603524D01*
X93428165Y-109415679D01*
X93191224Y-109639155D01*
X92954283Y-109862632D01*
X93056118Y-109880857D01*
X93236617Y-109906964D01*
X93452959Y-109928113D01*
X93696944Y-109944361D01*
X93960377Y-109955771D01*
X94235061Y-109962401D01*
X94512797Y-109964312D01*
X94785389Y-109961563D01*
X95044640Y-109954216D01*
X95282352Y-109942329D01*
X95490328Y-109925962D01*
X95660372Y-109905177D01*
X95784285Y-109880032D01*
X95837975Y-109860493D01*
X95872306Y-109825070D01*
X95933069Y-109742746D01*
X96017027Y-109618826D01*
X96120940Y-109458613D01*
X96241573Y-109267411D01*
X96375687Y-109050526D01*
X96520044Y-108813261D01*
X96671407Y-108560920D01*
X96826537Y-108298808D01*
X96982197Y-108032229D01*
X97135149Y-107766487D01*
X97282155Y-107506887D01*
X97361913Y-107363938D01*
X97488475Y-107139606D01*
X97624403Y-106905396D01*
X97761773Y-106674501D01*
X97892662Y-106460115D01*
X98009143Y-106275431D01*
X98083201Y-106162993D01*
X98194003Y-105993806D01*
X98322683Y-105788252D01*
X98459111Y-105563079D01*
X98593155Y-105335035D01*
X98714686Y-105120867D01*
X98726845Y-105098893D01*
X98876054Y-104835288D01*
X99022780Y-104591655D01*
X99177576Y-104351616D01*
X99350999Y-104098793D01*
X99549161Y-103822888D01*
X99973509Y-103229996D01*
X100374504Y-102644221D01*
X100761470Y-102051116D01*
X101143728Y-101436236D01*
X101530600Y-100785132D01*
X101710372Y-100473513D01*
X101818246Y-100288146D01*
X101916409Y-100128141D01*
X102013710Y-99980959D01*
X102118996Y-99834062D01*
X102241116Y-99674913D01*
X102388918Y-99490974D01*
X102494315Y-99362638D01*
X102639778Y-99186192D01*
X102784467Y-99010192D01*
X102920180Y-98844654D01*
X103038711Y-98699596D01*
X103131856Y-98585033D01*
X103170628Y-98536988D01*
X103263939Y-98422040D01*
X103382081Y-98278307D01*
X103511018Y-98122776D01*
X103636716Y-97972434D01*
X103657498Y-97947728D01*
X103759843Y-97823805D01*
X103846685Y-97714095D01*
X103911242Y-97627532D01*
X103946729Y-97573049D01*
X103951451Y-97560658D01*
X103943442Y-97515572D01*
X103922831Y-97433635D01*
X103894748Y-97332493D01*
X103864320Y-97229794D01*
X103836676Y-97143185D01*
X103816945Y-97090315D01*
X103812563Y-97082714D01*
X103786348Y-97094871D01*
X103730014Y-97139487D01*
X103660150Y-97202809D01*
X103590862Y-97265247D01*
X103558426Y-97285936D01*
X103564715Y-97263714D01*
X103566369Y-97260983D01*
X103608345Y-97187996D01*
X103659985Y-97092136D01*
X103680359Y-97052738D01*
X103721331Y-96975724D01*
X103746459Y-96945819D01*
X103766244Y-96956173D01*
X103783481Y-96985462D01*
X103799639Y-97010028D01*
X103820047Y-97018446D01*
X103852422Y-97005892D01*
X103904480Y-96967538D01*
X103983941Y-96898561D01*
X104098522Y-96794134D01*
X104117787Y-96776428D01*
X104457604Y-96466613D01*
X104760338Y-96196413D01*
X105030463Y-95962098D01*
X105272450Y-95759938D01*
X105490771Y-95586201D01*
X105689901Y-95437159D01*
X105874310Y-95309080D01*
X105887976Y-95300014D01*
X106132396Y-95148669D01*
X106341546Y-95040936D01*
X106514386Y-94977181D01*
X106649875Y-94957776D01*
X106746974Y-94983087D01*
X106758662Y-94991145D01*
X106790713Y-95019219D01*
X106784746Y-95032929D01*
X106732065Y-95037620D01*
X106681975Y-95038279D01*
X106548123Y-95058131D01*
X106415317Y-95121659D01*
X106409403Y-95125379D01*
X106304244Y-95199680D01*
X106168045Y-95307118D01*
X106011871Y-95438018D01*
X105846788Y-95582708D01*
X105683862Y-95731512D01*
X105534160Y-95874757D01*
X105422610Y-95988045D01*
X105329967Y-96086797D01*
X105212607Y-96213405D01*
X105076691Y-96361081D01*
X104928380Y-96523037D01*
X104773834Y-96692487D01*
X104619213Y-96862644D01*
X104470678Y-97026720D01*
X104334390Y-97177928D01*
X104216509Y-97309482D01*
X104123195Y-97414593D01*
X104060609Y-97486475D01*
X104040078Y-97511200D01*
X103973904Y-97595327D01*
X104055109Y-97961075D01*
X104121815Y-98278755D01*
X104173683Y-98569493D01*
X104212675Y-98850260D01*
X104240754Y-99138032D01*
X104259883Y-99449781D01*
X104272024Y-99802482D01*
X104273050Y-99845933D01*
X104276813Y-100334029D01*
X104263729Y-100779584D01*
X104232242Y-101198122D01*
X104180797Y-101605171D01*
X104107836Y-102016256D01*
X104012795Y-102442818D01*
X103804967Y-103174668D01*
X103542230Y-103884816D01*
X103226700Y-104570377D01*
X102860491Y-105228467D01*
X102445717Y-105856200D01*
X101984493Y-106450693D01*
X101478933Y-107009061D01*
X100931152Y-107528418D01*
X100343264Y-108005881D01*
X99717384Y-108438565D01*
X99534819Y-108551783D01*
X98911742Y-108897676D01*
X98259962Y-109200249D01*
X97589466Y-109455741D01*
X96910240Y-109660388D01*
X96232273Y-109810428D01*
X96160317Y-109823075D01*
X96002490Y-109855200D01*
X95900655Y-109888334D01*
X95851537Y-109922675D01*
X95824301Y-109961513D01*
X95768193Y-110042410D01*
X95688345Y-110157934D01*
X95589891Y-110300654D01*
X95477963Y-110463137D01*
X95389651Y-110591480D01*
X95060166Y-111059248D01*
X94750214Y-111475272D01*
X94456415Y-111843312D01*
X94175387Y-112167125D01*
X93903750Y-112450473D01*
X93638124Y-112697113D01*
X93375127Y-112910806D01*
X93176645Y-113052338D01*
X93001714Y-113159146D01*
X92800332Y-113265003D01*
X92591602Y-113361066D01*
X92394626Y-113438495D01*
X92240698Y-113485551D01*
X91994482Y-113529265D01*
X91728053Y-113548705D01*
X91467582Y-113542972D01*
X91275675Y-113518644D01*
X90919882Y-113420712D01*
X90578889Y-113264696D01*
X90253154Y-113050821D01*
X90140399Y-112960285D01*
X90053367Y-112892510D01*
X89982522Y-112857330D01*
X89901977Y-112844498D01*
X89844731Y-112843253D01*
X89442378Y-112819672D01*
X89034119Y-112751572D01*
X88937025Y-112725220D01*
X91155850Y-112725220D01*
X91197415Y-112751291D01*
X91236440Y-112763478D01*
X91293385Y-112770029D01*
X91391881Y-112773240D01*
X91513499Y-112772633D01*
X91551688Y-112771637D01*
X91726825Y-112758992D01*
X91871340Y-112729901D01*
X91995401Y-112686509D01*
X92198348Y-112593845D01*
X92379971Y-112487730D01*
X92556463Y-112357040D01*
X92744015Y-112190653D01*
X92810506Y-112126591D01*
X92908629Y-112028842D01*
X92981561Y-111952778D01*
X93023899Y-111904335D01*
X93030240Y-111889446D01*
X93022846Y-111893331D01*
X92712525Y-112086066D01*
X92444390Y-112239763D01*
X92216156Y-112355729D01*
X92205233Y-112360800D01*
X92044111Y-112429860D01*
X91859580Y-112500433D01*
X91668331Y-112566908D01*
X91487057Y-112623671D01*
X91332449Y-112665108D01*
X91251078Y-112681665D01*
X91173847Y-112701396D01*
X91155850Y-112725220D01*
X88937025Y-112725220D01*
X88633783Y-112642918D01*
X88255204Y-112497677D01*
X87912213Y-112319811D01*
X87822826Y-112263646D01*
X87719439Y-112203491D01*
X87617815Y-112156736D01*
X87558544Y-112138025D01*
X87480368Y-112114800D01*
X87370493Y-112072848D01*
X87250769Y-112020608D01*
X87233307Y-112012405D01*
X86993131Y-111865643D01*
X86992741Y-111865277D01*
X89916525Y-111865277D01*
X89926484Y-111889080D01*
X89954548Y-111921264D01*
X89961171Y-111928315D01*
X89998732Y-111965354D01*
X90036060Y-111988253D01*
X90084766Y-111997363D01*
X90156460Y-111993034D01*
X90262752Y-111975616D01*
X90415254Y-111945460D01*
X90430002Y-111942466D01*
X90552694Y-111915109D01*
X90693255Y-111879917D01*
X90840819Y-111840103D01*
X90984519Y-111798882D01*
X91113488Y-111759467D01*
X91216861Y-111725072D01*
X91283770Y-111698911D01*
X91303350Y-111684198D01*
X91303327Y-111684175D01*
X91270854Y-111684051D01*
X91193671Y-111693165D01*
X91086090Y-111709702D01*
X91040268Y-111717545D01*
X90909286Y-111737473D01*
X90740430Y-111758724D01*
X90555748Y-111778721D01*
X90381804Y-111794523D01*
X90196882Y-111809615D01*
X90064850Y-111822024D01*
X89978751Y-111833962D01*
X89931628Y-111847642D01*
X89916525Y-111865277D01*
X86992741Y-111865277D01*
X86784879Y-111670221D01*
X86610563Y-111429543D01*
X86472191Y-111147015D01*
X86371774Y-110826039D01*
X86311320Y-110470023D01*
X86308877Y-110446309D01*
X86287752Y-110317204D01*
X86250650Y-110164114D01*
X86205232Y-110018253D01*
X86200805Y-110006019D01*
X86083286Y-109644309D01*
X86068165Y-109585688D01*
X86653228Y-109585688D01*
X86666325Y-109800438D01*
X86679595Y-109931212D01*
X86706619Y-110038430D01*
X86756036Y-110150610D01*
X86793670Y-110220769D01*
X87049150Y-110634004D01*
X87326533Y-110992978D01*
X87627729Y-111300048D01*
X87753697Y-111407573D01*
X87933839Y-111553508D01*
X88128993Y-111534899D01*
X88230648Y-111523666D01*
X88305651Y-111512488D01*
X88336656Y-111504240D01*
X88343089Y-111496156D01*
X88337358Y-111485496D01*
X88310026Y-111465577D01*
X88251654Y-111429716D01*
X88152803Y-111371228D01*
X88128993Y-111357198D01*
X87800854Y-111136094D01*
X87506212Y-110877550D01*
X87240268Y-110576215D01*
X86998228Y-110226742D01*
X86802462Y-109877613D01*
X86653228Y-109585688D01*
X86068165Y-109585688D01*
X85976480Y-109230246D01*
X85881832Y-108770801D01*
X85800786Y-108272948D01*
X85737544Y-107769258D01*
X85723749Y-107612057D01*
X85712175Y-107420791D01*
X85702885Y-107204567D01*
X85695943Y-106972495D01*
X85691413Y-106733683D01*
X85689358Y-106497239D01*
X85689842Y-106272272D01*
X85692929Y-106067890D01*
X85698683Y-105893202D01*
X85707167Y-105757316D01*
X85718446Y-105669341D01*
X85722722Y-105652591D01*
X85739271Y-105607172D01*
X85748465Y-105604872D01*
X85752890Y-105651755D01*
X85754715Y-105727650D01*
X85764463Y-105966187D01*
X85785472Y-106249455D01*
X85815966Y-106563569D01*
X85854172Y-106894644D01*
X85898312Y-107228796D01*
X85946613Y-107552140D01*
X85997297Y-107850793D01*
X86048590Y-108110868D01*
X86073425Y-108220084D01*
X86119298Y-108402938D01*
X86167919Y-108583279D01*
X86216511Y-108752183D01*
X86262297Y-108900724D01*
X86302500Y-109019978D01*
X86334342Y-109101018D01*
X86355048Y-109134921D01*
X86358102Y-109135022D01*
X86385680Y-109086420D01*
X86399466Y-108990946D01*
X86399479Y-108860165D01*
X86385744Y-108705641D01*
X86358282Y-108538940D01*
X86356948Y-108532420D01*
X86313457Y-108308646D01*
X86278118Y-108094464D01*
X86250092Y-107879679D01*
X86228545Y-107654099D01*
X86212640Y-107407529D01*
X86201542Y-107129777D01*
X86194413Y-106810650D01*
X86190922Y-106508265D01*
X86186243Y-105923559D01*
X86359067Y-105923559D01*
X86361951Y-106040222D01*
X86367907Y-106185483D01*
X86376412Y-106348919D01*
X86386946Y-106520106D01*
X86398984Y-106688623D01*
X86412006Y-106844045D01*
X86420274Y-106928596D01*
X86436953Y-107069521D01*
X86459113Y-107231117D01*
X86484783Y-107401596D01*
X86511993Y-107569170D01*
X86538771Y-107722051D01*
X86563145Y-107848451D01*
X86583144Y-107936582D01*
X86594702Y-107971672D01*
X86610913Y-107959479D01*
X86640648Y-107899342D01*
X86679844Y-107800735D01*
X86724438Y-107673128D01*
X86729924Y-107656424D01*
X86797469Y-107454996D01*
X86857873Y-107285849D01*
X86908850Y-107154734D01*
X86948114Y-107067403D01*
X86973382Y-107029608D01*
X86978963Y-107029551D01*
X86977954Y-107062059D01*
X86965994Y-107141580D01*
X86945067Y-107256489D01*
X86917154Y-107395161D01*
X86914340Y-107408535D01*
X86876005Y-107597826D01*
X86835176Y-107812017D01*
X86797790Y-108019418D01*
X86778556Y-108133076D01*
X86720107Y-108491345D01*
X86811341Y-108753292D01*
X86887683Y-108954161D01*
X86982085Y-109174429D01*
X87086595Y-109397553D01*
X87193264Y-109606988D01*
X87294141Y-109786191D01*
X87350457Y-109875107D01*
X87493629Y-110064724D01*
X87667371Y-110260060D01*
X87853480Y-110442212D01*
X88033753Y-110592278D01*
X88058729Y-110610541D01*
X88149598Y-110670292D01*
X88261498Y-110736125D01*
X88382438Y-110801975D01*
X88500428Y-110861779D01*
X88603477Y-110909473D01*
X88679595Y-110938993D01*
X88716791Y-110944276D01*
X88717520Y-110943693D01*
X88711993Y-110912480D01*
X88686031Y-110841217D01*
X88644917Y-110744116D01*
X88635783Y-110723819D01*
X88547142Y-110519831D01*
X88447428Y-110275657D01*
X88343170Y-110008523D01*
X88240894Y-109735651D01*
X88147129Y-109474266D01*
X88068402Y-109241593D01*
X88039466Y-109150345D01*
X87989432Y-108983101D01*
X87935448Y-108794079D01*
X87879943Y-108592717D01*
X87825348Y-108388451D01*
X87774091Y-108190717D01*
X87728601Y-108008954D01*
X87691310Y-107852597D01*
X87664645Y-107731084D01*
X87651036Y-107653850D01*
X87649800Y-107636736D01*
X87660747Y-107648239D01*
X87691282Y-107709609D01*
X87738825Y-107814905D01*
X87800795Y-107958189D01*
X87874610Y-108133523D01*
X87957689Y-108334967D01*
X88020576Y-108489825D01*
X88152424Y-108813859D01*
X88268349Y-109092060D01*
X88373246Y-109334916D01*
X88472013Y-109552915D01*
X88569547Y-109756547D01*
X88670744Y-109956299D01*
X88780501Y-110162661D01*
X88903716Y-110386121D01*
X88917029Y-110409922D01*
X89036779Y-110622237D01*
X89132296Y-110787213D01*
X89207550Y-110910521D01*
X89266511Y-110997836D01*
X89313149Y-111054829D01*
X89351435Y-111087173D01*
X89385339Y-111100540D01*
X89401339Y-111101882D01*
X89455753Y-111085889D01*
X89545414Y-111042724D01*
X89656346Y-110979609D01*
X89739728Y-110927057D01*
X89862112Y-110842852D01*
X90013678Y-110732783D01*
X90177496Y-110609448D01*
X90336633Y-110485443D01*
X90381016Y-110449926D01*
X90409797Y-110426350D01*
X92152161Y-110426350D01*
X92167172Y-110441362D01*
X92182184Y-110426350D01*
X92167172Y-110411338D01*
X92152161Y-110426350D01*
X90409797Y-110426350D01*
X90440784Y-110400967D01*
X92212208Y-110400967D01*
X92235159Y-110395280D01*
X92303761Y-110351291D01*
X92417642Y-110269265D01*
X92576427Y-110149465D01*
X92656951Y-110087535D01*
X92758062Y-110007220D01*
X92836726Y-109940488D01*
X92883708Y-109895451D01*
X92892488Y-109880665D01*
X92866043Y-109893386D01*
X92803163Y-109935820D01*
X92714201Y-110000045D01*
X92609515Y-110078141D01*
X92499459Y-110162188D01*
X92394390Y-110244266D01*
X92304663Y-110316454D01*
X92240634Y-110370831D01*
X92212658Y-110399478D01*
X92212208Y-110400967D01*
X90440784Y-110400967D01*
X90510243Y-110344070D01*
X90652126Y-110224993D01*
X90799789Y-110098784D01*
X90946359Y-109971530D01*
X91084961Y-109849319D01*
X91208719Y-109738238D01*
X91310760Y-109644376D01*
X91384209Y-109573821D01*
X91422191Y-109532660D01*
X91425625Y-109524876D01*
X91395592Y-109511715D01*
X91320325Y-109482302D01*
X91211015Y-109440924D01*
X91078853Y-109391870D01*
X91072100Y-109389386D01*
X90372814Y-109101617D01*
X89697776Y-108762398D01*
X89051041Y-108374728D01*
X88436663Y-107941602D01*
X87858697Y-107466016D01*
X87321198Y-106950969D01*
X86828219Y-106399455D01*
X86554081Y-106050404D01*
X86478266Y-105950902D01*
X86415738Y-105872638D01*
X86375022Y-105826081D01*
X86364605Y-105817721D01*
X86359778Y-105845918D01*
X86359067Y-105923559D01*
X86186243Y-105923559D01*
X86183112Y-105532496D01*
X85982369Y-105202236D01*
X85615959Y-104542116D01*
X85303122Y-103855429D01*
X85043748Y-103141842D01*
X84837726Y-102401020D01*
X84684944Y-101632631D01*
X84612511Y-101104009D01*
X84598514Y-100936807D01*
X84588135Y-100723387D01*
X84581374Y-100477470D01*
X84578231Y-100212776D01*
X84578707Y-99943026D01*
X84582801Y-99681940D01*
X84590513Y-99443239D01*
X84601844Y-99240643D01*
X84612511Y-99122449D01*
X84730324Y-98333972D01*
X84902164Y-97571679D01*
X85128088Y-96835434D01*
X85408150Y-96125101D01*
X85742408Y-95440543D01*
X86130917Y-94781623D01*
X86573734Y-94148206D01*
X86744879Y-93928359D01*
X86897727Y-93746265D01*
X87083911Y-93538570D01*
X87290805Y-93318315D01*
X87505783Y-93098539D01*
X87716218Y-92892285D01*
X87909485Y-92712591D01*
X87993886Y-92638366D01*
X88597723Y-92159046D01*
X89232617Y-91730663D01*
X89896291Y-91354210D01*
X90586466Y-91030679D01*
X91300866Y-90761063D01*
X92037212Y-90546354D01*
X92793227Y-90387544D01*
X93338094Y-90309568D01*
X93561529Y-90289351D01*
X93827860Y-90274418D01*
X94121505Y-90264891D01*
X94426877Y-90260888D01*
X94728392Y-90262531D01*
X95010466Y-90269941D01*
X95257513Y-90283236D01*
X95379702Y-90293804D01*
X96157227Y-90402675D01*
X96910583Y-90566441D01*
X97640410Y-90785367D01*
X98347349Y-91059717D01*
X99032039Y-91389756D01*
X99695120Y-91775747D01*
X100337232Y-92217956D01*
X100678875Y-92482957D01*
X100809927Y-92593944D01*
X100966242Y-92734595D01*
X101138709Y-92895925D01*
X101318217Y-93068944D01*
X101495656Y-93244664D01*
X101661915Y-93414098D01*
X101807884Y-93568258D01*
X101924452Y-93698155D01*
X101984903Y-93771409D01*
X102048422Y-93850537D01*
X102097266Y-93906568D01*
X102120009Y-93926822D01*
X102136615Y-93901229D01*
X102176793Y-93828205D01*
X102237268Y-93714030D01*
X102314767Y-93564985D01*
X102406014Y-93387349D01*
X102507737Y-93187404D01*
X102577226Y-93049835D01*
X102792684Y-92626516D01*
X102999895Y-92228071D01*
X103197065Y-91857606D01*
X103382398Y-91518230D01*
X103554098Y-91213048D01*
X103710372Y-90945168D01*
X103849422Y-90717696D01*
X103969454Y-90533739D01*
X104068673Y-90396405D01*
X104145283Y-90308799D01*
X104175434Y-90284030D01*
X104227570Y-90253098D01*
X104246269Y-90253315D01*
G36*
X88016309Y-143236561D02*
X88049080Y-143257512D01*
X88096007Y-143294470D01*
X88134942Y-143327615D01*
X88151424Y-143354645D01*
X88149740Y-143383198D01*
X88137407Y-143414693D01*
X88112440Y-143462259D01*
X88077798Y-143521098D01*
X88036437Y-143586413D01*
X87991316Y-143653403D01*
X87945393Y-143717272D01*
X87936606Y-143728941D01*
X87900753Y-143778794D01*
X87863896Y-143834484D01*
X87829078Y-143890857D01*
X87799341Y-143942759D01*
X87777728Y-143985036D01*
X87767281Y-144012533D01*
X87766770Y-144016671D01*
X87756858Y-144034302D01*
X87740718Y-144047541D01*
X87720248Y-144066838D01*
X87714667Y-144080802D01*
X87705886Y-144099764D01*
X87683916Y-144126671D01*
X87674579Y-144136050D01*
X87647916Y-144167723D01*
X87617494Y-144213028D01*
X87591596Y-144258974D01*
X87550814Y-144338566D01*
X87518696Y-144398757D01*
X87492762Y-144443697D01*
X87470535Y-144477535D01*
X87449537Y-144504420D01*
X87435980Y-144519487D01*
X87408443Y-144551399D01*
X87376472Y-144592421D01*
X87344102Y-144636821D01*
X87315370Y-144678862D01*
X87294313Y-144712809D01*
X87284966Y-144732928D01*
X87284821Y-144734263D01*
X87276565Y-144750680D01*
X87256292Y-144775699D01*
X87252286Y-144779970D01*
X87227478Y-144809118D01*
X87196160Y-144850255D01*
X87170875Y-144886097D01*
X87125236Y-144951334D01*
X87073402Y-145021958D01*
X87019941Y-145092044D01*
X86969419Y-145155669D01*
X86926403Y-145206908D01*
X86907539Y-145227724D01*
X86873515Y-145264389D01*
X86842636Y-145298916D01*
X86829709Y-145314051D01*
X86807169Y-145341040D01*
X86775085Y-145379082D01*
X86744234Y-145415435D01*
X86706127Y-145466496D01*
X86687222Y-145506953D01*
X86685404Y-145519640D01*
X86674434Y-145566133D01*
X86641697Y-145619912D01*
X86586592Y-145681667D01*
X86508518Y-145752087D01*
X86423925Y-145819061D01*
X86375656Y-145852057D01*
X86335312Y-145868726D01*
X86292907Y-145871655D01*
X86246471Y-145865019D01*
X86217567Y-145850317D01*
X86186816Y-145821949D01*
X86162177Y-145788818D01*
X86151608Y-145759825D01*
X86151590Y-145758883D01*
X86156091Y-145736934D01*
X86168050Y-145698150D01*
X86185155Y-145649845D01*
X86190667Y-145635309D01*
X86208865Y-145585159D01*
X86222545Y-145541948D01*
X86229376Y-145513227D01*
X86229744Y-145508853D01*
X86235111Y-145484790D01*
X86249163Y-145446001D01*
X86268248Y-145402221D01*
X86292291Y-145348341D01*
X86319368Y-145283309D01*
X86343899Y-145220558D01*
X86345465Y-145216359D01*
X86439376Y-144989022D01*
X86489956Y-144884205D01*
X86515263Y-144829943D01*
X86540973Y-144768057D01*
X86554345Y-144732185D01*
X86574007Y-144683745D01*
X86602385Y-144623507D01*
X86634494Y-144561832D01*
X86647047Y-144539461D01*
X86674450Y-144490798D01*
X86696092Y-144450385D01*
X86709148Y-144423612D01*
X86711693Y-144416148D01*
X86718497Y-144400201D01*
X86736109Y-144370232D01*
X86754617Y-144341846D01*
X86782617Y-144296573D01*
X86813930Y-144240018D01*
X86840367Y-144187333D01*
X86864187Y-144139523D01*
X86887155Y-144098277D01*
X86904686Y-144071775D01*
X86906093Y-144070103D01*
X86923722Y-144045120D01*
X86945811Y-144006982D01*
X86969560Y-143961532D01*
X86992171Y-143914611D01*
X87010844Y-143872064D01*
X87022780Y-143839731D01*
X87025179Y-143823456D01*
X87024586Y-143822787D01*
X87004418Y-143823150D01*
X86970090Y-143835367D01*
X86928723Y-143856263D01*
X86887435Y-143882662D01*
X86882928Y-143885971D01*
X86846014Y-143910554D01*
X86798532Y-143938385D01*
X86768537Y-143954345D01*
X86728073Y-143978261D01*
X86679698Y-144011899D01*
X86629346Y-144050506D01*
X86582949Y-144089330D01*
X86546439Y-144123618D01*
X86525748Y-144148619D01*
X86525522Y-144149017D01*
X86523797Y-144163009D01*
X86543091Y-144167705D01*
X86548872Y-144167795D01*
X86594970Y-144175727D01*
X86633167Y-144196369D01*
X86660367Y-144224984D01*
X86673476Y-144256840D01*
X86669398Y-144287201D01*
X86645039Y-144311332D01*
X86643308Y-144312252D01*
X86613775Y-144332205D01*
X86582204Y-144359931D01*
X86580600Y-144361556D01*
X86545475Y-144391851D01*
X86508057Y-144416581D01*
X86476344Y-144443012D01*
X86447063Y-144483156D01*
X86440904Y-144494735D01*
X86392784Y-144572212D01*
X86335643Y-144627220D01*
X86312798Y-144641354D01*
X86288814Y-144658057D01*
X86251401Y-144688616D01*
X86205724Y-144728646D01*
X86158103Y-144772666D01*
X86110472Y-144816333D01*
X86067043Y-144853345D01*
X86032561Y-144879836D01*
X86011775Y-144891941D01*
X86011565Y-144892001D01*
X85988799Y-144902248D01*
X85982257Y-144910782D01*
X85972294Y-144923384D01*
X85946031Y-144946350D01*
X85908904Y-144975689D01*
X85866353Y-145007407D01*
X85823814Y-145037512D01*
X85786724Y-145062013D01*
X85760523Y-145076915D01*
X85752341Y-145079590D01*
X85738225Y-145068694D01*
X85734770Y-145052770D01*
X85730081Y-145034521D01*
X85722644Y-145033444D01*
X85707092Y-145031419D01*
X85694707Y-145006319D01*
X85686110Y-144960995D01*
X85681924Y-144898300D01*
X85681929Y-144846503D01*
X85692563Y-144803715D01*
X85721561Y-144747531D01*
X85766991Y-144680888D01*
X85826922Y-144606724D01*
X85873500Y-144555063D01*
X85909682Y-144515285D01*
X85937828Y-144482045D01*
X85953926Y-144460195D01*
X85956206Y-144454993D01*
X85966920Y-144441841D01*
X85981230Y-144435146D01*
X85998125Y-144423785D01*
X86029997Y-144396987D01*
X86073466Y-144357799D01*
X86109352Y-144324103D01*
X86338333Y-144324103D01*
X86349417Y-144315606D01*
X86366513Y-144298051D01*
X86379800Y-144279346D01*
X86378178Y-144272000D01*
X86362738Y-144281828D01*
X86349998Y-144298051D01*
X86339210Y-144317954D01*
X86338333Y-144324103D01*
X86109352Y-144324103D01*
X86125152Y-144309268D01*
X86180937Y-144255166D01*
X86280266Y-144158101D01*
X86364864Y-144077346D01*
X86437855Y-144010242D01*
X86502363Y-143954128D01*
X86561513Y-143906347D01*
X86618429Y-143864238D01*
X86676237Y-143825143D01*
X86715367Y-143800338D01*
X86781841Y-143760597D01*
X86856769Y-143718128D01*
X86927607Y-143679971D01*
X86952667Y-143667152D01*
X87006839Y-143640512D01*
X87044613Y-143624151D01*
X87072730Y-143616369D01*
X87097928Y-143615470D01*
X87126944Y-143619753D01*
X87134718Y-143621263D01*
X87186486Y-143635218D01*
X87217994Y-143655746D01*
X87235024Y-143688637D01*
X87242248Y-143728974D01*
X87242852Y-143777421D01*
X87236515Y-143833522D01*
X87225027Y-143887804D01*
X87210182Y-143930796D01*
X87201109Y-143946359D01*
X87185983Y-143970027D01*
X87166666Y-144005531D01*
X87160432Y-144018000D01*
X87137260Y-144060187D01*
X87111986Y-144098819D01*
X87106839Y-144105591D01*
X87085753Y-144136804D01*
X87060399Y-144180794D01*
X87042084Y-144216309D01*
X87017447Y-144264326D01*
X86992067Y-144309651D01*
X86976775Y-144334304D01*
X86955272Y-144372932D01*
X86940718Y-144410801D01*
X86939773Y-144414685D01*
X86925063Y-144450139D01*
X86900381Y-144485819D01*
X86897983Y-144488478D01*
X86874661Y-144519216D01*
X86844319Y-144566849D01*
X86810734Y-144624566D01*
X86777682Y-144685552D01*
X86748941Y-144742995D01*
X86728286Y-144790083D01*
X86723606Y-144803038D01*
X86709484Y-144839655D01*
X86687943Y-144888627D01*
X86664061Y-144938509D01*
X86643038Y-144981453D01*
X86627587Y-145014940D01*
X86620640Y-145032574D01*
X86620513Y-145033445D01*
X86615394Y-145047863D01*
X86601516Y-145080762D01*
X86581101Y-145126998D01*
X86560402Y-145172652D01*
X86533104Y-145236098D01*
X86508825Y-145299699D01*
X86489110Y-145358517D01*
X86475505Y-145407614D01*
X86469553Y-145442051D01*
X86471715Y-145456159D01*
X86483176Y-145450499D01*
X86507425Y-145428077D01*
X86541125Y-145392590D01*
X86580938Y-145347737D01*
X86623526Y-145297214D01*
X86665550Y-145244720D01*
X86682307Y-145222872D01*
X86716102Y-145178694D01*
X86745044Y-145141846D01*
X86764843Y-145117742D01*
X86769983Y-145112154D01*
X86784620Y-145095042D01*
X86808408Y-145064003D01*
X86830270Y-145034000D01*
X86860498Y-144992645D01*
X86889253Y-144954986D01*
X86904354Y-144936308D01*
X86959264Y-144870868D01*
X87004143Y-144815185D01*
X87045163Y-144761157D01*
X87088494Y-144700677D01*
X87135026Y-144633362D01*
X87176967Y-144571972D01*
X87217537Y-144512380D01*
X87252519Y-144460793D01*
X87277697Y-144423418D01*
X87280717Y-144418898D01*
X87313334Y-144371288D01*
X87348574Y-144321767D01*
X87363250Y-144301826D01*
X87386513Y-144266619D01*
X87416304Y-144215690D01*
X87448137Y-144156923D01*
X87468107Y-144117628D01*
X87500783Y-144055529D01*
X87536706Y-143993845D01*
X87570498Y-143941553D01*
X87587471Y-143918469D01*
X87620068Y-143874416D01*
X87648696Y-143830400D01*
X87664572Y-143801187D01*
X87685044Y-143766979D01*
X87721300Y-143717966D01*
X87770533Y-143657591D01*
X87829935Y-143589297D01*
X87896594Y-143516640D01*
X87924272Y-143481131D01*
X87955157Y-143432357D01*
X87981631Y-143382724D01*
X88023885Y-143294271D01*
X87998587Y-143262110D01*
X87982697Y-143239938D01*
X87983322Y-143231270D01*
X87995310Y-143229949D01*
X88016309Y-143236561D01*
X88016309Y-143236561D01*
G37*
X88016309Y-143236561D02*
X88049080Y-143257512D01*
X88096007Y-143294470D01*
X88134942Y-143327615D01*
X88151424Y-143354645D01*
X88149740Y-143383198D01*
X88137407Y-143414693D01*
X88112440Y-143462259D01*
X88077798Y-143521098D01*
X88036437Y-143586413D01*
X87991316Y-143653403D01*
X87945393Y-143717272D01*
X87936606Y-143728941D01*
X87900753Y-143778794D01*
X87863896Y-143834484D01*
X87829078Y-143890857D01*
X87799341Y-143942759D01*
X87777728Y-143985036D01*
X87767281Y-144012533D01*
X87766770Y-144016671D01*
X87756858Y-144034302D01*
X87740718Y-144047541D01*
X87720248Y-144066838D01*
X87714667Y-144080802D01*
X87705886Y-144099764D01*
X87683916Y-144126671D01*
X87674579Y-144136050D01*
X87647916Y-144167723D01*
X87617494Y-144213028D01*
X87591596Y-144258974D01*
X87550814Y-144338566D01*
X87518696Y-144398757D01*
X87492762Y-144443697D01*
X87470535Y-144477535D01*
X87449537Y-144504420D01*
X87435980Y-144519487D01*
X87408443Y-144551399D01*
X87376472Y-144592421D01*
X87344102Y-144636821D01*
X87315370Y-144678862D01*
X87294313Y-144712809D01*
X87284966Y-144732928D01*
X87284821Y-144734263D01*
X87276565Y-144750680D01*
X87256292Y-144775699D01*
X87252286Y-144779970D01*
X87227478Y-144809118D01*
X87196160Y-144850255D01*
X87170875Y-144886097D01*
X87125236Y-144951334D01*
X87073402Y-145021958D01*
X87019941Y-145092044D01*
X86969419Y-145155669D01*
X86926403Y-145206908D01*
X86907539Y-145227724D01*
X86873515Y-145264389D01*
X86842636Y-145298916D01*
X86829709Y-145314051D01*
X86807169Y-145341040D01*
X86775085Y-145379082D01*
X86744234Y-145415435D01*
X86706127Y-145466496D01*
X86687222Y-145506953D01*
X86685404Y-145519640D01*
X86674434Y-145566133D01*
X86641697Y-145619912D01*
X86586592Y-145681667D01*
X86508518Y-145752087D01*
X86423925Y-145819061D01*
X86375656Y-145852057D01*
X86335312Y-145868726D01*
X86292907Y-145871655D01*
X86246471Y-145865019D01*
X86217567Y-145850317D01*
X86186816Y-145821949D01*
X86162177Y-145788818D01*
X86151608Y-145759825D01*
X86151590Y-145758883D01*
X86156091Y-145736934D01*
X86168050Y-145698150D01*
X86185155Y-145649845D01*
X86190667Y-145635309D01*
X86208865Y-145585159D01*
X86222545Y-145541948D01*
X86229376Y-145513227D01*
X86229744Y-145508853D01*
X86235111Y-145484790D01*
X86249163Y-145446001D01*
X86268248Y-145402221D01*
X86292291Y-145348341D01*
X86319368Y-145283309D01*
X86343899Y-145220558D01*
X86345465Y-145216359D01*
X86439376Y-144989022D01*
X86489956Y-144884205D01*
X86515263Y-144829943D01*
X86540973Y-144768057D01*
X86554345Y-144732185D01*
X86574007Y-144683745D01*
X86602385Y-144623507D01*
X86634494Y-144561832D01*
X86647047Y-144539461D01*
X86674450Y-144490798D01*
X86696092Y-144450385D01*
X86709148Y-144423612D01*
X86711693Y-144416148D01*
X86718497Y-144400201D01*
X86736109Y-144370232D01*
X86754617Y-144341846D01*
X86782617Y-144296573D01*
X86813930Y-144240018D01*
X86840367Y-144187333D01*
X86864187Y-144139523D01*
X86887155Y-144098277D01*
X86904686Y-144071775D01*
X86906093Y-144070103D01*
X86923722Y-144045120D01*
X86945811Y-144006982D01*
X86969560Y-143961532D01*
X86992171Y-143914611D01*
X87010844Y-143872064D01*
X87022780Y-143839731D01*
X87025179Y-143823456D01*
X87024586Y-143822787D01*
X87004418Y-143823150D01*
X86970090Y-143835367D01*
X86928723Y-143856263D01*
X86887435Y-143882662D01*
X86882928Y-143885971D01*
X86846014Y-143910554D01*
X86798532Y-143938385D01*
X86768537Y-143954345D01*
X86728073Y-143978261D01*
X86679698Y-144011899D01*
X86629346Y-144050506D01*
X86582949Y-144089330D01*
X86546439Y-144123618D01*
X86525748Y-144148619D01*
X86525522Y-144149017D01*
X86523797Y-144163009D01*
X86543091Y-144167705D01*
X86548872Y-144167795D01*
X86594970Y-144175727D01*
X86633167Y-144196369D01*
X86660367Y-144224984D01*
X86673476Y-144256840D01*
X86669398Y-144287201D01*
X86645039Y-144311332D01*
X86643308Y-144312252D01*
X86613775Y-144332205D01*
X86582204Y-144359931D01*
X86580600Y-144361556D01*
X86545475Y-144391851D01*
X86508057Y-144416581D01*
X86476344Y-144443012D01*
X86447063Y-144483156D01*
X86440904Y-144494735D01*
X86392784Y-144572212D01*
X86335643Y-144627220D01*
X86312798Y-144641354D01*
X86288814Y-144658057D01*
X86251401Y-144688616D01*
X86205724Y-144728646D01*
X86158103Y-144772666D01*
X86110472Y-144816333D01*
X86067043Y-144853345D01*
X86032561Y-144879836D01*
X86011775Y-144891941D01*
X86011565Y-144892001D01*
X85988799Y-144902248D01*
X85982257Y-144910782D01*
X85972294Y-144923384D01*
X85946031Y-144946350D01*
X85908904Y-144975689D01*
X85866353Y-145007407D01*
X85823814Y-145037512D01*
X85786724Y-145062013D01*
X85760523Y-145076915D01*
X85752341Y-145079590D01*
X85738225Y-145068694D01*
X85734770Y-145052770D01*
X85730081Y-145034521D01*
X85722644Y-145033444D01*
X85707092Y-145031419D01*
X85694707Y-145006319D01*
X85686110Y-144960995D01*
X85681924Y-144898300D01*
X85681929Y-144846503D01*
X85692563Y-144803715D01*
X85721561Y-144747531D01*
X85766991Y-144680888D01*
X85826922Y-144606724D01*
X85873500Y-144555063D01*
X85909682Y-144515285D01*
X85937828Y-144482045D01*
X85953926Y-144460195D01*
X85956206Y-144454993D01*
X85966920Y-144441841D01*
X85981230Y-144435146D01*
X85998125Y-144423785D01*
X86029997Y-144396987D01*
X86073466Y-144357799D01*
X86109352Y-144324103D01*
X86338333Y-144324103D01*
X86349417Y-144315606D01*
X86366513Y-144298051D01*
X86379800Y-144279346D01*
X86378178Y-144272000D01*
X86362738Y-144281828D01*
X86349998Y-144298051D01*
X86339210Y-144317954D01*
X86338333Y-144324103D01*
X86109352Y-144324103D01*
X86125152Y-144309268D01*
X86180937Y-144255166D01*
X86280266Y-144158101D01*
X86364864Y-144077346D01*
X86437855Y-144010242D01*
X86502363Y-143954128D01*
X86561513Y-143906347D01*
X86618429Y-143864238D01*
X86676237Y-143825143D01*
X86715367Y-143800338D01*
X86781841Y-143760597D01*
X86856769Y-143718128D01*
X86927607Y-143679971D01*
X86952667Y-143667152D01*
X87006839Y-143640512D01*
X87044613Y-143624151D01*
X87072730Y-143616369D01*
X87097928Y-143615470D01*
X87126944Y-143619753D01*
X87134718Y-143621263D01*
X87186486Y-143635218D01*
X87217994Y-143655746D01*
X87235024Y-143688637D01*
X87242248Y-143728974D01*
X87242852Y-143777421D01*
X87236515Y-143833522D01*
X87225027Y-143887804D01*
X87210182Y-143930796D01*
X87201109Y-143946359D01*
X87185983Y-143970027D01*
X87166666Y-144005531D01*
X87160432Y-144018000D01*
X87137260Y-144060187D01*
X87111986Y-144098819D01*
X87106839Y-144105591D01*
X87085753Y-144136804D01*
X87060399Y-144180794D01*
X87042084Y-144216309D01*
X87017447Y-144264326D01*
X86992067Y-144309651D01*
X86976775Y-144334304D01*
X86955272Y-144372932D01*
X86940718Y-144410801D01*
X86939773Y-144414685D01*
X86925063Y-144450139D01*
X86900381Y-144485819D01*
X86897983Y-144488478D01*
X86874661Y-144519216D01*
X86844319Y-144566849D01*
X86810734Y-144624566D01*
X86777682Y-144685552D01*
X86748941Y-144742995D01*
X86728286Y-144790083D01*
X86723606Y-144803038D01*
X86709484Y-144839655D01*
X86687943Y-144888627D01*
X86664061Y-144938509D01*
X86643038Y-144981453D01*
X86627587Y-145014940D01*
X86620640Y-145032574D01*
X86620513Y-145033445D01*
X86615394Y-145047863D01*
X86601516Y-145080762D01*
X86581101Y-145126998D01*
X86560402Y-145172652D01*
X86533104Y-145236098D01*
X86508825Y-145299699D01*
X86489110Y-145358517D01*
X86475505Y-145407614D01*
X86469553Y-145442051D01*
X86471715Y-145456159D01*
X86483176Y-145450499D01*
X86507425Y-145428077D01*
X86541125Y-145392590D01*
X86580938Y-145347737D01*
X86623526Y-145297214D01*
X86665550Y-145244720D01*
X86682307Y-145222872D01*
X86716102Y-145178694D01*
X86745044Y-145141846D01*
X86764843Y-145117742D01*
X86769983Y-145112154D01*
X86784620Y-145095042D01*
X86808408Y-145064003D01*
X86830270Y-145034000D01*
X86860498Y-144992645D01*
X86889253Y-144954986D01*
X86904354Y-144936308D01*
X86959264Y-144870868D01*
X87004143Y-144815185D01*
X87045163Y-144761157D01*
X87088494Y-144700677D01*
X87135026Y-144633362D01*
X87176967Y-144571972D01*
X87217537Y-144512380D01*
X87252519Y-144460793D01*
X87277697Y-144423418D01*
X87280717Y-144418898D01*
X87313334Y-144371288D01*
X87348574Y-144321767D01*
X87363250Y-144301826D01*
X87386513Y-144266619D01*
X87416304Y-144215690D01*
X87448137Y-144156923D01*
X87468107Y-144117628D01*
X87500783Y-144055529D01*
X87536706Y-143993845D01*
X87570498Y-143941553D01*
X87587471Y-143918469D01*
X87620068Y-143874416D01*
X87648696Y-143830400D01*
X87664572Y-143801187D01*
X87685044Y-143766979D01*
X87721300Y-143717966D01*
X87770533Y-143657591D01*
X87829935Y-143589297D01*
X87896594Y-143516640D01*
X87924272Y-143481131D01*
X87955157Y-143432357D01*
X87981631Y-143382724D01*
X88023885Y-143294271D01*
X87998587Y-143262110D01*
X87982697Y-143239938D01*
X87983322Y-143231270D01*
X87995310Y-143229949D01*
X88016309Y-143236561D01*
G36*
X88956506Y-144777382D02*
X88965129Y-144791431D01*
X88973481Y-144805806D01*
X88994557Y-144830808D01*
X89006180Y-144843094D01*
X89047232Y-144885083D01*
X89031352Y-144959541D01*
X89019959Y-145003542D01*
X89001891Y-145062851D01*
X88979971Y-145128515D01*
X88964250Y-145172377D01*
X88943828Y-145228257D01*
X88927272Y-145274913D01*
X88916414Y-145307091D01*
X88913026Y-145319286D01*
X88907771Y-145334181D01*
X88893758Y-145366532D01*
X88873611Y-145410363D01*
X88865080Y-145428396D01*
X88838251Y-145487300D01*
X88812099Y-145549079D01*
X88791846Y-145601348D01*
X88790182Y-145606042D01*
X88763231Y-145683110D01*
X88673647Y-145713208D01*
X88584064Y-145743306D01*
X88590276Y-145688192D01*
X88592058Y-145647080D01*
X88588785Y-145613234D01*
X88587060Y-145607078D01*
X88585363Y-145574905D01*
X88591816Y-145555026D01*
X88603430Y-145531860D01*
X88606988Y-145522462D01*
X88614256Y-145495107D01*
X88628975Y-145451755D01*
X88648136Y-145400269D01*
X88668728Y-145348509D01*
X88687741Y-145304338D01*
X88700209Y-145278995D01*
X88716658Y-145242359D01*
X88719095Y-145220680D01*
X88709314Y-145216888D01*
X88689107Y-145233916D01*
X88679749Y-145245543D01*
X88657334Y-145274921D01*
X88640130Y-145296619D01*
X88639629Y-145297219D01*
X88627731Y-145318593D01*
X88626462Y-145325442D01*
X88618163Y-145341478D01*
X88616693Y-145342273D01*
X88599269Y-145358753D01*
X88576644Y-145390920D01*
X88553723Y-145430451D01*
X88535413Y-145469022D01*
X88527309Y-145493942D01*
X88512307Y-145532836D01*
X88487205Y-145570422D01*
X88484715Y-145573194D01*
X88446047Y-145619729D01*
X88404686Y-145676952D01*
X88368545Y-145733520D01*
X88352502Y-145762740D01*
X88330390Y-145797634D01*
X88300329Y-145834555D01*
X88294308Y-145840894D01*
X88265060Y-145875376D01*
X88242341Y-145910151D01*
X88239228Y-145916487D01*
X88220552Y-145945073D01*
X88202637Y-145950164D01*
X88188858Y-145931175D01*
X88187172Y-145925520D01*
X88174153Y-145906023D01*
X88160871Y-145906136D01*
X88135407Y-145904492D01*
X88103017Y-145889245D01*
X88073112Y-145866637D01*
X88055102Y-145842913D01*
X88053334Y-145834783D01*
X88047102Y-145810292D01*
X88040308Y-145802513D01*
X88028062Y-145785082D01*
X88039318Y-145760769D01*
X88049626Y-145749466D01*
X88066767Y-145723795D01*
X88086150Y-145682873D01*
X88103799Y-145636751D01*
X88115743Y-145595476D01*
X88118581Y-145575064D01*
X88124139Y-145552716D01*
X88138292Y-145516760D01*
X88150738Y-145489897D01*
X88174290Y-145432974D01*
X88182752Y-145389952D01*
X88175659Y-145363742D01*
X88171375Y-145360142D01*
X88156545Y-145364373D01*
X88137036Y-145384869D01*
X88135554Y-145386979D01*
X88107785Y-145422831D01*
X88082641Y-145450613D01*
X88062215Y-145473706D01*
X88053345Y-145489103D01*
X88053334Y-145489380D01*
X88046452Y-145505587D01*
X88029742Y-145532018D01*
X88028314Y-145534039D01*
X88008592Y-145565039D01*
X87983978Y-145608345D01*
X87957625Y-145657779D01*
X87932681Y-145707161D01*
X87912300Y-145750313D01*
X87899632Y-145781055D01*
X87897026Y-145791479D01*
X87887102Y-145810478D01*
X87866617Y-145828350D01*
X87836869Y-145855258D01*
X87819802Y-145878930D01*
X87799214Y-145903865D01*
X87765522Y-145932455D01*
X87746450Y-145945580D01*
X87708679Y-145973095D01*
X87677930Y-146001758D01*
X87668651Y-146013403D01*
X87650337Y-146034450D01*
X87634357Y-146033713D01*
X87630474Y-146030854D01*
X87619397Y-146007849D01*
X87620295Y-145989162D01*
X87621414Y-145969295D01*
X87609181Y-145968474D01*
X87594670Y-145982480D01*
X87594180Y-145989756D01*
X87589790Y-146003049D01*
X87570082Y-146000580D01*
X87539608Y-145983435D01*
X87526542Y-145973612D01*
X87505496Y-145955531D01*
X87495383Y-145939083D01*
X87494289Y-145915787D01*
X87500301Y-145877160D01*
X87502304Y-145866215D01*
X87510119Y-145815352D01*
X87510131Y-145788460D01*
X87502003Y-145784551D01*
X87485397Y-145802639D01*
X87482142Y-145807206D01*
X87456957Y-145839965D01*
X87431359Y-145869670D01*
X87411346Y-145893184D01*
X87402122Y-145907680D01*
X87402052Y-145908230D01*
X87394291Y-145920951D01*
X87374023Y-145947457D01*
X87347910Y-145979278D01*
X87307580Y-146019528D01*
X87271179Y-146041685D01*
X87242178Y-146044226D01*
X87227285Y-146032208D01*
X87210648Y-146025657D01*
X87189538Y-146026813D01*
X87161856Y-146024134D01*
X87133577Y-146002199D01*
X87124099Y-145991503D01*
X87102203Y-145962072D01*
X87090120Y-145939211D01*
X87089300Y-145935026D01*
X87088724Y-145915786D01*
X87087303Y-145877423D01*
X87085297Y-145826840D01*
X87084346Y-145803709D01*
X87083079Y-145739930D01*
X87086144Y-145693964D01*
X87094461Y-145657796D01*
X87103735Y-145634376D01*
X87119206Y-145590792D01*
X87127693Y-145548435D01*
X87128227Y-145539092D01*
X87133910Y-145500654D01*
X87147773Y-145455363D01*
X87153548Y-145441400D01*
X87153828Y-145440769D01*
X87413084Y-145440769D01*
X87420947Y-145444308D01*
X87434091Y-145437795D01*
X87818872Y-145437795D01*
X87825385Y-145444308D01*
X87831898Y-145437795D01*
X87825385Y-145431282D01*
X87818872Y-145437795D01*
X87434091Y-145437795D01*
X87441830Y-145433961D01*
X87454154Y-145418256D01*
X87462198Y-145398142D01*
X87460667Y-145392205D01*
X87460038Y-145382662D01*
X87467180Y-145366154D01*
X87477345Y-145344145D01*
X87474605Y-145341661D01*
X87461065Y-145356934D01*
X87438830Y-145388196D01*
X87436162Y-145392205D01*
X87416736Y-145424650D01*
X87413084Y-145440769D01*
X87153828Y-145440769D01*
X87174149Y-145395120D01*
X87194241Y-145349327D01*
X87198578Y-145339312D01*
X87217150Y-145308033D01*
X87248534Y-145266536D01*
X87286721Y-145222615D01*
X87296488Y-145212312D01*
X87336898Y-145172015D01*
X87366274Y-145147701D01*
X87390521Y-145135559D01*
X87415543Y-145131780D01*
X87421420Y-145131692D01*
X87464207Y-145137658D01*
X87510670Y-145152421D01*
X87520024Y-145156616D01*
X87571609Y-145181539D01*
X87603430Y-145127240D01*
X87631301Y-145087336D01*
X87668972Y-145042730D01*
X87694891Y-145016101D01*
X87729845Y-144984669D01*
X87754857Y-144968867D01*
X87777514Y-144965051D01*
X87796000Y-144967554D01*
X87834676Y-144982696D01*
X87870828Y-145007820D01*
X87871795Y-145008734D01*
X87892148Y-145031622D01*
X87901120Y-145055425D01*
X87901629Y-145090506D01*
X87900167Y-145109451D01*
X87893553Y-145157189D01*
X87881964Y-145216874D01*
X87868063Y-145274974D01*
X87854547Y-145325502D01*
X87842973Y-145368827D01*
X87835582Y-145396556D01*
X87835009Y-145398718D01*
X87834992Y-145410605D01*
X87845387Y-145402954D01*
X87863805Y-145378915D01*
X87887857Y-145341639D01*
X87915157Y-145294276D01*
X87917672Y-145289662D01*
X87945702Y-145245790D01*
X87984882Y-145194153D01*
X88027439Y-145144892D01*
X88033795Y-145138166D01*
X88078226Y-145094332D01*
X88114728Y-145065739D01*
X88151276Y-145046994D01*
X88185595Y-145035555D01*
X88240608Y-145021194D01*
X88279028Y-145016848D01*
X88308854Y-145023936D01*
X88338086Y-145043873D01*
X88363325Y-145067048D01*
X88395757Y-145101159D01*
X88412281Y-145128994D01*
X88417805Y-145159942D01*
X88418052Y-145171711D01*
X88419349Y-145204241D01*
X88425410Y-145216014D01*
X88439493Y-145212278D01*
X88442304Y-145210809D01*
X88460174Y-145193949D01*
X88485975Y-145160776D01*
X88514851Y-145117674D01*
X88522177Y-145105774D01*
X88577359Y-145028530D01*
X88647437Y-144951410D01*
X88725171Y-144881301D01*
X88803319Y-144825089D01*
X88837689Y-144805654D01*
X88888559Y-144783936D01*
X88929590Y-144774353D01*
X88956506Y-144777382D01*
X88956506Y-144777382D01*
G37*
X88956506Y-144777382D02*
X88965129Y-144791431D01*
X88973481Y-144805806D01*
X88994557Y-144830808D01*
X89006180Y-144843094D01*
X89047232Y-144885083D01*
X89031352Y-144959541D01*
X89019959Y-145003542D01*
X89001891Y-145062851D01*
X88979971Y-145128515D01*
X88964250Y-145172377D01*
X88943828Y-145228257D01*
X88927272Y-145274913D01*
X88916414Y-145307091D01*
X88913026Y-145319286D01*
X88907771Y-145334181D01*
X88893758Y-145366532D01*
X88873611Y-145410363D01*
X88865080Y-145428396D01*
X88838251Y-145487300D01*
X88812099Y-145549079D01*
X88791846Y-145601348D01*
X88790182Y-145606042D01*
X88763231Y-145683110D01*
X88673647Y-145713208D01*
X88584064Y-145743306D01*
X88590276Y-145688192D01*
X88592058Y-145647080D01*
X88588785Y-145613234D01*
X88587060Y-145607078D01*
X88585363Y-145574905D01*
X88591816Y-145555026D01*
X88603430Y-145531860D01*
X88606988Y-145522462D01*
X88614256Y-145495107D01*
X88628975Y-145451755D01*
X88648136Y-145400269D01*
X88668728Y-145348509D01*
X88687741Y-145304338D01*
X88700209Y-145278995D01*
X88716658Y-145242359D01*
X88719095Y-145220680D01*
X88709314Y-145216888D01*
X88689107Y-145233916D01*
X88679749Y-145245543D01*
X88657334Y-145274921D01*
X88640130Y-145296619D01*
X88639629Y-145297219D01*
X88627731Y-145318593D01*
X88626462Y-145325442D01*
X88618163Y-145341478D01*
X88616693Y-145342273D01*
X88599269Y-145358753D01*
X88576644Y-145390920D01*
X88553723Y-145430451D01*
X88535413Y-145469022D01*
X88527309Y-145493942D01*
X88512307Y-145532836D01*
X88487205Y-145570422D01*
X88484715Y-145573194D01*
X88446047Y-145619729D01*
X88404686Y-145676952D01*
X88368545Y-145733520D01*
X88352502Y-145762740D01*
X88330390Y-145797634D01*
X88300329Y-145834555D01*
X88294308Y-145840894D01*
X88265060Y-145875376D01*
X88242341Y-145910151D01*
X88239228Y-145916487D01*
X88220552Y-145945073D01*
X88202637Y-145950164D01*
X88188858Y-145931175D01*
X88187172Y-145925520D01*
X88174153Y-145906023D01*
X88160871Y-145906136D01*
X88135407Y-145904492D01*
X88103017Y-145889245D01*
X88073112Y-145866637D01*
X88055102Y-145842913D01*
X88053334Y-145834783D01*
X88047102Y-145810292D01*
X88040308Y-145802513D01*
X88028062Y-145785082D01*
X88039318Y-145760769D01*
X88049626Y-145749466D01*
X88066767Y-145723795D01*
X88086150Y-145682873D01*
X88103799Y-145636751D01*
X88115743Y-145595476D01*
X88118581Y-145575064D01*
X88124139Y-145552716D01*
X88138292Y-145516760D01*
X88150738Y-145489897D01*
X88174290Y-145432974D01*
X88182752Y-145389952D01*
X88175659Y-145363742D01*
X88171375Y-145360142D01*
X88156545Y-145364373D01*
X88137036Y-145384869D01*
X88135554Y-145386979D01*
X88107785Y-145422831D01*
X88082641Y-145450613D01*
X88062215Y-145473706D01*
X88053345Y-145489103D01*
X88053334Y-145489380D01*
X88046452Y-145505587D01*
X88029742Y-145532018D01*
X88028314Y-145534039D01*
X88008592Y-145565039D01*
X87983978Y-145608345D01*
X87957625Y-145657779D01*
X87932681Y-145707161D01*
X87912300Y-145750313D01*
X87899632Y-145781055D01*
X87897026Y-145791479D01*
X87887102Y-145810478D01*
X87866617Y-145828350D01*
X87836869Y-145855258D01*
X87819802Y-145878930D01*
X87799214Y-145903865D01*
X87765522Y-145932455D01*
X87746450Y-145945580D01*
X87708679Y-145973095D01*
X87677930Y-146001758D01*
X87668651Y-146013403D01*
X87650337Y-146034450D01*
X87634357Y-146033713D01*
X87630474Y-146030854D01*
X87619397Y-146007849D01*
X87620295Y-145989162D01*
X87621414Y-145969295D01*
X87609181Y-145968474D01*
X87594670Y-145982480D01*
X87594180Y-145989756D01*
X87589790Y-146003049D01*
X87570082Y-146000580D01*
X87539608Y-145983435D01*
X87526542Y-145973612D01*
X87505496Y-145955531D01*
X87495383Y-145939083D01*
X87494289Y-145915787D01*
X87500301Y-145877160D01*
X87502304Y-145866215D01*
X87510119Y-145815352D01*
X87510131Y-145788460D01*
X87502003Y-145784551D01*
X87485397Y-145802639D01*
X87482142Y-145807206D01*
X87456957Y-145839965D01*
X87431359Y-145869670D01*
X87411346Y-145893184D01*
X87402122Y-145907680D01*
X87402052Y-145908230D01*
X87394291Y-145920951D01*
X87374023Y-145947457D01*
X87347910Y-145979278D01*
X87307580Y-146019528D01*
X87271179Y-146041685D01*
X87242178Y-146044226D01*
X87227285Y-146032208D01*
X87210648Y-146025657D01*
X87189538Y-146026813D01*
X87161856Y-146024134D01*
X87133577Y-146002199D01*
X87124099Y-145991503D01*
X87102203Y-145962072D01*
X87090120Y-145939211D01*
X87089300Y-145935026D01*
X87088724Y-145915786D01*
X87087303Y-145877423D01*
X87085297Y-145826840D01*
X87084346Y-145803709D01*
X87083079Y-145739930D01*
X87086144Y-145693964D01*
X87094461Y-145657796D01*
X87103735Y-145634376D01*
X87119206Y-145590792D01*
X87127693Y-145548435D01*
X87128227Y-145539092D01*
X87133910Y-145500654D01*
X87147773Y-145455363D01*
X87153548Y-145441400D01*
X87153828Y-145440769D01*
X87413084Y-145440769D01*
X87420947Y-145444308D01*
X87434091Y-145437795D01*
X87818872Y-145437795D01*
X87825385Y-145444308D01*
X87831898Y-145437795D01*
X87825385Y-145431282D01*
X87818872Y-145437795D01*
X87434091Y-145437795D01*
X87441830Y-145433961D01*
X87454154Y-145418256D01*
X87462198Y-145398142D01*
X87460667Y-145392205D01*
X87460038Y-145382662D01*
X87467180Y-145366154D01*
X87477345Y-145344145D01*
X87474605Y-145341661D01*
X87461065Y-145356934D01*
X87438830Y-145388196D01*
X87436162Y-145392205D01*
X87416736Y-145424650D01*
X87413084Y-145440769D01*
X87153828Y-145440769D01*
X87174149Y-145395120D01*
X87194241Y-145349327D01*
X87198578Y-145339312D01*
X87217150Y-145308033D01*
X87248534Y-145266536D01*
X87286721Y-145222615D01*
X87296488Y-145212312D01*
X87336898Y-145172015D01*
X87366274Y-145147701D01*
X87390521Y-145135559D01*
X87415543Y-145131780D01*
X87421420Y-145131692D01*
X87464207Y-145137658D01*
X87510670Y-145152421D01*
X87520024Y-145156616D01*
X87571609Y-145181539D01*
X87603430Y-145127240D01*
X87631301Y-145087336D01*
X87668972Y-145042730D01*
X87694891Y-145016101D01*
X87729845Y-144984669D01*
X87754857Y-144968867D01*
X87777514Y-144965051D01*
X87796000Y-144967554D01*
X87834676Y-144982696D01*
X87870828Y-145007820D01*
X87871795Y-145008734D01*
X87892148Y-145031622D01*
X87901120Y-145055425D01*
X87901629Y-145090506D01*
X87900167Y-145109451D01*
X87893553Y-145157189D01*
X87881964Y-145216874D01*
X87868063Y-145274974D01*
X87854547Y-145325502D01*
X87842973Y-145368827D01*
X87835582Y-145396556D01*
X87835009Y-145398718D01*
X87834992Y-145410605D01*
X87845387Y-145402954D01*
X87863805Y-145378915D01*
X87887857Y-145341639D01*
X87915157Y-145294276D01*
X87917672Y-145289662D01*
X87945702Y-145245790D01*
X87984882Y-145194153D01*
X88027439Y-145144892D01*
X88033795Y-145138166D01*
X88078226Y-145094332D01*
X88114728Y-145065739D01*
X88151276Y-145046994D01*
X88185595Y-145035555D01*
X88240608Y-145021194D01*
X88279028Y-145016848D01*
X88308854Y-145023936D01*
X88338086Y-145043873D01*
X88363325Y-145067048D01*
X88395757Y-145101159D01*
X88412281Y-145128994D01*
X88417805Y-145159942D01*
X88418052Y-145171711D01*
X88419349Y-145204241D01*
X88425410Y-145216014D01*
X88439493Y-145212278D01*
X88442304Y-145210809D01*
X88460174Y-145193949D01*
X88485975Y-145160776D01*
X88514851Y-145117674D01*
X88522177Y-145105774D01*
X88577359Y-145028530D01*
X88647437Y-144951410D01*
X88725171Y-144881301D01*
X88803319Y-144825089D01*
X88837689Y-144805654D01*
X88888559Y-144783936D01*
X88929590Y-144774353D01*
X88956506Y-144777382D01*
G36*
X90820948Y-143308583D02*
X90839228Y-143336037D01*
X90840821Y-143347918D01*
X90848965Y-143368629D01*
X90859901Y-143373231D01*
X90878322Y-143382221D01*
X90894474Y-143402059D01*
X90900928Y-143422040D01*
X90898334Y-143428606D01*
X90894016Y-143443800D01*
X90888344Y-143478446D01*
X90882325Y-143526051D01*
X90880353Y-143544293D01*
X90867736Y-143625706D01*
X90846105Y-143696552D01*
X90825047Y-143744462D01*
X90786977Y-143817970D01*
X90746534Y-143887002D01*
X90708164Y-143944296D01*
X90684513Y-143973986D01*
X90648770Y-144014621D01*
X90612835Y-144057182D01*
X90570471Y-144109130D01*
X90544299Y-144141744D01*
X90505605Y-144188568D01*
X90466209Y-144233703D01*
X90433921Y-144268234D01*
X90430761Y-144271373D01*
X90403983Y-144300847D01*
X90387473Y-144325197D01*
X90384924Y-144333245D01*
X90376956Y-144348819D01*
X90371898Y-144350154D01*
X90361279Y-144361052D01*
X90358872Y-144375940D01*
X90371866Y-144401576D01*
X90410762Y-144428183D01*
X90413415Y-144429552D01*
X90450369Y-144450242D01*
X90479141Y-144469545D01*
X90485986Y-144475407D01*
X90505400Y-144490478D01*
X90513604Y-144493436D01*
X90526805Y-144505068D01*
X90541695Y-144535082D01*
X90555728Y-144576157D01*
X90566357Y-144620969D01*
X90570898Y-144658191D01*
X90574965Y-144694246D01*
X90582127Y-144716151D01*
X90586821Y-144719399D01*
X90600407Y-144707607D01*
X90619098Y-144680332D01*
X90626419Y-144667296D01*
X90663511Y-144598025D01*
X90691784Y-144547200D01*
X90714140Y-144510001D01*
X90733482Y-144481609D01*
X90752713Y-144457204D01*
X90753583Y-144456169D01*
X90783092Y-144415687D01*
X90811472Y-144368406D01*
X90818237Y-144355220D01*
X90837149Y-144321953D01*
X90854160Y-144301339D01*
X90860633Y-144298051D01*
X90873659Y-144287129D01*
X90891675Y-144259013D01*
X90904611Y-144233095D01*
X90927370Y-144191042D01*
X90952829Y-144155890D01*
X90965548Y-144143297D01*
X90987859Y-144122159D01*
X90997129Y-144106249D01*
X91007390Y-144091817D01*
X91029099Y-144076933D01*
X91050240Y-144058936D01*
X91079577Y-144025997D01*
X91111556Y-143985305D01*
X91140626Y-143944046D01*
X91161235Y-143909409D01*
X91165187Y-143900769D01*
X91177372Y-143882582D01*
X91197751Y-143859139D01*
X91240143Y-143814036D01*
X91269208Y-143780914D01*
X91290204Y-143753494D01*
X91304731Y-143731436D01*
X91351774Y-143665002D01*
X91397597Y-143617386D01*
X91440064Y-143590091D01*
X91477041Y-143584622D01*
X91498785Y-143594807D01*
X91515214Y-143616398D01*
X91518154Y-143627739D01*
X91527771Y-143646800D01*
X91550512Y-143668478D01*
X91582870Y-143692359D01*
X91544912Y-143771673D01*
X91520411Y-143816048D01*
X91494291Y-143852852D01*
X91474592Y-143872192D01*
X91452456Y-143892710D01*
X91422070Y-143928614D01*
X91388988Y-143973193D01*
X91379244Y-143987440D01*
X91336158Y-144050549D01*
X91301877Y-144097340D01*
X91271680Y-144133764D01*
X91240847Y-144165770D01*
X91228334Y-144177683D01*
X91204801Y-144204183D01*
X91192877Y-144226408D01*
X91192513Y-144229332D01*
X91186698Y-144241837D01*
X91181730Y-144240822D01*
X91169081Y-144246577D01*
X91146680Y-144266726D01*
X91120355Y-144294784D01*
X91095934Y-144324265D01*
X91079244Y-144348684D01*
X91075283Y-144359271D01*
X91065498Y-144373728D01*
X91049470Y-144386058D01*
X91029017Y-144406606D01*
X91004925Y-144441536D01*
X90991459Y-144465720D01*
X90970233Y-144502536D01*
X90950355Y-144528738D01*
X90940788Y-144536350D01*
X90924349Y-144551520D01*
X90903720Y-144581906D01*
X90893952Y-144599848D01*
X90874678Y-144637542D01*
X90858759Y-144667588D01*
X90854163Y-144675795D01*
X90843965Y-144695898D01*
X90826275Y-144733285D01*
X90804156Y-144781425D01*
X90793038Y-144806051D01*
X90767551Y-144859280D01*
X90741989Y-144906741D01*
X90720545Y-144940849D01*
X90713927Y-144949200D01*
X90693311Y-144972935D01*
X90684664Y-144988631D01*
X90690897Y-144997804D01*
X90714923Y-145001965D01*
X90759654Y-145002628D01*
X90814770Y-145001603D01*
X90875802Y-144996731D01*
X90922735Y-144982298D01*
X90966659Y-144953784D01*
X90996914Y-144927358D01*
X91027399Y-144903774D01*
X91055314Y-144889210D01*
X91055744Y-144889077D01*
X91086230Y-144874342D01*
X91107847Y-144858942D01*
X91135930Y-144840678D01*
X91180156Y-144817826D01*
X91232024Y-144794242D01*
X91283030Y-144773780D01*
X91324675Y-144760297D01*
X91326193Y-144759916D01*
X91392540Y-144755537D01*
X91459388Y-144771513D01*
X91516328Y-144805178D01*
X91521669Y-144809968D01*
X91550534Y-144840386D01*
X91570860Y-144867860D01*
X91574842Y-144875903D01*
X91585259Y-144892248D01*
X91601561Y-144885233D01*
X91603068Y-144884000D01*
X91628593Y-144872903D01*
X91665747Y-144866809D01*
X91671614Y-144866549D01*
X91709552Y-144870404D01*
X91740687Y-144888088D01*
X91760854Y-144907298D01*
X91788869Y-144931498D01*
X91819697Y-144945116D01*
X91858210Y-144948309D01*
X91909278Y-144941229D01*
X91977773Y-144924034D01*
X92008415Y-144915165D01*
X92098370Y-144889719D01*
X92179306Y-144869103D01*
X92246674Y-144854366D01*
X92295924Y-144846556D01*
X92310548Y-144845586D01*
X92337363Y-144854676D01*
X92370336Y-144877835D01*
X92401774Y-144907944D01*
X92423980Y-144937880D01*
X92429949Y-144956083D01*
X92437468Y-144973258D01*
X92443744Y-144975385D01*
X92451807Y-144983229D01*
X92450067Y-144987472D01*
X92453933Y-145000616D01*
X92465621Y-145006868D01*
X92481937Y-145022525D01*
X92499474Y-145054030D01*
X92513922Y-145091775D01*
X92520975Y-145126151D01*
X92521129Y-145130674D01*
X92510621Y-145143337D01*
X92483599Y-145162659D01*
X92459257Y-145177011D01*
X92406169Y-145215107D01*
X92360583Y-145264175D01*
X92329533Y-145316011D01*
X92322549Y-145336504D01*
X92319215Y-145355744D01*
X92327241Y-145357821D01*
X92349848Y-145346187D01*
X92406643Y-145309602D01*
X92457883Y-145268048D01*
X92485844Y-145239154D01*
X92507422Y-145217940D01*
X92523138Y-145209846D01*
X92539820Y-145202147D01*
X92568767Y-145182339D01*
X92591919Y-145164256D01*
X92624272Y-145139074D01*
X92648651Y-145122517D01*
X92657229Y-145118667D01*
X92673603Y-145111802D01*
X92700012Y-145095179D01*
X92701477Y-145094146D01*
X92742118Y-145074139D01*
X92797370Y-145057740D01*
X92856253Y-145047243D01*
X92907793Y-145044941D01*
X92925966Y-145047254D01*
X92962930Y-145066016D01*
X92978076Y-145090565D01*
X92992296Y-145126796D01*
X93003077Y-145151231D01*
X93017007Y-145183350D01*
X93028940Y-145214161D01*
X93042912Y-145235994D01*
X93059493Y-145244863D01*
X93070852Y-145239031D01*
X93071139Y-145223532D01*
X93074966Y-145213770D01*
X93079858Y-145215510D01*
X93097670Y-145213657D01*
X93111815Y-145203453D01*
X93130942Y-145187560D01*
X93139299Y-145183795D01*
X93153230Y-145176087D01*
X93183680Y-145154802D01*
X93226874Y-145122700D01*
X93279039Y-145082540D01*
X93296154Y-145069112D01*
X93342772Y-145042262D01*
X93406624Y-145018410D01*
X93479208Y-144999475D01*
X93552022Y-144987376D01*
X93616564Y-144984033D01*
X93654026Y-144988331D01*
X93681022Y-145004406D01*
X93712763Y-145036988D01*
X93744275Y-145078879D01*
X93770584Y-145122881D01*
X93786718Y-145161795D01*
X93789073Y-145183795D01*
X93779540Y-145223343D01*
X93764640Y-145268446D01*
X93747784Y-145310193D01*
X93732383Y-145339669D01*
X93726768Y-145346615D01*
X93708418Y-145365901D01*
X93682007Y-145397009D01*
X93652242Y-145433940D01*
X93623832Y-145470696D01*
X93601483Y-145501278D01*
X93589903Y-145519687D01*
X93589231Y-145521875D01*
X93582096Y-145536045D01*
X93563365Y-145565350D01*
X93537045Y-145604069D01*
X93507145Y-145646478D01*
X93477674Y-145686853D01*
X93452641Y-145719471D01*
X93441326Y-145733043D01*
X93429114Y-145752989D01*
X93429667Y-145762350D01*
X93427300Y-145769368D01*
X93422069Y-145769949D01*
X93409306Y-145780708D01*
X93406872Y-145793395D01*
X93396053Y-145826172D01*
X93363995Y-145844324D01*
X93329008Y-145848103D01*
X93285309Y-145840862D01*
X93258679Y-145817368D01*
X93247122Y-145774964D01*
X93246635Y-145738393D01*
X93250132Y-145696365D01*
X93255714Y-145663176D01*
X93258678Y-145653726D01*
X93267317Y-145630814D01*
X93268978Y-145623833D01*
X93277491Y-145607632D01*
X93290476Y-145590692D01*
X93310536Y-145562162D01*
X93319375Y-145544680D01*
X93332222Y-145525840D01*
X93339813Y-145522462D01*
X93350652Y-145512287D01*
X93370036Y-145486301D01*
X93393585Y-145451312D01*
X93416919Y-145414128D01*
X93435657Y-145381555D01*
X93445420Y-145360403D01*
X93445949Y-145357506D01*
X93453296Y-145341490D01*
X93470140Y-145320151D01*
X93488684Y-145302039D01*
X93501136Y-145295703D01*
X93501875Y-145296165D01*
X93511367Y-145291001D01*
X93525643Y-145270418D01*
X93539809Y-145243183D01*
X93548969Y-145218063D01*
X93550154Y-145209690D01*
X93539509Y-145201051D01*
X93512764Y-145201312D01*
X93477708Y-145208979D01*
X93442129Y-145222555D01*
X93421679Y-145234352D01*
X93388562Y-145254411D01*
X93360845Y-145266736D01*
X93338532Y-145279832D01*
X93305620Y-145306233D01*
X93269665Y-145339802D01*
X93236217Y-145372005D01*
X93209478Y-145395311D01*
X93194979Y-145404913D01*
X93194656Y-145404947D01*
X93176352Y-145412532D01*
X93168605Y-145418060D01*
X93148766Y-145434100D01*
X93118947Y-145458075D01*
X93110283Y-145465023D01*
X93084444Y-145490967D01*
X93071526Y-145514406D01*
X93071206Y-145520057D01*
X93062542Y-145540550D01*
X93035641Y-145558438D01*
X92994478Y-145577503D01*
X92971842Y-145590322D01*
X92962146Y-145600501D01*
X92960172Y-145607128D01*
X92948977Y-145624468D01*
X92922095Y-145652152D01*
X92885144Y-145685527D01*
X92843741Y-145719942D01*
X92803501Y-145750744D01*
X92770041Y-145773281D01*
X92748979Y-145782901D01*
X92747876Y-145782974D01*
X92726638Y-145772490D01*
X92721573Y-145764346D01*
X92704951Y-145746875D01*
X92677674Y-145732906D01*
X92645525Y-145711229D01*
X92632126Y-145680043D01*
X92622424Y-145649671D01*
X92611381Y-145632607D01*
X92611306Y-145632560D01*
X92599008Y-145611120D01*
X92600147Y-145575955D01*
X92612546Y-145534193D01*
X92634028Y-145492962D01*
X92662416Y-145459392D01*
X92664821Y-145457333D01*
X92675910Y-145443747D01*
X92696405Y-145415437D01*
X92714834Y-145388815D01*
X92738490Y-145347387D01*
X92743276Y-145322980D01*
X92731031Y-145316812D01*
X92703596Y-145330101D01*
X92668862Y-145358385D01*
X92607950Y-145412440D01*
X92553567Y-145454856D01*
X92495077Y-145493594D01*
X92460422Y-145514390D01*
X92419597Y-145540465D01*
X92388269Y-145564465D01*
X92373056Y-145581306D01*
X92372924Y-145581629D01*
X92357956Y-145596517D01*
X92325348Y-145617538D01*
X92281464Y-145640703D01*
X92270086Y-145646081D01*
X92221593Y-145670418D01*
X92180050Y-145694720D01*
X92153297Y-145714334D01*
X92150735Y-145716921D01*
X92131163Y-145736097D01*
X92113917Y-145741633D01*
X92091110Y-145732990D01*
X92056040Y-145710424D01*
X92016081Y-145678473D01*
X91991592Y-145643808D01*
X91979421Y-145599174D01*
X91976416Y-145537315D01*
X91976538Y-145527428D01*
X91979095Y-145474895D01*
X91986312Y-145438686D01*
X92000777Y-145409158D01*
X92012811Y-145392205D01*
X92039482Y-145352350D01*
X92061297Y-145311716D01*
X92064487Y-145304282D01*
X92078707Y-145276060D01*
X92091429Y-145262231D01*
X92092863Y-145261949D01*
X92103167Y-145251445D01*
X92104308Y-145243390D01*
X92113181Y-145224871D01*
X92136111Y-145196313D01*
X92159320Y-145172487D01*
X92187407Y-145143261D01*
X92204042Y-145120946D01*
X92206087Y-145111899D01*
X92190869Y-145112438D01*
X92158761Y-145121706D01*
X92116619Y-145137711D01*
X92115255Y-145138282D01*
X92045473Y-145161691D01*
X91971814Y-145176594D01*
X91901537Y-145182302D01*
X91841897Y-145178126D01*
X91807400Y-145167546D01*
X91777523Y-145156437D01*
X91757364Y-145155619D01*
X91756410Y-145156151D01*
X91744358Y-145170635D01*
X91723465Y-145201438D01*
X91697929Y-145242325D01*
X91693969Y-145248923D01*
X91666086Y-145293243D01*
X91640001Y-145330651D01*
X91621006Y-145353596D01*
X91619867Y-145354656D01*
X91601326Y-145379134D01*
X91596308Y-145396248D01*
X91588288Y-145415119D01*
X91566935Y-145447431D01*
X91536309Y-145487230D01*
X91524812Y-145501049D01*
X91473639Y-145555757D01*
X91428267Y-145591162D01*
X91395393Y-145607445D01*
X91359659Y-145624061D01*
X91335525Y-145640796D01*
X91330686Y-145647243D01*
X91315102Y-145663244D01*
X91284844Y-145680970D01*
X91275535Y-145685130D01*
X91239030Y-145705150D01*
X91211305Y-145728478D01*
X91208114Y-145732541D01*
X91175773Y-145761735D01*
X91127026Y-145786851D01*
X91071517Y-145803802D01*
X91028309Y-145808740D01*
X90988175Y-145804237D01*
X90949917Y-145787445D01*
X90913648Y-145762315D01*
X90843173Y-145704991D01*
X90793431Y-145654357D01*
X90761919Y-145605321D01*
X90746133Y-145552794D01*
X90745405Y-145535415D01*
X90945819Y-145535415D01*
X90951320Y-145560789D01*
X90970023Y-145584454D01*
X90997395Y-145598794D01*
X91008191Y-145600201D01*
X91027467Y-145594021D01*
X91061562Y-145577378D01*
X91103313Y-145553789D01*
X91105883Y-145552243D01*
X91154671Y-145519046D01*
X91209878Y-145475415D01*
X91267941Y-145424891D01*
X91325296Y-145371014D01*
X91378379Y-145317324D01*
X91423625Y-145267360D01*
X91457472Y-145224664D01*
X91476355Y-145192775D01*
X91479077Y-145181556D01*
X91486125Y-145158015D01*
X91499913Y-145133793D01*
X91513262Y-145109423D01*
X91509317Y-145091203D01*
X91502432Y-145082049D01*
X91483797Y-145053765D01*
X91468030Y-145022432D01*
X91457948Y-145001823D01*
X91445438Y-144991383D01*
X91423173Y-144988844D01*
X91383829Y-144991940D01*
X91373119Y-144993051D01*
X91324408Y-145001096D01*
X91274898Y-145014051D01*
X91230702Y-145029657D01*
X91197934Y-145045652D01*
X91182709Y-145059778D01*
X91182531Y-145063504D01*
X91176206Y-145078629D01*
X91156210Y-145103973D01*
X91143667Y-145117247D01*
X91118155Y-145146498D01*
X91103077Y-145170814D01*
X91101334Y-145177637D01*
X91091449Y-145199909D01*
X91084300Y-145205942D01*
X91067653Y-145225599D01*
X91046584Y-145263525D01*
X91023860Y-145312951D01*
X91002247Y-145367106D01*
X90984510Y-145419221D01*
X90973417Y-145462523D01*
X90971077Y-145483071D01*
X90964991Y-145507817D01*
X90958052Y-145515949D01*
X90945819Y-145535415D01*
X90745405Y-145535415D01*
X90743570Y-145491685D01*
X90749894Y-145429361D01*
X90758661Y-145373742D01*
X90768465Y-145320963D01*
X90776944Y-145283429D01*
X90784349Y-145250662D01*
X90786260Y-145230536D01*
X90785529Y-145228366D01*
X90770368Y-145223706D01*
X90737642Y-145217718D01*
X90695598Y-145211498D01*
X90652481Y-145206144D01*
X90616538Y-145202752D01*
X90596014Y-145202419D01*
X90594285Y-145202925D01*
X90584091Y-145217527D01*
X90565985Y-145251128D01*
X90542449Y-145298842D01*
X90515970Y-145355780D01*
X90511297Y-145366154D01*
X90496143Y-145402935D01*
X90477316Y-145452665D01*
X90461743Y-145496410D01*
X90444972Y-145542047D01*
X90429389Y-145579163D01*
X90418740Y-145599124D01*
X90405996Y-145622735D01*
X90403914Y-145631688D01*
X90398612Y-145656440D01*
X90395436Y-145665744D01*
X90387707Y-145689819D01*
X90377127Y-145727416D01*
X90372784Y-145743897D01*
X90360892Y-145785583D01*
X90349097Y-145820192D01*
X90345601Y-145828564D01*
X90336760Y-145853182D01*
X90324165Y-145895035D01*
X90310219Y-145946042D01*
X90307072Y-145958223D01*
X90293389Y-146007806D01*
X90280492Y-146047704D01*
X90270661Y-146071042D01*
X90268774Y-146073668D01*
X90249977Y-146079544D01*
X90234094Y-146065719D01*
X90228616Y-146042718D01*
X90224456Y-146021287D01*
X90210164Y-146021434D01*
X90187172Y-146039117D01*
X90169290Y-146052247D01*
X90153854Y-146049788D01*
X90130787Y-146030333D01*
X90107266Y-146000878D01*
X90100334Y-145968120D01*
X90109723Y-145925556D01*
X90124946Y-145888456D01*
X90140260Y-145844501D01*
X90143626Y-145810024D01*
X90142381Y-145804086D01*
X90132640Y-145745099D01*
X90134820Y-145676913D01*
X90147538Y-145609914D01*
X90169408Y-145554489D01*
X90177310Y-145542000D01*
X90184369Y-145524227D01*
X90195456Y-145487527D01*
X90208689Y-145438345D01*
X90215362Y-145411744D01*
X90231853Y-145347737D01*
X90250029Y-145282341D01*
X90266565Y-145227411D01*
X90270168Y-145216359D01*
X90291418Y-145151361D01*
X90304365Y-145105973D01*
X90309380Y-145075240D01*
X90306832Y-145054207D01*
X90297090Y-145037918D01*
X90284439Y-145025041D01*
X90254480Y-144990478D01*
X90232351Y-144955846D01*
X90210101Y-144921919D01*
X90178713Y-144884810D01*
X90168460Y-144874464D01*
X90142088Y-144845216D01*
X90126354Y-144820197D01*
X90124411Y-144812593D01*
X90118991Y-144794405D01*
X90106021Y-144796445D01*
X90090434Y-144816075D01*
X90081821Y-144835359D01*
X90072273Y-144866416D01*
X90069138Y-144885983D01*
X90069318Y-144886996D01*
X90064683Y-144902419D01*
X90049602Y-144935848D01*
X90026523Y-144982650D01*
X89997894Y-145038197D01*
X89966163Y-145097855D01*
X89933780Y-145156995D01*
X89903193Y-145210986D01*
X89876850Y-145255196D01*
X89864184Y-145274974D01*
X89843898Y-145310444D01*
X89824938Y-145351226D01*
X89824397Y-145352569D01*
X89806784Y-145388532D01*
X89787900Y-145416011D01*
X89786202Y-145417799D01*
X89773394Y-145436631D01*
X89751355Y-145475610D01*
X89721852Y-145531263D01*
X89686653Y-145600120D01*
X89647525Y-145678712D01*
X89606235Y-145763568D01*
X89564549Y-145851217D01*
X89553809Y-145874154D01*
X89519150Y-145955003D01*
X89487738Y-146040536D01*
X89461582Y-146124177D01*
X89442696Y-146199348D01*
X89433091Y-146259475D01*
X89432382Y-146271161D01*
X89430311Y-146311400D01*
X89423506Y-146333330D01*
X89406105Y-146341025D01*
X89372246Y-146338565D01*
X89342052Y-146333982D01*
X89307754Y-146319786D01*
X89284318Y-146288153D01*
X89270886Y-146236846D01*
X89266597Y-146163629D01*
X89266925Y-146138599D01*
X89279540Y-146022761D01*
X89309855Y-145902212D01*
X89354844Y-145788026D01*
X89371672Y-145754959D01*
X89457377Y-145595528D01*
X89542471Y-145434448D01*
X89564554Y-145392226D01*
X89595595Y-145334806D01*
X89625470Y-145283106D01*
X89650529Y-145243243D01*
X89665624Y-145222892D01*
X89681787Y-145200074D01*
X89706617Y-145158840D01*
X89737289Y-145104152D01*
X89770978Y-145040974D01*
X89787972Y-145007949D01*
X89827424Y-144928235D01*
X89855087Y-144866974D01*
X89872505Y-144820240D01*
X89881226Y-144784107D01*
X89882889Y-144766974D01*
X89886937Y-144734269D01*
X89898265Y-144699994D01*
X89919552Y-144658111D01*
X89953473Y-144602581D01*
X89960832Y-144591128D01*
X89992596Y-144542514D01*
X90019479Y-144502447D01*
X90038188Y-144475767D01*
X90044964Y-144467385D01*
X90055528Y-144454316D01*
X90076758Y-144424768D01*
X90104934Y-144383980D01*
X90120041Y-144361639D01*
X90153419Y-144308456D01*
X90172896Y-144269500D01*
X90177162Y-144247461D01*
X90176466Y-144245872D01*
X90164240Y-144238305D01*
X90144321Y-144250029D01*
X90137057Y-144256532D01*
X90103880Y-144281739D01*
X90065831Y-144303674D01*
X90031876Y-144323404D01*
X90006887Y-144344031D01*
X90005970Y-144345098D01*
X89979021Y-144366293D01*
X89933565Y-144390522D01*
X89875314Y-144415840D01*
X89809983Y-144440301D01*
X89743282Y-144461960D01*
X89680924Y-144478870D01*
X89628621Y-144489087D01*
X89592086Y-144490665D01*
X89584054Y-144488805D01*
X89569146Y-144470646D01*
X89564308Y-144441742D01*
X89558801Y-144410829D01*
X89544350Y-144402256D01*
X89524023Y-144390680D01*
X89510492Y-144361193D01*
X89506759Y-144321660D01*
X89508206Y-144307646D01*
X89529241Y-144237697D01*
X89548370Y-144206024D01*
X90205758Y-144206024D01*
X90207540Y-144206872D01*
X90219427Y-144197702D01*
X90222103Y-144193846D01*
X90225422Y-144181669D01*
X90223640Y-144180820D01*
X90211753Y-144189990D01*
X90209077Y-144193846D01*
X90205758Y-144206024D01*
X89548370Y-144206024D01*
X89571417Y-144167867D01*
X89576316Y-144162409D01*
X89850872Y-144162409D01*
X89854567Y-144167132D01*
X89868631Y-144162514D01*
X89897534Y-144146648D01*
X89921982Y-144132069D01*
X89960666Y-144106126D01*
X89979880Y-144087361D01*
X89978024Y-144077595D01*
X89970669Y-144076615D01*
X89955679Y-144083566D01*
X89928757Y-144100768D01*
X89897548Y-144122749D01*
X89869693Y-144144034D01*
X89852836Y-144159150D01*
X89850872Y-144162409D01*
X89576316Y-144162409D01*
X89636572Y-144095289D01*
X89656410Y-144076615D01*
X89707823Y-144029215D01*
X90024708Y-144029215D01*
X90029456Y-144032177D01*
X90052529Y-144020575D01*
X90055145Y-144019153D01*
X90080309Y-144001754D01*
X90118091Y-143971224D01*
X90162429Y-143932589D01*
X90189539Y-143907719D01*
X90244402Y-143858411D01*
X90286378Y-143827459D01*
X90320013Y-143813860D01*
X90349855Y-143816613D01*
X90380452Y-143834716D01*
X90408449Y-143859502D01*
X90451514Y-143900769D01*
X90508242Y-143835641D01*
X90559813Y-143769264D01*
X90600476Y-143702563D01*
X90628464Y-143639797D01*
X90642012Y-143585225D01*
X90639356Y-143543108D01*
X90634131Y-143531876D01*
X90616311Y-143526439D01*
X90582336Y-143534825D01*
X90536368Y-143554556D01*
X90482570Y-143583150D01*
X90425105Y-143618128D01*
X90368136Y-143657009D01*
X90315826Y-143697312D01*
X90272337Y-143736558D01*
X90250822Y-143760264D01*
X90230707Y-143783335D01*
X90198637Y-143818250D01*
X90160866Y-143858225D01*
X90153129Y-143866279D01*
X90109281Y-143912175D01*
X90079529Y-143944674D01*
X90059638Y-143968884D01*
X90045371Y-143989918D01*
X90034112Y-144009841D01*
X90024708Y-144029215D01*
X89707823Y-144029215D01*
X89727515Y-144011061D01*
X89784017Y-143957654D01*
X89830915Y-143911386D01*
X89873210Y-143867249D01*
X89915903Y-143820235D01*
X89942052Y-143790553D01*
X90011519Y-143713836D01*
X90084128Y-143638492D01*
X90155553Y-143568682D01*
X90221465Y-143508565D01*
X90277537Y-143462300D01*
X90301644Y-143444913D01*
X90380853Y-143397506D01*
X90463760Y-143357688D01*
X90543825Y-143328026D01*
X90614511Y-143311089D01*
X90649955Y-143308103D01*
X90696814Y-143305917D01*
X90737545Y-143300331D01*
X90753726Y-143296000D01*
X90789426Y-143293437D01*
X90820948Y-143308583D01*
X90820948Y-143308583D01*
G37*
X90820948Y-143308583D02*
X90839228Y-143336037D01*
X90840821Y-143347918D01*
X90848965Y-143368629D01*
X90859901Y-143373231D01*
X90878322Y-143382221D01*
X90894474Y-143402059D01*
X90900928Y-143422040D01*
X90898334Y-143428606D01*
X90894016Y-143443800D01*
X90888344Y-143478446D01*
X90882325Y-143526051D01*
X90880353Y-143544293D01*
X90867736Y-143625706D01*
X90846105Y-143696552D01*
X90825047Y-143744462D01*
X90786977Y-143817970D01*
X90746534Y-143887002D01*
X90708164Y-143944296D01*
X90684513Y-143973986D01*
X90648770Y-144014621D01*
X90612835Y-144057182D01*
X90570471Y-144109130D01*
X90544299Y-144141744D01*
X90505605Y-144188568D01*
X90466209Y-144233703D01*
X90433921Y-144268234D01*
X90430761Y-144271373D01*
X90403983Y-144300847D01*
X90387473Y-144325197D01*
X90384924Y-144333245D01*
X90376956Y-144348819D01*
X90371898Y-144350154D01*
X90361279Y-144361052D01*
X90358872Y-144375940D01*
X90371866Y-144401576D01*
X90410762Y-144428183D01*
X90413415Y-144429552D01*
X90450369Y-144450242D01*
X90479141Y-144469545D01*
X90485986Y-144475407D01*
X90505400Y-144490478D01*
X90513604Y-144493436D01*
X90526805Y-144505068D01*
X90541695Y-144535082D01*
X90555728Y-144576157D01*
X90566357Y-144620969D01*
X90570898Y-144658191D01*
X90574965Y-144694246D01*
X90582127Y-144716151D01*
X90586821Y-144719399D01*
X90600407Y-144707607D01*
X90619098Y-144680332D01*
X90626419Y-144667296D01*
X90663511Y-144598025D01*
X90691784Y-144547200D01*
X90714140Y-144510001D01*
X90733482Y-144481609D01*
X90752713Y-144457204D01*
X90753583Y-144456169D01*
X90783092Y-144415687D01*
X90811472Y-144368406D01*
X90818237Y-144355220D01*
X90837149Y-144321953D01*
X90854160Y-144301339D01*
X90860633Y-144298051D01*
X90873659Y-144287129D01*
X90891675Y-144259013D01*
X90904611Y-144233095D01*
X90927370Y-144191042D01*
X90952829Y-144155890D01*
X90965548Y-144143297D01*
X90987859Y-144122159D01*
X90997129Y-144106249D01*
X91007390Y-144091817D01*
X91029099Y-144076933D01*
X91050240Y-144058936D01*
X91079577Y-144025997D01*
X91111556Y-143985305D01*
X91140626Y-143944046D01*
X91161235Y-143909409D01*
X91165187Y-143900769D01*
X91177372Y-143882582D01*
X91197751Y-143859139D01*
X91240143Y-143814036D01*
X91269208Y-143780914D01*
X91290204Y-143753494D01*
X91304731Y-143731436D01*
X91351774Y-143665002D01*
X91397597Y-143617386D01*
X91440064Y-143590091D01*
X91477041Y-143584622D01*
X91498785Y-143594807D01*
X91515214Y-143616398D01*
X91518154Y-143627739D01*
X91527771Y-143646800D01*
X91550512Y-143668478D01*
X91582870Y-143692359D01*
X91544912Y-143771673D01*
X91520411Y-143816048D01*
X91494291Y-143852852D01*
X91474592Y-143872192D01*
X91452456Y-143892710D01*
X91422070Y-143928614D01*
X91388988Y-143973193D01*
X91379244Y-143987440D01*
X91336158Y-144050549D01*
X91301877Y-144097340D01*
X91271680Y-144133764D01*
X91240847Y-144165770D01*
X91228334Y-144177683D01*
X91204801Y-144204183D01*
X91192877Y-144226408D01*
X91192513Y-144229332D01*
X91186698Y-144241837D01*
X91181730Y-144240822D01*
X91169081Y-144246577D01*
X91146680Y-144266726D01*
X91120355Y-144294784D01*
X91095934Y-144324265D01*
X91079244Y-144348684D01*
X91075283Y-144359271D01*
X91065498Y-144373728D01*
X91049470Y-144386058D01*
X91029017Y-144406606D01*
X91004925Y-144441536D01*
X90991459Y-144465720D01*
X90970233Y-144502536D01*
X90950355Y-144528738D01*
X90940788Y-144536350D01*
X90924349Y-144551520D01*
X90903720Y-144581906D01*
X90893952Y-144599848D01*
X90874678Y-144637542D01*
X90858759Y-144667588D01*
X90854163Y-144675795D01*
X90843965Y-144695898D01*
X90826275Y-144733285D01*
X90804156Y-144781425D01*
X90793038Y-144806051D01*
X90767551Y-144859280D01*
X90741989Y-144906741D01*
X90720545Y-144940849D01*
X90713927Y-144949200D01*
X90693311Y-144972935D01*
X90684664Y-144988631D01*
X90690897Y-144997804D01*
X90714923Y-145001965D01*
X90759654Y-145002628D01*
X90814770Y-145001603D01*
X90875802Y-144996731D01*
X90922735Y-144982298D01*
X90966659Y-144953784D01*
X90996914Y-144927358D01*
X91027399Y-144903774D01*
X91055314Y-144889210D01*
X91055744Y-144889077D01*
X91086230Y-144874342D01*
X91107847Y-144858942D01*
X91135930Y-144840678D01*
X91180156Y-144817826D01*
X91232024Y-144794242D01*
X91283030Y-144773780D01*
X91324675Y-144760297D01*
X91326193Y-144759916D01*
X91392540Y-144755537D01*
X91459388Y-144771513D01*
X91516328Y-144805178D01*
X91521669Y-144809968D01*
X91550534Y-144840386D01*
X91570860Y-144867860D01*
X91574842Y-144875903D01*
X91585259Y-144892248D01*
X91601561Y-144885233D01*
X91603068Y-144884000D01*
X91628593Y-144872903D01*
X91665747Y-144866809D01*
X91671614Y-144866549D01*
X91709552Y-144870404D01*
X91740687Y-144888088D01*
X91760854Y-144907298D01*
X91788869Y-144931498D01*
X91819697Y-144945116D01*
X91858210Y-144948309D01*
X91909278Y-144941229D01*
X91977773Y-144924034D01*
X92008415Y-144915165D01*
X92098370Y-144889719D01*
X92179306Y-144869103D01*
X92246674Y-144854366D01*
X92295924Y-144846556D01*
X92310548Y-144845586D01*
X92337363Y-144854676D01*
X92370336Y-144877835D01*
X92401774Y-144907944D01*
X92423980Y-144937880D01*
X92429949Y-144956083D01*
X92437468Y-144973258D01*
X92443744Y-144975385D01*
X92451807Y-144983229D01*
X92450067Y-144987472D01*
X92453933Y-145000616D01*
X92465621Y-145006868D01*
X92481937Y-145022525D01*
X92499474Y-145054030D01*
X92513922Y-145091775D01*
X92520975Y-145126151D01*
X92521129Y-145130674D01*
X92510621Y-145143337D01*
X92483599Y-145162659D01*
X92459257Y-145177011D01*
X92406169Y-145215107D01*
X92360583Y-145264175D01*
X92329533Y-145316011D01*
X92322549Y-145336504D01*
X92319215Y-145355744D01*
X92327241Y-145357821D01*
X92349848Y-145346187D01*
X92406643Y-145309602D01*
X92457883Y-145268048D01*
X92485844Y-145239154D01*
X92507422Y-145217940D01*
X92523138Y-145209846D01*
X92539820Y-145202147D01*
X92568767Y-145182339D01*
X92591919Y-145164256D01*
X92624272Y-145139074D01*
X92648651Y-145122517D01*
X92657229Y-145118667D01*
X92673603Y-145111802D01*
X92700012Y-145095179D01*
X92701477Y-145094146D01*
X92742118Y-145074139D01*
X92797370Y-145057740D01*
X92856253Y-145047243D01*
X92907793Y-145044941D01*
X92925966Y-145047254D01*
X92962930Y-145066016D01*
X92978076Y-145090565D01*
X92992296Y-145126796D01*
X93003077Y-145151231D01*
X93017007Y-145183350D01*
X93028940Y-145214161D01*
X93042912Y-145235994D01*
X93059493Y-145244863D01*
X93070852Y-145239031D01*
X93071139Y-145223532D01*
X93074966Y-145213770D01*
X93079858Y-145215510D01*
X93097670Y-145213657D01*
X93111815Y-145203453D01*
X93130942Y-145187560D01*
X93139299Y-145183795D01*
X93153230Y-145176087D01*
X93183680Y-145154802D01*
X93226874Y-145122700D01*
X93279039Y-145082540D01*
X93296154Y-145069112D01*
X93342772Y-145042262D01*
X93406624Y-145018410D01*
X93479208Y-144999475D01*
X93552022Y-144987376D01*
X93616564Y-144984033D01*
X93654026Y-144988331D01*
X93681022Y-145004406D01*
X93712763Y-145036988D01*
X93744275Y-145078879D01*
X93770584Y-145122881D01*
X93786718Y-145161795D01*
X93789073Y-145183795D01*
X93779540Y-145223343D01*
X93764640Y-145268446D01*
X93747784Y-145310193D01*
X93732383Y-145339669D01*
X93726768Y-145346615D01*
X93708418Y-145365901D01*
X93682007Y-145397009D01*
X93652242Y-145433940D01*
X93623832Y-145470696D01*
X93601483Y-145501278D01*
X93589903Y-145519687D01*
X93589231Y-145521875D01*
X93582096Y-145536045D01*
X93563365Y-145565350D01*
X93537045Y-145604069D01*
X93507145Y-145646478D01*
X93477674Y-145686853D01*
X93452641Y-145719471D01*
X93441326Y-145733043D01*
X93429114Y-145752989D01*
X93429667Y-145762350D01*
X93427300Y-145769368D01*
X93422069Y-145769949D01*
X93409306Y-145780708D01*
X93406872Y-145793395D01*
X93396053Y-145826172D01*
X93363995Y-145844324D01*
X93329008Y-145848103D01*
X93285309Y-145840862D01*
X93258679Y-145817368D01*
X93247122Y-145774964D01*
X93246635Y-145738393D01*
X93250132Y-145696365D01*
X93255714Y-145663176D01*
X93258678Y-145653726D01*
X93267317Y-145630814D01*
X93268978Y-145623833D01*
X93277491Y-145607632D01*
X93290476Y-145590692D01*
X93310536Y-145562162D01*
X93319375Y-145544680D01*
X93332222Y-145525840D01*
X93339813Y-145522462D01*
X93350652Y-145512287D01*
X93370036Y-145486301D01*
X93393585Y-145451312D01*
X93416919Y-145414128D01*
X93435657Y-145381555D01*
X93445420Y-145360403D01*
X93445949Y-145357506D01*
X93453296Y-145341490D01*
X93470140Y-145320151D01*
X93488684Y-145302039D01*
X93501136Y-145295703D01*
X93501875Y-145296165D01*
X93511367Y-145291001D01*
X93525643Y-145270418D01*
X93539809Y-145243183D01*
X93548969Y-145218063D01*
X93550154Y-145209690D01*
X93539509Y-145201051D01*
X93512764Y-145201312D01*
X93477708Y-145208979D01*
X93442129Y-145222555D01*
X93421679Y-145234352D01*
X93388562Y-145254411D01*
X93360845Y-145266736D01*
X93338532Y-145279832D01*
X93305620Y-145306233D01*
X93269665Y-145339802D01*
X93236217Y-145372005D01*
X93209478Y-145395311D01*
X93194979Y-145404913D01*
X93194656Y-145404947D01*
X93176352Y-145412532D01*
X93168605Y-145418060D01*
X93148766Y-145434100D01*
X93118947Y-145458075D01*
X93110283Y-145465023D01*
X93084444Y-145490967D01*
X93071526Y-145514406D01*
X93071206Y-145520057D01*
X93062542Y-145540550D01*
X93035641Y-145558438D01*
X92994478Y-145577503D01*
X92971842Y-145590322D01*
X92962146Y-145600501D01*
X92960172Y-145607128D01*
X92948977Y-145624468D01*
X92922095Y-145652152D01*
X92885144Y-145685527D01*
X92843741Y-145719942D01*
X92803501Y-145750744D01*
X92770041Y-145773281D01*
X92748979Y-145782901D01*
X92747876Y-145782974D01*
X92726638Y-145772490D01*
X92721573Y-145764346D01*
X92704951Y-145746875D01*
X92677674Y-145732906D01*
X92645525Y-145711229D01*
X92632126Y-145680043D01*
X92622424Y-145649671D01*
X92611381Y-145632607D01*
X92611306Y-145632560D01*
X92599008Y-145611120D01*
X92600147Y-145575955D01*
X92612546Y-145534193D01*
X92634028Y-145492962D01*
X92662416Y-145459392D01*
X92664821Y-145457333D01*
X92675910Y-145443747D01*
X92696405Y-145415437D01*
X92714834Y-145388815D01*
X92738490Y-145347387D01*
X92743276Y-145322980D01*
X92731031Y-145316812D01*
X92703596Y-145330101D01*
X92668862Y-145358385D01*
X92607950Y-145412440D01*
X92553567Y-145454856D01*
X92495077Y-145493594D01*
X92460422Y-145514390D01*
X92419597Y-145540465D01*
X92388269Y-145564465D01*
X92373056Y-145581306D01*
X92372924Y-145581629D01*
X92357956Y-145596517D01*
X92325348Y-145617538D01*
X92281464Y-145640703D01*
X92270086Y-145646081D01*
X92221593Y-145670418D01*
X92180050Y-145694720D01*
X92153297Y-145714334D01*
X92150735Y-145716921D01*
X92131163Y-145736097D01*
X92113917Y-145741633D01*
X92091110Y-145732990D01*
X92056040Y-145710424D01*
X92016081Y-145678473D01*
X91991592Y-145643808D01*
X91979421Y-145599174D01*
X91976416Y-145537315D01*
X91976538Y-145527428D01*
X91979095Y-145474895D01*
X91986312Y-145438686D01*
X92000777Y-145409158D01*
X92012811Y-145392205D01*
X92039482Y-145352350D01*
X92061297Y-145311716D01*
X92064487Y-145304282D01*
X92078707Y-145276060D01*
X92091429Y-145262231D01*
X92092863Y-145261949D01*
X92103167Y-145251445D01*
X92104308Y-145243390D01*
X92113181Y-145224871D01*
X92136111Y-145196313D01*
X92159320Y-145172487D01*
X92187407Y-145143261D01*
X92204042Y-145120946D01*
X92206087Y-145111899D01*
X92190869Y-145112438D01*
X92158761Y-145121706D01*
X92116619Y-145137711D01*
X92115255Y-145138282D01*
X92045473Y-145161691D01*
X91971814Y-145176594D01*
X91901537Y-145182302D01*
X91841897Y-145178126D01*
X91807400Y-145167546D01*
X91777523Y-145156437D01*
X91757364Y-145155619D01*
X91756410Y-145156151D01*
X91744358Y-145170635D01*
X91723465Y-145201438D01*
X91697929Y-145242325D01*
X91693969Y-145248923D01*
X91666086Y-145293243D01*
X91640001Y-145330651D01*
X91621006Y-145353596D01*
X91619867Y-145354656D01*
X91601326Y-145379134D01*
X91596308Y-145396248D01*
X91588288Y-145415119D01*
X91566935Y-145447431D01*
X91536309Y-145487230D01*
X91524812Y-145501049D01*
X91473639Y-145555757D01*
X91428267Y-145591162D01*
X91395393Y-145607445D01*
X91359659Y-145624061D01*
X91335525Y-145640796D01*
X91330686Y-145647243D01*
X91315102Y-145663244D01*
X91284844Y-145680970D01*
X91275535Y-145685130D01*
X91239030Y-145705150D01*
X91211305Y-145728478D01*
X91208114Y-145732541D01*
X91175773Y-145761735D01*
X91127026Y-145786851D01*
X91071517Y-145803802D01*
X91028309Y-145808740D01*
X90988175Y-145804237D01*
X90949917Y-145787445D01*
X90913648Y-145762315D01*
X90843173Y-145704991D01*
X90793431Y-145654357D01*
X90761919Y-145605321D01*
X90746133Y-145552794D01*
X90745405Y-145535415D01*
X90945819Y-145535415D01*
X90951320Y-145560789D01*
X90970023Y-145584454D01*
X90997395Y-145598794D01*
X91008191Y-145600201D01*
X91027467Y-145594021D01*
X91061562Y-145577378D01*
X91103313Y-145553789D01*
X91105883Y-145552243D01*
X91154671Y-145519046D01*
X91209878Y-145475415D01*
X91267941Y-145424891D01*
X91325296Y-145371014D01*
X91378379Y-145317324D01*
X91423625Y-145267360D01*
X91457472Y-145224664D01*
X91476355Y-145192775D01*
X91479077Y-145181556D01*
X91486125Y-145158015D01*
X91499913Y-145133793D01*
X91513262Y-145109423D01*
X91509317Y-145091203D01*
X91502432Y-145082049D01*
X91483797Y-145053765D01*
X91468030Y-145022432D01*
X91457948Y-145001823D01*
X91445438Y-144991383D01*
X91423173Y-144988844D01*
X91383829Y-144991940D01*
X91373119Y-144993051D01*
X91324408Y-145001096D01*
X91274898Y-145014051D01*
X91230702Y-145029657D01*
X91197934Y-145045652D01*
X91182709Y-145059778D01*
X91182531Y-145063504D01*
X91176206Y-145078629D01*
X91156210Y-145103973D01*
X91143667Y-145117247D01*
X91118155Y-145146498D01*
X91103077Y-145170814D01*
X91101334Y-145177637D01*
X91091449Y-145199909D01*
X91084300Y-145205942D01*
X91067653Y-145225599D01*
X91046584Y-145263525D01*
X91023860Y-145312951D01*
X91002247Y-145367106D01*
X90984510Y-145419221D01*
X90973417Y-145462523D01*
X90971077Y-145483071D01*
X90964991Y-145507817D01*
X90958052Y-145515949D01*
X90945819Y-145535415D01*
X90745405Y-145535415D01*
X90743570Y-145491685D01*
X90749894Y-145429361D01*
X90758661Y-145373742D01*
X90768465Y-145320963D01*
X90776944Y-145283429D01*
X90784349Y-145250662D01*
X90786260Y-145230536D01*
X90785529Y-145228366D01*
X90770368Y-145223706D01*
X90737642Y-145217718D01*
X90695598Y-145211498D01*
X90652481Y-145206144D01*
X90616538Y-145202752D01*
X90596014Y-145202419D01*
X90594285Y-145202925D01*
X90584091Y-145217527D01*
X90565985Y-145251128D01*
X90542449Y-145298842D01*
X90515970Y-145355780D01*
X90511297Y-145366154D01*
X90496143Y-145402935D01*
X90477316Y-145452665D01*
X90461743Y-145496410D01*
X90444972Y-145542047D01*
X90429389Y-145579163D01*
X90418740Y-145599124D01*
X90405996Y-145622735D01*
X90403914Y-145631688D01*
X90398612Y-145656440D01*
X90395436Y-145665744D01*
X90387707Y-145689819D01*
X90377127Y-145727416D01*
X90372784Y-145743897D01*
X90360892Y-145785583D01*
X90349097Y-145820192D01*
X90345601Y-145828564D01*
X90336760Y-145853182D01*
X90324165Y-145895035D01*
X90310219Y-145946042D01*
X90307072Y-145958223D01*
X90293389Y-146007806D01*
X90280492Y-146047704D01*
X90270661Y-146071042D01*
X90268774Y-146073668D01*
X90249977Y-146079544D01*
X90234094Y-146065719D01*
X90228616Y-146042718D01*
X90224456Y-146021287D01*
X90210164Y-146021434D01*
X90187172Y-146039117D01*
X90169290Y-146052247D01*
X90153854Y-146049788D01*
X90130787Y-146030333D01*
X90107266Y-146000878D01*
X90100334Y-145968120D01*
X90109723Y-145925556D01*
X90124946Y-145888456D01*
X90140260Y-145844501D01*
X90143626Y-145810024D01*
X90142381Y-145804086D01*
X90132640Y-145745099D01*
X90134820Y-145676913D01*
X90147538Y-145609914D01*
X90169408Y-145554489D01*
X90177310Y-145542000D01*
X90184369Y-145524227D01*
X90195456Y-145487527D01*
X90208689Y-145438345D01*
X90215362Y-145411744D01*
X90231853Y-145347737D01*
X90250029Y-145282341D01*
X90266565Y-145227411D01*
X90270168Y-145216359D01*
X90291418Y-145151361D01*
X90304365Y-145105973D01*
X90309380Y-145075240D01*
X90306832Y-145054207D01*
X90297090Y-145037918D01*
X90284439Y-145025041D01*
X90254480Y-144990478D01*
X90232351Y-144955846D01*
X90210101Y-144921919D01*
X90178713Y-144884810D01*
X90168460Y-144874464D01*
X90142088Y-144845216D01*
X90126354Y-144820197D01*
X90124411Y-144812593D01*
X90118991Y-144794405D01*
X90106021Y-144796445D01*
X90090434Y-144816075D01*
X90081821Y-144835359D01*
X90072273Y-144866416D01*
X90069138Y-144885983D01*
X90069318Y-144886996D01*
X90064683Y-144902419D01*
X90049602Y-144935848D01*
X90026523Y-144982650D01*
X89997894Y-145038197D01*
X89966163Y-145097855D01*
X89933780Y-145156995D01*
X89903193Y-145210986D01*
X89876850Y-145255196D01*
X89864184Y-145274974D01*
X89843898Y-145310444D01*
X89824938Y-145351226D01*
X89824397Y-145352569D01*
X89806784Y-145388532D01*
X89787900Y-145416011D01*
X89786202Y-145417799D01*
X89773394Y-145436631D01*
X89751355Y-145475610D01*
X89721852Y-145531263D01*
X89686653Y-145600120D01*
X89647525Y-145678712D01*
X89606235Y-145763568D01*
X89564549Y-145851217D01*
X89553809Y-145874154D01*
X89519150Y-145955003D01*
X89487738Y-146040536D01*
X89461582Y-146124177D01*
X89442696Y-146199348D01*
X89433091Y-146259475D01*
X89432382Y-146271161D01*
X89430311Y-146311400D01*
X89423506Y-146333330D01*
X89406105Y-146341025D01*
X89372246Y-146338565D01*
X89342052Y-146333982D01*
X89307754Y-146319786D01*
X89284318Y-146288153D01*
X89270886Y-146236846D01*
X89266597Y-146163629D01*
X89266925Y-146138599D01*
X89279540Y-146022761D01*
X89309855Y-145902212D01*
X89354844Y-145788026D01*
X89371672Y-145754959D01*
X89457377Y-145595528D01*
X89542471Y-145434448D01*
X89564554Y-145392226D01*
X89595595Y-145334806D01*
X89625470Y-145283106D01*
X89650529Y-145243243D01*
X89665624Y-145222892D01*
X89681787Y-145200074D01*
X89706617Y-145158840D01*
X89737289Y-145104152D01*
X89770978Y-145040974D01*
X89787972Y-145007949D01*
X89827424Y-144928235D01*
X89855087Y-144866974D01*
X89872505Y-144820240D01*
X89881226Y-144784107D01*
X89882889Y-144766974D01*
X89886937Y-144734269D01*
X89898265Y-144699994D01*
X89919552Y-144658111D01*
X89953473Y-144602581D01*
X89960832Y-144591128D01*
X89992596Y-144542514D01*
X90019479Y-144502447D01*
X90038188Y-144475767D01*
X90044964Y-144467385D01*
X90055528Y-144454316D01*
X90076758Y-144424768D01*
X90104934Y-144383980D01*
X90120041Y-144361639D01*
X90153419Y-144308456D01*
X90172896Y-144269500D01*
X90177162Y-144247461D01*
X90176466Y-144245872D01*
X90164240Y-144238305D01*
X90144321Y-144250029D01*
X90137057Y-144256532D01*
X90103880Y-144281739D01*
X90065831Y-144303674D01*
X90031876Y-144323404D01*
X90006887Y-144344031D01*
X90005970Y-144345098D01*
X89979021Y-144366293D01*
X89933565Y-144390522D01*
X89875314Y-144415840D01*
X89809983Y-144440301D01*
X89743282Y-144461960D01*
X89680924Y-144478870D01*
X89628621Y-144489087D01*
X89592086Y-144490665D01*
X89584054Y-144488805D01*
X89569146Y-144470646D01*
X89564308Y-144441742D01*
X89558801Y-144410829D01*
X89544350Y-144402256D01*
X89524023Y-144390680D01*
X89510492Y-144361193D01*
X89506759Y-144321660D01*
X89508206Y-144307646D01*
X89529241Y-144237697D01*
X89548370Y-144206024D01*
X90205758Y-144206024D01*
X90207540Y-144206872D01*
X90219427Y-144197702D01*
X90222103Y-144193846D01*
X90225422Y-144181669D01*
X90223640Y-144180820D01*
X90211753Y-144189990D01*
X90209077Y-144193846D01*
X90205758Y-144206024D01*
X89548370Y-144206024D01*
X89571417Y-144167867D01*
X89576316Y-144162409D01*
X89850872Y-144162409D01*
X89854567Y-144167132D01*
X89868631Y-144162514D01*
X89897534Y-144146648D01*
X89921982Y-144132069D01*
X89960666Y-144106126D01*
X89979880Y-144087361D01*
X89978024Y-144077595D01*
X89970669Y-144076615D01*
X89955679Y-144083566D01*
X89928757Y-144100768D01*
X89897548Y-144122749D01*
X89869693Y-144144034D01*
X89852836Y-144159150D01*
X89850872Y-144162409D01*
X89576316Y-144162409D01*
X89636572Y-144095289D01*
X89656410Y-144076615D01*
X89707823Y-144029215D01*
X90024708Y-144029215D01*
X90029456Y-144032177D01*
X90052529Y-144020575D01*
X90055145Y-144019153D01*
X90080309Y-144001754D01*
X90118091Y-143971224D01*
X90162429Y-143932589D01*
X90189539Y-143907719D01*
X90244402Y-143858411D01*
X90286378Y-143827459D01*
X90320013Y-143813860D01*
X90349855Y-143816613D01*
X90380452Y-143834716D01*
X90408449Y-143859502D01*
X90451514Y-143900769D01*
X90508242Y-143835641D01*
X90559813Y-143769264D01*
X90600476Y-143702563D01*
X90628464Y-143639797D01*
X90642012Y-143585225D01*
X90639356Y-143543108D01*
X90634131Y-143531876D01*
X90616311Y-143526439D01*
X90582336Y-143534825D01*
X90536368Y-143554556D01*
X90482570Y-143583150D01*
X90425105Y-143618128D01*
X90368136Y-143657009D01*
X90315826Y-143697312D01*
X90272337Y-143736558D01*
X90250822Y-143760264D01*
X90230707Y-143783335D01*
X90198637Y-143818250D01*
X90160866Y-143858225D01*
X90153129Y-143866279D01*
X90109281Y-143912175D01*
X90079529Y-143944674D01*
X90059638Y-143968884D01*
X90045371Y-143989918D01*
X90034112Y-144009841D01*
X90024708Y-144029215D01*
X89707823Y-144029215D01*
X89727515Y-144011061D01*
X89784017Y-143957654D01*
X89830915Y-143911386D01*
X89873210Y-143867249D01*
X89915903Y-143820235D01*
X89942052Y-143790553D01*
X90011519Y-143713836D01*
X90084128Y-143638492D01*
X90155553Y-143568682D01*
X90221465Y-143508565D01*
X90277537Y-143462300D01*
X90301644Y-143444913D01*
X90380853Y-143397506D01*
X90463760Y-143357688D01*
X90543825Y-143328026D01*
X90614511Y-143311089D01*
X90649955Y-143308103D01*
X90696814Y-143305917D01*
X90737545Y-143300331D01*
X90753726Y-143296000D01*
X90789426Y-143293437D01*
X90820948Y-143308583D01*
G36*
X80207787Y-143902291D02*
X80315259Y-143913168D01*
X80400154Y-143934606D01*
X80464150Y-143967655D01*
X80508924Y-144013368D01*
X80536154Y-144072795D01*
X80544492Y-144113390D01*
X80554647Y-144174562D01*
X80565300Y-144210204D01*
X80576884Y-144220838D01*
X80589836Y-144206986D01*
X80600715Y-144180820D01*
X80616982Y-144151568D01*
X80642209Y-144141902D01*
X80647579Y-144141744D01*
X80673604Y-144147727D01*
X80680821Y-144167026D01*
X80688516Y-144194808D01*
X80708542Y-144201093D01*
X80733824Y-144186518D01*
X80755411Y-144170998D01*
X80765737Y-144174925D01*
X80765201Y-144199774D01*
X80754203Y-144247019D01*
X80752184Y-144254319D01*
X80728094Y-144340966D01*
X80709508Y-144409505D01*
X80694638Y-144466835D01*
X80681694Y-144519859D01*
X80668890Y-144575477D01*
X80668299Y-144578103D01*
X80638271Y-144701725D01*
X80604309Y-144820307D01*
X80564169Y-144942820D01*
X80543087Y-145009627D01*
X80522278Y-145084539D01*
X80506271Y-145151231D01*
X80491261Y-145210525D01*
X80472440Y-145268914D01*
X80453680Y-145314492D01*
X80452254Y-145317314D01*
X80434093Y-145356059D01*
X80422521Y-145387606D01*
X80420308Y-145399183D01*
X80413759Y-145425264D01*
X80402515Y-145448022D01*
X80394681Y-145466632D01*
X80384815Y-145501089D01*
X80372562Y-145553072D01*
X80357565Y-145624260D01*
X80339469Y-145716331D01*
X80317920Y-145830964D01*
X80295731Y-145952308D01*
X80284874Y-146007688D01*
X80273738Y-146057024D01*
X80264304Y-146091728D01*
X80262175Y-146097816D01*
X80253797Y-146131999D01*
X80253812Y-146156431D01*
X80262084Y-146164215D01*
X80277298Y-146150222D01*
X80297750Y-146117248D01*
X80321735Y-146068091D01*
X80347547Y-146005548D01*
X80350452Y-145997897D01*
X80370462Y-145949310D01*
X80390652Y-145907654D01*
X80406829Y-145881534D01*
X80407565Y-145880667D01*
X80429475Y-145847079D01*
X80439956Y-145822051D01*
X80450430Y-145793127D01*
X80467987Y-145750691D01*
X80485472Y-145711333D01*
X80511351Y-145654826D01*
X80539193Y-145593787D01*
X80554770Y-145559506D01*
X80573983Y-145519719D01*
X80590328Y-145490405D01*
X80599003Y-145479136D01*
X80608852Y-145464640D01*
X80625107Y-145432333D01*
X80644589Y-145388629D01*
X80648585Y-145379104D01*
X80675628Y-145321269D01*
X80704143Y-145279116D01*
X80741071Y-145242855D01*
X80750907Y-145234781D01*
X80787326Y-145207895D01*
X80817885Y-145189420D01*
X80833605Y-145183795D01*
X80858459Y-145189285D01*
X80898080Y-145203631D01*
X80944136Y-145223644D01*
X80967385Y-145234988D01*
X80981036Y-145254220D01*
X80992642Y-145293891D01*
X80997374Y-145321827D01*
X81005623Y-145372613D01*
X81015515Y-145419996D01*
X81021504Y-145442411D01*
X81027549Y-145480350D01*
X81029462Y-145539689D01*
X81027133Y-145616090D01*
X81026257Y-145631283D01*
X81022664Y-145693699D01*
X81021317Y-145733618D01*
X81022555Y-145754523D01*
X81026722Y-145759901D01*
X81034158Y-145753234D01*
X81037749Y-145748492D01*
X81058112Y-145714958D01*
X81082768Y-145666501D01*
X81107753Y-145611905D01*
X81129103Y-145559954D01*
X81142856Y-145519433D01*
X81144848Y-145511123D01*
X81158984Y-145473073D01*
X81177243Y-145445754D01*
X81195454Y-145422041D01*
X81201847Y-145406698D01*
X81211828Y-145393059D01*
X81237595Y-145371076D01*
X81263024Y-145352762D01*
X81321600Y-145323339D01*
X81376224Y-145318547D01*
X81430992Y-145338239D01*
X81444199Y-145346320D01*
X81456543Y-145355294D01*
X81465439Y-145366112D01*
X81471111Y-145382421D01*
X81473786Y-145407869D01*
X81473690Y-145446104D01*
X81471050Y-145500774D01*
X81466090Y-145575526D01*
X81461977Y-145633179D01*
X81454698Y-145734498D01*
X81449204Y-145812795D01*
X81445445Y-145871036D01*
X81443368Y-145912185D01*
X81442924Y-145939208D01*
X81444059Y-145955069D01*
X81446723Y-145962734D01*
X81450865Y-145965167D01*
X81456224Y-145965333D01*
X81474010Y-145954543D01*
X81481472Y-145940625D01*
X81494872Y-145916591D01*
X81519655Y-145884460D01*
X81532618Y-145870001D01*
X81565559Y-145830312D01*
X81599306Y-145782473D01*
X81612454Y-145761196D01*
X81638388Y-145720454D01*
X81664436Y-145685584D01*
X81676685Y-145672153D01*
X81693677Y-145651377D01*
X81720357Y-145613252D01*
X81742467Y-145579447D01*
X81973534Y-145579447D01*
X81990828Y-145606198D01*
X82024636Y-145626477D01*
X82057655Y-145621740D01*
X82086550Y-145592896D01*
X82094813Y-145577820D01*
X82114027Y-145523800D01*
X82123266Y-145468216D01*
X82121874Y-145419409D01*
X82109835Y-145386544D01*
X82097816Y-145373216D01*
X82088147Y-145374880D01*
X82076120Y-145394953D01*
X82064981Y-145419108D01*
X82041570Y-145461573D01*
X82013941Y-145498899D01*
X82004693Y-145508450D01*
X81976195Y-145545189D01*
X81973534Y-145579447D01*
X81742467Y-145579447D01*
X81753276Y-145562922D01*
X81788982Y-145505534D01*
X81794563Y-145496307D01*
X81845007Y-145415627D01*
X81887863Y-145354727D01*
X81926449Y-145309724D01*
X81964078Y-145276738D01*
X82002687Y-145252610D01*
X82045535Y-145237562D01*
X82089043Y-145234012D01*
X82123168Y-145242313D01*
X82131057Y-145248103D01*
X82157131Y-145262593D01*
X82179812Y-145251873D01*
X82197836Y-145216696D01*
X82200825Y-145206590D01*
X82227721Y-145117905D01*
X82259434Y-145030605D01*
X82292407Y-144954009D01*
X82311481Y-144916769D01*
X82334355Y-144874145D01*
X82365672Y-144813388D01*
X82402748Y-144739923D01*
X82442899Y-144659172D01*
X82483442Y-144576559D01*
X82521692Y-144497507D01*
X82554965Y-144427439D01*
X82574162Y-144385974D01*
X82597037Y-144340094D01*
X82618226Y-144305115D01*
X82634211Y-144286594D01*
X82638071Y-144285026D01*
X82660092Y-144292966D01*
X82691257Y-144312790D01*
X82724053Y-144338503D01*
X82750968Y-144364110D01*
X82764488Y-144383616D01*
X82764924Y-144386250D01*
X82761616Y-144412512D01*
X82753315Y-144453341D01*
X82742449Y-144498335D01*
X82731449Y-144537091D01*
X82726193Y-144552051D01*
X82716329Y-144580569D01*
X82704114Y-144621038D01*
X82699799Y-144636490D01*
X82684105Y-144684221D01*
X82662733Y-144737622D01*
X82652775Y-144759415D01*
X82635253Y-144799206D01*
X82623870Y-144831699D01*
X82621445Y-144844310D01*
X82616933Y-144870537D01*
X82606209Y-144907120D01*
X82592989Y-144943122D01*
X82580988Y-144967608D01*
X82578466Y-144970799D01*
X82571349Y-144989711D01*
X82569539Y-145009351D01*
X82564399Y-145036065D01*
X82556513Y-145047026D01*
X82547618Y-145064390D01*
X82543519Y-145095795D01*
X82543488Y-145098841D01*
X82537708Y-145142258D01*
X82525132Y-145179483D01*
X82511830Y-145210558D01*
X82494606Y-145256571D01*
X82477195Y-145307538D01*
X82456960Y-145363183D01*
X82429627Y-145429578D01*
X82400308Y-145494459D01*
X82393055Y-145509436D01*
X82364003Y-145568873D01*
X82343797Y-145612258D01*
X82329571Y-145646807D01*
X82318459Y-145679738D01*
X82307596Y-145718269D01*
X82302541Y-145737385D01*
X82294375Y-145775316D01*
X82285664Y-145826837D01*
X82277082Y-145886254D01*
X82269304Y-145947876D01*
X82263003Y-146006012D01*
X82258852Y-146054968D01*
X82257527Y-146089055D01*
X82259332Y-146102340D01*
X82277830Y-146103323D01*
X82308362Y-146081986D01*
X82350440Y-146038852D01*
X82403577Y-145974445D01*
X82467283Y-145889290D01*
X82497898Y-145846292D01*
X82534705Y-145795218D01*
X82577406Y-145737811D01*
X82609820Y-145695462D01*
X82643969Y-145647087D01*
X82674510Y-145595950D01*
X82693638Y-145555908D01*
X82716527Y-145510697D01*
X82747234Y-145481023D01*
X82790248Y-145464970D01*
X82850062Y-145460620D01*
X82909099Y-145463925D01*
X82980828Y-145466678D01*
X83031852Y-145459583D01*
X83065933Y-145441747D01*
X83081443Y-145422867D01*
X83112606Y-145393099D01*
X83157823Y-145376309D01*
X83206925Y-145375892D01*
X83215977Y-145377978D01*
X83265669Y-145401436D01*
X83293011Y-145436316D01*
X83297346Y-145479619D01*
X83278018Y-145528343D01*
X83255404Y-145558244D01*
X83214428Y-145622537D01*
X83192304Y-145698406D01*
X83191325Y-145774828D01*
X83197999Y-145825298D01*
X83261755Y-145817746D01*
X83313532Y-145805676D01*
X83367417Y-145783545D01*
X83416785Y-145755236D01*
X83455013Y-145724635D01*
X83475479Y-145695623D01*
X83476575Y-145691795D01*
X83502072Y-145593851D01*
X83534262Y-145496477D01*
X83570823Y-145405161D01*
X83609438Y-145325390D01*
X83647785Y-145262652D01*
X83669299Y-145235897D01*
X83695483Y-145203791D01*
X83714662Y-145174026D01*
X83731612Y-145152135D01*
X83755149Y-145146475D01*
X83790689Y-145156888D01*
X83820329Y-145170937D01*
X83864062Y-145197602D01*
X83891569Y-145227833D01*
X83905634Y-145267754D01*
X83909041Y-145323490D01*
X83907416Y-145362524D01*
X83900541Y-145428760D01*
X83887065Y-145482692D01*
X83863432Y-145537888D01*
X83859287Y-145546142D01*
X83839717Y-145587650D01*
X83827467Y-145619717D01*
X83824979Y-145635871D01*
X83825279Y-145636287D01*
X83835975Y-145636464D01*
X83855269Y-145622406D01*
X83884444Y-145592703D01*
X83924782Y-145545944D01*
X83977564Y-145480720D01*
X84044073Y-145395620D01*
X84044306Y-145395319D01*
X84103473Y-145320215D01*
X84150255Y-145264788D01*
X84186912Y-145227172D01*
X84215704Y-145205497D01*
X84238892Y-145197896D01*
X84258735Y-145202502D01*
X84269050Y-145209568D01*
X84289246Y-145235421D01*
X84295810Y-145250099D01*
X84310424Y-145270588D01*
X84322365Y-145274974D01*
X84336671Y-145277996D01*
X84338269Y-145289773D01*
X84326067Y-145314374D01*
X84301712Y-145351832D01*
X84279679Y-145387465D01*
X84265604Y-145416215D01*
X84262872Y-145426693D01*
X84257175Y-145444911D01*
X84241757Y-145480577D01*
X84219131Y-145528140D01*
X84197886Y-145570329D01*
X84171985Y-145621669D01*
X84151806Y-145663763D01*
X84139619Y-145691731D01*
X84137198Y-145700719D01*
X84148774Y-145695456D01*
X84175745Y-145677669D01*
X84212944Y-145650828D01*
X84224979Y-145641792D01*
X84312802Y-145565600D01*
X84392872Y-145477842D01*
X84456983Y-145387610D01*
X84461980Y-145379179D01*
X84487176Y-145342235D01*
X84524204Y-145295531D01*
X84566260Y-145247509D01*
X84579112Y-145233824D01*
X84618901Y-145193010D01*
X84646371Y-145168108D01*
X84666855Y-145155872D01*
X84685685Y-145153054D01*
X84706743Y-145156113D01*
X84743578Y-145170831D01*
X84770867Y-145201964D01*
X84777180Y-145212969D01*
X84803026Y-145260798D01*
X84765306Y-145332895D01*
X84740235Y-145374843D01*
X84714231Y-145409083D01*
X84697585Y-145424650D01*
X84669273Y-145449415D01*
X84653641Y-145470359D01*
X84646022Y-145491209D01*
X84652932Y-145495860D01*
X84671054Y-145487091D01*
X84697070Y-145467679D01*
X84727665Y-145440406D01*
X84759520Y-145408048D01*
X84789319Y-145373386D01*
X84813745Y-145339198D01*
X84817399Y-145333166D01*
X84854090Y-145284456D01*
X84894956Y-145259848D01*
X84944155Y-145257394D01*
X84968181Y-145262467D01*
X84996647Y-145268635D01*
X85020977Y-145267988D01*
X85049092Y-145258592D01*
X85088914Y-145238517D01*
X85107129Y-145228585D01*
X85156793Y-145199376D01*
X85203406Y-145168730D01*
X85236906Y-145143264D01*
X85236992Y-145143189D01*
X85281009Y-145113321D01*
X85317199Y-145105933D01*
X85343038Y-145120379D01*
X85355999Y-145156017D01*
X85357026Y-145173816D01*
X85347737Y-145204376D01*
X85323713Y-145243654D01*
X85290719Y-145284294D01*
X85254520Y-145318939D01*
X85230026Y-145335869D01*
X85202447Y-145353118D01*
X85188219Y-145366210D01*
X85187693Y-145367887D01*
X85176813Y-145377454D01*
X85148549Y-145394065D01*
X85109465Y-145414511D01*
X85066126Y-145435581D01*
X85025096Y-145454066D01*
X84992939Y-145466756D01*
X84977682Y-145470587D01*
X84959839Y-145479083D01*
X84929714Y-145501233D01*
X84893571Y-145532394D01*
X84890662Y-145535086D01*
X84842901Y-145578283D01*
X84790215Y-145624097D01*
X84753893Y-145654476D01*
X84708744Y-145693295D01*
X84657467Y-145740413D01*
X84614749Y-145782059D01*
X84578967Y-145815912D01*
X84548605Y-145840254D01*
X84529199Y-145850750D01*
X84526974Y-145850776D01*
X84503336Y-145853512D01*
X84483582Y-145861517D01*
X84448804Y-145868280D01*
X84419011Y-145853142D01*
X84398961Y-145820251D01*
X84393129Y-145782674D01*
X84391713Y-145754523D01*
X84386189Y-145736579D01*
X84374639Y-145729962D01*
X84355147Y-145735790D01*
X84325794Y-145755183D01*
X84284665Y-145789257D01*
X84229843Y-145839133D01*
X84159410Y-145905928D01*
X84124687Y-145939321D01*
X84094999Y-145963602D01*
X84069563Y-145977263D01*
X84063584Y-145978359D01*
X84040621Y-145985625D01*
X84034924Y-145991385D01*
X84015213Y-146002205D01*
X83983787Y-146003524D01*
X83952898Y-145996056D01*
X83937952Y-145985740D01*
X83929563Y-145962206D01*
X83928308Y-145918572D01*
X83931527Y-145875022D01*
X83934934Y-145820716D01*
X83931603Y-145790534D01*
X83920940Y-145783281D01*
X83902352Y-145797767D01*
X83896493Y-145804531D01*
X83871987Y-145825411D01*
X83839539Y-145844388D01*
X83781839Y-145873446D01*
X83745422Y-145897032D01*
X83726711Y-145917464D01*
X83726658Y-145917559D01*
X83708146Y-145930466D01*
X83672884Y-145941699D01*
X83649734Y-145945923D01*
X83607716Y-145949896D01*
X83580892Y-145945875D01*
X83559092Y-145931822D01*
X83553331Y-145926591D01*
X83530508Y-145908156D01*
X83511194Y-145906294D01*
X83484398Y-145918159D01*
X83451867Y-145937607D01*
X83410526Y-145965712D01*
X83385263Y-145984309D01*
X83349193Y-146009436D01*
X83319091Y-146026198D01*
X83305375Y-146030462D01*
X83288105Y-146036978D01*
X83285949Y-146042452D01*
X83274493Y-146056187D01*
X83244802Y-146063101D01*
X83203886Y-146062791D01*
X83158761Y-146054852D01*
X83144516Y-146050614D01*
X83079740Y-146018524D01*
X83033439Y-145970806D01*
X83005170Y-145906389D01*
X82994490Y-145824206D01*
X83000954Y-145723185D01*
X83002932Y-145709271D01*
X83012991Y-145642080D01*
X82961574Y-145633393D01*
X82915897Y-145631754D01*
X82879319Y-145641474D01*
X82858528Y-145660182D01*
X82856103Y-145670783D01*
X82847908Y-145690678D01*
X82827513Y-145719010D01*
X82820283Y-145727314D01*
X82796288Y-145757330D01*
X82765033Y-145801326D01*
X82732478Y-145850836D01*
X82725847Y-145861444D01*
X82686492Y-145920001D01*
X82639356Y-145982926D01*
X82594555Y-146036721D01*
X82594008Y-146037328D01*
X82556466Y-146080566D01*
X82523226Y-146121737D01*
X82500418Y-146153185D01*
X82497539Y-146157817D01*
X82472049Y-146188904D01*
X82435150Y-146220978D01*
X82419301Y-146231930D01*
X82377379Y-146261680D01*
X82338276Y-146294545D01*
X82327718Y-146304883D01*
X82306076Y-146329063D01*
X82301998Y-146340211D01*
X82313993Y-146343065D01*
X82315707Y-146343077D01*
X82331804Y-146346470D01*
X82325209Y-146358156D01*
X82306862Y-146366474D01*
X82291904Y-146358108D01*
X82265713Y-146349332D01*
X82234541Y-146350810D01*
X82181244Y-146349370D01*
X82134182Y-146323202D01*
X82094566Y-146273141D01*
X82080121Y-146244470D01*
X82062535Y-146206872D01*
X82048705Y-146181221D01*
X82042623Y-146173744D01*
X82032500Y-146183769D01*
X82021405Y-146201770D01*
X82012799Y-146221522D01*
X82019910Y-146224283D01*
X82027459Y-146221717D01*
X82043867Y-146217148D01*
X82046795Y-146224775D01*
X82037091Y-146249631D01*
X82033501Y-146257570D01*
X82021378Y-146279285D01*
X82011160Y-146279088D01*
X82003311Y-146269763D01*
X81991782Y-146259261D01*
X81978563Y-146264340D01*
X81957624Y-146287796D01*
X81953671Y-146292785D01*
X81926816Y-146326281D01*
X81903390Y-146354505D01*
X81899194Y-146359359D01*
X81883044Y-146387088D01*
X81879180Y-146404862D01*
X81886081Y-146410249D01*
X81906993Y-146394482D01*
X81937591Y-146362529D01*
X81966635Y-146331981D01*
X81987615Y-146313333D01*
X81996182Y-146310427D01*
X81996206Y-146310745D01*
X81987723Y-146335179D01*
X81966002Y-146368637D01*
X81937437Y-146403017D01*
X81908419Y-146430218D01*
X81895088Y-146438928D01*
X81853635Y-146450553D01*
X81799241Y-146453940D01*
X81742799Y-146449564D01*
X81695198Y-146437902D01*
X81678036Y-146429435D01*
X81637888Y-146388934D01*
X81608840Y-146330641D01*
X81593937Y-146261536D01*
X81592616Y-146233647D01*
X81590758Y-146192976D01*
X81585978Y-146164096D01*
X81581583Y-146155437D01*
X81566692Y-146159704D01*
X81542510Y-146178552D01*
X81532737Y-146188200D01*
X81509850Y-146213831D01*
X81503749Y-146228798D01*
X81512462Y-146240509D01*
X81517718Y-146244532D01*
X81537569Y-146263150D01*
X81533805Y-146273800D01*
X81505547Y-146277821D01*
X81495771Y-146277949D01*
X81455064Y-146281325D01*
X81420874Y-146289312D01*
X81385276Y-146294108D01*
X81362093Y-146289984D01*
X81335188Y-146269464D01*
X81310496Y-146234528D01*
X81295070Y-146196355D01*
X81293026Y-146180485D01*
X81287856Y-146155873D01*
X81278652Y-146130568D01*
X81803346Y-146130568D01*
X81808386Y-146157358D01*
X81821735Y-146160038D01*
X81842846Y-146139925D01*
X81860247Y-146120106D01*
X81889321Y-146088618D01*
X81921725Y-146054426D01*
X81958406Y-146012174D01*
X81994644Y-145963680D01*
X82026472Y-145915092D01*
X82049921Y-145872555D01*
X82061025Y-145842216D01*
X82061417Y-145838011D01*
X82050728Y-145821193D01*
X82031497Y-145809985D01*
X82001986Y-145794135D01*
X81967013Y-145769389D01*
X81959664Y-145763397D01*
X81929825Y-145742928D01*
X81905753Y-145734275D01*
X81900626Y-145734850D01*
X81881972Y-145752625D01*
X81860966Y-145788279D01*
X81840745Y-145834223D01*
X81824444Y-145882870D01*
X81815198Y-145926631D01*
X81814194Y-145944002D01*
X81813343Y-145987497D01*
X81809887Y-146042289D01*
X81806397Y-146079308D01*
X81803346Y-146130568D01*
X81278652Y-146130568D01*
X81275033Y-146120621D01*
X81271024Y-146111453D01*
X81256713Y-146077717D01*
X81248290Y-146053611D01*
X81247542Y-146050000D01*
X81242678Y-146030165D01*
X81232410Y-145996953D01*
X81228989Y-145986709D01*
X81219802Y-145950387D01*
X81219248Y-145913378D01*
X81227262Y-145864178D01*
X81228280Y-145859327D01*
X81238695Y-145817284D01*
X81249091Y-145786561D01*
X81255810Y-145775311D01*
X81264818Y-145758163D01*
X81266975Y-145740234D01*
X81265879Y-145720929D01*
X81258462Y-145721979D01*
X81243157Y-145737746D01*
X81226568Y-145762336D01*
X81205301Y-145802896D01*
X81183759Y-145850981D01*
X81182271Y-145854615D01*
X81157997Y-145910664D01*
X81127074Y-145977034D01*
X81095372Y-146041203D01*
X81088858Y-146053815D01*
X81064231Y-146102383D01*
X81045064Y-146142757D01*
X81034084Y-146169068D01*
X81032513Y-146175211D01*
X81024145Y-146200285D01*
X81003187Y-146233215D01*
X80975864Y-146266482D01*
X80948398Y-146292566D01*
X80927012Y-146303948D01*
X80925937Y-146304000D01*
X80891953Y-146299946D01*
X80850920Y-146289804D01*
X80812548Y-146276607D01*
X80786547Y-146263386D01*
X80781969Y-146259044D01*
X80775987Y-146236032D01*
X80773389Y-146192736D01*
X80774018Y-146134683D01*
X80777718Y-146067399D01*
X80784332Y-145996410D01*
X80790855Y-145945795D01*
X80798622Y-145889841D01*
X80801900Y-145853800D01*
X80800411Y-145831874D01*
X80793877Y-145818266D01*
X80784288Y-145809026D01*
X80772406Y-145796318D01*
X80766727Y-145778867D01*
X80766612Y-145750108D01*
X80771422Y-145703474D01*
X80772872Y-145691795D01*
X80780641Y-145634703D01*
X80789124Y-145579500D01*
X80796370Y-145538744D01*
X80801648Y-145501756D01*
X80797618Y-145485226D01*
X80792113Y-145483385D01*
X80778603Y-145494236D01*
X80757146Y-145523114D01*
X80730952Y-145564502D01*
X80703229Y-145612883D01*
X80677184Y-145662741D01*
X80656027Y-145708560D01*
X80646145Y-145734365D01*
X80632639Y-145769308D01*
X80610834Y-145819842D01*
X80584122Y-145878280D01*
X80564334Y-145919744D01*
X80537546Y-145975972D01*
X80514486Y-146026527D01*
X80497998Y-146065047D01*
X80491552Y-146082564D01*
X80480497Y-146109593D01*
X80460113Y-146150538D01*
X80434586Y-146197044D01*
X80431686Y-146202067D01*
X80407677Y-146244584D01*
X80389865Y-146278311D01*
X80381489Y-146297061D01*
X80381231Y-146298461D01*
X80375908Y-146314400D01*
X80362109Y-146346035D01*
X80347139Y-146377599D01*
X80320288Y-146423774D01*
X80297052Y-146445577D01*
X80289609Y-146447282D01*
X80267378Y-146454047D01*
X80261459Y-146461420D01*
X80247384Y-146464975D01*
X80213810Y-146455596D01*
X80184613Y-146443656D01*
X80141421Y-146422173D01*
X80132204Y-146414718D01*
X80277026Y-146414718D01*
X80283539Y-146421231D01*
X80290052Y-146414718D01*
X80283539Y-146408205D01*
X80277026Y-146414718D01*
X80132204Y-146414718D01*
X80116398Y-146401934D01*
X80102711Y-146376873D01*
X80100122Y-146368668D01*
X80087850Y-146338186D01*
X80074385Y-146321262D01*
X80073085Y-146320686D01*
X80057224Y-146326621D01*
X80028255Y-146346740D01*
X79991747Y-146377060D01*
X79982101Y-146385762D01*
X79898445Y-146452680D01*
X79818112Y-146495716D01*
X79737660Y-146516147D01*
X79653648Y-146515249D01*
X79638770Y-146513068D01*
X79537684Y-146483793D01*
X79442096Y-146431816D01*
X79357430Y-146360487D01*
X79318084Y-146315002D01*
X79289514Y-146273616D01*
X79261928Y-146226475D01*
X79238118Y-146179428D01*
X79220878Y-146138325D01*
X79213002Y-146109016D01*
X79214702Y-146098495D01*
X79212961Y-146084643D01*
X79202717Y-146054990D01*
X79193390Y-146032522D01*
X79174039Y-145977851D01*
X79154130Y-145902376D01*
X79153673Y-145900205D01*
X79336294Y-145900205D01*
X79341698Y-145962972D01*
X79359231Y-146033073D01*
X79385805Y-146102892D01*
X79418331Y-146164813D01*
X79453722Y-146211218D01*
X79467222Y-146223156D01*
X79505251Y-146254217D01*
X79541214Y-146287471D01*
X79569691Y-146317464D01*
X79585262Y-146338738D01*
X79586667Y-146343382D01*
X79597438Y-146355212D01*
X79623432Y-146370657D01*
X79655169Y-146385058D01*
X79683169Y-146393756D01*
X79690872Y-146394597D01*
X79714246Y-146389459D01*
X79749536Y-146376556D01*
X79763309Y-146370581D01*
X79805320Y-146345742D01*
X79847038Y-146311724D01*
X79882584Y-146274497D01*
X79906075Y-146240034D01*
X79912250Y-146219333D01*
X79918065Y-146193343D01*
X79932785Y-146155003D01*
X79944927Y-146129203D01*
X79963062Y-146090708D01*
X79974863Y-146060384D01*
X79977436Y-146049067D01*
X79982822Y-146032208D01*
X79997656Y-145996457D01*
X80019958Y-145946329D01*
X80047743Y-145886342D01*
X80062599Y-145855050D01*
X80093875Y-145787284D01*
X80121705Y-145722503D01*
X80143641Y-145666739D01*
X80157234Y-145626019D01*
X80159643Y-145616058D01*
X80171079Y-145570856D01*
X80188763Y-145515201D01*
X80205301Y-145470359D01*
X80219724Y-145433064D01*
X80233626Y-145394191D01*
X80248165Y-145349920D01*
X80264502Y-145296432D01*
X80283797Y-145229910D01*
X80307209Y-145146533D01*
X80335899Y-145042483D01*
X80341792Y-145020974D01*
X80375040Y-144899772D01*
X80402315Y-144800916D01*
X80424416Y-144721596D01*
X80442143Y-144659002D01*
X80456295Y-144610326D01*
X80467672Y-144572758D01*
X80477074Y-144543488D01*
X80480791Y-144532513D01*
X80496317Y-144484088D01*
X80512756Y-144427847D01*
X80519686Y-144402256D01*
X80531305Y-144358408D01*
X80541156Y-144322381D01*
X80545353Y-144307820D01*
X80543607Y-144288626D01*
X80531645Y-144285026D01*
X80507268Y-144277949D01*
X80473157Y-144260419D01*
X80438150Y-144237987D01*
X80411086Y-144216204D01*
X80401120Y-144203059D01*
X80396473Y-144181199D01*
X80390593Y-144144789D01*
X80388336Y-144128718D01*
X80379510Y-144079794D01*
X80365751Y-144051361D01*
X80341572Y-144037866D01*
X80301488Y-144033753D01*
X80294402Y-144033611D01*
X80255165Y-144035908D01*
X80216748Y-144045907D01*
X80170770Y-144066348D01*
X80133244Y-144086322D01*
X80093399Y-144111258D01*
X80046019Y-144145359D01*
X79995500Y-144184884D01*
X79946239Y-144226091D01*
X79902630Y-144265240D01*
X79869070Y-144298589D01*
X79849953Y-144322399D01*
X79847180Y-144329786D01*
X79839502Y-144345403D01*
X79820467Y-144371463D01*
X79814616Y-144378581D01*
X79793488Y-144407646D01*
X79782495Y-144430494D01*
X79782052Y-144433727D01*
X79773073Y-144451577D01*
X79750281Y-144478228D01*
X79735481Y-144492551D01*
X79715341Y-144512339D01*
X79697715Y-144534159D01*
X79680784Y-144561761D01*
X79662731Y-144598894D01*
X79641739Y-144649307D01*
X79615990Y-144716751D01*
X79583666Y-144804975D01*
X79582555Y-144808038D01*
X79556389Y-144879009D01*
X79529163Y-144950821D01*
X79504183Y-145014863D01*
X79485564Y-145060622D01*
X79435330Y-145189928D01*
X79396011Y-145313074D01*
X79368297Y-145426781D01*
X79352880Y-145527770D01*
X79350450Y-145612760D01*
X79357993Y-145665744D01*
X79360129Y-145694928D01*
X79357752Y-145739833D01*
X79351554Y-145789487D01*
X79344127Y-145837777D01*
X79338655Y-145877419D01*
X79336301Y-145899977D01*
X79336294Y-145900205D01*
X79153673Y-145900205D01*
X79134918Y-145811282D01*
X79121929Y-145737121D01*
X79123747Y-145699357D01*
X79142720Y-145673230D01*
X79162001Y-145645758D01*
X79169536Y-145604773D01*
X79169923Y-145588827D01*
X79173097Y-145528824D01*
X79181526Y-145455703D01*
X79193767Y-145377999D01*
X79208380Y-145304248D01*
X79223921Y-145242986D01*
X79232862Y-145216359D01*
X79248267Y-145170639D01*
X79264948Y-145111527D01*
X79279473Y-145051252D01*
X79280379Y-145047026D01*
X79300414Y-144956082D01*
X79317398Y-144887662D01*
X79332441Y-144838571D01*
X79346653Y-144805614D01*
X79361141Y-144785598D01*
X79374354Y-144776441D01*
X79401914Y-144750293D01*
X79419018Y-144709470D01*
X79431439Y-144664522D01*
X79443332Y-144622589D01*
X79445040Y-144616708D01*
X79458952Y-144585681D01*
X79483724Y-144544130D01*
X79510382Y-144505990D01*
X79542831Y-144461572D01*
X79582415Y-144405248D01*
X79622150Y-144347005D01*
X79634532Y-144328421D01*
X79670225Y-144277981D01*
X79710347Y-144226872D01*
X79750994Y-144179440D01*
X79788262Y-144140034D01*
X79818246Y-144112998D01*
X79837041Y-144102680D01*
X79837320Y-144102674D01*
X79850308Y-144094531D01*
X79878526Y-144072365D01*
X79917823Y-144039555D01*
X79964044Y-143999485D01*
X79964220Y-143999329D01*
X80081442Y-143895992D01*
X80207787Y-143902291D01*
X80207787Y-143902291D01*
G37*
X80207787Y-143902291D02*
X80315259Y-143913168D01*
X80400154Y-143934606D01*
X80464150Y-143967655D01*
X80508924Y-144013368D01*
X80536154Y-144072795D01*
X80544492Y-144113390D01*
X80554647Y-144174562D01*
X80565300Y-144210204D01*
X80576884Y-144220838D01*
X80589836Y-144206986D01*
X80600715Y-144180820D01*
X80616982Y-144151568D01*
X80642209Y-144141902D01*
X80647579Y-144141744D01*
X80673604Y-144147727D01*
X80680821Y-144167026D01*
X80688516Y-144194808D01*
X80708542Y-144201093D01*
X80733824Y-144186518D01*
X80755411Y-144170998D01*
X80765737Y-144174925D01*
X80765201Y-144199774D01*
X80754203Y-144247019D01*
X80752184Y-144254319D01*
X80728094Y-144340966D01*
X80709508Y-144409505D01*
X80694638Y-144466835D01*
X80681694Y-144519859D01*
X80668890Y-144575477D01*
X80668299Y-144578103D01*
X80638271Y-144701725D01*
X80604309Y-144820307D01*
X80564169Y-144942820D01*
X80543087Y-145009627D01*
X80522278Y-145084539D01*
X80506271Y-145151231D01*
X80491261Y-145210525D01*
X80472440Y-145268914D01*
X80453680Y-145314492D01*
X80452254Y-145317314D01*
X80434093Y-145356059D01*
X80422521Y-145387606D01*
X80420308Y-145399183D01*
X80413759Y-145425264D01*
X80402515Y-145448022D01*
X80394681Y-145466632D01*
X80384815Y-145501089D01*
X80372562Y-145553072D01*
X80357565Y-145624260D01*
X80339469Y-145716331D01*
X80317920Y-145830964D01*
X80295731Y-145952308D01*
X80284874Y-146007688D01*
X80273738Y-146057024D01*
X80264304Y-146091728D01*
X80262175Y-146097816D01*
X80253797Y-146131999D01*
X80253812Y-146156431D01*
X80262084Y-146164215D01*
X80277298Y-146150222D01*
X80297750Y-146117248D01*
X80321735Y-146068091D01*
X80347547Y-146005548D01*
X80350452Y-145997897D01*
X80370462Y-145949310D01*
X80390652Y-145907654D01*
X80406829Y-145881534D01*
X80407565Y-145880667D01*
X80429475Y-145847079D01*
X80439956Y-145822051D01*
X80450430Y-145793127D01*
X80467987Y-145750691D01*
X80485472Y-145711333D01*
X80511351Y-145654826D01*
X80539193Y-145593787D01*
X80554770Y-145559506D01*
X80573983Y-145519719D01*
X80590328Y-145490405D01*
X80599003Y-145479136D01*
X80608852Y-145464640D01*
X80625107Y-145432333D01*
X80644589Y-145388629D01*
X80648585Y-145379104D01*
X80675628Y-145321269D01*
X80704143Y-145279116D01*
X80741071Y-145242855D01*
X80750907Y-145234781D01*
X80787326Y-145207895D01*
X80817885Y-145189420D01*
X80833605Y-145183795D01*
X80858459Y-145189285D01*
X80898080Y-145203631D01*
X80944136Y-145223644D01*
X80967385Y-145234988D01*
X80981036Y-145254220D01*
X80992642Y-145293891D01*
X80997374Y-145321827D01*
X81005623Y-145372613D01*
X81015515Y-145419996D01*
X81021504Y-145442411D01*
X81027549Y-145480350D01*
X81029462Y-145539689D01*
X81027133Y-145616090D01*
X81026257Y-145631283D01*
X81022664Y-145693699D01*
X81021317Y-145733618D01*
X81022555Y-145754523D01*
X81026722Y-145759901D01*
X81034158Y-145753234D01*
X81037749Y-145748492D01*
X81058112Y-145714958D01*
X81082768Y-145666501D01*
X81107753Y-145611905D01*
X81129103Y-145559954D01*
X81142856Y-145519433D01*
X81144848Y-145511123D01*
X81158984Y-145473073D01*
X81177243Y-145445754D01*
X81195454Y-145422041D01*
X81201847Y-145406698D01*
X81211828Y-145393059D01*
X81237595Y-145371076D01*
X81263024Y-145352762D01*
X81321600Y-145323339D01*
X81376224Y-145318547D01*
X81430992Y-145338239D01*
X81444199Y-145346320D01*
X81456543Y-145355294D01*
X81465439Y-145366112D01*
X81471111Y-145382421D01*
X81473786Y-145407869D01*
X81473690Y-145446104D01*
X81471050Y-145500774D01*
X81466090Y-145575526D01*
X81461977Y-145633179D01*
X81454698Y-145734498D01*
X81449204Y-145812795D01*
X81445445Y-145871036D01*
X81443368Y-145912185D01*
X81442924Y-145939208D01*
X81444059Y-145955069D01*
X81446723Y-145962734D01*
X81450865Y-145965167D01*
X81456224Y-145965333D01*
X81474010Y-145954543D01*
X81481472Y-145940625D01*
X81494872Y-145916591D01*
X81519655Y-145884460D01*
X81532618Y-145870001D01*
X81565559Y-145830312D01*
X81599306Y-145782473D01*
X81612454Y-145761196D01*
X81638388Y-145720454D01*
X81664436Y-145685584D01*
X81676685Y-145672153D01*
X81693677Y-145651377D01*
X81720357Y-145613252D01*
X81742467Y-145579447D01*
X81973534Y-145579447D01*
X81990828Y-145606198D01*
X82024636Y-145626477D01*
X82057655Y-145621740D01*
X82086550Y-145592896D01*
X82094813Y-145577820D01*
X82114027Y-145523800D01*
X82123266Y-145468216D01*
X82121874Y-145419409D01*
X82109835Y-145386544D01*
X82097816Y-145373216D01*
X82088147Y-145374880D01*
X82076120Y-145394953D01*
X82064981Y-145419108D01*
X82041570Y-145461573D01*
X82013941Y-145498899D01*
X82004693Y-145508450D01*
X81976195Y-145545189D01*
X81973534Y-145579447D01*
X81742467Y-145579447D01*
X81753276Y-145562922D01*
X81788982Y-145505534D01*
X81794563Y-145496307D01*
X81845007Y-145415627D01*
X81887863Y-145354727D01*
X81926449Y-145309724D01*
X81964078Y-145276738D01*
X82002687Y-145252610D01*
X82045535Y-145237562D01*
X82089043Y-145234012D01*
X82123168Y-145242313D01*
X82131057Y-145248103D01*
X82157131Y-145262593D01*
X82179812Y-145251873D01*
X82197836Y-145216696D01*
X82200825Y-145206590D01*
X82227721Y-145117905D01*
X82259434Y-145030605D01*
X82292407Y-144954009D01*
X82311481Y-144916769D01*
X82334355Y-144874145D01*
X82365672Y-144813388D01*
X82402748Y-144739923D01*
X82442899Y-144659172D01*
X82483442Y-144576559D01*
X82521692Y-144497507D01*
X82554965Y-144427439D01*
X82574162Y-144385974D01*
X82597037Y-144340094D01*
X82618226Y-144305115D01*
X82634211Y-144286594D01*
X82638071Y-144285026D01*
X82660092Y-144292966D01*
X82691257Y-144312790D01*
X82724053Y-144338503D01*
X82750968Y-144364110D01*
X82764488Y-144383616D01*
X82764924Y-144386250D01*
X82761616Y-144412512D01*
X82753315Y-144453341D01*
X82742449Y-144498335D01*
X82731449Y-144537091D01*
X82726193Y-144552051D01*
X82716329Y-144580569D01*
X82704114Y-144621038D01*
X82699799Y-144636490D01*
X82684105Y-144684221D01*
X82662733Y-144737622D01*
X82652775Y-144759415D01*
X82635253Y-144799206D01*
X82623870Y-144831699D01*
X82621445Y-144844310D01*
X82616933Y-144870537D01*
X82606209Y-144907120D01*
X82592989Y-144943122D01*
X82580988Y-144967608D01*
X82578466Y-144970799D01*
X82571349Y-144989711D01*
X82569539Y-145009351D01*
X82564399Y-145036065D01*
X82556513Y-145047026D01*
X82547618Y-145064390D01*
X82543519Y-145095795D01*
X82543488Y-145098841D01*
X82537708Y-145142258D01*
X82525132Y-145179483D01*
X82511830Y-145210558D01*
X82494606Y-145256571D01*
X82477195Y-145307538D01*
X82456960Y-145363183D01*
X82429627Y-145429578D01*
X82400308Y-145494459D01*
X82393055Y-145509436D01*
X82364003Y-145568873D01*
X82343797Y-145612258D01*
X82329571Y-145646807D01*
X82318459Y-145679738D01*
X82307596Y-145718269D01*
X82302541Y-145737385D01*
X82294375Y-145775316D01*
X82285664Y-145826837D01*
X82277082Y-145886254D01*
X82269304Y-145947876D01*
X82263003Y-146006012D01*
X82258852Y-146054968D01*
X82257527Y-146089055D01*
X82259332Y-146102340D01*
X82277830Y-146103323D01*
X82308362Y-146081986D01*
X82350440Y-146038852D01*
X82403577Y-145974445D01*
X82467283Y-145889290D01*
X82497898Y-145846292D01*
X82534705Y-145795218D01*
X82577406Y-145737811D01*
X82609820Y-145695462D01*
X82643969Y-145647087D01*
X82674510Y-145595950D01*
X82693638Y-145555908D01*
X82716527Y-145510697D01*
X82747234Y-145481023D01*
X82790248Y-145464970D01*
X82850062Y-145460620D01*
X82909099Y-145463925D01*
X82980828Y-145466678D01*
X83031852Y-145459583D01*
X83065933Y-145441747D01*
X83081443Y-145422867D01*
X83112606Y-145393099D01*
X83157823Y-145376309D01*
X83206925Y-145375892D01*
X83215977Y-145377978D01*
X83265669Y-145401436D01*
X83293011Y-145436316D01*
X83297346Y-145479619D01*
X83278018Y-145528343D01*
X83255404Y-145558244D01*
X83214428Y-145622537D01*
X83192304Y-145698406D01*
X83191325Y-145774828D01*
X83197999Y-145825298D01*
X83261755Y-145817746D01*
X83313532Y-145805676D01*
X83367417Y-145783545D01*
X83416785Y-145755236D01*
X83455013Y-145724635D01*
X83475479Y-145695623D01*
X83476575Y-145691795D01*
X83502072Y-145593851D01*
X83534262Y-145496477D01*
X83570823Y-145405161D01*
X83609438Y-145325390D01*
X83647785Y-145262652D01*
X83669299Y-145235897D01*
X83695483Y-145203791D01*
X83714662Y-145174026D01*
X83731612Y-145152135D01*
X83755149Y-145146475D01*
X83790689Y-145156888D01*
X83820329Y-145170937D01*
X83864062Y-145197602D01*
X83891569Y-145227833D01*
X83905634Y-145267754D01*
X83909041Y-145323490D01*
X83907416Y-145362524D01*
X83900541Y-145428760D01*
X83887065Y-145482692D01*
X83863432Y-145537888D01*
X83859287Y-145546142D01*
X83839717Y-145587650D01*
X83827467Y-145619717D01*
X83824979Y-145635871D01*
X83825279Y-145636287D01*
X83835975Y-145636464D01*
X83855269Y-145622406D01*
X83884444Y-145592703D01*
X83924782Y-145545944D01*
X83977564Y-145480720D01*
X84044073Y-145395620D01*
X84044306Y-145395319D01*
X84103473Y-145320215D01*
X84150255Y-145264788D01*
X84186912Y-145227172D01*
X84215704Y-145205497D01*
X84238892Y-145197896D01*
X84258735Y-145202502D01*
X84269050Y-145209568D01*
X84289246Y-145235421D01*
X84295810Y-145250099D01*
X84310424Y-145270588D01*
X84322365Y-145274974D01*
X84336671Y-145277996D01*
X84338269Y-145289773D01*
X84326067Y-145314374D01*
X84301712Y-145351832D01*
X84279679Y-145387465D01*
X84265604Y-145416215D01*
X84262872Y-145426693D01*
X84257175Y-145444911D01*
X84241757Y-145480577D01*
X84219131Y-145528140D01*
X84197886Y-145570329D01*
X84171985Y-145621669D01*
X84151806Y-145663763D01*
X84139619Y-145691731D01*
X84137198Y-145700719D01*
X84148774Y-145695456D01*
X84175745Y-145677669D01*
X84212944Y-145650828D01*
X84224979Y-145641792D01*
X84312802Y-145565600D01*
X84392872Y-145477842D01*
X84456983Y-145387610D01*
X84461980Y-145379179D01*
X84487176Y-145342235D01*
X84524204Y-145295531D01*
X84566260Y-145247509D01*
X84579112Y-145233824D01*
X84618901Y-145193010D01*
X84646371Y-145168108D01*
X84666855Y-145155872D01*
X84685685Y-145153054D01*
X84706743Y-145156113D01*
X84743578Y-145170831D01*
X84770867Y-145201964D01*
X84777180Y-145212969D01*
X84803026Y-145260798D01*
X84765306Y-145332895D01*
X84740235Y-145374843D01*
X84714231Y-145409083D01*
X84697585Y-145424650D01*
X84669273Y-145449415D01*
X84653641Y-145470359D01*
X84646022Y-145491209D01*
X84652932Y-145495860D01*
X84671054Y-145487091D01*
X84697070Y-145467679D01*
X84727665Y-145440406D01*
X84759520Y-145408048D01*
X84789319Y-145373386D01*
X84813745Y-145339198D01*
X84817399Y-145333166D01*
X84854090Y-145284456D01*
X84894956Y-145259848D01*
X84944155Y-145257394D01*
X84968181Y-145262467D01*
X84996647Y-145268635D01*
X85020977Y-145267988D01*
X85049092Y-145258592D01*
X85088914Y-145238517D01*
X85107129Y-145228585D01*
X85156793Y-145199376D01*
X85203406Y-145168730D01*
X85236906Y-145143264D01*
X85236992Y-145143189D01*
X85281009Y-145113321D01*
X85317199Y-145105933D01*
X85343038Y-145120379D01*
X85355999Y-145156017D01*
X85357026Y-145173816D01*
X85347737Y-145204376D01*
X85323713Y-145243654D01*
X85290719Y-145284294D01*
X85254520Y-145318939D01*
X85230026Y-145335869D01*
X85202447Y-145353118D01*
X85188219Y-145366210D01*
X85187693Y-145367887D01*
X85176813Y-145377454D01*
X85148549Y-145394065D01*
X85109465Y-145414511D01*
X85066126Y-145435581D01*
X85025096Y-145454066D01*
X84992939Y-145466756D01*
X84977682Y-145470587D01*
X84959839Y-145479083D01*
X84929714Y-145501233D01*
X84893571Y-145532394D01*
X84890662Y-145535086D01*
X84842901Y-145578283D01*
X84790215Y-145624097D01*
X84753893Y-145654476D01*
X84708744Y-145693295D01*
X84657467Y-145740413D01*
X84614749Y-145782059D01*
X84578967Y-145815912D01*
X84548605Y-145840254D01*
X84529199Y-145850750D01*
X84526974Y-145850776D01*
X84503336Y-145853512D01*
X84483582Y-145861517D01*
X84448804Y-145868280D01*
X84419011Y-145853142D01*
X84398961Y-145820251D01*
X84393129Y-145782674D01*
X84391713Y-145754523D01*
X84386189Y-145736579D01*
X84374639Y-145729962D01*
X84355147Y-145735790D01*
X84325794Y-145755183D01*
X84284665Y-145789257D01*
X84229843Y-145839133D01*
X84159410Y-145905928D01*
X84124687Y-145939321D01*
X84094999Y-145963602D01*
X84069563Y-145977263D01*
X84063584Y-145978359D01*
X84040621Y-145985625D01*
X84034924Y-145991385D01*
X84015213Y-146002205D01*
X83983787Y-146003524D01*
X83952898Y-145996056D01*
X83937952Y-145985740D01*
X83929563Y-145962206D01*
X83928308Y-145918572D01*
X83931527Y-145875022D01*
X83934934Y-145820716D01*
X83931603Y-145790534D01*
X83920940Y-145783281D01*
X83902352Y-145797767D01*
X83896493Y-145804531D01*
X83871987Y-145825411D01*
X83839539Y-145844388D01*
X83781839Y-145873446D01*
X83745422Y-145897032D01*
X83726711Y-145917464D01*
X83726658Y-145917559D01*
X83708146Y-145930466D01*
X83672884Y-145941699D01*
X83649734Y-145945923D01*
X83607716Y-145949896D01*
X83580892Y-145945875D01*
X83559092Y-145931822D01*
X83553331Y-145926591D01*
X83530508Y-145908156D01*
X83511194Y-145906294D01*
X83484398Y-145918159D01*
X83451867Y-145937607D01*
X83410526Y-145965712D01*
X83385263Y-145984309D01*
X83349193Y-146009436D01*
X83319091Y-146026198D01*
X83305375Y-146030462D01*
X83288105Y-146036978D01*
X83285949Y-146042452D01*
X83274493Y-146056187D01*
X83244802Y-146063101D01*
X83203886Y-146062791D01*
X83158761Y-146054852D01*
X83144516Y-146050614D01*
X83079740Y-146018524D01*
X83033439Y-145970806D01*
X83005170Y-145906389D01*
X82994490Y-145824206D01*
X83000954Y-145723185D01*
X83002932Y-145709271D01*
X83012991Y-145642080D01*
X82961574Y-145633393D01*
X82915897Y-145631754D01*
X82879319Y-145641474D01*
X82858528Y-145660182D01*
X82856103Y-145670783D01*
X82847908Y-145690678D01*
X82827513Y-145719010D01*
X82820283Y-145727314D01*
X82796288Y-145757330D01*
X82765033Y-145801326D01*
X82732478Y-145850836D01*
X82725847Y-145861444D01*
X82686492Y-145920001D01*
X82639356Y-145982926D01*
X82594555Y-146036721D01*
X82594008Y-146037328D01*
X82556466Y-146080566D01*
X82523226Y-146121737D01*
X82500418Y-146153185D01*
X82497539Y-146157817D01*
X82472049Y-146188904D01*
X82435150Y-146220978D01*
X82419301Y-146231930D01*
X82377379Y-146261680D01*
X82338276Y-146294545D01*
X82327718Y-146304883D01*
X82306076Y-146329063D01*
X82301998Y-146340211D01*
X82313993Y-146343065D01*
X82315707Y-146343077D01*
X82331804Y-146346470D01*
X82325209Y-146358156D01*
X82306862Y-146366474D01*
X82291904Y-146358108D01*
X82265713Y-146349332D01*
X82234541Y-146350810D01*
X82181244Y-146349370D01*
X82134182Y-146323202D01*
X82094566Y-146273141D01*
X82080121Y-146244470D01*
X82062535Y-146206872D01*
X82048705Y-146181221D01*
X82042623Y-146173744D01*
X82032500Y-146183769D01*
X82021405Y-146201770D01*
X82012799Y-146221522D01*
X82019910Y-146224283D01*
X82027459Y-146221717D01*
X82043867Y-146217148D01*
X82046795Y-146224775D01*
X82037091Y-146249631D01*
X82033501Y-146257570D01*
X82021378Y-146279285D01*
X82011160Y-146279088D01*
X82003311Y-146269763D01*
X81991782Y-146259261D01*
X81978563Y-146264340D01*
X81957624Y-146287796D01*
X81953671Y-146292785D01*
X81926816Y-146326281D01*
X81903390Y-146354505D01*
X81899194Y-146359359D01*
X81883044Y-146387088D01*
X81879180Y-146404862D01*
X81886081Y-146410249D01*
X81906993Y-146394482D01*
X81937591Y-146362529D01*
X81966635Y-146331981D01*
X81987615Y-146313333D01*
X81996182Y-146310427D01*
X81996206Y-146310745D01*
X81987723Y-146335179D01*
X81966002Y-146368637D01*
X81937437Y-146403017D01*
X81908419Y-146430218D01*
X81895088Y-146438928D01*
X81853635Y-146450553D01*
X81799241Y-146453940D01*
X81742799Y-146449564D01*
X81695198Y-146437902D01*
X81678036Y-146429435D01*
X81637888Y-146388934D01*
X81608840Y-146330641D01*
X81593937Y-146261536D01*
X81592616Y-146233647D01*
X81590758Y-146192976D01*
X81585978Y-146164096D01*
X81581583Y-146155437D01*
X81566692Y-146159704D01*
X81542510Y-146178552D01*
X81532737Y-146188200D01*
X81509850Y-146213831D01*
X81503749Y-146228798D01*
X81512462Y-146240509D01*
X81517718Y-146244532D01*
X81537569Y-146263150D01*
X81533805Y-146273800D01*
X81505547Y-146277821D01*
X81495771Y-146277949D01*
X81455064Y-146281325D01*
X81420874Y-146289312D01*
X81385276Y-146294108D01*
X81362093Y-146289984D01*
X81335188Y-146269464D01*
X81310496Y-146234528D01*
X81295070Y-146196355D01*
X81293026Y-146180485D01*
X81287856Y-146155873D01*
X81278652Y-146130568D01*
X81803346Y-146130568D01*
X81808386Y-146157358D01*
X81821735Y-146160038D01*
X81842846Y-146139925D01*
X81860247Y-146120106D01*
X81889321Y-146088618D01*
X81921725Y-146054426D01*
X81958406Y-146012174D01*
X81994644Y-145963680D01*
X82026472Y-145915092D01*
X82049921Y-145872555D01*
X82061025Y-145842216D01*
X82061417Y-145838011D01*
X82050728Y-145821193D01*
X82031497Y-145809985D01*
X82001986Y-145794135D01*
X81967013Y-145769389D01*
X81959664Y-145763397D01*
X81929825Y-145742928D01*
X81905753Y-145734275D01*
X81900626Y-145734850D01*
X81881972Y-145752625D01*
X81860966Y-145788279D01*
X81840745Y-145834223D01*
X81824444Y-145882870D01*
X81815198Y-145926631D01*
X81814194Y-145944002D01*
X81813343Y-145987497D01*
X81809887Y-146042289D01*
X81806397Y-146079308D01*
X81803346Y-146130568D01*
X81278652Y-146130568D01*
X81275033Y-146120621D01*
X81271024Y-146111453D01*
X81256713Y-146077717D01*
X81248290Y-146053611D01*
X81247542Y-146050000D01*
X81242678Y-146030165D01*
X81232410Y-145996953D01*
X81228989Y-145986709D01*
X81219802Y-145950387D01*
X81219248Y-145913378D01*
X81227262Y-145864178D01*
X81228280Y-145859327D01*
X81238695Y-145817284D01*
X81249091Y-145786561D01*
X81255810Y-145775311D01*
X81264818Y-145758163D01*
X81266975Y-145740234D01*
X81265879Y-145720929D01*
X81258462Y-145721979D01*
X81243157Y-145737746D01*
X81226568Y-145762336D01*
X81205301Y-145802896D01*
X81183759Y-145850981D01*
X81182271Y-145854615D01*
X81157997Y-145910664D01*
X81127074Y-145977034D01*
X81095372Y-146041203D01*
X81088858Y-146053815D01*
X81064231Y-146102383D01*
X81045064Y-146142757D01*
X81034084Y-146169068D01*
X81032513Y-146175211D01*
X81024145Y-146200285D01*
X81003187Y-146233215D01*
X80975864Y-146266482D01*
X80948398Y-146292566D01*
X80927012Y-146303948D01*
X80925937Y-146304000D01*
X80891953Y-146299946D01*
X80850920Y-146289804D01*
X80812548Y-146276607D01*
X80786547Y-146263386D01*
X80781969Y-146259044D01*
X80775987Y-146236032D01*
X80773389Y-146192736D01*
X80774018Y-146134683D01*
X80777718Y-146067399D01*
X80784332Y-145996410D01*
X80790855Y-145945795D01*
X80798622Y-145889841D01*
X80801900Y-145853800D01*
X80800411Y-145831874D01*
X80793877Y-145818266D01*
X80784288Y-145809026D01*
X80772406Y-145796318D01*
X80766727Y-145778867D01*
X80766612Y-145750108D01*
X80771422Y-145703474D01*
X80772872Y-145691795D01*
X80780641Y-145634703D01*
X80789124Y-145579500D01*
X80796370Y-145538744D01*
X80801648Y-145501756D01*
X80797618Y-145485226D01*
X80792113Y-145483385D01*
X80778603Y-145494236D01*
X80757146Y-145523114D01*
X80730952Y-145564502D01*
X80703229Y-145612883D01*
X80677184Y-145662741D01*
X80656027Y-145708560D01*
X80646145Y-145734365D01*
X80632639Y-145769308D01*
X80610834Y-145819842D01*
X80584122Y-145878280D01*
X80564334Y-145919744D01*
X80537546Y-145975972D01*
X80514486Y-146026527D01*
X80497998Y-146065047D01*
X80491552Y-146082564D01*
X80480497Y-146109593D01*
X80460113Y-146150538D01*
X80434586Y-146197044D01*
X80431686Y-146202067D01*
X80407677Y-146244584D01*
X80389865Y-146278311D01*
X80381489Y-146297061D01*
X80381231Y-146298461D01*
X80375908Y-146314400D01*
X80362109Y-146346035D01*
X80347139Y-146377599D01*
X80320288Y-146423774D01*
X80297052Y-146445577D01*
X80289609Y-146447282D01*
X80267378Y-146454047D01*
X80261459Y-146461420D01*
X80247384Y-146464975D01*
X80213810Y-146455596D01*
X80184613Y-146443656D01*
X80141421Y-146422173D01*
X80132204Y-146414718D01*
X80277026Y-146414718D01*
X80283539Y-146421231D01*
X80290052Y-146414718D01*
X80283539Y-146408205D01*
X80277026Y-146414718D01*
X80132204Y-146414718D01*
X80116398Y-146401934D01*
X80102711Y-146376873D01*
X80100122Y-146368668D01*
X80087850Y-146338186D01*
X80074385Y-146321262D01*
X80073085Y-146320686D01*
X80057224Y-146326621D01*
X80028255Y-146346740D01*
X79991747Y-146377060D01*
X79982101Y-146385762D01*
X79898445Y-146452680D01*
X79818112Y-146495716D01*
X79737660Y-146516147D01*
X79653648Y-146515249D01*
X79638770Y-146513068D01*
X79537684Y-146483793D01*
X79442096Y-146431816D01*
X79357430Y-146360487D01*
X79318084Y-146315002D01*
X79289514Y-146273616D01*
X79261928Y-146226475D01*
X79238118Y-146179428D01*
X79220878Y-146138325D01*
X79213002Y-146109016D01*
X79214702Y-146098495D01*
X79212961Y-146084643D01*
X79202717Y-146054990D01*
X79193390Y-146032522D01*
X79174039Y-145977851D01*
X79154130Y-145902376D01*
X79153673Y-145900205D01*
X79336294Y-145900205D01*
X79341698Y-145962972D01*
X79359231Y-146033073D01*
X79385805Y-146102892D01*
X79418331Y-146164813D01*
X79453722Y-146211218D01*
X79467222Y-146223156D01*
X79505251Y-146254217D01*
X79541214Y-146287471D01*
X79569691Y-146317464D01*
X79585262Y-146338738D01*
X79586667Y-146343382D01*
X79597438Y-146355212D01*
X79623432Y-146370657D01*
X79655169Y-146385058D01*
X79683169Y-146393756D01*
X79690872Y-146394597D01*
X79714246Y-146389459D01*
X79749536Y-146376556D01*
X79763309Y-146370581D01*
X79805320Y-146345742D01*
X79847038Y-146311724D01*
X79882584Y-146274497D01*
X79906075Y-146240034D01*
X79912250Y-146219333D01*
X79918065Y-146193343D01*
X79932785Y-146155003D01*
X79944927Y-146129203D01*
X79963062Y-146090708D01*
X79974863Y-146060384D01*
X79977436Y-146049067D01*
X79982822Y-146032208D01*
X79997656Y-145996457D01*
X80019958Y-145946329D01*
X80047743Y-145886342D01*
X80062599Y-145855050D01*
X80093875Y-145787284D01*
X80121705Y-145722503D01*
X80143641Y-145666739D01*
X80157234Y-145626019D01*
X80159643Y-145616058D01*
X80171079Y-145570856D01*
X80188763Y-145515201D01*
X80205301Y-145470359D01*
X80219724Y-145433064D01*
X80233626Y-145394191D01*
X80248165Y-145349920D01*
X80264502Y-145296432D01*
X80283797Y-145229910D01*
X80307209Y-145146533D01*
X80335899Y-145042483D01*
X80341792Y-145020974D01*
X80375040Y-144899772D01*
X80402315Y-144800916D01*
X80424416Y-144721596D01*
X80442143Y-144659002D01*
X80456295Y-144610326D01*
X80467672Y-144572758D01*
X80477074Y-144543488D01*
X80480791Y-144532513D01*
X80496317Y-144484088D01*
X80512756Y-144427847D01*
X80519686Y-144402256D01*
X80531305Y-144358408D01*
X80541156Y-144322381D01*
X80545353Y-144307820D01*
X80543607Y-144288626D01*
X80531645Y-144285026D01*
X80507268Y-144277949D01*
X80473157Y-144260419D01*
X80438150Y-144237987D01*
X80411086Y-144216204D01*
X80401120Y-144203059D01*
X80396473Y-144181199D01*
X80390593Y-144144789D01*
X80388336Y-144128718D01*
X80379510Y-144079794D01*
X80365751Y-144051361D01*
X80341572Y-144037866D01*
X80301488Y-144033753D01*
X80294402Y-144033611D01*
X80255165Y-144035908D01*
X80216748Y-144045907D01*
X80170770Y-144066348D01*
X80133244Y-144086322D01*
X80093399Y-144111258D01*
X80046019Y-144145359D01*
X79995500Y-144184884D01*
X79946239Y-144226091D01*
X79902630Y-144265240D01*
X79869070Y-144298589D01*
X79849953Y-144322399D01*
X79847180Y-144329786D01*
X79839502Y-144345403D01*
X79820467Y-144371463D01*
X79814616Y-144378581D01*
X79793488Y-144407646D01*
X79782495Y-144430494D01*
X79782052Y-144433727D01*
X79773073Y-144451577D01*
X79750281Y-144478228D01*
X79735481Y-144492551D01*
X79715341Y-144512339D01*
X79697715Y-144534159D01*
X79680784Y-144561761D01*
X79662731Y-144598894D01*
X79641739Y-144649307D01*
X79615990Y-144716751D01*
X79583666Y-144804975D01*
X79582555Y-144808038D01*
X79556389Y-144879009D01*
X79529163Y-144950821D01*
X79504183Y-145014863D01*
X79485564Y-145060622D01*
X79435330Y-145189928D01*
X79396011Y-145313074D01*
X79368297Y-145426781D01*
X79352880Y-145527770D01*
X79350450Y-145612760D01*
X79357993Y-145665744D01*
X79360129Y-145694928D01*
X79357752Y-145739833D01*
X79351554Y-145789487D01*
X79344127Y-145837777D01*
X79338655Y-145877419D01*
X79336301Y-145899977D01*
X79336294Y-145900205D01*
X79153673Y-145900205D01*
X79134918Y-145811282D01*
X79121929Y-145737121D01*
X79123747Y-145699357D01*
X79142720Y-145673230D01*
X79162001Y-145645758D01*
X79169536Y-145604773D01*
X79169923Y-145588827D01*
X79173097Y-145528824D01*
X79181526Y-145455703D01*
X79193767Y-145377999D01*
X79208380Y-145304248D01*
X79223921Y-145242986D01*
X79232862Y-145216359D01*
X79248267Y-145170639D01*
X79264948Y-145111527D01*
X79279473Y-145051252D01*
X79280379Y-145047026D01*
X79300414Y-144956082D01*
X79317398Y-144887662D01*
X79332441Y-144838571D01*
X79346653Y-144805614D01*
X79361141Y-144785598D01*
X79374354Y-144776441D01*
X79401914Y-144750293D01*
X79419018Y-144709470D01*
X79431439Y-144664522D01*
X79443332Y-144622589D01*
X79445040Y-144616708D01*
X79458952Y-144585681D01*
X79483724Y-144544130D01*
X79510382Y-144505990D01*
X79542831Y-144461572D01*
X79582415Y-144405248D01*
X79622150Y-144347005D01*
X79634532Y-144328421D01*
X79670225Y-144277981D01*
X79710347Y-144226872D01*
X79750994Y-144179440D01*
X79788262Y-144140034D01*
X79818246Y-144112998D01*
X79837041Y-144102680D01*
X79837320Y-144102674D01*
X79850308Y-144094531D01*
X79878526Y-144072365D01*
X79917823Y-144039555D01*
X79964044Y-143999485D01*
X79964220Y-143999329D01*
X80081442Y-143895992D01*
X80207787Y-143902291D01*
G04 #@! TO.C,U2*
D12*
X170790894Y-80657379D02*
X170790894Y-81466903D01*
X170838513Y-81562141D01*
X170886132Y-81609760D01*
X170981370Y-81657379D01*
X171171846Y-81657379D01*
X171267084Y-81609760D01*
X171314703Y-81562141D01*
X171362322Y-81466903D01*
X171362322Y-80657379D01*
X171790894Y-80752618D02*
X171838513Y-80704999D01*
X171933751Y-80657379D01*
X172171846Y-80657379D01*
X172267084Y-80704999D01*
X172314703Y-80752618D01*
X172362322Y-80847856D01*
X172362322Y-80943094D01*
X172314703Y-81085951D01*
X171743275Y-81657379D01*
X172362322Y-81657379D01*
G04 #@! TO.C,C1*
X159267142Y-112321666D02*
X159314761Y-112369285D01*
X159362380Y-112512142D01*
X159362380Y-112607380D01*
X159314761Y-112750238D01*
X159219523Y-112845476D01*
X159124285Y-112893095D01*
X158933809Y-112940714D01*
X158790952Y-112940714D01*
X158600476Y-112893095D01*
X158505238Y-112845476D01*
X158410000Y-112750238D01*
X158362380Y-112607380D01*
X158362380Y-112512142D01*
X158410000Y-112369285D01*
X158457619Y-112321666D01*
X159362380Y-111369285D02*
X159362380Y-111940714D01*
X159362380Y-111655000D02*
X158362380Y-111655000D01*
X158505238Y-111750238D01*
X158600476Y-111845476D01*
X158648095Y-111940714D01*
G04 #@! TO.C,C2*
X156407142Y-116611666D02*
X156454761Y-116659285D01*
X156502380Y-116802142D01*
X156502380Y-116897380D01*
X156454761Y-117040238D01*
X156359523Y-117135476D01*
X156264285Y-117183095D01*
X156073809Y-117230714D01*
X155930952Y-117230714D01*
X155740476Y-117183095D01*
X155645238Y-117135476D01*
X155550000Y-117040238D01*
X155502380Y-116897380D01*
X155502380Y-116802142D01*
X155550000Y-116659285D01*
X155597619Y-116611666D01*
X155597619Y-116230714D02*
X155550000Y-116183095D01*
X155502380Y-116087857D01*
X155502380Y-115849761D01*
X155550000Y-115754523D01*
X155597619Y-115706904D01*
X155692857Y-115659285D01*
X155788095Y-115659285D01*
X155930952Y-115706904D01*
X156502380Y-116278333D01*
X156502380Y-115659285D01*
G04 #@! TO.C,U1*
X137596666Y-107402380D02*
X137787142Y-107402380D01*
X137882380Y-107450000D01*
X137977619Y-107545238D01*
X138025238Y-107735714D01*
X138025238Y-108069047D01*
X137977619Y-108259523D01*
X137882380Y-108354761D01*
X137787142Y-108402380D01*
X137596666Y-108402380D01*
X137501428Y-108354761D01*
X137406190Y-108259523D01*
X137358571Y-108069047D01*
X137358571Y-107735714D01*
X137406190Y-107545238D01*
X137501428Y-107450000D01*
X137596666Y-107402380D01*
X138453809Y-108402380D02*
X138453809Y-107402380D01*
X139025238Y-108402380D02*
X138596666Y-107830952D01*
X139025238Y-107402380D02*
X138453809Y-107973809D01*
X139453809Y-108402380D02*
X139453809Y-107402380D01*
G04 #@! TD*
M02*
