M48
;DRILL file {KiCad (5.0.0)} date 09/21/19 17:28:17
;FORMAT={-:-/ absolute / inch / decimal}
FMAT,2
INCH,TZ
T1C0.0157
T2C0.0300
T3C0.0315
T4C0.0350
T5C0.0354
T6C0.1598
%
G90
G05
M72
T1
X3.65Y-3.225
X3.65Y-4.125
X3.725Y-3.275
X3.725Y-3.975
X4.225Y-3.375
X4.7Y-3.6
X4.85Y-3.375
X4.95Y-3.2
X5.1Y-3.6
X5.1Y-3.9
X5.125Y-3.2
X5.2Y-4.5
X5.2Y-4.75
X5.3012Y-4.35
X5.3012Y-4.6488
X6.275Y-3.275
X6.275Y-4.05
X6.35Y-3.2
X6.35Y-4.2
T2
X3.4Y-4.55
T3
X4.1266Y-3.1
X4.225Y-3.1
T4
X4.7Y-3.5
X4.8Y-3.5
X4.9Y-3.5
X4.225Y-4.05
X4.325Y-4.05
X4.425Y-4.05
T5
X4.85Y-3.01
X4.85Y-3.11
X4.95Y-3.01
X4.95Y-3.11
X5.05Y-3.01
X5.05Y-3.11
X5.15Y-3.01
X5.15Y-3.11
X5.25Y-3.01
X5.25Y-3.11
X5.35Y-3.01
X5.35Y-3.11
X5.45Y-3.01
X5.45Y-3.11
X5.55Y-3.01
X5.55Y-3.11
X5.65Y-3.01
X5.65Y-3.11
X5.75Y-3.01
X5.75Y-3.11
X5.85Y-3.01
X5.85Y-3.11
X5.95Y-3.01
X5.95Y-3.11
X6.05Y-3.01
X6.05Y-3.11
X6.15Y-3.01
X6.15Y-3.11
X6.25Y-3.01
X6.25Y-3.11
X6.35Y-3.01
X6.35Y-3.11
X6.45Y-3.01
X6.45Y-3.11
X6.55Y-3.01
X6.55Y-3.11
X6.65Y-3.01
X6.65Y-3.11
X6.75Y-3.01
X6.75Y-3.11
X3.4Y-3.9
X3.4Y-4.
X3.4Y-4.1
X3.4Y-4.2
X3.4Y-4.65
X3.4Y-4.75
T6
X3.4Y-3.19
X3.4Y-3.5
T0
M30
