G04 #@! TF.GenerationSoftware,KiCad,Pcbnew,(5.0.2)-1*
G04 #@! TF.CreationDate,2019-02-28T16:52:56-06:00*
G04 #@! TF.ProjectId,RaspberryPiBreakout_Hardware,52617370-6265-4727-9279-506942726561,rev?*
G04 #@! TF.SameCoordinates,Original*
G04 #@! TF.FileFunction,Soldermask,Top*
G04 #@! TF.FilePolarity,Negative*
%FSLAX46Y46*%
G04 Gerber Fmt 4.6, Leading zero omitted, Abs format (unit mm)*
G04 Created by KiCad (PCBNEW (5.0.2)-1) date 2/28/2019 4:52:56 PM*
%MOMM*%
%LPD*%
G01*
G04 APERTURE LIST*
%ADD10C,0.100000*%
G04 APERTURE END LIST*
D10*
G36*
X176672527Y-125212736D02*
X176772410Y-125232604D01*
X177054674Y-125349521D01*
X177308705Y-125519259D01*
X177524741Y-125735295D01*
X177694479Y-125989326D01*
X177811396Y-126271590D01*
X177871000Y-126571240D01*
X177871000Y-126876760D01*
X177811396Y-127176410D01*
X177694479Y-127458674D01*
X177524741Y-127712705D01*
X177308705Y-127928741D01*
X177054674Y-128098479D01*
X176772410Y-128215396D01*
X176672527Y-128235264D01*
X176472762Y-128275000D01*
X176167238Y-128275000D01*
X175967473Y-128235264D01*
X175867590Y-128215396D01*
X175585326Y-128098479D01*
X175331295Y-127928741D01*
X175115259Y-127712705D01*
X174945521Y-127458674D01*
X174828604Y-127176410D01*
X174769000Y-126876760D01*
X174769000Y-126571240D01*
X174828604Y-126271590D01*
X174945521Y-125989326D01*
X175115259Y-125735295D01*
X175331295Y-125519259D01*
X175585326Y-125349521D01*
X175867590Y-125232604D01*
X175967473Y-125212736D01*
X176167238Y-125173000D01*
X176472762Y-125173000D01*
X176672527Y-125212736D01*
X176672527Y-125212736D01*
G37*
G36*
X118672527Y-125212736D02*
X118772410Y-125232604D01*
X119054674Y-125349521D01*
X119308705Y-125519259D01*
X119524741Y-125735295D01*
X119694479Y-125989326D01*
X119811396Y-126271590D01*
X119871000Y-126571240D01*
X119871000Y-126876760D01*
X119811396Y-127176410D01*
X119694479Y-127458674D01*
X119524741Y-127712705D01*
X119308705Y-127928741D01*
X119054674Y-128098479D01*
X118772410Y-128215396D01*
X118672527Y-128235264D01*
X118472762Y-128275000D01*
X118167238Y-128275000D01*
X117967473Y-128235264D01*
X117867590Y-128215396D01*
X117585326Y-128098479D01*
X117331295Y-127928741D01*
X117115259Y-127712705D01*
X116945521Y-127458674D01*
X116828604Y-127176410D01*
X116769000Y-126876760D01*
X116769000Y-126571240D01*
X116828604Y-126271590D01*
X116945521Y-125989326D01*
X117115259Y-125735295D01*
X117331295Y-125519259D01*
X117585326Y-125349521D01*
X117867590Y-125232604D01*
X117967473Y-125212736D01*
X118167238Y-125173000D01*
X118472762Y-125173000D01*
X118672527Y-125212736D01*
X118672527Y-125212736D01*
G37*
G36*
X168093079Y-115939362D02*
X168395767Y-115999570D01*
X168867299Y-116194885D01*
X169288803Y-116476526D01*
X169291669Y-116478441D01*
X169652559Y-116839331D01*
X169652561Y-116839334D01*
X169936115Y-117263701D01*
X170131430Y-117735233D01*
X170231000Y-118235809D01*
X170231000Y-118746191D01*
X170131430Y-119246767D01*
X169936115Y-119718299D01*
X169654474Y-120139803D01*
X169652559Y-120142669D01*
X169291669Y-120503559D01*
X169291666Y-120503561D01*
X168867299Y-120787115D01*
X168395767Y-120982430D01*
X168228908Y-121015620D01*
X167895193Y-121082000D01*
X167384807Y-121082000D01*
X167051092Y-121015620D01*
X166884233Y-120982430D01*
X166412701Y-120787115D01*
X165988334Y-120503561D01*
X165988331Y-120503559D01*
X165627441Y-120142669D01*
X165625526Y-120139803D01*
X165343885Y-119718299D01*
X165148570Y-119246767D01*
X165049000Y-118746191D01*
X165049000Y-118235809D01*
X165148570Y-117735233D01*
X165343885Y-117263701D01*
X165627439Y-116839334D01*
X165627441Y-116839331D01*
X165988331Y-116478441D01*
X165991197Y-116476526D01*
X166412701Y-116194885D01*
X166884233Y-115999570D01*
X167186921Y-115939362D01*
X167384807Y-115900000D01*
X167895193Y-115900000D01*
X168093079Y-115939362D01*
X168093079Y-115939362D01*
G37*
G36*
X157844499Y-116748445D02*
X157881993Y-116759819D01*
X157916557Y-116778294D01*
X157946847Y-116803153D01*
X157971706Y-116833443D01*
X157990181Y-116868007D01*
X158001555Y-116905501D01*
X158006000Y-116950638D01*
X158006000Y-117689362D01*
X158001555Y-117734499D01*
X157990181Y-117771993D01*
X157971706Y-117806557D01*
X157946847Y-117836847D01*
X157916557Y-117861706D01*
X157881993Y-117880181D01*
X157844499Y-117891555D01*
X157799362Y-117896000D01*
X157160638Y-117896000D01*
X157115501Y-117891555D01*
X157078007Y-117880181D01*
X157043443Y-117861706D01*
X157013153Y-117836847D01*
X156988294Y-117806557D01*
X156969819Y-117771993D01*
X156958445Y-117734499D01*
X156954000Y-117689362D01*
X156954000Y-116950638D01*
X156958445Y-116905501D01*
X156969819Y-116868007D01*
X156988294Y-116833443D01*
X157013153Y-116803153D01*
X157043443Y-116778294D01*
X157078007Y-116759819D01*
X157115501Y-116748445D01*
X157160638Y-116744000D01*
X157799362Y-116744000D01*
X157844499Y-116748445D01*
X157844499Y-116748445D01*
G37*
G36*
X152637142Y-116058242D02*
X152706199Y-116086847D01*
X152766214Y-116111706D01*
X152785102Y-116119530D01*
X152918258Y-116208502D01*
X153031498Y-116321742D01*
X153120470Y-116454898D01*
X153181758Y-116602858D01*
X153213000Y-116759925D01*
X153213000Y-116920075D01*
X153181758Y-117077142D01*
X153120470Y-117225102D01*
X153031498Y-117358258D01*
X152918258Y-117471498D01*
X152785102Y-117560470D01*
X152637142Y-117621758D01*
X152480075Y-117653000D01*
X152319925Y-117653000D01*
X152162858Y-117621758D01*
X152014898Y-117560470D01*
X151881742Y-117471498D01*
X151768502Y-117358258D01*
X151679530Y-117225102D01*
X151618242Y-117077142D01*
X151587000Y-116920075D01*
X151587000Y-116759925D01*
X151618242Y-116602858D01*
X151679530Y-116454898D01*
X151768502Y-116321742D01*
X151881742Y-116208502D01*
X152014898Y-116119530D01*
X152033787Y-116111706D01*
X152093801Y-116086847D01*
X152162858Y-116058242D01*
X152319925Y-116027000D01*
X152480075Y-116027000D01*
X152637142Y-116058242D01*
X152637142Y-116058242D01*
G37*
G36*
X157844499Y-114998445D02*
X157881993Y-115009819D01*
X157916557Y-115028294D01*
X157946847Y-115053153D01*
X157971706Y-115083443D01*
X157990181Y-115118007D01*
X158001555Y-115155501D01*
X158006000Y-115200638D01*
X158006000Y-115939362D01*
X158001555Y-115984499D01*
X157990181Y-116021993D01*
X157971706Y-116056557D01*
X157946847Y-116086847D01*
X157916557Y-116111706D01*
X157881993Y-116130181D01*
X157844499Y-116141555D01*
X157799362Y-116146000D01*
X157160638Y-116146000D01*
X157115501Y-116141555D01*
X157078007Y-116130181D01*
X157043443Y-116111706D01*
X157013153Y-116086847D01*
X156988294Y-116056557D01*
X156969819Y-116021993D01*
X156958445Y-115984499D01*
X156954000Y-115939362D01*
X156954000Y-115200638D01*
X156958445Y-115155501D01*
X156969819Y-115118007D01*
X156988294Y-115083443D01*
X157013153Y-115053153D01*
X157043443Y-115028294D01*
X157078007Y-115009819D01*
X157115501Y-114998445D01*
X157160638Y-114994000D01*
X157799362Y-114994000D01*
X157844499Y-114998445D01*
X157844499Y-114998445D01*
G37*
G36*
X152637142Y-113518242D02*
X152706199Y-113546847D01*
X152766214Y-113571706D01*
X152785102Y-113579530D01*
X152918258Y-113668502D01*
X153031498Y-113781742D01*
X153120470Y-113914898D01*
X153181758Y-114062858D01*
X153213000Y-114219925D01*
X153213000Y-114380075D01*
X153181758Y-114537142D01*
X153120470Y-114685102D01*
X153031498Y-114818258D01*
X152918258Y-114931498D01*
X152785102Y-115020470D01*
X152785101Y-115020471D01*
X152785100Y-115020471D01*
X152751583Y-115034354D01*
X152637142Y-115081758D01*
X152480075Y-115113000D01*
X152319925Y-115113000D01*
X152162858Y-115081758D01*
X152048417Y-115034354D01*
X152014900Y-115020471D01*
X152014899Y-115020471D01*
X152014898Y-115020470D01*
X151881742Y-114931498D01*
X151768502Y-114818258D01*
X151679530Y-114685102D01*
X151618242Y-114537142D01*
X151587000Y-114380075D01*
X151587000Y-114219925D01*
X151618242Y-114062858D01*
X151679530Y-113914898D01*
X151768502Y-113781742D01*
X151881742Y-113668502D01*
X152014898Y-113579530D01*
X152033787Y-113571706D01*
X152093801Y-113546847D01*
X152162858Y-113518242D01*
X152319925Y-113487000D01*
X152480075Y-113487000D01*
X152637142Y-113518242D01*
X152637142Y-113518242D01*
G37*
G36*
X157844499Y-112458445D02*
X157881993Y-112469819D01*
X157916557Y-112488294D01*
X157946847Y-112513153D01*
X157971706Y-112543443D01*
X157990181Y-112578007D01*
X158001555Y-112615501D01*
X158006000Y-112660638D01*
X158006000Y-113399362D01*
X158001555Y-113444499D01*
X157990181Y-113481993D01*
X157971706Y-113516557D01*
X157946847Y-113546847D01*
X157916557Y-113571706D01*
X157881993Y-113590181D01*
X157844499Y-113601555D01*
X157799362Y-113606000D01*
X157160638Y-113606000D01*
X157115501Y-113601555D01*
X157078007Y-113590181D01*
X157043443Y-113571706D01*
X157013153Y-113546847D01*
X156988294Y-113516557D01*
X156969819Y-113481993D01*
X156958445Y-113444499D01*
X156954000Y-113399362D01*
X156954000Y-112660638D01*
X156958445Y-112615501D01*
X156969819Y-112578007D01*
X156988294Y-112543443D01*
X157013153Y-112513153D01*
X157043443Y-112488294D01*
X157078007Y-112469819D01*
X157115501Y-112458445D01*
X157160638Y-112454000D01*
X157799362Y-112454000D01*
X157844499Y-112458445D01*
X157844499Y-112458445D01*
G37*
G36*
X168228908Y-108092380D02*
X168395767Y-108125570D01*
X168867299Y-108320885D01*
X169288803Y-108602526D01*
X169291669Y-108604441D01*
X169652559Y-108965331D01*
X169652561Y-108965334D01*
X169936115Y-109389701D01*
X169936115Y-109389702D01*
X170131430Y-109861234D01*
X170231000Y-110361807D01*
X170231000Y-110872193D01*
X170180017Y-111128501D01*
X170131430Y-111372767D01*
X169936115Y-111844299D01*
X169735125Y-112145100D01*
X169652559Y-112268669D01*
X169291669Y-112629559D01*
X169291666Y-112629561D01*
X168867299Y-112913115D01*
X168395767Y-113108430D01*
X168228908Y-113141620D01*
X167895193Y-113208000D01*
X167384807Y-113208000D01*
X167051092Y-113141620D01*
X166884233Y-113108430D01*
X166412701Y-112913115D01*
X165988334Y-112629561D01*
X165988331Y-112629559D01*
X165627441Y-112268669D01*
X165544875Y-112145100D01*
X165343885Y-111844299D01*
X165148570Y-111372767D01*
X165099983Y-111128501D01*
X165049000Y-110872193D01*
X165049000Y-110361807D01*
X165148570Y-109861234D01*
X165343885Y-109389702D01*
X165343885Y-109389701D01*
X165627439Y-108965334D01*
X165627441Y-108965331D01*
X165988331Y-108604441D01*
X165991197Y-108602526D01*
X166412701Y-108320885D01*
X166884233Y-108125570D01*
X167051092Y-108092380D01*
X167384807Y-108026000D01*
X167895193Y-108026000D01*
X168228908Y-108092380D01*
X168228908Y-108092380D01*
G37*
G36*
X152637142Y-110978242D02*
X152785102Y-111039530D01*
X152918258Y-111128502D01*
X153031498Y-111241742D01*
X153120470Y-111374898D01*
X153181758Y-111522858D01*
X153213000Y-111679925D01*
X153213000Y-111840075D01*
X153181758Y-111997142D01*
X153120470Y-112145102D01*
X153031498Y-112278258D01*
X152918258Y-112391498D01*
X152785102Y-112480470D01*
X152785101Y-112480471D01*
X152785100Y-112480471D01*
X152751583Y-112494354D01*
X152637142Y-112541758D01*
X152480075Y-112573000D01*
X152319925Y-112573000D01*
X152162858Y-112541758D01*
X152048417Y-112494354D01*
X152014900Y-112480471D01*
X152014899Y-112480471D01*
X152014898Y-112480470D01*
X151881742Y-112391498D01*
X151768502Y-112278258D01*
X151679530Y-112145102D01*
X151618242Y-111997142D01*
X151587000Y-111840075D01*
X151587000Y-111679925D01*
X151618242Y-111522858D01*
X151679530Y-111374898D01*
X151768502Y-111241742D01*
X151881742Y-111128502D01*
X152014898Y-111039530D01*
X152162858Y-110978242D01*
X152319925Y-110947000D01*
X152480075Y-110947000D01*
X152637142Y-110978242D01*
X152637142Y-110978242D01*
G37*
G36*
X157844499Y-110708445D02*
X157881993Y-110719819D01*
X157916557Y-110738294D01*
X157946847Y-110763153D01*
X157971706Y-110793443D01*
X157990181Y-110828007D01*
X158001555Y-110865501D01*
X158006000Y-110910638D01*
X158006000Y-111649362D01*
X158001555Y-111694499D01*
X157990181Y-111731993D01*
X157971706Y-111766557D01*
X157946847Y-111796847D01*
X157916557Y-111821706D01*
X157881993Y-111840181D01*
X157844499Y-111851555D01*
X157799362Y-111856000D01*
X157160638Y-111856000D01*
X157115501Y-111851555D01*
X157078007Y-111840181D01*
X157043443Y-111821706D01*
X157013153Y-111796847D01*
X156988294Y-111766557D01*
X156969819Y-111731993D01*
X156958445Y-111694499D01*
X156954000Y-111649362D01*
X156954000Y-110910638D01*
X156958445Y-110865501D01*
X156969819Y-110828007D01*
X156988294Y-110793443D01*
X157013153Y-110763153D01*
X157043443Y-110738294D01*
X157078007Y-110719819D01*
X157115501Y-110708445D01*
X157160638Y-110704000D01*
X157799362Y-110704000D01*
X157844499Y-110708445D01*
X157844499Y-110708445D01*
G37*
G36*
X123452812Y-78127624D02*
X123616784Y-78195544D01*
X123764354Y-78294147D01*
X123889853Y-78419646D01*
X123988456Y-78567216D01*
X124056376Y-78731188D01*
X124091000Y-78905259D01*
X124091000Y-79082741D01*
X124056376Y-79256812D01*
X123988456Y-79420784D01*
X123889853Y-79568354D01*
X123764354Y-79693853D01*
X123616784Y-79792456D01*
X123452812Y-79860376D01*
X123278741Y-79895000D01*
X123101259Y-79895000D01*
X122927188Y-79860376D01*
X122763216Y-79792456D01*
X122615646Y-79693853D01*
X122490147Y-79568354D01*
X122391544Y-79420784D01*
X122323624Y-79256812D01*
X122289000Y-79082741D01*
X122289000Y-78905259D01*
X122323624Y-78731188D01*
X122391544Y-78567216D01*
X122490147Y-78419646D01*
X122615646Y-78294147D01*
X122763216Y-78195544D01*
X122927188Y-78127624D01*
X123101259Y-78093000D01*
X123278741Y-78093000D01*
X123452812Y-78127624D01*
X123452812Y-78127624D01*
G37*
G36*
X125992812Y-78127624D02*
X126156784Y-78195544D01*
X126304354Y-78294147D01*
X126429853Y-78419646D01*
X126528456Y-78567216D01*
X126596376Y-78731188D01*
X126631000Y-78905259D01*
X126631000Y-79082741D01*
X126596376Y-79256812D01*
X126528456Y-79420784D01*
X126429853Y-79568354D01*
X126304354Y-79693853D01*
X126156784Y-79792456D01*
X125992812Y-79860376D01*
X125818741Y-79895000D01*
X125641259Y-79895000D01*
X125467188Y-79860376D01*
X125303216Y-79792456D01*
X125155646Y-79693853D01*
X125030147Y-79568354D01*
X124931544Y-79420784D01*
X124863624Y-79256812D01*
X124829000Y-79082741D01*
X124829000Y-78905259D01*
X124863624Y-78731188D01*
X124931544Y-78567216D01*
X125030147Y-78419646D01*
X125155646Y-78294147D01*
X125303216Y-78195544D01*
X125467188Y-78127624D01*
X125641259Y-78093000D01*
X125818741Y-78093000D01*
X125992812Y-78127624D01*
X125992812Y-78127624D01*
G37*
G36*
X128532812Y-78127624D02*
X128696784Y-78195544D01*
X128844354Y-78294147D01*
X128969853Y-78419646D01*
X129068456Y-78567216D01*
X129136376Y-78731188D01*
X129171000Y-78905259D01*
X129171000Y-79082741D01*
X129136376Y-79256812D01*
X129068456Y-79420784D01*
X128969853Y-79568354D01*
X128844354Y-79693853D01*
X128696784Y-79792456D01*
X128532812Y-79860376D01*
X128358741Y-79895000D01*
X128181259Y-79895000D01*
X128007188Y-79860376D01*
X127843216Y-79792456D01*
X127695646Y-79693853D01*
X127570147Y-79568354D01*
X127471544Y-79420784D01*
X127403624Y-79256812D01*
X127369000Y-79082741D01*
X127369000Y-78905259D01*
X127403624Y-78731188D01*
X127471544Y-78567216D01*
X127570147Y-78419646D01*
X127695646Y-78294147D01*
X127843216Y-78195544D01*
X128007188Y-78127624D01*
X128181259Y-78093000D01*
X128358741Y-78093000D01*
X128532812Y-78127624D01*
X128532812Y-78127624D01*
G37*
G36*
X131072812Y-78127624D02*
X131236784Y-78195544D01*
X131384354Y-78294147D01*
X131509853Y-78419646D01*
X131608456Y-78567216D01*
X131676376Y-78731188D01*
X131711000Y-78905259D01*
X131711000Y-79082741D01*
X131676376Y-79256812D01*
X131608456Y-79420784D01*
X131509853Y-79568354D01*
X131384354Y-79693853D01*
X131236784Y-79792456D01*
X131072812Y-79860376D01*
X130898741Y-79895000D01*
X130721259Y-79895000D01*
X130547188Y-79860376D01*
X130383216Y-79792456D01*
X130235646Y-79693853D01*
X130110147Y-79568354D01*
X130011544Y-79420784D01*
X129943624Y-79256812D01*
X129909000Y-79082741D01*
X129909000Y-78905259D01*
X129943624Y-78731188D01*
X130011544Y-78567216D01*
X130110147Y-78419646D01*
X130235646Y-78294147D01*
X130383216Y-78195544D01*
X130547188Y-78127624D01*
X130721259Y-78093000D01*
X130898741Y-78093000D01*
X131072812Y-78127624D01*
X131072812Y-78127624D01*
G37*
G36*
X133612812Y-78127624D02*
X133776784Y-78195544D01*
X133924354Y-78294147D01*
X134049853Y-78419646D01*
X134148456Y-78567216D01*
X134216376Y-78731188D01*
X134251000Y-78905259D01*
X134251000Y-79082741D01*
X134216376Y-79256812D01*
X134148456Y-79420784D01*
X134049853Y-79568354D01*
X133924354Y-79693853D01*
X133776784Y-79792456D01*
X133612812Y-79860376D01*
X133438741Y-79895000D01*
X133261259Y-79895000D01*
X133087188Y-79860376D01*
X132923216Y-79792456D01*
X132775646Y-79693853D01*
X132650147Y-79568354D01*
X132551544Y-79420784D01*
X132483624Y-79256812D01*
X132449000Y-79082741D01*
X132449000Y-78905259D01*
X132483624Y-78731188D01*
X132551544Y-78567216D01*
X132650147Y-78419646D01*
X132775646Y-78294147D01*
X132923216Y-78195544D01*
X133087188Y-78127624D01*
X133261259Y-78093000D01*
X133438741Y-78093000D01*
X133612812Y-78127624D01*
X133612812Y-78127624D01*
G37*
G36*
X136152812Y-78127624D02*
X136316784Y-78195544D01*
X136464354Y-78294147D01*
X136589853Y-78419646D01*
X136688456Y-78567216D01*
X136756376Y-78731188D01*
X136791000Y-78905259D01*
X136791000Y-79082741D01*
X136756376Y-79256812D01*
X136688456Y-79420784D01*
X136589853Y-79568354D01*
X136464354Y-79693853D01*
X136316784Y-79792456D01*
X136152812Y-79860376D01*
X135978741Y-79895000D01*
X135801259Y-79895000D01*
X135627188Y-79860376D01*
X135463216Y-79792456D01*
X135315646Y-79693853D01*
X135190147Y-79568354D01*
X135091544Y-79420784D01*
X135023624Y-79256812D01*
X134989000Y-79082741D01*
X134989000Y-78905259D01*
X135023624Y-78731188D01*
X135091544Y-78567216D01*
X135190147Y-78419646D01*
X135315646Y-78294147D01*
X135463216Y-78195544D01*
X135627188Y-78127624D01*
X135801259Y-78093000D01*
X135978741Y-78093000D01*
X136152812Y-78127624D01*
X136152812Y-78127624D01*
G37*
G36*
X138692812Y-78127624D02*
X138856784Y-78195544D01*
X139004354Y-78294147D01*
X139129853Y-78419646D01*
X139228456Y-78567216D01*
X139296376Y-78731188D01*
X139331000Y-78905259D01*
X139331000Y-79082741D01*
X139296376Y-79256812D01*
X139228456Y-79420784D01*
X139129853Y-79568354D01*
X139004354Y-79693853D01*
X138856784Y-79792456D01*
X138692812Y-79860376D01*
X138518741Y-79895000D01*
X138341259Y-79895000D01*
X138167188Y-79860376D01*
X138003216Y-79792456D01*
X137855646Y-79693853D01*
X137730147Y-79568354D01*
X137631544Y-79420784D01*
X137563624Y-79256812D01*
X137529000Y-79082741D01*
X137529000Y-78905259D01*
X137563624Y-78731188D01*
X137631544Y-78567216D01*
X137730147Y-78419646D01*
X137855646Y-78294147D01*
X138003216Y-78195544D01*
X138167188Y-78127624D01*
X138341259Y-78093000D01*
X138518741Y-78093000D01*
X138692812Y-78127624D01*
X138692812Y-78127624D01*
G37*
G36*
X141232812Y-78127624D02*
X141396784Y-78195544D01*
X141544354Y-78294147D01*
X141669853Y-78419646D01*
X141768456Y-78567216D01*
X141836376Y-78731188D01*
X141871000Y-78905259D01*
X141871000Y-79082741D01*
X141836376Y-79256812D01*
X141768456Y-79420784D01*
X141669853Y-79568354D01*
X141544354Y-79693853D01*
X141396784Y-79792456D01*
X141232812Y-79860376D01*
X141058741Y-79895000D01*
X140881259Y-79895000D01*
X140707188Y-79860376D01*
X140543216Y-79792456D01*
X140395646Y-79693853D01*
X140270147Y-79568354D01*
X140171544Y-79420784D01*
X140103624Y-79256812D01*
X140069000Y-79082741D01*
X140069000Y-78905259D01*
X140103624Y-78731188D01*
X140171544Y-78567216D01*
X140270147Y-78419646D01*
X140395646Y-78294147D01*
X140543216Y-78195544D01*
X140707188Y-78127624D01*
X140881259Y-78093000D01*
X141058741Y-78093000D01*
X141232812Y-78127624D01*
X141232812Y-78127624D01*
G37*
G36*
X166632812Y-78127624D02*
X166796784Y-78195544D01*
X166944354Y-78294147D01*
X167069853Y-78419646D01*
X167168456Y-78567216D01*
X167236376Y-78731188D01*
X167271000Y-78905259D01*
X167271000Y-79082741D01*
X167236376Y-79256812D01*
X167168456Y-79420784D01*
X167069853Y-79568354D01*
X166944354Y-79693853D01*
X166796784Y-79792456D01*
X166632812Y-79860376D01*
X166458741Y-79895000D01*
X166281259Y-79895000D01*
X166107188Y-79860376D01*
X165943216Y-79792456D01*
X165795646Y-79693853D01*
X165670147Y-79568354D01*
X165571544Y-79420784D01*
X165503624Y-79256812D01*
X165469000Y-79082741D01*
X165469000Y-78905259D01*
X165503624Y-78731188D01*
X165571544Y-78567216D01*
X165670147Y-78419646D01*
X165795646Y-78294147D01*
X165943216Y-78195544D01*
X166107188Y-78127624D01*
X166281259Y-78093000D01*
X166458741Y-78093000D01*
X166632812Y-78127624D01*
X166632812Y-78127624D01*
G37*
G36*
X171712812Y-78127624D02*
X171876784Y-78195544D01*
X172024354Y-78294147D01*
X172149853Y-78419646D01*
X172248456Y-78567216D01*
X172316376Y-78731188D01*
X172351000Y-78905259D01*
X172351000Y-79082741D01*
X172316376Y-79256812D01*
X172248456Y-79420784D01*
X172149853Y-79568354D01*
X172024354Y-79693853D01*
X171876784Y-79792456D01*
X171712812Y-79860376D01*
X171538741Y-79895000D01*
X171361259Y-79895000D01*
X171187188Y-79860376D01*
X171023216Y-79792456D01*
X170875646Y-79693853D01*
X170750147Y-79568354D01*
X170651544Y-79420784D01*
X170583624Y-79256812D01*
X170549000Y-79082741D01*
X170549000Y-78905259D01*
X170583624Y-78731188D01*
X170651544Y-78567216D01*
X170750147Y-78419646D01*
X170875646Y-78294147D01*
X171023216Y-78195544D01*
X171187188Y-78127624D01*
X171361259Y-78093000D01*
X171538741Y-78093000D01*
X171712812Y-78127624D01*
X171712812Y-78127624D01*
G37*
G36*
X164092812Y-78127624D02*
X164256784Y-78195544D01*
X164404354Y-78294147D01*
X164529853Y-78419646D01*
X164628456Y-78567216D01*
X164696376Y-78731188D01*
X164731000Y-78905259D01*
X164731000Y-79082741D01*
X164696376Y-79256812D01*
X164628456Y-79420784D01*
X164529853Y-79568354D01*
X164404354Y-79693853D01*
X164256784Y-79792456D01*
X164092812Y-79860376D01*
X163918741Y-79895000D01*
X163741259Y-79895000D01*
X163567188Y-79860376D01*
X163403216Y-79792456D01*
X163255646Y-79693853D01*
X163130147Y-79568354D01*
X163031544Y-79420784D01*
X162963624Y-79256812D01*
X162929000Y-79082741D01*
X162929000Y-78905259D01*
X162963624Y-78731188D01*
X163031544Y-78567216D01*
X163130147Y-78419646D01*
X163255646Y-78294147D01*
X163403216Y-78195544D01*
X163567188Y-78127624D01*
X163741259Y-78093000D01*
X163918741Y-78093000D01*
X164092812Y-78127624D01*
X164092812Y-78127624D01*
G37*
G36*
X161552812Y-78127624D02*
X161716784Y-78195544D01*
X161864354Y-78294147D01*
X161989853Y-78419646D01*
X162088456Y-78567216D01*
X162156376Y-78731188D01*
X162191000Y-78905259D01*
X162191000Y-79082741D01*
X162156376Y-79256812D01*
X162088456Y-79420784D01*
X161989853Y-79568354D01*
X161864354Y-79693853D01*
X161716784Y-79792456D01*
X161552812Y-79860376D01*
X161378741Y-79895000D01*
X161201259Y-79895000D01*
X161027188Y-79860376D01*
X160863216Y-79792456D01*
X160715646Y-79693853D01*
X160590147Y-79568354D01*
X160491544Y-79420784D01*
X160423624Y-79256812D01*
X160389000Y-79082741D01*
X160389000Y-78905259D01*
X160423624Y-78731188D01*
X160491544Y-78567216D01*
X160590147Y-78419646D01*
X160715646Y-78294147D01*
X160863216Y-78195544D01*
X161027188Y-78127624D01*
X161201259Y-78093000D01*
X161378741Y-78093000D01*
X161552812Y-78127624D01*
X161552812Y-78127624D01*
G37*
G36*
X159012812Y-78127624D02*
X159176784Y-78195544D01*
X159324354Y-78294147D01*
X159449853Y-78419646D01*
X159548456Y-78567216D01*
X159616376Y-78731188D01*
X159651000Y-78905259D01*
X159651000Y-79082741D01*
X159616376Y-79256812D01*
X159548456Y-79420784D01*
X159449853Y-79568354D01*
X159324354Y-79693853D01*
X159176784Y-79792456D01*
X159012812Y-79860376D01*
X158838741Y-79895000D01*
X158661259Y-79895000D01*
X158487188Y-79860376D01*
X158323216Y-79792456D01*
X158175646Y-79693853D01*
X158050147Y-79568354D01*
X157951544Y-79420784D01*
X157883624Y-79256812D01*
X157849000Y-79082741D01*
X157849000Y-78905259D01*
X157883624Y-78731188D01*
X157951544Y-78567216D01*
X158050147Y-78419646D01*
X158175646Y-78294147D01*
X158323216Y-78195544D01*
X158487188Y-78127624D01*
X158661259Y-78093000D01*
X158838741Y-78093000D01*
X159012812Y-78127624D01*
X159012812Y-78127624D01*
G37*
G36*
X156472812Y-78127624D02*
X156636784Y-78195544D01*
X156784354Y-78294147D01*
X156909853Y-78419646D01*
X157008456Y-78567216D01*
X157076376Y-78731188D01*
X157111000Y-78905259D01*
X157111000Y-79082741D01*
X157076376Y-79256812D01*
X157008456Y-79420784D01*
X156909853Y-79568354D01*
X156784354Y-79693853D01*
X156636784Y-79792456D01*
X156472812Y-79860376D01*
X156298741Y-79895000D01*
X156121259Y-79895000D01*
X155947188Y-79860376D01*
X155783216Y-79792456D01*
X155635646Y-79693853D01*
X155510147Y-79568354D01*
X155411544Y-79420784D01*
X155343624Y-79256812D01*
X155309000Y-79082741D01*
X155309000Y-78905259D01*
X155343624Y-78731188D01*
X155411544Y-78567216D01*
X155510147Y-78419646D01*
X155635646Y-78294147D01*
X155783216Y-78195544D01*
X155947188Y-78127624D01*
X156121259Y-78093000D01*
X156298741Y-78093000D01*
X156472812Y-78127624D01*
X156472812Y-78127624D01*
G37*
G36*
X151392812Y-78127624D02*
X151556784Y-78195544D01*
X151704354Y-78294147D01*
X151829853Y-78419646D01*
X151928456Y-78567216D01*
X151996376Y-78731188D01*
X152031000Y-78905259D01*
X152031000Y-79082741D01*
X151996376Y-79256812D01*
X151928456Y-79420784D01*
X151829853Y-79568354D01*
X151704354Y-79693853D01*
X151556784Y-79792456D01*
X151392812Y-79860376D01*
X151218741Y-79895000D01*
X151041259Y-79895000D01*
X150867188Y-79860376D01*
X150703216Y-79792456D01*
X150555646Y-79693853D01*
X150430147Y-79568354D01*
X150331544Y-79420784D01*
X150263624Y-79256812D01*
X150229000Y-79082741D01*
X150229000Y-78905259D01*
X150263624Y-78731188D01*
X150331544Y-78567216D01*
X150430147Y-78419646D01*
X150555646Y-78294147D01*
X150703216Y-78195544D01*
X150867188Y-78127624D01*
X151041259Y-78093000D01*
X151218741Y-78093000D01*
X151392812Y-78127624D01*
X151392812Y-78127624D01*
G37*
G36*
X148852812Y-78127624D02*
X149016784Y-78195544D01*
X149164354Y-78294147D01*
X149289853Y-78419646D01*
X149388456Y-78567216D01*
X149456376Y-78731188D01*
X149491000Y-78905259D01*
X149491000Y-79082741D01*
X149456376Y-79256812D01*
X149388456Y-79420784D01*
X149289853Y-79568354D01*
X149164354Y-79693853D01*
X149016784Y-79792456D01*
X148852812Y-79860376D01*
X148678741Y-79895000D01*
X148501259Y-79895000D01*
X148327188Y-79860376D01*
X148163216Y-79792456D01*
X148015646Y-79693853D01*
X147890147Y-79568354D01*
X147791544Y-79420784D01*
X147723624Y-79256812D01*
X147689000Y-79082741D01*
X147689000Y-78905259D01*
X147723624Y-78731188D01*
X147791544Y-78567216D01*
X147890147Y-78419646D01*
X148015646Y-78294147D01*
X148163216Y-78195544D01*
X148327188Y-78127624D01*
X148501259Y-78093000D01*
X148678741Y-78093000D01*
X148852812Y-78127624D01*
X148852812Y-78127624D01*
G37*
G36*
X146312812Y-78127624D02*
X146476784Y-78195544D01*
X146624354Y-78294147D01*
X146749853Y-78419646D01*
X146848456Y-78567216D01*
X146916376Y-78731188D01*
X146951000Y-78905259D01*
X146951000Y-79082741D01*
X146916376Y-79256812D01*
X146848456Y-79420784D01*
X146749853Y-79568354D01*
X146624354Y-79693853D01*
X146476784Y-79792456D01*
X146312812Y-79860376D01*
X146138741Y-79895000D01*
X145961259Y-79895000D01*
X145787188Y-79860376D01*
X145623216Y-79792456D01*
X145475646Y-79693853D01*
X145350147Y-79568354D01*
X145251544Y-79420784D01*
X145183624Y-79256812D01*
X145149000Y-79082741D01*
X145149000Y-78905259D01*
X145183624Y-78731188D01*
X145251544Y-78567216D01*
X145350147Y-78419646D01*
X145475646Y-78294147D01*
X145623216Y-78195544D01*
X145787188Y-78127624D01*
X145961259Y-78093000D01*
X146138741Y-78093000D01*
X146312812Y-78127624D01*
X146312812Y-78127624D01*
G37*
G36*
X153932812Y-78127624D02*
X154096784Y-78195544D01*
X154244354Y-78294147D01*
X154369853Y-78419646D01*
X154468456Y-78567216D01*
X154536376Y-78731188D01*
X154571000Y-78905259D01*
X154571000Y-79082741D01*
X154536376Y-79256812D01*
X154468456Y-79420784D01*
X154369853Y-79568354D01*
X154244354Y-79693853D01*
X154096784Y-79792456D01*
X153932812Y-79860376D01*
X153758741Y-79895000D01*
X153581259Y-79895000D01*
X153407188Y-79860376D01*
X153243216Y-79792456D01*
X153095646Y-79693853D01*
X152970147Y-79568354D01*
X152871544Y-79420784D01*
X152803624Y-79256812D01*
X152769000Y-79082741D01*
X152769000Y-78905259D01*
X152803624Y-78731188D01*
X152871544Y-78567216D01*
X152970147Y-78419646D01*
X153095646Y-78294147D01*
X153243216Y-78195544D01*
X153407188Y-78127624D01*
X153581259Y-78093000D01*
X153758741Y-78093000D01*
X153932812Y-78127624D01*
X153932812Y-78127624D01*
G37*
G36*
X143772812Y-78127624D02*
X143936784Y-78195544D01*
X144084354Y-78294147D01*
X144209853Y-78419646D01*
X144308456Y-78567216D01*
X144376376Y-78731188D01*
X144411000Y-78905259D01*
X144411000Y-79082741D01*
X144376376Y-79256812D01*
X144308456Y-79420784D01*
X144209853Y-79568354D01*
X144084354Y-79693853D01*
X143936784Y-79792456D01*
X143772812Y-79860376D01*
X143598741Y-79895000D01*
X143421259Y-79895000D01*
X143247188Y-79860376D01*
X143083216Y-79792456D01*
X142935646Y-79693853D01*
X142810147Y-79568354D01*
X142711544Y-79420784D01*
X142643624Y-79256812D01*
X142609000Y-79082741D01*
X142609000Y-78905259D01*
X142643624Y-78731188D01*
X142711544Y-78567216D01*
X142810147Y-78419646D01*
X142935646Y-78294147D01*
X143083216Y-78195544D01*
X143247188Y-78127624D01*
X143421259Y-78093000D01*
X143598741Y-78093000D01*
X143772812Y-78127624D01*
X143772812Y-78127624D01*
G37*
G36*
X169172812Y-78127624D02*
X169336784Y-78195544D01*
X169484354Y-78294147D01*
X169609853Y-78419646D01*
X169708456Y-78567216D01*
X169776376Y-78731188D01*
X169811000Y-78905259D01*
X169811000Y-79082741D01*
X169776376Y-79256812D01*
X169708456Y-79420784D01*
X169609853Y-79568354D01*
X169484354Y-79693853D01*
X169336784Y-79792456D01*
X169172812Y-79860376D01*
X168998741Y-79895000D01*
X168821259Y-79895000D01*
X168647188Y-79860376D01*
X168483216Y-79792456D01*
X168335646Y-79693853D01*
X168210147Y-79568354D01*
X168111544Y-79420784D01*
X168043624Y-79256812D01*
X168009000Y-79082741D01*
X168009000Y-78905259D01*
X168043624Y-78731188D01*
X168111544Y-78567216D01*
X168210147Y-78419646D01*
X168335646Y-78294147D01*
X168483216Y-78195544D01*
X168647188Y-78127624D01*
X168821259Y-78093000D01*
X168998741Y-78093000D01*
X169172812Y-78127624D01*
X169172812Y-78127624D01*
G37*
G36*
X176672527Y-76212736D02*
X176772410Y-76232604D01*
X177054674Y-76349521D01*
X177308705Y-76519259D01*
X177524741Y-76735295D01*
X177694479Y-76989326D01*
X177811396Y-77271590D01*
X177871000Y-77571240D01*
X177871000Y-77876760D01*
X177811396Y-78176410D01*
X177694479Y-78458674D01*
X177524741Y-78712705D01*
X177308705Y-78928741D01*
X177054674Y-79098479D01*
X176772410Y-79215396D01*
X176672527Y-79235264D01*
X176472762Y-79275000D01*
X176167238Y-79275000D01*
X175967473Y-79235264D01*
X175867590Y-79215396D01*
X175585326Y-79098479D01*
X175331295Y-78928741D01*
X175115259Y-78712705D01*
X174945521Y-78458674D01*
X174828604Y-78176410D01*
X174769000Y-77876760D01*
X174769000Y-77571240D01*
X174828604Y-77271590D01*
X174945521Y-76989326D01*
X175115259Y-76735295D01*
X175331295Y-76519259D01*
X175585326Y-76349521D01*
X175867590Y-76232604D01*
X175967473Y-76212736D01*
X176167238Y-76173000D01*
X176472762Y-76173000D01*
X176672527Y-76212736D01*
X176672527Y-76212736D01*
G37*
G36*
X118672527Y-76212736D02*
X118772410Y-76232604D01*
X119054674Y-76349521D01*
X119308705Y-76519259D01*
X119524741Y-76735295D01*
X119694479Y-76989326D01*
X119811396Y-77271590D01*
X119871000Y-77571240D01*
X119871000Y-77876760D01*
X119811396Y-78176410D01*
X119694479Y-78458674D01*
X119524741Y-78712705D01*
X119308705Y-78928741D01*
X119054674Y-79098479D01*
X118772410Y-79215396D01*
X118672527Y-79235264D01*
X118472762Y-79275000D01*
X118167238Y-79275000D01*
X117967473Y-79235264D01*
X117867590Y-79215396D01*
X117585326Y-79098479D01*
X117331295Y-78928741D01*
X117115259Y-78712705D01*
X116945521Y-78458674D01*
X116828604Y-78176410D01*
X116769000Y-77876760D01*
X116769000Y-77571240D01*
X116828604Y-77271590D01*
X116945521Y-76989326D01*
X117115259Y-76735295D01*
X117331295Y-76519259D01*
X117585326Y-76349521D01*
X117867590Y-76232604D01*
X117967473Y-76212736D01*
X118167238Y-76173000D01*
X118472762Y-76173000D01*
X118672527Y-76212736D01*
X118672527Y-76212736D01*
G37*
G36*
X151392812Y-75587624D02*
X151556784Y-75655544D01*
X151704354Y-75754147D01*
X151829853Y-75879646D01*
X151928456Y-76027216D01*
X151996376Y-76191188D01*
X152031000Y-76365259D01*
X152031000Y-76542741D01*
X151996376Y-76716812D01*
X151928456Y-76880784D01*
X151829853Y-77028354D01*
X151704354Y-77153853D01*
X151556784Y-77252456D01*
X151392812Y-77320376D01*
X151218741Y-77355000D01*
X151041259Y-77355000D01*
X150867188Y-77320376D01*
X150703216Y-77252456D01*
X150555646Y-77153853D01*
X150430147Y-77028354D01*
X150331544Y-76880784D01*
X150263624Y-76716812D01*
X150229000Y-76542741D01*
X150229000Y-76365259D01*
X150263624Y-76191188D01*
X150331544Y-76027216D01*
X150430147Y-75879646D01*
X150555646Y-75754147D01*
X150703216Y-75655544D01*
X150867188Y-75587624D01*
X151041259Y-75553000D01*
X151218741Y-75553000D01*
X151392812Y-75587624D01*
X151392812Y-75587624D01*
G37*
G36*
X153932812Y-75587624D02*
X154096784Y-75655544D01*
X154244354Y-75754147D01*
X154369853Y-75879646D01*
X154468456Y-76027216D01*
X154536376Y-76191188D01*
X154571000Y-76365259D01*
X154571000Y-76542741D01*
X154536376Y-76716812D01*
X154468456Y-76880784D01*
X154369853Y-77028354D01*
X154244354Y-77153853D01*
X154096784Y-77252456D01*
X153932812Y-77320376D01*
X153758741Y-77355000D01*
X153581259Y-77355000D01*
X153407188Y-77320376D01*
X153243216Y-77252456D01*
X153095646Y-77153853D01*
X152970147Y-77028354D01*
X152871544Y-76880784D01*
X152803624Y-76716812D01*
X152769000Y-76542741D01*
X152769000Y-76365259D01*
X152803624Y-76191188D01*
X152871544Y-76027216D01*
X152970147Y-75879646D01*
X153095646Y-75754147D01*
X153243216Y-75655544D01*
X153407188Y-75587624D01*
X153581259Y-75553000D01*
X153758741Y-75553000D01*
X153932812Y-75587624D01*
X153932812Y-75587624D01*
G37*
G36*
X148852812Y-75587624D02*
X149016784Y-75655544D01*
X149164354Y-75754147D01*
X149289853Y-75879646D01*
X149388456Y-76027216D01*
X149456376Y-76191188D01*
X149491000Y-76365259D01*
X149491000Y-76542741D01*
X149456376Y-76716812D01*
X149388456Y-76880784D01*
X149289853Y-77028354D01*
X149164354Y-77153853D01*
X149016784Y-77252456D01*
X148852812Y-77320376D01*
X148678741Y-77355000D01*
X148501259Y-77355000D01*
X148327188Y-77320376D01*
X148163216Y-77252456D01*
X148015646Y-77153853D01*
X147890147Y-77028354D01*
X147791544Y-76880784D01*
X147723624Y-76716812D01*
X147689000Y-76542741D01*
X147689000Y-76365259D01*
X147723624Y-76191188D01*
X147791544Y-76027216D01*
X147890147Y-75879646D01*
X148015646Y-75754147D01*
X148163216Y-75655544D01*
X148327188Y-75587624D01*
X148501259Y-75553000D01*
X148678741Y-75553000D01*
X148852812Y-75587624D01*
X148852812Y-75587624D01*
G37*
G36*
X156472812Y-75587624D02*
X156636784Y-75655544D01*
X156784354Y-75754147D01*
X156909853Y-75879646D01*
X157008456Y-76027216D01*
X157076376Y-76191188D01*
X157111000Y-76365259D01*
X157111000Y-76542741D01*
X157076376Y-76716812D01*
X157008456Y-76880784D01*
X156909853Y-77028354D01*
X156784354Y-77153853D01*
X156636784Y-77252456D01*
X156472812Y-77320376D01*
X156298741Y-77355000D01*
X156121259Y-77355000D01*
X155947188Y-77320376D01*
X155783216Y-77252456D01*
X155635646Y-77153853D01*
X155510147Y-77028354D01*
X155411544Y-76880784D01*
X155343624Y-76716812D01*
X155309000Y-76542741D01*
X155309000Y-76365259D01*
X155343624Y-76191188D01*
X155411544Y-76027216D01*
X155510147Y-75879646D01*
X155635646Y-75754147D01*
X155783216Y-75655544D01*
X155947188Y-75587624D01*
X156121259Y-75553000D01*
X156298741Y-75553000D01*
X156472812Y-75587624D01*
X156472812Y-75587624D01*
G37*
G36*
X146312812Y-75587624D02*
X146476784Y-75655544D01*
X146624354Y-75754147D01*
X146749853Y-75879646D01*
X146848456Y-76027216D01*
X146916376Y-76191188D01*
X146951000Y-76365259D01*
X146951000Y-76542741D01*
X146916376Y-76716812D01*
X146848456Y-76880784D01*
X146749853Y-77028354D01*
X146624354Y-77153853D01*
X146476784Y-77252456D01*
X146312812Y-77320376D01*
X146138741Y-77355000D01*
X145961259Y-77355000D01*
X145787188Y-77320376D01*
X145623216Y-77252456D01*
X145475646Y-77153853D01*
X145350147Y-77028354D01*
X145251544Y-76880784D01*
X145183624Y-76716812D01*
X145149000Y-76542741D01*
X145149000Y-76365259D01*
X145183624Y-76191188D01*
X145251544Y-76027216D01*
X145350147Y-75879646D01*
X145475646Y-75754147D01*
X145623216Y-75655544D01*
X145787188Y-75587624D01*
X145961259Y-75553000D01*
X146138741Y-75553000D01*
X146312812Y-75587624D01*
X146312812Y-75587624D01*
G37*
G36*
X143772812Y-75587624D02*
X143936784Y-75655544D01*
X144084354Y-75754147D01*
X144209853Y-75879646D01*
X144308456Y-76027216D01*
X144376376Y-76191188D01*
X144411000Y-76365259D01*
X144411000Y-76542741D01*
X144376376Y-76716812D01*
X144308456Y-76880784D01*
X144209853Y-77028354D01*
X144084354Y-77153853D01*
X143936784Y-77252456D01*
X143772812Y-77320376D01*
X143598741Y-77355000D01*
X143421259Y-77355000D01*
X143247188Y-77320376D01*
X143083216Y-77252456D01*
X142935646Y-77153853D01*
X142810147Y-77028354D01*
X142711544Y-76880784D01*
X142643624Y-76716812D01*
X142609000Y-76542741D01*
X142609000Y-76365259D01*
X142643624Y-76191188D01*
X142711544Y-76027216D01*
X142810147Y-75879646D01*
X142935646Y-75754147D01*
X143083216Y-75655544D01*
X143247188Y-75587624D01*
X143421259Y-75553000D01*
X143598741Y-75553000D01*
X143772812Y-75587624D01*
X143772812Y-75587624D01*
G37*
G36*
X161552812Y-75587624D02*
X161716784Y-75655544D01*
X161864354Y-75754147D01*
X161989853Y-75879646D01*
X162088456Y-76027216D01*
X162156376Y-76191188D01*
X162191000Y-76365259D01*
X162191000Y-76542741D01*
X162156376Y-76716812D01*
X162088456Y-76880784D01*
X161989853Y-77028354D01*
X161864354Y-77153853D01*
X161716784Y-77252456D01*
X161552812Y-77320376D01*
X161378741Y-77355000D01*
X161201259Y-77355000D01*
X161027188Y-77320376D01*
X160863216Y-77252456D01*
X160715646Y-77153853D01*
X160590147Y-77028354D01*
X160491544Y-76880784D01*
X160423624Y-76716812D01*
X160389000Y-76542741D01*
X160389000Y-76365259D01*
X160423624Y-76191188D01*
X160491544Y-76027216D01*
X160590147Y-75879646D01*
X160715646Y-75754147D01*
X160863216Y-75655544D01*
X161027188Y-75587624D01*
X161201259Y-75553000D01*
X161378741Y-75553000D01*
X161552812Y-75587624D01*
X161552812Y-75587624D01*
G37*
G36*
X141232812Y-75587624D02*
X141396784Y-75655544D01*
X141544354Y-75754147D01*
X141669853Y-75879646D01*
X141768456Y-76027216D01*
X141836376Y-76191188D01*
X141871000Y-76365259D01*
X141871000Y-76542741D01*
X141836376Y-76716812D01*
X141768456Y-76880784D01*
X141669853Y-77028354D01*
X141544354Y-77153853D01*
X141396784Y-77252456D01*
X141232812Y-77320376D01*
X141058741Y-77355000D01*
X140881259Y-77355000D01*
X140707188Y-77320376D01*
X140543216Y-77252456D01*
X140395646Y-77153853D01*
X140270147Y-77028354D01*
X140171544Y-76880784D01*
X140103624Y-76716812D01*
X140069000Y-76542741D01*
X140069000Y-76365259D01*
X140103624Y-76191188D01*
X140171544Y-76027216D01*
X140270147Y-75879646D01*
X140395646Y-75754147D01*
X140543216Y-75655544D01*
X140707188Y-75587624D01*
X140881259Y-75553000D01*
X141058741Y-75553000D01*
X141232812Y-75587624D01*
X141232812Y-75587624D01*
G37*
G36*
X164092812Y-75587624D02*
X164256784Y-75655544D01*
X164404354Y-75754147D01*
X164529853Y-75879646D01*
X164628456Y-76027216D01*
X164696376Y-76191188D01*
X164731000Y-76365259D01*
X164731000Y-76542741D01*
X164696376Y-76716812D01*
X164628456Y-76880784D01*
X164529853Y-77028354D01*
X164404354Y-77153853D01*
X164256784Y-77252456D01*
X164092812Y-77320376D01*
X163918741Y-77355000D01*
X163741259Y-77355000D01*
X163567188Y-77320376D01*
X163403216Y-77252456D01*
X163255646Y-77153853D01*
X163130147Y-77028354D01*
X163031544Y-76880784D01*
X162963624Y-76716812D01*
X162929000Y-76542741D01*
X162929000Y-76365259D01*
X162963624Y-76191188D01*
X163031544Y-76027216D01*
X163130147Y-75879646D01*
X163255646Y-75754147D01*
X163403216Y-75655544D01*
X163567188Y-75587624D01*
X163741259Y-75553000D01*
X163918741Y-75553000D01*
X164092812Y-75587624D01*
X164092812Y-75587624D01*
G37*
G36*
X138692812Y-75587624D02*
X138856784Y-75655544D01*
X139004354Y-75754147D01*
X139129853Y-75879646D01*
X139228456Y-76027216D01*
X139296376Y-76191188D01*
X139331000Y-76365259D01*
X139331000Y-76542741D01*
X139296376Y-76716812D01*
X139228456Y-76880784D01*
X139129853Y-77028354D01*
X139004354Y-77153853D01*
X138856784Y-77252456D01*
X138692812Y-77320376D01*
X138518741Y-77355000D01*
X138341259Y-77355000D01*
X138167188Y-77320376D01*
X138003216Y-77252456D01*
X137855646Y-77153853D01*
X137730147Y-77028354D01*
X137631544Y-76880784D01*
X137563624Y-76716812D01*
X137529000Y-76542741D01*
X137529000Y-76365259D01*
X137563624Y-76191188D01*
X137631544Y-76027216D01*
X137730147Y-75879646D01*
X137855646Y-75754147D01*
X138003216Y-75655544D01*
X138167188Y-75587624D01*
X138341259Y-75553000D01*
X138518741Y-75553000D01*
X138692812Y-75587624D01*
X138692812Y-75587624D01*
G37*
G36*
X166632812Y-75587624D02*
X166796784Y-75655544D01*
X166944354Y-75754147D01*
X167069853Y-75879646D01*
X167168456Y-76027216D01*
X167236376Y-76191188D01*
X167271000Y-76365259D01*
X167271000Y-76542741D01*
X167236376Y-76716812D01*
X167168456Y-76880784D01*
X167069853Y-77028354D01*
X166944354Y-77153853D01*
X166796784Y-77252456D01*
X166632812Y-77320376D01*
X166458741Y-77355000D01*
X166281259Y-77355000D01*
X166107188Y-77320376D01*
X165943216Y-77252456D01*
X165795646Y-77153853D01*
X165670147Y-77028354D01*
X165571544Y-76880784D01*
X165503624Y-76716812D01*
X165469000Y-76542741D01*
X165469000Y-76365259D01*
X165503624Y-76191188D01*
X165571544Y-76027216D01*
X165670147Y-75879646D01*
X165795646Y-75754147D01*
X165943216Y-75655544D01*
X166107188Y-75587624D01*
X166281259Y-75553000D01*
X166458741Y-75553000D01*
X166632812Y-75587624D01*
X166632812Y-75587624D01*
G37*
G36*
X136152812Y-75587624D02*
X136316784Y-75655544D01*
X136464354Y-75754147D01*
X136589853Y-75879646D01*
X136688456Y-76027216D01*
X136756376Y-76191188D01*
X136791000Y-76365259D01*
X136791000Y-76542741D01*
X136756376Y-76716812D01*
X136688456Y-76880784D01*
X136589853Y-77028354D01*
X136464354Y-77153853D01*
X136316784Y-77252456D01*
X136152812Y-77320376D01*
X135978741Y-77355000D01*
X135801259Y-77355000D01*
X135627188Y-77320376D01*
X135463216Y-77252456D01*
X135315646Y-77153853D01*
X135190147Y-77028354D01*
X135091544Y-76880784D01*
X135023624Y-76716812D01*
X134989000Y-76542741D01*
X134989000Y-76365259D01*
X135023624Y-76191188D01*
X135091544Y-76027216D01*
X135190147Y-75879646D01*
X135315646Y-75754147D01*
X135463216Y-75655544D01*
X135627188Y-75587624D01*
X135801259Y-75553000D01*
X135978741Y-75553000D01*
X136152812Y-75587624D01*
X136152812Y-75587624D01*
G37*
G36*
X169172812Y-75587624D02*
X169336784Y-75655544D01*
X169484354Y-75754147D01*
X169609853Y-75879646D01*
X169708456Y-76027216D01*
X169776376Y-76191188D01*
X169811000Y-76365259D01*
X169811000Y-76542741D01*
X169776376Y-76716812D01*
X169708456Y-76880784D01*
X169609853Y-77028354D01*
X169484354Y-77153853D01*
X169336784Y-77252456D01*
X169172812Y-77320376D01*
X168998741Y-77355000D01*
X168821259Y-77355000D01*
X168647188Y-77320376D01*
X168483216Y-77252456D01*
X168335646Y-77153853D01*
X168210147Y-77028354D01*
X168111544Y-76880784D01*
X168043624Y-76716812D01*
X168009000Y-76542741D01*
X168009000Y-76365259D01*
X168043624Y-76191188D01*
X168111544Y-76027216D01*
X168210147Y-75879646D01*
X168335646Y-75754147D01*
X168483216Y-75655544D01*
X168647188Y-75587624D01*
X168821259Y-75553000D01*
X168998741Y-75553000D01*
X169172812Y-75587624D01*
X169172812Y-75587624D01*
G37*
G36*
X133612812Y-75587624D02*
X133776784Y-75655544D01*
X133924354Y-75754147D01*
X134049853Y-75879646D01*
X134148456Y-76027216D01*
X134216376Y-76191188D01*
X134251000Y-76365259D01*
X134251000Y-76542741D01*
X134216376Y-76716812D01*
X134148456Y-76880784D01*
X134049853Y-77028354D01*
X133924354Y-77153853D01*
X133776784Y-77252456D01*
X133612812Y-77320376D01*
X133438741Y-77355000D01*
X133261259Y-77355000D01*
X133087188Y-77320376D01*
X132923216Y-77252456D01*
X132775646Y-77153853D01*
X132650147Y-77028354D01*
X132551544Y-76880784D01*
X132483624Y-76716812D01*
X132449000Y-76542741D01*
X132449000Y-76365259D01*
X132483624Y-76191188D01*
X132551544Y-76027216D01*
X132650147Y-75879646D01*
X132775646Y-75754147D01*
X132923216Y-75655544D01*
X133087188Y-75587624D01*
X133261259Y-75553000D01*
X133438741Y-75553000D01*
X133612812Y-75587624D01*
X133612812Y-75587624D01*
G37*
G36*
X171712812Y-75587624D02*
X171876784Y-75655544D01*
X172024354Y-75754147D01*
X172149853Y-75879646D01*
X172248456Y-76027216D01*
X172316376Y-76191188D01*
X172351000Y-76365259D01*
X172351000Y-76542741D01*
X172316376Y-76716812D01*
X172248456Y-76880784D01*
X172149853Y-77028354D01*
X172024354Y-77153853D01*
X171876784Y-77252456D01*
X171712812Y-77320376D01*
X171538741Y-77355000D01*
X171361259Y-77355000D01*
X171187188Y-77320376D01*
X171023216Y-77252456D01*
X170875646Y-77153853D01*
X170750147Y-77028354D01*
X170651544Y-76880784D01*
X170583624Y-76716812D01*
X170549000Y-76542741D01*
X170549000Y-76365259D01*
X170583624Y-76191188D01*
X170651544Y-76027216D01*
X170750147Y-75879646D01*
X170875646Y-75754147D01*
X171023216Y-75655544D01*
X171187188Y-75587624D01*
X171361259Y-75553000D01*
X171538741Y-75553000D01*
X171712812Y-75587624D01*
X171712812Y-75587624D01*
G37*
G36*
X131072812Y-75587624D02*
X131236784Y-75655544D01*
X131384354Y-75754147D01*
X131509853Y-75879646D01*
X131608456Y-76027216D01*
X131676376Y-76191188D01*
X131711000Y-76365259D01*
X131711000Y-76542741D01*
X131676376Y-76716812D01*
X131608456Y-76880784D01*
X131509853Y-77028354D01*
X131384354Y-77153853D01*
X131236784Y-77252456D01*
X131072812Y-77320376D01*
X130898741Y-77355000D01*
X130721259Y-77355000D01*
X130547188Y-77320376D01*
X130383216Y-77252456D01*
X130235646Y-77153853D01*
X130110147Y-77028354D01*
X130011544Y-76880784D01*
X129943624Y-76716812D01*
X129909000Y-76542741D01*
X129909000Y-76365259D01*
X129943624Y-76191188D01*
X130011544Y-76027216D01*
X130110147Y-75879646D01*
X130235646Y-75754147D01*
X130383216Y-75655544D01*
X130547188Y-75587624D01*
X130721259Y-75553000D01*
X130898741Y-75553000D01*
X131072812Y-75587624D01*
X131072812Y-75587624D01*
G37*
G36*
X128532812Y-75587624D02*
X128696784Y-75655544D01*
X128844354Y-75754147D01*
X128969853Y-75879646D01*
X129068456Y-76027216D01*
X129136376Y-76191188D01*
X129171000Y-76365259D01*
X129171000Y-76542741D01*
X129136376Y-76716812D01*
X129068456Y-76880784D01*
X128969853Y-77028354D01*
X128844354Y-77153853D01*
X128696784Y-77252456D01*
X128532812Y-77320376D01*
X128358741Y-77355000D01*
X128181259Y-77355000D01*
X128007188Y-77320376D01*
X127843216Y-77252456D01*
X127695646Y-77153853D01*
X127570147Y-77028354D01*
X127471544Y-76880784D01*
X127403624Y-76716812D01*
X127369000Y-76542741D01*
X127369000Y-76365259D01*
X127403624Y-76191188D01*
X127471544Y-76027216D01*
X127570147Y-75879646D01*
X127695646Y-75754147D01*
X127843216Y-75655544D01*
X128007188Y-75587624D01*
X128181259Y-75553000D01*
X128358741Y-75553000D01*
X128532812Y-75587624D01*
X128532812Y-75587624D01*
G37*
G36*
X125992812Y-75587624D02*
X126156784Y-75655544D01*
X126304354Y-75754147D01*
X126429853Y-75879646D01*
X126528456Y-76027216D01*
X126596376Y-76191188D01*
X126631000Y-76365259D01*
X126631000Y-76542741D01*
X126596376Y-76716812D01*
X126528456Y-76880784D01*
X126429853Y-77028354D01*
X126304354Y-77153853D01*
X126156784Y-77252456D01*
X125992812Y-77320376D01*
X125818741Y-77355000D01*
X125641259Y-77355000D01*
X125467188Y-77320376D01*
X125303216Y-77252456D01*
X125155646Y-77153853D01*
X125030147Y-77028354D01*
X124931544Y-76880784D01*
X124863624Y-76716812D01*
X124829000Y-76542741D01*
X124829000Y-76365259D01*
X124863624Y-76191188D01*
X124931544Y-76027216D01*
X125030147Y-75879646D01*
X125155646Y-75754147D01*
X125303216Y-75655544D01*
X125467188Y-75587624D01*
X125641259Y-75553000D01*
X125818741Y-75553000D01*
X125992812Y-75587624D01*
X125992812Y-75587624D01*
G37*
G36*
X159012812Y-75587624D02*
X159176784Y-75655544D01*
X159324354Y-75754147D01*
X159449853Y-75879646D01*
X159548456Y-76027216D01*
X159616376Y-76191188D01*
X159651000Y-76365259D01*
X159651000Y-76542741D01*
X159616376Y-76716812D01*
X159548456Y-76880784D01*
X159449853Y-77028354D01*
X159324354Y-77153853D01*
X159176784Y-77252456D01*
X159012812Y-77320376D01*
X158838741Y-77355000D01*
X158661259Y-77355000D01*
X158487188Y-77320376D01*
X158323216Y-77252456D01*
X158175646Y-77153853D01*
X158050147Y-77028354D01*
X157951544Y-76880784D01*
X157883624Y-76716812D01*
X157849000Y-76542741D01*
X157849000Y-76365259D01*
X157883624Y-76191188D01*
X157951544Y-76027216D01*
X158050147Y-75879646D01*
X158175646Y-75754147D01*
X158323216Y-75655544D01*
X158487188Y-75587624D01*
X158661259Y-75553000D01*
X158838741Y-75553000D01*
X159012812Y-75587624D01*
X159012812Y-75587624D01*
G37*
G36*
X123452812Y-75587624D02*
X123616784Y-75655544D01*
X123764354Y-75754147D01*
X123889853Y-75879646D01*
X123988456Y-76027216D01*
X124056376Y-76191188D01*
X124091000Y-76365259D01*
X124091000Y-76542741D01*
X124056376Y-76716812D01*
X123988456Y-76880784D01*
X123889853Y-77028354D01*
X123764354Y-77153853D01*
X123616784Y-77252456D01*
X123452812Y-77320376D01*
X123278741Y-77355000D01*
X123101259Y-77355000D01*
X122927188Y-77320376D01*
X122763216Y-77252456D01*
X122615646Y-77153853D01*
X122490147Y-77028354D01*
X122391544Y-76880784D01*
X122323624Y-76716812D01*
X122289000Y-76542741D01*
X122289000Y-76365259D01*
X122323624Y-76191188D01*
X122391544Y-76027216D01*
X122490147Y-75879646D01*
X122615646Y-75754147D01*
X122763216Y-75655544D01*
X122927188Y-75587624D01*
X123101259Y-75553000D01*
X123278741Y-75553000D01*
X123452812Y-75587624D01*
X123452812Y-75587624D01*
G37*
M02*
