G04 #@! TF.GenerationSoftware,KiCad,Pcbnew,(5.0.0)*
G04 #@! TF.CreationDate,2019-09-27T20:42:56-05:00*
G04 #@! TF.ProjectId,RaspberryPiBreakout_Hardware,5261737062657272795069427265616B,rev?*
G04 #@! TF.SameCoordinates,Original*
G04 #@! TF.FileFunction,Soldermask,Top*
G04 #@! TF.FilePolarity,Negative*
%FSLAX46Y46*%
G04 Gerber Fmt 4.6, Leading zero omitted, Abs format (unit mm)*
G04 Created by KiCad (PCBNEW (5.0.0)) date 09/27/19 20:42:56*
%MOMM*%
%LPD*%
G01*
G04 APERTURE LIST*
%ADD10C,0.100000*%
G04 APERTURE END LIST*
D10*
G36*
X176672527Y-125212736D02*
X176772410Y-125232604D01*
X177054674Y-125349521D01*
X177308705Y-125519259D01*
X177524741Y-125735295D01*
X177694479Y-125989326D01*
X177811396Y-126271590D01*
X177871000Y-126571240D01*
X177871000Y-126876760D01*
X177811396Y-127176410D01*
X177694479Y-127458674D01*
X177524741Y-127712705D01*
X177308705Y-127928741D01*
X177054674Y-128098479D01*
X176772410Y-128215396D01*
X176672527Y-128235264D01*
X176472762Y-128275000D01*
X176167238Y-128275000D01*
X175967473Y-128235264D01*
X175867590Y-128215396D01*
X175585326Y-128098479D01*
X175331295Y-127928741D01*
X175115259Y-127712705D01*
X174945521Y-127458674D01*
X174828604Y-127176410D01*
X174769000Y-126876760D01*
X174769000Y-126571240D01*
X174828604Y-126271590D01*
X174945521Y-125989326D01*
X175115259Y-125735295D01*
X175331295Y-125519259D01*
X175585326Y-125349521D01*
X175867590Y-125232604D01*
X175967473Y-125212736D01*
X176167238Y-125173000D01*
X176472762Y-125173000D01*
X176672527Y-125212736D01*
X176672527Y-125212736D01*
G37*
G36*
X118672527Y-125212736D02*
X118772410Y-125232604D01*
X119054674Y-125349521D01*
X119308705Y-125519259D01*
X119524741Y-125735295D01*
X119694479Y-125989326D01*
X119811396Y-126271590D01*
X119871000Y-126571240D01*
X119871000Y-126876760D01*
X119811396Y-127176410D01*
X119694479Y-127458674D01*
X119524741Y-127712705D01*
X119308705Y-127928741D01*
X119054674Y-128098479D01*
X118772410Y-128215396D01*
X118672527Y-128235264D01*
X118472762Y-128275000D01*
X118167238Y-128275000D01*
X117967473Y-128235264D01*
X117867590Y-128215396D01*
X117585326Y-128098479D01*
X117331295Y-127928741D01*
X117115259Y-127712705D01*
X116945521Y-127458674D01*
X116828604Y-127176410D01*
X116769000Y-126876760D01*
X116769000Y-126571240D01*
X116828604Y-126271590D01*
X116945521Y-125989326D01*
X117115259Y-125735295D01*
X117331295Y-125519259D01*
X117585326Y-125349521D01*
X117867590Y-125232604D01*
X117967473Y-125212736D01*
X118167238Y-125173000D01*
X118472762Y-125173000D01*
X118672527Y-125212736D01*
X118672527Y-125212736D01*
G37*
G36*
X78242037Y-120212250D02*
X78242039Y-120212251D01*
X78242040Y-120212251D01*
X78565251Y-120346129D01*
X78565252Y-120346130D01*
X78856137Y-120540493D01*
X79103507Y-120787863D01*
X79103509Y-120787866D01*
X79297871Y-121078749D01*
X79418705Y-121370470D01*
X79431750Y-121401963D01*
X79443891Y-121463000D01*
X79500000Y-121745079D01*
X79500000Y-122094921D01*
X79431749Y-122438040D01*
X79297871Y-122761251D01*
X79297870Y-122761252D01*
X79103507Y-123052137D01*
X78856137Y-123299507D01*
X78856134Y-123299509D01*
X78565251Y-123493871D01*
X78242040Y-123627749D01*
X78242039Y-123627749D01*
X78242037Y-123627750D01*
X77898922Y-123696000D01*
X77549078Y-123696000D01*
X77205963Y-123627750D01*
X77205961Y-123627749D01*
X77205960Y-123627749D01*
X76882749Y-123493871D01*
X76591866Y-123299509D01*
X76591863Y-123299507D01*
X76344493Y-123052137D01*
X76150130Y-122761252D01*
X76150129Y-122761251D01*
X76016251Y-122438040D01*
X75948000Y-122094921D01*
X75948000Y-121745079D01*
X76004109Y-121463000D01*
X76016250Y-121401963D01*
X76029295Y-121370470D01*
X76150129Y-121078749D01*
X76344491Y-120787866D01*
X76344493Y-120787863D01*
X76591863Y-120540493D01*
X76882748Y-120346130D01*
X76882749Y-120346129D01*
X77205960Y-120212251D01*
X77205961Y-120212251D01*
X77205963Y-120212250D01*
X77549078Y-120144000D01*
X77898922Y-120144000D01*
X78242037Y-120212250D01*
X78242037Y-120212250D01*
G37*
G36*
X86597142Y-119868242D02*
X86745102Y-119929530D01*
X86878258Y-120018502D01*
X86991498Y-120131742D01*
X87080470Y-120264898D01*
X87141758Y-120412858D01*
X87173000Y-120569925D01*
X87173000Y-120730075D01*
X87141758Y-120887142D01*
X87080470Y-121035102D01*
X86991498Y-121168258D01*
X86878258Y-121281498D01*
X86745102Y-121370470D01*
X86597142Y-121431758D01*
X86440075Y-121463000D01*
X86279925Y-121463000D01*
X86122858Y-121431758D01*
X85974898Y-121370470D01*
X85841742Y-121281498D01*
X85728502Y-121168258D01*
X85639530Y-121035102D01*
X85578242Y-120887142D01*
X85547000Y-120730075D01*
X85547000Y-120569925D01*
X85578242Y-120412858D01*
X85639530Y-120264898D01*
X85728502Y-120131742D01*
X85841742Y-120018502D01*
X85974898Y-119929530D01*
X86122858Y-119868242D01*
X86279925Y-119837000D01*
X86440075Y-119837000D01*
X86597142Y-119868242D01*
X86597142Y-119868242D01*
G37*
G36*
X86597142Y-117328242D02*
X86745102Y-117389530D01*
X86878258Y-117478502D01*
X86991498Y-117591742D01*
X87080470Y-117724898D01*
X87141758Y-117872858D01*
X87173000Y-118029925D01*
X87173000Y-118190075D01*
X87141758Y-118347142D01*
X87080470Y-118495102D01*
X86991498Y-118628258D01*
X86878258Y-118741498D01*
X86745102Y-118830470D01*
X86597142Y-118891758D01*
X86440075Y-118923000D01*
X86279925Y-118923000D01*
X86122858Y-118891758D01*
X85974898Y-118830470D01*
X85841742Y-118741498D01*
X85728502Y-118628258D01*
X85639530Y-118495102D01*
X85578242Y-118347142D01*
X85547000Y-118190075D01*
X85547000Y-118029925D01*
X85578242Y-117872858D01*
X85639530Y-117724898D01*
X85728502Y-117591742D01*
X85841742Y-117478502D01*
X85974898Y-117389530D01*
X86122858Y-117328242D01*
X86279925Y-117297000D01*
X86440075Y-117297000D01*
X86597142Y-117328242D01*
X86597142Y-117328242D01*
G37*
G36*
X86597142Y-114788242D02*
X86745102Y-114849530D01*
X86878258Y-114938502D01*
X86991498Y-115051742D01*
X87080470Y-115184898D01*
X87141758Y-115332858D01*
X87173000Y-115489925D01*
X87173000Y-115650075D01*
X87141758Y-115807142D01*
X87080470Y-115955102D01*
X86991498Y-116088258D01*
X86878258Y-116201498D01*
X86745102Y-116290470D01*
X86597142Y-116351758D01*
X86440075Y-116383000D01*
X86279925Y-116383000D01*
X86122858Y-116351758D01*
X85974898Y-116290470D01*
X85841742Y-116201498D01*
X85728502Y-116088258D01*
X85639530Y-115955102D01*
X85578242Y-115807142D01*
X85547000Y-115650075D01*
X85547000Y-115489925D01*
X85578242Y-115332858D01*
X85639530Y-115184898D01*
X85728502Y-115051742D01*
X85841742Y-114938502D01*
X85974898Y-114849530D01*
X86122858Y-114788242D01*
X86279925Y-114757000D01*
X86440075Y-114757000D01*
X86597142Y-114788242D01*
X86597142Y-114788242D01*
G37*
G36*
X78242037Y-112592250D02*
X78242039Y-112592251D01*
X78242040Y-112592251D01*
X78565251Y-112726129D01*
X78565252Y-112726130D01*
X78856137Y-112920493D01*
X79103507Y-113167863D01*
X79103509Y-113167866D01*
X79297871Y-113458749D01*
X79428452Y-113774000D01*
X79431750Y-113781963D01*
X79500000Y-114125078D01*
X79500000Y-114474922D01*
X79433313Y-114810181D01*
X79431749Y-114818040D01*
X79297871Y-115141251D01*
X79169844Y-115332857D01*
X79103507Y-115432137D01*
X78856137Y-115679507D01*
X78856134Y-115679509D01*
X78565251Y-115873871D01*
X78242040Y-116007749D01*
X78242039Y-116007749D01*
X78242037Y-116007750D01*
X77898922Y-116076000D01*
X77549078Y-116076000D01*
X77205963Y-116007750D01*
X77205961Y-116007749D01*
X77205960Y-116007749D01*
X76882749Y-115873871D01*
X76591866Y-115679509D01*
X76591863Y-115679507D01*
X76344493Y-115432137D01*
X76278156Y-115332857D01*
X76150129Y-115141251D01*
X76016251Y-114818040D01*
X76014688Y-114810181D01*
X75948000Y-114474922D01*
X75948000Y-114125078D01*
X76016250Y-113781963D01*
X76019548Y-113774000D01*
X76150129Y-113458749D01*
X76344491Y-113167866D01*
X76344493Y-113167863D01*
X76591863Y-112920493D01*
X76882748Y-112726130D01*
X76882749Y-112726129D01*
X77205960Y-112592251D01*
X77205961Y-112592251D01*
X77205963Y-112592250D01*
X77549078Y-112524000D01*
X77898922Y-112524000D01*
X78242037Y-112592250D01*
X78242037Y-112592250D01*
G37*
G36*
X151064499Y-113778445D02*
X151101993Y-113789819D01*
X151136557Y-113808294D01*
X151166847Y-113833153D01*
X151191706Y-113863443D01*
X151210181Y-113898007D01*
X151221555Y-113935501D01*
X151226000Y-113980638D01*
X151226000Y-114619362D01*
X151221555Y-114664499D01*
X151210181Y-114701993D01*
X151191706Y-114736557D01*
X151166847Y-114766847D01*
X151136557Y-114791706D01*
X151101993Y-114810181D01*
X151064499Y-114821555D01*
X151019362Y-114826000D01*
X150280638Y-114826000D01*
X150235501Y-114821555D01*
X150198007Y-114810181D01*
X150163443Y-114791706D01*
X150133153Y-114766847D01*
X150108294Y-114736557D01*
X150089819Y-114701993D01*
X150078445Y-114664499D01*
X150074000Y-114619362D01*
X150074000Y-113980638D01*
X150078445Y-113935501D01*
X150089819Y-113898007D01*
X150108294Y-113863443D01*
X150133153Y-113833153D01*
X150163443Y-113808294D01*
X150198007Y-113789819D01*
X150235501Y-113778445D01*
X150280638Y-113774000D01*
X151019362Y-113774000D01*
X151064499Y-113778445D01*
X151064499Y-113778445D01*
G37*
G36*
X152814499Y-113778445D02*
X152851993Y-113789819D01*
X152886557Y-113808294D01*
X152916847Y-113833153D01*
X152941706Y-113863443D01*
X152960181Y-113898007D01*
X152971555Y-113935501D01*
X152976000Y-113980638D01*
X152976000Y-114619362D01*
X152971555Y-114664499D01*
X152960181Y-114701993D01*
X152941706Y-114736557D01*
X152916847Y-114766847D01*
X152886557Y-114791706D01*
X152851993Y-114810181D01*
X152814499Y-114821555D01*
X152769362Y-114826000D01*
X152030638Y-114826000D01*
X151985501Y-114821555D01*
X151948007Y-114810181D01*
X151913443Y-114791706D01*
X151883153Y-114766847D01*
X151858294Y-114736557D01*
X151839819Y-114701993D01*
X151828445Y-114664499D01*
X151824000Y-114619362D01*
X151824000Y-113980638D01*
X151828445Y-113935501D01*
X151839819Y-113898007D01*
X151858294Y-113863443D01*
X151883153Y-113833153D01*
X151913443Y-113808294D01*
X151948007Y-113789819D01*
X151985501Y-113778445D01*
X152030638Y-113774000D01*
X152769362Y-113774000D01*
X152814499Y-113778445D01*
X152814499Y-113778445D01*
G37*
G36*
X157739499Y-113778445D02*
X157776993Y-113789819D01*
X157811557Y-113808294D01*
X157841847Y-113833153D01*
X157866706Y-113863443D01*
X157885181Y-113898007D01*
X157896555Y-113935501D01*
X157901000Y-113980638D01*
X157901000Y-114619362D01*
X157896555Y-114664499D01*
X157885181Y-114701993D01*
X157866706Y-114736557D01*
X157841847Y-114766847D01*
X157811557Y-114791706D01*
X157776993Y-114810181D01*
X157739499Y-114821555D01*
X157694362Y-114826000D01*
X156955638Y-114826000D01*
X156910501Y-114821555D01*
X156873007Y-114810181D01*
X156838443Y-114791706D01*
X156808153Y-114766847D01*
X156783294Y-114736557D01*
X156764819Y-114701993D01*
X156753445Y-114664499D01*
X156749000Y-114619362D01*
X156749000Y-113980638D01*
X156753445Y-113935501D01*
X156764819Y-113898007D01*
X156783294Y-113863443D01*
X156808153Y-113833153D01*
X156838443Y-113808294D01*
X156873007Y-113789819D01*
X156910501Y-113778445D01*
X156955638Y-113774000D01*
X157694362Y-113774000D01*
X157739499Y-113778445D01*
X157739499Y-113778445D01*
G37*
G36*
X155989499Y-113778445D02*
X156026993Y-113789819D01*
X156061557Y-113808294D01*
X156091847Y-113833153D01*
X156116706Y-113863443D01*
X156135181Y-113898007D01*
X156146555Y-113935501D01*
X156151000Y-113980638D01*
X156151000Y-114619362D01*
X156146555Y-114664499D01*
X156135181Y-114701993D01*
X156116706Y-114736557D01*
X156091847Y-114766847D01*
X156061557Y-114791706D01*
X156026993Y-114810181D01*
X155989499Y-114821555D01*
X155944362Y-114826000D01*
X155205638Y-114826000D01*
X155160501Y-114821555D01*
X155123007Y-114810181D01*
X155088443Y-114791706D01*
X155058153Y-114766847D01*
X155033294Y-114736557D01*
X155014819Y-114701993D01*
X155003445Y-114664499D01*
X154999000Y-114619362D01*
X154999000Y-113980638D01*
X155003445Y-113935501D01*
X155014819Y-113898007D01*
X155033294Y-113863443D01*
X155058153Y-113833153D01*
X155088443Y-113808294D01*
X155123007Y-113789819D01*
X155160501Y-113778445D01*
X155205638Y-113774000D01*
X155944362Y-113774000D01*
X155989499Y-113778445D01*
X155989499Y-113778445D01*
G37*
G36*
X157739499Y-109968445D02*
X157776993Y-109979819D01*
X157811557Y-109998294D01*
X157841847Y-110023153D01*
X157866706Y-110053443D01*
X157885181Y-110088007D01*
X157896555Y-110125501D01*
X157901000Y-110170638D01*
X157901000Y-110809362D01*
X157896555Y-110854499D01*
X157885181Y-110891993D01*
X157866706Y-110926557D01*
X157841847Y-110956847D01*
X157811557Y-110981706D01*
X157776993Y-111000181D01*
X157739499Y-111011555D01*
X157694362Y-111016000D01*
X156955638Y-111016000D01*
X156910501Y-111011555D01*
X156873007Y-111000181D01*
X156838443Y-110981706D01*
X156808153Y-110956847D01*
X156783294Y-110926557D01*
X156764819Y-110891993D01*
X156753445Y-110854499D01*
X156749000Y-110809362D01*
X156749000Y-110170638D01*
X156753445Y-110125501D01*
X156764819Y-110088007D01*
X156783294Y-110053443D01*
X156808153Y-110023153D01*
X156838443Y-109998294D01*
X156873007Y-109979819D01*
X156910501Y-109968445D01*
X156955638Y-109964000D01*
X157694362Y-109964000D01*
X157739499Y-109968445D01*
X157739499Y-109968445D01*
G37*
G36*
X155989499Y-109968445D02*
X156026993Y-109979819D01*
X156061557Y-109998294D01*
X156091847Y-110023153D01*
X156116706Y-110053443D01*
X156135181Y-110088007D01*
X156146555Y-110125501D01*
X156151000Y-110170638D01*
X156151000Y-110809362D01*
X156146555Y-110854499D01*
X156135181Y-110891993D01*
X156116706Y-110926557D01*
X156091847Y-110956847D01*
X156061557Y-110981706D01*
X156026993Y-111000181D01*
X155989499Y-111011555D01*
X155944362Y-111016000D01*
X155205638Y-111016000D01*
X155160501Y-111011555D01*
X155123007Y-111000181D01*
X155088443Y-110981706D01*
X155058153Y-110956847D01*
X155033294Y-110926557D01*
X155014819Y-110891993D01*
X155003445Y-110854499D01*
X154999000Y-110809362D01*
X154999000Y-110170638D01*
X155003445Y-110125501D01*
X155014819Y-110088007D01*
X155033294Y-110053443D01*
X155058153Y-110023153D01*
X155088443Y-109998294D01*
X155123007Y-109979819D01*
X155160501Y-109968445D01*
X155205638Y-109964000D01*
X155944362Y-109964000D01*
X155989499Y-109968445D01*
X155989499Y-109968445D01*
G37*
G36*
X151064499Y-109968445D02*
X151101993Y-109979819D01*
X151136557Y-109998294D01*
X151166847Y-110023153D01*
X151191706Y-110053443D01*
X151210181Y-110088007D01*
X151221555Y-110125501D01*
X151226000Y-110170638D01*
X151226000Y-110809362D01*
X151221555Y-110854499D01*
X151210181Y-110891993D01*
X151191706Y-110926557D01*
X151166847Y-110956847D01*
X151136557Y-110981706D01*
X151101993Y-111000181D01*
X151064499Y-111011555D01*
X151019362Y-111016000D01*
X150280638Y-111016000D01*
X150235501Y-111011555D01*
X150198007Y-111000181D01*
X150163443Y-110981706D01*
X150133153Y-110956847D01*
X150108294Y-110926557D01*
X150089819Y-110891993D01*
X150078445Y-110854499D01*
X150074000Y-110809362D01*
X150074000Y-110170638D01*
X150078445Y-110125501D01*
X150089819Y-110088007D01*
X150108294Y-110053443D01*
X150133153Y-110023153D01*
X150163443Y-109998294D01*
X150198007Y-109979819D01*
X150235501Y-109968445D01*
X150280638Y-109964000D01*
X151019362Y-109964000D01*
X151064499Y-109968445D01*
X151064499Y-109968445D01*
G37*
G36*
X152814499Y-109968445D02*
X152851993Y-109979819D01*
X152886557Y-109998294D01*
X152916847Y-110023153D01*
X152941706Y-110053443D01*
X152960181Y-110088007D01*
X152971555Y-110125501D01*
X152976000Y-110170638D01*
X152976000Y-110809362D01*
X152971555Y-110854499D01*
X152960181Y-110891993D01*
X152941706Y-110926557D01*
X152916847Y-110956847D01*
X152886557Y-110981706D01*
X152851993Y-111000181D01*
X152814499Y-111011555D01*
X152769362Y-111016000D01*
X152030638Y-111016000D01*
X151985501Y-111011555D01*
X151948007Y-111000181D01*
X151913443Y-110981706D01*
X151883153Y-110956847D01*
X151858294Y-110926557D01*
X151839819Y-110891993D01*
X151828445Y-110854499D01*
X151824000Y-110809362D01*
X151824000Y-110170638D01*
X151828445Y-110125501D01*
X151839819Y-110088007D01*
X151858294Y-110053443D01*
X151883153Y-110023153D01*
X151913443Y-109998294D01*
X151948007Y-109979819D01*
X151985501Y-109968445D01*
X152030638Y-109964000D01*
X152769362Y-109964000D01*
X152814499Y-109968445D01*
X152814499Y-109968445D01*
G37*
G36*
X78242037Y-106242250D02*
X78242039Y-106242251D01*
X78242040Y-106242251D01*
X78565251Y-106376129D01*
X78665116Y-106442857D01*
X78856137Y-106570493D01*
X79103507Y-106817863D01*
X79103509Y-106817866D01*
X79297871Y-107108749D01*
X79418705Y-107400470D01*
X79431750Y-107431963D01*
X79443891Y-107493000D01*
X79500000Y-107775079D01*
X79500000Y-108124921D01*
X79431749Y-108468040D01*
X79297871Y-108791251D01*
X79297870Y-108791252D01*
X79103507Y-109082137D01*
X78856137Y-109329507D01*
X78856134Y-109329509D01*
X78565251Y-109523871D01*
X78242040Y-109657749D01*
X78242039Y-109657749D01*
X78242037Y-109657750D01*
X77898922Y-109726000D01*
X77549078Y-109726000D01*
X77205963Y-109657750D01*
X77205961Y-109657749D01*
X77205960Y-109657749D01*
X76882749Y-109523871D01*
X76591866Y-109329509D01*
X76591863Y-109329507D01*
X76344493Y-109082137D01*
X76150130Y-108791252D01*
X76150129Y-108791251D01*
X76016251Y-108468040D01*
X75948000Y-108124921D01*
X75948000Y-107775079D01*
X76004109Y-107493000D01*
X76016250Y-107431963D01*
X76029295Y-107400470D01*
X76150129Y-107108749D01*
X76344491Y-106817866D01*
X76344493Y-106817863D01*
X76591863Y-106570493D01*
X76782884Y-106442857D01*
X76882749Y-106376129D01*
X77205960Y-106242251D01*
X77205961Y-106242251D01*
X77205963Y-106242250D01*
X77549078Y-106174000D01*
X77898922Y-106174000D01*
X78242037Y-106242250D01*
X78242037Y-106242250D01*
G37*
G36*
X86597142Y-105898242D02*
X86745102Y-105959530D01*
X86780667Y-105983294D01*
X86878257Y-106048501D01*
X86991499Y-106161743D01*
X87015941Y-106198323D01*
X87080470Y-106294898D01*
X87141758Y-106442858D01*
X87173000Y-106599925D01*
X87173000Y-106760075D01*
X87141758Y-106917142D01*
X87080470Y-107065102D01*
X87064425Y-107089115D01*
X87009240Y-107171706D01*
X86991498Y-107198258D01*
X86878258Y-107311498D01*
X86745102Y-107400470D01*
X86597142Y-107461758D01*
X86440075Y-107493000D01*
X86279925Y-107493000D01*
X86122858Y-107461758D01*
X85974898Y-107400470D01*
X85841742Y-107311498D01*
X85728502Y-107198258D01*
X85710761Y-107171706D01*
X85655575Y-107089115D01*
X85639530Y-107065102D01*
X85578242Y-106917142D01*
X85547000Y-106760075D01*
X85547000Y-106599925D01*
X85578242Y-106442858D01*
X85639530Y-106294898D01*
X85704059Y-106198323D01*
X85728501Y-106161743D01*
X85841743Y-106048501D01*
X85939333Y-105983294D01*
X85974898Y-105959530D01*
X86122858Y-105898242D01*
X86279925Y-105867000D01*
X86440075Y-105867000D01*
X86597142Y-105898242D01*
X86597142Y-105898242D01*
G37*
G36*
X157739499Y-106158445D02*
X157776993Y-106169819D01*
X157811557Y-106188294D01*
X157841847Y-106213153D01*
X157866706Y-106243443D01*
X157885181Y-106278007D01*
X157896555Y-106315501D01*
X157901000Y-106360638D01*
X157901000Y-106999362D01*
X157896555Y-107044499D01*
X157885181Y-107081993D01*
X157866706Y-107116557D01*
X157841847Y-107146847D01*
X157811557Y-107171706D01*
X157776993Y-107190181D01*
X157739499Y-107201555D01*
X157694362Y-107206000D01*
X156955638Y-107206000D01*
X156910501Y-107201555D01*
X156873007Y-107190181D01*
X156838443Y-107171706D01*
X156808153Y-107146847D01*
X156783294Y-107116557D01*
X156764819Y-107081993D01*
X156753445Y-107044499D01*
X156749000Y-106999362D01*
X156749000Y-106360638D01*
X156753445Y-106315501D01*
X156764819Y-106278007D01*
X156783294Y-106243443D01*
X156808153Y-106213153D01*
X156838443Y-106188294D01*
X156873007Y-106169819D01*
X156910501Y-106158445D01*
X156955638Y-106154000D01*
X157694362Y-106154000D01*
X157739499Y-106158445D01*
X157739499Y-106158445D01*
G37*
G36*
X155989499Y-106158445D02*
X156026993Y-106169819D01*
X156061557Y-106188294D01*
X156091847Y-106213153D01*
X156116706Y-106243443D01*
X156135181Y-106278007D01*
X156146555Y-106315501D01*
X156151000Y-106360638D01*
X156151000Y-106999362D01*
X156146555Y-107044499D01*
X156135181Y-107081993D01*
X156116706Y-107116557D01*
X156091847Y-107146847D01*
X156061557Y-107171706D01*
X156026993Y-107190181D01*
X155989499Y-107201555D01*
X155944362Y-107206000D01*
X155205638Y-107206000D01*
X155160501Y-107201555D01*
X155123007Y-107190181D01*
X155088443Y-107171706D01*
X155058153Y-107146847D01*
X155033294Y-107116557D01*
X155014819Y-107081993D01*
X155003445Y-107044499D01*
X154999000Y-106999362D01*
X154999000Y-106360638D01*
X155003445Y-106315501D01*
X155014819Y-106278007D01*
X155033294Y-106243443D01*
X155058153Y-106213153D01*
X155088443Y-106188294D01*
X155123007Y-106169819D01*
X155160501Y-106158445D01*
X155205638Y-106154000D01*
X155944362Y-106154000D01*
X155989499Y-106158445D01*
X155989499Y-106158445D01*
G37*
G36*
X152659499Y-106158445D02*
X152696993Y-106169819D01*
X152731557Y-106188294D01*
X152761847Y-106213153D01*
X152786706Y-106243443D01*
X152805181Y-106278007D01*
X152816555Y-106315501D01*
X152821000Y-106360638D01*
X152821000Y-106999362D01*
X152816555Y-107044499D01*
X152805181Y-107081993D01*
X152786706Y-107116557D01*
X152761847Y-107146847D01*
X152731557Y-107171706D01*
X152696993Y-107190181D01*
X152659499Y-107201555D01*
X152614362Y-107206000D01*
X151875638Y-107206000D01*
X151830501Y-107201555D01*
X151793007Y-107190181D01*
X151758443Y-107171706D01*
X151728153Y-107146847D01*
X151703294Y-107116557D01*
X151684819Y-107081993D01*
X151673445Y-107044499D01*
X151669000Y-106999362D01*
X151669000Y-106360638D01*
X151673445Y-106315501D01*
X151684819Y-106278007D01*
X151703294Y-106243443D01*
X151728153Y-106213153D01*
X151758443Y-106188294D01*
X151793007Y-106169819D01*
X151830501Y-106158445D01*
X151875638Y-106154000D01*
X152614362Y-106154000D01*
X152659499Y-106158445D01*
X152659499Y-106158445D01*
G37*
G36*
X150909499Y-106158445D02*
X150946993Y-106169819D01*
X150981557Y-106188294D01*
X151011847Y-106213153D01*
X151036706Y-106243443D01*
X151055181Y-106278007D01*
X151066555Y-106315501D01*
X151071000Y-106360638D01*
X151071000Y-106999362D01*
X151066555Y-107044499D01*
X151055181Y-107081993D01*
X151036706Y-107116557D01*
X151011847Y-107146847D01*
X150981557Y-107171706D01*
X150946993Y-107190181D01*
X150909499Y-107201555D01*
X150864362Y-107206000D01*
X150125638Y-107206000D01*
X150080501Y-107201555D01*
X150043007Y-107190181D01*
X150008443Y-107171706D01*
X149978153Y-107146847D01*
X149953294Y-107116557D01*
X149934819Y-107081993D01*
X149923445Y-107044499D01*
X149919000Y-106999362D01*
X149919000Y-106360638D01*
X149923445Y-106315501D01*
X149934819Y-106278007D01*
X149953294Y-106243443D01*
X149978153Y-106213153D01*
X150008443Y-106188294D01*
X150043007Y-106169819D01*
X150080501Y-106158445D01*
X150125638Y-106154000D01*
X150864362Y-106154000D01*
X150909499Y-106158445D01*
X150909499Y-106158445D01*
G37*
G36*
X89899499Y-105953445D02*
X89936993Y-105964819D01*
X89971557Y-105983294D01*
X90001847Y-106008153D01*
X90026706Y-106038443D01*
X90045181Y-106073007D01*
X90056555Y-106110501D01*
X90061000Y-106155638D01*
X90061000Y-106894362D01*
X90056555Y-106939499D01*
X90045181Y-106976993D01*
X90026706Y-107011557D01*
X90001847Y-107041847D01*
X89971557Y-107066706D01*
X89936993Y-107085181D01*
X89899499Y-107096555D01*
X89854362Y-107101000D01*
X89215638Y-107101000D01*
X89170501Y-107096555D01*
X89133007Y-107085181D01*
X89098443Y-107066706D01*
X89068153Y-107041847D01*
X89043294Y-107011557D01*
X89024819Y-106976993D01*
X89013445Y-106939499D01*
X89009000Y-106894362D01*
X89009000Y-106155638D01*
X89013445Y-106110501D01*
X89024819Y-106073007D01*
X89043294Y-106038443D01*
X89068153Y-106008153D01*
X89098443Y-105983294D01*
X89133007Y-105964819D01*
X89170501Y-105953445D01*
X89215638Y-105949000D01*
X89854362Y-105949000D01*
X89899499Y-105953445D01*
X89899499Y-105953445D01*
G37*
G36*
X118044499Y-105523445D02*
X118081993Y-105534819D01*
X118116557Y-105553294D01*
X118146847Y-105578153D01*
X118171706Y-105608443D01*
X118190181Y-105643007D01*
X118201555Y-105680501D01*
X118206000Y-105725638D01*
X118206000Y-106364362D01*
X118201555Y-106409499D01*
X118190181Y-106446993D01*
X118171706Y-106481557D01*
X118146847Y-106511847D01*
X118116557Y-106536706D01*
X118081993Y-106555181D01*
X118044499Y-106566555D01*
X117999362Y-106571000D01*
X117260638Y-106571000D01*
X117215501Y-106566555D01*
X117178007Y-106555181D01*
X117143443Y-106536706D01*
X117113153Y-106511847D01*
X117088294Y-106481557D01*
X117069819Y-106446993D01*
X117058445Y-106409499D01*
X117054000Y-106364362D01*
X117054000Y-105725638D01*
X117058445Y-105680501D01*
X117069819Y-105643007D01*
X117088294Y-105608443D01*
X117113153Y-105578153D01*
X117143443Y-105553294D01*
X117178007Y-105534819D01*
X117215501Y-105523445D01*
X117260638Y-105519000D01*
X117999362Y-105519000D01*
X118044499Y-105523445D01*
X118044499Y-105523445D01*
G37*
G36*
X105979499Y-105523445D02*
X106016993Y-105534819D01*
X106051557Y-105553294D01*
X106081847Y-105578153D01*
X106106706Y-105608443D01*
X106125181Y-105643007D01*
X106136555Y-105680501D01*
X106141000Y-105725638D01*
X106141000Y-106364362D01*
X106136555Y-106409499D01*
X106125181Y-106446993D01*
X106106706Y-106481557D01*
X106081847Y-106511847D01*
X106051557Y-106536706D01*
X106016993Y-106555181D01*
X105979499Y-106566555D01*
X105934362Y-106571000D01*
X105195638Y-106571000D01*
X105150501Y-106566555D01*
X105113007Y-106555181D01*
X105078443Y-106536706D01*
X105048153Y-106511847D01*
X105023294Y-106481557D01*
X105004819Y-106446993D01*
X104993445Y-106409499D01*
X104989000Y-106364362D01*
X104989000Y-105725638D01*
X104993445Y-105680501D01*
X105004819Y-105643007D01*
X105023294Y-105608443D01*
X105048153Y-105578153D01*
X105078443Y-105553294D01*
X105113007Y-105534819D01*
X105150501Y-105523445D01*
X105195638Y-105519000D01*
X105934362Y-105519000D01*
X105979499Y-105523445D01*
X105979499Y-105523445D01*
G37*
G36*
X107729499Y-105523445D02*
X107766993Y-105534819D01*
X107801557Y-105553294D01*
X107831847Y-105578153D01*
X107856706Y-105608443D01*
X107875181Y-105643007D01*
X107886555Y-105680501D01*
X107891000Y-105725638D01*
X107891000Y-106364362D01*
X107886555Y-106409499D01*
X107875181Y-106446993D01*
X107856706Y-106481557D01*
X107831847Y-106511847D01*
X107801557Y-106536706D01*
X107766993Y-106555181D01*
X107729499Y-106566555D01*
X107684362Y-106571000D01*
X106945638Y-106571000D01*
X106900501Y-106566555D01*
X106863007Y-106555181D01*
X106828443Y-106536706D01*
X106798153Y-106511847D01*
X106773294Y-106481557D01*
X106754819Y-106446993D01*
X106743445Y-106409499D01*
X106739000Y-106364362D01*
X106739000Y-105725638D01*
X106743445Y-105680501D01*
X106754819Y-105643007D01*
X106773294Y-105608443D01*
X106798153Y-105578153D01*
X106828443Y-105553294D01*
X106863007Y-105534819D01*
X106900501Y-105523445D01*
X106945638Y-105519000D01*
X107684362Y-105519000D01*
X107729499Y-105523445D01*
X107729499Y-105523445D01*
G37*
G36*
X114559499Y-105523445D02*
X114596993Y-105534819D01*
X114631557Y-105553294D01*
X114661847Y-105578153D01*
X114686706Y-105608443D01*
X114705181Y-105643007D01*
X114716555Y-105680501D01*
X114721000Y-105725638D01*
X114721000Y-106364362D01*
X114716555Y-106409499D01*
X114705181Y-106446993D01*
X114686706Y-106481557D01*
X114661847Y-106511847D01*
X114631557Y-106536706D01*
X114596993Y-106555181D01*
X114559499Y-106566555D01*
X114514362Y-106571000D01*
X113775638Y-106571000D01*
X113730501Y-106566555D01*
X113693007Y-106555181D01*
X113658443Y-106536706D01*
X113628153Y-106511847D01*
X113603294Y-106481557D01*
X113584819Y-106446993D01*
X113573445Y-106409499D01*
X113569000Y-106364362D01*
X113569000Y-105725638D01*
X113573445Y-105680501D01*
X113584819Y-105643007D01*
X113603294Y-105608443D01*
X113628153Y-105578153D01*
X113658443Y-105553294D01*
X113693007Y-105534819D01*
X113730501Y-105523445D01*
X113775638Y-105519000D01*
X114514362Y-105519000D01*
X114559499Y-105523445D01*
X114559499Y-105523445D01*
G37*
G36*
X119794499Y-105523445D02*
X119831993Y-105534819D01*
X119866557Y-105553294D01*
X119896847Y-105578153D01*
X119921706Y-105608443D01*
X119940181Y-105643007D01*
X119951555Y-105680501D01*
X119956000Y-105725638D01*
X119956000Y-106364362D01*
X119951555Y-106409499D01*
X119940181Y-106446993D01*
X119921706Y-106481557D01*
X119896847Y-106511847D01*
X119866557Y-106536706D01*
X119831993Y-106555181D01*
X119794499Y-106566555D01*
X119749362Y-106571000D01*
X119010638Y-106571000D01*
X118965501Y-106566555D01*
X118928007Y-106555181D01*
X118893443Y-106536706D01*
X118863153Y-106511847D01*
X118838294Y-106481557D01*
X118819819Y-106446993D01*
X118808445Y-106409499D01*
X118804000Y-106364362D01*
X118804000Y-105725638D01*
X118808445Y-105680501D01*
X118819819Y-105643007D01*
X118838294Y-105608443D01*
X118863153Y-105578153D01*
X118893443Y-105553294D01*
X118928007Y-105534819D01*
X118965501Y-105523445D01*
X119010638Y-105519000D01*
X119749362Y-105519000D01*
X119794499Y-105523445D01*
X119794499Y-105523445D01*
G37*
G36*
X112809499Y-105523445D02*
X112846993Y-105534819D01*
X112881557Y-105553294D01*
X112911847Y-105578153D01*
X112936706Y-105608443D01*
X112955181Y-105643007D01*
X112966555Y-105680501D01*
X112971000Y-105725638D01*
X112971000Y-106364362D01*
X112966555Y-106409499D01*
X112955181Y-106446993D01*
X112936706Y-106481557D01*
X112911847Y-106511847D01*
X112881557Y-106536706D01*
X112846993Y-106555181D01*
X112809499Y-106566555D01*
X112764362Y-106571000D01*
X112025638Y-106571000D01*
X111980501Y-106566555D01*
X111943007Y-106555181D01*
X111908443Y-106536706D01*
X111878153Y-106511847D01*
X111853294Y-106481557D01*
X111834819Y-106446993D01*
X111823445Y-106409499D01*
X111819000Y-106364362D01*
X111819000Y-105725638D01*
X111823445Y-105680501D01*
X111834819Y-105643007D01*
X111853294Y-105608443D01*
X111878153Y-105578153D01*
X111908443Y-105553294D01*
X111943007Y-105534819D01*
X111980501Y-105523445D01*
X112025638Y-105519000D01*
X112764362Y-105519000D01*
X112809499Y-105523445D01*
X112809499Y-105523445D01*
G37*
G36*
X89899499Y-104203445D02*
X89936993Y-104214819D01*
X89971557Y-104233294D01*
X90001847Y-104258153D01*
X90026706Y-104288443D01*
X90045181Y-104323007D01*
X90056555Y-104360501D01*
X90061000Y-104405638D01*
X90061000Y-105144362D01*
X90056555Y-105189499D01*
X90045181Y-105226993D01*
X90026706Y-105261557D01*
X90001847Y-105291847D01*
X89971557Y-105316706D01*
X89936993Y-105335181D01*
X89899499Y-105346555D01*
X89854362Y-105351000D01*
X89215638Y-105351000D01*
X89170501Y-105346555D01*
X89133007Y-105335181D01*
X89098443Y-105316706D01*
X89068153Y-105291847D01*
X89043294Y-105261557D01*
X89024819Y-105226993D01*
X89013445Y-105189499D01*
X89009000Y-105144362D01*
X89009000Y-104405638D01*
X89013445Y-104360501D01*
X89024819Y-104323007D01*
X89043294Y-104288443D01*
X89068153Y-104258153D01*
X89098443Y-104233294D01*
X89133007Y-104214819D01*
X89170501Y-104203445D01*
X89215638Y-104199000D01*
X89854362Y-104199000D01*
X89899499Y-104203445D01*
X89899499Y-104203445D01*
G37*
G36*
X86597142Y-103358242D02*
X86677565Y-103391555D01*
X86726214Y-103411706D01*
X86745102Y-103419530D01*
X86784717Y-103446000D01*
X86878257Y-103508501D01*
X86991499Y-103621743D01*
X87011554Y-103651758D01*
X87080470Y-103754898D01*
X87141758Y-103902858D01*
X87173000Y-104059925D01*
X87173000Y-104220075D01*
X87141758Y-104377142D01*
X87080470Y-104525102D01*
X86991498Y-104658258D01*
X86878258Y-104771498D01*
X86745102Y-104860470D01*
X86597142Y-104921758D01*
X86440075Y-104953000D01*
X86279925Y-104953000D01*
X86122858Y-104921758D01*
X85974898Y-104860470D01*
X85841742Y-104771498D01*
X85728502Y-104658258D01*
X85639530Y-104525102D01*
X85578242Y-104377142D01*
X85547000Y-104220075D01*
X85547000Y-104059925D01*
X85578242Y-103902858D01*
X85639530Y-103754898D01*
X85708446Y-103651758D01*
X85728501Y-103621743D01*
X85841743Y-103508501D01*
X85935283Y-103446000D01*
X85974898Y-103419530D01*
X85993787Y-103411706D01*
X86042435Y-103391555D01*
X86122858Y-103358242D01*
X86279925Y-103327000D01*
X86440075Y-103327000D01*
X86597142Y-103358242D01*
X86597142Y-103358242D01*
G37*
G36*
X112632142Y-102088242D02*
X112780102Y-102149530D01*
X112847130Y-102194317D01*
X112913257Y-102238501D01*
X113026499Y-102351743D01*
X113046554Y-102381758D01*
X113115470Y-102484898D01*
X113176758Y-102632858D01*
X113208000Y-102789925D01*
X113208000Y-102950075D01*
X113176758Y-103107142D01*
X113115470Y-103255102D01*
X113081089Y-103306557D01*
X113026499Y-103388257D01*
X112913257Y-103501499D01*
X112902776Y-103508502D01*
X112780102Y-103590470D01*
X112632142Y-103651758D01*
X112475075Y-103683000D01*
X112314925Y-103683000D01*
X112157858Y-103651758D01*
X112009898Y-103590470D01*
X111887224Y-103508502D01*
X111876743Y-103501499D01*
X111763501Y-103388257D01*
X111708911Y-103306557D01*
X111674530Y-103255102D01*
X111613242Y-103107142D01*
X111582000Y-102950075D01*
X111582000Y-102789925D01*
X111613242Y-102632858D01*
X111674530Y-102484898D01*
X111743446Y-102381758D01*
X111763501Y-102351743D01*
X111876743Y-102238501D01*
X111942870Y-102194317D01*
X112009898Y-102149530D01*
X112157858Y-102088242D01*
X112314925Y-102057000D01*
X112475075Y-102057000D01*
X112632142Y-102088242D01*
X112632142Y-102088242D01*
G37*
G36*
X107552142Y-102088242D02*
X107700102Y-102149530D01*
X107767130Y-102194317D01*
X107833257Y-102238501D01*
X107946499Y-102351743D01*
X107966554Y-102381758D01*
X108035470Y-102484898D01*
X108096758Y-102632858D01*
X108128000Y-102789925D01*
X108128000Y-102950075D01*
X108096758Y-103107142D01*
X108035470Y-103255102D01*
X108001089Y-103306557D01*
X107946499Y-103388257D01*
X107833257Y-103501499D01*
X107822776Y-103508502D01*
X107700102Y-103590470D01*
X107552142Y-103651758D01*
X107395075Y-103683000D01*
X107234925Y-103683000D01*
X107077858Y-103651758D01*
X106929898Y-103590470D01*
X106807224Y-103508502D01*
X106796743Y-103501499D01*
X106683501Y-103388257D01*
X106628911Y-103306557D01*
X106594530Y-103255102D01*
X106533242Y-103107142D01*
X106502000Y-102950075D01*
X106502000Y-102789925D01*
X106533242Y-102632858D01*
X106594530Y-102484898D01*
X106663446Y-102381758D01*
X106683501Y-102351743D01*
X106796743Y-102238501D01*
X106862870Y-102194317D01*
X106929898Y-102149530D01*
X107077858Y-102088242D01*
X107234925Y-102057000D01*
X107395075Y-102057000D01*
X107552142Y-102088242D01*
X107552142Y-102088242D01*
G37*
G36*
X110092142Y-102088242D02*
X110240102Y-102149530D01*
X110307130Y-102194317D01*
X110373257Y-102238501D01*
X110486499Y-102351743D01*
X110506554Y-102381758D01*
X110575470Y-102484898D01*
X110636758Y-102632858D01*
X110668000Y-102789925D01*
X110668000Y-102950075D01*
X110636758Y-103107142D01*
X110575470Y-103255102D01*
X110541089Y-103306557D01*
X110486499Y-103388257D01*
X110373257Y-103501499D01*
X110362776Y-103508502D01*
X110240102Y-103590470D01*
X110092142Y-103651758D01*
X109935075Y-103683000D01*
X109774925Y-103683000D01*
X109617858Y-103651758D01*
X109469898Y-103590470D01*
X109347224Y-103508502D01*
X109336743Y-103501499D01*
X109223501Y-103388257D01*
X109168911Y-103306557D01*
X109134530Y-103255102D01*
X109073242Y-103107142D01*
X109042000Y-102950075D01*
X109042000Y-102789925D01*
X109073242Y-102632858D01*
X109134530Y-102484898D01*
X109203446Y-102381758D01*
X109223501Y-102351743D01*
X109336743Y-102238501D01*
X109402870Y-102194317D01*
X109469898Y-102149530D01*
X109617858Y-102088242D01*
X109774925Y-102057000D01*
X109935075Y-102057000D01*
X110092142Y-102088242D01*
X110092142Y-102088242D01*
G37*
G36*
X89899499Y-102298445D02*
X89936993Y-102309819D01*
X89971557Y-102328294D01*
X90001847Y-102353153D01*
X90026706Y-102383443D01*
X90045181Y-102418007D01*
X90056555Y-102455501D01*
X90061000Y-102500638D01*
X90061000Y-103239362D01*
X90056555Y-103284499D01*
X90045181Y-103321993D01*
X90026706Y-103356557D01*
X90001847Y-103386847D01*
X89971557Y-103411706D01*
X89936993Y-103430181D01*
X89899499Y-103441555D01*
X89854362Y-103446000D01*
X89215638Y-103446000D01*
X89170501Y-103441555D01*
X89133007Y-103430181D01*
X89098443Y-103411706D01*
X89068153Y-103386847D01*
X89043294Y-103356557D01*
X89024819Y-103321993D01*
X89013445Y-103284499D01*
X89009000Y-103239362D01*
X89009000Y-102500638D01*
X89013445Y-102455501D01*
X89024819Y-102418007D01*
X89043294Y-102383443D01*
X89068153Y-102353153D01*
X89098443Y-102328294D01*
X89133007Y-102309819D01*
X89170501Y-102298445D01*
X89215638Y-102294000D01*
X89854362Y-102294000D01*
X89899499Y-102298445D01*
X89899499Y-102298445D01*
G37*
G36*
X155989499Y-102348445D02*
X156026993Y-102359819D01*
X156061557Y-102378294D01*
X156091847Y-102403153D01*
X156116706Y-102433443D01*
X156135181Y-102468007D01*
X156146555Y-102505501D01*
X156151000Y-102550638D01*
X156151000Y-103189362D01*
X156146555Y-103234499D01*
X156135181Y-103271993D01*
X156116706Y-103306557D01*
X156091847Y-103336847D01*
X156061557Y-103361706D01*
X156026993Y-103380181D01*
X155989499Y-103391555D01*
X155944362Y-103396000D01*
X155205638Y-103396000D01*
X155160501Y-103391555D01*
X155123007Y-103380181D01*
X155088443Y-103361706D01*
X155058153Y-103336847D01*
X155033294Y-103306557D01*
X155014819Y-103271993D01*
X155003445Y-103234499D01*
X154999000Y-103189362D01*
X154999000Y-102550638D01*
X155003445Y-102505501D01*
X155014819Y-102468007D01*
X155033294Y-102433443D01*
X155058153Y-102403153D01*
X155088443Y-102378294D01*
X155123007Y-102359819D01*
X155160501Y-102348445D01*
X155205638Y-102344000D01*
X155944362Y-102344000D01*
X155989499Y-102348445D01*
X155989499Y-102348445D01*
G37*
G36*
X157739499Y-102348445D02*
X157776993Y-102359819D01*
X157811557Y-102378294D01*
X157841847Y-102403153D01*
X157866706Y-102433443D01*
X157885181Y-102468007D01*
X157896555Y-102505501D01*
X157901000Y-102550638D01*
X157901000Y-103189362D01*
X157896555Y-103234499D01*
X157885181Y-103271993D01*
X157866706Y-103306557D01*
X157841847Y-103336847D01*
X157811557Y-103361706D01*
X157776993Y-103380181D01*
X157739499Y-103391555D01*
X157694362Y-103396000D01*
X156955638Y-103396000D01*
X156910501Y-103391555D01*
X156873007Y-103380181D01*
X156838443Y-103361706D01*
X156808153Y-103336847D01*
X156783294Y-103306557D01*
X156764819Y-103271993D01*
X156753445Y-103234499D01*
X156749000Y-103189362D01*
X156749000Y-102550638D01*
X156753445Y-102505501D01*
X156764819Y-102468007D01*
X156783294Y-102433443D01*
X156808153Y-102403153D01*
X156838443Y-102378294D01*
X156873007Y-102359819D01*
X156910501Y-102348445D01*
X156955638Y-102344000D01*
X157694362Y-102344000D01*
X157739499Y-102348445D01*
X157739499Y-102348445D01*
G37*
G36*
X150909499Y-102348445D02*
X150946993Y-102359819D01*
X150981557Y-102378294D01*
X151011847Y-102403153D01*
X151036706Y-102433443D01*
X151055181Y-102468007D01*
X151066555Y-102505501D01*
X151071000Y-102550638D01*
X151071000Y-103189362D01*
X151066555Y-103234499D01*
X151055181Y-103271993D01*
X151036706Y-103306557D01*
X151011847Y-103336847D01*
X150981557Y-103361706D01*
X150946993Y-103380181D01*
X150909499Y-103391555D01*
X150864362Y-103396000D01*
X150125638Y-103396000D01*
X150080501Y-103391555D01*
X150043007Y-103380181D01*
X150008443Y-103361706D01*
X149978153Y-103336847D01*
X149953294Y-103306557D01*
X149934819Y-103271993D01*
X149923445Y-103234499D01*
X149919000Y-103189362D01*
X149919000Y-102550638D01*
X149923445Y-102505501D01*
X149934819Y-102468007D01*
X149953294Y-102433443D01*
X149978153Y-102403153D01*
X150008443Y-102378294D01*
X150043007Y-102359819D01*
X150080501Y-102348445D01*
X150125638Y-102344000D01*
X150864362Y-102344000D01*
X150909499Y-102348445D01*
X150909499Y-102348445D01*
G37*
G36*
X152659499Y-102348445D02*
X152696993Y-102359819D01*
X152731557Y-102378294D01*
X152761847Y-102403153D01*
X152786706Y-102433443D01*
X152805181Y-102468007D01*
X152816555Y-102505501D01*
X152821000Y-102550638D01*
X152821000Y-103189362D01*
X152816555Y-103234499D01*
X152805181Y-103271993D01*
X152786706Y-103306557D01*
X152761847Y-103336847D01*
X152731557Y-103361706D01*
X152696993Y-103380181D01*
X152659499Y-103391555D01*
X152614362Y-103396000D01*
X151875638Y-103396000D01*
X151830501Y-103391555D01*
X151793007Y-103380181D01*
X151758443Y-103361706D01*
X151728153Y-103336847D01*
X151703294Y-103306557D01*
X151684819Y-103271993D01*
X151673445Y-103234499D01*
X151669000Y-103189362D01*
X151669000Y-102550638D01*
X151673445Y-102505501D01*
X151684819Y-102468007D01*
X151703294Y-102433443D01*
X151728153Y-102403153D01*
X151758443Y-102378294D01*
X151793007Y-102359819D01*
X151830501Y-102348445D01*
X151875638Y-102344000D01*
X152614362Y-102344000D01*
X152659499Y-102348445D01*
X152659499Y-102348445D01*
G37*
G36*
X86597142Y-100818242D02*
X86745102Y-100879530D01*
X86878258Y-100968502D01*
X86991498Y-101081742D01*
X87080470Y-101214898D01*
X87141758Y-101362858D01*
X87173000Y-101519925D01*
X87173000Y-101680075D01*
X87141758Y-101837142D01*
X87094354Y-101951583D01*
X87080471Y-101985100D01*
X86991499Y-102118257D01*
X86878257Y-102231499D01*
X86867776Y-102238502D01*
X86745102Y-102320470D01*
X86745101Y-102320471D01*
X86745100Y-102320471D01*
X86711583Y-102334354D01*
X86597142Y-102381758D01*
X86440075Y-102413000D01*
X86279925Y-102413000D01*
X86122858Y-102381758D01*
X86008417Y-102334354D01*
X85974900Y-102320471D01*
X85974899Y-102320471D01*
X85974898Y-102320470D01*
X85852224Y-102238502D01*
X85841743Y-102231499D01*
X85728501Y-102118257D01*
X85639529Y-101985100D01*
X85625646Y-101951583D01*
X85578242Y-101837142D01*
X85547000Y-101680075D01*
X85547000Y-101519925D01*
X85578242Y-101362858D01*
X85639530Y-101214898D01*
X85728502Y-101081742D01*
X85841742Y-100968502D01*
X85974898Y-100879530D01*
X86122858Y-100818242D01*
X86279925Y-100787000D01*
X86440075Y-100787000D01*
X86597142Y-100818242D01*
X86597142Y-100818242D01*
G37*
G36*
X89899499Y-100548445D02*
X89936993Y-100559819D01*
X89971557Y-100578294D01*
X90001847Y-100603153D01*
X90026706Y-100633443D01*
X90045181Y-100668007D01*
X90056555Y-100705501D01*
X90061000Y-100750638D01*
X90061000Y-101489362D01*
X90056555Y-101534499D01*
X90045181Y-101571993D01*
X90026706Y-101606557D01*
X90001847Y-101636847D01*
X89971557Y-101661706D01*
X89936993Y-101680181D01*
X89899499Y-101691555D01*
X89854362Y-101696000D01*
X89215638Y-101696000D01*
X89170501Y-101691555D01*
X89133007Y-101680181D01*
X89098443Y-101661706D01*
X89068153Y-101636847D01*
X89043294Y-101606557D01*
X89024819Y-101571993D01*
X89013445Y-101534499D01*
X89009000Y-101489362D01*
X89009000Y-100750638D01*
X89013445Y-100705501D01*
X89024819Y-100668007D01*
X89043294Y-100633443D01*
X89068153Y-100603153D01*
X89098443Y-100578294D01*
X89133007Y-100559819D01*
X89170501Y-100548445D01*
X89215638Y-100544000D01*
X89854362Y-100544000D01*
X89899499Y-100548445D01*
X89899499Y-100548445D01*
G37*
G36*
X86597142Y-98278242D02*
X86745102Y-98339530D01*
X86812130Y-98384317D01*
X86878257Y-98428501D01*
X86991499Y-98541743D01*
X87015941Y-98578323D01*
X87080470Y-98674898D01*
X87141758Y-98822858D01*
X87173000Y-98979925D01*
X87173000Y-99140075D01*
X87141758Y-99297142D01*
X87109794Y-99374309D01*
X87080471Y-99445100D01*
X87009240Y-99551706D01*
X86991498Y-99578258D01*
X86878258Y-99691498D01*
X86745102Y-99780470D01*
X86597142Y-99841758D01*
X86440075Y-99873000D01*
X86279925Y-99873000D01*
X86122858Y-99841758D01*
X85974898Y-99780470D01*
X85841742Y-99691498D01*
X85728502Y-99578258D01*
X85710761Y-99551706D01*
X85639529Y-99445100D01*
X85610206Y-99374309D01*
X85578242Y-99297142D01*
X85547000Y-99140075D01*
X85547000Y-98979925D01*
X85578242Y-98822858D01*
X85639530Y-98674898D01*
X85704059Y-98578323D01*
X85728501Y-98541743D01*
X85841743Y-98428501D01*
X85907870Y-98384317D01*
X85974898Y-98339530D01*
X86122858Y-98278242D01*
X86279925Y-98247000D01*
X86440075Y-98247000D01*
X86597142Y-98278242D01*
X86597142Y-98278242D01*
G37*
G36*
X155989499Y-98538445D02*
X156026993Y-98549819D01*
X156061557Y-98568294D01*
X156091847Y-98593153D01*
X156116706Y-98623443D01*
X156135181Y-98658007D01*
X156146555Y-98695501D01*
X156151000Y-98740638D01*
X156151000Y-99379362D01*
X156146555Y-99424499D01*
X156135181Y-99461993D01*
X156116706Y-99496557D01*
X156091847Y-99526847D01*
X156061557Y-99551706D01*
X156026993Y-99570181D01*
X155989499Y-99581555D01*
X155944362Y-99586000D01*
X155205638Y-99586000D01*
X155160501Y-99581555D01*
X155123007Y-99570181D01*
X155088443Y-99551706D01*
X155058153Y-99526847D01*
X155033294Y-99496557D01*
X155014819Y-99461993D01*
X155003445Y-99424499D01*
X154999000Y-99379362D01*
X154999000Y-98740638D01*
X155003445Y-98695501D01*
X155014819Y-98658007D01*
X155033294Y-98623443D01*
X155058153Y-98593153D01*
X155088443Y-98568294D01*
X155123007Y-98549819D01*
X155160501Y-98538445D01*
X155205638Y-98534000D01*
X155944362Y-98534000D01*
X155989499Y-98538445D01*
X155989499Y-98538445D01*
G37*
G36*
X157739499Y-98538445D02*
X157776993Y-98549819D01*
X157811557Y-98568294D01*
X157841847Y-98593153D01*
X157866706Y-98623443D01*
X157885181Y-98658007D01*
X157896555Y-98695501D01*
X157901000Y-98740638D01*
X157901000Y-99379362D01*
X157896555Y-99424499D01*
X157885181Y-99461993D01*
X157866706Y-99496557D01*
X157841847Y-99526847D01*
X157811557Y-99551706D01*
X157776993Y-99570181D01*
X157739499Y-99581555D01*
X157694362Y-99586000D01*
X156955638Y-99586000D01*
X156910501Y-99581555D01*
X156873007Y-99570181D01*
X156838443Y-99551706D01*
X156808153Y-99526847D01*
X156783294Y-99496557D01*
X156764819Y-99461993D01*
X156753445Y-99424499D01*
X156749000Y-99379362D01*
X156749000Y-98740638D01*
X156753445Y-98695501D01*
X156764819Y-98658007D01*
X156783294Y-98623443D01*
X156808153Y-98593153D01*
X156838443Y-98568294D01*
X156873007Y-98549819D01*
X156910501Y-98538445D01*
X156955638Y-98534000D01*
X157694362Y-98534000D01*
X157739499Y-98538445D01*
X157739499Y-98538445D01*
G37*
G36*
X150909499Y-98538445D02*
X150946993Y-98549819D01*
X150981557Y-98568294D01*
X151011847Y-98593153D01*
X151036706Y-98623443D01*
X151055181Y-98658007D01*
X151066555Y-98695501D01*
X151071000Y-98740638D01*
X151071000Y-99379362D01*
X151066555Y-99424499D01*
X151055181Y-99461993D01*
X151036706Y-99496557D01*
X151011847Y-99526847D01*
X150981557Y-99551706D01*
X150946993Y-99570181D01*
X150909499Y-99581555D01*
X150864362Y-99586000D01*
X150125638Y-99586000D01*
X150080501Y-99581555D01*
X150043007Y-99570181D01*
X150008443Y-99551706D01*
X149978153Y-99526847D01*
X149953294Y-99496557D01*
X149934819Y-99461993D01*
X149923445Y-99424499D01*
X149919000Y-99379362D01*
X149919000Y-98740638D01*
X149923445Y-98695501D01*
X149934819Y-98658007D01*
X149953294Y-98623443D01*
X149978153Y-98593153D01*
X150008443Y-98568294D01*
X150043007Y-98549819D01*
X150080501Y-98538445D01*
X150125638Y-98534000D01*
X150864362Y-98534000D01*
X150909499Y-98538445D01*
X150909499Y-98538445D01*
G37*
G36*
X152659499Y-98538445D02*
X152696993Y-98549819D01*
X152731557Y-98568294D01*
X152761847Y-98593153D01*
X152786706Y-98623443D01*
X152805181Y-98658007D01*
X152816555Y-98695501D01*
X152821000Y-98740638D01*
X152821000Y-99379362D01*
X152816555Y-99424499D01*
X152805181Y-99461993D01*
X152786706Y-99496557D01*
X152761847Y-99526847D01*
X152731557Y-99551706D01*
X152696993Y-99570181D01*
X152659499Y-99581555D01*
X152614362Y-99586000D01*
X151875638Y-99586000D01*
X151830501Y-99581555D01*
X151793007Y-99570181D01*
X151758443Y-99551706D01*
X151728153Y-99526847D01*
X151703294Y-99496557D01*
X151684819Y-99461993D01*
X151673445Y-99424499D01*
X151669000Y-99379362D01*
X151669000Y-98740638D01*
X151673445Y-98695501D01*
X151684819Y-98658007D01*
X151703294Y-98623443D01*
X151728153Y-98593153D01*
X151758443Y-98568294D01*
X151793007Y-98549819D01*
X151830501Y-98538445D01*
X151875638Y-98534000D01*
X152614362Y-98534000D01*
X152659499Y-98538445D01*
X152659499Y-98538445D01*
G37*
G36*
X78242037Y-96082250D02*
X78242039Y-96082251D01*
X78242040Y-96082251D01*
X78565251Y-96216129D01*
X78565252Y-96216130D01*
X78856137Y-96410493D01*
X79103507Y-96657863D01*
X79103509Y-96657866D01*
X79297871Y-96948749D01*
X79431749Y-97271960D01*
X79431750Y-97271963D01*
X79500000Y-97615078D01*
X79500000Y-97964922D01*
X79437677Y-98278242D01*
X79431749Y-98308040D01*
X79297871Y-98631251D01*
X79187121Y-98797000D01*
X79103507Y-98922137D01*
X78856137Y-99169507D01*
X78856134Y-99169509D01*
X78565251Y-99363871D01*
X78242040Y-99497749D01*
X78242039Y-99497749D01*
X78242037Y-99497750D01*
X77898922Y-99566000D01*
X77549078Y-99566000D01*
X77205963Y-99497750D01*
X77205961Y-99497749D01*
X77205960Y-99497749D01*
X76882749Y-99363871D01*
X76591866Y-99169509D01*
X76591863Y-99169507D01*
X76344493Y-98922137D01*
X76260879Y-98797000D01*
X76150129Y-98631251D01*
X76016251Y-98308040D01*
X76010324Y-98278242D01*
X75948000Y-97964922D01*
X75948000Y-97615078D01*
X76016250Y-97271963D01*
X76016251Y-97271960D01*
X76150129Y-96948749D01*
X76344491Y-96657866D01*
X76344493Y-96657863D01*
X76591863Y-96410493D01*
X76882748Y-96216130D01*
X76882749Y-96216129D01*
X77205960Y-96082251D01*
X77205961Y-96082251D01*
X77205963Y-96082250D01*
X77549078Y-96014000D01*
X77898922Y-96014000D01*
X78242037Y-96082250D01*
X78242037Y-96082250D01*
G37*
G36*
X152659499Y-94728445D02*
X152696993Y-94739819D01*
X152731557Y-94758294D01*
X152761847Y-94783153D01*
X152786706Y-94813443D01*
X152805181Y-94848007D01*
X152816555Y-94885501D01*
X152821000Y-94930638D01*
X152821000Y-95569362D01*
X152816555Y-95614499D01*
X152805181Y-95651993D01*
X152786706Y-95686557D01*
X152761847Y-95716847D01*
X152731557Y-95741706D01*
X152696993Y-95760181D01*
X152659499Y-95771555D01*
X152614362Y-95776000D01*
X151875638Y-95776000D01*
X151830501Y-95771555D01*
X151793007Y-95760181D01*
X151758443Y-95741706D01*
X151728153Y-95716847D01*
X151703294Y-95686557D01*
X151684819Y-95651993D01*
X151673445Y-95614499D01*
X151669000Y-95569362D01*
X151669000Y-94930638D01*
X151673445Y-94885501D01*
X151684819Y-94848007D01*
X151703294Y-94813443D01*
X151728153Y-94783153D01*
X151758443Y-94758294D01*
X151793007Y-94739819D01*
X151830501Y-94728445D01*
X151875638Y-94724000D01*
X152614362Y-94724000D01*
X152659499Y-94728445D01*
X152659499Y-94728445D01*
G37*
G36*
X157739499Y-94728445D02*
X157776993Y-94739819D01*
X157811557Y-94758294D01*
X157841847Y-94783153D01*
X157866706Y-94813443D01*
X157885181Y-94848007D01*
X157896555Y-94885501D01*
X157901000Y-94930638D01*
X157901000Y-95569362D01*
X157896555Y-95614499D01*
X157885181Y-95651993D01*
X157866706Y-95686557D01*
X157841847Y-95716847D01*
X157811557Y-95741706D01*
X157776993Y-95760181D01*
X157739499Y-95771555D01*
X157694362Y-95776000D01*
X156955638Y-95776000D01*
X156910501Y-95771555D01*
X156873007Y-95760181D01*
X156838443Y-95741706D01*
X156808153Y-95716847D01*
X156783294Y-95686557D01*
X156764819Y-95651993D01*
X156753445Y-95614499D01*
X156749000Y-95569362D01*
X156749000Y-94930638D01*
X156753445Y-94885501D01*
X156764819Y-94848007D01*
X156783294Y-94813443D01*
X156808153Y-94783153D01*
X156838443Y-94758294D01*
X156873007Y-94739819D01*
X156910501Y-94728445D01*
X156955638Y-94724000D01*
X157694362Y-94724000D01*
X157739499Y-94728445D01*
X157739499Y-94728445D01*
G37*
G36*
X150909499Y-94728445D02*
X150946993Y-94739819D01*
X150981557Y-94758294D01*
X151011847Y-94783153D01*
X151036706Y-94813443D01*
X151055181Y-94848007D01*
X151066555Y-94885501D01*
X151071000Y-94930638D01*
X151071000Y-95569362D01*
X151066555Y-95614499D01*
X151055181Y-95651993D01*
X151036706Y-95686557D01*
X151011847Y-95716847D01*
X150981557Y-95741706D01*
X150946993Y-95760181D01*
X150909499Y-95771555D01*
X150864362Y-95776000D01*
X150125638Y-95776000D01*
X150080501Y-95771555D01*
X150043007Y-95760181D01*
X150008443Y-95741706D01*
X149978153Y-95716847D01*
X149953294Y-95686557D01*
X149934819Y-95651993D01*
X149923445Y-95614499D01*
X149919000Y-95569362D01*
X149919000Y-94930638D01*
X149923445Y-94885501D01*
X149934819Y-94848007D01*
X149953294Y-94813443D01*
X149978153Y-94783153D01*
X150008443Y-94758294D01*
X150043007Y-94739819D01*
X150080501Y-94728445D01*
X150125638Y-94724000D01*
X150864362Y-94724000D01*
X150909499Y-94728445D01*
X150909499Y-94728445D01*
G37*
G36*
X155989499Y-94728445D02*
X156026993Y-94739819D01*
X156061557Y-94758294D01*
X156091847Y-94783153D01*
X156116706Y-94813443D01*
X156135181Y-94848007D01*
X156146555Y-94885501D01*
X156151000Y-94930638D01*
X156151000Y-95569362D01*
X156146555Y-95614499D01*
X156135181Y-95651993D01*
X156116706Y-95686557D01*
X156091847Y-95716847D01*
X156061557Y-95741706D01*
X156026993Y-95760181D01*
X155989499Y-95771555D01*
X155944362Y-95776000D01*
X155205638Y-95776000D01*
X155160501Y-95771555D01*
X155123007Y-95760181D01*
X155088443Y-95741706D01*
X155058153Y-95716847D01*
X155033294Y-95686557D01*
X155014819Y-95651993D01*
X155003445Y-95614499D01*
X154999000Y-95569362D01*
X154999000Y-94930638D01*
X155003445Y-94885501D01*
X155014819Y-94848007D01*
X155033294Y-94813443D01*
X155058153Y-94783153D01*
X155088443Y-94758294D01*
X155123007Y-94739819D01*
X155160501Y-94728445D01*
X155205638Y-94724000D01*
X155944362Y-94724000D01*
X155989499Y-94728445D01*
X155989499Y-94728445D01*
G37*
G36*
X86948908Y-86375380D02*
X87115767Y-86408570D01*
X87587299Y-86603885D01*
X88008803Y-86885526D01*
X88011669Y-86887441D01*
X88372559Y-87248331D01*
X88372561Y-87248334D01*
X88656115Y-87672701D01*
X88851430Y-88144233D01*
X88951000Y-88644809D01*
X88951000Y-89155191D01*
X88851430Y-89655767D01*
X88656115Y-90127299D01*
X88374474Y-90548803D01*
X88372559Y-90551669D01*
X88011669Y-90912559D01*
X88011666Y-90912561D01*
X87587299Y-91196115D01*
X87115767Y-91391430D01*
X86948908Y-91424620D01*
X86615193Y-91491000D01*
X86104807Y-91491000D01*
X85771092Y-91424620D01*
X85604233Y-91391430D01*
X85132701Y-91196115D01*
X84708334Y-90912561D01*
X84708331Y-90912559D01*
X84347441Y-90551669D01*
X84345526Y-90548803D01*
X84063885Y-90127299D01*
X83868570Y-89655767D01*
X83769000Y-89155191D01*
X83769000Y-88644809D01*
X83868570Y-88144233D01*
X84063885Y-87672701D01*
X84347439Y-87248334D01*
X84347441Y-87248331D01*
X84708331Y-86887441D01*
X84711197Y-86885526D01*
X85132701Y-86603885D01*
X85604233Y-86408570D01*
X85771092Y-86375380D01*
X86104807Y-86309000D01*
X86615193Y-86309000D01*
X86948908Y-86375380D01*
X86948908Y-86375380D01*
G37*
G36*
X86948908Y-78501380D02*
X87115767Y-78534570D01*
X87587299Y-78729885D01*
X87884902Y-78928738D01*
X88011669Y-79013441D01*
X88372559Y-79374331D01*
X88372561Y-79374334D01*
X88656115Y-79798701D01*
X88851430Y-80270233D01*
X88951000Y-80770809D01*
X88951000Y-81281191D01*
X88851430Y-81781767D01*
X88656115Y-82253299D01*
X88374474Y-82674803D01*
X88372559Y-82677669D01*
X88011669Y-83038559D01*
X88011666Y-83038561D01*
X87587299Y-83322115D01*
X87115767Y-83517430D01*
X86948908Y-83550620D01*
X86615193Y-83617000D01*
X86104807Y-83617000D01*
X85771092Y-83550620D01*
X85604233Y-83517430D01*
X85132701Y-83322115D01*
X84708334Y-83038561D01*
X84708331Y-83038559D01*
X84347441Y-82677669D01*
X84345526Y-82674803D01*
X84063885Y-82253299D01*
X83868570Y-81781767D01*
X83769000Y-81281191D01*
X83769000Y-80770809D01*
X83868570Y-80270233D01*
X84063885Y-79798701D01*
X84347439Y-79374334D01*
X84347441Y-79374331D01*
X84708331Y-79013441D01*
X84835098Y-78928738D01*
X85132701Y-78729885D01*
X85604233Y-78534570D01*
X85771092Y-78501380D01*
X86104807Y-78435000D01*
X86615193Y-78435000D01*
X86948908Y-78501380D01*
X86948908Y-78501380D01*
G37*
G36*
X131072812Y-78127624D02*
X131236784Y-78195544D01*
X131384354Y-78294147D01*
X131509853Y-78419646D01*
X131608456Y-78567216D01*
X131676376Y-78731188D01*
X131711000Y-78905259D01*
X131711000Y-79082741D01*
X131676376Y-79256812D01*
X131608456Y-79420784D01*
X131509853Y-79568354D01*
X131384354Y-79693853D01*
X131236784Y-79792456D01*
X131072812Y-79860376D01*
X130898741Y-79895000D01*
X130721259Y-79895000D01*
X130547188Y-79860376D01*
X130383216Y-79792456D01*
X130235646Y-79693853D01*
X130110147Y-79568354D01*
X130011544Y-79420784D01*
X129943624Y-79256812D01*
X129909000Y-79082741D01*
X129909000Y-78905259D01*
X129943624Y-78731188D01*
X130011544Y-78567216D01*
X130110147Y-78419646D01*
X130235646Y-78294147D01*
X130383216Y-78195544D01*
X130547188Y-78127624D01*
X130721259Y-78093000D01*
X130898741Y-78093000D01*
X131072812Y-78127624D01*
X131072812Y-78127624D01*
G37*
G36*
X159012812Y-78127624D02*
X159176784Y-78195544D01*
X159324354Y-78294147D01*
X159449853Y-78419646D01*
X159548456Y-78567216D01*
X159616376Y-78731188D01*
X159651000Y-78905259D01*
X159651000Y-79082741D01*
X159616376Y-79256812D01*
X159548456Y-79420784D01*
X159449853Y-79568354D01*
X159324354Y-79693853D01*
X159176784Y-79792456D01*
X159012812Y-79860376D01*
X158838741Y-79895000D01*
X158661259Y-79895000D01*
X158487188Y-79860376D01*
X158323216Y-79792456D01*
X158175646Y-79693853D01*
X158050147Y-79568354D01*
X157951544Y-79420784D01*
X157883624Y-79256812D01*
X157849000Y-79082741D01*
X157849000Y-78905259D01*
X157883624Y-78731188D01*
X157951544Y-78567216D01*
X158050147Y-78419646D01*
X158175646Y-78294147D01*
X158323216Y-78195544D01*
X158487188Y-78127624D01*
X158661259Y-78093000D01*
X158838741Y-78093000D01*
X159012812Y-78127624D01*
X159012812Y-78127624D01*
G37*
G36*
X161552812Y-78127624D02*
X161716784Y-78195544D01*
X161864354Y-78294147D01*
X161989853Y-78419646D01*
X162088456Y-78567216D01*
X162156376Y-78731188D01*
X162191000Y-78905259D01*
X162191000Y-79082741D01*
X162156376Y-79256812D01*
X162088456Y-79420784D01*
X161989853Y-79568354D01*
X161864354Y-79693853D01*
X161716784Y-79792456D01*
X161552812Y-79860376D01*
X161378741Y-79895000D01*
X161201259Y-79895000D01*
X161027188Y-79860376D01*
X160863216Y-79792456D01*
X160715646Y-79693853D01*
X160590147Y-79568354D01*
X160491544Y-79420784D01*
X160423624Y-79256812D01*
X160389000Y-79082741D01*
X160389000Y-78905259D01*
X160423624Y-78731188D01*
X160491544Y-78567216D01*
X160590147Y-78419646D01*
X160715646Y-78294147D01*
X160863216Y-78195544D01*
X161027188Y-78127624D01*
X161201259Y-78093000D01*
X161378741Y-78093000D01*
X161552812Y-78127624D01*
X161552812Y-78127624D01*
G37*
G36*
X164092812Y-78127624D02*
X164256784Y-78195544D01*
X164404354Y-78294147D01*
X164529853Y-78419646D01*
X164628456Y-78567216D01*
X164696376Y-78731188D01*
X164731000Y-78905259D01*
X164731000Y-79082741D01*
X164696376Y-79256812D01*
X164628456Y-79420784D01*
X164529853Y-79568354D01*
X164404354Y-79693853D01*
X164256784Y-79792456D01*
X164092812Y-79860376D01*
X163918741Y-79895000D01*
X163741259Y-79895000D01*
X163567188Y-79860376D01*
X163403216Y-79792456D01*
X163255646Y-79693853D01*
X163130147Y-79568354D01*
X163031544Y-79420784D01*
X162963624Y-79256812D01*
X162929000Y-79082741D01*
X162929000Y-78905259D01*
X162963624Y-78731188D01*
X163031544Y-78567216D01*
X163130147Y-78419646D01*
X163255646Y-78294147D01*
X163403216Y-78195544D01*
X163567188Y-78127624D01*
X163741259Y-78093000D01*
X163918741Y-78093000D01*
X164092812Y-78127624D01*
X164092812Y-78127624D01*
G37*
G36*
X166632812Y-78127624D02*
X166796784Y-78195544D01*
X166944354Y-78294147D01*
X167069853Y-78419646D01*
X167168456Y-78567216D01*
X167236376Y-78731188D01*
X167271000Y-78905259D01*
X167271000Y-79082741D01*
X167236376Y-79256812D01*
X167168456Y-79420784D01*
X167069853Y-79568354D01*
X166944354Y-79693853D01*
X166796784Y-79792456D01*
X166632812Y-79860376D01*
X166458741Y-79895000D01*
X166281259Y-79895000D01*
X166107188Y-79860376D01*
X165943216Y-79792456D01*
X165795646Y-79693853D01*
X165670147Y-79568354D01*
X165571544Y-79420784D01*
X165503624Y-79256812D01*
X165469000Y-79082741D01*
X165469000Y-78905259D01*
X165503624Y-78731188D01*
X165571544Y-78567216D01*
X165670147Y-78419646D01*
X165795646Y-78294147D01*
X165943216Y-78195544D01*
X166107188Y-78127624D01*
X166281259Y-78093000D01*
X166458741Y-78093000D01*
X166632812Y-78127624D01*
X166632812Y-78127624D01*
G37*
G36*
X169172812Y-78127624D02*
X169336784Y-78195544D01*
X169484354Y-78294147D01*
X169609853Y-78419646D01*
X169708456Y-78567216D01*
X169776376Y-78731188D01*
X169811000Y-78905259D01*
X169811000Y-79082741D01*
X169776376Y-79256812D01*
X169708456Y-79420784D01*
X169609853Y-79568354D01*
X169484354Y-79693853D01*
X169336784Y-79792456D01*
X169172812Y-79860376D01*
X168998741Y-79895000D01*
X168821259Y-79895000D01*
X168647188Y-79860376D01*
X168483216Y-79792456D01*
X168335646Y-79693853D01*
X168210147Y-79568354D01*
X168111544Y-79420784D01*
X168043624Y-79256812D01*
X168009000Y-79082741D01*
X168009000Y-78905259D01*
X168043624Y-78731188D01*
X168111544Y-78567216D01*
X168210147Y-78419646D01*
X168335646Y-78294147D01*
X168483216Y-78195544D01*
X168647188Y-78127624D01*
X168821259Y-78093000D01*
X168998741Y-78093000D01*
X169172812Y-78127624D01*
X169172812Y-78127624D01*
G37*
G36*
X171712812Y-78127624D02*
X171876784Y-78195544D01*
X172024354Y-78294147D01*
X172149853Y-78419646D01*
X172248456Y-78567216D01*
X172316376Y-78731188D01*
X172351000Y-78905259D01*
X172351000Y-79082741D01*
X172316376Y-79256812D01*
X172248456Y-79420784D01*
X172149853Y-79568354D01*
X172024354Y-79693853D01*
X171876784Y-79792456D01*
X171712812Y-79860376D01*
X171538741Y-79895000D01*
X171361259Y-79895000D01*
X171187188Y-79860376D01*
X171023216Y-79792456D01*
X170875646Y-79693853D01*
X170750147Y-79568354D01*
X170651544Y-79420784D01*
X170583624Y-79256812D01*
X170549000Y-79082741D01*
X170549000Y-78905259D01*
X170583624Y-78731188D01*
X170651544Y-78567216D01*
X170750147Y-78419646D01*
X170875646Y-78294147D01*
X171023216Y-78195544D01*
X171187188Y-78127624D01*
X171361259Y-78093000D01*
X171538741Y-78093000D01*
X171712812Y-78127624D01*
X171712812Y-78127624D01*
G37*
G36*
X125992812Y-78127624D02*
X126156784Y-78195544D01*
X126304354Y-78294147D01*
X126429853Y-78419646D01*
X126528456Y-78567216D01*
X126596376Y-78731188D01*
X126631000Y-78905259D01*
X126631000Y-79082741D01*
X126596376Y-79256812D01*
X126528456Y-79420784D01*
X126429853Y-79568354D01*
X126304354Y-79693853D01*
X126156784Y-79792456D01*
X125992812Y-79860376D01*
X125818741Y-79895000D01*
X125641259Y-79895000D01*
X125467188Y-79860376D01*
X125303216Y-79792456D01*
X125155646Y-79693853D01*
X125030147Y-79568354D01*
X124931544Y-79420784D01*
X124863624Y-79256812D01*
X124829000Y-79082741D01*
X124829000Y-78905259D01*
X124863624Y-78731188D01*
X124931544Y-78567216D01*
X125030147Y-78419646D01*
X125155646Y-78294147D01*
X125303216Y-78195544D01*
X125467188Y-78127624D01*
X125641259Y-78093000D01*
X125818741Y-78093000D01*
X125992812Y-78127624D01*
X125992812Y-78127624D01*
G37*
G36*
X143772812Y-78127624D02*
X143936784Y-78195544D01*
X144084354Y-78294147D01*
X144209853Y-78419646D01*
X144308456Y-78567216D01*
X144376376Y-78731188D01*
X144411000Y-78905259D01*
X144411000Y-79082741D01*
X144376376Y-79256812D01*
X144308456Y-79420784D01*
X144209853Y-79568354D01*
X144084354Y-79693853D01*
X143936784Y-79792456D01*
X143772812Y-79860376D01*
X143598741Y-79895000D01*
X143421259Y-79895000D01*
X143247188Y-79860376D01*
X143083216Y-79792456D01*
X142935646Y-79693853D01*
X142810147Y-79568354D01*
X142711544Y-79420784D01*
X142643624Y-79256812D01*
X142609000Y-79082741D01*
X142609000Y-78905259D01*
X142643624Y-78731188D01*
X142711544Y-78567216D01*
X142810147Y-78419646D01*
X142935646Y-78294147D01*
X143083216Y-78195544D01*
X143247188Y-78127624D01*
X143421259Y-78093000D01*
X143598741Y-78093000D01*
X143772812Y-78127624D01*
X143772812Y-78127624D01*
G37*
G36*
X128532812Y-78127624D02*
X128696784Y-78195544D01*
X128844354Y-78294147D01*
X128969853Y-78419646D01*
X129068456Y-78567216D01*
X129136376Y-78731188D01*
X129171000Y-78905259D01*
X129171000Y-79082741D01*
X129136376Y-79256812D01*
X129068456Y-79420784D01*
X128969853Y-79568354D01*
X128844354Y-79693853D01*
X128696784Y-79792456D01*
X128532812Y-79860376D01*
X128358741Y-79895000D01*
X128181259Y-79895000D01*
X128007188Y-79860376D01*
X127843216Y-79792456D01*
X127695646Y-79693853D01*
X127570147Y-79568354D01*
X127471544Y-79420784D01*
X127403624Y-79256812D01*
X127369000Y-79082741D01*
X127369000Y-78905259D01*
X127403624Y-78731188D01*
X127471544Y-78567216D01*
X127570147Y-78419646D01*
X127695646Y-78294147D01*
X127843216Y-78195544D01*
X128007188Y-78127624D01*
X128181259Y-78093000D01*
X128358741Y-78093000D01*
X128532812Y-78127624D01*
X128532812Y-78127624D01*
G37*
G36*
X146312812Y-78127624D02*
X146476784Y-78195544D01*
X146624354Y-78294147D01*
X146749853Y-78419646D01*
X146848456Y-78567216D01*
X146916376Y-78731188D01*
X146951000Y-78905259D01*
X146951000Y-79082741D01*
X146916376Y-79256812D01*
X146848456Y-79420784D01*
X146749853Y-79568354D01*
X146624354Y-79693853D01*
X146476784Y-79792456D01*
X146312812Y-79860376D01*
X146138741Y-79895000D01*
X145961259Y-79895000D01*
X145787188Y-79860376D01*
X145623216Y-79792456D01*
X145475646Y-79693853D01*
X145350147Y-79568354D01*
X145251544Y-79420784D01*
X145183624Y-79256812D01*
X145149000Y-79082741D01*
X145149000Y-78905259D01*
X145183624Y-78731188D01*
X145251544Y-78567216D01*
X145350147Y-78419646D01*
X145475646Y-78294147D01*
X145623216Y-78195544D01*
X145787188Y-78127624D01*
X145961259Y-78093000D01*
X146138741Y-78093000D01*
X146312812Y-78127624D01*
X146312812Y-78127624D01*
G37*
G36*
X123452812Y-78127624D02*
X123616784Y-78195544D01*
X123764354Y-78294147D01*
X123889853Y-78419646D01*
X123988456Y-78567216D01*
X124056376Y-78731188D01*
X124091000Y-78905259D01*
X124091000Y-79082741D01*
X124056376Y-79256812D01*
X123988456Y-79420784D01*
X123889853Y-79568354D01*
X123764354Y-79693853D01*
X123616784Y-79792456D01*
X123452812Y-79860376D01*
X123278741Y-79895000D01*
X123101259Y-79895000D01*
X122927188Y-79860376D01*
X122763216Y-79792456D01*
X122615646Y-79693853D01*
X122490147Y-79568354D01*
X122391544Y-79420784D01*
X122323624Y-79256812D01*
X122289000Y-79082741D01*
X122289000Y-78905259D01*
X122323624Y-78731188D01*
X122391544Y-78567216D01*
X122490147Y-78419646D01*
X122615646Y-78294147D01*
X122763216Y-78195544D01*
X122927188Y-78127624D01*
X123101259Y-78093000D01*
X123278741Y-78093000D01*
X123452812Y-78127624D01*
X123452812Y-78127624D01*
G37*
G36*
X151392812Y-78127624D02*
X151556784Y-78195544D01*
X151704354Y-78294147D01*
X151829853Y-78419646D01*
X151928456Y-78567216D01*
X151996376Y-78731188D01*
X152031000Y-78905259D01*
X152031000Y-79082741D01*
X151996376Y-79256812D01*
X151928456Y-79420784D01*
X151829853Y-79568354D01*
X151704354Y-79693853D01*
X151556784Y-79792456D01*
X151392812Y-79860376D01*
X151218741Y-79895000D01*
X151041259Y-79895000D01*
X150867188Y-79860376D01*
X150703216Y-79792456D01*
X150555646Y-79693853D01*
X150430147Y-79568354D01*
X150331544Y-79420784D01*
X150263624Y-79256812D01*
X150229000Y-79082741D01*
X150229000Y-78905259D01*
X150263624Y-78731188D01*
X150331544Y-78567216D01*
X150430147Y-78419646D01*
X150555646Y-78294147D01*
X150703216Y-78195544D01*
X150867188Y-78127624D01*
X151041259Y-78093000D01*
X151218741Y-78093000D01*
X151392812Y-78127624D01*
X151392812Y-78127624D01*
G37*
G36*
X153932812Y-78127624D02*
X154096784Y-78195544D01*
X154244354Y-78294147D01*
X154369853Y-78419646D01*
X154468456Y-78567216D01*
X154536376Y-78731188D01*
X154571000Y-78905259D01*
X154571000Y-79082741D01*
X154536376Y-79256812D01*
X154468456Y-79420784D01*
X154369853Y-79568354D01*
X154244354Y-79693853D01*
X154096784Y-79792456D01*
X153932812Y-79860376D01*
X153758741Y-79895000D01*
X153581259Y-79895000D01*
X153407188Y-79860376D01*
X153243216Y-79792456D01*
X153095646Y-79693853D01*
X152970147Y-79568354D01*
X152871544Y-79420784D01*
X152803624Y-79256812D01*
X152769000Y-79082741D01*
X152769000Y-78905259D01*
X152803624Y-78731188D01*
X152871544Y-78567216D01*
X152970147Y-78419646D01*
X153095646Y-78294147D01*
X153243216Y-78195544D01*
X153407188Y-78127624D01*
X153581259Y-78093000D01*
X153758741Y-78093000D01*
X153932812Y-78127624D01*
X153932812Y-78127624D01*
G37*
G36*
X138692812Y-78127624D02*
X138856784Y-78195544D01*
X139004354Y-78294147D01*
X139129853Y-78419646D01*
X139228456Y-78567216D01*
X139296376Y-78731188D01*
X139331000Y-78905259D01*
X139331000Y-79082741D01*
X139296376Y-79256812D01*
X139228456Y-79420784D01*
X139129853Y-79568354D01*
X139004354Y-79693853D01*
X138856784Y-79792456D01*
X138692812Y-79860376D01*
X138518741Y-79895000D01*
X138341259Y-79895000D01*
X138167188Y-79860376D01*
X138003216Y-79792456D01*
X137855646Y-79693853D01*
X137730147Y-79568354D01*
X137631544Y-79420784D01*
X137563624Y-79256812D01*
X137529000Y-79082741D01*
X137529000Y-78905259D01*
X137563624Y-78731188D01*
X137631544Y-78567216D01*
X137730147Y-78419646D01*
X137855646Y-78294147D01*
X138003216Y-78195544D01*
X138167188Y-78127624D01*
X138341259Y-78093000D01*
X138518741Y-78093000D01*
X138692812Y-78127624D01*
X138692812Y-78127624D01*
G37*
G36*
X133612812Y-78127624D02*
X133776784Y-78195544D01*
X133924354Y-78294147D01*
X134049853Y-78419646D01*
X134148456Y-78567216D01*
X134216376Y-78731188D01*
X134251000Y-78905259D01*
X134251000Y-79082741D01*
X134216376Y-79256812D01*
X134148456Y-79420784D01*
X134049853Y-79568354D01*
X133924354Y-79693853D01*
X133776784Y-79792456D01*
X133612812Y-79860376D01*
X133438741Y-79895000D01*
X133261259Y-79895000D01*
X133087188Y-79860376D01*
X132923216Y-79792456D01*
X132775646Y-79693853D01*
X132650147Y-79568354D01*
X132551544Y-79420784D01*
X132483624Y-79256812D01*
X132449000Y-79082741D01*
X132449000Y-78905259D01*
X132483624Y-78731188D01*
X132551544Y-78567216D01*
X132650147Y-78419646D01*
X132775646Y-78294147D01*
X132923216Y-78195544D01*
X133087188Y-78127624D01*
X133261259Y-78093000D01*
X133438741Y-78093000D01*
X133612812Y-78127624D01*
X133612812Y-78127624D01*
G37*
G36*
X156472812Y-78127624D02*
X156636784Y-78195544D01*
X156784354Y-78294147D01*
X156909853Y-78419646D01*
X157008456Y-78567216D01*
X157076376Y-78731188D01*
X157111000Y-78905259D01*
X157111000Y-79082741D01*
X157076376Y-79256812D01*
X157008456Y-79420784D01*
X156909853Y-79568354D01*
X156784354Y-79693853D01*
X156636784Y-79792456D01*
X156472812Y-79860376D01*
X156298741Y-79895000D01*
X156121259Y-79895000D01*
X155947188Y-79860376D01*
X155783216Y-79792456D01*
X155635646Y-79693853D01*
X155510147Y-79568354D01*
X155411544Y-79420784D01*
X155343624Y-79256812D01*
X155309000Y-79082741D01*
X155309000Y-78905259D01*
X155343624Y-78731188D01*
X155411544Y-78567216D01*
X155510147Y-78419646D01*
X155635646Y-78294147D01*
X155783216Y-78195544D01*
X155947188Y-78127624D01*
X156121259Y-78093000D01*
X156298741Y-78093000D01*
X156472812Y-78127624D01*
X156472812Y-78127624D01*
G37*
G36*
X136152812Y-78127624D02*
X136316784Y-78195544D01*
X136464354Y-78294147D01*
X136589853Y-78419646D01*
X136688456Y-78567216D01*
X136756376Y-78731188D01*
X136791000Y-78905259D01*
X136791000Y-79082741D01*
X136756376Y-79256812D01*
X136688456Y-79420784D01*
X136589853Y-79568354D01*
X136464354Y-79693853D01*
X136316784Y-79792456D01*
X136152812Y-79860376D01*
X135978741Y-79895000D01*
X135801259Y-79895000D01*
X135627188Y-79860376D01*
X135463216Y-79792456D01*
X135315646Y-79693853D01*
X135190147Y-79568354D01*
X135091544Y-79420784D01*
X135023624Y-79256812D01*
X134989000Y-79082741D01*
X134989000Y-78905259D01*
X135023624Y-78731188D01*
X135091544Y-78567216D01*
X135190147Y-78419646D01*
X135315646Y-78294147D01*
X135463216Y-78195544D01*
X135627188Y-78127624D01*
X135801259Y-78093000D01*
X135978741Y-78093000D01*
X136152812Y-78127624D01*
X136152812Y-78127624D01*
G37*
G36*
X141232812Y-78127624D02*
X141396784Y-78195544D01*
X141544354Y-78294147D01*
X141669853Y-78419646D01*
X141768456Y-78567216D01*
X141836376Y-78731188D01*
X141871000Y-78905259D01*
X141871000Y-79082741D01*
X141836376Y-79256812D01*
X141768456Y-79420784D01*
X141669853Y-79568354D01*
X141544354Y-79693853D01*
X141396784Y-79792456D01*
X141232812Y-79860376D01*
X141058741Y-79895000D01*
X140881259Y-79895000D01*
X140707188Y-79860376D01*
X140543216Y-79792456D01*
X140395646Y-79693853D01*
X140270147Y-79568354D01*
X140171544Y-79420784D01*
X140103624Y-79256812D01*
X140069000Y-79082741D01*
X140069000Y-78905259D01*
X140103624Y-78731188D01*
X140171544Y-78567216D01*
X140270147Y-78419646D01*
X140395646Y-78294147D01*
X140543216Y-78195544D01*
X140707188Y-78127624D01*
X140881259Y-78093000D01*
X141058741Y-78093000D01*
X141232812Y-78127624D01*
X141232812Y-78127624D01*
G37*
G36*
X148852812Y-78127624D02*
X149016784Y-78195544D01*
X149164354Y-78294147D01*
X149289853Y-78419646D01*
X149388456Y-78567216D01*
X149456376Y-78731188D01*
X149491000Y-78905259D01*
X149491000Y-79082741D01*
X149456376Y-79256812D01*
X149388456Y-79420784D01*
X149289853Y-79568354D01*
X149164354Y-79693853D01*
X149016784Y-79792456D01*
X148852812Y-79860376D01*
X148678741Y-79895000D01*
X148501259Y-79895000D01*
X148327188Y-79860376D01*
X148163216Y-79792456D01*
X148015646Y-79693853D01*
X147890147Y-79568354D01*
X147791544Y-79420784D01*
X147723624Y-79256812D01*
X147689000Y-79082741D01*
X147689000Y-78905259D01*
X147723624Y-78731188D01*
X147791544Y-78567216D01*
X147890147Y-78419646D01*
X148015646Y-78294147D01*
X148163216Y-78195544D01*
X148327188Y-78127624D01*
X148501259Y-78093000D01*
X148678741Y-78093000D01*
X148852812Y-78127624D01*
X148852812Y-78127624D01*
G37*
G36*
X105063228Y-77921703D02*
X105218100Y-77985853D01*
X105357481Y-78078985D01*
X105476015Y-78197519D01*
X105569147Y-78336900D01*
X105633297Y-78491772D01*
X105666000Y-78656184D01*
X105666000Y-78823816D01*
X105633297Y-78988228D01*
X105569147Y-79143100D01*
X105476015Y-79282481D01*
X105357481Y-79401015D01*
X105218100Y-79494147D01*
X105063228Y-79558297D01*
X104898816Y-79591000D01*
X104731184Y-79591000D01*
X104566772Y-79558297D01*
X104411900Y-79494147D01*
X104272519Y-79401015D01*
X104153985Y-79282481D01*
X104060853Y-79143100D01*
X103996703Y-78988228D01*
X103964000Y-78823816D01*
X103964000Y-78656184D01*
X103996703Y-78491772D01*
X104060853Y-78336900D01*
X104153985Y-78197519D01*
X104272519Y-78078985D01*
X104411900Y-77985853D01*
X104566772Y-77921703D01*
X104731184Y-77889000D01*
X104898816Y-77889000D01*
X105063228Y-77921703D01*
X105063228Y-77921703D01*
G37*
G36*
X108166000Y-79591000D02*
X106464000Y-79591000D01*
X106464000Y-77889000D01*
X108166000Y-77889000D01*
X108166000Y-79591000D01*
X108166000Y-79591000D01*
G37*
G36*
X176672527Y-76212736D02*
X176772410Y-76232604D01*
X177054674Y-76349521D01*
X177308705Y-76519259D01*
X177524741Y-76735295D01*
X177694479Y-76989326D01*
X177803470Y-77252456D01*
X177811396Y-77271591D01*
X177871000Y-77571238D01*
X177871000Y-77876762D01*
X177862060Y-77921704D01*
X177811396Y-78176410D01*
X177694479Y-78458674D01*
X177524741Y-78712705D01*
X177308705Y-78928741D01*
X177054674Y-79098479D01*
X176772410Y-79215396D01*
X176672527Y-79235264D01*
X176472762Y-79275000D01*
X176167238Y-79275000D01*
X175967473Y-79235264D01*
X175867590Y-79215396D01*
X175585326Y-79098479D01*
X175331295Y-78928741D01*
X175115259Y-78712705D01*
X174945521Y-78458674D01*
X174828604Y-78176410D01*
X174777940Y-77921704D01*
X174769000Y-77876762D01*
X174769000Y-77571238D01*
X174828604Y-77271591D01*
X174836530Y-77252456D01*
X174945521Y-76989326D01*
X175115259Y-76735295D01*
X175331295Y-76519259D01*
X175585326Y-76349521D01*
X175867590Y-76232604D01*
X175967473Y-76212736D01*
X176167238Y-76173000D01*
X176472762Y-76173000D01*
X176672527Y-76212736D01*
X176672527Y-76212736D01*
G37*
G36*
X118672527Y-76212736D02*
X118772410Y-76232604D01*
X119054674Y-76349521D01*
X119308705Y-76519259D01*
X119524741Y-76735295D01*
X119694479Y-76989326D01*
X119803470Y-77252456D01*
X119811396Y-77271591D01*
X119871000Y-77571238D01*
X119871000Y-77876762D01*
X119862060Y-77921704D01*
X119811396Y-78176410D01*
X119694479Y-78458674D01*
X119524741Y-78712705D01*
X119308705Y-78928741D01*
X119054674Y-79098479D01*
X118772410Y-79215396D01*
X118672527Y-79235264D01*
X118472762Y-79275000D01*
X118167238Y-79275000D01*
X117967473Y-79235264D01*
X117867590Y-79215396D01*
X117585326Y-79098479D01*
X117331295Y-78928741D01*
X117115259Y-78712705D01*
X116945521Y-78458674D01*
X116828604Y-78176410D01*
X116777940Y-77921704D01*
X116769000Y-77876762D01*
X116769000Y-77571238D01*
X116828604Y-77271591D01*
X116836530Y-77252456D01*
X116945521Y-76989326D01*
X117115259Y-76735295D01*
X117331295Y-76519259D01*
X117585326Y-76349521D01*
X117867590Y-76232604D01*
X117967473Y-76212736D01*
X118167238Y-76173000D01*
X118472762Y-76173000D01*
X118672527Y-76212736D01*
X118672527Y-76212736D01*
G37*
G36*
X125992812Y-75587624D02*
X126156784Y-75655544D01*
X126304354Y-75754147D01*
X126429853Y-75879646D01*
X126528456Y-76027216D01*
X126596376Y-76191188D01*
X126631000Y-76365259D01*
X126631000Y-76542741D01*
X126596376Y-76716812D01*
X126528456Y-76880784D01*
X126429853Y-77028354D01*
X126304354Y-77153853D01*
X126156784Y-77252456D01*
X125992812Y-77320376D01*
X125818741Y-77355000D01*
X125641259Y-77355000D01*
X125467188Y-77320376D01*
X125303216Y-77252456D01*
X125155646Y-77153853D01*
X125030147Y-77028354D01*
X124931544Y-76880784D01*
X124863624Y-76716812D01*
X124829000Y-76542741D01*
X124829000Y-76365259D01*
X124863624Y-76191188D01*
X124931544Y-76027216D01*
X125030147Y-75879646D01*
X125155646Y-75754147D01*
X125303216Y-75655544D01*
X125467188Y-75587624D01*
X125641259Y-75553000D01*
X125818741Y-75553000D01*
X125992812Y-75587624D01*
X125992812Y-75587624D01*
G37*
G36*
X171712812Y-75587624D02*
X171876784Y-75655544D01*
X172024354Y-75754147D01*
X172149853Y-75879646D01*
X172248456Y-76027216D01*
X172316376Y-76191188D01*
X172351000Y-76365259D01*
X172351000Y-76542741D01*
X172316376Y-76716812D01*
X172248456Y-76880784D01*
X172149853Y-77028354D01*
X172024354Y-77153853D01*
X171876784Y-77252456D01*
X171712812Y-77320376D01*
X171538741Y-77355000D01*
X171361259Y-77355000D01*
X171187188Y-77320376D01*
X171023216Y-77252456D01*
X170875646Y-77153853D01*
X170750147Y-77028354D01*
X170651544Y-76880784D01*
X170583624Y-76716812D01*
X170549000Y-76542741D01*
X170549000Y-76365259D01*
X170583624Y-76191188D01*
X170651544Y-76027216D01*
X170750147Y-75879646D01*
X170875646Y-75754147D01*
X171023216Y-75655544D01*
X171187188Y-75587624D01*
X171361259Y-75553000D01*
X171538741Y-75553000D01*
X171712812Y-75587624D01*
X171712812Y-75587624D01*
G37*
G36*
X169172812Y-75587624D02*
X169336784Y-75655544D01*
X169484354Y-75754147D01*
X169609853Y-75879646D01*
X169708456Y-76027216D01*
X169776376Y-76191188D01*
X169811000Y-76365259D01*
X169811000Y-76542741D01*
X169776376Y-76716812D01*
X169708456Y-76880784D01*
X169609853Y-77028354D01*
X169484354Y-77153853D01*
X169336784Y-77252456D01*
X169172812Y-77320376D01*
X168998741Y-77355000D01*
X168821259Y-77355000D01*
X168647188Y-77320376D01*
X168483216Y-77252456D01*
X168335646Y-77153853D01*
X168210147Y-77028354D01*
X168111544Y-76880784D01*
X168043624Y-76716812D01*
X168009000Y-76542741D01*
X168009000Y-76365259D01*
X168043624Y-76191188D01*
X168111544Y-76027216D01*
X168210147Y-75879646D01*
X168335646Y-75754147D01*
X168483216Y-75655544D01*
X168647188Y-75587624D01*
X168821259Y-75553000D01*
X168998741Y-75553000D01*
X169172812Y-75587624D01*
X169172812Y-75587624D01*
G37*
G36*
X166632812Y-75587624D02*
X166796784Y-75655544D01*
X166944354Y-75754147D01*
X167069853Y-75879646D01*
X167168456Y-76027216D01*
X167236376Y-76191188D01*
X167271000Y-76365259D01*
X167271000Y-76542741D01*
X167236376Y-76716812D01*
X167168456Y-76880784D01*
X167069853Y-77028354D01*
X166944354Y-77153853D01*
X166796784Y-77252456D01*
X166632812Y-77320376D01*
X166458741Y-77355000D01*
X166281259Y-77355000D01*
X166107188Y-77320376D01*
X165943216Y-77252456D01*
X165795646Y-77153853D01*
X165670147Y-77028354D01*
X165571544Y-76880784D01*
X165503624Y-76716812D01*
X165469000Y-76542741D01*
X165469000Y-76365259D01*
X165503624Y-76191188D01*
X165571544Y-76027216D01*
X165670147Y-75879646D01*
X165795646Y-75754147D01*
X165943216Y-75655544D01*
X166107188Y-75587624D01*
X166281259Y-75553000D01*
X166458741Y-75553000D01*
X166632812Y-75587624D01*
X166632812Y-75587624D01*
G37*
G36*
X164092812Y-75587624D02*
X164256784Y-75655544D01*
X164404354Y-75754147D01*
X164529853Y-75879646D01*
X164628456Y-76027216D01*
X164696376Y-76191188D01*
X164731000Y-76365259D01*
X164731000Y-76542741D01*
X164696376Y-76716812D01*
X164628456Y-76880784D01*
X164529853Y-77028354D01*
X164404354Y-77153853D01*
X164256784Y-77252456D01*
X164092812Y-77320376D01*
X163918741Y-77355000D01*
X163741259Y-77355000D01*
X163567188Y-77320376D01*
X163403216Y-77252456D01*
X163255646Y-77153853D01*
X163130147Y-77028354D01*
X163031544Y-76880784D01*
X162963624Y-76716812D01*
X162929000Y-76542741D01*
X162929000Y-76365259D01*
X162963624Y-76191188D01*
X163031544Y-76027216D01*
X163130147Y-75879646D01*
X163255646Y-75754147D01*
X163403216Y-75655544D01*
X163567188Y-75587624D01*
X163741259Y-75553000D01*
X163918741Y-75553000D01*
X164092812Y-75587624D01*
X164092812Y-75587624D01*
G37*
G36*
X161552812Y-75587624D02*
X161716784Y-75655544D01*
X161864354Y-75754147D01*
X161989853Y-75879646D01*
X162088456Y-76027216D01*
X162156376Y-76191188D01*
X162191000Y-76365259D01*
X162191000Y-76542741D01*
X162156376Y-76716812D01*
X162088456Y-76880784D01*
X161989853Y-77028354D01*
X161864354Y-77153853D01*
X161716784Y-77252456D01*
X161552812Y-77320376D01*
X161378741Y-77355000D01*
X161201259Y-77355000D01*
X161027188Y-77320376D01*
X160863216Y-77252456D01*
X160715646Y-77153853D01*
X160590147Y-77028354D01*
X160491544Y-76880784D01*
X160423624Y-76716812D01*
X160389000Y-76542741D01*
X160389000Y-76365259D01*
X160423624Y-76191188D01*
X160491544Y-76027216D01*
X160590147Y-75879646D01*
X160715646Y-75754147D01*
X160863216Y-75655544D01*
X161027188Y-75587624D01*
X161201259Y-75553000D01*
X161378741Y-75553000D01*
X161552812Y-75587624D01*
X161552812Y-75587624D01*
G37*
G36*
X159012812Y-75587624D02*
X159176784Y-75655544D01*
X159324354Y-75754147D01*
X159449853Y-75879646D01*
X159548456Y-76027216D01*
X159616376Y-76191188D01*
X159651000Y-76365259D01*
X159651000Y-76542741D01*
X159616376Y-76716812D01*
X159548456Y-76880784D01*
X159449853Y-77028354D01*
X159324354Y-77153853D01*
X159176784Y-77252456D01*
X159012812Y-77320376D01*
X158838741Y-77355000D01*
X158661259Y-77355000D01*
X158487188Y-77320376D01*
X158323216Y-77252456D01*
X158175646Y-77153853D01*
X158050147Y-77028354D01*
X157951544Y-76880784D01*
X157883624Y-76716812D01*
X157849000Y-76542741D01*
X157849000Y-76365259D01*
X157883624Y-76191188D01*
X157951544Y-76027216D01*
X158050147Y-75879646D01*
X158175646Y-75754147D01*
X158323216Y-75655544D01*
X158487188Y-75587624D01*
X158661259Y-75553000D01*
X158838741Y-75553000D01*
X159012812Y-75587624D01*
X159012812Y-75587624D01*
G37*
G36*
X156472812Y-75587624D02*
X156636784Y-75655544D01*
X156784354Y-75754147D01*
X156909853Y-75879646D01*
X157008456Y-76027216D01*
X157076376Y-76191188D01*
X157111000Y-76365259D01*
X157111000Y-76542741D01*
X157076376Y-76716812D01*
X157008456Y-76880784D01*
X156909853Y-77028354D01*
X156784354Y-77153853D01*
X156636784Y-77252456D01*
X156472812Y-77320376D01*
X156298741Y-77355000D01*
X156121259Y-77355000D01*
X155947188Y-77320376D01*
X155783216Y-77252456D01*
X155635646Y-77153853D01*
X155510147Y-77028354D01*
X155411544Y-76880784D01*
X155343624Y-76716812D01*
X155309000Y-76542741D01*
X155309000Y-76365259D01*
X155343624Y-76191188D01*
X155411544Y-76027216D01*
X155510147Y-75879646D01*
X155635646Y-75754147D01*
X155783216Y-75655544D01*
X155947188Y-75587624D01*
X156121259Y-75553000D01*
X156298741Y-75553000D01*
X156472812Y-75587624D01*
X156472812Y-75587624D01*
G37*
G36*
X153932812Y-75587624D02*
X154096784Y-75655544D01*
X154244354Y-75754147D01*
X154369853Y-75879646D01*
X154468456Y-76027216D01*
X154536376Y-76191188D01*
X154571000Y-76365259D01*
X154571000Y-76542741D01*
X154536376Y-76716812D01*
X154468456Y-76880784D01*
X154369853Y-77028354D01*
X154244354Y-77153853D01*
X154096784Y-77252456D01*
X153932812Y-77320376D01*
X153758741Y-77355000D01*
X153581259Y-77355000D01*
X153407188Y-77320376D01*
X153243216Y-77252456D01*
X153095646Y-77153853D01*
X152970147Y-77028354D01*
X152871544Y-76880784D01*
X152803624Y-76716812D01*
X152769000Y-76542741D01*
X152769000Y-76365259D01*
X152803624Y-76191188D01*
X152871544Y-76027216D01*
X152970147Y-75879646D01*
X153095646Y-75754147D01*
X153243216Y-75655544D01*
X153407188Y-75587624D01*
X153581259Y-75553000D01*
X153758741Y-75553000D01*
X153932812Y-75587624D01*
X153932812Y-75587624D01*
G37*
G36*
X151392812Y-75587624D02*
X151556784Y-75655544D01*
X151704354Y-75754147D01*
X151829853Y-75879646D01*
X151928456Y-76027216D01*
X151996376Y-76191188D01*
X152031000Y-76365259D01*
X152031000Y-76542741D01*
X151996376Y-76716812D01*
X151928456Y-76880784D01*
X151829853Y-77028354D01*
X151704354Y-77153853D01*
X151556784Y-77252456D01*
X151392812Y-77320376D01*
X151218741Y-77355000D01*
X151041259Y-77355000D01*
X150867188Y-77320376D01*
X150703216Y-77252456D01*
X150555646Y-77153853D01*
X150430147Y-77028354D01*
X150331544Y-76880784D01*
X150263624Y-76716812D01*
X150229000Y-76542741D01*
X150229000Y-76365259D01*
X150263624Y-76191188D01*
X150331544Y-76027216D01*
X150430147Y-75879646D01*
X150555646Y-75754147D01*
X150703216Y-75655544D01*
X150867188Y-75587624D01*
X151041259Y-75553000D01*
X151218741Y-75553000D01*
X151392812Y-75587624D01*
X151392812Y-75587624D01*
G37*
G36*
X148852812Y-75587624D02*
X149016784Y-75655544D01*
X149164354Y-75754147D01*
X149289853Y-75879646D01*
X149388456Y-76027216D01*
X149456376Y-76191188D01*
X149491000Y-76365259D01*
X149491000Y-76542741D01*
X149456376Y-76716812D01*
X149388456Y-76880784D01*
X149289853Y-77028354D01*
X149164354Y-77153853D01*
X149016784Y-77252456D01*
X148852812Y-77320376D01*
X148678741Y-77355000D01*
X148501259Y-77355000D01*
X148327188Y-77320376D01*
X148163216Y-77252456D01*
X148015646Y-77153853D01*
X147890147Y-77028354D01*
X147791544Y-76880784D01*
X147723624Y-76716812D01*
X147689000Y-76542741D01*
X147689000Y-76365259D01*
X147723624Y-76191188D01*
X147791544Y-76027216D01*
X147890147Y-75879646D01*
X148015646Y-75754147D01*
X148163216Y-75655544D01*
X148327188Y-75587624D01*
X148501259Y-75553000D01*
X148678741Y-75553000D01*
X148852812Y-75587624D01*
X148852812Y-75587624D01*
G37*
G36*
X146312812Y-75587624D02*
X146476784Y-75655544D01*
X146624354Y-75754147D01*
X146749853Y-75879646D01*
X146848456Y-76027216D01*
X146916376Y-76191188D01*
X146951000Y-76365259D01*
X146951000Y-76542741D01*
X146916376Y-76716812D01*
X146848456Y-76880784D01*
X146749853Y-77028354D01*
X146624354Y-77153853D01*
X146476784Y-77252456D01*
X146312812Y-77320376D01*
X146138741Y-77355000D01*
X145961259Y-77355000D01*
X145787188Y-77320376D01*
X145623216Y-77252456D01*
X145475646Y-77153853D01*
X145350147Y-77028354D01*
X145251544Y-76880784D01*
X145183624Y-76716812D01*
X145149000Y-76542741D01*
X145149000Y-76365259D01*
X145183624Y-76191188D01*
X145251544Y-76027216D01*
X145350147Y-75879646D01*
X145475646Y-75754147D01*
X145623216Y-75655544D01*
X145787188Y-75587624D01*
X145961259Y-75553000D01*
X146138741Y-75553000D01*
X146312812Y-75587624D01*
X146312812Y-75587624D01*
G37*
G36*
X143772812Y-75587624D02*
X143936784Y-75655544D01*
X144084354Y-75754147D01*
X144209853Y-75879646D01*
X144308456Y-76027216D01*
X144376376Y-76191188D01*
X144411000Y-76365259D01*
X144411000Y-76542741D01*
X144376376Y-76716812D01*
X144308456Y-76880784D01*
X144209853Y-77028354D01*
X144084354Y-77153853D01*
X143936784Y-77252456D01*
X143772812Y-77320376D01*
X143598741Y-77355000D01*
X143421259Y-77355000D01*
X143247188Y-77320376D01*
X143083216Y-77252456D01*
X142935646Y-77153853D01*
X142810147Y-77028354D01*
X142711544Y-76880784D01*
X142643624Y-76716812D01*
X142609000Y-76542741D01*
X142609000Y-76365259D01*
X142643624Y-76191188D01*
X142711544Y-76027216D01*
X142810147Y-75879646D01*
X142935646Y-75754147D01*
X143083216Y-75655544D01*
X143247188Y-75587624D01*
X143421259Y-75553000D01*
X143598741Y-75553000D01*
X143772812Y-75587624D01*
X143772812Y-75587624D01*
G37*
G36*
X141232812Y-75587624D02*
X141396784Y-75655544D01*
X141544354Y-75754147D01*
X141669853Y-75879646D01*
X141768456Y-76027216D01*
X141836376Y-76191188D01*
X141871000Y-76365259D01*
X141871000Y-76542741D01*
X141836376Y-76716812D01*
X141768456Y-76880784D01*
X141669853Y-77028354D01*
X141544354Y-77153853D01*
X141396784Y-77252456D01*
X141232812Y-77320376D01*
X141058741Y-77355000D01*
X140881259Y-77355000D01*
X140707188Y-77320376D01*
X140543216Y-77252456D01*
X140395646Y-77153853D01*
X140270147Y-77028354D01*
X140171544Y-76880784D01*
X140103624Y-76716812D01*
X140069000Y-76542741D01*
X140069000Y-76365259D01*
X140103624Y-76191188D01*
X140171544Y-76027216D01*
X140270147Y-75879646D01*
X140395646Y-75754147D01*
X140543216Y-75655544D01*
X140707188Y-75587624D01*
X140881259Y-75553000D01*
X141058741Y-75553000D01*
X141232812Y-75587624D01*
X141232812Y-75587624D01*
G37*
G36*
X138692812Y-75587624D02*
X138856784Y-75655544D01*
X139004354Y-75754147D01*
X139129853Y-75879646D01*
X139228456Y-76027216D01*
X139296376Y-76191188D01*
X139331000Y-76365259D01*
X139331000Y-76542741D01*
X139296376Y-76716812D01*
X139228456Y-76880784D01*
X139129853Y-77028354D01*
X139004354Y-77153853D01*
X138856784Y-77252456D01*
X138692812Y-77320376D01*
X138518741Y-77355000D01*
X138341259Y-77355000D01*
X138167188Y-77320376D01*
X138003216Y-77252456D01*
X137855646Y-77153853D01*
X137730147Y-77028354D01*
X137631544Y-76880784D01*
X137563624Y-76716812D01*
X137529000Y-76542741D01*
X137529000Y-76365259D01*
X137563624Y-76191188D01*
X137631544Y-76027216D01*
X137730147Y-75879646D01*
X137855646Y-75754147D01*
X138003216Y-75655544D01*
X138167188Y-75587624D01*
X138341259Y-75553000D01*
X138518741Y-75553000D01*
X138692812Y-75587624D01*
X138692812Y-75587624D01*
G37*
G36*
X136152812Y-75587624D02*
X136316784Y-75655544D01*
X136464354Y-75754147D01*
X136589853Y-75879646D01*
X136688456Y-76027216D01*
X136756376Y-76191188D01*
X136791000Y-76365259D01*
X136791000Y-76542741D01*
X136756376Y-76716812D01*
X136688456Y-76880784D01*
X136589853Y-77028354D01*
X136464354Y-77153853D01*
X136316784Y-77252456D01*
X136152812Y-77320376D01*
X135978741Y-77355000D01*
X135801259Y-77355000D01*
X135627188Y-77320376D01*
X135463216Y-77252456D01*
X135315646Y-77153853D01*
X135190147Y-77028354D01*
X135091544Y-76880784D01*
X135023624Y-76716812D01*
X134989000Y-76542741D01*
X134989000Y-76365259D01*
X135023624Y-76191188D01*
X135091544Y-76027216D01*
X135190147Y-75879646D01*
X135315646Y-75754147D01*
X135463216Y-75655544D01*
X135627188Y-75587624D01*
X135801259Y-75553000D01*
X135978741Y-75553000D01*
X136152812Y-75587624D01*
X136152812Y-75587624D01*
G37*
G36*
X133612812Y-75587624D02*
X133776784Y-75655544D01*
X133924354Y-75754147D01*
X134049853Y-75879646D01*
X134148456Y-76027216D01*
X134216376Y-76191188D01*
X134251000Y-76365259D01*
X134251000Y-76542741D01*
X134216376Y-76716812D01*
X134148456Y-76880784D01*
X134049853Y-77028354D01*
X133924354Y-77153853D01*
X133776784Y-77252456D01*
X133612812Y-77320376D01*
X133438741Y-77355000D01*
X133261259Y-77355000D01*
X133087188Y-77320376D01*
X132923216Y-77252456D01*
X132775646Y-77153853D01*
X132650147Y-77028354D01*
X132551544Y-76880784D01*
X132483624Y-76716812D01*
X132449000Y-76542741D01*
X132449000Y-76365259D01*
X132483624Y-76191188D01*
X132551544Y-76027216D01*
X132650147Y-75879646D01*
X132775646Y-75754147D01*
X132923216Y-75655544D01*
X133087188Y-75587624D01*
X133261259Y-75553000D01*
X133438741Y-75553000D01*
X133612812Y-75587624D01*
X133612812Y-75587624D01*
G37*
G36*
X131072812Y-75587624D02*
X131236784Y-75655544D01*
X131384354Y-75754147D01*
X131509853Y-75879646D01*
X131608456Y-76027216D01*
X131676376Y-76191188D01*
X131711000Y-76365259D01*
X131711000Y-76542741D01*
X131676376Y-76716812D01*
X131608456Y-76880784D01*
X131509853Y-77028354D01*
X131384354Y-77153853D01*
X131236784Y-77252456D01*
X131072812Y-77320376D01*
X130898741Y-77355000D01*
X130721259Y-77355000D01*
X130547188Y-77320376D01*
X130383216Y-77252456D01*
X130235646Y-77153853D01*
X130110147Y-77028354D01*
X130011544Y-76880784D01*
X129943624Y-76716812D01*
X129909000Y-76542741D01*
X129909000Y-76365259D01*
X129943624Y-76191188D01*
X130011544Y-76027216D01*
X130110147Y-75879646D01*
X130235646Y-75754147D01*
X130383216Y-75655544D01*
X130547188Y-75587624D01*
X130721259Y-75553000D01*
X130898741Y-75553000D01*
X131072812Y-75587624D01*
X131072812Y-75587624D01*
G37*
G36*
X123452812Y-75587624D02*
X123616784Y-75655544D01*
X123764354Y-75754147D01*
X123889853Y-75879646D01*
X123988456Y-76027216D01*
X124056376Y-76191188D01*
X124091000Y-76365259D01*
X124091000Y-76542741D01*
X124056376Y-76716812D01*
X123988456Y-76880784D01*
X123889853Y-77028354D01*
X123764354Y-77153853D01*
X123616784Y-77252456D01*
X123452812Y-77320376D01*
X123278741Y-77355000D01*
X123101259Y-77355000D01*
X122927188Y-77320376D01*
X122763216Y-77252456D01*
X122615646Y-77153853D01*
X122490147Y-77028354D01*
X122391544Y-76880784D01*
X122323624Y-76716812D01*
X122289000Y-76542741D01*
X122289000Y-76365259D01*
X122323624Y-76191188D01*
X122391544Y-76027216D01*
X122490147Y-75879646D01*
X122615646Y-75754147D01*
X122763216Y-75655544D01*
X122927188Y-75587624D01*
X123101259Y-75553000D01*
X123278741Y-75553000D01*
X123452812Y-75587624D01*
X123452812Y-75587624D01*
G37*
G36*
X128532812Y-75587624D02*
X128696784Y-75655544D01*
X128844354Y-75754147D01*
X128969853Y-75879646D01*
X129068456Y-76027216D01*
X129136376Y-76191188D01*
X129171000Y-76365259D01*
X129171000Y-76542741D01*
X129136376Y-76716812D01*
X129068456Y-76880784D01*
X128969853Y-77028354D01*
X128844354Y-77153853D01*
X128696784Y-77252456D01*
X128532812Y-77320376D01*
X128358741Y-77355000D01*
X128181259Y-77355000D01*
X128007188Y-77320376D01*
X127843216Y-77252456D01*
X127695646Y-77153853D01*
X127570147Y-77028354D01*
X127471544Y-76880784D01*
X127403624Y-76716812D01*
X127369000Y-76542741D01*
X127369000Y-76365259D01*
X127403624Y-76191188D01*
X127471544Y-76027216D01*
X127570147Y-75879646D01*
X127695646Y-75754147D01*
X127843216Y-75655544D01*
X128007188Y-75587624D01*
X128181259Y-75553000D01*
X128358741Y-75553000D01*
X128532812Y-75587624D01*
X128532812Y-75587624D01*
G37*
M02*
