G04 #@! TF.GenerationSoftware,KiCad,Pcbnew,(5.0.0)*
G04 #@! TF.CreationDate,2019-09-27T20:42:56-05:00*
G04 #@! TF.ProjectId,RaspberryPiBreakout_Hardware,5261737062657272795069427265616B,rev?*
G04 #@! TF.SameCoordinates,Original*
G04 #@! TF.FileFunction,Soldermask,Bot*
G04 #@! TF.FilePolarity,Negative*
%FSLAX46Y46*%
G04 Gerber Fmt 4.6, Leading zero omitted, Abs format (unit mm)*
G04 Created by KiCad (PCBNEW (5.0.0)) date 09/27/19 20:42:56*
%MOMM*%
%LPD*%
G01*
G04 APERTURE LIST*
%ADD10C,0.100000*%
G04 APERTURE END LIST*
D10*
G36*
X176672527Y-125212736D02*
X176772410Y-125232604D01*
X177054674Y-125349521D01*
X177308705Y-125519259D01*
X177524741Y-125735295D01*
X177694479Y-125989326D01*
X177811396Y-126271590D01*
X177871000Y-126571240D01*
X177871000Y-126876760D01*
X177811396Y-127176410D01*
X177694479Y-127458674D01*
X177524741Y-127712705D01*
X177308705Y-127928741D01*
X177054674Y-128098479D01*
X176772410Y-128215396D01*
X176672527Y-128235264D01*
X176472762Y-128275000D01*
X176167238Y-128275000D01*
X175967473Y-128235264D01*
X175867590Y-128215396D01*
X175585326Y-128098479D01*
X175331295Y-127928741D01*
X175115259Y-127712705D01*
X174945521Y-127458674D01*
X174828604Y-127176410D01*
X174769000Y-126876760D01*
X174769000Y-126571240D01*
X174828604Y-126271590D01*
X174945521Y-125989326D01*
X175115259Y-125735295D01*
X175331295Y-125519259D01*
X175585326Y-125349521D01*
X175867590Y-125232604D01*
X175967473Y-125212736D01*
X176167238Y-125173000D01*
X176472762Y-125173000D01*
X176672527Y-125212736D01*
X176672527Y-125212736D01*
G37*
G36*
X118672527Y-125212736D02*
X118772410Y-125232604D01*
X119054674Y-125349521D01*
X119308705Y-125519259D01*
X119524741Y-125735295D01*
X119694479Y-125989326D01*
X119811396Y-126271590D01*
X119871000Y-126571240D01*
X119871000Y-126876760D01*
X119811396Y-127176410D01*
X119694479Y-127458674D01*
X119524741Y-127712705D01*
X119308705Y-127928741D01*
X119054674Y-128098479D01*
X118772410Y-128215396D01*
X118672527Y-128235264D01*
X118472762Y-128275000D01*
X118167238Y-128275000D01*
X117967473Y-128235264D01*
X117867590Y-128215396D01*
X117585326Y-128098479D01*
X117331295Y-127928741D01*
X117115259Y-127712705D01*
X116945521Y-127458674D01*
X116828604Y-127176410D01*
X116769000Y-126876760D01*
X116769000Y-126571240D01*
X116828604Y-126271590D01*
X116945521Y-125989326D01*
X117115259Y-125735295D01*
X117331295Y-125519259D01*
X117585326Y-125349521D01*
X117867590Y-125232604D01*
X117967473Y-125212736D01*
X118167238Y-125173000D01*
X118472762Y-125173000D01*
X118672527Y-125212736D01*
X118672527Y-125212736D01*
G37*
G36*
X78242037Y-120212250D02*
X78242039Y-120212251D01*
X78242040Y-120212251D01*
X78565251Y-120346129D01*
X78565252Y-120346130D01*
X78856137Y-120540493D01*
X79103507Y-120787863D01*
X79103509Y-120787866D01*
X79297871Y-121078749D01*
X79418705Y-121370470D01*
X79431750Y-121401963D01*
X79443891Y-121463000D01*
X79500000Y-121745079D01*
X79500000Y-122094921D01*
X79431749Y-122438040D01*
X79297871Y-122761251D01*
X79297870Y-122761252D01*
X79103507Y-123052137D01*
X78856137Y-123299507D01*
X78856134Y-123299509D01*
X78565251Y-123493871D01*
X78242040Y-123627749D01*
X78242039Y-123627749D01*
X78242037Y-123627750D01*
X77898922Y-123696000D01*
X77549078Y-123696000D01*
X77205963Y-123627750D01*
X77205961Y-123627749D01*
X77205960Y-123627749D01*
X76882749Y-123493871D01*
X76591866Y-123299509D01*
X76591863Y-123299507D01*
X76344493Y-123052137D01*
X76150130Y-122761252D01*
X76150129Y-122761251D01*
X76016251Y-122438040D01*
X75948000Y-122094921D01*
X75948000Y-121745079D01*
X76004109Y-121463000D01*
X76016250Y-121401963D01*
X76029295Y-121370470D01*
X76150129Y-121078749D01*
X76344491Y-120787866D01*
X76344493Y-120787863D01*
X76591863Y-120540493D01*
X76882748Y-120346130D01*
X76882749Y-120346129D01*
X77205960Y-120212251D01*
X77205961Y-120212251D01*
X77205963Y-120212250D01*
X77549078Y-120144000D01*
X77898922Y-120144000D01*
X78242037Y-120212250D01*
X78242037Y-120212250D01*
G37*
G36*
X86597142Y-119868242D02*
X86745102Y-119929530D01*
X86878258Y-120018502D01*
X86991498Y-120131742D01*
X87080470Y-120264898D01*
X87141758Y-120412858D01*
X87173000Y-120569925D01*
X87173000Y-120730075D01*
X87141758Y-120887142D01*
X87080470Y-121035102D01*
X86991498Y-121168258D01*
X86878258Y-121281498D01*
X86745102Y-121370470D01*
X86597142Y-121431758D01*
X86440075Y-121463000D01*
X86279925Y-121463000D01*
X86122858Y-121431758D01*
X85974898Y-121370470D01*
X85841742Y-121281498D01*
X85728502Y-121168258D01*
X85639530Y-121035102D01*
X85578242Y-120887142D01*
X85547000Y-120730075D01*
X85547000Y-120569925D01*
X85578242Y-120412858D01*
X85639530Y-120264898D01*
X85728502Y-120131742D01*
X85841742Y-120018502D01*
X85974898Y-119929530D01*
X86122858Y-119868242D01*
X86279925Y-119837000D01*
X86440075Y-119837000D01*
X86597142Y-119868242D01*
X86597142Y-119868242D01*
G37*
G36*
X86597142Y-117328242D02*
X86745102Y-117389530D01*
X86878258Y-117478502D01*
X86991498Y-117591742D01*
X87080470Y-117724898D01*
X87141758Y-117872858D01*
X87173000Y-118029925D01*
X87173000Y-118190075D01*
X87141758Y-118347142D01*
X87080470Y-118495102D01*
X86991498Y-118628258D01*
X86878258Y-118741498D01*
X86745102Y-118830470D01*
X86597142Y-118891758D01*
X86440075Y-118923000D01*
X86279925Y-118923000D01*
X86122858Y-118891758D01*
X85974898Y-118830470D01*
X85841742Y-118741498D01*
X85728502Y-118628258D01*
X85639530Y-118495102D01*
X85578242Y-118347142D01*
X85547000Y-118190075D01*
X85547000Y-118029925D01*
X85578242Y-117872858D01*
X85639530Y-117724898D01*
X85728502Y-117591742D01*
X85841742Y-117478502D01*
X85974898Y-117389530D01*
X86122858Y-117328242D01*
X86279925Y-117297000D01*
X86440075Y-117297000D01*
X86597142Y-117328242D01*
X86597142Y-117328242D01*
G37*
G36*
X86597142Y-114788242D02*
X86745102Y-114849530D01*
X86878258Y-114938502D01*
X86991498Y-115051742D01*
X87080470Y-115184898D01*
X87141758Y-115332858D01*
X87173000Y-115489925D01*
X87173000Y-115650075D01*
X87141758Y-115807142D01*
X87080470Y-115955102D01*
X86991498Y-116088258D01*
X86878258Y-116201498D01*
X86745102Y-116290470D01*
X86597142Y-116351758D01*
X86440075Y-116383000D01*
X86279925Y-116383000D01*
X86122858Y-116351758D01*
X85974898Y-116290470D01*
X85841742Y-116201498D01*
X85728502Y-116088258D01*
X85639530Y-115955102D01*
X85578242Y-115807142D01*
X85547000Y-115650075D01*
X85547000Y-115489925D01*
X85578242Y-115332858D01*
X85639530Y-115184898D01*
X85728502Y-115051742D01*
X85841742Y-114938502D01*
X85974898Y-114849530D01*
X86122858Y-114788242D01*
X86279925Y-114757000D01*
X86440075Y-114757000D01*
X86597142Y-114788242D01*
X86597142Y-114788242D01*
G37*
G36*
X78242037Y-112592250D02*
X78242039Y-112592251D01*
X78242040Y-112592251D01*
X78565251Y-112726129D01*
X78565252Y-112726130D01*
X78856137Y-112920493D01*
X79103507Y-113167863D01*
X79103509Y-113167866D01*
X79297871Y-113458749D01*
X79431749Y-113781960D01*
X79431750Y-113781963D01*
X79500000Y-114125078D01*
X79500000Y-114474922D01*
X79437677Y-114788242D01*
X79431749Y-114818040D01*
X79297871Y-115141251D01*
X79169844Y-115332857D01*
X79103507Y-115432137D01*
X78856137Y-115679507D01*
X78856134Y-115679509D01*
X78565251Y-115873871D01*
X78242040Y-116007749D01*
X78242039Y-116007749D01*
X78242037Y-116007750D01*
X77898922Y-116076000D01*
X77549078Y-116076000D01*
X77205963Y-116007750D01*
X77205961Y-116007749D01*
X77205960Y-116007749D01*
X76882749Y-115873871D01*
X76591866Y-115679509D01*
X76591863Y-115679507D01*
X76344493Y-115432137D01*
X76278156Y-115332857D01*
X76150129Y-115141251D01*
X76016251Y-114818040D01*
X76010324Y-114788242D01*
X75948000Y-114474922D01*
X75948000Y-114125078D01*
X76016250Y-113781963D01*
X76016251Y-113781960D01*
X76150129Y-113458749D01*
X76344491Y-113167866D01*
X76344493Y-113167863D01*
X76591863Y-112920493D01*
X76882748Y-112726130D01*
X76882749Y-112726129D01*
X77205960Y-112592251D01*
X77205961Y-112592251D01*
X77205963Y-112592250D01*
X77549078Y-112524000D01*
X77898922Y-112524000D01*
X78242037Y-112592250D01*
X78242037Y-112592250D01*
G37*
G36*
X78242037Y-106242250D02*
X78242039Y-106242251D01*
X78242040Y-106242251D01*
X78565251Y-106376129D01*
X78565252Y-106376130D01*
X78856137Y-106570493D01*
X79103507Y-106817863D01*
X79103509Y-106817866D01*
X79297871Y-107108749D01*
X79418705Y-107400470D01*
X79431750Y-107431963D01*
X79443891Y-107493000D01*
X79500000Y-107775079D01*
X79500000Y-108124921D01*
X79431749Y-108468040D01*
X79297871Y-108791251D01*
X79297870Y-108791252D01*
X79103507Y-109082137D01*
X78856137Y-109329507D01*
X78856134Y-109329509D01*
X78565251Y-109523871D01*
X78242040Y-109657749D01*
X78242039Y-109657749D01*
X78242037Y-109657750D01*
X77898922Y-109726000D01*
X77549078Y-109726000D01*
X77205963Y-109657750D01*
X77205961Y-109657749D01*
X77205960Y-109657749D01*
X76882749Y-109523871D01*
X76591866Y-109329509D01*
X76591863Y-109329507D01*
X76344493Y-109082137D01*
X76150130Y-108791252D01*
X76150129Y-108791251D01*
X76016251Y-108468040D01*
X75948000Y-108124921D01*
X75948000Y-107775079D01*
X76004109Y-107493000D01*
X76016250Y-107431963D01*
X76029295Y-107400470D01*
X76150129Y-107108749D01*
X76344491Y-106817866D01*
X76344493Y-106817863D01*
X76591863Y-106570493D01*
X76882748Y-106376130D01*
X76882749Y-106376129D01*
X77205960Y-106242251D01*
X77205961Y-106242251D01*
X77205963Y-106242250D01*
X77549078Y-106174000D01*
X77898922Y-106174000D01*
X78242037Y-106242250D01*
X78242037Y-106242250D01*
G37*
G36*
X86597142Y-105898242D02*
X86745102Y-105959530D01*
X86878258Y-106048502D01*
X86991498Y-106161742D01*
X87080470Y-106294898D01*
X87141758Y-106442858D01*
X87173000Y-106599925D01*
X87173000Y-106760075D01*
X87141758Y-106917142D01*
X87080470Y-107065102D01*
X86991498Y-107198258D01*
X86878258Y-107311498D01*
X86745102Y-107400470D01*
X86597142Y-107461758D01*
X86440075Y-107493000D01*
X86279925Y-107493000D01*
X86122858Y-107461758D01*
X85974898Y-107400470D01*
X85841742Y-107311498D01*
X85728502Y-107198258D01*
X85639530Y-107065102D01*
X85578242Y-106917142D01*
X85547000Y-106760075D01*
X85547000Y-106599925D01*
X85578242Y-106442858D01*
X85639530Y-106294898D01*
X85728502Y-106161742D01*
X85841742Y-106048502D01*
X85974898Y-105959530D01*
X86122858Y-105898242D01*
X86279925Y-105867000D01*
X86440075Y-105867000D01*
X86597142Y-105898242D01*
X86597142Y-105898242D01*
G37*
G36*
X86597142Y-103358242D02*
X86745102Y-103419530D01*
X86812130Y-103464317D01*
X86878257Y-103508501D01*
X86991499Y-103621743D01*
X87011554Y-103651758D01*
X87080470Y-103754898D01*
X87141758Y-103902858D01*
X87173000Y-104059925D01*
X87173000Y-104220075D01*
X87141758Y-104377142D01*
X87080470Y-104525102D01*
X86991498Y-104658258D01*
X86878258Y-104771498D01*
X86745102Y-104860470D01*
X86597142Y-104921758D01*
X86440075Y-104953000D01*
X86279925Y-104953000D01*
X86122858Y-104921758D01*
X85974898Y-104860470D01*
X85841742Y-104771498D01*
X85728502Y-104658258D01*
X85639530Y-104525102D01*
X85578242Y-104377142D01*
X85547000Y-104220075D01*
X85547000Y-104059925D01*
X85578242Y-103902858D01*
X85639530Y-103754898D01*
X85708446Y-103651758D01*
X85728501Y-103621743D01*
X85841743Y-103508501D01*
X85907870Y-103464317D01*
X85974898Y-103419530D01*
X86122858Y-103358242D01*
X86279925Y-103327000D01*
X86440075Y-103327000D01*
X86597142Y-103358242D01*
X86597142Y-103358242D01*
G37*
G36*
X112632142Y-102088242D02*
X112780102Y-102149530D01*
X112847130Y-102194317D01*
X112913257Y-102238501D01*
X113026499Y-102351743D01*
X113046554Y-102381758D01*
X113115470Y-102484898D01*
X113176758Y-102632858D01*
X113208000Y-102789925D01*
X113208000Y-102950075D01*
X113176758Y-103107142D01*
X113129354Y-103221583D01*
X113115471Y-103255100D01*
X113026499Y-103388257D01*
X112913257Y-103501499D01*
X112902776Y-103508502D01*
X112780102Y-103590470D01*
X112632142Y-103651758D01*
X112475075Y-103683000D01*
X112314925Y-103683000D01*
X112157858Y-103651758D01*
X112009898Y-103590470D01*
X111887224Y-103508502D01*
X111876743Y-103501499D01*
X111763501Y-103388257D01*
X111674529Y-103255100D01*
X111660646Y-103221583D01*
X111613242Y-103107142D01*
X111582000Y-102950075D01*
X111582000Y-102789925D01*
X111613242Y-102632858D01*
X111674530Y-102484898D01*
X111743446Y-102381758D01*
X111763501Y-102351743D01*
X111876743Y-102238501D01*
X111942870Y-102194317D01*
X112009898Y-102149530D01*
X112157858Y-102088242D01*
X112314925Y-102057000D01*
X112475075Y-102057000D01*
X112632142Y-102088242D01*
X112632142Y-102088242D01*
G37*
G36*
X107552142Y-102088242D02*
X107700102Y-102149530D01*
X107767130Y-102194317D01*
X107833257Y-102238501D01*
X107946499Y-102351743D01*
X107966554Y-102381758D01*
X108035470Y-102484898D01*
X108096758Y-102632858D01*
X108128000Y-102789925D01*
X108128000Y-102950075D01*
X108096758Y-103107142D01*
X108049354Y-103221583D01*
X108035471Y-103255100D01*
X107946499Y-103388257D01*
X107833257Y-103501499D01*
X107822776Y-103508502D01*
X107700102Y-103590470D01*
X107552142Y-103651758D01*
X107395075Y-103683000D01*
X107234925Y-103683000D01*
X107077858Y-103651758D01*
X106929898Y-103590470D01*
X106807224Y-103508502D01*
X106796743Y-103501499D01*
X106683501Y-103388257D01*
X106594529Y-103255100D01*
X106580646Y-103221583D01*
X106533242Y-103107142D01*
X106502000Y-102950075D01*
X106502000Y-102789925D01*
X106533242Y-102632858D01*
X106594530Y-102484898D01*
X106663446Y-102381758D01*
X106683501Y-102351743D01*
X106796743Y-102238501D01*
X106862870Y-102194317D01*
X106929898Y-102149530D01*
X107077858Y-102088242D01*
X107234925Y-102057000D01*
X107395075Y-102057000D01*
X107552142Y-102088242D01*
X107552142Y-102088242D01*
G37*
G36*
X110092142Y-102088242D02*
X110240102Y-102149530D01*
X110307130Y-102194317D01*
X110373257Y-102238501D01*
X110486499Y-102351743D01*
X110506554Y-102381758D01*
X110575470Y-102484898D01*
X110636758Y-102632858D01*
X110668000Y-102789925D01*
X110668000Y-102950075D01*
X110636758Y-103107142D01*
X110589354Y-103221583D01*
X110575471Y-103255100D01*
X110486499Y-103388257D01*
X110373257Y-103501499D01*
X110362776Y-103508502D01*
X110240102Y-103590470D01*
X110092142Y-103651758D01*
X109935075Y-103683000D01*
X109774925Y-103683000D01*
X109617858Y-103651758D01*
X109469898Y-103590470D01*
X109347224Y-103508502D01*
X109336743Y-103501499D01*
X109223501Y-103388257D01*
X109134529Y-103255100D01*
X109120646Y-103221583D01*
X109073242Y-103107142D01*
X109042000Y-102950075D01*
X109042000Y-102789925D01*
X109073242Y-102632858D01*
X109134530Y-102484898D01*
X109203446Y-102381758D01*
X109223501Y-102351743D01*
X109336743Y-102238501D01*
X109402870Y-102194317D01*
X109469898Y-102149530D01*
X109617858Y-102088242D01*
X109774925Y-102057000D01*
X109935075Y-102057000D01*
X110092142Y-102088242D01*
X110092142Y-102088242D01*
G37*
G36*
X86597142Y-100818242D02*
X86745102Y-100879530D01*
X86878258Y-100968502D01*
X86991498Y-101081742D01*
X87080470Y-101214898D01*
X87141758Y-101362858D01*
X87173000Y-101519925D01*
X87173000Y-101680075D01*
X87141758Y-101837142D01*
X87094354Y-101951583D01*
X87080471Y-101985100D01*
X86991499Y-102118257D01*
X86878257Y-102231499D01*
X86867776Y-102238502D01*
X86745102Y-102320470D01*
X86597142Y-102381758D01*
X86440075Y-102413000D01*
X86279925Y-102413000D01*
X86122858Y-102381758D01*
X85974898Y-102320470D01*
X85852224Y-102238502D01*
X85841743Y-102231499D01*
X85728501Y-102118257D01*
X85639529Y-101985100D01*
X85625646Y-101951583D01*
X85578242Y-101837142D01*
X85547000Y-101680075D01*
X85547000Y-101519925D01*
X85578242Y-101362858D01*
X85639530Y-101214898D01*
X85728502Y-101081742D01*
X85841742Y-100968502D01*
X85974898Y-100879530D01*
X86122858Y-100818242D01*
X86279925Y-100787000D01*
X86440075Y-100787000D01*
X86597142Y-100818242D01*
X86597142Y-100818242D01*
G37*
G36*
X86597142Y-98278242D02*
X86745102Y-98339530D01*
X86878258Y-98428502D01*
X86991498Y-98541742D01*
X87080470Y-98674898D01*
X87141758Y-98822858D01*
X87173000Y-98979925D01*
X87173000Y-99140075D01*
X87141758Y-99297142D01*
X87080470Y-99445102D01*
X86991498Y-99578258D01*
X86878258Y-99691498D01*
X86745102Y-99780470D01*
X86597142Y-99841758D01*
X86440075Y-99873000D01*
X86279925Y-99873000D01*
X86122858Y-99841758D01*
X85974898Y-99780470D01*
X85841742Y-99691498D01*
X85728502Y-99578258D01*
X85639530Y-99445102D01*
X85578242Y-99297142D01*
X85547000Y-99140075D01*
X85547000Y-98979925D01*
X85578242Y-98822858D01*
X85639530Y-98674898D01*
X85728502Y-98541742D01*
X85841742Y-98428502D01*
X85974898Y-98339530D01*
X86122858Y-98278242D01*
X86279925Y-98247000D01*
X86440075Y-98247000D01*
X86597142Y-98278242D01*
X86597142Y-98278242D01*
G37*
G36*
X78242037Y-96082250D02*
X78242039Y-96082251D01*
X78242040Y-96082251D01*
X78565251Y-96216129D01*
X78565252Y-96216130D01*
X78856137Y-96410493D01*
X79103507Y-96657863D01*
X79103509Y-96657866D01*
X79297871Y-96948749D01*
X79431749Y-97271960D01*
X79431750Y-97271963D01*
X79500000Y-97615078D01*
X79500000Y-97964922D01*
X79437677Y-98278242D01*
X79431749Y-98308040D01*
X79297871Y-98631251D01*
X79169844Y-98822857D01*
X79103507Y-98922137D01*
X78856137Y-99169507D01*
X78856134Y-99169509D01*
X78565251Y-99363871D01*
X78242040Y-99497749D01*
X78242039Y-99497749D01*
X78242037Y-99497750D01*
X77898922Y-99566000D01*
X77549078Y-99566000D01*
X77205963Y-99497750D01*
X77205961Y-99497749D01*
X77205960Y-99497749D01*
X76882749Y-99363871D01*
X76591866Y-99169509D01*
X76591863Y-99169507D01*
X76344493Y-98922137D01*
X76278156Y-98822857D01*
X76150129Y-98631251D01*
X76016251Y-98308040D01*
X76010324Y-98278242D01*
X75948000Y-97964922D01*
X75948000Y-97615078D01*
X76016250Y-97271963D01*
X76016251Y-97271960D01*
X76150129Y-96948749D01*
X76344491Y-96657866D01*
X76344493Y-96657863D01*
X76591863Y-96410493D01*
X76882748Y-96216130D01*
X76882749Y-96216129D01*
X77205960Y-96082251D01*
X77205961Y-96082251D01*
X77205963Y-96082250D01*
X77549078Y-96014000D01*
X77898922Y-96014000D01*
X78242037Y-96082250D01*
X78242037Y-96082250D01*
G37*
G36*
X86948908Y-86375380D02*
X87115767Y-86408570D01*
X87587299Y-86603885D01*
X88008803Y-86885526D01*
X88011669Y-86887441D01*
X88372559Y-87248331D01*
X88372561Y-87248334D01*
X88656115Y-87672701D01*
X88851430Y-88144233D01*
X88951000Y-88644809D01*
X88951000Y-89155191D01*
X88851430Y-89655767D01*
X88656115Y-90127299D01*
X88374474Y-90548803D01*
X88372559Y-90551669D01*
X88011669Y-90912559D01*
X88011666Y-90912561D01*
X87587299Y-91196115D01*
X87115767Y-91391430D01*
X86948908Y-91424620D01*
X86615193Y-91491000D01*
X86104807Y-91491000D01*
X85771092Y-91424620D01*
X85604233Y-91391430D01*
X85132701Y-91196115D01*
X84708334Y-90912561D01*
X84708331Y-90912559D01*
X84347441Y-90551669D01*
X84345526Y-90548803D01*
X84063885Y-90127299D01*
X83868570Y-89655767D01*
X83769000Y-89155191D01*
X83769000Y-88644809D01*
X83868570Y-88144233D01*
X84063885Y-87672701D01*
X84347439Y-87248334D01*
X84347441Y-87248331D01*
X84708331Y-86887441D01*
X84711197Y-86885526D01*
X85132701Y-86603885D01*
X85604233Y-86408570D01*
X85771092Y-86375380D01*
X86104807Y-86309000D01*
X86615193Y-86309000D01*
X86948908Y-86375380D01*
X86948908Y-86375380D01*
G37*
G36*
X86948908Y-78501380D02*
X87115767Y-78534570D01*
X87587299Y-78729885D01*
X87884902Y-78928738D01*
X88011669Y-79013441D01*
X88372559Y-79374331D01*
X88372561Y-79374334D01*
X88656115Y-79798701D01*
X88851430Y-80270233D01*
X88951000Y-80770809D01*
X88951000Y-81281191D01*
X88851430Y-81781767D01*
X88656115Y-82253299D01*
X88374474Y-82674803D01*
X88372559Y-82677669D01*
X88011669Y-83038559D01*
X88011666Y-83038561D01*
X87587299Y-83322115D01*
X87115767Y-83517430D01*
X86948908Y-83550620D01*
X86615193Y-83617000D01*
X86104807Y-83617000D01*
X85771092Y-83550620D01*
X85604233Y-83517430D01*
X85132701Y-83322115D01*
X84708334Y-83038561D01*
X84708331Y-83038559D01*
X84347441Y-82677669D01*
X84345526Y-82674803D01*
X84063885Y-82253299D01*
X83868570Y-81781767D01*
X83769000Y-81281191D01*
X83769000Y-80770809D01*
X83868570Y-80270233D01*
X84063885Y-79798701D01*
X84347439Y-79374334D01*
X84347441Y-79374331D01*
X84708331Y-79013441D01*
X84835098Y-78928738D01*
X85132701Y-78729885D01*
X85604233Y-78534570D01*
X85771092Y-78501380D01*
X86104807Y-78435000D01*
X86615193Y-78435000D01*
X86948908Y-78501380D01*
X86948908Y-78501380D01*
G37*
G36*
X123452812Y-78127624D02*
X123616784Y-78195544D01*
X123764354Y-78294147D01*
X123889853Y-78419646D01*
X123988456Y-78567216D01*
X124056376Y-78731188D01*
X124091000Y-78905259D01*
X124091000Y-79082741D01*
X124056376Y-79256812D01*
X123988456Y-79420784D01*
X123889853Y-79568354D01*
X123764354Y-79693853D01*
X123616784Y-79792456D01*
X123452812Y-79860376D01*
X123278741Y-79895000D01*
X123101259Y-79895000D01*
X122927188Y-79860376D01*
X122763216Y-79792456D01*
X122615646Y-79693853D01*
X122490147Y-79568354D01*
X122391544Y-79420784D01*
X122323624Y-79256812D01*
X122289000Y-79082741D01*
X122289000Y-78905259D01*
X122323624Y-78731188D01*
X122391544Y-78567216D01*
X122490147Y-78419646D01*
X122615646Y-78294147D01*
X122763216Y-78195544D01*
X122927188Y-78127624D01*
X123101259Y-78093000D01*
X123278741Y-78093000D01*
X123452812Y-78127624D01*
X123452812Y-78127624D01*
G37*
G36*
X143772812Y-78127624D02*
X143936784Y-78195544D01*
X144084354Y-78294147D01*
X144209853Y-78419646D01*
X144308456Y-78567216D01*
X144376376Y-78731188D01*
X144411000Y-78905259D01*
X144411000Y-79082741D01*
X144376376Y-79256812D01*
X144308456Y-79420784D01*
X144209853Y-79568354D01*
X144084354Y-79693853D01*
X143936784Y-79792456D01*
X143772812Y-79860376D01*
X143598741Y-79895000D01*
X143421259Y-79895000D01*
X143247188Y-79860376D01*
X143083216Y-79792456D01*
X142935646Y-79693853D01*
X142810147Y-79568354D01*
X142711544Y-79420784D01*
X142643624Y-79256812D01*
X142609000Y-79082741D01*
X142609000Y-78905259D01*
X142643624Y-78731188D01*
X142711544Y-78567216D01*
X142810147Y-78419646D01*
X142935646Y-78294147D01*
X143083216Y-78195544D01*
X143247188Y-78127624D01*
X143421259Y-78093000D01*
X143598741Y-78093000D01*
X143772812Y-78127624D01*
X143772812Y-78127624D01*
G37*
G36*
X138692812Y-78127624D02*
X138856784Y-78195544D01*
X139004354Y-78294147D01*
X139129853Y-78419646D01*
X139228456Y-78567216D01*
X139296376Y-78731188D01*
X139331000Y-78905259D01*
X139331000Y-79082741D01*
X139296376Y-79256812D01*
X139228456Y-79420784D01*
X139129853Y-79568354D01*
X139004354Y-79693853D01*
X138856784Y-79792456D01*
X138692812Y-79860376D01*
X138518741Y-79895000D01*
X138341259Y-79895000D01*
X138167188Y-79860376D01*
X138003216Y-79792456D01*
X137855646Y-79693853D01*
X137730147Y-79568354D01*
X137631544Y-79420784D01*
X137563624Y-79256812D01*
X137529000Y-79082741D01*
X137529000Y-78905259D01*
X137563624Y-78731188D01*
X137631544Y-78567216D01*
X137730147Y-78419646D01*
X137855646Y-78294147D01*
X138003216Y-78195544D01*
X138167188Y-78127624D01*
X138341259Y-78093000D01*
X138518741Y-78093000D01*
X138692812Y-78127624D01*
X138692812Y-78127624D01*
G37*
G36*
X171712812Y-78127624D02*
X171876784Y-78195544D01*
X172024354Y-78294147D01*
X172149853Y-78419646D01*
X172248456Y-78567216D01*
X172316376Y-78731188D01*
X172351000Y-78905259D01*
X172351000Y-79082741D01*
X172316376Y-79256812D01*
X172248456Y-79420784D01*
X172149853Y-79568354D01*
X172024354Y-79693853D01*
X171876784Y-79792456D01*
X171712812Y-79860376D01*
X171538741Y-79895000D01*
X171361259Y-79895000D01*
X171187188Y-79860376D01*
X171023216Y-79792456D01*
X170875646Y-79693853D01*
X170750147Y-79568354D01*
X170651544Y-79420784D01*
X170583624Y-79256812D01*
X170549000Y-79082741D01*
X170549000Y-78905259D01*
X170583624Y-78731188D01*
X170651544Y-78567216D01*
X170750147Y-78419646D01*
X170875646Y-78294147D01*
X171023216Y-78195544D01*
X171187188Y-78127624D01*
X171361259Y-78093000D01*
X171538741Y-78093000D01*
X171712812Y-78127624D01*
X171712812Y-78127624D01*
G37*
G36*
X136152812Y-78127624D02*
X136316784Y-78195544D01*
X136464354Y-78294147D01*
X136589853Y-78419646D01*
X136688456Y-78567216D01*
X136756376Y-78731188D01*
X136791000Y-78905259D01*
X136791000Y-79082741D01*
X136756376Y-79256812D01*
X136688456Y-79420784D01*
X136589853Y-79568354D01*
X136464354Y-79693853D01*
X136316784Y-79792456D01*
X136152812Y-79860376D01*
X135978741Y-79895000D01*
X135801259Y-79895000D01*
X135627188Y-79860376D01*
X135463216Y-79792456D01*
X135315646Y-79693853D01*
X135190147Y-79568354D01*
X135091544Y-79420784D01*
X135023624Y-79256812D01*
X134989000Y-79082741D01*
X134989000Y-78905259D01*
X135023624Y-78731188D01*
X135091544Y-78567216D01*
X135190147Y-78419646D01*
X135315646Y-78294147D01*
X135463216Y-78195544D01*
X135627188Y-78127624D01*
X135801259Y-78093000D01*
X135978741Y-78093000D01*
X136152812Y-78127624D01*
X136152812Y-78127624D01*
G37*
G36*
X133612812Y-78127624D02*
X133776784Y-78195544D01*
X133924354Y-78294147D01*
X134049853Y-78419646D01*
X134148456Y-78567216D01*
X134216376Y-78731188D01*
X134251000Y-78905259D01*
X134251000Y-79082741D01*
X134216376Y-79256812D01*
X134148456Y-79420784D01*
X134049853Y-79568354D01*
X133924354Y-79693853D01*
X133776784Y-79792456D01*
X133612812Y-79860376D01*
X133438741Y-79895000D01*
X133261259Y-79895000D01*
X133087188Y-79860376D01*
X132923216Y-79792456D01*
X132775646Y-79693853D01*
X132650147Y-79568354D01*
X132551544Y-79420784D01*
X132483624Y-79256812D01*
X132449000Y-79082741D01*
X132449000Y-78905259D01*
X132483624Y-78731188D01*
X132551544Y-78567216D01*
X132650147Y-78419646D01*
X132775646Y-78294147D01*
X132923216Y-78195544D01*
X133087188Y-78127624D01*
X133261259Y-78093000D01*
X133438741Y-78093000D01*
X133612812Y-78127624D01*
X133612812Y-78127624D01*
G37*
G36*
X131072812Y-78127624D02*
X131236784Y-78195544D01*
X131384354Y-78294147D01*
X131509853Y-78419646D01*
X131608456Y-78567216D01*
X131676376Y-78731188D01*
X131711000Y-78905259D01*
X131711000Y-79082741D01*
X131676376Y-79256812D01*
X131608456Y-79420784D01*
X131509853Y-79568354D01*
X131384354Y-79693853D01*
X131236784Y-79792456D01*
X131072812Y-79860376D01*
X130898741Y-79895000D01*
X130721259Y-79895000D01*
X130547188Y-79860376D01*
X130383216Y-79792456D01*
X130235646Y-79693853D01*
X130110147Y-79568354D01*
X130011544Y-79420784D01*
X129943624Y-79256812D01*
X129909000Y-79082741D01*
X129909000Y-78905259D01*
X129943624Y-78731188D01*
X130011544Y-78567216D01*
X130110147Y-78419646D01*
X130235646Y-78294147D01*
X130383216Y-78195544D01*
X130547188Y-78127624D01*
X130721259Y-78093000D01*
X130898741Y-78093000D01*
X131072812Y-78127624D01*
X131072812Y-78127624D01*
G37*
G36*
X146312812Y-78127624D02*
X146476784Y-78195544D01*
X146624354Y-78294147D01*
X146749853Y-78419646D01*
X146848456Y-78567216D01*
X146916376Y-78731188D01*
X146951000Y-78905259D01*
X146951000Y-79082741D01*
X146916376Y-79256812D01*
X146848456Y-79420784D01*
X146749853Y-79568354D01*
X146624354Y-79693853D01*
X146476784Y-79792456D01*
X146312812Y-79860376D01*
X146138741Y-79895000D01*
X145961259Y-79895000D01*
X145787188Y-79860376D01*
X145623216Y-79792456D01*
X145475646Y-79693853D01*
X145350147Y-79568354D01*
X145251544Y-79420784D01*
X145183624Y-79256812D01*
X145149000Y-79082741D01*
X145149000Y-78905259D01*
X145183624Y-78731188D01*
X145251544Y-78567216D01*
X145350147Y-78419646D01*
X145475646Y-78294147D01*
X145623216Y-78195544D01*
X145787188Y-78127624D01*
X145961259Y-78093000D01*
X146138741Y-78093000D01*
X146312812Y-78127624D01*
X146312812Y-78127624D01*
G37*
G36*
X128532812Y-78127624D02*
X128696784Y-78195544D01*
X128844354Y-78294147D01*
X128969853Y-78419646D01*
X129068456Y-78567216D01*
X129136376Y-78731188D01*
X129171000Y-78905259D01*
X129171000Y-79082741D01*
X129136376Y-79256812D01*
X129068456Y-79420784D01*
X128969853Y-79568354D01*
X128844354Y-79693853D01*
X128696784Y-79792456D01*
X128532812Y-79860376D01*
X128358741Y-79895000D01*
X128181259Y-79895000D01*
X128007188Y-79860376D01*
X127843216Y-79792456D01*
X127695646Y-79693853D01*
X127570147Y-79568354D01*
X127471544Y-79420784D01*
X127403624Y-79256812D01*
X127369000Y-79082741D01*
X127369000Y-78905259D01*
X127403624Y-78731188D01*
X127471544Y-78567216D01*
X127570147Y-78419646D01*
X127695646Y-78294147D01*
X127843216Y-78195544D01*
X128007188Y-78127624D01*
X128181259Y-78093000D01*
X128358741Y-78093000D01*
X128532812Y-78127624D01*
X128532812Y-78127624D01*
G37*
G36*
X169172812Y-78127624D02*
X169336784Y-78195544D01*
X169484354Y-78294147D01*
X169609853Y-78419646D01*
X169708456Y-78567216D01*
X169776376Y-78731188D01*
X169811000Y-78905259D01*
X169811000Y-79082741D01*
X169776376Y-79256812D01*
X169708456Y-79420784D01*
X169609853Y-79568354D01*
X169484354Y-79693853D01*
X169336784Y-79792456D01*
X169172812Y-79860376D01*
X168998741Y-79895000D01*
X168821259Y-79895000D01*
X168647188Y-79860376D01*
X168483216Y-79792456D01*
X168335646Y-79693853D01*
X168210147Y-79568354D01*
X168111544Y-79420784D01*
X168043624Y-79256812D01*
X168009000Y-79082741D01*
X168009000Y-78905259D01*
X168043624Y-78731188D01*
X168111544Y-78567216D01*
X168210147Y-78419646D01*
X168335646Y-78294147D01*
X168483216Y-78195544D01*
X168647188Y-78127624D01*
X168821259Y-78093000D01*
X168998741Y-78093000D01*
X169172812Y-78127624D01*
X169172812Y-78127624D01*
G37*
G36*
X125992812Y-78127624D02*
X126156784Y-78195544D01*
X126304354Y-78294147D01*
X126429853Y-78419646D01*
X126528456Y-78567216D01*
X126596376Y-78731188D01*
X126631000Y-78905259D01*
X126631000Y-79082741D01*
X126596376Y-79256812D01*
X126528456Y-79420784D01*
X126429853Y-79568354D01*
X126304354Y-79693853D01*
X126156784Y-79792456D01*
X125992812Y-79860376D01*
X125818741Y-79895000D01*
X125641259Y-79895000D01*
X125467188Y-79860376D01*
X125303216Y-79792456D01*
X125155646Y-79693853D01*
X125030147Y-79568354D01*
X124931544Y-79420784D01*
X124863624Y-79256812D01*
X124829000Y-79082741D01*
X124829000Y-78905259D01*
X124863624Y-78731188D01*
X124931544Y-78567216D01*
X125030147Y-78419646D01*
X125155646Y-78294147D01*
X125303216Y-78195544D01*
X125467188Y-78127624D01*
X125641259Y-78093000D01*
X125818741Y-78093000D01*
X125992812Y-78127624D01*
X125992812Y-78127624D01*
G37*
G36*
X166632812Y-78127624D02*
X166796784Y-78195544D01*
X166944354Y-78294147D01*
X167069853Y-78419646D01*
X167168456Y-78567216D01*
X167236376Y-78731188D01*
X167271000Y-78905259D01*
X167271000Y-79082741D01*
X167236376Y-79256812D01*
X167168456Y-79420784D01*
X167069853Y-79568354D01*
X166944354Y-79693853D01*
X166796784Y-79792456D01*
X166632812Y-79860376D01*
X166458741Y-79895000D01*
X166281259Y-79895000D01*
X166107188Y-79860376D01*
X165943216Y-79792456D01*
X165795646Y-79693853D01*
X165670147Y-79568354D01*
X165571544Y-79420784D01*
X165503624Y-79256812D01*
X165469000Y-79082741D01*
X165469000Y-78905259D01*
X165503624Y-78731188D01*
X165571544Y-78567216D01*
X165670147Y-78419646D01*
X165795646Y-78294147D01*
X165943216Y-78195544D01*
X166107188Y-78127624D01*
X166281259Y-78093000D01*
X166458741Y-78093000D01*
X166632812Y-78127624D01*
X166632812Y-78127624D01*
G37*
G36*
X151392812Y-78127624D02*
X151556784Y-78195544D01*
X151704354Y-78294147D01*
X151829853Y-78419646D01*
X151928456Y-78567216D01*
X151996376Y-78731188D01*
X152031000Y-78905259D01*
X152031000Y-79082741D01*
X151996376Y-79256812D01*
X151928456Y-79420784D01*
X151829853Y-79568354D01*
X151704354Y-79693853D01*
X151556784Y-79792456D01*
X151392812Y-79860376D01*
X151218741Y-79895000D01*
X151041259Y-79895000D01*
X150867188Y-79860376D01*
X150703216Y-79792456D01*
X150555646Y-79693853D01*
X150430147Y-79568354D01*
X150331544Y-79420784D01*
X150263624Y-79256812D01*
X150229000Y-79082741D01*
X150229000Y-78905259D01*
X150263624Y-78731188D01*
X150331544Y-78567216D01*
X150430147Y-78419646D01*
X150555646Y-78294147D01*
X150703216Y-78195544D01*
X150867188Y-78127624D01*
X151041259Y-78093000D01*
X151218741Y-78093000D01*
X151392812Y-78127624D01*
X151392812Y-78127624D01*
G37*
G36*
X164092812Y-78127624D02*
X164256784Y-78195544D01*
X164404354Y-78294147D01*
X164529853Y-78419646D01*
X164628456Y-78567216D01*
X164696376Y-78731188D01*
X164731000Y-78905259D01*
X164731000Y-79082741D01*
X164696376Y-79256812D01*
X164628456Y-79420784D01*
X164529853Y-79568354D01*
X164404354Y-79693853D01*
X164256784Y-79792456D01*
X164092812Y-79860376D01*
X163918741Y-79895000D01*
X163741259Y-79895000D01*
X163567188Y-79860376D01*
X163403216Y-79792456D01*
X163255646Y-79693853D01*
X163130147Y-79568354D01*
X163031544Y-79420784D01*
X162963624Y-79256812D01*
X162929000Y-79082741D01*
X162929000Y-78905259D01*
X162963624Y-78731188D01*
X163031544Y-78567216D01*
X163130147Y-78419646D01*
X163255646Y-78294147D01*
X163403216Y-78195544D01*
X163567188Y-78127624D01*
X163741259Y-78093000D01*
X163918741Y-78093000D01*
X164092812Y-78127624D01*
X164092812Y-78127624D01*
G37*
G36*
X153932812Y-78127624D02*
X154096784Y-78195544D01*
X154244354Y-78294147D01*
X154369853Y-78419646D01*
X154468456Y-78567216D01*
X154536376Y-78731188D01*
X154571000Y-78905259D01*
X154571000Y-79082741D01*
X154536376Y-79256812D01*
X154468456Y-79420784D01*
X154369853Y-79568354D01*
X154244354Y-79693853D01*
X154096784Y-79792456D01*
X153932812Y-79860376D01*
X153758741Y-79895000D01*
X153581259Y-79895000D01*
X153407188Y-79860376D01*
X153243216Y-79792456D01*
X153095646Y-79693853D01*
X152970147Y-79568354D01*
X152871544Y-79420784D01*
X152803624Y-79256812D01*
X152769000Y-79082741D01*
X152769000Y-78905259D01*
X152803624Y-78731188D01*
X152871544Y-78567216D01*
X152970147Y-78419646D01*
X153095646Y-78294147D01*
X153243216Y-78195544D01*
X153407188Y-78127624D01*
X153581259Y-78093000D01*
X153758741Y-78093000D01*
X153932812Y-78127624D01*
X153932812Y-78127624D01*
G37*
G36*
X161552812Y-78127624D02*
X161716784Y-78195544D01*
X161864354Y-78294147D01*
X161989853Y-78419646D01*
X162088456Y-78567216D01*
X162156376Y-78731188D01*
X162191000Y-78905259D01*
X162191000Y-79082741D01*
X162156376Y-79256812D01*
X162088456Y-79420784D01*
X161989853Y-79568354D01*
X161864354Y-79693853D01*
X161716784Y-79792456D01*
X161552812Y-79860376D01*
X161378741Y-79895000D01*
X161201259Y-79895000D01*
X161027188Y-79860376D01*
X160863216Y-79792456D01*
X160715646Y-79693853D01*
X160590147Y-79568354D01*
X160491544Y-79420784D01*
X160423624Y-79256812D01*
X160389000Y-79082741D01*
X160389000Y-78905259D01*
X160423624Y-78731188D01*
X160491544Y-78567216D01*
X160590147Y-78419646D01*
X160715646Y-78294147D01*
X160863216Y-78195544D01*
X161027188Y-78127624D01*
X161201259Y-78093000D01*
X161378741Y-78093000D01*
X161552812Y-78127624D01*
X161552812Y-78127624D01*
G37*
G36*
X156472812Y-78127624D02*
X156636784Y-78195544D01*
X156784354Y-78294147D01*
X156909853Y-78419646D01*
X157008456Y-78567216D01*
X157076376Y-78731188D01*
X157111000Y-78905259D01*
X157111000Y-79082741D01*
X157076376Y-79256812D01*
X157008456Y-79420784D01*
X156909853Y-79568354D01*
X156784354Y-79693853D01*
X156636784Y-79792456D01*
X156472812Y-79860376D01*
X156298741Y-79895000D01*
X156121259Y-79895000D01*
X155947188Y-79860376D01*
X155783216Y-79792456D01*
X155635646Y-79693853D01*
X155510147Y-79568354D01*
X155411544Y-79420784D01*
X155343624Y-79256812D01*
X155309000Y-79082741D01*
X155309000Y-78905259D01*
X155343624Y-78731188D01*
X155411544Y-78567216D01*
X155510147Y-78419646D01*
X155635646Y-78294147D01*
X155783216Y-78195544D01*
X155947188Y-78127624D01*
X156121259Y-78093000D01*
X156298741Y-78093000D01*
X156472812Y-78127624D01*
X156472812Y-78127624D01*
G37*
G36*
X159012812Y-78127624D02*
X159176784Y-78195544D01*
X159324354Y-78294147D01*
X159449853Y-78419646D01*
X159548456Y-78567216D01*
X159616376Y-78731188D01*
X159651000Y-78905259D01*
X159651000Y-79082741D01*
X159616376Y-79256812D01*
X159548456Y-79420784D01*
X159449853Y-79568354D01*
X159324354Y-79693853D01*
X159176784Y-79792456D01*
X159012812Y-79860376D01*
X158838741Y-79895000D01*
X158661259Y-79895000D01*
X158487188Y-79860376D01*
X158323216Y-79792456D01*
X158175646Y-79693853D01*
X158050147Y-79568354D01*
X157951544Y-79420784D01*
X157883624Y-79256812D01*
X157849000Y-79082741D01*
X157849000Y-78905259D01*
X157883624Y-78731188D01*
X157951544Y-78567216D01*
X158050147Y-78419646D01*
X158175646Y-78294147D01*
X158323216Y-78195544D01*
X158487188Y-78127624D01*
X158661259Y-78093000D01*
X158838741Y-78093000D01*
X159012812Y-78127624D01*
X159012812Y-78127624D01*
G37*
G36*
X148852812Y-78127624D02*
X149016784Y-78195544D01*
X149164354Y-78294147D01*
X149289853Y-78419646D01*
X149388456Y-78567216D01*
X149456376Y-78731188D01*
X149491000Y-78905259D01*
X149491000Y-79082741D01*
X149456376Y-79256812D01*
X149388456Y-79420784D01*
X149289853Y-79568354D01*
X149164354Y-79693853D01*
X149016784Y-79792456D01*
X148852812Y-79860376D01*
X148678741Y-79895000D01*
X148501259Y-79895000D01*
X148327188Y-79860376D01*
X148163216Y-79792456D01*
X148015646Y-79693853D01*
X147890147Y-79568354D01*
X147791544Y-79420784D01*
X147723624Y-79256812D01*
X147689000Y-79082741D01*
X147689000Y-78905259D01*
X147723624Y-78731188D01*
X147791544Y-78567216D01*
X147890147Y-78419646D01*
X148015646Y-78294147D01*
X148163216Y-78195544D01*
X148327188Y-78127624D01*
X148501259Y-78093000D01*
X148678741Y-78093000D01*
X148852812Y-78127624D01*
X148852812Y-78127624D01*
G37*
G36*
X141232812Y-78127624D02*
X141396784Y-78195544D01*
X141544354Y-78294147D01*
X141669853Y-78419646D01*
X141768456Y-78567216D01*
X141836376Y-78731188D01*
X141871000Y-78905259D01*
X141871000Y-79082741D01*
X141836376Y-79256812D01*
X141768456Y-79420784D01*
X141669853Y-79568354D01*
X141544354Y-79693853D01*
X141396784Y-79792456D01*
X141232812Y-79860376D01*
X141058741Y-79895000D01*
X140881259Y-79895000D01*
X140707188Y-79860376D01*
X140543216Y-79792456D01*
X140395646Y-79693853D01*
X140270147Y-79568354D01*
X140171544Y-79420784D01*
X140103624Y-79256812D01*
X140069000Y-79082741D01*
X140069000Y-78905259D01*
X140103624Y-78731188D01*
X140171544Y-78567216D01*
X140270147Y-78419646D01*
X140395646Y-78294147D01*
X140543216Y-78195544D01*
X140707188Y-78127624D01*
X140881259Y-78093000D01*
X141058741Y-78093000D01*
X141232812Y-78127624D01*
X141232812Y-78127624D01*
G37*
G36*
X105063228Y-77921703D02*
X105218100Y-77985853D01*
X105357481Y-78078985D01*
X105476015Y-78197519D01*
X105569147Y-78336900D01*
X105633297Y-78491772D01*
X105666000Y-78656184D01*
X105666000Y-78823816D01*
X105633297Y-78988228D01*
X105569147Y-79143100D01*
X105476015Y-79282481D01*
X105357481Y-79401015D01*
X105218100Y-79494147D01*
X105063228Y-79558297D01*
X104898816Y-79591000D01*
X104731184Y-79591000D01*
X104566772Y-79558297D01*
X104411900Y-79494147D01*
X104272519Y-79401015D01*
X104153985Y-79282481D01*
X104060853Y-79143100D01*
X103996703Y-78988228D01*
X103964000Y-78823816D01*
X103964000Y-78656184D01*
X103996703Y-78491772D01*
X104060853Y-78336900D01*
X104153985Y-78197519D01*
X104272519Y-78078985D01*
X104411900Y-77985853D01*
X104566772Y-77921703D01*
X104731184Y-77889000D01*
X104898816Y-77889000D01*
X105063228Y-77921703D01*
X105063228Y-77921703D01*
G37*
G36*
X108166000Y-79591000D02*
X106464000Y-79591000D01*
X106464000Y-77889000D01*
X108166000Y-77889000D01*
X108166000Y-79591000D01*
X108166000Y-79591000D01*
G37*
G36*
X176672527Y-76212736D02*
X176772410Y-76232604D01*
X177054674Y-76349521D01*
X177308705Y-76519259D01*
X177524741Y-76735295D01*
X177694479Y-76989326D01*
X177803470Y-77252456D01*
X177811396Y-77271591D01*
X177871000Y-77571238D01*
X177871000Y-77876762D01*
X177862060Y-77921704D01*
X177811396Y-78176410D01*
X177694479Y-78458674D01*
X177524741Y-78712705D01*
X177308705Y-78928741D01*
X177054674Y-79098479D01*
X176772410Y-79215396D01*
X176672527Y-79235264D01*
X176472762Y-79275000D01*
X176167238Y-79275000D01*
X175967473Y-79235264D01*
X175867590Y-79215396D01*
X175585326Y-79098479D01*
X175331295Y-78928741D01*
X175115259Y-78712705D01*
X174945521Y-78458674D01*
X174828604Y-78176410D01*
X174777940Y-77921704D01*
X174769000Y-77876762D01*
X174769000Y-77571238D01*
X174828604Y-77271591D01*
X174836530Y-77252456D01*
X174945521Y-76989326D01*
X175115259Y-76735295D01*
X175331295Y-76519259D01*
X175585326Y-76349521D01*
X175867590Y-76232604D01*
X175967473Y-76212736D01*
X176167238Y-76173000D01*
X176472762Y-76173000D01*
X176672527Y-76212736D01*
X176672527Y-76212736D01*
G37*
G36*
X118672527Y-76212736D02*
X118772410Y-76232604D01*
X119054674Y-76349521D01*
X119308705Y-76519259D01*
X119524741Y-76735295D01*
X119694479Y-76989326D01*
X119803470Y-77252456D01*
X119811396Y-77271591D01*
X119871000Y-77571238D01*
X119871000Y-77876762D01*
X119862060Y-77921704D01*
X119811396Y-78176410D01*
X119694479Y-78458674D01*
X119524741Y-78712705D01*
X119308705Y-78928741D01*
X119054674Y-79098479D01*
X118772410Y-79215396D01*
X118672527Y-79235264D01*
X118472762Y-79275000D01*
X118167238Y-79275000D01*
X117967473Y-79235264D01*
X117867590Y-79215396D01*
X117585326Y-79098479D01*
X117331295Y-78928741D01*
X117115259Y-78712705D01*
X116945521Y-78458674D01*
X116828604Y-78176410D01*
X116777940Y-77921704D01*
X116769000Y-77876762D01*
X116769000Y-77571238D01*
X116828604Y-77271591D01*
X116836530Y-77252456D01*
X116945521Y-76989326D01*
X117115259Y-76735295D01*
X117331295Y-76519259D01*
X117585326Y-76349521D01*
X117867590Y-76232604D01*
X117967473Y-76212736D01*
X118167238Y-76173000D01*
X118472762Y-76173000D01*
X118672527Y-76212736D01*
X118672527Y-76212736D01*
G37*
G36*
X128532812Y-75587624D02*
X128696784Y-75655544D01*
X128844354Y-75754147D01*
X128969853Y-75879646D01*
X129068456Y-76027216D01*
X129136376Y-76191188D01*
X129171000Y-76365259D01*
X129171000Y-76542741D01*
X129136376Y-76716812D01*
X129068456Y-76880784D01*
X128969853Y-77028354D01*
X128844354Y-77153853D01*
X128696784Y-77252456D01*
X128532812Y-77320376D01*
X128358741Y-77355000D01*
X128181259Y-77355000D01*
X128007188Y-77320376D01*
X127843216Y-77252456D01*
X127695646Y-77153853D01*
X127570147Y-77028354D01*
X127471544Y-76880784D01*
X127403624Y-76716812D01*
X127369000Y-76542741D01*
X127369000Y-76365259D01*
X127403624Y-76191188D01*
X127471544Y-76027216D01*
X127570147Y-75879646D01*
X127695646Y-75754147D01*
X127843216Y-75655544D01*
X128007188Y-75587624D01*
X128181259Y-75553000D01*
X128358741Y-75553000D01*
X128532812Y-75587624D01*
X128532812Y-75587624D01*
G37*
G36*
X125992812Y-75587624D02*
X126156784Y-75655544D01*
X126304354Y-75754147D01*
X126429853Y-75879646D01*
X126528456Y-76027216D01*
X126596376Y-76191188D01*
X126631000Y-76365259D01*
X126631000Y-76542741D01*
X126596376Y-76716812D01*
X126528456Y-76880784D01*
X126429853Y-77028354D01*
X126304354Y-77153853D01*
X126156784Y-77252456D01*
X125992812Y-77320376D01*
X125818741Y-77355000D01*
X125641259Y-77355000D01*
X125467188Y-77320376D01*
X125303216Y-77252456D01*
X125155646Y-77153853D01*
X125030147Y-77028354D01*
X124931544Y-76880784D01*
X124863624Y-76716812D01*
X124829000Y-76542741D01*
X124829000Y-76365259D01*
X124863624Y-76191188D01*
X124931544Y-76027216D01*
X125030147Y-75879646D01*
X125155646Y-75754147D01*
X125303216Y-75655544D01*
X125467188Y-75587624D01*
X125641259Y-75553000D01*
X125818741Y-75553000D01*
X125992812Y-75587624D01*
X125992812Y-75587624D01*
G37*
G36*
X171712812Y-75587624D02*
X171876784Y-75655544D01*
X172024354Y-75754147D01*
X172149853Y-75879646D01*
X172248456Y-76027216D01*
X172316376Y-76191188D01*
X172351000Y-76365259D01*
X172351000Y-76542741D01*
X172316376Y-76716812D01*
X172248456Y-76880784D01*
X172149853Y-77028354D01*
X172024354Y-77153853D01*
X171876784Y-77252456D01*
X171712812Y-77320376D01*
X171538741Y-77355000D01*
X171361259Y-77355000D01*
X171187188Y-77320376D01*
X171023216Y-77252456D01*
X170875646Y-77153853D01*
X170750147Y-77028354D01*
X170651544Y-76880784D01*
X170583624Y-76716812D01*
X170549000Y-76542741D01*
X170549000Y-76365259D01*
X170583624Y-76191188D01*
X170651544Y-76027216D01*
X170750147Y-75879646D01*
X170875646Y-75754147D01*
X171023216Y-75655544D01*
X171187188Y-75587624D01*
X171361259Y-75553000D01*
X171538741Y-75553000D01*
X171712812Y-75587624D01*
X171712812Y-75587624D01*
G37*
G36*
X169172812Y-75587624D02*
X169336784Y-75655544D01*
X169484354Y-75754147D01*
X169609853Y-75879646D01*
X169708456Y-76027216D01*
X169776376Y-76191188D01*
X169811000Y-76365259D01*
X169811000Y-76542741D01*
X169776376Y-76716812D01*
X169708456Y-76880784D01*
X169609853Y-77028354D01*
X169484354Y-77153853D01*
X169336784Y-77252456D01*
X169172812Y-77320376D01*
X168998741Y-77355000D01*
X168821259Y-77355000D01*
X168647188Y-77320376D01*
X168483216Y-77252456D01*
X168335646Y-77153853D01*
X168210147Y-77028354D01*
X168111544Y-76880784D01*
X168043624Y-76716812D01*
X168009000Y-76542741D01*
X168009000Y-76365259D01*
X168043624Y-76191188D01*
X168111544Y-76027216D01*
X168210147Y-75879646D01*
X168335646Y-75754147D01*
X168483216Y-75655544D01*
X168647188Y-75587624D01*
X168821259Y-75553000D01*
X168998741Y-75553000D01*
X169172812Y-75587624D01*
X169172812Y-75587624D01*
G37*
G36*
X166632812Y-75587624D02*
X166796784Y-75655544D01*
X166944354Y-75754147D01*
X167069853Y-75879646D01*
X167168456Y-76027216D01*
X167236376Y-76191188D01*
X167271000Y-76365259D01*
X167271000Y-76542741D01*
X167236376Y-76716812D01*
X167168456Y-76880784D01*
X167069853Y-77028354D01*
X166944354Y-77153853D01*
X166796784Y-77252456D01*
X166632812Y-77320376D01*
X166458741Y-77355000D01*
X166281259Y-77355000D01*
X166107188Y-77320376D01*
X165943216Y-77252456D01*
X165795646Y-77153853D01*
X165670147Y-77028354D01*
X165571544Y-76880784D01*
X165503624Y-76716812D01*
X165469000Y-76542741D01*
X165469000Y-76365259D01*
X165503624Y-76191188D01*
X165571544Y-76027216D01*
X165670147Y-75879646D01*
X165795646Y-75754147D01*
X165943216Y-75655544D01*
X166107188Y-75587624D01*
X166281259Y-75553000D01*
X166458741Y-75553000D01*
X166632812Y-75587624D01*
X166632812Y-75587624D01*
G37*
G36*
X164092812Y-75587624D02*
X164256784Y-75655544D01*
X164404354Y-75754147D01*
X164529853Y-75879646D01*
X164628456Y-76027216D01*
X164696376Y-76191188D01*
X164731000Y-76365259D01*
X164731000Y-76542741D01*
X164696376Y-76716812D01*
X164628456Y-76880784D01*
X164529853Y-77028354D01*
X164404354Y-77153853D01*
X164256784Y-77252456D01*
X164092812Y-77320376D01*
X163918741Y-77355000D01*
X163741259Y-77355000D01*
X163567188Y-77320376D01*
X163403216Y-77252456D01*
X163255646Y-77153853D01*
X163130147Y-77028354D01*
X163031544Y-76880784D01*
X162963624Y-76716812D01*
X162929000Y-76542741D01*
X162929000Y-76365259D01*
X162963624Y-76191188D01*
X163031544Y-76027216D01*
X163130147Y-75879646D01*
X163255646Y-75754147D01*
X163403216Y-75655544D01*
X163567188Y-75587624D01*
X163741259Y-75553000D01*
X163918741Y-75553000D01*
X164092812Y-75587624D01*
X164092812Y-75587624D01*
G37*
G36*
X161552812Y-75587624D02*
X161716784Y-75655544D01*
X161864354Y-75754147D01*
X161989853Y-75879646D01*
X162088456Y-76027216D01*
X162156376Y-76191188D01*
X162191000Y-76365259D01*
X162191000Y-76542741D01*
X162156376Y-76716812D01*
X162088456Y-76880784D01*
X161989853Y-77028354D01*
X161864354Y-77153853D01*
X161716784Y-77252456D01*
X161552812Y-77320376D01*
X161378741Y-77355000D01*
X161201259Y-77355000D01*
X161027188Y-77320376D01*
X160863216Y-77252456D01*
X160715646Y-77153853D01*
X160590147Y-77028354D01*
X160491544Y-76880784D01*
X160423624Y-76716812D01*
X160389000Y-76542741D01*
X160389000Y-76365259D01*
X160423624Y-76191188D01*
X160491544Y-76027216D01*
X160590147Y-75879646D01*
X160715646Y-75754147D01*
X160863216Y-75655544D01*
X161027188Y-75587624D01*
X161201259Y-75553000D01*
X161378741Y-75553000D01*
X161552812Y-75587624D01*
X161552812Y-75587624D01*
G37*
G36*
X159012812Y-75587624D02*
X159176784Y-75655544D01*
X159324354Y-75754147D01*
X159449853Y-75879646D01*
X159548456Y-76027216D01*
X159616376Y-76191188D01*
X159651000Y-76365259D01*
X159651000Y-76542741D01*
X159616376Y-76716812D01*
X159548456Y-76880784D01*
X159449853Y-77028354D01*
X159324354Y-77153853D01*
X159176784Y-77252456D01*
X159012812Y-77320376D01*
X158838741Y-77355000D01*
X158661259Y-77355000D01*
X158487188Y-77320376D01*
X158323216Y-77252456D01*
X158175646Y-77153853D01*
X158050147Y-77028354D01*
X157951544Y-76880784D01*
X157883624Y-76716812D01*
X157849000Y-76542741D01*
X157849000Y-76365259D01*
X157883624Y-76191188D01*
X157951544Y-76027216D01*
X158050147Y-75879646D01*
X158175646Y-75754147D01*
X158323216Y-75655544D01*
X158487188Y-75587624D01*
X158661259Y-75553000D01*
X158838741Y-75553000D01*
X159012812Y-75587624D01*
X159012812Y-75587624D01*
G37*
G36*
X156472812Y-75587624D02*
X156636784Y-75655544D01*
X156784354Y-75754147D01*
X156909853Y-75879646D01*
X157008456Y-76027216D01*
X157076376Y-76191188D01*
X157111000Y-76365259D01*
X157111000Y-76542741D01*
X157076376Y-76716812D01*
X157008456Y-76880784D01*
X156909853Y-77028354D01*
X156784354Y-77153853D01*
X156636784Y-77252456D01*
X156472812Y-77320376D01*
X156298741Y-77355000D01*
X156121259Y-77355000D01*
X155947188Y-77320376D01*
X155783216Y-77252456D01*
X155635646Y-77153853D01*
X155510147Y-77028354D01*
X155411544Y-76880784D01*
X155343624Y-76716812D01*
X155309000Y-76542741D01*
X155309000Y-76365259D01*
X155343624Y-76191188D01*
X155411544Y-76027216D01*
X155510147Y-75879646D01*
X155635646Y-75754147D01*
X155783216Y-75655544D01*
X155947188Y-75587624D01*
X156121259Y-75553000D01*
X156298741Y-75553000D01*
X156472812Y-75587624D01*
X156472812Y-75587624D01*
G37*
G36*
X153932812Y-75587624D02*
X154096784Y-75655544D01*
X154244354Y-75754147D01*
X154369853Y-75879646D01*
X154468456Y-76027216D01*
X154536376Y-76191188D01*
X154571000Y-76365259D01*
X154571000Y-76542741D01*
X154536376Y-76716812D01*
X154468456Y-76880784D01*
X154369853Y-77028354D01*
X154244354Y-77153853D01*
X154096784Y-77252456D01*
X153932812Y-77320376D01*
X153758741Y-77355000D01*
X153581259Y-77355000D01*
X153407188Y-77320376D01*
X153243216Y-77252456D01*
X153095646Y-77153853D01*
X152970147Y-77028354D01*
X152871544Y-76880784D01*
X152803624Y-76716812D01*
X152769000Y-76542741D01*
X152769000Y-76365259D01*
X152803624Y-76191188D01*
X152871544Y-76027216D01*
X152970147Y-75879646D01*
X153095646Y-75754147D01*
X153243216Y-75655544D01*
X153407188Y-75587624D01*
X153581259Y-75553000D01*
X153758741Y-75553000D01*
X153932812Y-75587624D01*
X153932812Y-75587624D01*
G37*
G36*
X151392812Y-75587624D02*
X151556784Y-75655544D01*
X151704354Y-75754147D01*
X151829853Y-75879646D01*
X151928456Y-76027216D01*
X151996376Y-76191188D01*
X152031000Y-76365259D01*
X152031000Y-76542741D01*
X151996376Y-76716812D01*
X151928456Y-76880784D01*
X151829853Y-77028354D01*
X151704354Y-77153853D01*
X151556784Y-77252456D01*
X151392812Y-77320376D01*
X151218741Y-77355000D01*
X151041259Y-77355000D01*
X150867188Y-77320376D01*
X150703216Y-77252456D01*
X150555646Y-77153853D01*
X150430147Y-77028354D01*
X150331544Y-76880784D01*
X150263624Y-76716812D01*
X150229000Y-76542741D01*
X150229000Y-76365259D01*
X150263624Y-76191188D01*
X150331544Y-76027216D01*
X150430147Y-75879646D01*
X150555646Y-75754147D01*
X150703216Y-75655544D01*
X150867188Y-75587624D01*
X151041259Y-75553000D01*
X151218741Y-75553000D01*
X151392812Y-75587624D01*
X151392812Y-75587624D01*
G37*
G36*
X148852812Y-75587624D02*
X149016784Y-75655544D01*
X149164354Y-75754147D01*
X149289853Y-75879646D01*
X149388456Y-76027216D01*
X149456376Y-76191188D01*
X149491000Y-76365259D01*
X149491000Y-76542741D01*
X149456376Y-76716812D01*
X149388456Y-76880784D01*
X149289853Y-77028354D01*
X149164354Y-77153853D01*
X149016784Y-77252456D01*
X148852812Y-77320376D01*
X148678741Y-77355000D01*
X148501259Y-77355000D01*
X148327188Y-77320376D01*
X148163216Y-77252456D01*
X148015646Y-77153853D01*
X147890147Y-77028354D01*
X147791544Y-76880784D01*
X147723624Y-76716812D01*
X147689000Y-76542741D01*
X147689000Y-76365259D01*
X147723624Y-76191188D01*
X147791544Y-76027216D01*
X147890147Y-75879646D01*
X148015646Y-75754147D01*
X148163216Y-75655544D01*
X148327188Y-75587624D01*
X148501259Y-75553000D01*
X148678741Y-75553000D01*
X148852812Y-75587624D01*
X148852812Y-75587624D01*
G37*
G36*
X146312812Y-75587624D02*
X146476784Y-75655544D01*
X146624354Y-75754147D01*
X146749853Y-75879646D01*
X146848456Y-76027216D01*
X146916376Y-76191188D01*
X146951000Y-76365259D01*
X146951000Y-76542741D01*
X146916376Y-76716812D01*
X146848456Y-76880784D01*
X146749853Y-77028354D01*
X146624354Y-77153853D01*
X146476784Y-77252456D01*
X146312812Y-77320376D01*
X146138741Y-77355000D01*
X145961259Y-77355000D01*
X145787188Y-77320376D01*
X145623216Y-77252456D01*
X145475646Y-77153853D01*
X145350147Y-77028354D01*
X145251544Y-76880784D01*
X145183624Y-76716812D01*
X145149000Y-76542741D01*
X145149000Y-76365259D01*
X145183624Y-76191188D01*
X145251544Y-76027216D01*
X145350147Y-75879646D01*
X145475646Y-75754147D01*
X145623216Y-75655544D01*
X145787188Y-75587624D01*
X145961259Y-75553000D01*
X146138741Y-75553000D01*
X146312812Y-75587624D01*
X146312812Y-75587624D01*
G37*
G36*
X143772812Y-75587624D02*
X143936784Y-75655544D01*
X144084354Y-75754147D01*
X144209853Y-75879646D01*
X144308456Y-76027216D01*
X144376376Y-76191188D01*
X144411000Y-76365259D01*
X144411000Y-76542741D01*
X144376376Y-76716812D01*
X144308456Y-76880784D01*
X144209853Y-77028354D01*
X144084354Y-77153853D01*
X143936784Y-77252456D01*
X143772812Y-77320376D01*
X143598741Y-77355000D01*
X143421259Y-77355000D01*
X143247188Y-77320376D01*
X143083216Y-77252456D01*
X142935646Y-77153853D01*
X142810147Y-77028354D01*
X142711544Y-76880784D01*
X142643624Y-76716812D01*
X142609000Y-76542741D01*
X142609000Y-76365259D01*
X142643624Y-76191188D01*
X142711544Y-76027216D01*
X142810147Y-75879646D01*
X142935646Y-75754147D01*
X143083216Y-75655544D01*
X143247188Y-75587624D01*
X143421259Y-75553000D01*
X143598741Y-75553000D01*
X143772812Y-75587624D01*
X143772812Y-75587624D01*
G37*
G36*
X141232812Y-75587624D02*
X141396784Y-75655544D01*
X141544354Y-75754147D01*
X141669853Y-75879646D01*
X141768456Y-76027216D01*
X141836376Y-76191188D01*
X141871000Y-76365259D01*
X141871000Y-76542741D01*
X141836376Y-76716812D01*
X141768456Y-76880784D01*
X141669853Y-77028354D01*
X141544354Y-77153853D01*
X141396784Y-77252456D01*
X141232812Y-77320376D01*
X141058741Y-77355000D01*
X140881259Y-77355000D01*
X140707188Y-77320376D01*
X140543216Y-77252456D01*
X140395646Y-77153853D01*
X140270147Y-77028354D01*
X140171544Y-76880784D01*
X140103624Y-76716812D01*
X140069000Y-76542741D01*
X140069000Y-76365259D01*
X140103624Y-76191188D01*
X140171544Y-76027216D01*
X140270147Y-75879646D01*
X140395646Y-75754147D01*
X140543216Y-75655544D01*
X140707188Y-75587624D01*
X140881259Y-75553000D01*
X141058741Y-75553000D01*
X141232812Y-75587624D01*
X141232812Y-75587624D01*
G37*
G36*
X138692812Y-75587624D02*
X138856784Y-75655544D01*
X139004354Y-75754147D01*
X139129853Y-75879646D01*
X139228456Y-76027216D01*
X139296376Y-76191188D01*
X139331000Y-76365259D01*
X139331000Y-76542741D01*
X139296376Y-76716812D01*
X139228456Y-76880784D01*
X139129853Y-77028354D01*
X139004354Y-77153853D01*
X138856784Y-77252456D01*
X138692812Y-77320376D01*
X138518741Y-77355000D01*
X138341259Y-77355000D01*
X138167188Y-77320376D01*
X138003216Y-77252456D01*
X137855646Y-77153853D01*
X137730147Y-77028354D01*
X137631544Y-76880784D01*
X137563624Y-76716812D01*
X137529000Y-76542741D01*
X137529000Y-76365259D01*
X137563624Y-76191188D01*
X137631544Y-76027216D01*
X137730147Y-75879646D01*
X137855646Y-75754147D01*
X138003216Y-75655544D01*
X138167188Y-75587624D01*
X138341259Y-75553000D01*
X138518741Y-75553000D01*
X138692812Y-75587624D01*
X138692812Y-75587624D01*
G37*
G36*
X136152812Y-75587624D02*
X136316784Y-75655544D01*
X136464354Y-75754147D01*
X136589853Y-75879646D01*
X136688456Y-76027216D01*
X136756376Y-76191188D01*
X136791000Y-76365259D01*
X136791000Y-76542741D01*
X136756376Y-76716812D01*
X136688456Y-76880784D01*
X136589853Y-77028354D01*
X136464354Y-77153853D01*
X136316784Y-77252456D01*
X136152812Y-77320376D01*
X135978741Y-77355000D01*
X135801259Y-77355000D01*
X135627188Y-77320376D01*
X135463216Y-77252456D01*
X135315646Y-77153853D01*
X135190147Y-77028354D01*
X135091544Y-76880784D01*
X135023624Y-76716812D01*
X134989000Y-76542741D01*
X134989000Y-76365259D01*
X135023624Y-76191188D01*
X135091544Y-76027216D01*
X135190147Y-75879646D01*
X135315646Y-75754147D01*
X135463216Y-75655544D01*
X135627188Y-75587624D01*
X135801259Y-75553000D01*
X135978741Y-75553000D01*
X136152812Y-75587624D01*
X136152812Y-75587624D01*
G37*
G36*
X123452812Y-75587624D02*
X123616784Y-75655544D01*
X123764354Y-75754147D01*
X123889853Y-75879646D01*
X123988456Y-76027216D01*
X124056376Y-76191188D01*
X124091000Y-76365259D01*
X124091000Y-76542741D01*
X124056376Y-76716812D01*
X123988456Y-76880784D01*
X123889853Y-77028354D01*
X123764354Y-77153853D01*
X123616784Y-77252456D01*
X123452812Y-77320376D01*
X123278741Y-77355000D01*
X123101259Y-77355000D01*
X122927188Y-77320376D01*
X122763216Y-77252456D01*
X122615646Y-77153853D01*
X122490147Y-77028354D01*
X122391544Y-76880784D01*
X122323624Y-76716812D01*
X122289000Y-76542741D01*
X122289000Y-76365259D01*
X122323624Y-76191188D01*
X122391544Y-76027216D01*
X122490147Y-75879646D01*
X122615646Y-75754147D01*
X122763216Y-75655544D01*
X122927188Y-75587624D01*
X123101259Y-75553000D01*
X123278741Y-75553000D01*
X123452812Y-75587624D01*
X123452812Y-75587624D01*
G37*
G36*
X131072812Y-75587624D02*
X131236784Y-75655544D01*
X131384354Y-75754147D01*
X131509853Y-75879646D01*
X131608456Y-76027216D01*
X131676376Y-76191188D01*
X131711000Y-76365259D01*
X131711000Y-76542741D01*
X131676376Y-76716812D01*
X131608456Y-76880784D01*
X131509853Y-77028354D01*
X131384354Y-77153853D01*
X131236784Y-77252456D01*
X131072812Y-77320376D01*
X130898741Y-77355000D01*
X130721259Y-77355000D01*
X130547188Y-77320376D01*
X130383216Y-77252456D01*
X130235646Y-77153853D01*
X130110147Y-77028354D01*
X130011544Y-76880784D01*
X129943624Y-76716812D01*
X129909000Y-76542741D01*
X129909000Y-76365259D01*
X129943624Y-76191188D01*
X130011544Y-76027216D01*
X130110147Y-75879646D01*
X130235646Y-75754147D01*
X130383216Y-75655544D01*
X130547188Y-75587624D01*
X130721259Y-75553000D01*
X130898741Y-75553000D01*
X131072812Y-75587624D01*
X131072812Y-75587624D01*
G37*
G36*
X133612812Y-75587624D02*
X133776784Y-75655544D01*
X133924354Y-75754147D01*
X134049853Y-75879646D01*
X134148456Y-76027216D01*
X134216376Y-76191188D01*
X134251000Y-76365259D01*
X134251000Y-76542741D01*
X134216376Y-76716812D01*
X134148456Y-76880784D01*
X134049853Y-77028354D01*
X133924354Y-77153853D01*
X133776784Y-77252456D01*
X133612812Y-77320376D01*
X133438741Y-77355000D01*
X133261259Y-77355000D01*
X133087188Y-77320376D01*
X132923216Y-77252456D01*
X132775646Y-77153853D01*
X132650147Y-77028354D01*
X132551544Y-76880784D01*
X132483624Y-76716812D01*
X132449000Y-76542741D01*
X132449000Y-76365259D01*
X132483624Y-76191188D01*
X132551544Y-76027216D01*
X132650147Y-75879646D01*
X132775646Y-75754147D01*
X132923216Y-75655544D01*
X133087188Y-75587624D01*
X133261259Y-75553000D01*
X133438741Y-75553000D01*
X133612812Y-75587624D01*
X133612812Y-75587624D01*
G37*
M02*
